<svg xmlns="http://www.w3.org/2000/svg" xmlns:xlink="http://www.w3.org/1999/xlink" viewBox="0 0 59.96 64.26"><defs><style>.cls-1{fill:#1f1f1f;}.cls-2{isolation:isolate;}.cls-3{fill:#d7dce0;mix-blend-mode:multiply;}.cls-4{clip-path:url(#clip-path);}.cls-5{fill:#171717;}.cls-6{fill:#191919;}.cls-7{fill:#5b5b5b;}.cls-8{fill:#1a1a1a;}.cls-9{fill:#292929;}.cls-10{fill:#212121;}.cls-11{fill:#242424;}.cls-12{fill:#979797;}.cls-13{fill:#141414;}</style><clipPath id="clip-path"><path class="cls-1" d="M37,56.32c0-.23,0-.53,0-.75s.05-.32.07-.45c.08-.34.11-.46.19-.72s.16-.43.24-.62A8.66,8.66,0,0,1,39,51.5c-2,2.28-1.44,5.14,1.79,7.09,4.07,2.45,10.81,2.51,15,.15,3.49-2,4.2-4.93,2.08-7.29a8.57,8.57,0,0,1,1.45,2.23,8.48,8.48,0,0,1,.43,1.3A6.59,6.59,0,0,1,60,56.25c0,1.75-1.18,3.5-3.53,4.81-4.57,2.55-11.82,2.47-16.21-.16C38.1,59.62,37,58,37,56.32Z"/></clipPath></defs><g class="cls-2"><g id="Capa_2" data-name="Capa 2"><g id="layer"><path class="cls-3" d="M55.36,54.29l0,0a14.39,14.39,0,0,0-3.22-4,12.6,12.6,0,0,1-1.8-2c-.56-.63-1-.55-1.93-.59l-.32,0-.64,0h-.29c-.29-.11-.52-.17-.59-.19-.27-.07-.44-.11-.71-.16a8.1,8.1,0,0,0-.91-.11c-.22,0-.52,0-.75,0h-.68C40,45.64,33.32,42.8,28,40a2.08,2.08,0,0,1-.38-.25,1.7,1.7,0,0,1-.19-.2l.09-.14,0,0,.15-.26,0,0,.1-.21.1-.29s0,0,0,.05a3.59,3.59,0,0,0,.1-.39L28,38a2.1,2.1,0,0,0-.05-.48l-.07-.22c0-.1-.1-.22-.14-.31l-.12-.18-.16-.2-.14-.14-.14-.14-.14-.11a.94.94,0,0,0-.12-.09l-.12-.09L26.74,36l-.09-.07-.07,0-.07,0h0l-.05,0a2.48,2.48,0,0,0-.25-.18l.06,0-.33-.2-.17-.08a2.91,2.91,0,0,0-.51-.2L25,35.08,24.47,35l-.36,0-.54,0h-.44a12,12,0,0,0-1.56.13,9.92,9.92,0,0,0-2.69-2.11c-2.52-1.45-9.36-2.54-13.19-3.06.25-.56,0-1.18-.74-1.61a4.52,4.52,0,0,0-4.1,0,1.25,1.25,0,0,0,0,2.36A4.51,4.51,0,0,0,3.61,31c0,.07.07.14.1.22l.07.15.2.48c.07.14.17.34.23.49l.25.51c.07.16.18.37.26.53l.28.52c.08.16.21.38.3.54l.3.52.34.54.34.49c.11.16.27.37.39.52L7,37c.13.15.33.35.47.5l.4.38.64.5.1.06.33.21c.38.22.77.43,1.17.62h0l.5.23.13,0,.25.11.11,0,.1,0,.19.07.19.07L12,40l.1,0,.19.07.1,0,.14,0h.06c0,.08-.07.17-.1.24l-.09.31c0,.1,0,.23,0,.33v.27c0,.1,0,.22,0,.32l.09.23a2.38,2.38,0,0,0,.18.3l.14.18a2.45,2.45,0,0,0,.35.31l.18.12a2.56,2.56,0,0,0,.39.21l.18.08.16.07.07,0,.11,0,.11.05.16.07.15.07.21.08.2.07.31.1.26.07.47.11.33,0,.75.07h.41c.59,0,.73,0,1.3-.07l.49-.06.15,0,.33-.06.14,0,.17,0,.35-.07.16,0a2.44,2.44,0,0,1,.62.28,146.73,146.73,0,0,1,12.27,8.9h0a.31.31,0,0,0,0,.1s0,0,0,.06,0,.12,0,.18a2.53,2.53,0,0,0,0,.38,2.46,2.46,0,0,0,.17.5,2.09,2.09,0,0,0,.24.41,2.6,2.6,0,0,0,.3.34.76.76,0,0,0,.12.1l.5,2.94a2,2,0,0,0,0,.24.64.64,0,0,1,0,.07l.06.17,0,.06a1.47,1.47,0,0,0,.1.22.05.05,0,0,1,0,0l.05.07,0,0,0,0,.06.1,0,.06.06.08,0,0v0l0,0h0l.09.11c.06.08.17.18.24.26s.29.24.43.34l.3.2.34.18.56.25.45.15,0,.06v0a1.77,1.77,0,0,0,.19.23,4.73,4.73,0,0,0,.45.45,2.91,2.91,0,0,0,.33.26l.06,0,.23.16.1.06h0l.19.12,1.15.66a8.79,8.79,0,0,0,4.48.87h.69l.46,0h0l.39,0h.06l.62-.08.53-.09.17,0,.37-.06.2,0L48.9,63l.22,0,.33-.08.2-.05.35-.1.19,0,.44-.12.08,0,.5-.15h0l.82-.28.16-.06.8-.3,0,0c1.14-.47,4-1.36,4.42-2.67S56.05,55.37,55.36,54.29Z"/><path class="cls-1" d="M37,57.65a4.78,4.78,0,0,0,1.71,3.48h0l0,0a9.16,9.16,0,0,0,.87.7l.09.07.48.3a11.65,11.65,0,0,0,1.66.82c.19.08.39.14.59.21s.6.23.92.32l.33.07c.23.07.47.11.71.17l.7.16v0a17.88,17.88,0,0,0,11.3-1.54C58.79,61.09,60,59.34,60,57.59V56.25h0v-.11s0-.06,0-.08,0-.21,0-.3l0-.11s0-.08,0-.11l0-.15L59.82,55l-.09-.34c0-.1-.07-.24-.11-.35l0-.06v0l0-.09v0L59.51,54s0-.08,0-.12a4,4,0,0,0,.18-1,4.62,4.62,0,0,0-.11-1.26,3,3,0,0,0-.12-.4,5.36,5.36,0,0,0-.24-.6,4,4,0,0,1,.31.86,4.7,4.7,0,0,0-1-1.89l-.33-.41-.17-.2-.33-.4-.34-.41-.17-.2-.33-.41-.33-.4-.17-.2L56,46.5l-.15-.19v0a4.17,4.17,0,0,0-.15-.57,5.06,5.06,0,0,0-.25-.58,4.06,4.06,0,0,0-.42-.63,4.51,4.51,0,0,0-.4-.47l-.22-.2a3.48,3.48,0,0,1,.54.63,3.91,3.91,0,0,0-.58-.67l0,0,0,0,0,0a.52.52,0,0,0-.11-.1h0l.11.09-.12-.08a159.19,159.19,0,0,1-1.91-16.09,2.23,2.23,0,0,1,0-.47h0a1.26,1.26,0,0,1,.09-.31l.19-.09,0,0,.41-.21.26-.15.34-.23,0,0,.43-.33.28-.26a3.33,3.33,0,0,0,.45-.51l.19-.27c.07-.11.15-.26.22-.38l.11-.26a2.49,2.49,0,0,0,.11-.29l.06-.23a1.6,1.6,0,0,0,0-.21l0-.2a.88.88,0,0,0,0-.16l0-.16,0-.12v-.3h0v-.07a2.11,2.11,0,0,0,0-.32v.06a3.46,3.46,0,0,0,0-.38l0-.19a2,2,0,0,0-.09-.49l-.08-.23c-.05-.13-.13-.29-.19-.41l-.16-.26-.27-.35-.25-.26a6.22,6.22,0,0,0-1-.78,11.53,11.53,0,0,0,.55-3.69c0-2.93-2.87-8-4.56-10.75A2.36,2.36,0,0,0,48.44,0a2.36,2.36,0,0,0-1.19,4.41l-.16.27-.12.2-.36.6-.36.63-.37.66-.37.68-.37.69-.36.71-.35.71c-.1.22-.23.51-.34.73l-.3.7c-.09.22-.2.52-.29.75l-.24.67c-.08.23-.17.54-.23.77l-.15.62c-.05.26-.1.61-.14.87l0,.53v.3l0,.28V16h0c0,.16,0,.38,0,.54v.05a1.36,1.36,0,0,0,0,.2l0,.23c0,.08,0,.18,0,.29s0,.06,0,.09,0,.11,0,.16L43,18c0,.17.1.39.14.55l0,.1v0l0,.14L43,19l-.35.25c-.12.09-.26.22-.37.31l-.26.27-.29.35-.18.28c-.07.12-.15.29-.21.41l-.09.27a2.89,2.89,0,0,0-.1.5l0,.24a2.16,2.16,0,0,0,0,.43l0,.19a.88.88,0,0,0,0,.16v.19l0,.12a.77.77,0,0,0,0,.15l0,.15a1.3,1.3,0,0,0,0,.21l0,.19a2.29,2.29,0,0,0,.08.28l.08.23.17.37.14.25.36.51.17.19h0l.06.06a5.88,5.88,0,0,0,.82.69l.35.22c.13.09.32.18.46.26l.41.19a1.21,1.21,0,0,1,0,.14,2,2,0,0,1,.08.64A154.67,154.67,0,0,1,42.7,43.77h0a3.84,3.84,0,0,0-.52.56,3.31,3.31,0,0,1,.35-.41l-.2.19a3.34,3.34,0,0,0-.35.4,4.15,4.15,0,0,0-.85,1.66s0,.11,0,.18h0l-2.65,3.24a5.62,5.62,0,0,0-.53.81l-.11.21a.54.54,0,0,0,0,.11l0-.09s0,.1-.07.15,0,.07,0,.11a2.56,2.56,0,0,0-.12.32,3,3,0,0,0-.12.4c0,.17-.07.41-.1.59s0,.26,0,.38,0,.26,0,.37,0,.41.08.58.07.29.11.42l0,.1h0a2.2,2.2,0,0,0-.13.34c-.08.26-.11.38-.19.72l-.06.34v.06s0,0,0,0a.17.17,0,0,1,0,.07q0,.16,0,.3v.16a1.55,1.55,0,0,0,0,.22,4.06,4.06,0,0,0,.2,1.23,4.06,4.06,0,0,1-.2-1.23Z"/><path class="cls-1" d="M37,56.32c0-.23,0-.53,0-.75s.05-.32.07-.45c.08-.34.11-.46.19-.72s.16-.43.24-.62A8.66,8.66,0,0,1,39,51.5c-2,2.28-1.44,5.14,1.79,7.09,4.07,2.45,10.81,2.51,15,.15,3.49-2,4.2-4.93,2.08-7.29a8.57,8.57,0,0,1,1.45,2.23,8.48,8.48,0,0,1,.43,1.3A6.59,6.59,0,0,1,60,56.25c0,1.75-1.18,3.5-3.53,4.81-4.57,2.55-11.82,2.47-16.21-.16C38.1,59.62,37,58,37,56.32Z"/><g class="cls-4"><path class="cls-1" d="M37,56.32a7.37,7.37,0,0,1,2-4.82c-2,2.28-1.44,5.14,1.79,7.09,4.07,2.45,10.81,2.51,15,.15,3.49-2,4.2-4.93,2.08-7.29a7.44,7.44,0,0,1,2,4.69c0,1.86-1.18,3.61-3.53,4.92-4.57,2.55-11.82,2.47-16.21-.16C38.1,59.62,37,58,37,56.32Z"/><path class="cls-1" d="M58.07,51.6l.2.23.11.14.11.16.12.17.13.19.13.2.13.23.13.23c0,.08.1.19.13.27l.13.26c0,.09.09.22.12.31l.11.3c0,.11.08.25.11.35l.09.34.07.41,0,.37c0,.15,0,.34,0,.49,0,1.75-1.18,3.5-3.53,4.81-4.57,2.55-11.82,2.47-16.21-.16C38.1,59.62,37,58,37,56.32c0-.12,0-.26,0-.38s0-.34.05-.48l.06-.34.1-.41.09-.31.13-.35.11-.27.13-.3.12-.25c.05-.07.1-.18.14-.25l.13-.21.13-.22.12-.18.13-.18.11-.16.11-.14.1-.13.09-.11.07-.08L39,51.5c-2,2.28-1.44,5.14,1.79,7.09A16.27,16.27,0,0,0,51,60.3h0c-1.26.46-1.21,1.23-.77,1.5,1.24.74,4.36-.33,4.12-1.41-.13-.61-.84-.27-1.19-.55a13,13,0,0,0,2.73-1.11c3.49-2,4.2-4.93,2.08-7.29l.06.07.07.08Z"/><path class="cls-1" d="M58.07,51.6l.2.23.11.14.11.16.12.17.13.19.13.2.13.23.13.23c0,.08.1.19.13.27l.13.26c0,.09.09.22.12.31l.11.3c0,.11.08.25.11.35l.09.34.07.41,0,.37c0,.15,0,.34,0,.49,0,1.75-1.18,3.5-3.53,4.81-4.57,2.55-11.82,2.47-16.21-.16C38.1,59.62,37,58,37,56.32c0-.12,0-.26,0-.38s0-.34.05-.48l.06-.34.1-.41.09-.31.13-.35.11-.27.13-.3.12-.25c.05-.07.1-.18.14-.25l.13-.21.13-.22.12-.18.13-.18.11-.16.11-.14.1-.13.09-.11.07-.08L39,51.5c-2,2.28-1.44,5.14,1.79,7.09a16,16,0,0,0,9.44,1.79l0,0c-.89.32-1.15,1.35-.19,1.69,1.76.63,5.43-.65,4.8-2a.86.86,0,0,0-.89-.49,12.4,12.4,0,0,0,1.92-.85c3.49-2,4.2-4.93,2.08-7.29l.06.07.07.08Z"/><path class="cls-1" d="M58.07,51.6l.2.23.11.14.11.16.12.17.13.19.13.2.13.23.13.23c0,.08.1.19.13.27l.13.26c0,.09.09.22.12.31l.11.3c0,.11.08.25.11.35l.09.34.07.41,0,.37c0,.15,0,.34,0,.49,0,1.75-1.18,3.5-3.53,4.81-4.57,2.55-11.82,2.47-16.21-.16C38.1,59.62,37,58,37,56.32c0-.12,0-.26,0-.38s0-.34.05-.48l.06-.34.1-.41.09-.31.13-.35.11-.27.13-.3.12-.25c.05-.07.1-.18.14-.25l.13-.21.13-.22.12-.18.13-.18.11-.16.11-.14.1-.13.09-.11.07-.08L39,51.5c-2,2.28-1.44,5.14,1.79,7.09a15.69,15.69,0,0,0,8.79,1.84l-.05,0c-.68.35-1.06,1.38.1,1.8,2.08.74,6.65-.85,5.8-2.45a.79.79,0,0,0-.83-.47,10.09,10.09,0,0,0,1.24-.59c3.49-2,4.2-4.93,2.08-7.29l.06.07.07.08Z"/><path class="cls-1" d="M58.07,51.6l.2.23.11.14.11.16.12.17.13.19.13.2.13.23.13.23c0,.08.1.19.13.27l.13.26c0,.09.09.22.12.31l.11.3c0,.11.08.25.11.35l.09.34.07.41,0,.37c0,.15,0,.34,0,.49,0,1.75-1.18,3.5-3.53,4.81-4.57,2.55-11.82,2.47-16.21-.16C38.1,59.62,37,58,37,56.32c0-.12,0-.26,0-.38s0-.34.05-.48l.06-.34.1-.41.09-.31.13-.35.11-.27.13-.3.12-.25c.05-.07.1-.18.14-.25l.13-.21.13-.22.12-.18.13-.18.11-.16.11-.14.1-.13.09-.11.07-.08L39,51.5c-2,2.28-1.44,5.14,1.79,7.09A15.36,15.36,0,0,0,49,60.46l-.07,0c-.5.28-1.24,1.61.69,2,2.83.63,7.73-1.23,6.68-3a.86.86,0,0,0-.9-.51l.48-.25c3.49-2,4.2-4.93,2.08-7.29h0l.13.15Z"/><path class="cls-1" d="M40.22,60.9C38.1,59.62,37,58,37,56.32a1.55,1.55,0,0,1,0-.22,7.25,7.25,0,0,1,.62-2.5l.17-.37c.05-.07.1-.18.14-.25l.13-.21.13-.22.12-.18.13-.18.11-.16.11-.14.1-.13.09-.11.07-.08L39,51.5c-2,2.28-1.44,5.14,1.79,7.09a15,15,0,0,0,7.49,1.88h-.08c-.35.26-1.36,1.86,1.23,2.3l.62.08a17.07,17.07,0,0,1-9.85-2Z"/><path class="cls-1" d="M37.89,53.77a3.92,3.92,0,0,1,1-2.05l.12-.15L39,51.5a4.42,4.42,0,0,0-1.14,2.35.25.25,0,0,1,0-.08Z"/><path class="cls-1" d="M58.07,51.6l.2.23.11.14.11.16.12.17.13.19.13.2.13.23.13.23c0,.08.1.19.13.27l.13.26c0,.09.09.22.12.31l.11.3c0,.11.08.25.11.35l.09.34.07.41,0,.37c0,.15,0,.34,0,.49a5.42,5.42,0,0,1-2.78,4.35l.22-.27c1-1.45-.81-2-.92-1.95l-.08,0c3-2,3.55-4.74,1.54-7l.06.07.07.08Z"/><path class="cls-1" d="M58.07,51.6l.2.23.11.14.11.16.12.17.13.19.13.2.13.23.13.23c0,.08.1.19.13.27l.13.26c0,.09.09.22.12.31l.11.3c0,.11.08.25.11.35l.09.34.07.41,0,.37c0,.15,0,.34,0,.49a4.68,4.68,0,0,1-1.45,3.25l.1-.23a1.26,1.26,0,0,0-1-1.82,4,4,0,0,0,.31-6l.06.07.07.08Z"/><path class="cls-1" d="M58.07,51.6l.2.23.11.14.11.16.12.17.13.19.13.2.13.23.13.23c0,.08.1.19.13.27l.13.26c0,.09.09.22.12.31l.11.3c0,.11.08.25.11.35l.09.34.07.41,0,.37c0,.15,0,.34,0,.49a4.37,4.37,0,0,1-.68,2.28l0-.22a1.65,1.65,0,0,0-.82-1.93,3.91,3.91,0,0,0-.57-4.93l.06.07.07.08Z"/><path class="cls-1" d="M40.22,60.9a6.59,6.59,0,0,1-3-3.29l.06,0c.67.64.67.64.85.51.34-.26.35-1.42.35-1.43a3.33,3.33,0,0,0-.07-.34h0a6.79,6.79,0,0,0,2.35,2.2,14.74,14.74,0,0,0,6.68,1.85h0a1.33,1.33,0,0,0,0,2.09,3,3,0,0,0,.53.27l.37.12a16.28,16.28,0,0,1-8.19-2Z"/><path class="cls-1" d="M58.07,51.6l.2.23.11.14.11.16.12.17.13.19.13.2.13.23.13.23c0,.08.1.19.13.27l.13.26c0,.09.09.22.12.31l.11.3c0,.11.08.25.11.35l.09.34.07.41,0,.37c0,.15,0,.34,0,.49a4,4,0,0,1-.22,1.31l0-.19a2.18,2.18,0,0,0-.78-2,4,4,0,0,0-1-3.87l.06.07.07.08Z"/><path class="cls-1" d="M40.22,60.9a7.84,7.84,0,0,1-2.26-2l.14.06c1.12.48.86-1.89.85-1.92a7.68,7.68,0,0,0,1.86,1.53,14,14,0,0,0,5.63,1.77c-.34,0-.83,1.52-.07,2.21l.18.14.23.14a15.5,15.5,0,0,1-6.56-2Z"/><path class="cls-1" d="M58.07,51.6l.2.23.11.14.11.16.12.17.13.19.13.2.13.23.13.23c0,.08.1.19.13.27l.13.26c0,.09.09.22.12.31l.11.3c0,.11.08.25.11.35l.09.34.07.41,0,.37c0,.15,0,.34,0,.49a2.44,2.44,0,0,1,0,.27v-.21a3,3,0,0,0-.82-2.1,4.23,4.23,0,0,0-1.19-2.76l.06.07.07.08Z"/><path class="cls-1" d="M40.22,60.9a9.36,9.36,0,0,1-1.48-1.11h0c1.16.07.85-2,.76-2.16a8.71,8.71,0,0,0,1.31,1A13.11,13.11,0,0,0,45,60.14,1.8,1.8,0,0,0,45,62.49l.17.15a14.66,14.66,0,0,1-4.92-1.74Z"/><path class="cls-1" d="M58.07,51.6l.2.23.11.14.11.16.12.17.13.19.13.2.13.23.13.23c0,.08.1.19.13.27l.13.26c0,.09.09.22.12.31l.09.24,0-.1a4.6,4.6,0,0,0-.7-1.22h0a4.86,4.86,0,0,0-.93-1.46l.06.07.07.08Z"/><path class="cls-1" d="M40.22,60.9l-.46-.3.22,0a.61.61,0,0,0,.23-.11c.1-.1.24-.12.33-.23a.73.73,0,0,0,.15-.34,1.69,1.69,0,0,0,0-.66,2,2,0,0,0-.05-.26c0-.15,0-.3,0-.44s0-.1-.13-.19l.31.2a11.43,11.43,0,0,0,2.35,1.06s-.08,0-.11,0a1.87,1.87,0,0,0-.45,1.3c0,.12,0,.45.55,1.12l.23.19a13.42,13.42,0,0,1-3.16-1.34Z"/><path class="cls-1" d="M53.74,60.72c-.11.92-2.63,1.55-3.17.79-.29-.41.34-.9.44-1a5.21,5.21,0,0,1,2-.45c.76.13.77.51.76.62Z"/><path class="cls-1" d="M53.08,60.91c0,.24-.93.59-.94.6s-.8,0-1-.21a.25.25,0,0,1,0-.12c0-.24.84-.65.87-.66s1,0,1,.16a.31.31,0,0,1,0,.23Z"/></g><path class="cls-5" d="M59,53.2A5.91,5.91,0,0,0,56.17,50c-3.15-1.9-7.91-2.37-11.87-1.38a13.3,13.3,0,0,0-3.18,1.23,8.78,8.78,0,0,0-1.76,1.28,4.4,4.4,0,0,0-1.51,3.37A4.83,4.83,0,0,0,39.94,58a7.78,7.78,0,0,0,.76.53l.11.07a13.3,13.3,0,0,0,4.32,1.57,18,18,0,0,0,3.75.3,15.26,15.26,0,0,0,7-1.72,8.44,8.44,0,0,0,1.78-1.3A4.93,4.93,0,0,0,59,55.35,3.66,3.66,0,0,0,59,53.2ZM56.8,56.64a7.06,7.06,0,0,1-1.61,1.18,13.86,13.86,0,0,1-6.34,1.57,16.08,16.08,0,0,1-3.41-.27,12.33,12.33,0,0,1-3.93-1.43l-.1-.07a6,6,0,0,1-.69-.48A4.36,4.36,0,0,1,38.82,54a4,4,0,0,1,1.38-3.07,8.17,8.17,0,0,1,1.59-1.16,12,12,0,0,1,2.89-1.11A15.13,15.13,0,0,1,55.47,49.9,5.41,5.41,0,0,1,58,52.79a3.32,3.32,0,0,1,0,2A4.5,4.5,0,0,1,56.8,56.64Z"/><path class="cls-1" d="M44.52,27.69a2,2,0,0,0-.08-.64,1.34,1.34,0,0,0-.22-.45,2.74,2.74,0,0,0,.78.46,7.06,7.06,0,0,0,1,.34l.43.1.87.12c.18,0,.67.06,1,.06a11.46,11.46,0,0,0,1.39-.08,9.49,9.49,0,0,0,1.26-.25,5.22,5.22,0,0,0,1-.34,2.93,2.93,0,0,0,.71-.43,1.56,1.56,0,0,0-.3,1.09,2,2,0,0,1-1.19,1.7,6.1,6.1,0,0,1-5.52-.06A1.86,1.86,0,0,1,44.52,27.69Z"/><path class="cls-5" d="M52.25,28.16a3.6,3.6,0,0,1,0-.67c0-.44.06-.46,0-.47s-.07,0-.1,0c-.54.25-1,.44-1,.44a16.38,16.38,0,0,0-2.83.91,2.24,2.24,0,0,0-1.14,1.48,5,5,0,0,1-1.58-.58,2.61,2.61,0,0,1-.45-.33h0a5.68,5.68,0,0,0-.88-2.3l0-.05h0v0h0l0,0,.07.06.1.07.09.06.18.1.31.14.28.11.38.13.36.1.43.1.43.07.46.05.46,0,.48,0h.47l.47,0,.45,0,.46-.07.41-.08.42-.1.33-.1.37-.14.24-.1.3-.15.14-.09.16-.1,0-.05.06,0h0l0,0,0,0,0,.07,0,.07s0,.08,0,.11l0,.1a.65.65,0,0,0,0,.13l0,.11a.77.77,0,0,0,0,.15v.28a1.4,1.4,0,0,1-.06.49Z"/><path class="cls-6" d="M53.49,43.22l-.58.46c2.35,1.41,2.27,3.67-.18,5a9.63,9.63,0,0,1-8.7-.09c-1.76-1.06-2.16-2.58-1.23-3.85a4.36,4.36,0,0,1,1.41-1.19,9.17,9.17,0,0,1,4.83-1l.08-.6a10.4,10.4,0,0,0-5.47,1.12,4.85,4.85,0,0,0-1.6,1.34c-1,1.44-.59,3.16,1.39,4.36a10.89,10.89,0,0,0,9.85.1C56.06,47.37,56.15,44.82,53.49,43.22Z"/><path class="cls-1" d="M42.32,46.07a166.69,166.69,0,0,0,2.2-18.38,1.86,1.86,0,0,0,1.08,1.62,6.1,6.1,0,0,0,5.52.06,2,2,0,0,0,1.19-1.7A165,165,0,0,0,54.62,46a3.08,3.08,0,0,1-1.89,2.69,9.63,9.63,0,0,1-8.7-.09A3,3,0,0,1,42.32,46.07Z"/><path class="cls-7" d="M49.43,35.83s.23-5.93.46-6.62.57,1.52,1.15,7.1,1.45,12.37,1.45,12.37a5.86,5.86,0,0,1-3.31.91C49.29,48.45,49.43,35.83,49.43,35.83Z"/><path class="cls-5" d="M47.15,30.27c-.77,19.21-.77,19.21-.75,19.24A7.61,7.61,0,0,1,44,48.63a5,5,0,0,1-.56-.39h0A177.74,177.74,0,0,0,45.15,29a2.61,2.61,0,0,0,.45.33,5,5,0,0,0,1.58.58c0,.11,0,.27,0,.38Z"/><path class="cls-1" d="M55.72,21.82l0-.19a2,2,0,0,0-.09-.49l-.08-.23c-.05-.13-.13-.29-.19-.41l-.16-.26-.27-.35-.25-.26a5.67,5.67,0,0,0-1-.79l-.44-.25-.45-.21-.48-.19L51.76,18l-.51-.14-.52-.12-.54-.09-.54-.07-.55,0-.55,0H48l-.55,0-.55.06-.54.08c-.16,0-.37.07-.53.1L45.3,18l-.51.16-.48.18-.49.21-.43.22L43,19l-.35.25c-.12.09-.26.22-.37.31l-.26.27-.29.35-.18.28c-.07.12-.15.29-.21.41l-.09.27a2.89,2.89,0,0,0-.1.5l0,.24a2.16,2.16,0,0,0,0,.43l0,.19a.88.88,0,0,0,0,.16v.19l0,.12a.77.77,0,0,0,0,.15l0,.15a1.3,1.3,0,0,0,0,.21l0,.19a2.29,2.29,0,0,0,.08.28l.08.23.17.37.14.25.36.51.23.24a5.28,5.28,0,0,0,.81.69l.35.22c.13.09.32.18.46.26l.41.19.48.19.45.15.48.13.48.11.5.08.49.06.5,0,.5,0h.5l.5,0,.5,0,.5-.07.5-.1.47-.12.49-.15.45-.16.49-.22.41-.21a7.06,7.06,0,0,0,1-.68l.28-.26a3.33,3.33,0,0,0,.45-.51l.19-.27c.07-.11.15-.26.22-.38l.11-.26a2.49,2.49,0,0,0,.11-.29l.06-.23a1.6,1.6,0,0,0,0-.21l0-.2a.88.88,0,0,0,0-.16l0-.16s0-.08,0-.12v-.3h0v-.07A3.89,3.89,0,0,0,55.72,21.82Z"/><path class="cls-5" d="M53.08,26.57a8,8,0,0,1-.9.43l-.45.16-.49.15-.47.12-.5.1-.5.07-.5,0-.5,0h-.5l-.5,0-.5,0-.49-.06-.5-.08-.48-.11-.48-.13-.45-.15-.48-.19L44,26.72c-.14-.08-.33-.17-.46-.26l-.35-.22a5.28,5.28,0,0,1-.81-.69l-.08-.07h0c.39.37.71.28.69-.2C43,25,43,25,43,25s2,.5,2,1.11c0,1.68,5.39,2.37,8.68.13l-.34.23-.26.15Z"/><path class="cls-8" d="M55.72,21.82l0-.19a2,2,0,0,0-.09-.49l-.08-.23c-.05-.13-.13-.29-.19-.41l-.16-.26-.27-.35-.25-.26a5.67,5.67,0,0,0-1-.79l-.44-.25-.45-.21-.48-.19L51.76,18l-.51-.14-.52-.12-.54-.09-.54-.07-.55,0-.55,0H48l-.55,0-.55.06-.54.08c-.16,0-.37.07-.53.1L45.3,18l-.48.15-.48.17c-2.88,1.16-3.92,3.29-2.53,5.17,2.71,3.7,12.88,3.18,13.87-1.75a1.21,1.21,0,0,1,0,.5A3.46,3.46,0,0,0,55.72,21.82Z"/><path class="cls-9" d="M54.85,21.07c.32,1.18-.32,2.44-1.93,3.33a10.2,10.2,0,0,1-9.24-.09c-1.46-.88-2-2.07-1.74-3.2a1.26,1.26,0,0,0,1.48-1v0h0a2.32,2.32,0,0,0,1.37,2.2,6.92,6.92,0,0,0,3.48.88s0,0,0,0A6.52,6.52,0,0,0,52.41,22a2,2,0,0,0,.9-2.15c.33,1.19,1,1.24,1.54,1.19Z"/><path class="cls-5" d="M54.85,21.07c.32,1.18-.32,2.44-1.93,3.33a10.2,10.2,0,0,1-9.24-.09c-1.46-.88-2-2.07-1.74-3.2a1.42,1.42,0,0,0,.87-.15h0a1.43,1.43,0,0,0,1.46,1.91c.17-.13.16-.29.14-.79a3.77,3.77,0,0,0,.39.26,6.1,6.1,0,0,0,1.86.71h0c-1.22,1.61,1.76,1.94,3.1,1.79a5.82,5.82,0,0,0,3.59-1.62c.53-.61.53-.61,0-2.46a1.75,1.75,0,0,0,0-.88c.33,1.19,1,1.24,1.54,1.19Z"/><path class="cls-10" d="M48.42,2.51s-5.7,8.75-5.7,12.69,1.51,7.4,5.67,7.4,5.8-3.28,5.8-7.44S48.42,2.51,48.42,2.51Z"/><path class="cls-5" d="M48.39,22.6l-.55,0-.28,0-.28,0L47,22.42l-.28-.07-.28-.1-.3-.11L45.85,22l-.31-.17-.29-.2a5.37,5.37,0,0,1-.85-.75l-.24-.31c-.13-.18-.3-.43-.42-.63l-.19-.38a5.89,5.89,0,0,1-.24-.58l-.15-.43c0-.16-.1-.38-.14-.55l-.1-.46c0-.17-.06-.38-.08-.54l-.06-.48c0-.16,0-.38,0-.54l0-.48v-.3l0-.53c0-.26.09-.61.14-.87l.15-.62c.06-.23.15-.54.23-.77l.24-.67c.09-.23.2-.53.29-.75l.3-.7c.11-.22.24-.51.34-.73l.35-.71.36-.71.37-.69.37-.68.37-.66.36-.63.36-.6c.1-.17.23-.4.34-.56l.31-.53.3-.48.26-.42a3,3,0,0,0,.24-.38c-3.34,8.09-5.93,17.56.12,20.09,0,0-.1,0-.15,0Z"/><path class="cls-7" d="M48.63,4.73s-.22,9.79.47,11.91a1.66,1.66,0,0,0,3.27,0c.2-1.5-.36-3.64-1.2-6.1s-2.71-7.79-2.71-7.79Z"/><circle class="cls-5" cx="48.44" cy="2.37" r="2.37"/><path class="cls-11" d="M50.66,2.12a2,2,0,1,1-2-2A2,2,0,0,1,50.66,2.12Z"/><path class="cls-12" d="M49.81,1.78a.64.64,0,1,1-.64-.64A.64.64,0,0,1,49.81,1.78Z"/><path class="cls-1" d="M55.92,46.94a3.74,3.74,0,0,0-.22-1.15,5.06,5.06,0,0,0-.25-.58,4.06,4.06,0,0,0-.42-.63,4.51,4.51,0,0,0-.4-.47l-.22-.2c1.67,1.57,1.28,3.67-1.12,5a10.89,10.89,0,0,1-9.85-.1c-2.23-1.35-2.52-3.37-.91-4.9l-.2.19a3.34,3.34,0,0,0-.35.4,4.15,4.15,0,0,0-.85,1.66,4.47,4.47,0,0,0-.1.66,3.46,3.46,0,0,0,.13,1.28,4.17,4.17,0,0,0,2,2.23,11.54,11.54,0,0,0,10.49.11,4.28,4.28,0,0,0,2.17-2.38A3.31,3.31,0,0,0,55.92,46.94Zm-1.69-3.19.18.16-.18-.16Zm-11.54,0-.16.14.16-.14Zm.15-.12-.15.12h0Z"/><path class="cls-5" d="M43.12,50.34a5.34,5.34,0,0,1-1.31-1.07h0c.11.08.89.31.73-.52a9.43,9.43,0,0,0-.29-.9,4.77,4.77,0,0,0,1.17,1,8.78,8.78,0,0,0,3,1.06c-1.26.73-.1,1.51.44,1.66l.09,0,.06,0a9.87,9.87,0,0,1-3.94-1.24Z"/><path class="cls-7" d="M52.29,50.1s-.24.47-1.42.72a1.87,1.87,0,0,1-1.43-.13.11.11,0,0,1,0-.1c.09-.24,2.61-1,2.85-.59a.34.34,0,0,1,0,.1Z"/><path class="cls-1" d="M58.51,49.54l-.33-.41-.17-.2-.33-.4-.34-.41-.17-.2-.33-.41-.33-.4-.17-.2L56,46.5l-.15-.19a5,5,0,0,1,.07.63A3.39,3.39,0,0,1,55.8,48h0a.14.14,0,0,1,0,.07h0v.08l0,0v0l0,0v0l0,0,0,0,0,0v0l0,0,0,0,0,0,0,0,0,0,0,0,0,0,0,0,0,0,0,0,0,0,0,0,0,0,0,0,0,0,0,0,0,0,0,0,0,0,0,0,0,0,0,0,0,0,0,0,0,0,0,0,0,0,0,0,0,0,0,0,0,0,0,0-.05,0,0,0-.05,0,0,0,0,0,0,0,0,0,0,0,0,0,0,0-.06,0,0,0-.06,0,0,0-.05,0,0,0,0,0-.06,0-.21.13a11.54,11.54,0,0,1-10.49-.11l-.1-.06,0,0-.06,0,0,0-.07,0,0,0-.06,0,0,0,0,0,0,0-.05,0,0,0,0,0,0,0,0,0,0,0,0,0,0,0,0,0,0,0,0,0,0,0,0,0,0,0,0,0,0,0,0,0,0,0,0,0,0,0,0,0,0,0,0,0,0,0,0,0,0,0,0,0,0,0,0,0,0,0,0,0,0,0,0,0,0,0,0,0,0,0,0,0,0,0,0,0,0,0,0,0v0l0,0,0,0,0-.06v0l0-.08h0a.25.25,0,0,1,0-.07v0l0,0h0a1.36,1.36,0,0,1,0-.17A3.62,3.62,0,0,1,41,46.83c0-.17,0-.35.06-.48l-2.65,3.24c-1.91,2.35-1.25,5.23,2,7.21,4.25,2.56,11.28,2.63,15.7.16C59.72,55,60.52,52,58.51,49.54Zm-3.09-3.71h0v0Zm-13.91,0v0Zm0,0Z"/><path class="cls-1" d="M40.63,57.58c-.29-.18-.66-.43-.93-.63a8.31,8.31,0,0,1-.79-.71c-.09-.09-.21-.22-.29-.32s-.3-.36-.42-.53a5.39,5.39,0,0,1-.56-1.06,5.71,5.71,0,0,1-.24-.8c0-.17-.06-.4-.08-.58s0-.26,0-.37,0-.27,0-.38.06-.42.1-.59a3,3,0,0,1,.12-.4c.06-.18.16-.41.23-.58-1,2.12-.13,4.48,2.69,6.17,4.25,2.56,11.28,2.63,15.7.16,3.07-1.71,4.08-4.18,3-6.39a5.36,5.36,0,0,1,.24.6,3,3,0,0,1,.12.4,4.62,4.62,0,0,1,.11,1.26A4.7,4.7,0,0,1,59,55a6.86,6.86,0,0,1-1.85,2,9.52,9.52,0,0,1-1.13.72l-.6.32-1,.44a17.7,17.7,0,0,1-11.76,0c-.38-.15-.88-.37-1.25-.54S40.85,57.71,40.63,57.58Z"/><path class="cls-5" d="M38.44,49.59l3.32-4.06A2.72,2.72,0,0,0,41.57,49l-3.42,5.76a4.07,4.07,0,0,1,.29-5.12Z"/><path class="cls-5" d="M39.21,55.89l3.06-6.16a6.16,6.16,0,0,0,.69.51l-2.73,6.41a8.45,8.45,0,0,1-1-.76Z"/><path class="cls-5" d="M40.23,56.65,43,50.24l.16.1a7.8,7.8,0,0,0,1.6.73l-1.86,6.82a12.11,12.11,0,0,1-2.39-1.09l-.24-.15Z"/><path class="cls-5" d="M42.86,57.89l1.86-6.82a10.3,10.3,0,0,0,1.3.35l-1.21,7a15.51,15.51,0,0,1-2-.52Z"/><path class="cls-7" d="M52,51.13l-.61.17a9.37,9.37,0,0,1-.92.19l1,7c.47-.07.92-.17,1.37-.28s.62-.16.92-.26Z"/><path class="cls-13" d="M37,57.65V56.32c0,1.65,1.07,3.3,3.19,4.58,4.39,2.63,11.64,2.71,16.21.16C58.78,59.75,60,58,60,56.25v1.34c0,1.75-1.17,3.5-3.52,4.81-4.57,2.54-11.83,2.47-16.21-.17C38.1,61,37,59.3,37,57.65Z"/><path class="cls-5" d="M45.14,62.64,45,62.49A1.8,1.8,0,0,1,45,60.14a13.11,13.11,0,0,1-4.22-1.55,8.71,8.71,0,0,1-1.31-1c.09.11.4,2.23-.76,2.16h0v1.34a10.57,10.57,0,0,0,1,.79l.48.3a13.11,13.11,0,0,0,3.17,1.35c.57.16,1.15.29,1.74.4V62.64Z"/><path class="cls-7" d="M53,60.1a5.21,5.21,0,0,0-2,.45c-.1.06-.73.55-.44,1,.54.76,3.06.13,3.17-.79C53.75,60.61,53.74,60.23,53,60.1Z"/></g></g></g></svg>