<svg xmlns="http://www.w3.org/2000/svg" xmlns:xlink="http://www.w3.org/1999/xlink" viewBox="0 0 22.93 64.26"><defs><style>.cls-1{fill:#1f1f1f;}.cls-2{clip-path:url(#clip-path);}.cls-3{fill:#171717;}.cls-4{fill:#191919;}.cls-5{fill:#5b5b5b;}.cls-6{fill:#1a1a1a;}.cls-7{fill:#292929;}.cls-8{fill:#212121;}.cls-9{fill:#242424;}.cls-10{fill:#979797;}.cls-11{fill:#141414;}</style><clipPath id="clip-path"><path class="cls-1" d="M0,56.32c0-.23,0-.53.05-.75a3.25,3.25,0,0,1,.07-.45c.08-.34.11-.46.19-.72a5.37,5.37,0,0,1,.24-.62A8.12,8.12,0,0,1,2,51.5C0,53.78.55,56.64,3.78,58.59c4.07,2.45,10.81,2.51,15.05.15,3.49-2,4.2-4.93,2.08-7.29a9.33,9.33,0,0,1,.8,1,7.57,7.57,0,0,1,.64,1.19,6.72,6.72,0,0,1,.43,1.3,5.88,5.88,0,0,1,.15,1.27c0,1.75-1.18,3.5-3.53,4.81-4.57,2.55-11.83,2.47-16.21-.16C1.06,59.62,0,58,0,56.32Z"/></clipPath></defs><g id="Capa_2" data-name="Capa 2"><g id="layer"><path class="cls-1" d="M0,57.65a4.83,4.83,0,0,0,1.72,3.48h0l0,0a9.33,9.33,0,0,0,.88.7l.09.07.48.3a12.07,12.07,0,0,0,1.65.82c.2.08.4.14.6.21s.6.23.92.32l.33.07c.23.07.47.11.7.17l.71.16v0A17.84,17.84,0,0,0,19.4,62.4c2.36-1.31,3.54-3.06,3.53-4.81V56.25h0a.28.28,0,0,0,0-.09v0a.22.22,0,0,1,0-.08c0-.11,0-.21,0-.3l0-.11s0-.08,0-.11l0-.15c0-.12-.05-.29-.08-.41l-.08-.34c0-.1-.08-.24-.11-.35l0-.06,0,0,0-.09v0L22.48,54a.61.61,0,0,0-.05-.12,4,4,0,0,0,.19-1,4.62,4.62,0,0,0-.11-1.26c0-.12-.08-.28-.12-.4a5.36,5.36,0,0,0-.24-.6,4.62,4.62,0,0,1,.3.86,4.56,4.56,0,0,0-1-1.89l-.33-.41-.17-.2-.34-.4-.33-.41-.17-.2-.33-.41-.34-.4-.16-.2L19,46.5l-.16-.19s0,0,0,0a4.17,4.17,0,0,0-.15-.57,3.79,3.79,0,0,0-.26-.58,3.39,3.39,0,0,0-.41-.63,4.51,4.51,0,0,0-.4-.47l-.22-.2a3.93,3.93,0,0,1,.54.63,4.41,4.41,0,0,0-.58-.67l0,0-.05,0,0,0a.52.52,0,0,0-.11-.1h0l.1.09-.11-.08a153.59,153.59,0,0,1-1.91-16.09,2.27,2.27,0,0,1,0-.47h0a1.89,1.89,0,0,1,.1-.31l.18-.09.05,0,.4-.21.26-.15.35-.23,0,0,.43-.33.28-.26a4,4,0,0,0,.45-.51l.19-.27c.07-.11.15-.26.21-.38l.12-.26.1-.29.07-.23a1.6,1.6,0,0,0,.05-.21l0-.2c0-.05,0-.11,0-.16l0-.16v-.12l0-.12v-.18h0v-.07a2.11,2.11,0,0,0,0-.32v.06a3.46,3.46,0,0,0,0-.38l0-.19a3.13,3.13,0,0,0-.1-.49l-.07-.23-.19-.41-.16-.26-.27-.35-.25-.26a5.78,5.78,0,0,0-1-.78,11.26,11.26,0,0,0,.55-3.69c0-2.93-2.86-8-4.55-10.75a2.37,2.37,0,1,0-2.38,0,2.4,2.4,0,0,0-.16.27l-.13.2-.35.6-.36.63-.37.66-.38.68-.36.69-.37.71-.34.71-.34.73-.3.7-.3.75-.23.67c-.08.23-.17.54-.24.77l-.15.62-.13.87,0,.53v.58a1.34,1.34,0,0,1,0,.2h0c0,.16,0,.38,0,.54v.05a1.36,1.36,0,0,0,0,.2l0,.23c0,.08,0,.18,0,.29s0,.06,0,.09l0,.16L6,18c0,.17.11.39.15.55l0,.1v0l0,.14-.3.19-.36.25-.36.31-.27.27c-.09.1-.2.25-.28.35l-.18.28c-.07.12-.15.29-.21.41l-.09.27a2.75,2.75,0,0,0-.11.5v.24a2.16,2.16,0,0,0,0,.43l0,.19a.88.88,0,0,0,0,.16V23a.77.77,0,0,1,0,.15l0,.15c0,.07,0,.15,0,.21l0,.19a2.29,2.29,0,0,0,.08.28l.08.23a3,3,0,0,0,.17.37l.13.25c.11.15.25.36.37.51l.17.19h0l.06.06a5.88,5.88,0,0,0,.82.69l.35.22c.13.09.32.18.46.26l.4.19a1.47,1.47,0,0,1,.06.14,1.92,1.92,0,0,1,.07.64A155,155,0,0,1,5.67,43.77h0a4.59,4.59,0,0,0-.53.56,3.41,3.41,0,0,1,.36-.41l-.2.19a4.64,4.64,0,0,0-.36.4,4.45,4.45,0,0,0-.41.6,4.11,4.11,0,0,0-.43,1.06s0,.11,0,.18h0L1.41,49.59a5.62,5.62,0,0,0-.53.81,2.12,2.12,0,0,0-.11.21.54.54,0,0,0-.05.11.32.32,0,0,1,0-.09l-.07.15s0,.07,0,.11-.09.22-.13.32-.08.28-.11.4a5.58,5.58,0,0,0-.1.59c0,.11,0,.26,0,.38s0,.26,0,.37.05.41.08.58.07.29.11.42l0,.1h0c0,.1-.08.21-.12.34s-.11.38-.19.72l-.06.34v.06a.09.09,0,0,0,0,0,.17.17,0,0,0,0,.07q0,.16,0,.3v.38a4.06,4.06,0,0,0,.2,1.23A4.06,4.06,0,0,1,0,56.32Z"/><path class="cls-1" d="M0,56.32c0-.23,0-.53.05-.75a3.25,3.25,0,0,1,.07-.45c.08-.34.11-.46.19-.72a5.37,5.37,0,0,1,.24-.62A8.12,8.12,0,0,1,2,51.5C0,53.78.55,56.64,3.78,58.59c4.07,2.45,10.81,2.51,15.05.15,3.49-2,4.2-4.93,2.08-7.29a9.33,9.33,0,0,1,.8,1,7.57,7.57,0,0,1,.64,1.19,6.72,6.72,0,0,1,.43,1.3,5.88,5.88,0,0,1,.15,1.27c0,1.75-1.18,3.5-3.53,4.81-4.57,2.55-11.83,2.47-16.21-.16C1.06,59.62,0,58,0,56.32Z"/><g class="cls-2"><path class="cls-1" d="M0,56.32A7.37,7.37,0,0,1,2,51.5C0,53.78.55,56.64,3.78,58.59c4.07,2.45,10.81,2.51,15.05.15,3.49-2,4.2-4.93,2.08-7.29a7.5,7.5,0,0,1,2,4.69c0,1.86-1.18,3.61-3.53,4.92-4.57,2.55-11.83,2.47-16.21-.16C1.06,59.62,0,58,0,56.32Z"/><path class="cls-1" d="M21,51.6l.19.23.11.14a1.67,1.67,0,0,1,.12.16l.12.17.13.19.13.2.13.23.13.23.13.27.12.26.13.31.11.3c0,.11.08.25.11.35l.08.34c0,.12.06.29.08.41l.05.37c0,.15,0,.34,0,.49,0,1.75-1.18,3.5-3.53,4.81-4.57,2.55-11.83,2.47-16.21-.16C1.06,59.62,0,58,0,56.32c0-.12,0-.26,0-.38s0-.34,0-.48l.06-.34.1-.41.09-.31c0-.11.09-.25.12-.35l.12-.27.13-.3.12-.25L.94,53l.12-.21.14-.22.12-.18.13-.18L1.56,52l.11-.14.1-.13.09-.11.07-.08L2,51.5C0,53.78.55,56.64,3.78,58.59A16.27,16.27,0,0,0,13.94,60.3h0c-1.26.46-1.22,1.23-.77,1.5,1.23.74,4.36-.33,4.12-1.41-.13-.61-.84-.27-1.19-.55a13,13,0,0,0,2.73-1.11c3.49-2,4.2-4.93,2.08-7.29l.06.07.07.08Z"/><path class="cls-1" d="M21,51.6l.19.23.11.14a1.67,1.67,0,0,1,.12.16l.12.17.13.19.13.2.13.23.13.23.13.27.12.26.13.31.11.3c0,.11.08.25.11.35l.08.34c0,.12.06.29.08.41l.05.37c0,.15,0,.34,0,.49,0,1.75-1.18,3.5-3.53,4.81-4.57,2.55-11.83,2.47-16.21-.16C1.06,59.62,0,58,0,56.32c0-.12,0-.26,0-.38s0-.34,0-.48l.06-.34.1-.41.09-.31c0-.11.09-.25.12-.35l.12-.27.13-.3.12-.25L.94,53l.12-.21.14-.22.12-.18.13-.18L1.56,52l.11-.14.1-.13.09-.11.07-.08L2,51.5C0,53.78.55,56.64,3.78,58.59a15.94,15.94,0,0,0,9.43,1.79l0,0c-.88.32-1.14,1.35-.19,1.69,1.76.63,5.44-.65,4.8-2a.85.85,0,0,0-.88-.49,12.83,12.83,0,0,0,1.92-.85c3.49-2,4.2-4.93,2.08-7.29l.06.07.07.08Z"/><path class="cls-1" d="M21,51.6l.19.23.11.14a1.67,1.67,0,0,1,.12.16l.12.17.13.19.13.2.13.23.13.23.13.27.12.26.13.31.11.3c0,.11.08.25.11.35l.08.34c0,.12.06.29.08.41l.05.37c0,.15,0,.34,0,.49,0,1.75-1.18,3.5-3.53,4.81-4.57,2.55-11.83,2.47-16.21-.16C1.06,59.62,0,58,0,56.32c0-.12,0-.26,0-.38s0-.34,0-.48l.06-.34.1-.41.09-.31c0-.11.09-.25.12-.35l.12-.27.13-.3.12-.25L.94,53l.12-.21.14-.22.12-.18.13-.18L1.56,52l.11-.14.1-.13.09-.11.07-.08L2,51.5C0,53.78.55,56.64,3.78,58.59a15.66,15.66,0,0,0,8.78,1.84l0,0c-.69.35-1.06,1.38.1,1.8,2.07.74,6.65-.85,5.8-2.45a.8.8,0,0,0-.83-.47,10.84,10.84,0,0,0,1.24-.59c3.49-2,4.2-4.93,2.08-7.29l.06.07.07.08Z"/><path class="cls-1" d="M21,51.6l.19.23.11.14a1.67,1.67,0,0,1,.12.16l.12.17.13.19.13.2.13.23.13.23.13.27.12.26.13.31.11.3c0,.11.08.25.11.35l.08.34c0,.12.06.29.08.41l.05.37c0,.15,0,.34,0,.49,0,1.75-1.18,3.5-3.53,4.81-4.57,2.55-11.83,2.47-16.21-.16C1.06,59.62,0,58,0,56.32c0-.12,0-.26,0-.38s0-.34,0-.48l.06-.34.1-.41.09-.31c0-.11.09-.25.12-.35l.12-.27.13-.3.12-.25L.94,53l.12-.21.14-.22.12-.18.13-.18L1.56,52l.11-.14.1-.13.09-.11.07-.08L2,51.5C0,53.78.55,56.64,3.78,58.59A15.36,15.36,0,0,0,12,60.46l-.07,0c-.5.28-1.24,1.61.69,2,2.83.63,7.73-1.23,6.68-3a.86.86,0,0,0-.9-.51l.48-.25c3.49-2,4.2-4.93,2.08-7.29h0l.13.15Z"/><path class="cls-1" d="M3.19,60.9C1.06,59.62,0,58,0,56.32V56.1a7.45,7.45,0,0,1,.63-2.5l.17-.37L.94,53l.12-.21.14-.22.12-.18.13-.18L1.56,52l.11-.14.1-.13.09-.11.07-.08L2,51.5C0,53.78.55,56.64,3.78,58.59a15,15,0,0,0,7.48,1.88h-.07c-.35.26-1.37,1.86,1.23,2.3l.62.08a17.05,17.05,0,0,1-9.85-2Z"/><path class="cls-1" d="M.85,53.77a4.05,4.05,0,0,1,1-2.05.88.88,0,0,1,.12-.15L2,51.5A4.44,4.44,0,0,0,.84,53.85a.19.19,0,0,0,0-.08Z"/><path class="cls-1" d="M21,51.6l.19.23.11.14a1.67,1.67,0,0,1,.12.16l.12.17.13.19.13.2.13.23.13.23.13.27.12.26.13.31.11.3c0,.11.08.25.11.35l.08.34c0,.12.06.29.08.41l.05.37c0,.15,0,.34,0,.49a5.42,5.42,0,0,1-2.78,4.35l.21-.27c1-1.45-.8-2-.91-1.95l-.08,0c3-2,3.55-4.74,1.54-7l.06.07.07.08Z"/><path class="cls-1" d="M21,51.6l.19.23.11.14a1.67,1.67,0,0,1,.12.16l.12.17.13.19.13.2.13.23.13.23.13.27.12.26.13.31.11.3c0,.11.08.25.11.35l.08.34c0,.12.06.29.08.41l.05.37c0,.15,0,.34,0,.49a4.68,4.68,0,0,1-1.45,3.25l.1-.23a1.27,1.27,0,0,0-1-1.82,4,4,0,0,0,.31-6l.06.07.07.08Z"/><path class="cls-1" d="M21,51.6l.19.23.11.14a1.67,1.67,0,0,1,.12.16l.12.17.13.19.13.2.13.23.13.23.13.27.12.26.13.31.11.3c0,.11.08.25.11.35l.08.34c0,.12.06.29.08.41l.05.37c0,.15,0,.34,0,.49a4.29,4.29,0,0,1-.69,2.28l.06-.22a1.65,1.65,0,0,0-.83-1.93,3.91,3.91,0,0,0-.56-4.93l.06.07.07.08Z"/><path class="cls-1" d="M3.19,60.9a6.55,6.55,0,0,1-3-3.29l.06,0c.67.64.67.64.85.51.33-.26.35-1.42.35-1.43a2.58,2.58,0,0,0-.08-.34h0a6.79,6.79,0,0,0,2.35,2.2,14.74,14.74,0,0,0,6.68,1.85h0a1.32,1.32,0,0,0,0,2.09,3,3,0,0,0,.53.27l.37.12a16.25,16.25,0,0,1-8.19-2Z"/><path class="cls-1" d="M21,51.6l.19.23.11.14a1.67,1.67,0,0,1,.12.16l.12.17.13.19.13.2.13.23.13.23.13.27.12.26.13.31.11.3c0,.11.08.25.11.35l.08.34c0,.12.06.29.08.41l.05.37c0,.15,0,.34,0,.49a4.24,4.24,0,0,1-.22,1.31l0-.19a2.2,2.2,0,0,0-.78-2,4,4,0,0,0-1-3.87l.06.07.07.08Z"/><path class="cls-1" d="M3.19,60.9a8,8,0,0,1-2.27-2l.14.06c1.12.48.87-1.89.86-1.92a7.68,7.68,0,0,0,1.86,1.53,14,14,0,0,0,5.63,1.77c-.34,0-.84,1.52-.08,2.21l.19.14.23.14a15.42,15.42,0,0,1-6.56-2Z"/><path class="cls-1" d="M21,51.6l.19.23.11.14a1.67,1.67,0,0,1,.12.16l.12.17.13.19.13.2.13.23.13.23.13.27.12.26.13.31.11.3c0,.11.08.25.11.35l.08.34c0,.12.06.29.08.41l.05.37c0,.15,0,.34,0,.49s0,.18,0,.27v-.21a3,3,0,0,0-.82-2.1,4.28,4.28,0,0,0-1.19-2.76l.06.07.07.08Z"/><path class="cls-1" d="M3.19,60.9a9.36,9.36,0,0,1-1.48-1.11h0c1.16.07.85-2,.76-2.16a8.71,8.71,0,0,0,1.31,1A13,13,0,0,0,8,60.14a1.81,1.81,0,0,0-.07,2.35l.18.15A14.58,14.58,0,0,1,3.19,60.9Z"/><path class="cls-1" d="M21,51.6l.19.23.11.14a1.67,1.67,0,0,1,.12.16l.12.17.13.19.13.2.13.23.13.23.13.27.12.26.13.31.09.24,0-.1a4.22,4.22,0,0,0-.69-1.22h0a4.86,4.86,0,0,0-.93-1.46l.06.07.07.08Z"/><path class="cls-1" d="M3.19,60.9l-.46-.3.22,0a.7.7,0,0,0,.23-.11c.1-.1.24-.12.33-.23a.87.87,0,0,0,.15-.34,1.93,1.93,0,0,0,0-.66A2,2,0,0,0,3.63,59c0-.15,0-.3,0-.44s0-.1-.14-.19l.32.2a11.43,11.43,0,0,0,2.35,1.06s-.08,0-.12,0a1.94,1.94,0,0,0-.44,1.3c0,.12,0,.45.54,1.12l.24.19A13.42,13.42,0,0,1,3.19,60.9Z"/><path class="cls-1" d="M16.71,60.72c-.11.92-2.63,1.55-3.17.79-.29-.41.33-.9.44-1a5.2,5.2,0,0,1,2-.45c.77.13.78.51.77.62Z"/><path class="cls-1" d="M16.05,60.91c0,.24-.94.59-1,.6s-.79,0-1-.21a.14.14,0,0,1,0-.12c0-.24.84-.65.87-.66s1,0,1,.16a.45.45,0,0,1,0,.23Z"/></g><path class="cls-3" d="M21.94,53.2A6,6,0,0,0,19.14,50c-3.16-1.9-7.91-2.37-11.87-1.38a13.14,13.14,0,0,0-3.18,1.23,8.5,8.5,0,0,0-1.76,1.28A4.36,4.36,0,0,0,.82,54.52,4.8,4.8,0,0,0,2.91,58a9,9,0,0,0,.75.53l.12.07A13.3,13.3,0,0,0,8.1,60.16a18,18,0,0,0,3.75.3,15.26,15.26,0,0,0,7-1.72,8.71,8.71,0,0,0,1.78-1.3,4.81,4.81,0,0,0,1.33-2.09A3.58,3.58,0,0,0,21.94,53.2Zm-2.17,3.44a7.13,7.13,0,0,1-1.62,1.18,13.79,13.79,0,0,1-6.34,1.57,16,16,0,0,1-3.4-.27,12.33,12.33,0,0,1-3.93-1.43l-.11-.07a6.87,6.87,0,0,1-.68-.48A4.36,4.36,0,0,1,1.79,54a4,4,0,0,1,1.37-3.07,8.26,8.26,0,0,1,1.6-1.16,12,12,0,0,1,2.89-1.11A15.13,15.13,0,0,1,18.44,49.9,5.41,5.41,0,0,1,21,52.79a3.32,3.32,0,0,1,0,2A4.5,4.5,0,0,1,19.77,56.64Z"/><path class="cls-1" d="M7.48,27.69a1.92,1.92,0,0,0-.07-.64,1.87,1.87,0,0,0-.22-.45,2.66,2.66,0,0,0,.77.46,7.53,7.53,0,0,0,1,.34l.43.1.87.12c.18,0,.67.06,1,.06a11.51,11.51,0,0,0,1.4-.08,8.94,8.94,0,0,0,1.25-.25,5.19,5.19,0,0,0,1-.34,2.78,2.78,0,0,0,.7-.43,1.65,1.65,0,0,0-.29,1.09,2,2,0,0,1-1.2,1.7,6.08,6.08,0,0,1-5.51-.06A1.9,1.9,0,0,1,7.48,27.69Z"/><path class="cls-3" d="M15.22,28.16a2.8,2.8,0,0,1,0-.67c0-.44,0-.46,0-.47s-.07,0-.1,0c-.54.25-1,.44-1,.44a16.56,16.56,0,0,0-2.82.91,2.21,2.21,0,0,0-1.14,1.48,4.87,4.87,0,0,1-1.58-.58A2.71,2.71,0,0,1,8.11,29h0a5.56,5.56,0,0,0-.87-2.3l0-.05h0l0,0h0l0,0,.08.06.1.07.09.06.18.1.3.14.28.11.38.13.37.1.43.1.43.07.46.05.46,0,.47,0h.48l.47,0,.45,0,.46-.07.4-.08.43-.1.33-.1.37-.14.24-.1.3-.15.14-.09.16-.1,0-.05.05,0h0l0,0,0,0,0,.07,0,.07s0,.08,0,.11l0,.1,0,.13,0,.11a.77.77,0,0,0,0,.15v.28a1.4,1.4,0,0,1-.06.49Z"/><path class="cls-4" d="M16.46,43.22l-.59.46c2.36,1.41,2.28,3.67-.18,5A9.6,9.6,0,0,1,7,48.63c-1.76-1.06-2.16-2.58-1.23-3.85a4.15,4.15,0,0,1,1.41-1.19,9.17,9.17,0,0,1,4.83-1l.07-.6a10.36,10.36,0,0,0-5.46,1.12A4.85,4.85,0,0,0,5,44.46c-1,1.44-.59,3.16,1.39,4.36a10.87,10.87,0,0,0,9.84.1C19,47.37,19.12,44.82,16.46,43.22Z"/><path class="cls-1" d="M5.29,46.07A167.75,167.75,0,0,0,7.48,27.69a1.9,1.9,0,0,0,1.09,1.62,6.08,6.08,0,0,0,5.51.06,2,2,0,0,0,1.2-1.7A168.73,168.73,0,0,0,17.58,46a3.06,3.06,0,0,1-1.89,2.69A9.6,9.6,0,0,1,7,48.63,2.94,2.94,0,0,1,5.29,46.07Z"/><path class="cls-5" d="M12.4,35.83s.23-5.93.46-6.62.57,1.52,1.15,7.1,1.44,12.37,1.44,12.37a5.82,5.82,0,0,1-3.31.91C12.26,48.45,12.4,35.83,12.4,35.83Z"/><path class="cls-3" d="M10.12,30.27c-.77,19.21-.77,19.21-.75,19.24A7.52,7.52,0,0,1,7,48.63a5,5,0,0,1-.56-.39h0A175.64,175.64,0,0,0,8.11,29a2.71,2.71,0,0,0,.46.33,4.87,4.87,0,0,0,1.58.58c0,.11,0,.27,0,.38Z"/><path class="cls-1" d="M18.69,21.82l0-.19a3.13,3.13,0,0,0-.1-.49l-.07-.23-.19-.41-.16-.26-.27-.35-.25-.26a5.67,5.67,0,0,0-1-.79l-.45-.25-.44-.21-.48-.19L14.73,18l-.52-.14-.52-.12-.53-.09-.54-.07-.55,0-.55,0H11l-.55,0-.55.06-.54.08c-.16,0-.37.07-.53.1L8.27,18l-.51.16-.48.18-.49.21-.43.22L5.92,19l-.36.25-.36.31-.27.27c-.09.1-.2.25-.28.35l-.18.28c-.07.12-.15.29-.21.41l-.09.27a2.75,2.75,0,0,0-.11.5v.24a2.16,2.16,0,0,0,0,.43l0,.19a.88.88,0,0,0,0,.16V23a.77.77,0,0,1,0,.15l0,.15c0,.07,0,.15,0,.21l0,.19a2.29,2.29,0,0,0,.08.28l.08.23a3,3,0,0,0,.17.37l.13.25c.11.15.25.36.37.51l.22.24a5.88,5.88,0,0,0,.82.69l.35.22c.13.09.32.18.46.26l.41.19.48.19.44.15.49.13.48.11.49.08.5.06.5,0,.5,0h.5l.5,0,.5,0,.49-.07.5-.1.48-.12.49-.15.45-.16.49-.22.4-.21a6,6,0,0,0,1-.68l.29-.26a4,4,0,0,0,.45-.51l.19-.27c.07-.11.15-.26.21-.38l.12-.26.1-.29.07-.23a1.6,1.6,0,0,0,.05-.21l0-.2c0-.05,0-.11,0-.16l0-.16a.49.49,0,0,0,0-.12l0-.12v-.18h0v-.07A3.89,3.89,0,0,0,18.69,21.82Z"/><path class="cls-3" d="M16,26.57a7.28,7.28,0,0,1-.89.43l-.45.16-.49.15-.48.12-.5.1-.49.07-.5,0-.5,0h-.5l-.5,0-.5,0-.5-.06-.49-.08-.48-.11-.49-.13-.44-.15-.48-.19L7,26.72c-.14-.08-.33-.17-.46-.26l-.35-.22a5.88,5.88,0,0,1-.82-.69l-.07-.07h0c.39.37.71.28.69-.2,0-.32,0-.32,0-.34s2,.5,2,1.11c0,1.68,5.39,2.37,8.69.13l-.35.23-.26.15Z"/><path class="cls-6" d="M18.69,21.82l0-.19a3.13,3.13,0,0,0-.1-.49l-.07-.23-.19-.41-.16-.26-.27-.35-.25-.26a5.67,5.67,0,0,0-1-.79l-.45-.25-.44-.21-.48-.19L14.73,18l-.52-.14-.52-.12-.53-.09-.54-.07-.55,0-.55,0H11l-.55,0-.55.06-.54.08c-.16,0-.37.07-.53.1L8.27,18l-.48.15-.48.17c-2.88,1.16-3.92,3.29-2.54,5.17,2.72,3.7,12.88,3.18,13.87-1.75a1,1,0,0,1,0,.5A3.46,3.46,0,0,0,18.69,21.82Z"/><path class="cls-7" d="M17.82,21.07c.32,1.18-.33,2.44-1.93,3.33a10.2,10.2,0,0,1-9.24-.09c-1.47-.88-2-2.07-1.74-3.2a1.26,1.26,0,0,0,1.48-1v0h0a2.31,2.31,0,0,0,1.37,2.2,6.92,6.92,0,0,0,3.48.88s-.05,0,0,0A6.52,6.52,0,0,0,15.38,22a2,2,0,0,0,.9-2.15c.32,1.19,1,1.24,1.54,1.19Z"/><path class="cls-3" d="M17.82,21.07c.32,1.18-.33,2.44-1.93,3.33a10.2,10.2,0,0,1-9.24-.09c-1.47-.88-2-2.07-1.74-3.2A1.42,1.42,0,0,0,5.78,21h0a1.43,1.43,0,0,0,1.45,1.91c.17-.13.17-.29.15-.79a3.77,3.77,0,0,0,.39.26,6,6,0,0,0,1.86.71h0c-1.22,1.61,1.76,1.94,3.1,1.79a5.82,5.82,0,0,0,3.59-1.62c.53-.61.53-.61,0-2.46a1.75,1.75,0,0,0,0-.88c.32,1.19,1,1.24,1.54,1.19Z"/><path class="cls-8" d="M11.39,2.51s-5.7,8.75-5.7,12.69,1.51,7.4,5.67,7.4,5.79-3.28,5.79-7.44S11.39,2.51,11.39,2.51Z"/><path class="cls-3" d="M11.36,22.6l-.55,0-.28,0-.28,0L10,22.42l-.28-.07-.29-.1-.29-.11L8.82,22l-.31-.17-.3-.2a5.35,5.35,0,0,1-.84-.75l-.25-.31c-.13-.18-.29-.43-.41-.63l-.19-.38A5.89,5.89,0,0,1,6.28,19l-.15-.43c0-.16-.11-.38-.15-.55l-.09-.46c0-.17-.06-.38-.09-.54l0-.48c0-.16,0-.38,0-.54l0-.48v-.3l0-.53.13-.87L6,13.18c.07-.23.16-.54.24-.77l.23-.67.3-.75.3-.7.34-.73.34-.71.37-.71.36-.69.38-.68.37-.66.36-.63.35-.6c.11-.17.24-.4.34-.56l.32-.53.3-.48.26-.42c.07-.12.18-.25.24-.38C8,10.6,5.46,20.07,11.5,22.6c0,0-.1,0-.14,0Z"/><path class="cls-5" d="M11.6,4.73s-.22,9.79.47,11.91a1.66,1.66,0,0,0,3.27,0c.19-1.5-.36-3.64-1.2-6.1s-2.71-7.79-2.71-7.79Z"/><circle class="cls-3" cx="11.41" cy="2.37" r="2.37"/><path class="cls-9" d="M13.63,2.12a2,2,0,1,1-2-2A2,2,0,0,1,13.63,2.12Z"/><path class="cls-10" d="M12.77,1.78a.64.64,0,0,1-1.28,0,.64.64,0,0,1,.64-.64A.64.64,0,0,1,12.77,1.78Z"/><path class="cls-1" d="M18.89,46.94a3.74,3.74,0,0,0-.22-1.15,5.06,5.06,0,0,0-.25-.58,4.06,4.06,0,0,0-.42-.63,4.51,4.51,0,0,0-.4-.47l-.22-.2c1.67,1.57,1.28,3.67-1.13,5a10.87,10.87,0,0,1-9.84-.1c-2.24-1.35-2.53-3.37-.91-4.9l-.2.19a4.64,4.64,0,0,0-.36.4,4.45,4.45,0,0,0-.41.6,4.11,4.11,0,0,0-.43,1.06,4.21,4.21,0,0,0-.11.66,3.72,3.72,0,0,0,.14,1.28,4.11,4.11,0,0,0,2,2.23,11.57,11.57,0,0,0,10.5.11,4.31,4.31,0,0,0,2.17-2.38A3.58,3.58,0,0,0,18.89,46.94ZM17.2,43.75l.18.16-.18-.16Zm-11.54,0-.16.14.16-.14Zm.14-.12-.14.12h0Z"/><path class="cls-3" d="M6.08,50.34a5.27,5.27,0,0,1-1.3-1.07h0c.11.08.89.31.73-.52a9.43,9.43,0,0,0-.29-.9,4.77,4.77,0,0,0,1.17,1,8.73,8.73,0,0,0,3,1.06c-1.25.73-.09,1.51.45,1.66l.09,0,.06,0a9.92,9.92,0,0,1-3.95-1.24Z"/><path class="cls-5" d="M15.25,50.1s-.23.47-1.41.72a1.91,1.91,0,0,1-1.44-.13.17.17,0,0,1,0-.1c.09-.24,2.61-1,2.85-.59a.17.17,0,0,1,0,.1Z"/><path class="cls-1" d="M21.48,49.54l-.33-.41-.17-.2-.34-.4-.33-.41-.17-.2-.33-.41-.34-.4-.16-.2L19,46.5l-.16-.19a3.59,3.59,0,0,1,.08.63A3.39,3.39,0,0,1,18.77,48h0a.64.64,0,0,1,0,.07h0v0l0,0v.08l0,0,0,0v0l0,0,0,0,0,0,0,0,0,0,0,0,0,0,0,0,0,0,0,0,0,0,0,0,0,0,0,0,0,0,0,0,0,0,0,0,0,0,0,0,0,0,0,0,0,0,0,0,0,0,0,0,0,0,0,0,0,0,0,0,0,0,0,0,0,0,0,0,0,0-.05,0,0,0,0,0,0,0,0,0,0,0-.05,0,0,0-.05,0,0,0-.05,0,0,0-.06,0,0,0-.05,0-.05,0,0,0-.06,0-.21.13a11.57,11.57,0,0,1-10.5-.11L6,50.28l0,0-.06,0,0,0-.06,0,0,0,0,0,0,0,0,0,0,0-.05,0,0,0,0,0,0,0-.05,0,0,0-.05,0,0,0,0,0,0,0,0,0,0,0,0,0,0,0,0,0,0,0,0,0,0,0,0,0,0,0,0,0,0,0,0,0,0,0,0,0,0,0,0,0,0,0,0,0,0,0,0,0,0,0,0,0,0,0,0,0,0,0,0,0,0,0,0,0,0,0,0,0v0l0,0v0l0-.06v0l0-.08h0l0-.07v-.08h0c0-.06,0-.12,0-.17A3.62,3.62,0,0,1,4,46.83a3.06,3.06,0,0,1,.07-.48L1.41,49.59c-1.91,2.35-1.26,5.23,2,7.21,4.24,2.56,11.28,2.63,15.7.16C22.69,55,23.49,52,21.48,49.54Zm-3.09-3.71h0v0Zm-13.91,0v0Zm0,0Z"/><path class="cls-1" d="M3.6,57.58c-.29-.18-.66-.43-.93-.63a8.31,8.31,0,0,1-.79-.71l-.3-.32c-.13-.16-.3-.36-.41-.53A5.89,5.89,0,0,1,.6,54.33a6.4,6.4,0,0,1-.23-.8c0-.17-.06-.4-.08-.58s0-.26,0-.37,0-.27,0-.38a5.58,5.58,0,0,1,.1-.59c0-.12.07-.28.11-.4s.16-.41.24-.58c-1,2.12-.13,4.48,2.69,6.17,4.24,2.56,11.28,2.63,15.7.16,3.06-1.71,4.08-4.18,3-6.39a5.36,5.36,0,0,1,.24.6c0,.12.09.28.12.4a4.62,4.62,0,0,1,.11,1.26A4.83,4.83,0,0,1,22,55a6.86,6.86,0,0,1-1.85,2,9.52,9.52,0,0,1-1.13.72l-.61.32c-.3.14-.71.31-1,.44a17.7,17.7,0,0,1-11.76,0c-.38-.15-.89-.37-1.26-.54C4.11,57.88,3.81,57.71,3.6,57.58Z"/><path class="cls-3" d="M1.41,49.59l3.32-4.06A2.69,2.69,0,0,0,4.54,49L1.12,54.71a4.05,4.05,0,0,1,.29-5.12Z"/><path class="cls-3" d="M2.18,55.89l3.06-6.16a4.75,4.75,0,0,0,.69.51L3.2,56.65a8.45,8.45,0,0,1-1-.76Z"/><path class="cls-3" d="M3.2,56.65l2.73-6.41.15.1a8.32,8.32,0,0,0,1.6.73L5.83,57.89A11.85,11.85,0,0,1,3.44,56.8l-.24-.15Z"/><path class="cls-3" d="M5.83,57.89l1.85-6.82a11.31,11.31,0,0,0,1.3.35l-1.2,7a15.07,15.07,0,0,1-1.95-.52Z"/><path class="cls-5" d="M15,51.13l-.61.17a9.37,9.37,0,0,1-.92.19l1,7c.46-.07.92-.17,1.37-.28s.62-.16.92-.26Z"/><path class="cls-11" d="M0,57.65V56.32C0,58,1.06,59.62,3.19,60.9c4.38,2.63,11.64,2.71,16.21.16,2.35-1.31,3.53-3.06,3.53-4.81v1.34c0,1.75-1.17,3.5-3.53,4.81-4.56,2.54-11.82,2.47-16.2-.17C1.07,61,0,59.3,0,57.65Z"/><path class="cls-3" d="M8.11,62.64l-.18-.15A1.81,1.81,0,0,1,8,60.14a13,13,0,0,1-4.22-1.55,8.71,8.71,0,0,1-1.31-1c.09.11.4,2.23-.76,2.16h0v1.34a9.43,9.43,0,0,0,1,.79l.48.3a13.11,13.11,0,0,0,3.17,1.35c.56.16,1.15.29,1.74.4V62.64Z"/><path class="cls-5" d="M15.94,60.1a5.2,5.2,0,0,0-2,.45c-.11.06-.73.55-.44,1,.54.76,3.06.13,3.17-.79C16.72,60.61,16.71,60.23,15.94,60.1Z"/></g></g></svg>