<svg xmlns="http://www.w3.org/2000/svg" viewBox="0 0 66.65 73.31"><defs><style>.cls-1{isolation:isolate;}.cls-2{fill:#d7dce0;mix-blend-mode:multiply;}.cls-3{fill:#1f1f1f;}.cls-4{fill:#191919;}.cls-5{fill:#5b5b5b;}.cls-6{fill:#141414;}.cls-7{fill:#171717;}.cls-8{fill:#2c2c2c;}.cls-9{fill:#262626;}.cls-10{fill:#1c1c1c;}.cls-11{fill:#8b8b8b;}.cls-12{fill:#212121;}.cls-13{fill:#6f6f6f;}.cls-14{fill:#1a1a1a;}.cls-15{fill:#242424;}.cls-16{fill:#979797;}.cls-17{fill:#3b3b3b;}.cls-18{fill:#3d3d3d;}</style></defs><g class="cls-1"><g id="Capa_2" data-name="Capa 2"><g id="layer"><path class="cls-2" d="M64.71,63.53a11.4,11.4,0,0,0-1.93-2.45l-1.31-1.39A5.93,5.93,0,0,0,59.29,58c-.9-.31-.86-.83-1.87-.88L55.83,57l-.64,0-.32,0-.64,0h-.08a6.33,6.33,0,0,0-1.71-.42l-.39,0c-.23,0-.54,0-.78,0a4.82,4.82,0,0,0-.53,0h-.33l-.24,0L50,56.44l-1-.37L48,55.64l-1.2-.47-1.26-.52-1.32-.55-1.32-.57-1.33-.61-1.26-.6L39,51.68l-1.08-.59c-.33-.19-.75-.45-1.07-.65l-.76-.52c-.24-.18-.54-.42-.76-.61L35.05,49,35,49a.71.71,0,0,0-.08.15l0,.1,0,.08a1.29,1.29,0,0,0-.21-1.34,5.16,5.16,0,0,1-.44-.59l-.14-.24a3.22,3.22,0,0,0,.29-.91,2.66,2.66,0,0,0,0-.62,2.44,2.44,0,0,0-.18-.66,3.07,3.07,0,0,0-.91-1.11c-.14-.12-.23-.18-.44-.33l-.12-.09,0,0-.21-.16L32.14,43a6.33,6.33,0,0,0-.74-.31,8.17,8.17,0,0,0-.95-.24,10.63,10.63,0,0,0-1.08-.15l-.16,0a16.35,16.35,0,0,0-1.4-2.48,5.74,5.74,0,0,0-.78-1c-.2-.2-.5-.46-.73-.65a4.38,4.38,0,0,0-.42-.28,7.28,7.28,0,0,0-2.78-.86c-.41-.05-1-.08-1.39-.09-.22,0-.52,0-.74,0-.48,0-1.11.1-1.58.15-.9.14-1.62.31-1.63.31l-.81.2-.95.28-.28-.06h-.06l-.33-.05-.33,0h-.72l-.4,0v-.17c0-.05,0-.1,0-.14l0-.1a.06.06,0,0,0,0,0v0h-.12a6,6,0,0,1-.82-.12,11.25,11.25,0,0,1-1.63-.48l.15-.26.28-.52.12-.21,0-.06c.06-.11.13-.22.19-.34l-.31-.44,0,0h0l-.08-.1,0,0h0l0,0-.06-.07-.1-.1h0l-.07-.06h0l0,0,0,0,0,0,0,0-.07-.05h0l0,0h0l-.1-.06,0,0a2.22,2.22,0,0,0-.93-.28l-.15,0H8.65l-.15,0H8.39l-.15,0H8.16l-.22,0L7.59,34l-.14,0h-.1a5,5,0,0,1-.45-.61v0s0,0-.05-.06H6.06l-.16,0H5.82l-.25,0-.35.06A5.28,5.28,0,0,0,4,33.74a1.22,1.22,0,0,0-.47-.42,3.24,3.24,0,0,0-2.94,0c-.82.48-.83,1.24,0,1.71a3.13,3.13,0,0,0,1.52.35l0,.07a.05.05,0,0,0,0,0l0,0a1.17,1.17,0,0,1-.05.11l0,.11,0,.11,0,.12,0,.12,0,.11v0h0s0,.07,0,.11l0,.11h0s0,.09,0,.12v.08h0v0a3.33,3.33,0,0,0,0,.34v.44s0,.09,0,.13v.13a.59.59,0,0,0,0,.13l0,.13a0,0,0,0,0,0,0,.59.59,0,0,0,.27,0h0a7.35,7.35,0,0,1,2.35.57l-.14.27,0,.09h0l-.2.37,0,.07-.11.19v0l0,0c0,.07-.09.16-.13.24L3.67,40h0c0,.06.07.1.1.15v0l0,0c.15.21.26.34.31.41l.11.12,0,0,0,.05,0,0h0l.2.17h0l0,0,0,0,0,0h0l.09.06.13.07,0,0,.06,0H5l.14.06h.06l.08,0,.14,0h0l.15,0h0l.2,0h0l.13,0h.49a7.57,7.57,0,0,0,1.21-.1h0a1.3,1.3,0,0,0,.08.81,2,2,0,0,0,.18.28A7.31,7.31,0,0,0,6.8,44.26a3.54,3.54,0,0,0-.37,1.18,2.07,2.07,0,0,0,0,.43,4.57,4.57,0,0,0,.17.8,2,2,0,0,0,.42.71c.09.09.19.23.3.32a8.43,8.43,0,0,0,.79.56,7.1,7.1,0,0,0,1.28.55L10,49h0l.61.17h.06l.09,0,.57.14.41.09.23,0h0l.29.06.31.06.06,0,.66.12.64.11.61.11.13,0,.24,0,.21,0,.32.05.16,0a2.78,2.78,0,0,0,.2.52,2,2,0,0,0,.18.32,3.29,3.29,0,0,0,.34.42,3.22,3.22,0,0,0,.79.56l.28.13h0l.11,0,.13.06.18.08.11.05h0l.15.06.16.07.09,0,.09,0,.05,0h0l.14.05.05,0h0l0,0,.26.08h.09l.2.06h.06c.18,0,.35.08.5.11H20l.34.05a8.72,8.72,0,0,0,.88.08h.89A8.91,8.91,0,0,0,23.16,53h.12l.53-.07.22,0h.12l.23,0h0l.25,0h0l.2,0,.11,0,.17,0,.08,0,.22.07a6,6,0,0,0,2.19.13h0a1.42,1.42,0,0,0-.42.08l.05,0c.31.09.7.22,1,.33l.63.27c.34.15.77.37,1.09.53l.94.52c.34.19.78.47,1.11.67l1,.67,1,.72,1,.74c1.7,1.27,3.45,2.68,5.21,4.21a1.16,1.16,0,0,0,0,.18v0a.06.06,0,0,0,0,0,.2.2,0,0,0,0,.07.25.25,0,0,0,0,.08v0c0,.11,0,.21,0,.3a2,2,0,0,0,.11.64,1,1,0,0,0,.09.21,1.39,1.39,0,0,0,.18.31,2.35,2.35,0,0,0,.5.53v0l.06.37,0,.19c0,.11.05.25.06.36l.07.37,0,.19c0,.11,0,.25.06.37l.06.36,0,.19c0,.11,0,.25.07.37a2.2,2.2,0,0,0,.33.86l0,0,0,0a2.2,2.2,0,0,0,.17.25l0,0,.1.11.06.07a1.9,1.9,0,0,0,.25.24,4.25,4.25,0,0,0,.65.46,7.5,7.5,0,0,0,2,.75l.18,0,.49.47c.24.22.49.42.57.48a6.78,6.78,0,0,0,.77.5l1.15.67c.13.07.26.14.4.2h0l.07,0,.12.05.18.07.12,0,.19.06.13,0,.21.06.13,0,.25.06.1,0,.36.06h.09l.3,0h.14l.26,0h.16l.25,0H53l.27,0h.19l.29,0h.19l.33,0,.16,0,.51-.06.51-.09a.86.86,0,0,0,.17,0l.35-.06.2,0,.32-.07.2,0,.13,0C59.12,72,62,71.11,64,69.61,65.65,68.28,65.66,65.36,64.71,63.53Z"/><path class="cls-3" d="M66.62,66.84V65.5a8.39,8.39,0,0,0-.23-1.78c-.06-.26-.12-.51-.19-.74a3.68,3.68,0,0,0,.17-.44,4.52,4.52,0,0,0,.26-1.19,4.69,4.69,0,0,0,0-.76,5.58,5.58,0,0,0-.09-.59,4.4,4.4,0,0,0-.18-.62c0-.12-.12-.27-.17-.39a4,4,0,0,1,.31.86,4.7,4.7,0,0,0-1-1.89l-.34-.41-.16-.2-.34-.4-.83-1-.34-.4-.16-.2c-.11-.12-.24-.29-.34-.41l0-.05a3.79,3.79,0,0,0-.55-1.42l-.19-.27a6.27,6.27,0,0,0-.42-.48,5.17,5.17,0,0,0-.55-.5l.13.13a1.64,1.64,0,0,0-.25-.19l0-.17L60.9,51,60.69,50c-.07-.35-.15-.83-.22-1.18l-.21-1.25c-.07-.39-.15-.92-.21-1.32l-.19-1.34c0-.42-.11-1-.16-1.39l-.13-1.34c0-.41-.06-1-.08-1.36l0-1.23c0-.38,0-.89,0-1.27l.08-1c0-.32.12-.74.19-1.06l.15-.49V35.7a.69.69,0,0,0-.19.1l-.12.08a4.92,4.92,0,0,1-.45.28,3.14,3.14,0,0,0,1.57-1.69,7.15,7.15,0,0,1,.34-.84,3.2,3.2,0,0,1,.16-.33,6.89,6.89,0,0,0,1.07-.75,5.32,5.32,0,0,0,.63-.6,6.61,6.61,0,0,0,.56-.78,4.9,4.9,0,0,0,.59-1.64c0-.2,0-.32.07-.59,0-.05,0-.11,0-.16s0,0,0-.06,0-.2,0-.28,0-.26,0-.37a3.77,3.77,0,0,0-.11-.75,4.16,4.16,0,0,0-.31-.79,5.71,5.71,0,0,0-.47-.78.48.48,0,0,0-.08-.11,31.46,31.46,0,0,0,1.68-3.31,10.88,10.88,0,0,0,.51-1.42c.08-.32.17-.76.23-1.09a4.36,4.36,0,0,0,0-.51,4.61,4.61,0,0,0-.74-2.49,8.77,8.77,0,0,0-.71-.9c-.12-.13-.31-.29-.45-.42a9.21,9.21,0,0,0-1.06-.76,10,10,0,0,0-1.25-.64c-.2-.08-.46-.2-.67-.26L60,13.56l-.09-.22h0l0,0c0-.05-.05-.09-.07-.14h0l-.06-.11-.16-.22-.2-.22-.22-.2-.26-.2,0,0L59,12a.93.93,0,0,0,.13-.15l.09-.1,0-.06h0v0h0l0,0v0a2.79,2.79,0,0,1-.35-.59h0a6.69,6.69,0,0,1-.46-1.43l.35-.18.68-.35.27-.14.09-.05.44-.22h0c0-.11.15-.36.26-.63V8a.58.58,0,0,0,.05-.14l0,0h0a.64.64,0,0,1,0-.07l0-.11s0-.1.05-.15v0a.3.3,0,0,0,0-.1V7.11a.19.19,0,0,0,0-.08V6.94s0-.08,0-.11v0a1.34,1.34,0,0,0-.17-.67l0-.06a.93.93,0,0,0-.05-.1l-.07-.11v0h0l-.06-.08,0,0,0,0-.09-.11-.09-.1h0v0h0A.76.76,0,0,0,60,5.33h0s0,0-.05-.05h0l-.06,0,0,0h0l0,0-.1-.07h0l0,0h0l0,0L59.55,5l0,0h0l-.17-.1-.25-.15-.1,0h0l0,0a7.59,7.59,0,0,1,.37-.82l.07-.14-.14,0h0v0l0-.06,0,0-.08-.1h0L59,3.32l0,0-.09-.08,0,0-.11-.08-.06,0A.78.78,0,0,0,58.47,3l-.25-.15a3.34,3.34,0,0,0-1-.4,1.59,1.59,0,0,0,.16-.69,1.71,1.71,0,1,0-3.42,0,1.68,1.68,0,0,0,.54,1.23l0,0-.05,0h0s0,0,0,0h0l0,0h0l-.14.08-.13.09a.67.67,0,0,0-.14.09h0l-.11.08-.14.11-.13.1,0,0,0,0h0l-.12.1-.12.1h0L53.11,4l0,0L53,4l0,0-.13.13-.13.12a1.59,1.59,0,0,1-.13.13l-.08.09,0,0,0,0-.06.06,0,0,0,0-.07.09,0,0,0,0L52.09,5,52,5.1l0,0L52,5.15l-.12.14-.12.15h0a0,0,0,0,0,0,0h0l0,0s0,.09.1.15l0,0,0,0a4.15,4.15,0,0,1,.8,1.94l-.05,0-.46.24-.47.25-.09,0-.37.19-.1,0-.35.17h0a1.67,1.67,0,0,0-.08.2l0,0v0c-.12.31-.19.5-.22.6h0c0,.06,0,.13,0,.18l0,.07,0,.07v.06c0,.1,0,.19-.05.28h0v.48a.13.13,0,0,0,0,.06v0l0,.14v.05l0,.07s0,.08,0,.11h0v0l.06.12,0,0h0l.09.14,0,0h0l.06.09,0,.05,0,0a.48.48,0,0,1,.09.11l.11.12a3.66,3.66,0,0,0,.8.6h0a3.79,3.79,0,0,0-.43.39,3.22,3.22,0,0,0-.34.46l-.1.2a1.21,1.21,0,0,1-.05.14.08.08,0,0,1,0,.05,12.74,12.74,0,0,0-2.42,1,8.1,8.1,0,0,0-1.4,1,5.77,5.77,0,0,0-.44.42,10.3,10.3,0,0,0-.7.9,3.72,3.72,0,0,0-.47,1,4.67,4.67,0,0,0-.14.5,6.92,6.92,0,0,0-.11,1,4.56,4.56,0,0,0,0,.51h0v0a4.88,4.88,0,0,0,.15.77c0,.11.07.29.14.51l0,.06v0l0,.1.11.3a.42.42,0,0,1,0,.12l0,0,.23.55c.07.17.17.38.24.54l.19.41,0,.05,0,.07c.07.15.18.35.25.51l.26.48c.07.14.17.32.25.46l.24.43.16.28,0,.07h0a6,6,0,0,0-.41.65,4.32,4.32,0,0,0-.22.43,6.26,6.26,0,0,0-.21.61,3.19,3.19,0,0,0-.11,1,1.6,1.6,0,0,0,0,.3v.07a.59.59,0,0,1,0,.13,1.37,1.37,0,0,1,0,.19l0,.11v0c0,.05,0,.11,0,.14l0,.16s0,.06,0,.09v.08l0,.07,0,.2V30l0,.07a1.67,1.67,0,0,1,0,.18l.05.12,0,.08v.06a.43.43,0,0,1,0,.07,2.22,2.22,0,0,0,.14.31l0,.05,0,.05c.05.09.09.17.13.23a5,5,0,0,0,.43.6l.26.29.11.1.13.13.2.17,0,0c.16.14.32.26.46.36l0,0,.11.07.31.2.16.09.15.28h0c.07.13.13.27.19.41l0,0a4.29,4.29,0,0,1,.15.42,3,3,0,0,0,1.41,1.58,1.59,1.59,0,0,1-.27-.18.77.77,0,0,0-.33-.15v0c.09.27.18.63.25.91l.1.63c0,.35.07.82.09,1.18l0,1.06c0,.39,0,.92,0,1.32l-.08,1.27c0,.4-.08.94-.11,1.34L51,44.85c-.28,2.28-.69,4.72-1.21,7.29l-.19.13a.08.08,0,0,0,0,0l-.07.06,0,0c-.14.12-.3.26-.42.38a5.68,5.68,0,0,0-.57.71l-.17.26c-.06.13-.15.29-.2.42a3.65,3.65,0,0,0-.24.82l0,.05-.33.41-.17.2-.33.41-.33.41-.17.2-.33.41-.33.4-.17.21-.33.4a4.8,4.8,0,0,0-1,1.84,4.09,4.09,0,0,1,.3-.8c-.1.21-.2.49-.28.71s-.06.27-.09.38a4,4,0,0,0-.08.85,4.82,4.82,0,0,0,.39,1.9l.08.17c-.07.25-.15.5-.2.73s-.14.71-.15.82a7.73,7.73,0,0,0-.07,1,3.89,3.89,0,0,0,0,.49h0a3.89,3.89,0,0,1,0-.49V66.9c0,.12,0,.24,0,.35v.11s0,0,0,.08,0,.15,0,.23.05.22.08.34l.08.23c0,.11.09.22.14.33l.12.24.18.31.16.24.24.31.19.22.31.31.21.2c.12.11.26.21.39.32l.21.16a8.27,8.27,0,0,0,.69.46,11.61,11.61,0,0,0,1.45.74v0A17.61,17.61,0,0,0,63.2,71.5C65.48,70.23,66.62,68.53,66.62,66.84Z"/><path class="cls-4" d="M63.07,58.73l-.7-.12a14.83,14.83,0,0,0-13.48-.14c-3.8,2.12-3.93,5.61-.28,7.81a14.86,14.86,0,0,0,13.48.13c3.8-2.12,3.92-5.61.28-7.8l.7.12c4,2.41,3.88,6.26-.31,8.6s-10.84,2.27-14.85-.15-3.88-6.27.3-8.61S59.05,56.31,63.07,58.73Z"/><path class="cls-3" d="M44.37,65.56a7.73,7.73,0,0,1,.07-1c0-.11.07-.45.15-.82a12.19,12.19,0,0,1,.4-1.44c0-.09.13-.41.24-.7-.73,1.92.15,4,2.68,5.53,4,2.42,10.66,2.48,14.85.15,2.76-1.54,3.76-3.73,3-5.74a17.82,17.82,0,0,1,.65,2.13,8.39,8.39,0,0,1,.23,1.78c0,1.7-1.15,3.39-3.43,4.67-4.43,2.47-11.47,2.4-15.72-.16C45.41,68.76,44.38,67.16,44.37,65.56Z"/><path class="cls-5" d="M60.86,68.6a5.3,5.3,0,0,0-2,.45c-.1.06-.72.55-.44,1,.55.76,3.06.14,3.18-.78C61.64,69.11,61.62,68.73,60.86,68.6Z"/><path class="cls-3" d="M45.43,58l.33-.4.17-.21.33-.4.33-.41.17-.2.33-.41.33-.41.17-.2.33-.41.33-.4.17-.21.33-.4c-1.28,1.57-.84,3.5,1.35,4.82a11.59,11.59,0,0,0,10.51.11c2.38-1.33,2.91-3.34,1.56-5h0l.34.41.17.2.33.4c.1.12.23.29.34.41l.16.2.34.4.83,1,.34.4.16.2.34.41c2,2.43,1.21,5.45-2.34,7.43-4.43,2.47-11.47,2.4-15.72-.16C44.17,63.25,43.51,60.36,45.43,58Z"/><path class="cls-6" d="M44.38,66.9V65.56c0,1.6,1,3.2,3.1,4.45,4.25,2.56,11.29,2.63,15.72.16,2.28-1.28,3.43-3,3.43-4.67v1.34c0,1.69-1.14,3.39-3.42,4.66-4.43,2.47-11.47,2.4-15.73-.16C45.41,70.1,44.38,68.5,44.38,66.9Z"/><path class="cls-6" d="M47.74,66.18c-.29-.18-.67-.44-.94-.64a7.39,7.39,0,0,1-.79-.72,6.62,6.62,0,0,1-.81-1A5.22,5.22,0,0,1,44.32,61a4,4,0,0,1,.08-.85c0-.11.06-.27.09-.38s.18-.5.28-.71c-1,2.12-.13,4.48,2.69,6.18,4.25,2.56,11.29,2.63,15.72.16,3.07-1.71,4.08-4.19,3-6.4,0,.12.13.27.17.39a4.4,4.4,0,0,1,.18.62,5.58,5.58,0,0,1,.09.59,4.69,4.69,0,0,1,0,.76,4.52,4.52,0,0,1-.26,1.19,6.09,6.09,0,0,1-.55,1.16,7.16,7.16,0,0,1-1.71,1.85c-.14.1-.32.24-.46.33s-.51.33-.74.46l-.63.32-1.07.45a17.49,17.49,0,0,1-11.43,0l-.67-.27c-.2-.08-.47-.21-.66-.3S47.94,66.3,47.74,66.18Z"/><path class="cls-4" d="M60.62,51.77a11.15,11.15,0,0,0-10.11-.11c-2.85,1.59-2.94,4.22-.21,5.86a11.12,11.12,0,0,0,10.11.1C63.26,56,63.36,53.41,60.62,51.77Z"/><path class="cls-3" d="M48.85,57.76a3.87,3.87,0,0,1-.77-1.32,3.36,3.36,0,0,1,.12-2.35c0-.13.14-.29.2-.42l.17-.26a5.68,5.68,0,0,1,.57-.71c.15-.15.36-.33.52-.47-2,1.6-1.79,3.83.64,5.29a11.12,11.12,0,0,0,10.11.1c2.62-1.45,2.91-3.77.84-5.42a5.17,5.17,0,0,1,.55.5,6.27,6.27,0,0,1,.42.48l.19.27A3.75,3.75,0,0,1,63,55a3.26,3.26,0,0,1-.1,1.36,3.79,3.79,0,0,1-.31.73,3.73,3.73,0,0,1-.48.67,5.65,5.65,0,0,1-1.48,1.16,11.59,11.59,0,0,1-10.51-.11A5.68,5.68,0,0,1,48.85,57.76Z"/><path class="cls-5" d="M59.74,58.71s-.23.47-1.41.71a1.93,1.93,0,0,1-1.44-.12.17.17,0,0,1,0-.1c.09-.24,2.61-1,2.85-.6a.21.21,0,0,1,0,.11Z"/><path class="cls-3" d="M50.1,34.5a5.74,5.74,0,0,0-.76-1.57,5.63,5.63,0,0,0,2.46,1.29,11.81,11.81,0,0,0,1.65.36,13.59,13.59,0,0,0,1.78.14,13.33,13.33,0,0,0,1.79-.1,10.77,10.77,0,0,0,1.69-.34l.5-.15a7.05,7.05,0,0,0,.93-.37,5.67,5.67,0,0,0,.7-.38,4.73,4.73,0,0,0,.43-.31l.2-.17a3.65,3.65,0,0,0-.42.73,7.15,7.15,0,0,0-.34.84,3.14,3.14,0,0,1-1.57,1.69,8.38,8.38,0,0,1-7.63-.08A3,3,0,0,1,50.1,34.5Z"/><path class="cls-7" d="M60.71,33.46a11.64,11.64,0,0,1-4.91,1.41,5.09,5.09,0,0,0-1.38.27,1.12,1.12,0,0,0-.61.49,7.22,7.22,0,0,0-.29,1.22,6.62,6.62,0,0,1-2-.77A3,3,0,0,1,50.1,34.5v0l0,0,0-.08,0-.11,0-.12s0-.1-.05-.14l-.07-.15-.07-.16-.08-.15-.08-.17-.08-.13-.08-.14L49.4,33l-.06-.08,0,0,.06,0,.16.14c.26.19.27.2.46.32l.35.19a4.54,4.54,0,0,0,.45.21l.46.19.5.17.53.14.56.12.56.1.59.07.59.05.6,0h.6l.6,0,.59-.06.58-.09.56-.11.55-.14.5-.15.51-.18.42-.19.43-.22.27-.16.17-.11-.3.19Z"/><path class="cls-3" d="M49.43,33.24a7.7,7.7,0,0,1-1.15-.86,6.14,6.14,0,0,1-.5-.52,5,5,0,0,1-.43-.6A4.33,4.33,0,0,1,46.83,30a5.1,5.1,0,0,1-.13-.67c0-.06,0-.21,0-.28a1.37,1.37,0,0,0,0-.19.59.59,0,0,0,0-.13c0-.11,0-.26,0-.37a3.19,3.19,0,0,1,.11-1,6.26,6.26,0,0,1,.21-.61,4.32,4.32,0,0,1,.22-.43,9,9,0,0,1,.61-.92,12.9,12.9,0,0,1,1-1.13c-1.76,1.69-1.43,3.92,1,5.41a12,12,0,0,0,10.92.11c2.66-1.49,3.1-3.81,1.25-5.55a9.81,9.81,0,0,1,1.32,1.5,5.71,5.71,0,0,1,.47.78,4.16,4.16,0,0,1,.31.79,3.77,3.77,0,0,1,.11.75c0,.11,0,.26,0,.37s0,.19,0,.28,0,0,0,.06,0,.11,0,.16c0,.27,0,.39-.07.59a4.9,4.9,0,0,1-.59,1.64,6.61,6.61,0,0,1-.56.78,5.32,5.32,0,0,1-.63.6,7.68,7.68,0,0,1-1.67,1.07,11.87,11.87,0,0,1-4.77,1.1A14.18,14.18,0,0,1,54,34.66c-.36,0-.84-.12-1.2-.18l-.59-.13c-.18,0-.42-.1-.6-.16s-.75-.26-1.07-.39A11.12,11.12,0,0,1,49.43,33.24Z"/><path class="cls-6" d="M47.68,26.32c0-.41.08-.82.13-1.23-.13,1.18.57,2.39,2.1,3.31a11.78,11.78,0,0,0,10.72.11c1.69-.94,2.46-2.21,2.32-3.46l.14,1.22c.14,1.27-.65,2.57-2.36,3.53a12,12,0,0,1-10.92-.11C48.26,28.75,47.55,27.52,47.68,26.32Z"/><path class="cls-8" d="M64,15.86a7.58,7.58,0,0,0-1.43-1.1l-.35-.2-.12-.06-.24-.13-.14-.07-.23-.1-.16-.07-.14-.06-.08,0L60.9,14l-.21-.08-.2-.07-.22-.08-.21-.06-.22-.07-.21-.06-.23-.06-.22-.05-.22,0-.23-.05-.23-.05-.22,0-.23,0-.23,0-.12,0h-.09l-.4-.05h-.16L56.5,13h-.09L56,13H54.64l-.56,0h-.15l-.41,0-.18,0-.39.05-.12,0h0l-.54.09h-.06l-.47.1-.17,0-.37.09-.17.05-.39.12-.12,0-.49.17-.12,0-.36.15-.16.07-.33.15-.14.06-.44.24a4.83,4.83,0,0,0-.45.26l-.12.08-.32.22-.09.07a3.51,3.51,0,0,0-.36.29L47,15.6l-.26.25a.12.12,0,0,0-.05.05l0,0a3.65,3.65,0,0,0-.27.3h0c-.09.11-.18.22-.25.32a.35.35,0,0,1-.06.09c-.06.09-.12.17-.17.26a.35.35,0,0,1,0,.08c-.06.11-.11.22-.16.33l0,.07c0,.09-.08.18-.11.27l0,.1c0,.1-.06.2-.08.3v.05c0,.11,0,.22-.05.34v.09c0,.08,0,.17,0,.26v.09c0,.12,0,.24,0,.35a.43.43,0,0,0,0,.05,1.59,1.59,0,0,0,.06.3.36.36,0,0,0,0,.1c0,.1.06.2.1.3s0,0,0,.05l.15.33,0,0s0,.05,0,.08l.09.16.07.12.1.15.09.12.11.15.1.12.13.15.07.08,0,0,.29.29h0l.33.29.11.08.28.21.11.08.39.25h0c3.81,2.29,10.12,2.35,14.1.14C65.65,21,66.25,18.1,64,15.86Zm-6.92,1.35a3.9,3.9,0,0,1-3.16.13,1.54,1.54,0,0,1-.34-.17h0L53.37,17l0,0-.11-.11s0,0-.05-.05l-.06-.07a.21.21,0,0,1,0-.06L53,16.63l0-.06a1.11,1.11,0,0,1-.07-.16s0,0,0,0a.71.71,0,0,1,0-.14.09.09,0,0,1,0-.05,1.11,1.11,0,0,1,0-.17h0c0-.05,0-.11.05-.15l0,0,.08-.13,0,0,.13-.15,0,0,.14-.12,0,0,.21-.13.23-.11.07,0,.17-.07.08,0,.2-.06h.06l.27,0h.06l.21,0h.65l.27,0,.11,0,.12,0,.11,0,.11,0,.11,0,.1,0,.11,0,.1,0,.12.06.06,0,.18.09a1.4,1.4,0,0,1,.66.77C57.92,16.4,57.67,16.87,57.07,17.21Z"/><path class="cls-9" d="M64,15.86A10.84,10.84,0,0,0,57.8,16,38.15,38.15,0,0,0,54,17.3l-.11,0a17,17,0,0,0-6.27,5.1l-.28-.21-.11-.08-.33-.29h0l-.29-.29,0,0-.07-.08-.13-.15-.1-.12L46.18,21l-.09-.12-.1-.15-.07-.12-.09-.16s0,0,0-.08l0,0L45.62,20s0,0,0-.05-.07-.2-.1-.3a.36.36,0,0,1,0-.1,1.59,1.59,0,0,1-.06-.3.43.43,0,0,1,0-.05c0-.11,0-.23,0-.35V18.8c0-.09,0-.18,0-.26v-.09c0-.12,0-.23.05-.34v-.05c0-.1.05-.2.08-.3l0-.1c0-.09.07-.18.11-.27l0-.07c.05-.11.1-.22.16-.33a.35.35,0,0,0,0-.08c0-.09.11-.17.17-.26a.35.35,0,0,0,.06-.09c.07-.1.16-.21.25-.32h0a3.65,3.65,0,0,1,.27-.3l0,0a.12.12,0,0,1,.05-.05L47,15.6l.08-.06a3.51,3.51,0,0,1,.36-.29l.09-.07.32-.22.12-.08a4.83,4.83,0,0,1,.45-.26l.44-.24.14-.06.33-.15.16-.07.36-.15.12,0,.49-.17.12,0,.39-.12.17-.05.37-.09.17,0,.47-.1h.06l.54-.09h0l.12,0,.39-.05.18,0,.41,0h.15l.56,0H56l.46,0h.09l.55.05h.16l.4.05h.09l.12,0,.23,0,.23,0,.22,0,.23.05.23.05.22,0,.22.05.23.06.21.06.22.07.21.06.22.08.2.07.21.08.2.08.08,0,.14.06.16.07.23.1.14.07.24.13.12.06.35.2A7.58,7.58,0,0,1,64,15.86Z"/><path class="cls-10" d="M48.32,14.59a12.65,12.65,0,0,1,3.42-1.26,17.18,17.18,0,0,1,7.64.08,12.15,12.15,0,0,1,1.41.43c.21.06.47.18.67.26a10,10,0,0,1,1.25.64.14.14,0,0,0-.15,0c-3.81-2.3-10.13-2.36-14.1-.14s-4.11,5.87-.29,8.16,10.12,2.36,14.1.15,4.1-5.88.29-8.17a.14.14,0,0,1,.15,0,9.21,9.21,0,0,1,1.06.76c.14.13.33.29.45.42a8.77,8.77,0,0,1,.71.9,4.61,4.61,0,0,1,.74,2.49,4.36,4.36,0,0,1,0,.51c-.06.33-.15.77-.23,1.09a10.88,10.88,0,0,1-.51,1.42,37.07,37.07,0,0,1-2.37,4.48,5.08,5.08,0,0,1-1.9,1.7,11.78,11.78,0,0,1-10.72-.11,4.85,4.85,0,0,1-1.67-1.55,36.2,36.2,0,0,1-2.39-4.47,10,10,0,0,1-.6-1.71,5.43,5.43,0,0,1-.19-1.3,6.92,6.92,0,0,1,.11-1,4.67,4.67,0,0,1,.14-.5,3.72,3.72,0,0,1,.47-1,10.3,10.3,0,0,1,.7-.9,5.77,5.77,0,0,1,.44-.42A8.1,8.1,0,0,1,48.32,14.59Z"/><path class="cls-3" d="M61.46,55.39a.49.49,0,0,0,0-.11l0-.08,0-.1s0-.06,0-.09,0-.07,0-.1,0-.06,0-.09a.34.34,0,0,0,0-.1s0-.06,0-.08v-.12a.17.17,0,0,0,0-.07.53.53,0,0,0,0-.13v-.06c0-.07,0-.13,0-.19l-.06-.23-.1-.44-.14-.63L61.1,52,60.9,51,60.69,50c-.07-.35-.15-.83-.22-1.18l-.21-1.25c-.07-.39-.15-.92-.21-1.32l-.19-1.34c0-.42-.11-1-.16-1.39l-.13-1.34c0-.41-.06-1-.08-1.36l0-1.23c0-.38,0-.89,0-1.27l.08-1c0-.32.12-.74.19-1.06l.15-.49V35.7l-.19.09-.12.09a4.92,4.92,0,0,1-.45.28,8.45,8.45,0,0,1-5.34.74l-.12,0-.33-.08-.13,0-.38-.1-.05,0-.41-.14-.1,0-.3-.13-.11,0-.36-.2a1.59,1.59,0,0,1-.27-.18,1.47,1.47,0,0,1,.34.39l-.34-.39a.77.77,0,0,0-.33-.15v0c.09.27.18.63.25.91l.09.63c.05.35.08.82.1,1.18l0,1.06c0,.39,0,.92,0,1.32l-.08,1.27c0,.4-.08.94-.11,1.34L51,44.85c-.36,2.92-.93,6.12-1.68,9.51l0,.19a2.83,2.83,0,0,0,1.4,2.3q.06-.37.12-.78c-.06.41-.11.68-.12.78l.32.21.4.22.08,0,.06,0,0,0h0l.06,0,.36.15.21.07.34.12.24.06.34.09.25,0,.35.07.26,0,.35,0,.26,0,.38,0h.83a8.84,8.84,0,0,0,3.76-.93h0l.13-.08a4.06,4.06,0,0,0,.51-.32,3.55,3.55,0,0,0,1.11-1.2h0l0-.06a.47.47,0,0,1,0-.1Z"/><path class="cls-7" d="M56.17,37c-2.05.25-2.22.27-2.35,1-.61,3.49-.27,7-.51,10.53-.2,3-.55,6.09-.76,9.14A7.08,7.08,0,0,1,51,57.06l-.32-.21,0-.27c1.31-8.21,2.46-18.47.5-20.68a1.59,1.59,0,0,0,.27.18,8.13,8.13,0,0,0,4.94.9l-.28,0Z"/><path class="cls-5" d="M55.84,58.14S56,49,56.27,45s.66-7.33,1.4-1.84,1.93,14,1.93,14A7.13,7.13,0,0,1,55.84,58.14Z"/><path class="cls-7" d="M47.47,70a5.79,5.79,0,0,1-3.07-4l0,0a.1.1,0,0,0,0,.05c.17,0,.89-1.49.9-1.5a6.39,6.39,0,0,0,2.54,2.56c.28.17.58.33.89.48a6.45,6.45,0,0,0,0,2.9l.12.17A10.75,10.75,0,0,1,47.47,70Z"/><path class="cls-4" d="M45.4,63.5l3.33-5.89a5.17,5.17,0,0,0,1.37,1.16l.46.25-2.42,6.59-.68-.38A7.7,7.7,0,0,1,45.4,63.5Z"/><path class="cls-5" d="M59.45,59.41l-.45.15-.62.17a9.18,9.18,0,0,1-.91.19l-.59.08.72,7.07c.3,0,.59-.07.88-.12.46-.07.92-.17,1.36-.28a9.07,9.07,0,0,0,.93-.26l.67-.23Z"/><path class="cls-7" d="M44.41,67.36V66a5.75,5.75,0,0,0,3.07,4,12.27,12.27,0,0,0,1.45.73v1.34a11.61,11.61,0,0,1-1.45-.74,5.7,5.7,0,0,1-3.06-4Z"/><path class="cls-10" d="M50.1,58.77a5.68,5.68,0,0,1-1.25-1l-.1-.13-.13-.16-.11-.16-.14-.23-.1-.18-.11-.26-.08-.2c0-.09-.06-.21-.08-.29l0-.23c0-.1,0-.22,0-.32v-.24c0-.1,0-.23,0-.33v.1c0,.18,0,.64.8.94a4.59,4.59,0,0,0,1.56,1.45,8.08,8.08,0,0,0,1.82.79h0c-1,1,.89,1.61,2.56,1.75a10.24,10.24,0,0,1-4.58-1.29Z"/><path class="cls-4" d="M56.46,34.68a10.94,10.94,0,0,1-1.23,0l-.62,0-.61,0-.61-.08-.6-.1-.58-.13-.6-.16L51.07,34l-.58-.23-.5-.24-.56-.3L49,33a7.64,7.64,0,0,1-1-.82l-.26-.29c-.13-.18-.31-.41-.43-.6L47.19,31l-.2-.43-.09-.26c0-.09-.06-.22-.09-.32l0-.2a2,2,0,0,1-.05-.24l0-.16a.88.88,0,0,1,0-.17l0-.11V28.9a.59.59,0,0,0,0-.13v-.12l0,.24c.14.39.3.72.84.79.25,0,.61-.25.74-.36a4.71,4.71,0,0,1,.72-.16,2.22,2.22,0,0,0-.19-.27,5.57,5.57,0,0,0,1.05.8l.15.09-.18-.08-.1,0c.07.64-.12,1.28,0,1.92.07.4.07.4.09.43.09.21.34.26.45.45s.05.4.11.6.17.34.59.62c.2.14,2,1.32,6,1l-.46,0Z"/><path class="cls-11" d="M59.26,32.45a8,8,0,0,1-1.36.42,1.24,1.24,0,0,1-.43,0,.26.26,0,0,1-.17-.17,2.27,2.27,0,0,1,.51-.57h1.38c.06,0,.15.08.16.14a.31.31,0,0,1-.09.2Z"/><path class="cls-4" d="M47.73,27.21,47.86,26a4.07,4.07,0,0,0,2,2.44,7.76,7.76,0,0,0,.86.45l-.08,1.29a8.07,8.07,0,0,1-.88-.45,4.22,4.22,0,0,1-2.08-2.48Z"/><path class="cls-4" d="M49.91,28.4a4.85,4.85,0,0,1-1.67-1.55l-.06-.09-.1-.17-.14-.23c0-.09-.12-.21-.18-.3l-.2-.34c-.06-.12-.15-.27-.22-.39l-.24-.43c-.08-.14-.18-.32-.25-.46L46.59,24c-.07-.16-.18-.36-.25-.51l-.25-.53c-.07-.16-.17-.37-.24-.54l-.23-.55c-.06-.17-.15-.41-.21-.59l-.16-.57c0-.23-.12-.55-.15-.79l0-.33,0,.2a4,4,0,0,0,.65,1.33c1,1.39,2.74,2,3.77,3.31a17.86,17.86,0,0,1,1.84,3.52A11.58,11.58,0,0,0,52,29.29a8.8,8.8,0,0,1-2.07-.89Z"/><path class="cls-5" d="M60.48,24.27a9.51,9.51,0,0,1-2.54.63c-1,.13-1,0-1.19-.14A28.37,28.37,0,0,0,60.44,24c.13,0,.29-.16.42-.13S61,24,61,24s-.35.18-.51.25Z"/><path class="cls-12" d="M59.87,13.34l0,0a1.23,1.23,0,0,0-.14-.25l-.16-.22-.2-.22-.22-.2a3.24,3.24,0,0,0-.51-.36l0,0,0,0A6.88,6.88,0,0,0,52.23,12a3.44,3.44,0,0,0-1.32,1.22,2.31,2.31,0,0,0-.22.56v0c0,.07,0,.15,0,.21l0,.25c0,.09,0,.21,0,.3v.06l0,.17v.06a2.25,2.25,0,0,0,.08.24v0l.09.2v0l0,0,.11.19,0,.08.18.23a3.33,3.33,0,0,0,.25.28l.23.21.32.25a5.52,5.52,0,0,0,2.11.87h0l.25,0h0l.26,0h0a6.22,6.22,0,0,0,1.06,0h.06l.21,0h.13l.18,0h0l.3-.06.24-.06h0l.07,0a5.2,5.2,0,0,0,2-1.07l.08-.08.22-.21.23-.29.16-.24.14-.29.1-.25v0h0A1.93,1.93,0,0,0,59.87,13.34ZM58.55,12h-.5A1,1,0,0,1,58.55,12Zm-.5,0h-.12l-.09,0h-.08a10.53,10.53,0,0,0-2,.91A8.56,8.56,0,0,1,58.05,12Z"/><path class="cls-8" d="M50.76,13.81h0l.09.21v0l0,0,.11.19,0,.08.18.23a3.33,3.33,0,0,0,.25.28l.23.21.32.25a5.52,5.52,0,0,0,2.11.87h0l.26,0h0l.26,0h0a6.35,6.35,0,0,0,1.07,0h.06l.21,0h.13l.18,0h0l.3-.06.24-.06h0l.07,0a5.1,5.1,0,0,0,2-1.08l.08-.07.22-.21.23-.29.16-.24.14-.29.1-.26h0a1.88,1.88,0,0,0-.12-.3l0,0a1.23,1.23,0,0,0-.14-.25l-.16-.22-.2-.22-.22-.2a3.24,3.24,0,0,0-.51-.36l0,0,0,0a6.31,6.31,0,0,0-2.07-.72l-.11.05.11-.05a7,7,0,0,0-4.3.65,3.44,3.44,0,0,0-1.32,1.22,2.8,2.8,0,0,0-.19.46.5.5,0,0,0,0,.13Zm5.32-1,.11-.06Zm.34-.18.13-.06Zm.32-.15.12-.05Zm.3-.13.1,0Zm.79-.28.06,0,0,0Zm-.46.15.12,0Zm.23-.08.11,0Zm.83-.14h0Zm-.07,0h0Zm-.15,0h0Zm-2-.49-.11.05Z"/><path class="cls-12" d="M50.69,13.74h0s0,0,0-.05Z"/><path class="cls-4" d="M55.83,17.54l-.55,0H55l-.28,0-.27,0-.29,0-.29-.06-.31-.08-.29-.1-.33-.13-.29-.13-.35-.2L52,16.57l-.32-.25-.23-.21a3.33,3.33,0,0,1-.25-.28l-.18-.23-.18-.3-.11-.25c0-.09-.07-.21-.09-.3l0-.25v0A1,1,0,0,0,51,15l0,0c.32.28.7.46,1,.73a1.13,1.13,0,0,1,.28.34,1.79,1.79,0,0,0,.86.81,5,5,0,0,0,3.17.54l-.28,0-.23,0Z"/><path class="cls-13" d="M57.69,16.5a2.56,2.56,0,0,1-1.53.31s0-.14.05-.18a10,10,0,0,1,1.42-.3.14.14,0,0,1,.08.15l0,0Z"/><path class="cls-14" d="M60.79,7v0s0-.08,0-.11v0A1.37,1.37,0,0,0,60.54,6l-.07-.11v0h0l-.06-.08,0,0,0,0-.09-.11-.09-.1h0v0h0A.76.76,0,0,0,60,5.33h0s0,0-.05-.05h0l-.06,0,0,0h0l0,0-.1-.07h0l0,0h0l0,0L59.55,5l0,0h0l-.17-.1-.25-.15-.1,0h0l0,0,0,0c.11-.3.22-.59.35-.87,0,0,0,0,0,0h0a.1.1,0,0,0,0-.09h0a0,0,0,0,1,0,0v0l0-.06,0,0-.08-.1h0L59,3.32l0,0-.09-.08,0,0-.11-.08-.06,0A.78.78,0,0,0,58.47,3l-.25-.15a3,3,0,0,0-1-.41H56.05l-.11,0h0l-.13,0h0l-.13,0-.09,0h0l-.13,0h0l-.07,0,0,0-.08,0-.06,0h0L55,2.72h0l-.05,0-.08,0,0,0,0,0-.06,0,0,0,0,0h0l-.05,0h0l0,0,0,0-.08,0h0s0,0,0,0h0l0,0-.14.08,0,0-.08,0h0a.67.67,0,0,0-.14.09h0l0,0-.07,0-.14.11-.13.1,0,0,0,0h0l-.12.1-.11.1h0L53.11,4l0,0L53,4l0,0c-.11.1-.25.24-.41.41l-.08.08,0,0-.06.06,0,0v0l-.08.09,0,0h0L52.09,5,52,5.1l0,0L52,5.15l-.12.14-.12.15h0a0,0,0,0,0,0,0h0s.05.11.14.19l0,0a4.15,4.15,0,0,1,.8,1.94l-.36.18-.12.06,0,0-.48.25-.1,0-.24.13,0,0-.08,0-.47.24a1.67,1.67,0,0,0-.08.2l0,0v0c-.12.31-.19.5-.22.6h0c0,.06,0,.13,0,.18l0,.07,0,.07v.06c0,.1,0,.19-.05.28h0v.48a.13.13,0,0,0,0,.06v0l0,.14v.05l0,.07s0,.08,0,.11h0v0l.06.12,0,0h0l.09.14v0h0l.06.09,0,.05,0,0a.48.48,0,0,1,.09.11l.11.12a3.66,3.66,0,0,0,.8.6l.25.14.14.08c-.1.31-.2.6-.32.89s.27.47.79.77l.25.15.16.09h0l0,0,.09,0h.09l.07,0,0,0h.06l0,0h0l0,0h1.27l.14,0h0l.08,0H55l.07,0h.07l.05,0h.09l.14,0,.08,0h0l0,0,.14,0,.12,0,.1,0,0,0,.07,0h0l0,0h0l.19-.09.05,0,.09,0,.2-.11h0l.15-.09c.19-.12.39-.26.58-.4h0l.06,0a1.39,1.39,0,0,0,.19-.15h0a2.31,2.31,0,0,0,.24-.2h0l.13-.12.14-.13.13-.12.06-.06,0,0,0-.05,0,0,0,0,.05-.06h0l0,0,0,0,.07-.08,0,0,.07-.08,0,0,0-.05L59,12a.93.93,0,0,0,.13-.15l.09-.1,0-.06h0v0h0l0,0v0a2.79,2.79,0,0,1-.35-.59h0a6.69,6.69,0,0,1-.46-1.43l.35-.18.68-.35.27-.14.09-.05.44-.22h0c0-.11.15-.36.26-.63V8a.58.58,0,0,0,.05-.14l0,0h0l0-.07,0-.11s0-.1.05-.15v0a.3.3,0,0,0,0-.1v-.1a.15.15,0,0,1,0-.07v0a.19.19,0,0,0,0-.08V7ZM54,14.75h0Zm6.23-9.13Zm-1.85,4h0Zm0,0h0Zm0,0Zm1.84-.95h0Zm-1,3.1h0Zm1-3.1h0ZM54.41,3h0Zm0,0h0Zm4.91,8.7h0Zm1-3.08Z"/><path class="cls-8" d="M59.25,3.62v0l0-.06,0,0-.08-.1h0L59,3.32l0,0-.09-.08,0,0-.11-.08-.06,0A.78.78,0,0,0,58.47,3l-.25-.15a3,3,0,0,0-1-.41l-.16,0h-.83l-.13,0-.14,0-.13,0-.14,0-.14,0-.13,0-.14.05-.14,0L55,2.72l-.14.06-.13.07-.14.07L54.41,3h-.09l-.14.08-.13.09a.67.67,0,0,0-.14.09l-.13.09-.14.11-.13.1-.14.11-.13.11L53.11,4,53,4.07l-.13.13-.13.12a1.59,1.59,0,0,1-.13.13l-.13.14-.12.13-.13.14L52.09,5,52,5.15l-.12.14-.12.15c-.07.08.26.36.77.66l.26.15h0l0,0h0a3.46,3.46,0,0,0,1.2.48l0,0,0,0h0A9.92,9.92,0,0,1,56.57,4.4l.1-.06a4.39,4.39,0,0,1,2.56-.6.1.1,0,0,0,0-.09h0A0,0,0,0,1,59.25,3.62Z"/><path class="cls-8" d="M60.25,5.62h0a.25.25,0,0,0,0-.07v0h0l0,0h0l0,0A.76.76,0,0,0,60,5.33h0s0,0-.05-.05h0l-.06,0,0,0h0l0,0-.1-.07h0l0,0h0l0,0L59.55,5l0,0h0l-.17-.1-.25-.15c-.5-.29-.95-.44-1.07-.36-.56.38-1.09.72-1.89,1.22.18-.12.67,0,1.18.3l.25.14.22.14,0,0,0,0,.13.1,0,0,.09.08.06.06a.46.46,0,0,0,.07.07c.13.17.19.31.13.4.82-.5,1.41-.88,1.92-1.22A.13.13,0,0,0,60.25,5.62Z"/><path class="cls-8" d="M53.44,8.06a7,7,0,0,1-.81-.51c-.8.43-1.33.7-1.89,1a3.86,3.86,0,0,1,.92.45l.25.15a5.66,5.66,0,0,1,1.1.74c.5-.24,1.1-.55,1.91-1-.12-.05-.67-.35-1.22-.67Z"/><path class="cls-3" d="M56.67,4.34a4.39,4.39,0,0,1,2.56-.6,11.2,11.2,0,0,0-.89,3.16c.82-.5,1.41-.88,1.92-1.22.69.77.7,1.37,0,3-.48.23-1,.52-1.86.95a5.51,5.51,0,0,0,.86,2.15A9.82,9.82,0,0,1,56.65,14a4.66,4.66,0,0,1-2.62.71,15.38,15.38,0,0,0,.85-3.13c-.81.51-1.38.87-1.86,1.2-.7-.77-.7-1.37,0-3,.5-.24,1.1-.55,1.91-1A4,4,0,0,0,54,6.74,9.92,9.92,0,0,1,56.57,4.4l0,0Z"/><path class="cls-4" d="M54.81,2.78a.4.4,0,0,0,.23.46,1.4,1.4,0,0,0,1.26,0c.23-.13.31-.31.25-.48l.18.51c.08.2,0,.42-.3.58a1.69,1.69,0,0,1-1.52,0,.48.48,0,0,1-.28-.55l0,0v0l0,0,0-.05V3l0,0V3l0,0,0-.06v0Z"/><path class="cls-7" d="M57.39,1.71A1.71,1.71,0,1,1,55.68,0,1.72,1.72,0,0,1,57.39,1.71Z"/><circle class="cls-15" cx="55.86" cy="1.53" r="1.42"/><path class="cls-16" d="M56.66,1.28A.46.46,0,1,1,56.2.82.47.47,0,0,1,56.66,1.28Z"/><path class="cls-17" d="M62.4,21.41c.18.75-1.2,1.71-3.07,2.15s-3.53.18-3.7-.58-.31-4.43,1.56-4.86S62.23,20.65,62.4,21.41Z"/><path class="cls-18" d="M59.76,13.15a1.65,1.65,0,0,1,.06,1,2.29,2.29,0,0,1-.55.89,4.47,4.47,0,0,1-1.79,1,7.13,7.13,0,0,1-2,.29,8.11,8.11,0,0,1-2-.31,8.71,8.71,0,0,0,4-.21,4.28,4.28,0,0,0,1.73-.93A1.77,1.77,0,0,0,59.76,13.15Z"/><path class="cls-18" d="M52.53,12A3.3,3.3,0,0,1,53,9.84h0l1.89-1,0,.08a7.5,7.5,0,0,0-.29-1.13A2,2,0,0,0,54,6.83l-.08-.07.06-.08A9.87,9.87,0,0,1,55,5.52a14.94,14.94,0,0,1,1.21-1,4.4,4.4,0,0,1,3-.86l.15,0-.07.14a8,8,0,0,0-.9,3.12l-.12-.07,1.93-1.2,0,0,0,0a1.49,1.49,0,0,1,.47,1,2.81,2.81,0,0,1-.12,1.08,2.77,2.77,0,0,0,.07-1.07,1.4,1.4,0,0,0-.47-.92h.05L58.39,7l-.14.09V6.9a7.89,7.89,0,0,1,.87-3.22l.08.16a4.27,4.27,0,0,0-2.86.84,14,14,0,0,0-1.19,1,9.23,9.23,0,0,0-1,1.12l0-.14a2.14,2.14,0,0,1,.65,1A7.65,7.65,0,0,1,55,8.87v.06l0,0L53,9.91l0,0A3.22,3.22,0,0,0,52.53,12Z"/></g></g></g></svg>