<svg xmlns="http://www.w3.org/2000/svg" viewBox="0 0 52.75 48.06"><defs><style>.cls-1{isolation:isolate;}.cls-2{fill:#d7dce0;mix-blend-mode:multiply;}.cls-3{fill:#1f1f1f;}.cls-4{fill:#141414;}.cls-5{fill:#171717;}.cls-6{fill:#1a1a1a;}.cls-7{fill:#191919;}.cls-8{fill:#3d3d3d;}.cls-9{fill:#5b5b5b;}.cls-10{fill:#242424;}.cls-11{fill:#121212;}.cls-12{fill:#292929;}.cls-13{fill:#363636;}.cls-14{fill:#131313;}.cls-15{fill:#545454;}.cls-16{fill:#1c1c1c;}</style></defs><g class="cls-1"><g id="Capa_2" data-name="Capa 2"><g id="layer"><path class="cls-2" d="M47.79,35.38a3.71,3.71,0,0,0-1.09-.92c-.38-.2-.79-.32-1.18-.5a9.66,9.66,0,0,1-1-.56l-.42-.26q-2.59-1.59-5.31-3a22.68,22.68,0,0,0-4.91-2.26c-2.7-.58-5.41-1.13-8.12-1.62l-.67-.11.1,0c.17,0,.38.08.54,0l1.15.22,1.5.31,3.77-.59c2-1.77,1.27-3.05,1.27-3.05a1.86,1.86,0,0,0-.5-1l-.07,0h0L32.76,22l-.08-.05,0,0-.28-.15,0,0-.06,0,0,0-.08,0-.09,0-.13-.07-.07,0-.15-.07-.07,0-.14-.06-.21-.1-.06,0-.16-.08-.06,0L30.85,21l-.06,0-.14-.06,0,0-.14-.05h-.06l-.1,0c-.55-.18-1.42-.12-2.63-.34s-2.42-.56-6.86-1.74a19.8,19.8,0,0,0-6.23-.9,11.07,11.07,0,0,0-.26-2.54h0c-3.35.09-4.9,1.54-5.6,2.84a22.59,22.59,0,0,0-2.44.47c-2,.5-4.55,1.43-5.16,3,0,.1-.38.8-.64,1.39-.68.95-.71,2.14.52,3.58H1l.05.07c.2.23.42.45.66.68,2.48,2.39,6.73,4.54,10.51,6.29l7.23,3.26h0c.08,1,.93,1.81,2.34,2.18h.07l0,0a4.07,4.07,0,0,0,1.15.55c.25.64.5,1.28.74,1.92A2.22,2.22,0,0,0,24,42v0c.06.08.11.16.18.24l0,0,.22.24h0l.14.12a5.16,5.16,0,0,0,2,1.1l.26.32a4.75,4.75,0,0,0,.45.45,4,4,0,0,0,.32.26l.6.39,1.15.67a10.15,10.15,0,0,0,5.95.75h.08l.41,0,.18,0,.55-.09h.07l.46-.09.14,0,.39-.08.16,0c.13,0,.25,0,.37-.09l.17,0,.39-.1.14,0,.48-.14h0l.48-.15c.24.14,1.58-.56,1.85-.67.6-.25,1.19-.51,1.77-.8a21.53,21.53,0,0,0,3.12-1.88A11.78,11.78,0,0,0,49,40.08c.63-.8,0-2.49-.38-3.38A5.16,5.16,0,0,0,47.79,35.38Z"/><path class="cls-3" d="M33.22,47.39v0c4.16,1.19,9.32.84,12.86-1.14,2.32-1.29,3.49-3,3.48-4.74V40.14a5.72,5.72,0,0,0-.15-1.26,5.51,5.51,0,0,0-.35-1.1,4.53,4.53,0,0,0,0-2.37.71.71,0,0,1,0,.14,2.77,2.77,0,0,0-.11-.48s0,.07,0,.11L49,35l-.1-.25c0-.09-.06-.17-.1-.25a1.8,1.8,0,0,1,.08.21,5.08,5.08,0,0,0-.35-.7c-.37-.57-.74-1.14-1.1-1.72L47,31.63a5,5,0,0,0,.23-1.37v-.32l0-.13c.5-1,.94-2.2.69-2.68-.51-1-2.63-5.56-3.56-7.34-.08-.15-.17-.32-.28-.51l.09,0c.13.05.14.29.29.34l.45.88.55,1.18,2.77,1.6C51.18,22.72,52,21,52,21a3.82,3.82,0,0,0,.7-1.28,2.73,2.73,0,0,0,0-.31V19.3c0-.1,0-.21,0-.33v-.08s0-.05,0-.08,0-.19,0-.29a1.09,1.09,0,0,0,0-.18c0-.16,0-.31,0-.46v-.07c0-.13,0-.26,0-.38s0-.07,0-.1a1.64,1.64,0,0,0,0-.25v0a1.27,1.27,0,0,0,0-.14c-.13-.49-.69-1-1.17-1.86-.3-.64-.53-1.19-.73-1.69-.13-.33-.27-.73-.45-1.19-.41-1.17-.7-2.17-1.35-3.64l-.17-.38a2.29,2.29,0,0,0-.1-.23,7.24,7.24,0,0,0-.34-.69,7,7,0,0,0-1.77-2.44h0a27.27,27.27,0,0,0,2.39-2.7L48.71,2c-2-1.77-4.3-1.22-6-.33A11.47,11.47,0,0,0,40.87.72l0,0h0c-1.65-.66-4.06-1.21-6,0-.13.09-1.15.67-1.91,1.11A5.17,5.17,0,0,0,31.33,3l0,0a6.6,6.6,0,0,0-.5.63,5,5,0,0,0-.29.45l-.24.43a10.37,10.37,0,0,0-.44,1l0,.06s0,0,0,0l0,.09c-.05.13-.07.28-.11.42-1.17,4-.87,8.9-.42,13.09.09.8.92,7.47.92,7.47h0a3.36,3.36,0,0,0-.73,3.82l-.09-.21v.06a3,3,0,0,0,.12,1.22L28,34.05a3.62,3.62,0,0,0-.33.65c0-.05,0-.11.05-.16s0,.13-.07.19-.09.24-.13.36-.07.23-.1.34l.06-.18c0,.11-.06.21-.08.31s0-.09,0-.13a2,2,0,0,0,0,.24l0,.17a4.47,4.47,0,0,0,.13,2,4,4,0,0,0-.19.5,6.69,6.69,0,0,0-.19.72,3.25,3.25,0,0,0-.07.45c0,.22,0,.51,0,.74v1.33a5.31,5.31,0,0,0,2.68,4.21h0l.47.3a11.91,11.91,0,0,0,1.64.81l.58.2C32.61,47.18,32.9,47.3,33.22,47.39Z"/><polygon class="cls-4" points="29.57 31.61 29.45 33.34 30.82 37.03 38.01 38.72 46.8 35.01 47.22 32.65 46.68 31.61 29.57 31.61"/><path class="cls-3" d="M26.94,40.21c0-.23,0-.52,0-.74a3.25,3.25,0,0,1,.07-.45,6.69,6.69,0,0,1,.19-.72,6.25,6.25,0,0,1,.23-.62,8.67,8.67,0,0,1,1.44-2.26c-2,2.25-1.43,5.08,1.75,7,4,2.42,10.65,2.49,14.83.15,3.44-1.91,4.15-4.86,2-7.19h0a8.16,8.16,0,0,1,.79,1A9.45,9.45,0,0,1,49,37.59a7.79,7.79,0,0,1,.42,1.29,5.72,5.72,0,0,1,.15,1.26c0,1.73-1.16,3.45-3.48,4.75-4.51,2.51-11.67,2.44-16-.16C28,43.46,26.94,41.83,26.94,40.21Z"/><path class="cls-5" d="M45.81,34l-.7-.12a14.82,14.82,0,0,0-13.46-.13c-3.79,2.11-3.92,5.6-.28,7.79a14.85,14.85,0,0,0,13.46.14c3.79-2.12,3.92-5.61.28-7.8l.7.12c4,2.42,3.87,6.26-.31,8.59s-10.82,2.27-14.83-.15-3.87-6.25.31-8.59S41.8,31.56,45.81,34Z"/><path class="cls-4" d="M31.37,41.51l-.21-.13L30.67,41A4.39,4.39,0,0,1,28.73,38l-1,.54A4.89,4.89,0,0,0,29.9,41.9l.54.37.23.14c1.22.74,1,2.11,2.21,1,.77-.71,3.93-.17,3.93-.17A23.28,23.28,0,0,1,31.37,41.51Z"/><path class="cls-3" d="M28,34.05c.72-1.15,1.45-2.3,2.18-3.44-1.1,1.73-.49,3.75,1.87,5.17a13.41,13.41,0,0,0,12.18.13c2.56-1.43,3.27-3.54,2.11-5.35,0,.06.08.12.11.17.15.23.3.46.44.69l.56.85c.36.58.73,1.15,1.1,1.72,1.47,2.29.56,5-2.69,6.79-4.37,2.44-11.3,2.37-15.49-.15C27.33,38.82,26.56,36.25,28,34.05Z"/><path class="cls-6" d="M46.46,33.5s0-.09-.05-.13,0,0,0-.06v0a.83.83,0,0,1,0-.27v0a.14.14,0,0,1,0-.07v0a.36.36,0,0,1,0-.09c0-.09.12-.25.27-.54v0h0l0-.07c0,.07-.07.14-.11.22a2.92,2.92,0,0,1-.21.32.86.86,0,0,1-.07.1l-.17.22-.1.11a1.62,1.62,0,0,1-.18.2l-.11.11-.22.2a7.23,7.23,0,0,1-1.25.87,12.34,12.34,0,0,1-5.27,1.42l-.31,0H37.67l-.34,0h-.09c-.22,0-.44,0-.65-.06l-.16,0-.61-.08-.11,0-.59-.11-.15,0-.56-.14-.16,0a4,4,0,0,1-.49-.15l-.06,0-.11,0-.53-.2L33,35l-.07,0-.46-.2-.13-.07h0l-.52-.28-.31-.2,0,0-.05,0-.21-.15h0l-.09-.06-.21-.18-.06,0-.24-.22-.06-.06-.16-.17-.07-.07L30.16,33l-.06-.07a3.92,3.92,0,0,1-.33-.5,2.53,2.53,0,0,1-.12-.23l.07.14h0a6.09,6.09,0,0,1,.34.74s0,.07,0,.1v.15a.94.94,0,0,1,0,.16l0,0h0a.14.14,0,0,1,0,.06l-.06.09c.06.11.12.22.19.33h0a3.9,3.9,0,0,0,.36.5l0,0h0l.16.17,0,0,0,0,0,.05.1.1.07.06L31,35h0l0,0,0,0,.07.06s0,0,0,0l0,0,.07,0,0,0,.05,0,.06,0,0,0,.07,0,.12.09.05,0,0,0,0,0,0,0h0l.24.14a2.48,2.48,0,0,0,.31.18h0l0,0h0l0,0h0l0,0,.07,0,.06,0,0,0,0,0,.06,0h0l0,0,.06,0,0,0h0l0,0h0l0,0,.08,0,.06,0h0l.07,0,.05,0h0l0,0,.08,0h0l0,0h0l.06,0h.06l.08,0,.05,0h.1l.09,0h.12l.06,0,.11,0,.07,0h.13l0,0,.09,0h.09l.08,0h.09l.1,0,.1,0h.34l.1,0h.07l.1,0,.15,0h.32l.14,0H38.8l.25,0h.31l.36,0h.08l.15,0,.38-.05h.08a13.66,13.66,0,0,0,1.47-.31h.06l.54-.17.05,0h0l.1,0,.26-.09.13,0,.07,0,.06,0h0l.11,0,.15-.07.15-.07.06,0,.07,0,0,0h0l0,0,.36-.19.41-.24h0l.07,0,.3-.21.11-.09.22-.16.12-.11.18-.16h0l0,0a.6.6,0,0,1,.08-.08l.14-.15.06-.07L46,34.5l.13-.17.06-.07,0,0,.12-.19,0,0h0a.05.05,0,0,1,0,0l0,0v0l0-.05c0-.08.09-.16.13-.25s0,0,0-.07v0Z"/><path class="cls-3" d="M29.57,30.87a1.18,1.18,0,0,1,0,.61,1.27,1.27,0,0,0,0,.68c-.22-.45,0-1.15-.2-1.51a1.19,1.19,0,0,0,.12.22Z"/><path class="cls-4" d="M26.94,41.54V40.21c0,1.62,1,3.25,3.15,4.52,4.32,2.6,11.48,2.67,16,.16,2.32-1.3,3.48-3,3.48-4.75v1.34c0,1.72-1.16,3.45-3.48,4.74-4.51,2.52-11.67,2.44-16-.16C28,44.8,27,43.17,26.94,41.54Z"/><path class="cls-7" d="M30.5,41.41c-2.92-1.8-3.95-4.31-2.82-6.87-1,2.09-.12,4.42,2.65,6.09,4.19,2.52,11.12,2.59,15.49.15,3-1.68,4-4.12,3-6.3,1.39,3.1-.4,6.09-4.65,7.8a17.37,17.37,0,0,1-11.75,0,11.14,11.14,0,0,1-1.88-.9Z"/><path class="cls-7" d="M29.34,30.4a.06.06,0,0,0,0,0S29.33,30.38,29.34,30.4Z"/><path class="cls-7" d="M47.22,29.86a2.28,2.28,0,0,0,0-.26A1,1,0,0,0,47.22,29.86Z"/><path class="cls-6" d="M47.22,30.05v-.19a3.81,3.81,0,0,1-.1.42l-.14.35a1.86,1.86,0,0,0-.1.2s0,.05,0,.07h0a.33.33,0,0,1,0-.06A6,6,0,0,1,44.52,33a14.2,14.2,0,0,1-12.87-.13,5.67,5.67,0,0,1-2.08-2,1.19,1.19,0,0,1-.12-.22,2.72,2.72,0,0,1-.11-.25v.06a3,3,0,0,0,.14,1.3l0,.11a4.85,4.85,0,0,0,.25.52h0a5.63,5.63,0,0,0,2,2,13.87,13.87,0,0,0,12.58.12,5.81,5.81,0,0,0,2.31-2.13c0-.08.08-.15.11-.22h0a4.76,4.76,0,0,0,.42-1.85h0Zm-17.6,1.1v0Zm0-.17a.29.29,0,0,1,0,.1Zm0,.07a.36.36,0,0,0,0-.1A.3.3,0,0,1,29.61,31.05Zm0,1a1.45,1.45,0,0,1,0-.55v0a1.74,1.74,0,0,0,0,.58S29.6,32,29.6,32Zm0-.83v0Zm17.25-.12v0ZM47,30.7a.14.14,0,0,1,0,.07A.14.14,0,0,0,47,30.7Zm0,.17a.22.22,0,0,0,0,.08A.22.22,0,0,1,46.92,30.87Zm0,.56v0Zm0,.11v0Zm0,.2a.68.68,0,0,1,0,.14A.68.68,0,0,0,46.89,31.74Zm-.07-.64c0,.09,0,.2,0,.31C46.83,31.31,46.82,31.2,46.82,31.1Zm0,0v0Zm0,1a.14.14,0,0,0,0-.06v0l0,.08Z"/><path class="cls-8" d="M47.22,29.31A3.65,3.65,0,0,1,46.87,31a5,5,0,0,1-1.07,1.42,8.11,8.11,0,0,1-3.09,1.71,13.3,13.3,0,0,1-3.48.55,16.22,16.22,0,0,1-3.48-.32,26.63,26.63,0,0,0,3.46,0,14.29,14.29,0,0,0,3.38-.62,8.28,8.28,0,0,0,3-1.56A4.24,4.24,0,0,0,47.22,29.31Z"/><path class="cls-4" d="M30.08,44.72l-.45-.29.21,0a.55.55,0,0,0,.23-.11c.1-.1.24-.13.33-.23a.87.87,0,0,0,.15-.35,2,2,0,0,0,0-.66,2.38,2.38,0,0,0-.05-.26v0c-.05-.2,0-.44-.15-.6l.31.19A10.66,10.66,0,0,0,33,43.46s-.08,0-.11,0a1.87,1.87,0,0,0-.45,1.3c0,.13,0,.45.54,1.12l.23.19a13.27,13.27,0,0,1-3.12-1.33Z"/><path class="cls-9" d="M43.42,44.53c-.05.46-.57.81-1.56,1.06,0,0-1.21.25-1.57-.28s.33-.89.43-1a5.15,5.15,0,0,1,1.92-.45c.75.13.79.48.78.62Z"/><path class="cls-7" d="M30.3,40.61,32,35.77h0a9.26,9.26,0,0,0,1.8.83l-1.19,5.07a12.88,12.88,0,0,1-2.28-1l0,0Z"/><path class="cls-9" d="M42.3,36.71l-.5.14a14.76,14.76,0,0,1-1.5.31l.57,5.21A15,15,0,0,0,42.78,42c.22,0,.43-.11.64-.18Z"/><path class="cls-4" d="M35.88,36c0,.08-.4.21-1.22.22l-1.07.06a.11.11,0,0,0,0,.1c.05.1.22.17.32.23l0,0A9.69,9.69,0,0,1,32,35.78l-.23-.14.27.06c.26.12.26.12.45.1-.39-.58-1-1-1.36-1.56s-.32-.56-.31-.6a6.83,6.83,0,0,0,1,.7,11,11,0,0,0,3.73,1.34l.17.09s.22.13.18.23Z"/><path class="cls-4" d="M29.62,45.76V44.42c.15.1.31.21.47.3a13,13,0,0,0,3.14,1.33v1.34a13.17,13.17,0,0,1-3.13-1.33l-.47-.3Z"/><path class="cls-4" d="M45.65,41.57a11.84,11.84,0,0,1-1.52.71,17.4,17.4,0,0,1-11.76,0l-.62-.25a11.14,11.14,0,0,1-1.26-.65L30,41.1a7.77,7.77,0,0,1-.9-.7l-.32-.3L28.67,40l.06.06a3.59,3.59,0,0,0,1.79.84l-.09-.16a12.48,12.48,0,0,0,2.16,1l-.08,0c1.76,1.75,8.86,2.69,14-.63l-.48.32-.34.19Z"/><path class="cls-4" d="M35.25,34.26c-1.16-.09-1.51.15-1,.7a3.35,3.35,0,0,0,1.32.72,11,11,0,0,1-3.73-1.34,6.83,6.83,0,0,1-1-.7l.07,0c.93.18.57-.48.38-.77a9.28,9.28,0,0,0-.75-.84,7.34,7.34,0,0,0,1.13.83,11.65,11.65,0,0,0,4.22,1.44l-.62-.06Z"/><path class="cls-10" d="M44.78,25.55h0c3.48,2.1,3.37,5.44-.26,7.46a14.2,14.2,0,0,1-12.87-.13c-3.48-2.1-3.36-5.43.27-7.46a14.18,14.18,0,0,1,12.86.13Z"/><path class="cls-11" d="M36,12.84c-1-8.59,2.36-8.33,3.79-9.13a21.28,21.28,0,0,0,3-2s-4.65-3.07-8-.94c-.2.13-2.54,1.46-2.73,1.62C31.36,3,34,2.2,33.54,3.62c-1.37,4.05-1,9.13-.53,13.51.09.8.92,7.47.92,7.47l3.34,1.93S36.92,20.29,36,12.84Z"/><polygon class="cls-11" points="47.31 20.12 47.56 20.97 47.31 21.18 47.31 20.12"/><path class="cls-3" d="M52.74,19.72A3.82,3.82,0,0,1,52,21l-3.78,2.33L47.56,21l1.71-1.42-1.78-2.7-.84-1.28c-1.49-.41-2.33-1.47-3-1.71-.75,0-1.11.33-1.22.78a4.4,4.4,0,0,0,.64,2.6c.45,1,1,1.9,1.36,2.55.93,1.78,3,6.38,3.56,7.34s-1.72,4.57-1.72,4.57a5,5,0,0,1-1.12,1,11.73,11.73,0,0,1-2.66,1.2h0L41.63,33l-7.16-8s.11-9.8,2.72-17.54c.42-1.24-2.36-.37-1.72-1,.19-.19,3.73-2.15,3.93-2.3.54-.39.35-.5.78-.8a15,15,0,0,1,3.89-2.05s.11-.3,1.83-.26a5,5,0,0,1,2.91,1.13L46.33,4.69s1.4.83,2.78,4.6A59.71,59.71,0,0,0,51.34,15c.48.91,1,1.37,1.17,1.86A14.35,14.35,0,0,1,52.74,19.72Z"/><path class="cls-12" d="M46.42,4.76a1.54,1.54,0,0,1-1,0c-.4-.18-.53,0-.53,0L43.59,6.44l-1,.43A14.36,14.36,0,0,1,46,12c1.38,3.37,2.54,4.31,2.54,4.31S51.2,16,51.34,15c-1.35-2.9-1.44-4-2.53-6.52A11.13,11.13,0,0,0,46.42,4.76Z"/><path class="cls-3" d="M43.44,6.05S45,5.94,46.23,8.94s1.85,5,3.25,6.91l1.28-.57a14.25,14.25,0,0,1-1.65-3.91A13.33,13.33,0,0,0,45.7,5.5c-1.19-1.08-2.09-.73-2.09-.73Z"/><path class="cls-13" d="M48.81,2.06a4.94,4.94,0,0,0-3.6-.89A11.74,11.74,0,0,0,40.84,3.1s-.38.18,0-.15C42.11,1.83,45.83-.72,48.81,2.06Z"/><path class="cls-8" d="M48,27.13c0,1.1-.74,1.12-.74,1.12s-3.69-7.17-4.56-9.74-.26-3.87-.26-3.87h0a4.4,4.4,0,0,0,.64,2.6c.45,1,1,1.9,1.36,2.55C45.32,21.57,47.44,26.17,48,27.13Z"/><path class="cls-5" d="M46.23,31.7a5,5,0,0,1-1.12,1,11.73,11.73,0,0,1-2.66,1.2h0L41.63,33c0-.34.06-.58.06-.58l2.53-2.47c3.6-1.34,3.73-2.78,3.73-2.78C48.45,28.08,46.23,31.7,46.23,31.7Z"/><path class="cls-3" d="M50.25,21.11a3.82,3.82,0,0,1-.7,1.28l-1.29-1.56v2.5l-2.77-1.6-.55-1.18-.45-.88c-.15-.05-.16-.29-.29-.34-1.22-.48-3.84-3.06-3.78-3.65-2.59.44-.74,4.51.19,6.29.78,1.49,2.39,5,3.19,6.6.16.33.28.58.37.74.49.94-1.66,4.47-1.72,4.57h0l-12.3-7.1s-.29-6-.37-6.78c-.48-4.38-1.39-10.15,0-14.2,2.61-7.73,10.42-2.56,10.42-2.56A1.27,1.27,0,0,1,40.85,3a7.13,7.13,0,0,1,1.4-.09A4,4,0,0,1,45,4.24L42.55,6.87s1.85.91,3.23,4.68a18.05,18.05,0,0,0,2.71,4.74,21.08,21.08,0,0,1,1.53,2A14.35,14.35,0,0,1,50.25,21.11Z"/><path class="cls-10" d="M41,2.84A9.59,9.59,0,0,0,37,3.22a4.74,4.74,0,0,0-.51.24c-1.43.8-5.22,3-4.19,11.56.89,7.45,1.24,13.69,1.24,13.69l-1.12-.65-2.22-1.28s-.83-6.67-.92-7.47c-.47-4.38-.8-9.57.57-13.63C32.37-1.93,40.78,2.69,41,2.84Z"/><path class="cls-14" d="M43.3,11.46a5.22,5.22,0,0,1,1.09,2,1.89,1.89,0,0,1-.71-.29,2.41,2.41,0,0,1-.59-.54,2.1,2.1,0,0,1-.43-1.5l.64.35Z"/><path class="cls-9" d="M43.16,11.75l.09.19,0,.07c0,.07,0,.22.09.37a1.07,1.07,0,0,1,.1.34l0,0a.88.88,0,0,1-.4-.56c-.11-.43.18-.39.18-.39Z"/><path class="cls-15" d="M43.11,11.28a2.35,2.35,0,0,1,.76.82,4.21,4.21,0,0,1,.62,1.7,8.9,8.9,0,0,0-1.14-2.09,2.7,2.7,0,0,0-.63-.54,1.58,1.58,0,0,0-.33-.18A1.72,1.72,0,0,1,43.11,11.28Z"/><path class="cls-7" d="M52.74,19.72A3.82,3.82,0,0,1,52,21s-.86,1.72-3.78,2.33v-2.5l1.29,1.56a3.82,3.82,0,0,0,.7-1.28A14.35,14.35,0,0,0,50,18.28a21.08,21.08,0,0,0-1.53-2L51.34,15c.48.91,1,1.37,1.17,1.86a1.27,1.27,0,0,1,0,.14,15.37,15.37,0,0,1,.19,1.86A7.41,7.41,0,0,1,52.74,19.72Z"/><path class="cls-16" d="M50.25,21.11a3.82,3.82,0,0,1-.7,1.28l-1.29-1.56v2.5l-2.77-1.6-.55-1.18a6.89,6.89,0,0,1,2.55-3.7,7.26,7.26,0,0,1,1-.56,21.08,21.08,0,0,1,1.53,2A14.35,14.35,0,0,1,50.25,21.11Z"/><polygon class="cls-11" points="49.55 22.39 48.26 20.83 48.26 23.33 49.55 22.39"/><path class="cls-8" d="M44.22,29.91a28.87,28.87,0,0,1-4-7.36c-1.51-4.18-1.85-6.64.24-6.87-.88,1.66,1.25,7.12,3.56,10.85a18,18,0,0,0,1.92,2.71S44.52,30,44.22,29.91Z"/><path class="cls-11" d="M40.69,3l-.51.21c-1-.75-4.55.22-6.21,2.26,1.21-2.89,5.68-3.31,5.68-3.31h1.4l1-.64L40.84.7l1.89,1Z"/><path class="cls-10" d="M45,4.24a4.87,4.87,0,0,0-2.38,1.5c-.67.79-1.45,1.48-.1,1.13a2.74,2.74,0,0,0,1-.43C44.45,5.6,45.46,4.24,45,4.24Z"/><path class="cls-13" d="M45,4.24l-.09-.06a4.47,4.47,0,0,0-3-.83A8.05,8.05,0,0,0,39,4.6,5.59,5.59,0,0,1,40.74,3c1.18-.56,2.39-1,4.37,1.31C45.05,4.21,45,4.24,45,4.24Z"/><path class="cls-14" d="M49.34,18.32a3.13,3.13,0,0,1,.72.28,1.16,1.16,0,0,1,.37.72.88.88,0,0,1-.17.69.47.47,0,0,1-.42,0,1.13,1.13,0,0,1-.51-.26c-.47-.43-.78-1-.62-1.33.1-.2.36-.21.63-.14Z"/><path class="cls-14" d="M52.74,18.89h0c-.18,0-.29-.11-.42-.29a1.14,1.14,0,0,1-.13-.68,4.39,4.39,0,0,1,.27-.7.88.88,0,0,1,.12-.19A15.37,15.37,0,0,1,52.74,18.89Z"/><path class="cls-10" d="M48.81,2.06s-.39,0-1.18.63A7.8,7.8,0,0,0,46,4.6c-.07.2-.13.37,0,.29a1.8,1.8,0,0,1,.35-.13A27.27,27.27,0,0,0,48.81,2.06Z"/><path class="cls-16" d="M37,3.22a4.74,4.74,0,0,0-.51.24c-1.43.8-5.22,3-4.19,11.56.89,7.45,1.24,13.69,1.24,13.69l-1.12-.65s-1.51-12.57-1.14-18C31.67,3.77,37,3.22,37,3.22Z"/></g></g></g></svg>