<svg xmlns="http://www.w3.org/2000/svg" viewBox="0 0 59.93 55.36"><defs><style>.cls-1{isolation:isolate;}.cls-2{fill:#d7dce0;mix-blend-mode:multiply;}.cls-3{fill:#1f1f1f;}.cls-4{fill:#242424;}.cls-5{fill:#2c2c2c;}.cls-6{fill:#141414;}.cls-7{fill:#171717;}.cls-8{fill:#1a1a1a;}.cls-9{fill:#191919;}.cls-10{fill:#5b5b5b;}.cls-11{fill:#121212;}.cls-12{fill:#212121;}.cls-13{fill:#262626;}.cls-14{fill:#131313;}.cls-15{fill:#545454;}.cls-16{fill:#3d3d3d;}.cls-17{fill:#1c1c1c;}</style></defs><g class="cls-1"><g id="Capa_2" data-name="Capa 2"><g id="layer"><path class="cls-2" d="M57.4,45.35a9.42,9.42,0,0,0-1.65-1.92l-.83-.81-4.8-4.68a2.35,2.35,0,0,0-.53-.41c-1.42-.71-3.39-.56-4.87-1.27-1.19-.57-2.2-1.9-3.24-2.71A36.86,36.86,0,0,0,31.1,28,50.34,50.34,0,0,0,9.55,25.45a28.41,28.41,0,0,0-4.13-.31c-3.15-.1-4,.46-4,.46l6.87,1.49a23.26,23.26,0,0,0-5.1.11C.34,27.57,0,28.57,0,28.57l5.46,1.18a4.67,4.67,0,0,0-.66,1.86,1.78,1.78,0,0,0,.09.53,6.29,6.29,0,0,1,.36,1.57,3.33,3.33,0,0,1,0,.64v0c-.09.7-.39,1-.34,1.13s0,0,0,0A6.89,6.89,0,0,0,6.58,36.6a20.91,20.91,0,0,0,2.4.69l1-1.08,2.15,1.24,2.45-.38.32-1.34.16-.67c2.4-.09,3.68-.18,4.79-.24,3.67.17,4.12,1.08,4,1.9a7.83,7.83,0,0,0-.69,1.2s-1.45,2.94-1.39,3c-.12.43,6.62,2.89,6.62,2.89h0c0,1.1.89,1.91,2.35,2.29h0l.05,0s0,0,.05,0a3.85,3.85,0,0,0,1.15.54c.25.65.49,1.29.74,1.93a2.14,2.14,0,0,0,.2.4v0a1.44,1.44,0,0,0,.18.25l0,0,.22.24h0l.14.12a5.42,5.42,0,0,0,2,1.1c.08.1.15.2.26.32a4.73,4.73,0,0,0,.45.45l.32.26c.17.12.41.28.6.39l1.15.66a10.22,10.22,0,0,0,5.95.76h.08l.41,0,.17,0,.55-.08.08,0,.45-.08.14,0,.4-.08.16,0,.37-.09.17,0,.38-.1.15,0,.49-.14h0l.48-.15a24.13,24.13,0,0,0,6.26-3C56.64,48.47,58.66,47.5,57.4,45.35Z"/><path class="cls-3" d="M56.45,53.52c2.32-1.29,3.48-3,3.48-4.74V47.44a5.18,5.18,0,0,0-.14-1.26,6.55,6.55,0,0,0-.35-1.1,4.53,4.53,0,0,0,0-2.37s0,.09,0,.14a4.21,4.21,0,0,0-.12-.48s0,.07,0,.11l-.06-.2c0-.08-.06-.17-.1-.26a2.34,2.34,0,0,0-.09-.24,1.72,1.72,0,0,1,.07.21,4.16,4.16,0,0,0-.35-.7c-.36-.58-.73-1.15-1.1-1.72l-.41-.65a5.27,5.27,0,0,0,.23-1.36V37.4a2.11,2.11,0,0,0,0-.25,3,3,0,0,0-.09-1.62A31.26,31.26,0,0,0,58,19.72C55.34,9,48.1,4.6,48.1,4.6s0-.89-1.71-2.82S43.25,0,43.25,0s-.6,1.45,2.18,5.11a8.88,8.88,0,0,0-.6-.68l0,0-.19-.19c-.06-.06-.11-.12-.18-.18a9.9,9.9,0,0,0-.73-.72,7.16,7.16,0,0,0-1.27-.91A4.47,4.47,0,0,0,41,1.87,2.47,2.47,0,0,0,39.37,2l-.09,0v.11a7.78,7.78,0,0,0,.46,2.92,6.14,6.14,0,0,0,.65,1.34,3.66,3.66,0,0,0,.38.5,13.07,13.07,0,0,0-1.27.82l-.08,0-.1.1,0,0-.13.14a3.52,3.52,0,0,0-.43.54,14.87,14.87,0,0,1-1.36,1.79h0l-.31.33h0c-.11.11-.22.2-.32.29l0,0h0c-.76.66-1.21.76-1.33.94l0,0a7.06,7.06,0,0,0-.12,2.06,13.31,13.31,0,0,0,.7,2.09l1.65-.52v2.5l1.8,1L40.9,18l.27-.2.49-.38c1.15,1,1.9,1.63,2.51,2.13l.5.4a6.08,6.08,0,0,1,1.09,1.75,2,2,0,0,1-.7,2.47,14.52,14.52,0,0,0-1.6.81s-3.72,2.09-3.78,2.18h0c-.51.37.93,6.76.93,6.76h0a3.4,3.4,0,0,0-.82,3.93,1.89,1.89,0,0,1-.09-.21.18.18,0,0,1,0,.06A3.2,3.2,0,0,0,39.82,39h0l-1.5,2.36A6.77,6.77,0,0,0,38,42s0-.11.06-.16S38,42,38,42s-.09.24-.13.36a2.19,2.19,0,0,0-.1.34,1.27,1.27,0,0,1,.06-.18c0,.1-.06.21-.08.31s0-.09,0-.13,0,.16,0,.23,0,.12,0,.18a4.47,4.47,0,0,0,.12,2l-.19.5a6.62,6.62,0,0,0-.18.71c0,.14-.06.32-.08.45s0,.52-.05.75v1.33A5.27,5.27,0,0,0,40,53v0l.47.3a12.46,12.46,0,0,0,1.64.8c.19.08.39.14.58.21s.6.23.92.32v0C47.74,55.85,52.91,55.5,56.45,53.52Z"/><path class="cls-4" d="M52.82,46.88a11.94,11.94,0,0,0,1.94-1,5.29,5.29,0,0,0,1.65-1.41H55Z"/><path class="cls-5" d="M54.79,40.64l-.13-.1h0Z"/><path class="cls-4" d="M54.34,45.73l-1.52,1.15-1.8-1V43.34l-1.65.53a13.31,13.31,0,0,1-.7-2.09,7,7,0,0,1,.12-2.06l0,0a8.65,8.65,0,0,1,2-1.59h0a6.36,6.36,0,0,1-.64.63l0,0h0c-.23.43.29,2,1.5,4.14A6.78,6.78,0,0,0,54.34,45.73Z"/><path class="cls-6" d="M39.69,41.64,39.82,39,43,41.16l14.2-2.1.35,1.18s-5.1,5.44-5.59,5.45-6.16-.12-7-.2S39.69,41.64,39.69,41.64Z"/><path class="cls-3" d="M37.3,47.51c0-.23,0-.53.05-.75s0-.31.08-.45a6.62,6.62,0,0,1,.18-.71c.08-.24.16-.42.24-.62a8.13,8.13,0,0,1,1.44-2.26c-2,2.25-1.44,5.07,1.75,7,4,2.42,10.65,2.48,14.83.15C59.31,47.94,60,45,57.92,42.67h0a9.21,9.21,0,0,1,.79,1,7.22,7.22,0,0,1,.64,1.18,6.58,6.58,0,0,1,.43,1.29,5.18,5.18,0,0,1,.14,1.26c0,1.73-1.16,3.45-3.48,4.74-4.5,2.52-11.66,2.45-16-.16C38.35,50.76,37.31,49.13,37.3,47.51Z"/><path class="cls-7" d="M56.18,41.27l-.7-.12A14.85,14.85,0,0,0,42,41c-3.8,2.12-3.92,5.61-.28,7.8A14.85,14.85,0,0,0,55.2,49c3.79-2.12,3.92-5.61.28-7.8l.7.12c4,2.42,3.87,6.26-.31,8.59S45.05,52.13,41,49.71s-3.87-6.26.31-8.59S52.17,38.86,56.18,41.27Z"/><path class="cls-6" d="M41.74,48.81l-.22-.13L41,48.34a4.36,4.36,0,0,1-1.94-3.09l-1,.54a4.85,4.85,0,0,0,2.14,3.41l.53.37.24.14a13.14,13.14,0,0,0,4.24,1.55l.3-1A11.86,11.86,0,0,1,41.74,48.81Z"/><path class="cls-3" d="M38.32,41.34c.73-1.14,1.46-2.29,2.18-3.44-1.1,1.74-.48,3.76,1.87,5.18a13.43,13.43,0,0,0,12.19.13c2.55-1.43,3.27-3.55,2.11-5.35,0,.06.08.12.11.17l.44.69.55.85c.37.57.74,1.14,1.1,1.72,1.48,2.29.57,5-2.68,6.79-4.37,2.44-11.3,2.37-15.49-.15C37.7,46.12,36.92,43.55,38.32,41.34Z"/><path class="cls-3" d="M40,39.46c-.05-.1-.09-.2-.13-.3l0-.1a3,3,0,0,1-.15-1.3c0-.07,0-.08,0-.12s.08.21.12.31c.21.36,0,1.06.21,1.51Z"/><path class="cls-3" d="M57.59,37.56a5,5,0,0,1-.42,1.85c.2-.43,0-1.1.17-1.47l.15-.36a2.32,2.32,0,0,0,.12-.68,1.87,1.87,0,0,0,0,.45v.21Z"/><path class="cls-8" d="M56.83,40.79a.61.61,0,0,1,0-.12.14.14,0,0,0,0-.06v0a1.22,1.22,0,0,1,0-.27v0a.64.64,0,0,1,0-.07v0l0-.08c.05-.1.13-.25.27-.54l0,0v0h0l0-.08-.12.23c-.06.11-.13.21-.2.32l-.07.1-.17.22-.1.11-.18.2-.12.11c-.06.07-.14.13-.21.2a7.63,7.63,0,0,1-1.25.87,12.67,12.67,0,0,1-5.27,1.42H48l-.35,0H47.6L47,43.13l-.16,0-.6-.08-.11,0-.59-.11-.15,0-.56-.14-.17,0-.48-.15-.07,0-.1,0-.53-.2-.06,0-.08,0-.45-.2-.13-.07h0c-.18-.09-.35-.19-.52-.29a3.28,3.28,0,0,1-.31-.2l0,0-.05,0-.2-.15h0a.27.27,0,0,1-.08-.07,1.84,1.84,0,0,1-.22-.17l0,0L41,40.73l-.06-.06-.16-.17-.07-.07-.15-.18-.05-.06a4.11,4.11,0,0,1-.34-.51,1.51,1.51,0,0,1-.11-.22l.06.13v0a4.15,4.15,0,0,1,.33.74s0,.06,0,.1v0a.62.62,0,0,1,0,.13.45.45,0,0,1,0,.16s0,0,0,.05h0l0,.06a.41.41,0,0,1-.05.09c.05.11.12.22.18.33h0a3.9,3.9,0,0,0,.36.5l0,0h0L41,42l0,0,0,0,0,0,.1.1.06,0,0,.05h0l0,0,0,0,.07.06,0,0,0,0,.07,0,0,0,0,0,.05,0,0,0,.06.05.13.09.05,0,0,0,0,0,0,0h0l.23.14.32.18h0l0,0h0l0,0h.06l.07,0,.06,0,0,0,0,0,.05,0,0,0h0l.06,0,.05,0,0,0,0,0h0l.08,0,0,0h.05l.07,0,.05,0h0l0,0,.05,0,.08,0H44l0,0,.06,0h0l.07,0,.06,0h.09l.09,0h.12l.07,0,.11,0,.07,0,.05,0h.13l.09,0h.09l.07,0h.1l.1,0,.09,0h.35l.1,0H46l.09,0,.16,0h.2l.12,0,.13,0h3l.37,0h.08l.15,0,.38,0h.07a13.84,13.84,0,0,0,1.48-.31h0l.06,0,.54-.16.06,0h0l.1,0,.25-.1.13,0,.07,0,.07,0h0l.12,0,.14-.06L54,43.5l.06,0,.07,0,0,0h0l0,0,.36-.18L55,43h0l.07-.05.29-.2.12-.09a1.73,1.73,0,0,0,.21-.17l.13-.1.17-.16,0,0h0l0,0,.08-.09.14-.14.06-.07,0-.07a1,1,0,0,0,.13-.16l.06-.08,0,0,.12-.19v0h0l0,0v0l0,0,0,0c0-.08.09-.17.13-.25a.13.13,0,0,0,0-.07v0Z"/><path class="cls-3" d="M40.13,39.68a1.51,1.51,0,0,1-.11-.22l0-.06a1.47,1.47,0,0,1,0-.62,1.16,1.16,0,0,0,0-.61l0,.06c.17.47,0,1,.17,1.45Z"/><path class="cls-3" d="M39.93,38.17a1.05,1.05,0,0,1,0,.61,1.18,1.18,0,0,0,.05.68c-.22-.45,0-1.15-.21-1.51l.12.22Z"/><path class="cls-3" d="M40,39.46c-.22-.45,0-1.15-.21-1.51l.12.22,0,0c.13.41-.13.84.07,1.24Z"/><path class="cls-3" d="M57.17,39.41a1.31,1.31,0,0,0,0-.68,1.29,1.29,0,0,1,0-.61,2.39,2.39,0,0,0,.12-.22c-.2.36,0,1.06-.19,1.51Z"/><path class="cls-3" d="M57.05,39.64c.21-.45,0-1.16.19-1.52l0,.05c-.12.41.14.84,0,1.24l-.12.23Z"/><path class="cls-6" d="M37.31,48.84V47.51c0,1.62,1.05,3.25,3.15,4.51,4.33,2.61,11.49,2.68,16,.16,2.32-1.29,3.49-3,3.48-4.74v1.34c0,1.72-1.16,3.45-3.48,4.74-4.51,2.51-11.67,2.44-16-.16C38.36,52.1,37.31,50.47,37.31,48.84Z"/><path class="cls-9" d="M40.86,48.71C38,46.9,36.92,44.4,38.05,41.84c-1,2.09-.13,4.42,2.65,6.09,4.19,2.52,11.12,2.59,15.49.15,3-1.68,4-4.12,3-6.3,1.38,3.1-.4,6.09-4.65,7.8a17.4,17.4,0,0,1-11.76,0,11.93,11.93,0,0,1-1.88-.9Z"/><path class="cls-8" d="M40.13,39.68c-.21-.44,0-1.15-.2-1.51a5.71,5.71,0,0,0,2.09,2,14.18,14.18,0,0,0,12.86.13,5.82,5.82,0,0,0,2.36-2.19c-.19.36,0,1.07-.19,1.52a5.78,5.78,0,0,1-2.3,2.13,13.84,13.84,0,0,1-12.58-.13A5.44,5.44,0,0,1,40.13,39.68Z"/><path class="cls-6" d="M40.45,52a5,5,0,0,1-.45-.29l.21,0a.63.63,0,0,0,.23-.12c.1-.09.24-.12.33-.22a1.24,1.24,0,0,0,.15-.35,1.81,1.81,0,0,0,0-.66,1.19,1.19,0,0,0,0-.26v0c-.05-.2,0-.43-.15-.59l.31.19a11.7,11.7,0,0,0,2.32,1s-.08,0-.12,0a1.72,1.72,0,0,0,.09,2.42l.23.19A13.19,13.19,0,0,1,40.45,52Z"/><path class="cls-10" d="M53.79,51.83q-.07.69-1.56,1.05s-1.22.25-1.58-.27.34-.89.44-1A4.79,4.79,0,0,1,53,51.21c.74.13.79.48.78.62Z"/><path class="cls-9" d="M40.67,47.91l1.68-4.84h0a10.11,10.11,0,0,0,1.79.83L43,49a12.18,12.18,0,0,1-2.28-1l0,0Z"/><path class="cls-10" d="M52.67,44l-.5.15a14.41,14.41,0,0,1-1.51.31l.58,5.21a15,15,0,0,0,1.91-.39l.64-.18Z"/><path class="cls-6" d="M46.25,43.31c0,.08-.41.21-1.22.22L44,43.59s0,.07,0,.09.22.18.32.24l0,0a9.6,9.6,0,0,1-1.92-.87l-.24-.15.27.07c.27.12.27.12.46.1-.39-.58-1-1-1.36-1.56s-.32-.56-.31-.6a6.31,6.31,0,0,0,1,.7A10.91,10.91,0,0,0,45.89,43l.17.09s.22.13.19.23Z"/><path class="cls-6" d="M40,53.06V51.72l.47.3a12.77,12.77,0,0,0,3.13,1.33v1.34a13.42,13.42,0,0,1-3.14-1.33l-.47-.3Z"/><path class="cls-6" d="M56,48.87a11.93,11.93,0,0,1-1.53.71,17.43,17.43,0,0,1-11.75,0l-.62-.25a12,12,0,0,1-1.26-.65l-.48-.31a8.37,8.37,0,0,1-.89-.7l-.32-.31L39,47.25l.06.06a3.66,3.66,0,0,0,1.8.84L40.8,48A12.9,12.9,0,0,0,43,49l-.09,0c1.76,1.75,8.87,2.69,14-.63l-.49.31-.33.2Z"/><path class="cls-6" d="M45.62,41.56c-1.16-.09-1.51.15-1,.7a3.51,3.51,0,0,0,1.31.72,10.91,10.91,0,0,1-3.72-1.34,6.31,6.31,0,0,1-1-.7l.07,0c.93.17.57-.48.37-.77a9.09,9.09,0,0,0-.74-.84,7.24,7.24,0,0,0,1.12.83,11.57,11.57,0,0,0,4.23,1.43l-.62,0Z"/><path class="cls-4" d="M55.15,32.85h0c3.48,2.1,3.36,5.43-.27,7.46A14.18,14.18,0,0,1,42,40.18c-3.48-2.1-3.36-5.43.26-7.46a14.2,14.2,0,0,1,12.87.13Z"/><path class="cls-11" d="M52.87,36.69a36.12,36.12,0,0,0,1.57-17.64C52.73,9.85,50,8.62,50,8.62l-1.93-4s0-.89-1.71-2.82S43.25,0,43.25,0s-.65,1.54,2.48,5.5a2.24,2.24,0,0,0-2.14-.12c-.37.19-4,2.11-4.39,2.65-.59.92-.44,1.14-.12,1.11a.31.31,0,0,0-.23.18c-.14.34.47,1.59.52,2.14a13.31,13.31,0,0,0,.7,2.09l1.29-.08V16l2,2,2-2c1.48,1.3,2.33,1.22,3,1.8,2.83,3.37.15,4.32-.78,5S44,24.65,43.46,25c0,0-3.78,2.12-3.78,2.19.28,1.47,9.41,11.66,9.41,11.66l1.37-.57ZM40,8.82a1.36,1.36,0,0,1-.66.25C39.78,8.94,40.24,8.65,40,8.82Z"/><path class="cls-12" d="M39.47,2.18s1.19-.8,3.2.47A11.19,11.19,0,0,1,45.73,5.5a1.27,1.27,0,0,1-1.41,1.28C42.85,6.83,39.47,2.18,39.47,2.18Z"/><path class="cls-3" d="M49.09,38.87,40.61,34s-1.44-6.39-.93-6.76S43,25.72,43.89,25s3.62-1.66.78-5c-.71-.58-1.53-1.24-3-2.53l-.49.38-.27.2-1.52,1.15-1.8-1v-2.5l-1.65.52a13.31,13.31,0,0,1-.7-2.09A7.06,7.06,0,0,1,35.35,12l0,0c.12-.18.57-.28,1.33-.94h0l0,0c.1-.09.21-.18.32-.29h0l.31-.33h0a14.87,14.87,0,0,0,1.36-1.79,2.27,2.27,0,0,1,3-1.08c-.63-.39-2.1-1.67-2.2-5.36,0,0,1.06-.05,2.78,1.89a14.14,14.14,0,0,1,2.07,2.71l1.93,4S49,12,50.66,21.23A36.12,36.12,0,0,1,49.09,38.87Z"/><path class="cls-11" d="M44.7,25.74s-4.74,1.77-5,1.47c.5-.38,3.28-1.49,4.21-2.19s3.62-1.66.78-5c-.71-.58-1.53-1.24-3-2.53a5.48,5.48,0,0,1,4,2.46C47.54,22.4,47.18,23.84,44.7,25.74Z"/><path class="cls-13" d="M58,19.72C55.34,9,48.1,4.6,48.1,4.6L44.32,6.78a18.39,18.39,0,0,1,9.55,12.79,76.87,76.87,0,0,1,.39,21l1.86-1.19A31.52,31.52,0,0,0,58,19.72Z"/><path class="cls-3" d="M56.09,20.91A20.59,20.59,0,0,0,44.32,6.78l1.93,4s4,.76,5.77,10a36.09,36.09,0,0,1-1.58,17.64l3.82,2.2A31.52,31.52,0,0,0,56.09,20.91Z"/><path class="cls-14" d="M39.8,9.83c-.66.1-1.43.15-1.27.94,0,.15.23.17.55.21a1.06,1.06,0,0,0,.54-.08,1.4,1.4,0,0,0,.7-1l-.52-.11Z"/><path class="cls-10" d="M39.81,10.15l-.11.1v.08c0,.08-.07.18-.16.24a.57.57,0,0,0-.16.22h0a.44.44,0,0,0,.43-.21c.19-.29,0-.44,0-.44Z"/><path class="cls-15" d="M39.64,9.75a1.17,1.17,0,0,0-1.06.54,2.2,2.2,0,0,1,1.64-.15,2,2,0,0,1,.4.2A1.44,1.44,0,0,0,39.64,9.75Z"/><path class="cls-16" d="M57.66,36.52a3.64,3.64,0,0,1-.34,1.71,5,5,0,0,1-1.08,1.42,8.31,8.31,0,0,1-3.09,1.71,13.24,13.24,0,0,1-3.48.55,16.22,16.22,0,0,1-3.48-.32,26.79,26.79,0,0,0,3.47,0A14.83,14.83,0,0,0,53,41a8.44,8.44,0,0,0,3-1.56A4.24,4.24,0,0,0,57.66,36.52Z"/><path class="cls-4" d="M44.1,14.05a4,4,0,0,0-3-2.18C39,11.75,39,13,38.82,13.21S39.2,11.15,44.1,14.05Z"/><path class="cls-17" d="M44.85,4.45c-.4-.33-.79-.66-1.2-1a8.67,8.67,0,0,0-1.3-.79A5,5,0,0,0,41,2.22a2.27,2.27,0,0,0-1.38.13l.09-.15a8.42,8.42,0,0,0,.11,1.4A8.24,8.24,0,0,0,40.09,5a6.18,6.18,0,0,0,.59,1.28,5.74,5.74,0,0,0,.85,1.11l.31.32-.42-.1a2.76,2.76,0,0,0-1.34,0A2.05,2.05,0,0,0,39,8.35a2,2,0,0,1,.45-.55A2,2,0,0,1,40,7.44a2.71,2.71,0,0,1,1.44-.11l-.12.22a5.74,5.74,0,0,1-1-1.12,6.14,6.14,0,0,1-.65-1.34,7.78,7.78,0,0,1-.46-2.92V2.06l.09,0A2.47,2.47,0,0,1,41,1.87a4.47,4.47,0,0,1,1.47.58,7.16,7.16,0,0,1,1.27.91A11.32,11.32,0,0,1,44.85,4.45Z"/><path class="cls-13" d="M44.77,5.86a5.57,5.57,0,0,0-3.88-3.15c-.71-.18.1,1.8.82,2.75a3.83,3.83,0,0,0,1.86,1.39C43.81,6.88,45.28,6.66,44.77,5.86Z"/><path class="cls-13" d="M43.71.46s-.1.71,1,2.24,1.94,2.59,1.94,2.59a3,3,0,0,0,1.09-.12,1.1,1.1,0,0,0,.37-.57S46.61,1,43.71.46Z"/><path class="cls-16" d="M45.59,9.42C46,10.68,47,11.51,47.74,12.6A21.67,21.67,0,0,1,49.56,16a25,25,0,0,1,1.7,7.57,36.53,36.53,0,0,1-.35,7.75,50.87,50.87,0,0,1-1.82,7.52c.29-1.26.65-2.5.86-3.77.12-.63.27-1.25.36-1.89l.29-1.91a38.58,38.58,0,0,0,.25-7.67,25.88,25.88,0,0,0-1.58-7.48,21.56,21.56,0,0,0-1.7-3.44,18.6,18.6,0,0,0-1.11-1.57A4.91,4.91,0,0,1,45.59,9.42Z"/><path class="cls-17" d="M41.17,17.84l-.27.2-1.52,1.15-1.8-1v-2.5l-1.65.52a13.31,13.31,0,0,1-.7-2.09A7.06,7.06,0,0,1,35.35,12l0,0c.12-.18.57-.28,1.33-.94h0l0,0c.1-.09.21-.18.32-.29a5.58,5.58,0,0,0,.32,2.05,3.34,3.34,0,0,0,1.44,2.3A14.33,14.33,0,0,1,41.17,17.84Z"/><path class="cls-14" d="M36.09,11.88a2.65,2.65,0,0,0-.45.18.71.71,0,0,0-.22.44.52.52,0,0,0,.1.43.28.28,0,0,0,.26,0,.78.78,0,0,0,.32-.15c.29-.27.48-.61.38-.82s-.22-.13-.39-.1Z"/></g></g></g></svg>