<svg xmlns="http://www.w3.org/2000/svg" viewBox="0 0 44.09 42.55"><defs><style>.cls-1{isolation:isolate;}.cls-2{mix-blend-mode:multiply;}.cls-3{fill:#d7dce0;}.cls-4{fill:#1f1f1f;}.cls-5{fill:#171717;}.cls-6{fill:#1a1a1a;}.cls-7{fill:#5b5b5b;}.cls-8{fill:#141414;}.cls-9{fill:#191919;}.cls-10{fill:#242424;}.cls-11{fill:#1c1c1c;}</style></defs><g class="cls-1"><g id="Capa_2" data-name="Capa 2"><g id="layer"><g class="cls-2"><path class="cls-3" d="M40.93,34.11a3.33,3.33,0,0,0-.09-1,3.31,3.31,0,0,0-.48-.86c-.31-.43-.64-1-1-1.63A7.7,7.7,0,0,0,37.19,28c-1.19-.71-2.9.34-4-.23l0,0-.4-.21a6,6,0,0,0-1.51-.43,7.63,7.63,0,0,0-1.11-.09h-.88l-.32,0a77.76,77.76,0,0,1-8.66-3.77h0l.06-.08,0,0,.06-.09,0,0,.06-.1.05-.1a.25.25,0,0,0,0-.07v0l0,0,0-.06c0-.1.08-.17.1-.24l0,0v0h0a1.09,1.09,0,0,0,.07-.24l0-.07V22L21,22V21.9a.13.13,0,0,0,0-.06v0a.15.15,0,0,0,0-.07v-.23h0v-.1a.74.74,0,0,0,0-.19s0,0,0-.06v0h0a1.46,1.46,0,0,0-.07-.19s0,0,0-.05h0a2,2,0,0,0-.11-.21l0,0-.05-.07-.11-.15h0l0,0,0,0a2.32,2.32,0,0,0-.4-.35l-.07,0h0l-.16-.1,0,0-.14-.07-.05,0-.14-.07-.07,0-.07,0,0,0h0a1.57,1.57,0,0,0-.3-.12l-.47-.15-.08,0h-.05c-.28-.08-.74-.17-.9-.2A7.9,7.9,0,0,0,15.24,19l-.06-.13v0a.08.08,0,0,0,0,0c-.05-.1-.1-.2-.16-.3a2.33,2.33,0,0,0-.17-.26v0l0,0a5.49,5.49,0,0,0-.82-.82,7.25,7.25,0,0,0-1.5-.9,9.93,9.93,0,0,0-1.3-.47c-.26-.08-.63-.16-.91-.22a12.44,12.44,0,0,0-2.19-.23c-.54,0-.89,0-1.18,0s-.71.07-1,.11a10.49,10.49,0,0,0-1.41.29c-.37.1-.55.17-.72.22l-.62.24a8.06,8.06,0,0,0-1.61.94l.06-.05-.06.05,0,0,0,0,0,0,0,0-.17.15-.2.19-.08.09-.05.06L.81,18l-.12.14,0,.06h0l-.19.29h0s0,0,0,0l-.12.21,0,.06v0a1.53,1.53,0,0,0-.11.27h0v0c0,.08-.05.16-.07.23v.05a4.22,4.22,0,0,0-.06.42v.07a2.1,2.1,0,0,0,0,.27,2.22,2.22,0,0,0,.1.56v0h0c0,.09.07.19.11.28v0a1.58,1.58,0,0,0,.17.32v0c.06.1.13.19.19.28l0,0,0,0,.23.27h0v0a4.7,4.7,0,0,0,.55.5l.35.26,0,0,0,0,.35.22h0l0,0a4.83,4.83,0,0,0,.56.28,5.16,5.16,0,0,0,.49.21l.8.28c.25.08.62.17.9.23l.49.09h.06l.1,0,.2,0v.06l0,.29c0,.09,0,.22,0,.32l.07.28c0,.06.05.12.08.19a1.47,1.47,0,0,0,.1.22,4.86,4.86,0,0,0,.43.59l0,0,.06.08,0,0,0,0,0,0,.06.05a1.61,1.61,0,0,0,.34.29l.09.06.1.07,0,0h0a2.72,2.72,0,0,0,.46.25l.08,0,0,0,.09,0,.43.14.1,0,.08,0,.21,0h0l.07,0H9l.27.05a5.32,5.32,0,0,0,.56.06H10l.44,0a5.42,5.42,0,0,0,.57,0l.41,0h0a5.56,5.56,0,0,0,.68-.07l.11,0c.14,0,.4-.05.74-.12l.06,0,.11,0,.18,0,.1,0,.16,0h0a50,50,0,0,1,6.57,5,1.55,1.55,0,0,0,0,.21v0s0,0,0,.08a.43.43,0,0,0,0,.05.76.76,0,0,0,0,.15h0v0a.62.62,0,0,0,0,.13,1.9,1.9,0,0,0,0,.25,1.86,1.86,0,0,0,.14.48,2.24,2.24,0,0,0,.76.86,3.28,3.28,0,0,0,.31.2v1.29A2.14,2.14,0,0,0,21.64,37l0,0,0,0,.13.18,0,0v0l.08.1.21.22a4.45,4.45,0,0,0,.64.46l.29.16,0,0a4.67,4.67,0,0,0,.36.51,5,5,0,0,0,.48.43l.37.23,1.16.67a7.72,7.72,0,0,0,3.87.75h.59l.4,0h0l.33,0h.05l.54-.07c.25,0,.51-.08.77-.13l.12,0,.74-.16.14,0,.74-.19.09,0,.72-.22h.07c.24-.07.48-.16.71-.24l.14-.05.69-.27h0A27.49,27.49,0,0,0,40,37.42C41.22,36.68,40.91,35.56,40.93,34.11Z"/></g><path class="cls-4" d="M44,34.88c0-.12,0-.28-.08-.41v-.06a.19.19,0,0,0,0-.07.14.14,0,0,0,0-.06c0-.13-.09-.27-.13-.38l-.17-.35s0,0,0-.08a3.82,3.82,0,0,0-.09-1.09,2.54,2.54,0,0,0-.1-.37c-.06-.15-.14-.36-.21-.51,0,.09.06.18.1.27a4.42,4.42,0,0,0-1-1.51L41,29s0,0,0,0a3.16,3.16,0,0,0,0-.43,3.37,3.37,0,0,0-.45-1.31,3.17,3.17,0,0,0-.55-.74,4,4,0,0,0-.29-.29l0,0-.23-.2.12.12a3.3,3.3,0,0,0-.3-.22A55.16,55.16,0,0,1,38,17.05l.08,0,.22-.1.08,0,.21-.1.05,0,.13-.07.07,0,.31-.19h0l0,0h0a3.31,3.31,0,0,0,.35-.25h0l0,0,.08-.07.24-.21,0,0,.06-.06.09-.1.1-.1,0,0,0,0a2.62,2.62,0,0,0,.24-.3h0l.16-.24,0-.06v0a2.67,2.67,0,0,0,.21-.41h0l.07-.2,0,0s0,0,0-.05v-.05a2.91,2.91,0,0,0,.12-.61s0,0,0-.06v-.11a2.17,2.17,0,0,0,0-.26c0-.13,0-.23,0-.33v-.11a1.16,1.16,0,0,0,0-.18A3.88,3.88,0,0,0,41,11.9l0-.05,0-.06-.11-.28,0,0-.18-.39A3.87,3.87,0,0,0,39.47,9.7l.09-.14,0-.05.12-.24.12-.22c0-.07,0-.13.08-.19l.09-.2,0-.12.08-.2,0-.14s0,0,0,0a7,7,0,0,0,.23-.94,6.21,6.21,0,0,0,0-1.77,5.23,5.23,0,0,0-.28-1.23,5.33,5.33,0,0,0-.3-.75A6,6,0,0,0,38.8,2a6.18,6.18,0,0,0-.71-.66A7,7,0,0,0,37.4.9,6.36,6.36,0,0,0,36.3.38a5,5,0,0,0-.64-.2L35.07.07a6.68,6.68,0,0,0-2,0l.1,0h0l-.3.06-.3.08-.35.1-.26.1h-.05l-.4.17L31.07.8,31,.85h0L30.83,1l-.21.13-.13.09-.12.09-.09.06-.15.13-.25.21a.94.94,0,0,1-.1.1l-.06.06-.25.25c-.08.09-.26.3-.48.6l0,.06-.12.18-.09.15,0,.06c-.1.18-.15.27-.22.42a.05.05,0,0,0,0,0s0,0,0,.08-.09.2-.15.36l0,.09-.06.19-.06.18,0,.09c-.1.34-.14.62-.17.76s0,.31-.05.46V6a2.09,2.09,0,0,0,0,.25v.13a4.45,4.45,0,0,0,0,.57c0,.15,0,.35.07.49s.13.52.19.74.1.3.16.46h0v0c0,.09.08.19.12.27a1.4,1.4,0,0,0,.09.17l.12.26.08.12.05.1-.05,0-.31.28-.31.34-.24.31c-.1.16-.22.37-.3.53a1.14,1.14,0,0,0-.09.19l-.07.14a.36.36,0,0,1,0,.07c0,.09-.07.17-.1.25l0,.1v0a.08.08,0,0,0,0,0l0,.06c0,.05,0,.1-.05.17v0a.64.64,0,0,0,0,.07l0,.16h0l0,.22s0,0,0,0v.07A1.79,1.79,0,0,0,27,13v.1a.88.88,0,0,0,0,.23v.05a1.5,1.5,0,0,0,0,.2s0,.05,0,.08a.11.11,0,0,0,0,.05.37.37,0,0,0,0,.09v.11a.43.43,0,0,0,0,.05l.05.17,0,.06,0,.08.1.25,0,.05h0l0,0v0l.09.15a.47.47,0,0,0,0,.1s0,0,0,0a3,3,0,0,0,.22.32h0l0,0,.2.24,0,0h0l0,0a3.55,3.55,0,0,0,.34.33l.24.19.05.05.42.28.13.09.5.27L30,17l.12.05.14.05a56.22,56.22,0,0,1-1.19,8.87l-.25.16.07-.06-.1.09-.06.05-.32.29-.24.27a5.43,5.43,0,0,0-.39.56,3.52,3.52,0,0,0-.42,1.31,2.16,2.16,0,0,0,0,.36l-.09.1-.25.24-.12.13-.24.24-.24.25-.12.12L26,30.3a4.41,4.41,0,0,0-1,1.47c0-.07.05-.15.08-.22a2.83,2.83,0,0,0-.14.35v0a.69.69,0,0,0,0,.13,2,2,0,0,0-.1.35,4.44,4.44,0,0,0-.1.83c0,.1,0,.23,0,.33s0,0,0,.06a6.13,6.13,0,0,0-.3.72,4.06,4.06,0,0,0-.15.71,3.31,3.31,0,0,0,0,.45v1.34a4.16,4.16,0,0,0,1.48,3h0l0,0c.23.2.48.4.76.6l.07.06.42.26a10,10,0,0,0,1.43.71l.51.17a6.86,6.86,0,0,0,.8.28l.28.07.61.14.61.14v0A15.42,15.42,0,0,0,41,40.94c2-1.13,3.05-2.64,3.05-4.15V35.45A5.48,5.48,0,0,0,44,34.88Z"/><path class="cls-4" d="M27.51,31a12,12,0,0,1,3.27-1.21,16,16,0,0,1,3.6-.37,15.52,15.52,0,0,1,3.57.44l.69.19.65.22a5.9,5.9,0,0,1,.63.25,9.27,9.27,0,0,1,1.24.63c-.43-.26-1.5.31-1.57.35A11.65,11.65,0,0,0,29,31.37c-3,1.66-3.08,4.41-.22,6.14a11.68,11.68,0,0,0,10.6.1c3-1.66,3.09-4.41.22-6.13.07,0,1.14-.61,1.57-.35.15.1.37.23.52.34s.58.45.82.66a7.39,7.39,0,0,1,.75.85c.09.14.23.34.31.49s.27.61.36.87a2.62,2.62,0,0,1,.12.54,5.48,5.48,0,0,1,.05.57c0,1.51-1,3-3.05,4.16a15.45,15.45,0,0,1-14-.14c-1.84-1.11-2.75-2.53-2.75-4a3.31,3.31,0,0,1,0-.45,4.06,4.06,0,0,1,.15-.71,6.68,6.68,0,0,1,.37-.87,5.43,5.43,0,0,1,.32-.51,4.42,4.42,0,0,1,.39-.47c.23-.24.56-.54.82-.76A10.59,10.59,0,0,1,27.51,31Z"/><path class="cls-5" d="M41.16,31.13c.28.17.64.43.9.62l.44.38c.13.13.3.3.42.44l.33.41.31.49.21.43c0,.16.13.37.18.54l.09.44c0,.17,0,.4.05.57a3.78,3.78,0,0,1-.19,1.14h0c.07-.41.05-.49,0-.51s-.3.22-.4.34A10.58,10.58,0,0,1,38,39.72a25.43,25.43,0,0,1-6.63.74,2.77,2.77,0,0,0-.49.06s-.11.06-.12.11.09.12.51.34A12.32,12.32,0,0,1,27,39.47a7.77,7.77,0,0,1-1.28-1l.08.05c.1,0,.33.18.37.08s-.18-.32-.27-.44c-3-3.85-.06-6.24,1.34-7.09.25-.14.57-.31.82-.43l.65-.29.65-.24.69-.21.69-.17.71-.14.71-.11.73-.07.72,0h.73l.73,0,.72.06.72.09.71.12.69.15.69.19.65.22c.2.08.46.17.66.26l.6.28.61.34c-.43-.26-1.5.31-1.57.35A11.65,11.65,0,0,0,29,31.37c-3,1.66-3.08,4.41-.22,6.14a11.68,11.68,0,0,0,10.6.1c3-1.66,3.09-4.41.22-6.13.07,0,1.14-.61,1.57-.35Z"/><path class="cls-6" d="M41.22,12.63a4.4,4.4,0,0,0-.22-.84,7,7,0,0,0-.31-.72,4.24,4.24,0,0,0-1.64-1.66,10.64,10.64,0,0,0-9.66-.09,4.24,4.24,0,0,0-1.84,1.79,6.31,6.31,0,0,0-.35.84,3.43,3.43,0,0,0-.19.84,3,3,0,0,0,0,.94,3.16,3.16,0,0,0,.24.81,4.4,4.4,0,0,0,.44.73c.09.1.2.26.3.35s.44.41.63.57a6.69,6.69,0,0,0,1,.6,7.5,7.5,0,0,0,.91.4,9.71,9.71,0,0,0,1.95.48c.46.06.72.09,1,.1a9.61,9.61,0,0,0,1.52,0,10.35,10.35,0,0,0,2-.34,8,8,0,0,0,.95-.32,5.62,5.62,0,0,0,.9-.43,5.26,5.26,0,0,0,.8-.52,4.74,4.74,0,0,0,.65-.6,3.5,3.5,0,0,0,1-2.1A3.29,3.29,0,0,0,41.22,12.63Z"/><path class="cls-4" d="M40.18,31.24l0,0Zm0-.07,0,0Zm.05-.07,0,0Zm0-.07,0,0Zm.05-.07,0,0Zm0-.07,0-.05Zm0-.08,0,0Zm0-.07,0,0Zm0-.07,0-.05Zm0-.08,0-.05Zm0-.07,0-.07Zm0-.08a.64.64,0,0,0,0-.07A.64.64,0,0,1,40.62,30.44Zm0-.09v0Zm0-.08v0Zm0-.08v0Zm0-.07v0Zm0-.08v0Zm0-.07v0Zm0-.08v0Zm0-.07v0Zm1.57.44L41,29A3.15,3.15,0,0,1,40.83,30a3.89,3.89,0,0,1-.7,1.27h0v0l-.06.07h0v0a4.83,4.83,0,0,1-1.34,1.06,10.24,10.24,0,0,1-9.29-.09c-1.56-.94-2.12-2.22-1.7-3.41,0-.1-.05-.2-.07-.3l-.05.05-.12.12-.25.25-.24.24-.12.13-.24.24-.24.25-.12.12L26,30.3c-2,2-1.56,4.67,1.38,6.45a14.65,14.65,0,0,0,13.26.13C43.84,35.11,44.41,32.36,42.31,30.26Zm-2.18,1h0l0,0Zm.48-2.39v0Zm0,.08v0Zm0,.07,0,0Zm0,.07v0Zm0,.08v0Zm0,.07v0Zm0,.08v0Zm0,.07a.22.22,0,0,0,0,.08A.22.22,0,0,1,40.73,29.44Zm0,.1v0Zm0,.08v0Zm0,.08v0Z"/><path class="cls-7" d="M37.75,32.9a5.05,5.05,0,0,1-.55.18,8.86,8.86,0,0,1-1.58.34l.63,4.85a14.85,14.85,0,0,0,2.26-.49c.26-.08.52-.16.77-.26Z"/><path class="cls-8" d="M24.29,36.85V35.51c0,1.43.91,2.85,2.75,4a15.45,15.45,0,0,0,14,.14c2-1.14,3.05-2.65,3.05-4.16v1.34c0,1.51-1,3-3.05,4.15-3.94,2.2-10.21,2.14-14-.14C25.21,39.7,24.29,38.27,24.29,36.85Z"/><path class="cls-8" d="M27.58,37.53c-.25-.15-.56-.37-.79-.54a6.65,6.65,0,0,1-.67-.6l-.25-.27a4,4,0,0,1-.35-.46,3.93,3.93,0,0,1-.49-.91,4,4,0,0,1-.21-.68c0-.15-.05-.35-.07-.5s0-.23,0-.33a4.44,4.44,0,0,1,.1-.83,2,2,0,0,1,.1-.35,5.38,5.38,0,0,1,.2-.51c-.85,1.78-.1,3.77,2.27,5.2a14.65,14.65,0,0,0,13.26.13c2.58-1.44,3.43-3.52,2.54-5.38.07.15.15.36.21.51a2.54,2.54,0,0,1,.1.37,3.82,3.82,0,0,1,.09,1.09A4.28,4.28,0,0,1,43,35.33a5.88,5.88,0,0,1-1.58,1.72,9.56,9.56,0,0,1-1,.61c-.16.09-.36.2-.52.27s-.55.25-.79.34a14.77,14.77,0,0,1-10,0c-.32-.13-.74-.31-1.05-.46S27.74,37.63,27.58,37.53Z"/><path class="cls-4" d="M28.3,31.44a4,4,0,0,1-.79-1.36,3.24,3.24,0,0,1-.17-1.47,3.52,3.52,0,0,1,.42-1.31,5.43,5.43,0,0,1,.39-.56l.24-.27c.14-.13.33-.31.48-.43-1.83,1.46-1.65,3.51.58,4.84a10.17,10.17,0,0,0,9.24.1c2.39-1.34,2.66-3.46.76-5a6.64,6.64,0,0,1,.55.51,3.17,3.17,0,0,1,.55.74,3.23,3.23,0,0,1,.3,2.72,4.09,4.09,0,0,1-.8,1.43,4.85,4.85,0,0,1-1.33,1,10.24,10.24,0,0,1-9.29-.09A4.66,4.66,0,0,1,28.3,31.44Z"/><path class="cls-9" d="M38.88,25.62l-.58.46c2.19,1.32-5.14-1.09-3.51-1l.09-.6a9.77,9.77,0,0,0-5.24,1,4.44,4.44,0,0,0-1.54,1.32c-.93,1.34-.49,2.93,1.35,4a10.17,10.17,0,0,0,9.24.1C41.3,29.52,41.38,27.13,38.88,25.62Z"/><path class="cls-6" d="M37.68,7.39l-3.57.76,3.57-.76c1.9,1.14,1.83,3-.14,4.05a7.71,7.71,0,0,1-7-.07c-1.89-1.14-1.83-2.95.14-4A7.71,7.71,0,0,1,37.68,7.39Z"/><path class="cls-7" d="M39.09,40.29a8.75,8.75,0,0,1-3.79.64c.05,0,.1-.12.17-.14l.1,0,.7-.12s1.87-.37,2.6-.56c.57-.15.57-.15.75-.07l-.53.27Z"/><path class="cls-5" d="M31.29,41a14.43,14.43,0,0,1-1.51-.34A11.83,11.83,0,0,1,27,39.47l-.41-.27a7.82,7.82,0,0,1-.86-.68v1.33a6.83,6.83,0,0,0,.86.69l.42.26A11.08,11.08,0,0,0,29.79,42a14.26,14.26,0,0,0,1.5.35Z"/><path class="cls-5" d="M26.16,35.8l2.38-4.11a4.74,4.74,0,0,0,.58.47L27,36.46a6.82,6.82,0,0,1-.81-.66Z"/><path class="cls-5" d="M27,36.46l2.15-4.3.31.2a7.41,7.41,0,0,0,1.48.67L29.54,37.7a10.85,10.85,0,0,1-2.13-1L27,36.46Z"/><path class="cls-5" d="M29.54,37.7,30.91,33a11.32,11.32,0,0,0,1.18.3l-.87,4.8a12.91,12.91,0,0,1-1.68-.43Z"/><path class="cls-5" d="M29.43,32.36a4.62,4.62,0,0,1-1-.81l0,0a1.92,1.92,0,0,0,1-.17s0,0-.53-.89a3.66,3.66,0,0,0,.54.37,7.26,7.26,0,0,0,1.6.71c-.4.17-.55.24-.38.47a3.91,3.91,0,0,0,1.58,1.14,4.46,4.46,0,0,0,1.07.28l.11,0a9.08,9.08,0,0,1-4-1.14Z"/><path class="cls-4" d="M28.43,28.41a52.83,52.83,0,0,0,1.87-13.8,1.87,1.87,0,0,0,1.06,1.53,6,6,0,0,0,5.42.06A2,2,0,0,0,38,14.59,52.84,52.84,0,0,0,39.9,28.37a2.92,2.92,0,0,1-1.77,2.41A9,9,0,0,1,30,30.7,2.84,2.84,0,0,1,28.43,28.41Z"/><path class="cls-7" d="M34.35,31.71s.29-6.88.44-9.23,1.08-6,1.49-3.14S37.59,29,38.13,30.78A8,8,0,0,1,34.35,31.71Z"/><path class="cls-5" d="M33,17.64c-.19,8.36-.75,13.57-.77,13.79,0,0,0,.07,0,.09A7.1,7.1,0,0,1,30,30.7c-.18-.12-.35-.23-.5-.35h0a72.54,72.54,0,0,0,1.34-14.58,2.73,2.73,0,0,0,.49.37,4.77,4.77,0,0,0,1.64.58c0,.28,0,.64,0,.92Z"/><path class="cls-6" d="M29.19,16.56c-.15-.1-.36-.23-.5-.34L28.35,16a3.55,3.55,0,0,1-.34-.33,4.1,4.1,0,0,1-.52-.67,3.54,3.54,0,0,1-.34-.74A3.34,3.34,0,0,1,27,12.72a5.49,5.49,0,0,1,.54-1.61,2.38,2.38,0,0,0,0,2.2,4.24,4.24,0,0,0,1.61,1.6,10.64,10.64,0,0,0,9.66.09,4.37,4.37,0,0,0,1.82-1.73,2.41,2.41,0,0,0,0-2.2,7.06,7.06,0,0,1,.35.83,4,4,0,0,1,.19.77,3.18,3.18,0,0,1-.11,1.44,3.24,3.24,0,0,1-.33.75,3.38,3.38,0,0,1-.45.62,5.27,5.27,0,0,1-.66.63,6,6,0,0,1-.81.53,6.14,6.14,0,0,1-.9.44c-.42.17-.79.27-1,.33a11,11,0,0,1-2,.34l-.5,0H34l-.51,0a8.79,8.79,0,0,1-1-.1,9.43,9.43,0,0,1-1.94-.48A8.38,8.38,0,0,1,29.19,16.56Z"/><path class="cls-6" d="M27.58,13.31a2.38,2.38,0,0,1,0-2.2c.43-.9,1.58-.28,2.08-.44l-.08.21a1.53,1.53,0,0,0,.12,1.28c-.48.35-1.65.09-2.09,1.15Z"/><path class="cls-6" d="M27.55,11.11c.08-.16.2-.37.3-.53l.24-.31.31-.34.31-.28.13-.1.36-.26.4-.24L30,8.84l.44-.2.45-.16.46-.14.46-.12.48-.09.48-.07L33.27,8l.49,0h.49l.49,0,.49,0,.48.06.48.08.47.1.46.13.45.15.44.17.42.2.41.23c-.43-.26-1.16.51-1.43.35l-.27-.15-.28-.13-.29-.12L36.26,9l-.32-.09-.33-.07-.35-.06-.34,0-.35,0h-.71l-.35,0-.35,0-.27,0h0c-.64.12-2.58.49-3.32,1.9-.55.05-1.57-.43-2,.41Z"/><path class="cls-6" d="M40.67,13.27A4.37,4.37,0,0,1,38.85,15a10.64,10.64,0,0,1-9.66-.09,4.24,4.24,0,0,1-1.61-1.6c.44-1.06,1.61-.8,2.09-1.15l.09.14c.65.74,1.13.68,1.13.68a11.83,11.83,0,0,0-.94-2,3.32,3.32,0,0,0,.59.43,6.38,6.38,0,0,0,2.2.77l-.08.3a1.06,1.06,0,0,1-.54.76c-.07.05-.19.11-.21.19-.13.79,3.62,1.36,5.75-.11a2.15,2.15,0,0,0,.94-1.12l.14.07a7.48,7.48,0,0,1,1.33.37,1.32,1.32,0,0,1,.6.67Z"/><path class="cls-10" d="M27.58,13.31a2.38,2.38,0,0,1,0-2.2.74.74,0,0,1,.48-.44l-.12.27A2.55,2.55,0,0,0,28,12.75a1.24,1.24,0,0,0-.42.56Z"/><path class="cls-11" d="M29.42,15.61c-.24.43-1,.41-1.44,0l-.26-.3L27.49,15l-.17-.32a3.07,3.07,0,0,1-.17-.42l-.09-.34a3.85,3.85,0,0,1-.07-.49v-.33c0-.18,0-.42.07-.6l.07-.27a5.83,5.83,0,0,1,.42-1.07,2.38,2.38,0,0,0,0,2.2,4.24,4.24,0,0,0,1.61,1.6l.28.16,0,.26a.67.67,0,0,1-.08.28Z"/><path class="cls-11" d="M41.13,12.5a2.42,2.42,0,0,1,.11,1.09l-.07.34-.05.18-.12.34c-.06.12-.14.29-.21.41l-.2.32-.3.36-.29.29-.36.31-.37.26h0l0,0c-3.83,2.28-9.11,1.19-8.9-.66a1.42,1.42,0,0,1,.1-.29A10.87,10.87,0,0,0,38.85,15a4.37,4.37,0,0,0,1.82-1.73,2.38,2.38,0,0,0,.27-1.21l.09.19c0,.08.08.18.1.25Z"/><path class="cls-10" d="M29.19,14.91a4.24,4.24,0,0,1-1.61-1.6,1.24,1.24,0,0,1,.42-.56l.1.21a4.55,4.55,0,0,0,.29.55l.2.3c.17.24.37.44.54.68s.22.42.34.58l-.28-.16Z"/><path class="cls-10" d="M40.67,13.27A4.37,4.37,0,0,1,38.85,15a10.87,10.87,0,0,1-8.44.49l.29-.16a2.43,2.43,0,0,1,1-.17c2,.06,6.24.2,8.47-2.52a1.35,1.35,0,0,1,.53.63Z"/><path class="cls-7" d="M36.47,13.43a2.78,2.78,0,0,1-1.86.32,5.64,5.64,0,0,1,2.06-.45l-.2.13Z"/><path class="cls-10" d="M30.89,11.72A6.34,6.34,0,0,1,28.42,9a4.49,4.49,0,0,1-.29-.75c-.06-.22-.14-.51-.19-.74s-.05-.34-.07-.49a6.7,6.7,0,0,1,0-1.65,6,6,0,0,1,.55-1.75,6.09,6.09,0,0,1,1-1.51A6.44,6.44,0,0,1,31,.86,6.69,6.69,0,0,1,32.77.15a6.09,6.09,0,0,1,2.3-.08l.59.11a5,5,0,0,1,.64.2A6.36,6.36,0,0,1,37.4.9h0a7,7,0,0,1,.69.48A7.14,7.14,0,0,1,38.8,2a6,6,0,0,1,1,1.51,5.33,5.33,0,0,1,.3.75,5.23,5.23,0,0,1,.28,1.23,6.21,6.21,0,0,1,0,1.77,6.54,6.54,0,0,1-.55,1.75,6.17,6.17,0,0,1-1,1.5,6.44,6.44,0,0,1-1.49,1.21,6.09,6.09,0,0,1-1.81.71,6.4,6.4,0,0,1-2.3.09,5.13,5.13,0,0,1-.59-.12,5.88,5.88,0,0,1-.64-.19A7.33,7.33,0,0,1,30.89,11.72Z"/><path class="cls-5" d="M39.6,9.51a7.5,7.5,0,0,1-.77,1l-.31.32-.5.43-.34.24-.46.29-.33.17c-.12.05-.28.13-.4.17l-.32.12-.34.11-.3.07-.31.06-.28.05-.29,0h-.28a2.61,2.61,0,0,1-.28,0H33.8l-.28,0-.29,0-.29-.05-.3-.07-.32-.09-.32-.1-.36-.14L31.3,12l-.41-.23-.35-.23a6.3,6.3,0,0,1-.82-.68l-.31-.33c-.17-.2-.38-.47-.53-.69l-.25-.4-.34-.72-.16-.46c-.06-.22-.14-.51-.19-.74L27.87,7c0-.2,0-.45,0-.65V5.82a6.87,6.87,0,0,1,.26-1.34L28.27,4a5.12,5.12,0,0,1,.43-.9L29,2.73c.15-.2.36-.47.52-.66l.31-.31.5-.44.34-.24L31.07.8l.34-.18.4-.17.31-.12.35-.1.3-.08.3-.06.21,0-.16,0c-4.87,1-5.25,7.41-.61,10.45,2.64,1.73,6.56,1.09,7.66-2.33L40,8.66c-.11.26-.27.6-.41.85Z"/><path class="cls-7" d="M37.24,4.85A1.52,1.52,0,0,1,34.9,6.37,1.7,1.7,0,0,1,34.08,5,1.63,1.63,0,0,1,35,3.53a1.76,1.76,0,0,1,2.25,1.32Z"/><path class="cls-7" d="M37.15,15.94l-.09-.22a1.21,1.21,0,0,0-.19,0,8.85,8.85,0,0,0-.87.16,1.85,1.85,0,0,0-.29.13c0,.09-.09.21-.06.29s.29.23.42.23a7.53,7.53,0,0,0,.88-.24.54.54,0,0,0,.22-.3Z"/></g></g></g></svg>