<svg xmlns="http://www.w3.org/2000/svg" xmlns:xlink="http://www.w3.org/1999/xlink" viewBox="0 0 61.6 62.29"><defs><style>.cls-1{fill:#1f1f1f;}.cls-2{isolation:isolate;}.cls-3{fill:#d7dce0;mix-blend-mode:multiply;}.cls-4{fill:#191919;}.cls-5{fill:#141414;}.cls-6{clip-path:url(#clip-path);}.cls-7{fill:#1c1c1c;}.cls-8{fill:#5b5b5b;}.cls-9{fill:#8b8b8b;}.cls-10{fill:#242424;}.cls-11{fill:#292929;}.cls-12{fill:#171717;}.cls-13{fill:#979797;}.cls-14{fill:#3d3d3d;}</style><clipPath id="clip-path"><path class="cls-1" d="M44.18,47.29a3,3,0,0,1-.36-.6,3.61,3.61,0,0,1-.21-.65,3,3,0,0,1,0-1.19,3.37,3.37,0,0,1,.51-1.22,4.65,4.65,0,0,1,1.09-1.17c-1.8,1.43-1.63,3.45.56,4.76a10,10,0,0,0,9.09.1c2.35-1.32,2.61-3.41.74-4.89.15.12.35.29.49.43a5.72,5.72,0,0,1,.51.61,3.28,3.28,0,0,1,.35.58,3.68,3.68,0,0,1,.24.67,3.12,3.12,0,0,1,.09.73,3,3,0,0,1-.08.67,3.68,3.68,0,0,1-.24.65,2.85,2.85,0,0,1-.3.48,4.61,4.61,0,0,1-1.54,1.3,10.6,10.6,0,0,1-9.61-.1A4.58,4.58,0,0,1,44.18,47.29Z"/></clipPath></defs><g class="cls-2"><g id="Capa_2" data-name="Capa 2"><g id="layer"><path class="cls-3" d="M59.71,55.37c-.28-.43-.65-.79-1-1.21-.52-.71-.82-1.56-1.29-2.31A11.79,11.79,0,0,0,55,49.3c-.35-.3-.75-.7-1.17-1.12a8.85,8.85,0,0,0-2.77-2.13c-1-.36-2.24.54-3.34.26h0l-.07,0h-.07l-.3-.06h0l-.28,0h-.42l-.42,0h-.91l-.23,0h.06l-.33,0-.26-.09-.94-.33-1-.38L41.35,45l-1.19-.47L38.92,44l-1.23-.52-1.26-.57-1.15-.56-1.18-.63-1-.55c-.31-.19-.7-.46-1-.66L31.55,40a3,3,0,0,1-.3-.28,5.22,5.22,0,0,0,.64-.94,1.81,1.81,0,0,0-.46-2.5l-.71-.51.13.1a2.55,2.55,0,0,0-.47-.31,2.32,2.32,0,0,0-1.15-3l-.93-.54.05,0a8.74,8.74,0,0,0-5.3-.66,10.41,10.41,0,0,0-1.92,0,.29.29,0,0,1,0-.09l0-.13a2.64,2.64,0,0,1,0-.28v-.19a11,11,0,0,0-.17-2.55,3.25,3.25,0,0,0-.3-.82,1.81,1.81,0,0,0-.22-.35l0,0,0,0,0,0h0c-1-1.27-3.56-1.84-7-1.34a22.61,22.61,0,0,0-5.84,1.7,4.55,4.55,0,0,0-3.43.29c-.92.53-1.09,1.32-.52,1.95A10,10,0,0,0,.42,32.93c-1,2-.15,3.53,2,4.2l0,0h0l.08,0,.06,0h0l.06,0h0l.1,0-.09,0h0l.08,0,.06,0h0l0,0,0,0,.13,0h0l.15,0h0l.12,0h.14l.14,0,.28,0,.27,0,.27,0,.27,0,.28,0c.39,0,.81.05,1.24.06h4.05l.26,0h0a2.11,2.11,0,0,0,0,1.11,2.34,2.34,0,0,0,1.19,3.06l-.06,0,.93.53.34.18h0l.07,0,.11,0,.15.06.11,0,.16.05.11,0,.19,0,.11,0,.22,0h.08l.32.06h.08l.26,0h.12l.23,0h1.7l.25,0h.17l.29,0h0a4.73,4.73,0,0,0,.45.23l-.08,0,.89.4a7.41,7.41,0,0,0,4,.3q.36,0,.72-.12l.24,0,.45-.11.54-.14.14,0,.34.12.43.18.54.23.43.21.47.24.29.15.93.53.95.6.88.6.95.68a60.25,60.25,0,0,1,4.91,4.1l-.06.22v0a.15.15,0,0,1,0,.07s0,.06,0,.08,0,.07,0,.11v0h0v.07h0V52c0,.08,0,.17,0,.26l0,.07,0,.12h0l0,.08a1.91,1.91,0,0,0,.22.42v0l-.48,1.87a2.59,2.59,0,0,0,.26,2.1l0,0,0,0,.17.24,0,.05.18.19s0,0,0,.05l0,0,.06.05.05,0a4.59,4.59,0,0,0,.5.4h0l-.16-.11.12.09.18.11,0,0,.06,0,.1.06a9.1,9.1,0,0,0,1.85.79h.06l.18.06.1,0,.15,0a5.26,5.26,0,0,0,.75.71,2.65,2.65,0,0,0,.26.21l.53.34,1.16.66.4.2h0l.08,0,.12,0,.17.07.13.05.19,0,.13,0,.2.06.13,0,.26.06.09,0,.37.06h.09l.29,0h.15l.25,0h.17l.25,0H47l.27,0h.2l.29,0H48l.32,0,.17,0,.5-.06.52-.08.17,0,.35-.07.19,0,.33-.07.2,0,.12,0C52.77,60.82,61.55,58.32,59.71,55.37Z"/><path class="cls-1" d="M61.45,48.92a1.21,1.21,0,0,0-.05-.18v0l0-.06a4,4,0,0,0-.15-.45l-.1-.24s0,.07,0,.11a6.07,6.07,0,0,0-2-2.34L57,44.19v0s0,0,0-.06a.14.14,0,0,0,0-.06l0-.07,0,0-.06-.12-.06-.09s0,0,0-.08l0,0-.06-.09,0,0v0a3.15,3.15,0,0,0-.24-.3l-.06-.07L56.24,43l-.12-.13h0a.12.12,0,0,1-.05,0l-.1-.09h0l0-.05,0,0,0,0-.25-.21,0,0c-.06-.06-.14-.11-.21-.17l-.06-.25c-.07-.26-.15-.61-.21-.87l-.23-1c-.07-.33-.16-.77-.23-1.09L54.48,38c-.06-.37-.14-.86-.21-1.23l-.18-1.24c-.05-.4-.11-.92-.15-1.31l-.11-1.23c0-.4,0-.92-.06-1.31V30.51c0-.37.06-.86.09-1.24l.12-.84c0-.21.07-.32.11-.45a7.76,7.76,0,0,0,1.31-.58,3.84,3.84,0,0,0,2.23-2.78c0-.31.07-.61.11-.92a.19.19,0,0,0,0,.07,2.63,2.63,0,0,0,0-.49,4.55,4.55,0,0,0,2.29-3.63v-1a4.57,4.57,0,0,0-2.4-3.74,4.92,4.92,0,0,0-1.13-1.09l.07-.1.12-.15.27-.3.18-.18h0c.68-.66,1.23-1.25,1.69-1.76a5.28,5.28,0,0,0,1.6-2.08,4.49,4.49,0,0,0,.26-1.14,3.58,3.58,0,0,0-.22-1.85s0-.06,0-.09a.11.11,0,0,0,0,0,6.07,6.07,0,0,0-2.63-2.82,13.59,13.59,0,0,0-5.08-1.67,2.34,2.34,0,0,0-4.5,0,14.07,14.07,0,0,0-5.17,1.56C40.51,4.67,39.48,6.69,40,8.58v0s0,0,0,0v.05a1,1,0,0,1,.05.16l.09.22a2.56,2.56,0,0,0,.11.24l.11.22.12.2.12.2a1.88,1.88,0,0,1,.12.18l.14.19a2.2,2.2,0,0,0,.14.18l.14.19.16.19.17.21.13.14,0,0,0,0,.2.22.22.23.23.25.26.26.27.28.3.3.32.31c.16.15.27.28.4.42l.09.1.13.17,0,0A4.94,4.94,0,0,0,43,14.93a4.48,4.48,0,0,0-2.36,3.92c0-.08,0-.15,0-.23V19.7c0,.1,0,.21,0,.31v.09l0,0a3,3,0,0,0,.22.82l.06.14a4.26,4.26,0,0,0,.46.79l.1.12a5.53,5.53,0,0,0,.71.76l.1.08a7.74,7.74,0,0,0,.62.47,2.5,2.5,0,0,0,0,.47s0,0,0-.05l.11.92a3.73,3.73,0,0,0,2,2.64,8.65,8.65,0,0,0,1.1.54h0c.14.05.3.09.45.15l.11.47v0c.06.29.1.64.14,1l0,.45,0,.42c0,.29,0,.58,0,.88v.61L46.94,33l-.09,1.11-.13,1.23a71.09,71.09,0,0,1-1.28,7l-.33.24.11-.1-.21.17h0l-.06.06,0,0h0l-.09.08,0,.06a1.14,1.14,0,0,0-.11.11l0,.06a.27.27,0,0,0-.07.08l-.16.18-.07.09-.1.14h0l-.07.1-.2.34-.06.12v0h0v0l0,.07v0l-2.15,1.6a6,6,0,0,0-2,2.35.36.36,0,0,1,0-.11l-.12.27a1.07,1.07,0,0,1-.07.19c0,.08-.05.17-.08.27v0a.29.29,0,0,0,0,.09V48.8l0,.11a.29.29,0,0,0,0,.09,4.61,4.61,0,0,0-.11.71v-.05l0-.19,0,.15,0,.35v.3l0,.27c0,.05,0,.11,0,.16s0,.25.05.37,0,.15,0,.21l0,.23v0l.06.22h0l.06.23c0,.08.06.19.08.27l0,.12h0a7.37,7.37,0,0,0-.29,1.14c0,.11,0,.25,0,.36s0,.46,0,.65v1.34c0,.12,0,.24,0,.35v.11s0,0,0,.07a1.55,1.55,0,0,0,.05.23,3.38,3.38,0,0,0,.08.34l.09.24c0,.11.08.22.13.33l.12.23a3.37,3.37,0,0,0,.19.32l.15.23.24.31a2,2,0,0,0,.19.22l.31.32.21.2c.12.11.26.21.4.32l.2.16c.22.16.45.31.7.46a10.79,10.79,0,0,0,1.44.73v0a17.61,17.61,0,0,0,14.28-.55c2.28-1.27,3.43-3,3.42-4.66V54.48a6.78,6.78,0,0,0-.38-2.17,7.08,7.08,0,0,0,.39-1.84,4.5,4.5,0,0,0-.13-1.59Z"/><path class="cls-1" d="M39.33,54.54c0-.19,0-.45,0-.65s0-.25,0-.36a7.37,7.37,0,0,1,.29-1.14,7.89,7.89,0,0,1,1-2c-1.53,2.16-.83,4.73,2.14,6.52,4,2.41,10.67,2.48,14.85.15,3.22-1.8,4-4.48,2.44-6.73h0a8.38,8.38,0,0,1,1,2,6.74,6.74,0,0,1,.38,2.17c0,1.7-1.14,3.39-3.42,4.66-4.44,2.48-11.48,2.4-15.73-.15C40.36,57.74,39.33,56.14,39.33,54.54Z"/><path class="cls-4" d="M58.79,48.92c-.24-.18-.49-.35-.77-.52a10.65,10.65,0,0,0-1.66-.81,14.43,14.43,0,0,0-2.5-.72,16.71,16.71,0,0,0-3.1-.32,15.38,15.38,0,0,0-7.59,1.7c-2.59,1.44-3.63,3.46-3.1,5.37a4.27,4.27,0,0,0,.41,1,4.86,4.86,0,0,0,.72.95,7.9,7.9,0,0,0,1.66,1.32l.4.22a11.65,11.65,0,0,0,2.13.9,16.84,16.84,0,0,0,5.21.73A15.15,15.15,0,0,0,57.71,57a8.2,8.2,0,0,0,1.86-1.39A4.45,4.45,0,0,0,60.92,53,4.55,4.55,0,0,0,58.79,48.92Z"/><path class="cls-1" d="M41.66,45.83l3.4-2.53c-2.05,1.53-1.91,3.72.46,5.15a10.6,10.6,0,0,0,9.61.1c2.54-1.42,2.78-3.71.64-5.28h0l3.41,2.51c3.5,2.57,3.11,6.31-1,8.63-4.43,2.47-11.47,2.4-15.72-.16C38.53,51.92,38.31,48.32,41.66,45.83Z"/><path class="cls-5" d="M39.33,55.88V54.54c0,1.6,1,3.2,3.09,4.45,4.25,2.55,11.29,2.63,15.73.15,2.28-1.27,3.42-3,3.42-4.66v1.34c0,1.69-1.14,3.39-3.42,4.66-4.43,2.47-11.47,2.4-15.72-.16C40.36,59.08,39.33,57.48,39.33,55.88Z"/><g class="cls-2"><path class="cls-1" d="M44.18,47.29a3,3,0,0,1-.36-.6,3.61,3.61,0,0,1-.21-.65,3,3,0,0,1,0-1.19,3.37,3.37,0,0,1,.51-1.22,4.65,4.65,0,0,1,1.09-1.17c-1.8,1.43-1.63,3.45.56,4.76a10,10,0,0,0,9.09.1c2.35-1.32,2.61-3.41.74-4.89.15.12.35.29.49.43a5.72,5.72,0,0,1,.51.61,3.28,3.28,0,0,1,.35.58,3.68,3.68,0,0,1,.24.67,3.12,3.12,0,0,1,.09.73,3,3,0,0,1-.08.67,3.68,3.68,0,0,1-.24.65,2.85,2.85,0,0,1-.3.48,4.61,4.61,0,0,1-1.54,1.3,10.6,10.6,0,0,1-9.61-.1A4.58,4.58,0,0,1,44.18,47.29Z"/><g class="cls-6"><path class="cls-1" d="M44.18,47.29c-1.12-1.57-.73-3.37,1-4.83-1.8,1.43-1.63,3.45.56,4.76a10,10,0,0,0,9.09.1c2.35-1.32,2.61-3.41.74-4.89,2.52,2.1,1.59,4.06,1.08,4.8a4.71,4.71,0,0,1-1.56,1.32,10.6,10.6,0,0,1-9.61-.1,4.58,4.58,0,0,1-1.34-1.16Z"/><path class="cls-1" d="M56.24,43a4.53,4.53,0,0,1,.46.59l.14.22c0,.11.13.24.17.35l.09.22c0,.1.08.23.1.33l0,.22,0,.3v.21a2.83,2.83,0,0,1,0,.29l0,.19-.06.26,0,.18c0,.07-.06.17-.09.23l-.08.17-.11.21-.08.13a1.34,1.34,0,0,1-.11.14,4.61,4.61,0,0,1-1.54,1.3,10.6,10.6,0,0,1-9.61-.1,4.58,4.58,0,0,1-1.34-1.16l-.09-.13L44,47l-.09-.15-.1-.22-.07-.17c0-.07-.06-.17-.08-.24l0-.19c0-.08,0-.19,0-.26l0-.21a2.81,2.81,0,0,1,0-.29l0-.21a2.84,2.84,0,0,1,.06-.31l.06-.23a3,3,0,0,1,.12-.32l.11-.24.2-.34.16-.23c.09-.11.2-.25.3-.35l.21-.23c.13-.11.29-.26.42-.36-1.8,1.43-1.63,3.45.56,4.76a9.69,9.69,0,0,0,5.93,1.06l-.37.12c-.56.22-1.31.51-.86.75,1.18.62,4.79-.54,4.73-1.23,0-.24-.53-.19-1.45-.11a7.94,7.94,0,0,0,1.11-.49c2.35-1.32,2.61-3.41.74-4.89h0a5.77,5.77,0,0,1,.63.58Z"/><path class="cls-1" d="M56.24,43a4.53,4.53,0,0,1,.46.59l.14.22c0,.11.13.24.17.35l.09.22c0,.1.08.23.1.33l0,.22,0,.3v.21a2.83,2.83,0,0,1,0,.29l0,.19-.06.26,0,.18c0,.07-.06.17-.09.23l-.08.17-.11.21-.08.13a1.34,1.34,0,0,1-.11.14,4.61,4.61,0,0,1-1.54,1.3,10.6,10.6,0,0,1-9.61-.1,4.58,4.58,0,0,1-1.34-1.16l-.09-.13L44,47l-.09-.15-.1-.22-.07-.17c0-.07-.06-.17-.08-.24l0-.19c0-.08,0-.19,0-.26l0-.21a2.81,2.81,0,0,1,0-.29l0-.21a2.84,2.84,0,0,1,.06-.31l.06-.23a3,3,0,0,1,.12-.32l.11-.24.2-.34.16-.23c.09-.11.2-.25.3-.35l.21-.23.09-.08h0l.06,0c-1.52,1.41-1.26,3.29.82,4.54A9.38,9.38,0,0,0,51,48.34l-.27.11c-1.18.48-.7.7-.54.77C51.94,50,56,48.39,56,47.58c0-.28-.52-.22-1.36-.12l.28-.14c2.35-1.32,2.61-3.41.74-4.89l.25.21c.12.11.28.26.38.37Z"/><path class="cls-1" d="M56.24,43a4.53,4.53,0,0,1,.46.59l.14.22c0,.11.13.24.17.35l.09.22c0,.1.08.23.1.33l0,.22,0,.3v.21a2.83,2.83,0,0,1,0,.29l0,.19-.06.26,0,.18c0,.07-.06.17-.09.23l-.08.17-.11.21-.08.13a1.34,1.34,0,0,1-.11.14,4.61,4.61,0,0,1-1.54,1.3,10.6,10.6,0,0,1-9.61-.1,4.58,4.58,0,0,1-1.34-1.16l-.09-.13L44,47l-.09-.15-.1-.22-.07-.17c0-.07-.06-.17-.08-.24l0-.19c0-.08,0-.19,0-.26l0-.21a2.81,2.81,0,0,1,0-.29l0-.21a2.84,2.84,0,0,1,.06-.31l.06-.23a3,3,0,0,1,.12-.32l.11-.24.2-.34.07-.1h.08c-.67,1.25-.17,2.67,1.5,3.67a9.14,9.14,0,0,0,4.57,1.14l-.22.1c-.28.14-1.13.56-.19.87,2.85.93,7.27-1.61,6.59-2.47-.09-.11-.28-.08-1,0,1.71-1.31,1.75-3.13.07-4.45l.25.21c.12.11.28.26.38.37Z"/><path class="cls-1" d="M56.24,43a4.53,4.53,0,0,1,.46.59l.14.22c0,.11.13.24.17.35l.09.22c0,.1.08.23.1.33l0,.22,0,.3v.21a2.83,2.83,0,0,1,0,.29l0,.19-.06.26,0,.18c0,.07-.06.17-.09.23l-.08.17-.11.21-.08.13a1.34,1.34,0,0,1-.11.14,4.61,4.61,0,0,1-1.54,1.3,10.6,10.6,0,0,1-9.61-.1,4.58,4.58,0,0,1-1.34-1.16l-.09-.13L44,47l-.09-.15-.1-.22-.07-.17c0-.07-.06-.17-.08-.24l0-.19c0-.08,0-.19,0-.26l0-.21a2.81,2.81,0,0,1,0-.29l0-.21a2.84,2.84,0,0,1,.06-.31l.06-.23a3,3,0,0,1,.12-.32l0-.1v0c0,.08,0,.15.14.37a3.09,3.09,0,0,0,1.79,2.69,8.58,8.58,0,0,0,3.8,1.11l0,0c-.31.15-1.21.66-.13,1,3,1.08,8-1.68,7.54-3-.08-.23-.32-.22-.65-.21.91-1.2.68-2.62-.69-3.7l.25.21c.12.11.28.26.38.37Z"/><path class="cls-1" d="M45.52,48.45a4.58,4.58,0,0,1-1.34-1.16l-.09-.13L44,47l-.09-.15-.1-.22-.07-.17c0-.07-.06-.17-.08-.24l0-.19c0-.08,0-.19,0-.26l0-.21a2.81,2.81,0,0,1,0-.29l0-.21a2.84,2.84,0,0,1,.06-.31l0-.15,0,.09a.71.71,0,0,0,.43.62,3.58,3.58,0,0,0,1.69,1.9,8.18,8.18,0,0,0,2.79,1l-.14.1c-1.22,1.12,1.19,1.3,1.69,1.32s.68,0,.84,0a10,10,0,0,1-5.44-1.19Z"/><path class="cls-1" d="M45.52,48.45a4.58,4.58,0,0,1-1.34-1.16l-.09-.13L44,47l-.09-.15-.1-.22-.07-.17c0-.07-.06-.17-.08-.24l0-.19c0-.08,0-.19,0-.26l0-.21a2.81,2.81,0,0,1,0-.29v-.16c0,.55.43.74.81.81a4,4,0,0,0,1.4,1.29,7.05,7.05,0,0,0,1.63.71l-.09.11c-.54.8.1,1.33,1.9,1.55a8.93,8.93,0,0,1-3.7-1.14Z"/><path class="cls-1" d="M56.24,43a4.53,4.53,0,0,1,.46.59l.14.22c0,.11.13.24.17.35l.09.22c0,.1.08.23.1.33l0,.22,0,.3v.21a2.83,2.83,0,0,1,0,.29l0,.19-.06.26,0,.18c0,.07-.06.17-.09.23l-.08.17-.11.21-.08.13a1.34,1.34,0,0,1-.11.14,3.94,3.94,0,0,1-.52.58l0,0c.74-.71,1.57-2.16.53-2.4a2.6,2.6,0,0,0-1.1-3l.25.21c.12.11.28.26.38.37Z"/><path class="cls-1" d="M45.52,48.45a4.58,4.58,0,0,1-1.34-1.16l-.09-.13L44,47l-.09-.15-.1-.22-.07-.17c0-.07-.06-.17-.08-.24l0-.19c0-.08,0-.19,0-.26v0c.1.49.1.49,1.75,1.16l.17.12A1.38,1.38,0,0,1,46,48c0,.19.06.78,1.47,1.24l.12,0a8.05,8.05,0,0,1-2.1-.86Z"/><path class="cls-1" d="M56.24,43a4.53,4.53,0,0,1,.46.59l.14.22c0,.11.13.24.17.35l.09.22c0,.1.08.23.1.33l0,.22,0,.3v.21a2.83,2.83,0,0,1,0,.29v0c0-.66-.13-.89-.43-1.06a2.88,2.88,0,0,0-1.24-2.22l.25.21c.12.11.28.26.38.37Z"/><path class="cls-1" d="M56.24,43a4.53,4.53,0,0,1,.46.59l.14.22c0,.11.13.24.17.35l.09.22v0a3.42,3.42,0,0,0-.56-.91,3.28,3.28,0,0,0-.55-.72.57.57,0,0,0-.11-.11l.24.22.12.13Z"/><path class="cls-1" d="M54.69,48.2c-.28.73-3.91,1.45-4,.79-.07-.44,3.52-1.31,4-1a.18.18,0,0,1,0,.16Z"/><path class="cls-1" d="M54.26,48.38c-.37.58-3.18,1.1-3.26.6s2.93-1.08,3.26-.78a.12.12,0,0,1,0,.08.21.21,0,0,1,0,.1Z"/><path class="cls-1" d="M53.9,48.52c-.41.44-2.51.8-2.59.44s2.3-.89,2.61-.63c0,0,0,.05,0,.08s0,.08-.06.11Z"/><path class="cls-1" d="M53.48,48.65c-.43.33-1.75.48-1.81.28s1.7-.59,1.87-.47.06,0,.05.07-.07.09-.11.12Z"/><path class="cls-1" d="M52.81,48.82a1.18,1.18,0,0,1-.7,0,1.19,1.19,0,0,1,.48-.23,2.18,2.18,0,0,1,.44,0s.09,0,.13.06a3.73,3.73,0,0,1-.35.16Z"/></g></g><path class="cls-1" d="M45.78,42.07l.65.23a2.71,2.71,0,0,0-1.54,2.2l-.9.12a3.16,3.16,0,0,1,1.79-2.55Z"/><path class="cls-1" d="M44,44.62l.9-.12a2.54,2.54,0,0,0,1.23,2l-.7.45A2.93,2.93,0,0,1,44,44.62Z"/><path class="cls-1" d="M45.42,47l.7-.45.31.2a7.8,7.8,0,0,0,3.81,1l0,.65a9.08,9.08,0,0,1-4.43-1.14,3.17,3.17,0,0,1-.36-.23Z"/><path class="cls-1" d="M50.21,48.36l0-.65a8.14,8.14,0,0,0,4-.89c1.88-1,2.21-2.69.94-3.94l.78-.13c1.47,1.45,1.09,3.34-1.1,4.57a9.5,9.5,0,0,1-4.66,1Z"/><path class="cls-1" d="M56,42.75l-.78.13a3.79,3.79,0,0,0-.78-.59l.65-.24a5.19,5.19,0,0,1,.91.7Z"/><path class="cls-1" d="M42.72,55.87a6.73,6.73,0,0,1-3-3.32,5.43,5.43,0,0,1,0-4.48c-1,2.12-.13,4.48,2.69,6.18,4.25,2.56,11.29,2.63,15.72.16,3.07-1.71,4.08-4.19,3-6.4a4.74,4.74,0,0,1,.44,2.46,6.9,6.9,0,0,1-.91,3c-.43.76-1.56,2.2-4.41,3.31a17.48,17.48,0,0,1-11.62,0,13.11,13.11,0,0,1-1.92-.92Z"/><path class="cls-1" d="M55.87,44a1.29,1.29,0,0,0-.06-.21l-.11-.41c0-.17-.1-.4-.15-.58l-.18-.73c-.07-.26-.15-.61-.21-.87l-.23-1c-.07-.33-.16-.77-.23-1.09L54.48,38c-.06-.37-.14-.86-.21-1.23l-.18-1.24c-.05-.4-.11-.92-.15-1.31l-.11-1.23c0-.4,0-.92-.06-1.31V30.51c0-.37.06-.86.09-1.24l.12-.84a6.72,6.72,0,0,1,.28-1l.16-.36a.06.06,0,0,0,0,0c-.08,0-.17.11-.24.15l-.15.1a4,4,0,0,1-.51.25,8.6,8.6,0,0,1-6.31,0l-.31-.14-.25-.14a2.21,2.21,0,0,0-.35-.2v0a4.22,4.22,0,0,1,.32.87l.12.51c.06.34.12.8.17,1.14l.06.93c0,.38,0,.89,0,1.27L46.94,33l-.09,1.11-.13,1.23a74.9,74.9,0,0,1-1.78,9.08l0,.18a2.74,2.74,0,0,0,1.54,2.18,6.73,6.73,0,0,0,.71.36,9,9,0,0,0,6.57,0c.19-.08.37-.17.54-.26C55.61,46.05,56.16,45,55.87,44Z"/><path class="cls-4" d="M42.42,59a5.74,5.74,0,0,1-3.06-4l0,.06c.09.21.28.17.66.09.18,0,.35-.12.53-.15s.12.07.19,0h0a7.06,7.06,0,0,0,2.09,1.83q.35.21.72.39h0a1.86,1.86,0,0,1,0,.41,3.06,3.06,0,0,0,.22,1.89l.12.17A10.75,10.75,0,0,1,42.42,59Z"/><path class="cls-7" d="M40.05,52.11l4-5a4.45,4.45,0,0,0,1.45,1.31,7.47,7.47,0,0,0,1.75.76l-2,6.28a12.38,12.38,0,0,1-2.87-1.24,7.42,7.42,0,0,1-2.36-2.14Z"/><path class="cls-8" d="M54.63,48.8a7.69,7.69,0,0,1-1.11.41,8.69,8.69,0,0,1-1.27.29L53.43,56a15.56,15.56,0,0,0,2.07-.47,14.55,14.55,0,0,0,1.82-.68Z"/><path class="cls-4" d="M39.36,56.34V55a5.78,5.78,0,0,0,3.07,4,12.27,12.27,0,0,0,1.45.73v1.33a10.79,10.79,0,0,1-1.44-.73,5.71,5.71,0,0,1-3.07-4Z"/><path class="cls-7" d="M45.52,48.45a4.58,4.58,0,0,1-1.34-1.16l-.09-.13L44,47l-.09-.15-.1-.22-.07-.17c0-.07-.06-.17-.08-.24l0-.19c0-.08,0-.19,0-.26l0-.21a2.81,2.81,0,0,1,0-.29v-.16c0,.55.43.74.81.81a4,4,0,0,0,1.4,1.29,7.05,7.05,0,0,0,1.63.71l-.09.11c-.54.8.1,1.33,1.9,1.55a8.93,8.93,0,0,1-3.7-1.14Z"/><path class="cls-9" d="M53.48,48.65c-.43.33-1.75.48-1.81.28s1.7-.59,1.87-.47.06,0,.05.07-.07.09-.11.12Z"/><path class="cls-7" d="M57.84,56a10.67,10.67,0,0,1-1.58.73,17.48,17.48,0,0,1-11.62,0L44,56.5c-.37-.18-.87-.43-1.23-.63l-.55-.36A7.07,7.07,0,0,1,40.54,54l-.23-.33c-.1-.16-.23-.38-.31-.54l-.13-.27-.14-.33-.09-.24c0-.08-.06-.19-.08-.27l-.06-.23a2.27,2.27,0,0,1-.06-.25l0-.23c0-.07,0-.17,0-.24l0-.24c0-.08,0-.18,0-.26l0-.27V50l0-.35,0-.15,0,.19a3.15,3.15,0,0,0,.08.8,5.87,5.87,0,0,0,3,3.79A12.29,12.29,0,0,0,45,55.41h0c2.24,2.17,2.33,2.26,5,2.32a14.91,14.91,0,0,0,8.33-2l-.46.27Z"/><path class="cls-4" d="M48.37,32.64c-.12,4.83-1,9.58-1.43,14.37a4.11,4.11,0,0,1-.51-.27,3.19,3.19,0,0,1-1.4-1.5l0-.18c1.47-6.35,2.08-11.23,1.88-14.91l-.08-.91-.13-.78L46.63,28a4.22,4.22,0,0,0-.32-.87v0a2.21,2.21,0,0,1,.35.2l.25.14.31.14c.84.35,1.14,2.43,1.16,5.1Z"/><path class="cls-8" d="M50.64,47.71s.07-15.38.77-16.73,1.33-1.12,1.74,4.07A100.23,100.23,0,0,0,54.9,46.38S53.86,47.49,50.64,47.71Z"/><path class="cls-8" d="M56.14,57.75a14.71,14.71,0,0,1-2.26.69c-.86.15-2.57.34-2.57.34a.58.58,0,0,0-.15.6c.11.37,1,1.1,2.89.73s2.33-1.43,2.39-1.8A.56.56,0,0,0,56.14,57.75Z"/><path class="cls-8" d="M57.93,54.5s-.81,1-3.4,1.61a10.09,10.09,0,0,1-4.25.2S54.91,56.38,57.93,54.5Z"/><path class="cls-1" d="M57.34,14.69l-1.57.4A11.68,11.68,0,0,0,45.14,15c-3,1.67-3.1,4.43-.22,6.16a11.68,11.68,0,0,0,10.63.1c3-1.67,3.1-4.43.22-6.16l1.57-.4c3.71,2.24,3.58,5.79-.28,8s-10,2.09-13.71-.14-3.59-5.79.28-7.94S53.63,12.46,57.34,14.69Z"/><path class="cls-1" d="M43.08,24.66c0-.3-.07-.61-.11-.92a3.81,3.81,0,0,0,2,2.68,11.53,11.53,0,0,0,10.47.1,3.93,3.93,0,0,0,2.27-2.82h0c0,.31-.07.61-.11.92a3.86,3.86,0,0,1-2.23,2.78,11.37,11.37,0,0,1-10.32-.1A3.73,3.73,0,0,1,43.08,24.66Z"/><path class="cls-10" d="M56.06,13.5l-1.44-.12a9.25,9.25,0,0,0-8.4-.09c-2.37,1.32-2.44,3.5-.17,4.87a9.25,9.25,0,0,0,8.4.08c2.37-1.32,2.45-3.5.17-4.86l1.44.12c3,1.83,2.93,4.73-.23,6.5a12.36,12.36,0,0,1-11.22-.12c-3-1.82-2.93-4.73.24-6.49A12.31,12.31,0,0,1,56.06,13.5Z"/><path class="cls-4" d="M42.93,18.87c-.14-.46-.27-.92-.41-1.38a4.37,4.37,0,0,0,2.09,2.39A12.36,12.36,0,0,0,55.83,20a4.58,4.58,0,0,0,2.33-2.56h0l-.4,1.39a4.33,4.33,0,0,1-2.21,2.42,11.68,11.68,0,0,1-10.63-.1A4.12,4.12,0,0,1,42.93,18.87Z"/><path class="cls-4" d="M44.43,16.15c-.08-.44-.16-.87-.25-1.31a3.31,3.31,0,0,0,1.69,2.09,9.65,9.65,0,0,0,8.74.09,3.35,3.35,0,0,0,1.87-2.22l-.23,1.32a3.22,3.22,0,0,1-1.8,2.12,9.25,9.25,0,0,1-8.4-.08A3.11,3.11,0,0,1,44.43,16.15Z"/><path class="cls-1" d="M43.26,7.92a5.22,5.22,0,0,0,1.48,1.26,12,12,0,0,0,10.92.11,5.31,5.31,0,0,0,1.7-1.41l-1.49,2a4.41,4.41,0,0,1-1.35,1.11,9.46,9.46,0,0,1-8.59-.09,4.13,4.13,0,0,1-1.16-1Z"/><path class="cls-10" d="M57.84,3.38C53.85,1,47.25.91,43.09,3.23s-4.29,6.15-.31,8.55,10.6,2.47,14.76.15S61.83,5.78,57.84,3.38Z"/><path class="cls-11" d="M56.34,8.86h0a5.32,5.32,0,0,1-.66.42,12,12,0,0,1-7.24,1.12c-.28,0-.57-.09-.84-.15a9.17,9.17,0,0,1-2.85-1.08l-.44-.29h0c-2.49-1.78-2.24-4.41.67-6A12,12,0,0,1,55.88,3C58.6,4.6,58.73,7.13,56.34,8.86Z"/><path class="cls-1" d="M56.34,8.86c-.21.15-.44.29-.68.43a12,12,0,0,1-10.93-.11l-.44-.29a2.14,2.14,0,0,1,.1-1.27,7.49,7.49,0,0,1,1.27-2,6.66,6.66,0,0,1,1.77-1.45c.19-.1.45-.23.64-.31a5.81,5.81,0,0,1,.68-.24,6.28,6.28,0,0,1,.84-.16,7,7,0,0,1,.78,0A5.65,5.65,0,0,1,52,3.62a5.85,5.85,0,0,1,1.25.54l.12.07.34.22c.14.1.33.24.46.35a6.18,6.18,0,0,1,.78.76,7.93,7.93,0,0,1,.74,1,6.3,6.3,0,0,1,.53,1A2.06,2.06,0,0,1,56.34,8.86Z"/><path class="cls-4" d="M57.54,11.93a12.47,12.47,0,0,1-1.78.79h0c-4.09,1.45-9.51,1.13-13-1A6.18,6.18,0,0,1,40.16,9,6,6,0,0,0,41,10.45,26.86,26.86,0,0,0,43.5,13.1h0c.15.15.28.28.4.42l.09.1.13.17.09.12,0,0a2.55,2.55,0,0,0-.07.32v.21A2.51,2.51,0,0,0,45,16.28a4.5,4.5,0,0,0,.66.53l.19.12.36.2.35.16.18.08h0a6.61,6.61,0,0,0,.67.24h0a9.31,9.31,0,0,0,1.7.35l.29,0-.1,0A10.6,10.6,0,0,0,51,18h.13l.45,0,.23,0,.24,0,.4-.07.17,0,.36-.1.11,0,.44-.14.11,0c.15-.06.29-.11.43-.18l.08,0a3.42,3.42,0,0,0,.43-.21,4.58,4.58,0,0,0,.49-.31l.14-.1a4.47,4.47,0,0,0,.4-.34h0a2.42,2.42,0,0,0,.78-2.37l0,0,.11-.15.12-.15.27-.3.18-.18h0a26.12,26.12,0,0,0,2.46-2.68,6.94,6.94,0,0,0,.65-1c.12-.22.19-.41.22-.47s0-.1.05-.15A6.21,6.21,0,0,1,57.54,11.93Z"/><path class="cls-1" d="M40.16,9A3.81,3.81,0,0,1,40,8.56,3.81,3.81,0,0,0,40.16,9Z"/><path class="cls-1" d="M60.53,8.78a1.09,1.09,0,0,0,0-.17A1.09,1.09,0,0,1,60.53,8.78Z"/><path class="cls-1" d="M60.58,8.61a.76.76,0,0,0,0-.11A.36.36,0,0,1,60.58,8.61Z"/><path class="cls-1" d="M43.28,22.19l.55-1c-.7,1.33.73.52,2.51,1.59a8.11,8.11,0,0,0,8.34.24c1.93-1.08,2.94-.49,2.2-1.87h0l.55,1c.8,1.5.15,3.2-2,4.37A11.53,11.53,0,0,1,45,26.42C43.09,25.26,42.52,23.63,43.28,22.19Z"/><path class="cls-4" d="M40.65,19.7V18.62c0,1.4.9,2.8,2.7,3.88,3.7,2.23,9.84,2.29,13.71.14,2-1.11,3-2.59,3-4.07v1.08c0,1.48-1,3-3,4.06a15.09,15.09,0,0,1-13.71-.13C41.55,22.49,40.65,21.1,40.65,19.7Z"/><path class="cls-4" d="M43,22.85l-.17-.39-.17-.39a4.74,4.74,0,0,0,2,2.06,12.31,12.31,0,0,0,11.21.11A4.83,4.83,0,0,0,58.05,22h0l-.33.78a4.68,4.68,0,0,1-2.12,2.12,11.84,11.84,0,0,1-10.72-.11A4.43,4.43,0,0,1,43,22.85Z"/><path class="cls-1" d="M43.08,24.66c0-.3-.07-.61-.11-.92a3.81,3.81,0,0,0,2,2.68,11.53,11.53,0,0,0,10.47.1,3.93,3.93,0,0,0,2.27-2.82h0c0,.31-.07.61-.11.92a3.86,3.86,0,0,1-2.23,2.78,11.37,11.37,0,0,1-10.32-.1A3.73,3.73,0,0,1,43.08,24.66Z"/><path class="cls-4" d="M43.36,24.86l.55-1.25A4.31,4.31,0,0,0,45.43,25a5.21,5.21,0,0,0,.52.28l-.37,1.4c-.2-.09-.38-.2-.57-.3a4.8,4.8,0,0,1-1.65-1.56Z"/><path class="cls-8" d="M53.61,25.77l-.36.1a9.63,9.63,0,0,1-1.34.27L52,27.61a13.47,13.47,0,0,0,1.46-.29l.39-.12Z"/><path class="cls-4" d="M43.08,24.66,43,23.74a3.81,3.81,0,0,0,2,2.68,8.14,8.14,0,0,0,1.11.54l.07.88a8.65,8.65,0,0,1-1.1-.54,3.73,3.73,0,0,1-2-2.64Z"/><path class="cls-5" d="M42.93,18.87l-.41-1.38a4.37,4.37,0,0,0,2.09,2.39,8.27,8.27,0,0,0,1.5.71l.23,1.23a8.45,8.45,0,0,1-1.42-.67,4.12,4.12,0,0,1-2-2.28Z"/><path class="cls-5" d="M44.43,16.15l-.25-1.31a3.31,3.31,0,0,0,1.69,2.09,6.3,6.3,0,0,0,1,.49L47,18.63a5.81,5.81,0,0,1-1-.47,3.11,3.11,0,0,1-1.62-2Z"/><path class="cls-5" d="M40.67,20.1V19a5,5,0,0,0,2.68,3.47,9.29,9.29,0,0,0,1.26.64v1.07a9.87,9.87,0,0,1-1.26-.63,5,5,0,0,1-2.68-3.48Z"/><path class="cls-5" d="M47.65,15.32s-.7,2.92-2.58.89c.15-.26.42-1.18-1.57-3.11a6.08,6.08,0,0,0,1.1.83,9.74,9.74,0,0,0,3,1.14v.25Z"/><path class="cls-8" d="M54,17.2a5.68,5.68,0,0,1-3.32.61A17.27,17.27,0,0,1,54.13,17a1.37,1.37,0,0,1-.17.17Z"/><path class="cls-5" d="M47.65,15.07a9.74,9.74,0,0,1-3-1.14,6.08,6.08,0,0,1-1.1-.83l-.32-.31-.3-.3-.27-.28L42.35,12l-.23-.25-.22-.23-.2-.22L41.51,11l-.17-.21-.16-.19L41,10.45a2.2,2.2,0,0,1-.14-.18l-.14-.19a1.88,1.88,0,0,0-.12-.18l-.12-.2-.12-.2-.11-.22A2.56,2.56,0,0,1,40.18,9l-.09-.22c0-.08-.06-.18-.08-.26a5.75,5.75,0,0,0,2.77,3.22,11.45,11.45,0,0,0,1.9.9l.12.05a5.1,5.1,0,0,1,2.85,2.34Z"/><path class="cls-1" d="M56.34,8.86a.06.06,0,0,1,0,0,0,0,0,0,0,0,0v0c-1.38-3.46-5.51-4-7.4.13a7.79,7.79,0,0,0-.5,1.43c-.28,0-.57-.09-.84-.15a9.17,9.17,0,0,1-2.85-1.08l-.44-.29h0v0a.29.29,0,0,1,0-.09.13.13,0,0,1,0-.06.11.11,0,0,1,0-.05,2,2,0,0,1,0-.65h0c.48-.69.84-1.18,3.47-2,2.31-.69,3.27-1,3.59-2a2.46,2.46,0,0,1,2,.2,7.68,7.68,0,0,1,.8.57l.32.28.46.48.25.3.3.4.19.29.18.31L56,7.1l.11.23.07.15s0,.07,0,.11A2.06,2.06,0,0,1,56.34,8.86Z"/><path class="cls-7" d="M48.39,8.06a17.62,17.62,0,0,0-.81,2.2,9.17,9.17,0,0,1-2.85-1.08l-.44-.29v0a.29.29,0,0,1,0-.09.13.13,0,0,1,0-.06V8.66h0a6.06,6.06,0,0,1,2.4-1.77c1-.39,2-.38,2.07,0S48.69,7.39,48.39,8.06Z"/><path class="cls-8" d="M46.07,2.34l-.44.18c-.17.08-.35.16-.51.25L45,2.85c-.2.12-.39.23-.57.36l1.27,2.94a4.92,4.92,0,0,1,.45-.28l.12-.06.41-.2L47,5.47l.33-.12-.82-3.16Z"/><path class="cls-4" d="M57.85,5.1a3.16,3.16,0,0,0-.49-.87A5.22,5.22,0,0,0,55.88,3L54.7,6a4.15,4.15,0,0,1,1.16,1,2.42,2.42,0,0,1,.39.69,2,2,0,0,1,.14.67L58,6A2.59,2.59,0,0,0,57.85,5.1Z"/><path class="cls-4" d="M48.46,4.47l.48-1c-.15.31,0,.66.39.91a2.5,2.5,0,0,0,2.29,0c.45-.26.6-.62.43-1l.5,1c.22.43,0,.91-.57,1.24a3.32,3.32,0,0,1-3,0C48.42,5.34,48.25,4.88,48.46,4.47Z"/><path class="cls-12" d="M52.86,2.36A2.36,2.36,0,1,1,50.5,0,2.36,2.36,0,0,1,52.86,2.36Z"/><circle class="cls-10" cx="50.75" cy="2.11" r="1.96"/><path class="cls-13" d="M51.86,1.77a.64.64,0,1,1-.64-.63A.64.64,0,0,1,51.86,1.77Z"/><path class="cls-8" d="M53.46,8.76a1.89,1.89,0,0,0-1.69-.51c-.94.25-1.27,1.22-1.45,1.6s3.54-.12,3.62-.56A2.42,2.42,0,0,0,53.46,8.76Z"/><path class="cls-14" d="M60.46,6.15a4.3,4.3,0,0,1,0,3.08,5.55,5.55,0,0,1-2,2.41A10.8,10.8,0,0,1,55.58,13a20.13,20.13,0,0,1-3,.71,15.1,15.1,0,0,1-6.24-.38,12.33,12.33,0,0,1-5.39-3.05A13.54,13.54,0,0,0,46.37,13a15.67,15.67,0,0,0,6.1.28,15,15,0,0,0,5.78-1.93,5.29,5.29,0,0,0,2-2.22A4.3,4.3,0,0,0,60.46,6.15Z"/></g></g></g></svg>