<svg xmlns="http://www.w3.org/2000/svg" xmlns:xlink="http://www.w3.org/1999/xlink" viewBox="0 0 22.33 62.29"><defs><style>.cls-1{fill:#1f1f1f;}.cls-2{fill:#191919;}.cls-3{fill:#141414;}.cls-4{isolation:isolate;}.cls-5{clip-path:url(#clip-path);}.cls-6{fill:#1c1c1c;}.cls-7{fill:#5b5b5b;}.cls-8{fill:#8b8b8b;}.cls-9{fill:#242424;}.cls-10{fill:#292929;}.cls-11{fill:#171717;}.cls-12{fill:#979797;}.cls-13{fill:#3d3d3d;}</style><clipPath id="clip-path"><path class="cls-1" d="M4.91,47.29a4.47,4.47,0,0,1-.36-.6A3.61,3.61,0,0,1,4.34,46a3,3,0,0,1,0-1.19,3.56,3.56,0,0,1,.51-1.22A4.65,4.65,0,0,1,6,42.46c-1.8,1.43-1.63,3.45.56,4.76a10,10,0,0,0,9.09.1c2.35-1.32,2.62-3.41.74-4.89.15.12.35.29.49.43a4,4,0,0,1,.51.61,3.28,3.28,0,0,1,.35.58,3.68,3.68,0,0,1,.24.67,2.66,2.66,0,0,1,.09.73,2.92,2.92,0,0,1-.32,1.32,2.49,2.49,0,0,1-.29.48,4.76,4.76,0,0,1-1.55,1.3,10.6,10.6,0,0,1-9.61-.1A4.58,4.58,0,0,1,4.91,47.29Z"/></clipPath></defs><g id="Capa_2" data-name="Capa 2"><g id="layer"><path class="cls-1" d="M22.18,48.92c0-.06,0-.12,0-.18v0c-.05-.15-.1-.3-.16-.45l-.1-.24s0,.07,0,.11a6.12,6.12,0,0,0-2-2.34l-2.16-1.59v0l0-.06,0-.06,0-.07,0,0-.06-.12-.05-.09-.05-.08,0,0-.05-.09,0,0v0a3.15,3.15,0,0,0-.24-.3L17,43.08,17,43l-.13-.13h0l0,0-.1-.09h0l-.05-.05,0,0,0,0-.25-.21,0,0-.22-.17-.06-.25c-.07-.26-.15-.61-.21-.87l-.22-1c-.08-.33-.16-.77-.23-1.09L15.22,38c-.07-.37-.15-.86-.22-1.23l-.18-1.24c-.05-.4-.11-.92-.15-1.31l-.11-1.23c0-.4,0-.92-.05-1.31V30.51c0-.37.06-.86.09-1.24l.12-.84c0-.21.07-.32.11-.45a8.24,8.24,0,0,0,1.32-.58,3.89,3.89,0,0,0,2.23-2.78c0-.31.07-.61.1-.92,0,0,0,.05,0,.07a2.63,2.63,0,0,0,0-.49,4.53,4.53,0,0,0,2.29-3.63v-1a4.57,4.57,0,0,0-2.4-3.74,4.92,4.92,0,0,0-1.13-1.09l.08-.1.11-.15.27-.3.18-.18h0c.68-.66,1.23-1.25,1.69-1.76a5.1,5.1,0,0,0,1.6-2.08,4.49,4.49,0,0,0,.26-1.14,3.68,3.68,0,0,0-.21-1.85.32.32,0,0,1,0-.09.11.11,0,0,0,0,0,6.07,6.07,0,0,0-2.63-2.82,13.53,13.53,0,0,0-5.08-1.67,2.34,2.34,0,0,0-4.5,0A14.07,14.07,0,0,0,3.82,3.23C1.24,4.67.22,6.69.75,8.58v0s0,0,0,0v.05l.06.16L.91,9,1,9.28l.11.22.12.2.12.2.13.18.13.19.14.18.15.19a1.46,1.46,0,0,0,.16.19l.17.21.12.14,0,0,0,0,.2.22.22.23.23.25.26.26.28.28.29.3.33.31c.15.15.26.28.39.42l.09.1a1.92,1.92,0,0,1,.13.17l0,0a4.94,4.94,0,0,0-1.13,1.1C2.08,16,1.3,17.45,1.4,18.85a1.79,1.79,0,0,1,0-.23V19.7c0,.1,0,.21,0,.31v.09s0,0,0,0a3.44,3.44,0,0,0,.22.82l.06.14a4.26,4.26,0,0,0,.46.79l.1.12a5.53,5.53,0,0,0,.71.76l.11.08a6.12,6.12,0,0,0,.61.47,2.5,2.5,0,0,0,0,.47s0,0,0-.05l.11.92a3.72,3.72,0,0,0,2,2.64,7.9,7.9,0,0,0,1.09.54h0l.45.15.11.47v0c0,.29.1.64.14,1l0,.45,0,.42c0,.29,0,.58,0,.88v.61l0,1.16-.09,1.11L7.45,35.3a68.28,68.28,0,0,1-1.28,7l-.33.24.11-.1-.21.17h0l-.06.06,0,0h0l-.08.08-.06.06-.1.11-.06.06-.07.08-.15.18L5,43.4l-.1.14h0l-.07.1-.2.34,0,.12,0,0h0v0l0,.07v0l-2.15,1.6a6,6,0,0,0-2,2.35s0-.08,0-.11l-.12.27-.06.19-.09.27a0,0,0,0,0,0,0,.29.29,0,0,1,0,.09V48.8l0,.11a.29.29,0,0,1,0,.09,6.27,6.27,0,0,0-.11.71v-.05l0-.19,0,.15L0,50v.3l0,.27a.88.88,0,0,0,0,.16c0,.12,0,.25,0,.37l0,.21.05.23v0a2.25,2.25,0,0,0,.05.22h0L.29,52l.09.27,0,.12h0a7,7,0,0,0-.28,1.14c0,.11,0,.25-.05.36s0,.46,0,.65v1.34c0,.12,0,.24,0,.35v.11a.14.14,0,0,0,0,.07c0,.08,0,.16,0,.23A3.38,3.38,0,0,0,.23,57l.09.24c0,.11.08.22.13.33l.12.23a3.37,3.37,0,0,0,.19.32l.15.23a3.76,3.76,0,0,0,.25.31l.18.22.31.32.21.2c.12.11.26.21.4.32l.2.16c.22.16.45.31.7.46a10.79,10.79,0,0,0,1.44.73v0c4.28,1.82,10.32,1.66,14.28-.55,2.28-1.27,3.43-3,3.42-4.66V54.48a6.78,6.78,0,0,0-.38-2.17,7.08,7.08,0,0,0,.39-1.84,4.5,4.5,0,0,0-.13-1.59Z"/><path class="cls-1" d="M.06,54.54c0-.19,0-.45,0-.65s0-.25.05-.36a7,7,0,0,1,.28-1.14,7.89,7.89,0,0,1,1-2C-.08,52.5.62,55.07,3.59,56.86c4,2.41,10.67,2.48,14.86.15,3.21-1.8,4-4.48,2.43-6.73h0a8.38,8.38,0,0,1,1,2,6.74,6.74,0,0,1,.38,2.17c0,1.7-1.14,3.39-3.42,4.66C14.45,61.62,7.41,61.54,3.15,59,1.09,57.74.06,56.14.06,54.54Z"/><path class="cls-2" d="M19.52,48.92c-.24-.18-.49-.35-.77-.52a10.65,10.65,0,0,0-1.66-.81,13.94,13.94,0,0,0-2.5-.72,16.71,16.71,0,0,0-3.1-.32,15.38,15.38,0,0,0-7.59,1.7C1.31,49.69.27,51.71.8,53.62a3.91,3.91,0,0,0,.42,1,4.44,4.44,0,0,0,.71.95,7.9,7.9,0,0,0,1.66,1.32l.4.22a11.65,11.65,0,0,0,2.13.9,16.88,16.88,0,0,0,5.21.73A15.22,15.22,0,0,0,18.45,57a8.36,8.36,0,0,0,1.85-1.39A4.46,4.46,0,0,0,21.66,53,4.56,4.56,0,0,0,19.52,48.92Z"/><path class="cls-1" d="M2.39,45.83l3.4-2.53c-2,1.53-1.91,3.72.46,5.15a10.6,10.6,0,0,0,9.61.1c2.54-1.42,2.78-3.71.64-5.28h0l3.42,2.51c3.49,2.57,3.11,6.31-1.06,8.63-4.43,2.47-11.47,2.4-15.72-.16C-.74,51.92-1,48.32,2.39,45.83Z"/><path class="cls-3" d="M.06,55.88V54.54c0,1.6,1,3.2,3.09,4.45,4.26,2.55,11.3,2.63,15.73.15,2.28-1.27,3.42-3,3.42-4.66v1.34c0,1.69-1.14,3.39-3.42,4.66C14.45,63,7.41,62.88,3.16,60.32,1.09,59.08.07,57.48.06,55.88Z"/><g class="cls-4"><path class="cls-1" d="M4.91,47.29a4.47,4.47,0,0,1-.36-.6A3.61,3.61,0,0,1,4.34,46a3,3,0,0,1,0-1.19,3.56,3.56,0,0,1,.51-1.22A4.65,4.65,0,0,1,6,42.46c-1.8,1.43-1.63,3.45.56,4.76a10,10,0,0,0,9.09.1c2.35-1.32,2.62-3.41.74-4.89.15.12.35.29.49.43a4,4,0,0,1,.51.61,3.28,3.28,0,0,1,.35.58,3.68,3.68,0,0,1,.24.67,2.66,2.66,0,0,1,.09.73,2.92,2.92,0,0,1-.32,1.32,2.49,2.49,0,0,1-.29.48,4.76,4.76,0,0,1-1.55,1.3,10.6,10.6,0,0,1-9.61-.1A4.58,4.58,0,0,1,4.91,47.29Z"/><g class="cls-5"><path class="cls-1" d="M4.91,47.29c-1.11-1.57-.73-3.37,1-4.83-1.8,1.43-1.63,3.45.56,4.76a10,10,0,0,0,9.09.1c2.35-1.32,2.62-3.41.74-4.89,2.52,2.1,1.6,4.06,1.08,4.8a4.71,4.71,0,0,1-1.56,1.32,10.6,10.6,0,0,1-9.61-.1,4.58,4.58,0,0,1-1.34-1.16Z"/><path class="cls-1" d="M17,43a5.45,5.45,0,0,1,.45.59l.14.22c.06.11.13.24.18.35l.09.22c0,.1.07.23.09.33l.05.22c0,.09,0,.21,0,.3v.21c0,.09,0,.2,0,.29l0,.19-.06.26-.05.18c0,.07-.06.17-.09.23l-.08.17-.11.21-.08.13-.1.14a4.76,4.76,0,0,1-1.55,1.3,10.6,10.6,0,0,1-9.61-.1,4.58,4.58,0,0,1-1.34-1.16l-.09-.13L4.72,47l-.08-.15-.11-.22-.07-.17-.07-.24,0-.19c0-.08,0-.19,0-.26v-.5l0-.21c0-.1,0-.22.06-.31l.06-.23c0-.1.08-.23.12-.32L4.66,44l.2-.34L5,43.4l.3-.35.22-.23c.12-.11.28-.26.41-.36-1.8,1.43-1.63,3.45.56,4.76a9.69,9.69,0,0,0,5.93,1.06l-.37.12c-.55.22-1.31.51-.86.75,1.19.62,4.79-.54,4.73-1.23,0-.24-.53-.19-1.45-.11a7.94,7.94,0,0,0,1.11-.49c2.35-1.32,2.62-3.41.74-4.89h0A5.88,5.88,0,0,1,17,43Z"/><path class="cls-1" d="M17,43a5.45,5.45,0,0,1,.45.59l.14.22c.06.11.13.24.18.35l.09.22c0,.1.07.23.09.33l.05.22c0,.09,0,.21,0,.3v.21c0,.09,0,.2,0,.29l0,.19-.06.26-.05.18c0,.07-.06.17-.09.23l-.08.17-.11.21-.08.13-.1.14a4.76,4.76,0,0,1-1.55,1.3,10.6,10.6,0,0,1-9.61-.1,4.58,4.58,0,0,1-1.34-1.16l-.09-.13L4.72,47l-.08-.15-.11-.22-.07-.17-.07-.24,0-.19c0-.08,0-.19,0-.26v-.5l0-.21c0-.1,0-.22.06-.31l.06-.23c0-.1.08-.23.12-.32L4.66,44l.2-.34L5,43.4l.3-.35.22-.23.08-.08h0l.06,0c-1.52,1.41-1.26,3.29.82,4.54a9.38,9.38,0,0,0,5.23,1.12l-.27.11c-1.18.48-.7.7-.54.77,1.74.77,5.79-.83,5.75-1.64,0-.28-.52-.22-1.36-.12l.28-.14c2.35-1.32,2.62-3.41.74-4.89l.25.21L17,43Z"/><path class="cls-1" d="M17,43a5.45,5.45,0,0,1,.45.59l.14.22c.06.11.13.24.18.35l.09.22c0,.1.07.23.09.33l.05.22c0,.09,0,.21,0,.3v.21c0,.09,0,.2,0,.29l0,.19-.06.26-.05.18c0,.07-.06.17-.09.23l-.08.17-.11.21-.08.13-.1.14a4.76,4.76,0,0,1-1.55,1.3,10.6,10.6,0,0,1-9.61-.1,4.58,4.58,0,0,1-1.34-1.16l-.09-.13L4.72,47l-.08-.15-.11-.22-.07-.17-.07-.24,0-.19c0-.08,0-.19,0-.26v-.5l0-.21c0-.1,0-.22.06-.31l.06-.23c0-.1.08-.23.12-.32L4.66,44l.2-.34.07-.1H5c-.67,1.25-.17,2.67,1.5,3.67a9.16,9.16,0,0,0,4.57,1.14l-.22.1c-.28.14-1.13.56-.19.87,2.85.93,7.27-1.61,6.59-2.47-.09-.11-.28-.08-1,0,1.71-1.31,1.75-3.13.07-4.45l.25.21L17,43Z"/><path class="cls-1" d="M17,43a5.45,5.45,0,0,1,.45.59l.14.22c.06.11.13.24.18.35l.09.22c0,.1.07.23.09.33l.05.22c0,.09,0,.21,0,.3v.21c0,.09,0,.2,0,.29l0,.19-.06.26-.05.18c0,.07-.06.17-.09.23l-.08.17-.11.21-.08.13-.1.14a4.76,4.76,0,0,1-1.55,1.3,10.6,10.6,0,0,1-9.61-.1,4.58,4.58,0,0,1-1.34-1.16l-.09-.13L4.72,47l-.08-.15-.11-.22-.07-.17-.07-.24,0-.19c0-.08,0-.19,0-.26v-.5l0-.21c0-.1,0-.22.06-.31l.06-.23c0-.1.08-.23.12-.32l0-.1,0,0c0,.08,0,.15.15.37a3.06,3.06,0,0,0,1.78,2.69,8.58,8.58,0,0,0,3.8,1.11l0,0c-.3.15-1.21.66-.13,1,3,1.08,8-1.68,7.54-3-.08-.23-.32-.22-.65-.21.91-1.2.69-2.62-.69-3.7l.25.21L17,43Z"/><path class="cls-1" d="M6.25,48.45a4.58,4.58,0,0,1-1.34-1.16l-.09-.13L4.72,47l-.08-.15-.11-.22-.07-.17-.07-.24,0-.19c0-.08,0-.19,0-.26v-.5l0-.21c0-.1,0-.22.06-.31l0-.15,0,.09c0,.23.14.44.44.62a3.52,3.52,0,0,0,1.68,1.9,8.18,8.18,0,0,0,2.79,1l-.14.1c-1.22,1.12,1.2,1.3,1.69,1.32s.69,0,.85,0a10,10,0,0,1-5.45-1.19Z"/><path class="cls-1" d="M6.25,48.45a4.58,4.58,0,0,1-1.34-1.16l-.09-.13L4.72,47l-.08-.15-.11-.22-.07-.17-.07-.24,0-.19c0-.08,0-.19,0-.26v-.5l0-.18v0c0,.55.43.74.81.81a4.11,4.11,0,0,0,1.4,1.29,7.05,7.05,0,0,0,1.63.71L8.05,48c-.54.8.1,1.33,1.91,1.55a8.93,8.93,0,0,1-3.71-1.14Z"/><path class="cls-1" d="M17,43a5.45,5.45,0,0,1,.45.59l.14.22c.06.11.13.24.18.35l.09.22c0,.1.07.23.09.33l.05.22c0,.09,0,.21,0,.3v.21c0,.09,0,.2,0,.29l0,.19-.06.26-.05.18c0,.07-.06.17-.09.23l-.08.17-.11.21-.08.13-.1.14a4.72,4.72,0,0,1-.53.58l0,0c.74-.71,1.57-2.16.53-2.4a2.58,2.58,0,0,0-1.1-3l.25.21L17,43Z"/><path class="cls-1" d="M6.25,48.45a4.58,4.58,0,0,1-1.34-1.16l-.09-.13L4.72,47l-.08-.15-.11-.22-.07-.17-.07-.24,0-.19c0-.08,0-.19,0-.26v0c.1.49.1.49,1.75,1.16l.17.12a1.35,1.35,0,0,1,.54,1c0,.19.07.78,1.48,1.24l.11,0a8.05,8.05,0,0,1-2.1-.86Z"/><path class="cls-1" d="M17,43a5.45,5.45,0,0,1,.45.59l.14.22c.06.11.13.24.18.35l.09.22c0,.1.07.23.09.33l.05.22c0,.09,0,.21,0,.3v.21c0,.09,0,.2,0,.29v0c0-.66-.13-.89-.43-1.06a2.82,2.82,0,0,0-1.24-2.22l.25.21L17,43Z"/><path class="cls-1" d="M17,43a5.45,5.45,0,0,1,.45.59l.14.22c.06.11.13.24.18.35l.09.22v0a3.51,3.51,0,0,0-.57-.91,3.28,3.28,0,0,0-.55-.72.57.57,0,0,0-.11-.11l.24.22L17,43Z"/><path class="cls-1" d="M15.42,48.2c-.28.73-3.91,1.45-4,.79-.07-.44,3.52-1.31,4-1a.16.16,0,0,1,0,.16Z"/><path class="cls-1" d="M15,48.38c-.38.58-3.19,1.1-3.27.6S14.66,47.9,15,48.2a.12.12,0,0,1,0,.08s0,.07,0,.1Z"/><path class="cls-1" d="M14.63,48.52c-.4.44-2.51.8-2.59.44s2.3-.89,2.62-.63a.12.12,0,0,1,0,.08s0,.08-.07.11Z"/><path class="cls-1" d="M14.22,48.65c-.44.33-1.76.48-1.82.28s1.7-.59,1.88-.47a.12.12,0,0,1,.05.07s-.08.09-.11.12Z"/><path class="cls-1" d="M13.54,48.82a1.18,1.18,0,0,1-.7,0,1.26,1.26,0,0,1,.48-.23,2.18,2.18,0,0,1,.44,0,.42.42,0,0,1,.14.06l-.36.16Z"/></g></g><path class="cls-1" d="M6.51,42.07l.65.23a2.73,2.73,0,0,0-1.54,2.2l-.9.12a3.19,3.19,0,0,1,1.79-2.55Z"/><path class="cls-1" d="M4.72,44.62l.9-.12a2.54,2.54,0,0,0,1.23,2l-.7.45a3,3,0,0,1-1.43-2.37Z"/><path class="cls-1" d="M6.15,47l.7-.45.31.2a7.83,7.83,0,0,0,3.81,1l0,.65a9.08,9.08,0,0,1-4.43-1.14L6.15,47Z"/><path class="cls-1" d="M10.94,48.36l0-.65a8.11,8.11,0,0,0,4-.89c1.88-1,2.21-2.69.94-3.94l.78-.13c1.47,1.45,1.09,3.34-1.1,4.57a9.5,9.5,0,0,1-4.66,1Z"/><path class="cls-1" d="M16.7,42.75l-.78.13a3.79,3.79,0,0,0-.78-.59l.65-.24a4.84,4.84,0,0,1,.91.7Z"/><path class="cls-1" d="M3.45,55.87a6.73,6.73,0,0,1-3-3.32,5.43,5.43,0,0,1,0-4.48c-1,2.12-.13,4.48,2.69,6.18,4.25,2.56,11.29,2.63,15.72.16,3.07-1.71,4.08-4.19,3-6.4a4.64,4.64,0,0,1,.44,2.46,6.9,6.9,0,0,1-.91,3c-.42.76-1.56,2.2-4.41,3.31a17.45,17.45,0,0,1-11.61,0,12.76,12.76,0,0,1-1.93-.92Z"/><path class="cls-1" d="M16.61,44c0-.07-.05-.15-.06-.21l-.11-.41c-.05-.17-.11-.4-.16-.58l-.18-.73c-.07-.26-.15-.61-.21-.87l-.22-1c-.08-.33-.16-.77-.23-1.09L15.22,38c-.07-.37-.15-.86-.22-1.23l-.18-1.24c-.05-.4-.11-.92-.15-1.31l-.11-1.23c0-.4,0-.92-.05-1.31V30.51c0-.37.06-.86.09-1.24l.12-.84a8.2,8.2,0,0,1,.28-1l.16-.36a.06.06,0,0,0,0,0c-.08,0-.16.11-.23.15l-.15.1c-.17.09-.34.18-.51.25a8.6,8.6,0,0,1-6.31,0l-.31-.14-.25-.14a2.63,2.63,0,0,0-.36-.2v0a4.22,4.22,0,0,1,.32.87l.12.51c.07.34.12.8.17,1.14l.06.93c0,.38,0,.89,0,1.27l0,1.16-.09,1.11L7.45,35.3a73,73,0,0,1-1.78,9.08l0,.18a2.74,2.74,0,0,0,1.54,2.18,6.73,6.73,0,0,0,.71.36,9,9,0,0,0,6.58,0l.53-.26C16.35,46.05,16.89,45,16.61,44Z"/><path class="cls-2" d="M3.15,59A5.74,5.74,0,0,1,.09,55l0,.06c.09.21.28.17.66.09.18,0,.35-.12.53-.15s.12.07.2,0h0a7.19,7.19,0,0,0,2.09,1.83q.34.21.72.39h0a1.32,1.32,0,0,1,0,.41,3.13,3.13,0,0,0,.22,1.89l.12.17A10.75,10.75,0,0,1,3.15,59Z"/><path class="cls-6" d="M.78,52.11l4-5a4.31,4.31,0,0,0,1.44,1.31A7.47,7.47,0,0,0,8,49.21L6,55.49a12.27,12.27,0,0,1-2.88-1.24A7.42,7.42,0,0,1,.78,52.11Z"/><path class="cls-7" d="M15.36,48.8a7.69,7.69,0,0,1-1.11.41A8.69,8.69,0,0,1,13,49.5L14.16,56a15.71,15.71,0,0,0,2.08-.47,14.4,14.4,0,0,0,1.81-.68Z"/><path class="cls-2" d="M.09,56.34V55a5.74,5.74,0,0,0,3.06,4,13.09,13.09,0,0,0,1.45.73v1.33a10.79,10.79,0,0,1-1.44-.73,5.71,5.71,0,0,1-3.07-4Z"/><path class="cls-6" d="M6.25,48.45a4.58,4.58,0,0,1-1.34-1.16l-.09-.13L4.72,47l-.08-.15-.11-.22-.07-.17-.07-.24,0-.19c0-.08,0-.19,0-.26v-.5l0-.18v0c0,.55.43.74.81.81a4.11,4.11,0,0,0,1.4,1.29,7.05,7.05,0,0,0,1.63.71L8.05,48c-.54.8.1,1.33,1.91,1.55a8.93,8.93,0,0,1-3.71-1.14Z"/><path class="cls-8" d="M14.22,48.65c-.44.33-1.76.48-1.82.28s1.7-.59,1.88-.47a.12.12,0,0,1,.05.07s-.08.09-.11.12Z"/><path class="cls-6" d="M18.57,56a10.67,10.67,0,0,1-1.58.73,17.45,17.45,0,0,1-11.61,0l-.7-.29c-.37-.18-.87-.43-1.23-.63l-.55-.36A7.28,7.28,0,0,1,1.27,54L1,53.64c-.1-.16-.22-.38-.31-.54L.6,52.83.46,52.5l-.08-.24L.29,52l-.06-.23-.06-.25-.05-.23,0-.24,0-.24,0-.26,0-.27V50l0-.35,0-.15,0,.19a3.15,3.15,0,0,0,.08.8,5.87,5.87,0,0,0,3,3.79,12.29,12.29,0,0,0,2.6,1.16h0c2.24,2.17,2.33,2.26,5,2.32a15,15,0,0,0,8.34-2l-.47.27Z"/><path class="cls-2" d="M9.1,32.64C9,37.47,8.11,42.22,7.67,47a4.11,4.11,0,0,1-.51-.27,3.19,3.19,0,0,1-1.4-1.5l0-.18c1.47-6.35,2.08-11.23,1.88-14.91l-.08-.91-.13-.78L7.36,28A4.22,4.22,0,0,0,7,27.08v0a2.63,2.63,0,0,1,.36.2l.25.14.31.14c.83.35,1.13,2.43,1.15,5.1Z"/><path class="cls-7" d="M11.37,47.71s.07-15.38.77-16.73,1.33-1.12,1.74,4.07a100.23,100.23,0,0,0,1.75,11.33S14.6,47.49,11.37,47.71Z"/><path class="cls-7" d="M16.87,57.75a14.71,14.71,0,0,1-2.26.69c-.86.15-2.57.34-2.57.34a.58.58,0,0,0-.15.6c.11.37,1,1.1,2.89.73s2.34-1.43,2.39-1.8A.56.56,0,0,0,16.87,57.75Z"/><path class="cls-7" d="M18.67,54.5s-.82,1-3.41,1.61a10.09,10.09,0,0,1-4.25.2S15.64,56.38,18.67,54.5Z"/><path class="cls-1" d="M18.07,14.69l-1.57.4A11.68,11.68,0,0,0,5.87,15c-3,1.67-3.1,4.43-.22,6.16a11.68,11.68,0,0,0,10.63.1c3-1.67,3.1-4.43.22-6.16l1.57-.4c3.71,2.24,3.59,5.79-.28,8s-10,2.09-13.71-.14-3.58-5.79.28-7.94S14.37,12.46,18.07,14.69Z"/><path class="cls-1" d="M3.81,24.66c0-.3-.07-.61-.11-.92a3.85,3.85,0,0,0,2.05,2.68,11.53,11.53,0,0,0,10.47.1,3.94,3.94,0,0,0,2.26-2.82h0c0,.31-.07.61-.1.92a3.89,3.89,0,0,1-2.23,2.78,11.37,11.37,0,0,1-10.32-.1A3.72,3.72,0,0,1,3.81,24.66Z"/><path class="cls-9" d="M16.8,13.5l-1.44-.12A9.27,9.27,0,0,0,7,13.29c-2.36,1.32-2.44,3.5-.17,4.87a9.25,9.25,0,0,0,8.4.08c2.37-1.32,2.45-3.5.18-4.86l1.44.12c3,1.83,2.93,4.73-.24,6.5a12.34,12.34,0,0,1-11.21-.12c-3-1.82-2.93-4.73.23-6.49A12.33,12.33,0,0,1,16.8,13.5Z"/><path class="cls-2" d="M3.66,18.87c-.14-.46-.27-.92-.41-1.38a4.39,4.39,0,0,0,2.1,2.39A12.34,12.34,0,0,0,16.56,20a4.58,4.58,0,0,0,2.33-2.56h0c-.13.46-.26.93-.4,1.39a4.29,4.29,0,0,1-2.21,2.42,11.68,11.68,0,0,1-10.63-.1A4.2,4.2,0,0,1,3.66,18.87Z"/><path class="cls-2" d="M5.16,16.15l-.24-1.31A3.26,3.26,0,0,0,6.6,16.93a9.67,9.67,0,0,0,8.75.09,3.36,3.36,0,0,0,1.86-2.22L17,16.12a3.22,3.22,0,0,1-1.8,2.12,9.25,9.25,0,0,1-8.4-.08A3.14,3.14,0,0,1,5.16,16.15Z"/><path class="cls-1" d="M4,7.92A5.36,5.36,0,0,0,5.47,9.18a12,12,0,0,0,10.92.11A5.47,5.47,0,0,0,18.1,7.88l-1.5,2a4.48,4.48,0,0,1-1.34,1.11,9.48,9.48,0,0,1-8.6-.09,4.28,4.28,0,0,1-1.16-1Z"/><path class="cls-9" d="M18.57,3.38C14.58,1,8,.91,3.82,3.23s-4.29,6.15-.3,8.55,10.59,2.47,14.75.15S22.56,5.78,18.57,3.38Z"/><path class="cls-10" d="M17.07,8.86h0a5.32,5.32,0,0,1-.66.42,12,12,0,0,1-7.24,1.12l-.84-.15A9,9,0,0,1,5.47,9.18,3.73,3.73,0,0,1,5,8.89H5c-2.49-1.78-2.24-4.41.67-6A12,12,0,0,1,16.61,3C19.33,4.6,19.46,7.13,17.07,8.86Z"/><path class="cls-1" d="M17.07,8.86a7.23,7.23,0,0,1-.68.43A12,12,0,0,1,5.47,9.18,5,5,0,0,1,5,8.89a2.14,2.14,0,0,1,.1-1.27,7.49,7.49,0,0,1,1.27-2A6.66,6.66,0,0,1,8.16,4.13c.19-.1.45-.23.65-.31a5.36,5.36,0,0,1,.67-.24,6.28,6.28,0,0,1,.84-.16,7,7,0,0,1,.78,0,5.59,5.59,0,0,1,1.64.25A5.85,5.85,0,0,1,14,4.16l.13.07c.1.07.24.15.33.22l.47.35a6.57,6.57,0,0,1,.77.76,7.93,7.93,0,0,1,.74,1,7.61,7.61,0,0,1,.54,1A2.13,2.13,0,0,1,17.07,8.86Z"/><path class="cls-2" d="M18.27,11.93a12.35,12.35,0,0,1-1.77.79h0c-4.09,1.45-9.51,1.13-13-1A6.16,6.16,0,0,1,.89,9a6.31,6.31,0,0,0,.88,1.45A26.82,26.82,0,0,0,4.24,13.1h0c.14.15.27.28.39.42l.09.1a1.92,1.92,0,0,1,.13.17l.09.12,0,0a2.55,2.55,0,0,0-.07.32v.21a2.54,2.54,0,0,0,.87,1.81,4.12,4.12,0,0,0,.67.53l.18.12.36.2.36.16.17.08h0a6.61,6.61,0,0,0,.67.24h0A9.42,9.42,0,0,0,9.89,18l.28,0-.1,0a10.6,10.6,0,0,0,1.69,0h.13l.45,0,.23,0,.24,0,.4-.07.17,0,.36-.1.11,0,.44-.14.11,0c.15-.06.29-.11.43-.18a.2.2,0,0,0,.08,0,3.55,3.55,0,0,0,.44-.21,5.66,5.66,0,0,0,.48-.31.71.71,0,0,0,.14-.1,4.47,4.47,0,0,0,.4-.34h0a2.42,2.42,0,0,0,.78-2.37l0,0a.88.88,0,0,1,.12-.15l.11-.15.27-.3.18-.18h0a26.12,26.12,0,0,0,2.46-2.68,6.94,6.94,0,0,0,.65-1c.12-.22.19-.41.22-.47a.88.88,0,0,0,.05-.15A6.13,6.13,0,0,1,18.27,11.93Z"/><path class="cls-1" d="M.89,9,.74,8.56A3.81,3.81,0,0,0,.89,9Z"/><path class="cls-1" d="M21.26,8.78l.06-.17Z"/><path class="cls-1" d="M21.32,8.61l0-.11Z"/><path class="cls-1" d="M4,22.19l.55-1c-.7,1.33.73.52,2.51,1.59a8.11,8.11,0,0,0,8.34.24c1.93-1.08,2.94-.49,2.2-1.87h0l.55,1c.81,1.5.15,3.2-1.94,4.37a11.53,11.53,0,0,1-10.47-.1C3.82,25.26,3.25,23.63,4,22.19Z"/><path class="cls-2" d="M1.38,19.7V18.62c0,1.4.9,2.8,2.7,3.88,3.71,2.23,9.85,2.29,13.71.14,2-1.11,3-2.59,3-4.07v1.08c0,1.48-1,3-3,4.06a15.09,15.09,0,0,1-13.71-.13C2.28,22.49,1.38,21.1,1.38,19.7Z"/><path class="cls-2" d="M3.73,22.85l-.17-.39-.17-.39a4.74,4.74,0,0,0,2,2.06,12.31,12.31,0,0,0,11.21.11A4.83,4.83,0,0,0,18.78,22h0l-.33.78a4.66,4.66,0,0,1-2.11,2.12,11.86,11.86,0,0,1-10.73-.11A4.49,4.49,0,0,1,3.73,22.85Z"/><path class="cls-1" d="M3.81,24.66c0-.3-.07-.61-.11-.92a3.85,3.85,0,0,0,2.05,2.68,11.53,11.53,0,0,0,10.47.1,3.94,3.94,0,0,0,2.26-2.82h0c0,.31-.07.61-.1.92a3.89,3.89,0,0,1-2.23,2.78,11.37,11.37,0,0,1-10.32-.1A3.72,3.72,0,0,1,3.81,24.66Z"/><path class="cls-2" d="M4.09,24.86l.55-1.25A4.31,4.31,0,0,0,6.16,25a5.21,5.21,0,0,0,.52.28l-.37,1.4c-.19-.09-.38-.2-.56-.3a4.75,4.75,0,0,1-1.66-1.56Z"/><path class="cls-7" d="M14.34,25.77l-.36.1a9.63,9.63,0,0,1-1.34.27l.14,1.47a13.77,13.77,0,0,0,1.45-.29l.39-.12Z"/><path class="cls-2" d="M3.81,24.66l-.11-.92a3.85,3.85,0,0,0,2.05,2.68A7.14,7.14,0,0,0,6.86,27l.06.88a7.9,7.9,0,0,1-1.09-.54,3.72,3.72,0,0,1-2-2.64Z"/><path class="cls-3" d="M3.66,18.87l-.41-1.38a4.39,4.39,0,0,0,2.1,2.39,7.68,7.68,0,0,0,1.5.71l.22,1.23a8.45,8.45,0,0,1-1.42-.67,4.2,4.2,0,0,1-2-2.28Z"/><path class="cls-3" d="M5.16,16.15l-.24-1.31A3.26,3.26,0,0,0,6.6,16.93a6.74,6.74,0,0,0,1,.49l.14,1.21a6.21,6.21,0,0,1-1-.47,3.14,3.14,0,0,1-1.62-2Z"/><path class="cls-3" d="M1.41,20.1V19A5,5,0,0,0,4.08,22.5a9.29,9.29,0,0,0,1.26.64v1.07a10.58,10.58,0,0,1-1.26-.63A5,5,0,0,1,1.41,20.1Z"/><path class="cls-3" d="M8.38,15.32s-.7,2.92-2.57.89C6,16,6.22,15,4.24,13.1a5.67,5.67,0,0,0,1.09.83,9.74,9.74,0,0,0,3.05,1.14v.25Z"/><path class="cls-7" d="M14.69,17.2a5.68,5.68,0,0,1-3.32.61A17.27,17.27,0,0,1,14.86,17a1.37,1.37,0,0,1-.17.17Z"/><path class="cls-3" d="M8.38,15.07a9.74,9.74,0,0,1-3.05-1.14,5.67,5.67,0,0,1-1.09-.83l-.33-.31-.29-.3-.28-.28L3.08,12l-.23-.25-.22-.23-.2-.22c-.05-.07-.13-.15-.18-.21l-.17-.21a1.46,1.46,0,0,1-.16-.19l-.15-.19-.14-.18-.13-.19L1.37,9.9l-.12-.2-.12-.2L1,9.28.91,9,.83,8.82.74,8.56a5.77,5.77,0,0,0,2.78,3.22,11,11,0,0,0,1.89.9l.13.05a5.12,5.12,0,0,1,2.84,2.34Z"/><path class="cls-1" d="M17.07,8.86a.06.06,0,0,1,0,0,0,0,0,0,0,0,0v0c-1.38-3.46-5.51-4-7.4.13a9.64,9.64,0,0,0-.5,1.43l-.84-.15A9,9,0,0,1,5.47,9.18,3.73,3.73,0,0,1,5,8.89H5v0a.29.29,0,0,1,0-.09.13.13,0,0,1,0-.06.43.43,0,0,0,0-.05A2.37,2.37,0,0,1,5,8H5c.49-.69.84-1.18,3.47-2,2.32-.69,3.27-1,3.59-2a2.49,2.49,0,0,1,2,.2,8.93,8.93,0,0,1,.8.57l.31.28c.14.14.33.33.46.48l.25.3.3.4.19.29.19.31.12.24a2.4,2.4,0,0,1,.11.23l.07.15,0,.11A2.14,2.14,0,0,1,17.07,8.86Z"/><path class="cls-6" d="M9.13,8.06a18,18,0,0,0-.82,2.2A9,9,0,0,1,5.47,9.18,3.73,3.73,0,0,1,5,8.89a0,0,0,0,1,0,0,.29.29,0,0,1,0-.09.13.13,0,0,1,0-.06V8.66H5A6.06,6.06,0,0,1,7.4,6.88c1-.39,2-.38,2.07,0S9.42,7.39,9.13,8.06Z"/><path class="cls-7" d="M6.8,2.34l-.43.18-.52.25-.16.08a6,6,0,0,0-.56.36L6.39,6.15a4.92,4.92,0,0,1,.45-.28L7,5.81l.41-.2.34-.14L8,5.35,7.22,2.19Z"/><path class="cls-2" d="M18.59,5.1a3.49,3.49,0,0,0-.5-.87A5.09,5.09,0,0,0,16.61,3L15.43,6A4.36,4.36,0,0,1,16.6,7a3,3,0,0,1,.39.69,2.29,2.29,0,0,1,.14.67L18.76,6A2.85,2.85,0,0,0,18.59,5.1Z"/><path class="cls-2" d="M9.19,4.47l.48-1c-.15.31,0,.66.39.91a2.5,2.5,0,0,0,2.29,0c.46-.26.6-.62.44-1,.16.32.32.65.49,1s0,.91-.57,1.24a3.29,3.29,0,0,1-3,0C9.15,5.34,9,4.88,9.19,4.47Z"/><path class="cls-11" d="M13.59,2.36A2.36,2.36,0,1,1,11.23,0,2.36,2.36,0,0,1,13.59,2.36Z"/><circle class="cls-9" cx="11.48" cy="2.11" r="1.96"/><path class="cls-12" d="M12.59,1.77a.64.64,0,0,1-.64.64.64.64,0,1,1,.64-.64Z"/><path class="cls-7" d="M14.2,8.76a1.9,1.9,0,0,0-1.7-.51c-.94.25-1.27,1.22-1.45,1.6s3.55-.12,3.62-.56A2.45,2.45,0,0,0,14.2,8.76Z"/><path class="cls-13" d="M21.19,6.15a4.25,4.25,0,0,1,0,3.08,5.55,5.55,0,0,1-2,2.41A10.8,10.8,0,0,1,16.31,13a19.59,19.59,0,0,1-3,.71A15.1,15.1,0,0,1,7,13.32a12.38,12.38,0,0,1-5.39-3.05A13.54,13.54,0,0,0,7.1,13a15.67,15.67,0,0,0,6.1.28A15,15,0,0,0,19,11.37a5.29,5.29,0,0,0,2-2.22A4.3,4.3,0,0,0,21.19,6.15Z"/></g></g></svg>