<svg xmlns="http://www.w3.org/2000/svg" viewBox="0 0 35.45 51.59"><defs><style>.cls-1{isolation:isolate;}.cls-2{fill:#d7dce0;mix-blend-mode:multiply;}.cls-3{fill:#1f1f1f;}.cls-4{fill:#141414;}.cls-5{fill:#1c1c1c;}.cls-6{fill:#171717;}.cls-7{fill:#5b5b5b;}.cls-8{fill:#181818;}.cls-9{fill:#2c2c2c;}.cls-10{fill:#292929;}.cls-11{fill:#7f7f7f;}.cls-12{fill:#212121;}.cls-13{fill:#3d3d3d;}</style></defs><g class="cls-1"><g id="Capa_2" data-name="Capa 2"><g id="layer"><path class="cls-2" d="M0,19.54A3.24,3.24,0,0,1,.28,20,3.24,3.24,0,0,0,0,19.54Zm3.16,3.18L.43,20.58h0v0l2.72,2.13Z"/><path class="cls-3" d="M32,49.78c2.28-1.27,3.42-3,3.42-4.66V43.78c0-.11,0-.26,0-.37s0-.33,0-.47l-.06-.33c0-.13-.07-.29-.1-.4l-.09-.31c0-.1-.08-.24-.12-.34L35,41.42,35,41.2c0-.11.06-.26.08-.38l0-.28c0-.11,0-.26,0-.37v-.28c0-.11,0-.26,0-.37l-.05-.29c0-.11-.06-.26-.1-.38l-.1-.29-.05-.13a.83.83,0,0,1,0,.15,3.88,3.88,0,0,0-.3-.7l-1.9-3.32v0l0-.23L32.53,34l-.07-.25c0-.09-.08-.22-.12-.32l-.13-.27L32,32.8l-.19-.28-.33-.43-.27-.28s0,0,0,0h0a1.8,1.8,0,0,1-.05-.19,2.68,2.68,0,0,1-.07-.27c0-.13-.07-.27-.1-.39l0-.08c-.16-.67-.29-1.26-.38-1.64s-.12-.55-.17-.78v-.06l-.15-.73c0-.07,0-.15,0-.22-.05-.25-.11-.54-.15-.77l-.17-.95c0-.23-.07-.42-.09-.59l0-.22c0-.07,0-.15,0-.21l-.16-1c0-.32-.1-.74-.14-1.06v0l-.12-1.08c0-.33-.08-.77-.11-1.11v0l-.09-1.13c0-.13,0-.29,0-.45l.07,0,0,0h0l.22-.12-.09.05a4.68,4.68,0,0,0,.49-.32,6.65,6.65,0,0,0,.65-.54A5,5,0,0,0,31,17a3.52,3.52,0,0,0,.5-1.5s0-.15,0-.3A6.12,6.12,0,0,0,32.91,14l0,0a4,4,0,0,0,.91-1.86l.9-5.46s0,0,0,.06a3.94,3.94,0,0,0-1-3.28h0l-2.42,1.4L31.14,6l-.06,0a11.92,11.92,0,0,0-1.15-.56h0a9.86,9.86,0,0,0-1.39-.48L28.81.6a17.59,17.59,0,0,0-9.22,0h0l.28,4.24h0a9.44,9.44,0,0,0-2.52,1l-.17-1a2.94,2.94,0,0,0-.25.74,2.94,2.94,0,0,1,.25-.74l-2.43-1.4a3.93,3.93,0,0,0-1,3.29,0,0,0,0,1,0,0c.31,1.81.62,3.64.94,5.45A3.81,3.81,0,0,0,15.55,14a6.18,6.18,0,0,0,1.37,1.17q0,.12,0,.21a3.6,3.6,0,0,0,.31,1.28,3.35,3.35,0,0,0,.64,1h0l0,0,.16.17,0,0,.05.05.15.13.17.14.16.13.08.06.39.25.36.2c0,.15,0,.3,0,.42,0,.48-.08,1.2-.19,2.29-.19,1.85-.4,3.17-.57,4.23s-.48,2.66-.67,3.52-.36,1.62-.61,2.59a.27.27,0,0,1-.07.08A4.73,4.73,0,0,0,16,34.61l0,.2h0a1.36,1.36,0,0,1,0-.2l-1.88,3.33a4.35,4.35,0,0,0-.32.74s0,0,0-.06l0,.08a4.78,4.78,0,0,0-.25,1.38c0,.13,0,.31,0,.44s0,.26,0,.37l.06.28c0,.1.06.22.09.33a7,7,0,0,0-.48,2.23v.12h0v1.33a4.66,4.66,0,0,0,1.66,3.37h0l0,0a8.51,8.51,0,0,0,.84.67.31.31,0,0,1,.09.07c.15.1.3.2.46.29a12,12,0,0,0,1.61.79c.19.08.39.14.58.21s.59.22.9.31l.31.07.69.16.68.16v0A17.33,17.33,0,0,0,32,49.78Z"/><path class="cls-4" d="M13.21,43.85c0,1.6,1,3.2,3.09,4.44,4.25,2.56,11.29,2.63,15.72.16,2.29-1.27,3.43-3,3.43-4.67v1.34c0,1.69-1.14,3.39-3.42,4.66-4.43,2.47-11.47,2.4-15.73-.16-2.06-1.24-3.09-2.84-3.09-4.44Z"/><path class="cls-5" d="M35.43,43.41c0-.14,0-.33,0-.47l-.06-.33c0-.13-.07-.29-.1-.4l-.09-.31c0-.1-.08-.24-.12-.34l-.11-.27L34.76,41l-.12-.24-.13-.25-.13-.2-.13-.22-.12-.17L34,39.74l-.11-.15-.12-.14-.09-.12-.09-.11-.07-.08-.06-.07a4.11,4.11,0,0,1,1.15,2.73c0,1.58-1.06,3.15-3.17,4.33-4.1,2.29-10.62,2.22-14.56-.15C15,44.83,14,43.35,14,41.86a4.13,4.13,0,0,1,1.14-2.74l-.06.07-.07.08-.09.1-.1.13-.1.14-.12.15-.11.17-.13.19-.12.2-.13.22L14,40.8l-.13.26-.07.17a7.18,7.18,0,0,0-.59,2.5v.12c0,1.6,1,3.2,3.09,4.44,4.25,2.56,11.29,2.63,15.72.16,2.29-1.27,3.43-3,3.43-4.67C35.44,43.67,35.44,43.52,35.43,43.41Z"/><path class="cls-6" d="M20.9,49.83c-.85-.89-.07-2.25,0-2.34h0A12.48,12.48,0,0,1,16.89,46a7.58,7.58,0,0,1-1.27-.93h0c.08.11.34,2.19-.77,2.16a8.69,8.69,0,0,0,1.44,1.07A14,14,0,0,0,21.07,50l-.17-.15Z"/><path class="cls-6" d="M14.87,47.22v1.34a8.64,8.64,0,0,0,1,.77V48a7,7,0,0,1-1-.77Z"/><path class="cls-6" d="M15.84,48v1.34c.15.1.3.2.46.29a12.61,12.61,0,0,0,3.09,1.31V49.59a12.52,12.52,0,0,1-3.08-1.3l-.46-.3Z"/><path class="cls-6" d="M19.38,49.59v1.34a15.21,15.21,0,0,0,1.68.39V50a15.39,15.39,0,0,1-1.69-.39Z"/><path class="cls-7" d="M29.75,47.52a5.3,5.3,0,0,0-2,.45c-.1.06-.72.55-.44,1,.55.75,3.07.13,3.18-.79C30.53,48,30.52,47.65,29.75,47.52Z"/><path class="cls-6" d="M34.46,40.77a5.7,5.7,0,0,0-2.71-3.08c-3.05-1.84-7.66-2.29-11.48-1.34a12.89,12.89,0,0,0-3.08,1.19,7.94,7.94,0,0,0-1.7,1.24A4.2,4.2,0,0,0,14,42a4.7,4.7,0,0,0,2,3.36,6.88,6.88,0,0,0,.74.51l.11.07a12.76,12.76,0,0,0,4.18,1.52,17.51,17.51,0,0,0,3.63.3,15,15,0,0,0,6.75-1.67,8.23,8.23,0,0,0,1.72-1.26,4.75,4.75,0,0,0,1.3-2A3.56,3.56,0,0,0,34.46,40.77Zm-2.12,3.3a7.49,7.49,0,0,1-1.56,1.14,13.41,13.41,0,0,1-6.12,1.51,15.52,15.52,0,0,1-3.28-.26,11.7,11.7,0,0,1-3.79-1.38l-.1-.06c-.24-.15-.46-.31-.67-.46A4.27,4.27,0,0,1,15,41.51a3.86,3.86,0,0,1,1.33-3,7.53,7.53,0,0,1,1.54-1.11,11.24,11.24,0,0,1,2.79-1.08,14.51,14.51,0,0,1,10.4,1.21,5.23,5.23,0,0,1,2.46,2.79,3.25,3.25,0,0,1,0,1.88A4.26,4.26,0,0,1,32.34,44.07Z"/><path class="cls-5" d="M32.67,35v-.21c0-.07,0-.17,0-.24l0-.23L32.53,34l-.07-.25c0-.09-.08-.22-.12-.32l-.13-.27L32,32.8l-.19-.28-.33-.43-.27-.28L31,31.64a3,3,0,0,1,1,3.14,4.48,4.48,0,0,1-2.31,2.52,12.28,12.28,0,0,1-11.14-.11,4.41,4.41,0,0,1-2.07-2.37,3.05,3.05,0,0,1,1-3.11A5,5,0,0,0,16,34.61l0,.21v.38c0,.07,0,.15,0,.21l0,.16a1.1,1.1,0,0,0,0,.18l0,.13A.7.7,0,0,0,16,36l0,.1a.94.94,0,0,1,0,.09.42.42,0,0,1,0-.19.42.42,0,0,0,0,.19,4.58,4.58,0,0,0,2.19,2.5,13,13,0,0,0,11.8.12,4.81,4.81,0,0,0,2.44-2.67l0-.09a.36.36,0,0,1,0-.1l0-.12c0-.05,0-.11,0-.15l0-.16s0-.12,0-.18V35Z"/><path class="cls-6" d="M22.65,40.09c-.87-.19-1.68-1-.95-1.5l.14-.1.19-.1a9.78,9.78,0,0,1-3.42-1.2,6.16,6.16,0,0,1-1.33-1.07l.13.29c.26.71.32.86.22,1.11s-.51.15-.7.06a.35.35,0,0,1-.11-.07,6,6,0,0,0,1.46,1.2,11,11,0,0,0,4.44,1.39Z"/><path class="cls-3" d="M16,36v0Zm0-.08a.64.64,0,0,1,0-.07Zm0-.07a.17.17,0,0,0,0-.07A.17.17,0,0,1,16,35.85Zm0-.09v0Zm0-.07a.76.76,0,0,1,0-.15A.76.76,0,0,0,16,35.69Zm0-.17v0Zm18.57,2.36q-1.17-2-2.32-4.06c1,1.71.25,3.68-2.14,5a13,13,0,0,1-11.8-.12,4.69,4.69,0,0,1-2.2-2.51h0V36.1h0V36a2.76,2.76,0,0,1-.08-.44,4,4,0,0,1,0-.78,1.36,1.36,0,0,1,0-.2l-1.88,3.33c-1.19,2.12-.38,4.54,2.47,6.25,4.11,2.48,10.93,2.55,15.22.16C34.86,42.62,35.8,40.09,34.54,37.88ZM16,36h0v0ZM16,35.37v0Zm0-.09v0Zm0-.08v0Zm0-.07v0ZM16,35v0ZM16,35a.22.22,0,0,0,0-.08A.22.22,0,0,1,16,35Zm0-.09v0Zm0-.08v0Zm0-.07s0,0,0-.08S16,34.7,16,34.73Zm0-.09v0Zm0-.08,0-.05Zm0-.07,0-.07Zm0-.09,0,0Zm0-.08,0,0Zm0-.07,0-.07Zm0-.08,0-.06Zm0-.08,0-.05Zm0-.07,0-.07Zm0-.09,0,0ZM16,35.37v0Z"/><path class="cls-3" d="M35.14,39.89c0-.11,0-.26,0-.37l-.05-.29c0-.11-.06-.26-.1-.38l-.1-.29-.05-.13c.83,2.07-.19,4.33-3,5.92a12.82,12.82,0,0,1-1.68.76,17.57,17.57,0,0,1-11.52,0,11.37,11.37,0,0,1-2-1c-2.55-1.53-3.47-3.63-2.78-5.57l0,.08a4.78,4.78,0,0,0-.25,1.38c0,.13,0,.31,0,.44s0,.26,0,.37l.06.28.1.37.11.3c0,.11.12.27.18.39l.16.3c.09.13.2.31.29.43l.24.32.47.5.36.34a9.58,9.58,0,0,0,1.2.85l.55.31.76.36.64.26.07,0a.16.16,0,0,1-.11-.09.16.16,0,0,0,.11.09,17.13,17.13,0,0,0,11.2,0l.64-.25,1-.51.49-.29a8.38,8.38,0,0,0,1.4-1.11l.29-.3c.13-.16.3-.36.42-.52l.2-.3c.07-.13.17-.3.24-.44l.14-.29.14-.4L35,41.2c0-.11.06-.26.08-.38l0-.28c0-.11,0-.26,0-.37Z"/><path class="cls-6" d="M17.54,38.2l-1.95,5.33a8.06,8.06,0,0,0,1,.66l0,0,1.73-5.48,0,0a6,6,0,0,1-.74-.51Z"/><path class="cls-6" d="M18.31,38.73l-1.73,5.48a11.64,11.64,0,0,0,2.2,1L20,39.51a9.1,9.1,0,0,1-1.7-.78Z"/><path class="cls-6" d="M20,39.51l-1.23,5.71a15.06,15.06,0,0,0,1.81.5l.83-5.82A12.71,12.71,0,0,1,20,39.51Z"/><path class="cls-7" d="M28.47,38.39c-.34-.11-2.94.36-3.08.73a.12.12,0,0,0,0,.1c.27.51,3-.06,3.21-.66a.14.14,0,0,0,0-.11.23.23,0,0,0-.12-.06Z"/><path class="cls-7" d="M25.74,40.11,26.26,46A6.56,6.56,0,0,0,30,45.25l-1.32-5.79A9.64,9.64,0,0,1,25.74,40.11Z"/><path class="cls-6" d="M30,30.85a12.22,12.22,0,0,0-11.14-.11c-3.14,1.75-3.24,4.64-.23,6.45a12.28,12.28,0,0,0,11.14.11C32.89,35.55,33,32.66,30,30.85Z"/><path class="cls-3" d="M20.5,18.79s.25.15.58.29a4.53,4.53,0,0,0,.67.24l.37.11.38.08.4.07a8.34,8.34,0,0,0,1.23.09,8.87,8.87,0,0,0,1.26-.07,8.23,8.23,0,0,0,1.17-.23,6.37,6.37,0,0,0,1-.38,5.63,5.63,0,0,0,.55-.31,3.06,3.06,0,0,0,.42-.32s.14-.14.27-.31a1,1,0,0,0,.15-.3s0,.15,0,.27c0,.35,0,.81.07,1.16.05.63.1,1.29.21,2.28s.2,1.66.27,2.18c.11.73.15,1,.32,2s.52,2.77.69,3.51.54,2.38,1,3.87c.4,1.34-.32,2.77-2.15,3.79A11.43,11.43,0,0,1,19,36.75c-1.67-1-2.32-2.37-1.94-3.65.09-.32.21-.79.25-.92.31-1.19.47-1.91.7-3,.19-.86.5-2.48.67-3.52s.38-2.38.57-4.23c.11-1.09.16-1.81.19-2.29s.06-.81.07-1.16a.82.82,0,0,0,0-.26,1.45,1.45,0,0,0,.38.56A2.83,2.83,0,0,0,20.5,18.79Z"/><path class="cls-6" d="M31.44,32.78c-.11-.39-.11-.39-.17-.63l-.12-.45L31,31.18l-.15-.59-.16-.67-.16-.73-.17-.8-.17-.85c-.06-.27-.13-.64-.18-.91l-.17-.95c-.05-.3-.11-.7-.16-1l-.16-1c0-.32-.1-.75-.14-1.08l-.13-1.1c0-.34-.09-.8-.12-1.14l-.09-1.14c0-.35-.06-.83-.07-1.18v-.25l0,.07-.06.12-.07.11-.14.17-.13.14-.21.17-.21.15-.28.17-.27.14-.33.15-.33.12-.37.11-.37.09-.4.08-.4.06-.41,0-.42,0h-.84l-.42,0-.4-.05-.41-.07-.37-.08-.37-.11-.33-.1-.34-.14L20.8,19l-.3-.16-.22-.15L20,18.46l-.15-.14-.16-.17L19.66,18l0,0,0,0c1.77,2.83-1.22,18.16-1.29,18.26a5.5,5.5,0,0,0,.64.44,8.92,8.92,0,0,0,2.79,1l0-.13c0-.1,1-17,1.06-17.07.15-.41.15-.41,2.77-.92a5.72,5.72,0,0,0,3.09-1.42s0-.09.09-.09.09,0,.16,1a77.87,77.87,0,0,0,1.28,9.55c.46,2.35.81,3.67,1.33,5.67a2.48,2.48,0,0,0,0-1.35l0-.09-.06-.19Z"/><path class="cls-5" d="M31,31.64c-.12-.11-.24-.22-.37-.32Z"/><path class="cls-5" d="M17.51,31.71l0,0Z"/><path class="cls-5" d="M17.61,31.61l-.07.07.2-.18Z"/><path class="cls-3" d="M19.12,18.56a8.55,8.55,0,0,0,1.83.8c.36.1.71.19,1,.25l.53.09c.68.08.68.08,1.07.1a10.66,10.66,0,0,0,1.08,0l.54,0a9.5,9.5,0,0,0,1.07-.13s.48-.08,1-.23c.29-.08.68-.22,1-.33a7.11,7.11,0,0,0,1.52-.82,6.65,6.65,0,0,0,.65-.54A5,5,0,0,0,31,17a3.52,3.52,0,0,0,.5-1.5,6.39,6.39,0,0,0-.09-1.73c0,.06-2,1.21-3.67,2.12-2.81,1.57-4.25,1-6.94-.63.06-2.82-3.61-1.62-3.79-1.45-.39.36-.13,1.1-.09,1.55a3.6,3.6,0,0,0,.31,1.28,4.24,4.24,0,0,0,.33.59,4.91,4.91,0,0,0,.49.57c.18.18.45.38.65.54Z"/><path class="cls-6" d="M28.75,8.26a9.93,9.93,0,0,0-9,0c-2.48,1.43-2.47,3.76,0,5.2a10,10,0,0,0,9,0C31.25,12,31.24,9.7,28.75,8.26Z"/><path class="cls-6" d="M28.66,11.54l4.21-2.43A7.05,7.05,0,0,0,31,7.63a11.69,11.69,0,0,0-2.66-1.09L24.18,9,20,6.54a11.16,11.16,0,0,0-2.6,1.06,7,7,0,0,0-1.85,1.5l4.2,2.43L15.55,14a7.07,7.07,0,0,0,1.88,1.53A11.37,11.37,0,0,0,20,16.54l4.21-2.43,4.26,2.46a11.18,11.18,0,0,0,2.6-1.07h0A6.78,6.78,0,0,0,32.91,14Z"/><path class="cls-6" d="M28.77,10l4.32-2.5A7.27,7.27,0,0,0,31.2,6a11.75,11.75,0,0,0-2.72-1.11l-4.3,2.48-4.3-2.49A11.58,11.58,0,0,0,17.21,6,7.35,7.35,0,0,0,15.32,7.5L19.62,10l-4.29,2.48A6.94,6.94,0,0,0,17.26,14a11.45,11.45,0,0,0,2.63,1.09l4.32-2.49,4.37,2.52a11.69,11.69,0,0,0,2.66-1.09h0a7.41,7.41,0,0,0,1.9-1.54Z"/><path class="cls-6" d="M14.76,8.74,15.55,14a3.81,3.81,0,0,1-.84-1.79c-.32-1.81-.63-3.64-.94-5.45A4.28,4.28,0,0,0,14.76,8.74Z"/><path class="cls-3" d="M28.66,11.59l.13,0-.31,5c-.27.08-.55.15-.83.21s-.61.12-.92.17a6.17,6.17,0,0,1-.62.09c-.32,0-.63.06-.95.08a15.88,15.88,0,0,1-4.74-.42l-.39-.1h0l-.26-5,.29.08a17.54,17.54,0,0,0,5.19.46c.46,0,.91-.07,1.36-.13L27,12l.34-.06.34-.06.33-.07h0l.32-.07Z"/><path class="cls-3" d="M28.79,11.55l.11,0-.11,0Z"/><path class="cls-3" d="M30.7,10.85l.3-.14-.13.07Z"/><path class="cls-3" d="M34.67,6.65l-.9,5.46a4.44,4.44,0,0,1-1.6,2.58l1.48-5.95h0A4.35,4.35,0,0,0,34.67,6.65Z"/><path class="cls-3" d="M28.66,11.59l.13,0-.31,5c-.27.08-.55.15-.83.21s-.61.12-.92.17a6.17,6.17,0,0,1-.62.09c-.32,0-.63.06-.95.08l.07-5c.46,0,.91-.07,1.36-.13L27,12l.34-.06.34-.06.33-.07h0l.32-.07Z"/><path class="cls-6" d="M20.42,16.8c-.13,0-.26-.18-.39-.21h0s-.38-5-.43-5l.17,0,.29.08Z"/><path class="cls-3" d="M19.12,18.56a8.55,8.55,0,0,0,1.83.8c.36.1.71.19,1,.25l.53.09c.68.08.68.08,1.07.1a10.66,10.66,0,0,0,1.08,0l.54,0a9.5,9.5,0,0,0,1.07-.13s.48-.08,1-.23c.29-.08.68-.22,1-.33a7.11,7.11,0,0,0,1.52-.82,6.65,6.65,0,0,0,.65-.54A5,5,0,0,0,31,17a3.52,3.52,0,0,0,.5-1.5,6.39,6.39,0,0,0-.09-1.73c0,.06.24,1.3-.18,1.55.22,1.21-.49,2.47-2.13,3.38a11,11,0,0,1-10-.1c-1.5-.9-2.13-2.09-1.93-3.24-.42-.25-.2-1.49-.19-1.55A6.41,6.41,0,0,0,17,15.33a3.6,3.6,0,0,0,.31,1.28,4.24,4.24,0,0,0,.33.59,4.91,4.91,0,0,0,.49.57c.18.18.45.38.65.54Z"/><path class="cls-8" d="M16.63,14.07A4.74,4.74,0,0,0,18.52,16a12.37,12.37,0,0,0,11.21.11,5.07,5.07,0,0,0,2.13-2l-.66,1.32a4.54,4.54,0,0,1-1.94,1.86A11.27,11.27,0,0,1,19,17.11a4.44,4.44,0,0,1-1.73-1.72Z"/><path class="cls-9" d="M17.19,4.85l-2.43-1.4a3.88,3.88,0,0,0,0,5.28h0l2.43-1.4A2.58,2.58,0,0,1,17.19,4.85Z"/><path class="cls-9" d="M28.77.64a.08.08,0,0,1,0,0,17.59,17.59,0,0,0-9.22,0h0L22,2a12.52,12.52,0,0,1,4.36,0L28.76.64Z"/><path class="cls-9" d="M22.06,10.15h0l-2.44,1.41a17.5,17.5,0,0,0,9.17,0l-2.43-1.41A12.42,12.42,0,0,1,22.06,10.15Z"/><path class="cls-10" d="M17.19,4.85l.53,3.23A2.73,2.73,0,0,1,17.19,4.85Z"/><path class="cls-3" d="M27.17,8.11l2.5.81-.37.22a9.45,9.45,0,0,1-2.94,1,12.17,12.17,0,0,1-5.67-.32,8.58,8.58,0,0,1-1.13-.45l2.06-1.85h0L22,2l.14,0,.39-.06.32,0H23A12.69,12.69,0,0,1,26.38,2l.41,5.48Z"/><path class="cls-6" d="M28.86,8.33a10,10,0,0,0-9.07-.1,4.94,4.94,0,0,0-1,.72l.13.09a11.47,11.47,0,0,0,10.38.1l.37-.22A4.7,4.7,0,0,0,28.86,8.33Z"/><path class="cls-11" d="M21.74,2.08l.12,0-.31.06Z"/><path class="cls-3" d="M23.13,7.25c-.36,0-.72.09-1.07.16l-.16,0-.28.07h0L22,2l-.16,0L22,2l.15,0,.39-.06.32,0H23Z"/><path class="cls-3" d="M13.81,38.51c0-.1.08-.2.13-.3C13.9,38.3,13.86,38.41,13.81,38.51Z"/><path class="cls-3" d="M13.77,38.62l0-.11S13.78,38.58,13.77,38.62Z"/><path class="cls-3" d="M34.8,38.43a1.42,1.42,0,0,0-.08-.18Z"/><path class="cls-3" d="M34.72,38.25a1,1,0,0,0,0-.1Z"/><path class="cls-6" d="M28.44,19a10.93,10.93,0,0,1-5.51.69c-2.75-.4-2.38-1.82-2.37-1.84s.1,0,.14,0a8,8,0,0,1-1.63-.72l.11.09s.06,0,.06.05-.36,1-1.09.53a1.35,1.35,0,0,1-.26-.24l.28.28a6.18,6.18,0,0,0,.95.71l.42.23L20,19l.47.18.49.17.5.13.51.12.53.09.53.06.54,0,.54,0h.54a4.89,4.89,0,0,0,.54,0l.54-.05.53-.08.52-.1.51-.13.5-.15.48-.18.46-.2c.13-.07.31-.15.44-.23l.22-.12-.43.24-.51.24Z"/><path class="cls-6" d="M18.8,16.12l.47,1.14a8.53,8.53,0,0,0,1.27.55l-.35-1.08a8.72,8.72,0,0,1-1.39-.61Z"/><path class="cls-7" d="M25,38s.22-14.39.89-15.64,1.86,10.36,2.21,12.23.45,2.63.45,2.63A8.27,8.27,0,0,1,25,38Z"/><path class="cls-7" d="M28.23,17.6a.16.16,0,0,1,.14.27,2,2,0,0,1-1.13.61c-1.18.29-1.59.05-1.58-.17S26.28,17.79,28.23,17.6Z"/><polygon class="cls-12" points="17.19 7.32 17.72 8.07 18.79 12.58 15.55 13.95 14.76 8.72 17.19 7.32"/><polygon class="cls-6" points="19.6 0.63 19.99 6.54 21.63 7.51 22.02 2.03 19.6 0.63"/><polygon class="cls-8" points="26.38 2.01 26.79 7.49 28.38 6.54 28.82 0.6 26.38 2.01"/><path class="cls-6" d="M15.33,12.47s.85,1.5,4.56,2.66l.53,1.67A13.38,13.38,0,0,1,15.55,14,4.33,4.33,0,0,1,15.33,12.47Z"/><path class="cls-3" d="M32.76,12.31a7.66,7.66,0,0,1-4.18,2.85c-2.95.88-.1,1.4-.1,1.4a9,9,0,0,0,3.69-1.87A3.57,3.57,0,0,0,32.76,12.31Z"/><path class="cls-9" d="M28.48,4.88l-1.8,1L30.85,8.8l.37-1.46a2.25,2.25,0,0,0,.34-1.13A11.13,11.13,0,0,0,28.48,4.88Z"/><polygon class="cls-6" points="31.25 4.84 30.85 8.8 31.86 7.52 32.17 5.34 31.25 4.84"/><path class="cls-9" d="M33.69,3.43h0l-2.42,1.4a2.53,2.53,0,0,1,0,2.5l2.43,1.4A3.88,3.88,0,0,0,33.69,3.43Z"/><polygon class="cls-12" points="31.23 7.34 29.74 13.29 32.17 14.69 33.65 8.74 31.23 7.34"/><path class="cls-9" d="M32.76,12.31l-2.42-1.4-1.55.64-.22,3.62S32.79,13.83,32.76,12.31Z"/><path class="cls-12" d="M30.47,10.39s0-1.82-3.68-2.9l-.11-1.57S30.93,7.4,30.85,8.8Z"/><path class="cls-10" d="M18,9l.19.82a5.69,5.69,0,0,1,3.48-2.33l.12-1.59S17.83,7.15,18,9Z"/><path class="cls-9" d="M21.74,5.92l-1.86-1a9.44,9.44,0,0,0-2.52,1C17.47,6.56,18,9,18,9S17.63,7.34,21.74,5.92Z"/><path class="cls-9" d="M15.33,12.47l3-1.73s-.1.82,1.27,1.27c0,.18.25,3.12.25,3.12S16.08,14.12,15.33,12.47Z"/><path class="cls-13" d="M35.06,40.19a3.6,3.6,0,0,1-.48,1.8,6.34,6.34,0,0,1-1.24,1.44,10.66,10.66,0,0,1-3.26,1.89,13.26,13.26,0,0,1-3.67.81,13.41,13.41,0,0,1-3.74-.22,17,17,0,0,0,7.27-1,11.72,11.72,0,0,0,3.2-1.75A4.57,4.57,0,0,0,35.06,40.19Z"/></g></g></g></svg>