<svg xmlns="http://www.w3.org/2000/svg" viewBox="0 0 55.97 51.59"><defs><style>.cls-1{isolation:isolate;}.cls-2{fill:#d7dce0;mix-blend-mode:multiply;}.cls-3{fill:#1f1f1f;}.cls-4{fill:#141414;}.cls-5{fill:#1c1c1c;}.cls-6{fill:#171717;}.cls-7{fill:#5b5b5b;}.cls-8{fill:#181818;}.cls-9{fill:#2c2c2c;}.cls-10{fill:#292929;}.cls-11{fill:#7f7f7f;}.cls-12{fill:#212121;}.cls-13{fill:#3d3d3d;}</style></defs><g class="cls-1"><g id="Capa_2" data-name="Capa 2"><g id="layer"><path class="cls-2" d="M52.14,44.9l0,0,.12-.1.21-.19.13-.11.2-.18.11-.11.21-.21.08-.08,0,0,.26-.27,0-.05a2.62,2.62,0,0,0,.22-.25l.08-.1A1.56,1.56,0,0,0,54,43a.44.44,0,0,0,.08-.11l.14-.19a.44.44,0,0,1,.08-.11l.11-.19a.75.75,0,0,0,.07-.12l.12-.2.05-.1c0-.1.1-.2.14-.3s.1-.23.14-.34v0c0-.07,0-.14.07-.22a2.38,2.38,0,0,0,0-.26s0-.05,0-.07a1.37,1.37,0,0,0,0-.19.19.19,0,0,0,0-.08v0a2.6,2.6,0,0,0-1.46-2.51l-1.15-.67-.09,0a10.87,10.87,0,0,0-2.35-.87l-.2-.21-.2-.17-.27-.2L49,35.52a7.17,7.17,0,0,0-1.4-.55l-.11,0h0l-.45-.11h0l-.39-.07L42.19,34l.19.09L42.19,34a9.1,9.1,0,0,0-3.64-.66h0c-1.06-.37-1.78-.63-2.76-1s-2.56-1-3.6-1.41S29.79,30,28,29.17c-1-.49-1.7-.82-2.14-1.05l-.39-.19a2.43,2.43,0,0,0,.14-.28,2.08,2.08,0,0,0,.12-.32v-.06a2.57,2.57,0,0,0,.08-.45h0a.22.22,0,0,0,0-.08c0-.06,0-.1,0-.15v0a1.51,1.51,0,0,0-.06-.36,1.76,1.76,0,0,0-.22-.46,2.79,2.79,0,0,0-.82-.79l-.13-.1a2.7,2.7,0,0,0,.14-1.29,2.2,2.2,0,0,0-.8-1.31l-3.89-3.18,0,0A6.21,6.21,0,0,0,16.41,18l-.9,1.91.74.6a16.37,16.37,0,0,0-3.05.75L9.8,19h0a20.28,20.28,0,0,0-8,4.6l4,2a7.24,7.24,0,0,0-.79.93,5.6,5.6,0,0,0-.59,1l-.12.27v0a2.12,2.12,0,0,1-.91-.83L0,27.41H0a2.86,2.86,0,0,0,2,2.11l-.06,0L7.4,31.77a7.56,7.56,0,0,0,2.39.47l0,0A14.22,14.22,0,0,0,12,32.19l.26.13a5.91,5.91,0,0,0,1.72.49,9.27,9.27,0,0,0,1.17.08c.31,0,.72,0,1-.06s.48,0,.8-.1h.12l.13,0,.36.24.9.61.88.62.83.61.81.62.75.59.11.08.36.29.26.21.67.55.58.5.09.08.54.47.54.48.14.13c.24.22.57.52.93.87l.21.2.08.08.28.27,0,0v.05l0,.28c0,.11.05.26.07.37l.08.23.14.29.12.19.18.23.15.16.18.17.17.13,0,0c.41.86.81,1.73,1.22,2.6a2.36,2.36,0,0,0,.24.4l.06.09.17.2.24.24.21.16.28.21.24.14.34.17.27.12.39.15.25.08.07.1.18.23.18.2.26.24.24.2.36.26.31.19,1.14.67c1.85,1.07,4.32,1.28,6.39,1.74a2.84,2.84,0,0,0,1.5.06,7.16,7.16,0,0,1,1.42-.52,13,13,0,0,0,1.85-.17C48.39,49.32,50,46.68,52.14,44.9ZM20.52,19.54a2.53,2.53,0,0,1,.28.47A2.53,2.53,0,0,0,20.52,19.54Zm3.17,3.18L21,20.58h0v0l2.72,2.13Z"/><path class="cls-3" d="M52.55,49.78c2.28-1.27,3.43-3,3.42-4.66V43.78c0-.11,0-.26,0-.37s0-.33-.06-.47l-.06-.33a3.89,3.89,0,0,0-.1-.4l-.09-.31c0-.1-.08-.24-.12-.34l-.06-.14.07-.22c0-.11.05-.26.07-.38l0-.28c0-.11,0-.26,0-.37v-.28c0-.11,0-.26,0-.37l0-.29c0-.11-.06-.26-.09-.38l-.1-.29-.06-.13a.83.83,0,0,1,0,.15,3.88,3.88,0,0,0-.3-.7l-1.9-3.32v0l0-.23c0-.09,0-.2-.07-.29L53,33.75c0-.09-.08-.22-.12-.32l-.13-.27-.2-.36-.19-.28c-.09-.13-.23-.3-.33-.43l-.26-.28-.06,0h0a1.8,1.8,0,0,1,0-.19c0-.09,0-.18-.07-.27s-.07-.27-.1-.39l0-.08c-.16-.67-.29-1.26-.38-1.64s-.12-.55-.17-.78v-.06l-.15-.73a1.7,1.7,0,0,0,0-.22c-.05-.25-.1-.54-.15-.77l-.16-.95-.1-.59,0-.22,0-.21-.15-1c0-.32-.11-.74-.15-1.06v0l-.13-1.08c0-.33-.08-.77-.11-1.11v0l-.09-1.13c0-.13,0-.29,0-.45l.07,0,0,0h0l.21-.12-.08.05a5.65,5.65,0,0,0,.48-.32,6.65,6.65,0,0,0,.65-.54,4,4,0,0,0,.6-.76,3.52,3.52,0,0,0,.5-1.5s0-.15,0-.3A6.42,6.42,0,0,0,53.44,14l0,0a4.07,4.07,0,0,0,.9-1.86l.91-5.46a.14.14,0,0,0,0,.06,3.94,3.94,0,0,0-1-3.28h0l-2.42,1.4L51.66,6l-.06,0a11.92,11.92,0,0,0-1.15-.56h0A9,9,0,0,0,49,4.88L49.34.6a17.59,17.59,0,0,0-9.22,0h0l.28,4.24h0a9.29,9.29,0,0,0-2.51,1l-.17-1a2.62,2.62,0,0,0-.26.74,2.62,2.62,0,0,1,.26-.74l-2.44-1.4a3.93,3.93,0,0,0-1,3.29v0c.31,1.81.62,3.64.94,5.45A3.81,3.81,0,0,0,36.07,14a6.42,6.42,0,0,0,1.37,1.17l0,.21a3.6,3.6,0,0,0,.31,1.28,3.47,3.47,0,0,0,.34.59,3,3,0,0,0,.3.38h0l0,0,.15.17,0,0,0,.05.15.13.17.14.16.13.09.06a3.57,3.57,0,0,0,.38.25l.36.2c0,.15,0,.3,0,.42,0,.48-.09,1.2-.2,2.29-.19,1.85-.4,3.17-.57,4.23s-.48,2.66-.67,3.52-.36,1.62-.6,2.59a.6.6,0,0,1-.08.08,4.73,4.73,0,0,0-1.38,2.72l0,.2h0a1.36,1.36,0,0,1,0-.2L34.6,37.94a4.35,4.35,0,0,0-.32.74.13.13,0,0,0,0-.06l0,.08A4.78,4.78,0,0,0,34,40.08c0,.13,0,.31,0,.44s0,.26,0,.37l0,.28.09.33a7,7,0,0,0-.48,2.23v.12h0v1.33a4.64,4.64,0,0,0,1.67,3.37h0l0,0a8.68,8.68,0,0,0,.85.67l.08.07.47.29a11.46,11.46,0,0,0,1.61.79c.18.08.38.14.57.21s.59.22.9.31l.32.07.68.16.68.16v0A17.32,17.32,0,0,0,52.55,49.78Z"/><path class="cls-4" d="M33.73,43.85c0,1.6,1,3.2,3.09,4.44,4.26,2.56,11.29,2.63,15.73.16,2.28-1.27,3.42-3,3.42-4.67v1.34c0,1.69-1.14,3.39-3.42,4.66-4.43,2.47-11.47,2.4-15.72-.16-2.07-1.24-3.09-2.84-3.1-4.44Z"/><path class="cls-5" d="M56,43.41c0-.14,0-.33-.06-.47l-.06-.33a3.89,3.89,0,0,0-.1-.4l-.09-.31c0-.1-.08-.24-.12-.34l-.11-.27L55.29,41l-.13-.24L55,40.51l-.13-.2-.13-.22-.12-.17c0-.06-.08-.13-.12-.18l-.11-.15a1.34,1.34,0,0,1-.11-.14l-.1-.12-.09-.11-.07-.08L54,39.07a4.06,4.06,0,0,1,1.15,2.73c0,1.58-1,3.15-3.17,4.33-4.1,2.29-10.62,2.22-14.56-.15-1.91-1.15-2.86-2.63-2.87-4.12a4.13,4.13,0,0,1,1.14-2.74l-.06.07-.07.08-.09.1a1,1,0,0,1-.09.13l-.11.14-.11.15L35,40l-.13.19-.12.2-.13.22-.12.23c0,.08-.1.18-.13.26a1.3,1.3,0,0,0-.08.17,7.18,7.18,0,0,0-.59,2.5v.12c0,1.6,1,3.2,3.09,4.44,4.26,2.56,11.29,2.63,15.73.16,2.28-1.27,3.42-3,3.42-4.67C56,43.67,56,43.52,56,43.41Z"/><path class="cls-6" d="M41.42,49.83c-.85-.89-.06-2.25,0-2.34h0A12.54,12.54,0,0,1,37.41,46a8,8,0,0,1-1.27-.93h0c.08.11.34,2.19-.76,2.16a8.2,8.2,0,0,0,1.43,1.07A14.07,14.07,0,0,0,41.59,50l-.17-.15Z"/><path class="cls-6" d="M35.39,47.22v1.34a7.69,7.69,0,0,0,1,.77V48a7.64,7.64,0,0,1-1-.77Z"/><path class="cls-6" d="M36.36,48v1.34l.47.29a12.37,12.37,0,0,0,3.08,1.31V49.59a12.52,12.52,0,0,1-3.08-1.3l-.46-.3Z"/><path class="cls-6" d="M39.9,49.59v1.34a15.21,15.21,0,0,0,1.68.39V50a15.39,15.39,0,0,1-1.69-.39Z"/><path class="cls-7" d="M50.27,47.52a5.2,5.2,0,0,0-2,.45c-.11.06-.73.55-.44,1,.54.75,3.06.13,3.17-.79C51.05,48,51,47.65,50.27,47.52Z"/><path class="cls-6" d="M55,40.77a5.79,5.79,0,0,0-2.71-3.08c-3.06-1.84-7.66-2.29-11.49-1.34a12.89,12.89,0,0,0-3.08,1.19A8.2,8.2,0,0,0,36,38.78,4.22,4.22,0,0,0,34.55,42a4.63,4.63,0,0,0,2,3.36,6.73,6.73,0,0,0,.73.51l.11.07a12.76,12.76,0,0,0,4.18,1.52,17.56,17.56,0,0,0,3.63.3A14.93,14.93,0,0,0,52,46.13a8.59,8.59,0,0,0,1.73-1.26,4.72,4.72,0,0,0,1.29-2A3.56,3.56,0,0,0,55,40.77Zm-2.13,3.3a7.49,7.49,0,0,1-1.56,1.14,13.41,13.41,0,0,1-6.12,1.51,15.57,15.57,0,0,1-3.28-.26,11.79,11.79,0,0,1-3.79-1.38L38,45c-.24-.15-.46-.31-.66-.46a4.21,4.21,0,0,1-1.83-3.05,3.82,3.82,0,0,1,1.32-3,7.53,7.53,0,0,1,1.54-1.11,11.24,11.24,0,0,1,2.79-1.08,14.5,14.5,0,0,1,10.4,1.21A5.19,5.19,0,0,1,54,40.36a3.17,3.17,0,0,1,0,1.88A4.26,4.26,0,0,1,52.86,44.07Z"/><path class="cls-5" d="M53.19,35v-.21a1.94,1.94,0,0,0,0-.24l0-.23c0-.09,0-.2-.07-.29L53,33.75c0-.09-.08-.22-.12-.32l-.13-.27-.2-.36-.19-.28c-.09-.13-.23-.3-.33-.43l-.26-.28-.19-.17a3.07,3.07,0,0,1,1,3.14,4.55,4.55,0,0,1-2.31,2.52,12.31,12.31,0,0,1-11.15-.11,4.41,4.41,0,0,1-2.07-2.37,3.05,3.05,0,0,1,1-3.11,5,5,0,0,0-1.55,2.9l0,.21v.38c0,.07,0,.15,0,.21l0,.16c0,.06,0,.12,0,.18l0,.13,0,.14,0,.1a.94.94,0,0,1,0,.09,1.83,1.83,0,0,1,0-.19,1.83,1.83,0,0,0,0,.19,4.56,4.56,0,0,0,2.2,2.5,13,13,0,0,0,11.79.12A4.78,4.78,0,0,0,53,36.16l0-.09a.36.36,0,0,0,0-.1l0-.12,0-.15,0-.16a1.24,1.24,0,0,1,0-.18v-.18A.74.74,0,0,0,53.19,35Z"/><path class="cls-6" d="M43.17,40.09c-.87-.19-1.68-1-1-1.5l.14-.1.19-.1a9.78,9.78,0,0,1-3.42-1.2,5.85,5.85,0,0,1-1.32-1.07l.12.29c.26.71.32.86.22,1.11s-.51.15-.7.06a.52.52,0,0,1-.11-.07,5.85,5.85,0,0,0,1.47,1.2,11,11,0,0,0,4.43,1.39Z"/><path class="cls-3" d="M36.55,36v0Zm0-.08a.15.15,0,0,1,0-.07Zm0-.07s0-.05,0-.07S36.52,35.83,36.53,35.85Zm0-.09v0Zm0-.07s0-.1,0-.15S36.5,35.64,36.5,35.69Zm0-.17v0Zm18.57,2.36c-.77-1.35-1.55-2.7-2.32-4.06,1,1.71.25,3.68-2.14,5a13,13,0,0,1-11.79-.12,4.61,4.61,0,0,1-2.2-2.51h0v-.05l0-.06h0l0-.06a2.76,2.76,0,0,1-.08-.44,4,4,0,0,1,0-.78,1.36,1.36,0,0,1,0-.2L34.6,37.94c-1.19,2.12-.38,4.54,2.47,6.25,4.11,2.48,10.93,2.55,15.22.16C55.38,42.62,56.32,40.09,55.06,37.88ZM36.56,36h0v0Zm-.08-.65a.17.17,0,0,1,0-.07A.17.17,0,0,0,36.48,35.37Zm0-.09v0Zm0-.08v0Zm0-.07v0Zm0-.09v0Zm0-.07s0,0,0-.08S36.52,34.94,36.51,35Zm0-.09v0Zm0-.08,0,0Zm0-.07a.24.24,0,0,1,0-.08A.24.24,0,0,0,36.56,34.73Zm0-.09,0-.06Zm0-.08,0-.05Zm0-.07,0-.07Zm0-.09,0,0Zm0-.08,0,0Zm0-.07,0-.07Zm0-.08,0-.06Zm0-.08,0-.05Zm0-.07,0-.07Zm0-.09,0,0Zm-.38,1.44a.22.22,0,0,0,0,.08A.22.22,0,0,1,36.48,35.37Z"/><path class="cls-3" d="M55.66,39.89c0-.11,0-.26,0-.37l0-.29c0-.11-.06-.26-.09-.38l-.1-.29-.06-.13c.83,2.07-.19,4.33-3,5.92a12.82,12.82,0,0,1-1.68.76,17.57,17.57,0,0,1-11.52,0,11.71,11.71,0,0,1-2-1c-2.55-1.53-3.46-3.63-2.78-5.57l0,.08A4.78,4.78,0,0,0,34,40.08c0,.13,0,.31,0,.44s0,.26,0,.37l0,.28c0,.11.07.26.11.37l.1.3.18.39.17.3c.08.13.19.31.28.43l.25.32c.13.15.31.35.46.5l.36.34a10.38,10.38,0,0,0,1.2.85l.55.31c.23.11.53.26.77.36l.64.26.06,0a.16.16,0,0,1-.11-.09.16.16,0,0,0,.11.09,17.16,17.16,0,0,0,11.21,0l.63-.25,1-.51.49-.29A8.86,8.86,0,0,0,54,43.73l.28-.3c.13-.16.3-.36.42-.52l.2-.3c.07-.13.18-.3.25-.44l.13-.29c0-.12.11-.28.15-.4l.08-.28c0-.11.05-.26.07-.38l0-.28c0-.11,0-.26,0-.37Z"/><path class="cls-6" d="M38.06,38.2l-2,5.33a9,9,0,0,0,1,.66l0,0,1.73-5.48,0,0a6.15,6.15,0,0,1-.75-.51Z"/><path class="cls-6" d="M38.83,38.73,37.1,44.21a11.64,11.64,0,0,0,2.2,1l1.23-5.71a9.1,9.1,0,0,1-1.7-.78Z"/><path class="cls-6" d="M40.53,39.51,39.3,45.22a14.72,14.72,0,0,0,1.82.5l.82-5.82a13.34,13.34,0,0,1-1.41-.39Z"/><path class="cls-7" d="M49,38.39c-.34-.11-2.94.36-3.08.73a.17.17,0,0,0,0,.1c.27.51,3-.06,3.21-.66a.14.14,0,0,0,0-.11.23.23,0,0,0-.12-.06Z"/><path class="cls-7" d="M46.26,40.11,46.78,46a6.56,6.56,0,0,0,3.75-.74l-1.32-5.79A9.53,9.53,0,0,1,46.26,40.11Z"/><path class="cls-6" d="M50.51,30.85a12.24,12.24,0,0,0-11.15-.11c-3.14,1.75-3.24,4.64-.23,6.45a12.31,12.31,0,0,0,11.15.11C53.42,35.55,53.52,32.66,50.51,30.85Z"/><path class="cls-3" d="M41,18.79s.25.15.58.29a4.53,4.53,0,0,0,.67.24l.38.11.38.08.39.07a8.39,8.39,0,0,0,1.24.09,8.81,8.81,0,0,0,1.25-.07,8.23,8.23,0,0,0,1.17-.23,6.37,6.37,0,0,0,1-.38,5,5,0,0,0,.56-.31,3.66,3.66,0,0,0,.41-.32,3.35,3.35,0,0,0,.27-.31,1.5,1.5,0,0,0,.16-.3,1.14,1.14,0,0,0,0,.27c0,.35.05.81.07,1.16.05.63.1,1.29.21,2.28s.2,1.66.28,2.18c.1.73.14,1,.32,2s.51,2.77.68,3.51.54,2.38,1,3.87c.39,1.34-.33,2.77-2.15,3.79a11.45,11.45,0,0,1-10.37-.1c-1.67-1-2.31-2.37-1.94-3.65.09-.32.22-.79.25-.92.31-1.19.47-1.91.7-3,.19-.86.5-2.48.67-3.52s.38-2.38.57-4.23c.11-1.09.16-1.81.2-2.29S40,18.37,40,18a2,2,0,0,0,0-.26,1.44,1.44,0,0,0,.37.56A3.5,3.5,0,0,0,41,18.79Z"/><path class="cls-6" d="M52,32.78c-.11-.39-.12-.39-.18-.63l-.12-.45-.13-.52-.15-.59c0-.2-.11-.47-.15-.67l-.17-.73-.17-.8-.17-.85c0-.27-.13-.64-.18-.91l-.16-.95-.17-1-.15-1c0-.32-.11-.75-.15-1.08l-.13-1.1c0-.34-.08-.8-.12-1.14l-.09-1.14c0-.35,0-.83-.07-1.18v-.08a1,1,0,0,1,0-.17l0,.07-.06.12-.07.11-.14.17-.13.14-.21.17-.2.15-.28.17-.28.14-.33.15-.33.12-.37.11-.37.09-.4.08-.4.06-.41,0-.42,0h-.84l-.42,0-.4-.05-.4-.07-.37-.08-.38-.11-.33-.1-.34-.14L41.32,19l-.3-.16-.21-.15-.25-.18-.15-.14-.15-.17L40.18,18l0,0,0,0C42,20.88,39,36.21,38.89,36.31a6.51,6.51,0,0,0,.64.44,8.92,8.92,0,0,0,2.79,1l0-.13c0-.1,1-17,1.06-17.07.15-.41.15-.41,2.78-.92a5.72,5.72,0,0,0,3.08-1.42s0-.09.1-.09.08,0,.16,1a74.07,74.07,0,0,0,1.28,9.55c.45,2.35.8,3.67,1.32,5.67a2.48,2.48,0,0,0,0-1.35L52,33a1.33,1.33,0,0,1-.05-.19Z"/><path class="cls-5" d="M51.56,31.64a3.87,3.87,0,0,0-.37-.32Z"/><path class="cls-5" d="M38,31.71l0,0Z"/><path class="cls-5" d="M38.13,31.61l-.06.07.19-.18Z"/><path class="cls-3" d="M39.64,18.56a8.55,8.55,0,0,0,1.83.8c.37.1.71.19,1,.25l.52.09c.69.08.69.08,1.07.1a10.66,10.66,0,0,0,1.08,0l.55,0a9.64,9.64,0,0,0,1.06-.13s.48-.08,1-.23c.29-.08.68-.22,1-.33a7.11,7.11,0,0,0,1.52-.82,6.65,6.65,0,0,0,.65-.54,4,4,0,0,0,.6-.76,3.52,3.52,0,0,0,.5-1.5A5.77,5.77,0,0,0,52,13.74c0,.06-2,1.21-3.67,2.12-2.81,1.57-4.25,1-6.95-.63.06-2.82-3.61-1.62-3.79-1.45-.39.36-.13,1.1-.09,1.55a3.6,3.6,0,0,0,.31,1.28,3.47,3.47,0,0,0,.34.59,4.67,4.67,0,0,0,.48.57,7,7,0,0,0,.66.54A3.57,3.57,0,0,0,39.64,18.56Z"/><path class="cls-6" d="M49.27,8.26a9.93,9.93,0,0,0-9,0c-2.48,1.43-2.46,3.76,0,5.2a10,10,0,0,0,9,0C51.78,12,51.76,9.7,49.27,8.26Z"/><path class="cls-6" d="M49.18,11.54l4.21-2.43a7.05,7.05,0,0,0-1.84-1.48A11.8,11.8,0,0,0,48.9,6.54L44.71,9l-4.2-2.42a11.16,11.16,0,0,0-2.6,1.06,7,7,0,0,0-1.85,1.5l4.2,2.43L36.07,14A7.07,7.07,0,0,0,38,15.48a11.56,11.56,0,0,0,2.57,1.06l4.21-2.43L49,16.57a11.18,11.18,0,0,0,2.6-1.07h0A7,7,0,0,0,53.44,14Z"/><path class="cls-6" d="M49.29,10l4.32-2.5A7.27,7.27,0,0,0,51.72,6,11.58,11.58,0,0,0,49,4.88L44.7,7.36,40.4,4.87A11.5,11.5,0,0,0,37.74,6a7.41,7.41,0,0,0-1.9,1.54L40.15,10l-4.3,2.48A6.94,6.94,0,0,0,37.78,14a11.45,11.45,0,0,0,2.63,1.09l4.32-2.49,4.37,2.52a11.77,11.77,0,0,0,2.67-1.09h0a7.52,7.52,0,0,0,1.89-1.54Z"/><path class="cls-6" d="M35.28,8.74,36.07,14a3.81,3.81,0,0,1-.84-1.79c-.32-1.81-.63-3.64-.94-5.45A4.28,4.28,0,0,0,35.28,8.74Z"/><path class="cls-3" d="M49.18,11.59l.14,0-.32,5c-.27.08-.55.15-.82.21s-.61.12-.92.17-.42.07-.63.09-.63.06-1,.08A15.82,15.82,0,0,1,41,16.69l-.4-.1h0l-.26-5,.29.08a17.54,17.54,0,0,0,5.19.46c.46,0,.91-.07,1.36-.13l.37-.05.34-.06.34-.06.33-.07h0l.32-.07Z"/><path class="cls-3" d="M49.32,11.55l.11,0-.11,0Z"/><path class="cls-3" d="M51.22,10.85l.31-.14-.14.07Z"/><path class="cls-3" d="M55.2,6.65l-.91,5.46a4.39,4.39,0,0,1-1.6,2.58l1.48-5.95h0A4.37,4.37,0,0,0,55.2,6.65Z"/><path class="cls-3" d="M49.18,11.59l.14,0-.32,5c-.27.08-.55.15-.82.21s-.61.12-.92.17-.42.07-.63.09-.63.06-1,.08l.07-5c.46,0,.91-.07,1.36-.13l.37-.05.34-.06.34-.06.33-.07h0l.32-.07Z"/><path class="cls-6" d="M41,16.8c-.14,0-.27-.18-.4-.21h0s-.38-5-.43-5l.17,0,.29.08Z"/><path class="cls-3" d="M39.64,18.56a8.55,8.55,0,0,0,1.83.8c.37.1.71.19,1,.25l.52.09c.69.08.69.08,1.07.1a10.66,10.66,0,0,0,1.08,0l.55,0a9.64,9.64,0,0,0,1.06-.13s.48-.08,1-.23c.29-.08.68-.22,1-.33a7.11,7.11,0,0,0,1.52-.82,6.65,6.65,0,0,0,.65-.54,4,4,0,0,0,.6-.76,3.52,3.52,0,0,0,.5-1.5A5.77,5.77,0,0,0,52,13.74c0,.06.23,1.3-.19,1.55.22,1.21-.49,2.47-2.13,3.38a11,11,0,0,1-10-.1c-1.49-.9-2.13-2.09-1.93-3.24-.42-.25-.2-1.49-.19-1.55a6.41,6.41,0,0,0-.09,1.55,3.6,3.6,0,0,0,.31,1.28,3.47,3.47,0,0,0,.34.59,4.67,4.67,0,0,0,.48.57,7,7,0,0,0,.66.54A3.57,3.57,0,0,0,39.64,18.56Z"/><path class="cls-8" d="M37.15,14.07A4.74,4.74,0,0,0,39,16a12.37,12.37,0,0,0,11.21.11,5.07,5.07,0,0,0,2.13-2l-.66,1.32a4.54,4.54,0,0,1-1.94,1.86,11.27,11.27,0,0,1-10.24-.1,4.44,4.44,0,0,1-1.73-1.72Z"/><path class="cls-9" d="M37.72,4.85l-2.44-1.4a3.88,3.88,0,0,0,0,5.28h0l2.43-1.4A2.55,2.55,0,0,1,37.72,4.85Z"/><path class="cls-9" d="M49.29.64a.1.1,0,0,1,.05,0,17.59,17.59,0,0,0-9.22,0h0L42.54,2A12.52,12.52,0,0,1,46.9,2L49.29.64Z"/><path class="cls-9" d="M42.58,10.15h0l-2.44,1.41a17.54,17.54,0,0,0,9.18,0l-2.43-1.41A12.48,12.48,0,0,1,42.58,10.15Z"/><path class="cls-10" d="M37.72,4.85l.53,3.23A2.7,2.7,0,0,1,37.72,4.85Z"/><path class="cls-3" d="M47.69,8.11l2.5.81-.37.22a9.48,9.48,0,0,1-2.93,1,12.16,12.16,0,0,1-5.67-.32,8.19,8.19,0,0,1-1.14-.45l2.06-1.85h0L42.54,2l.14,0,.39-.06.32,0h.09A12.62,12.62,0,0,1,46.9,2l.42,5.48Z"/><path class="cls-6" d="M49.39,8.33a10,10,0,0,0-9.08-.1,5.24,5.24,0,0,0-1,.72l.13.09a11.47,11.47,0,0,0,10.38.1l.37-.22A5,5,0,0,0,49.39,8.33Z"/><path class="cls-11" d="M42.26,2.08l.13,0-.32.06Z"/><path class="cls-3" d="M43.65,7.25c-.36,0-.72.09-1.06.16l-.16,0-.29.07h0L42.54,2l-.15,0,.15,0,.14,0,.39-.06.32,0h.09Z"/><path class="cls-3" d="M34.34,38.51l.12-.3C34.42,38.3,34.38,38.41,34.34,38.51Z"/><path class="cls-3" d="M34.29,38.62l.05-.11Z"/><path class="cls-3" d="M55.32,38.43a1.42,1.42,0,0,0-.08-.18A1.42,1.42,0,0,1,55.32,38.43Z"/><path class="cls-3" d="M55.24,38.25a.3.3,0,0,0,0-.1A.42.42,0,0,1,55.24,38.25Z"/><path class="cls-6" d="M49,19a10.93,10.93,0,0,1-5.51.69c-2.75-.4-2.38-1.82-2.37-1.84s.1,0,.14,0a8,8,0,0,1-1.63-.72l.12.09s0,0,.06.05-.37,1-1.09.53a1.14,1.14,0,0,1-.27-.24l.28.28a6.18,6.18,0,0,0,1,.71l.42.23.45.22.47.18.49.17.5.13.51.12.53.09.53.06.54,0,.54,0h.54a5.07,5.07,0,0,0,.55,0l.53-.05.53-.08.52-.1.51-.13.5-.15.48-.18.46-.2.45-.23.21-.12-.43.24L49,19Z"/><path class="cls-6" d="M39.32,16.12l.48,1.14a8.41,8.41,0,0,0,1.26.55l-.35-1.08a8.72,8.72,0,0,1-1.39-.61Z"/><path class="cls-7" d="M45.55,38s.22-14.39.89-15.64,1.86,10.36,2.21,12.23.45,2.63.45,2.63A8.27,8.27,0,0,1,45.55,38Z"/><path class="cls-7" d="M48.75,17.6a.17.17,0,0,1,.15.27,2.07,2.07,0,0,1-1.14.61c-1.18.29-1.58.05-1.58-.17S46.8,17.79,48.75,17.6Z"/><polygon class="cls-12" points="37.71 7.32 38.24 8.07 39.31 12.58 36.07 13.95 35.28 8.72 37.71 7.32"/><polygon class="cls-6" points="40.12 0.63 40.51 6.54 42.15 7.51 42.54 2.03 40.12 0.63"/><polygon class="cls-8" points="46.9 2.01 47.32 7.49 48.9 6.54 49.34 0.6 46.9 2.01"/><path class="cls-6" d="M35.85,12.47s.85,1.5,4.56,2.66L41,16.8A13.38,13.38,0,0,1,36.07,14,4.33,4.33,0,0,1,35.85,12.47Z"/><path class="cls-3" d="M53.28,12.31a7.66,7.66,0,0,1-4.18,2.85c-3,.88-.1,1.4-.1,1.4a9,9,0,0,0,3.69-1.87A3.5,3.5,0,0,0,53.28,12.31Z"/><path class="cls-9" d="M49,4.88l-1.8,1L51.38,8.8l.37-1.46a2.31,2.31,0,0,0,.33-1.13A11.13,11.13,0,0,0,49,4.88Z"/><polygon class="cls-6" points="51.77 4.84 51.38 8.8 52.38 7.52 52.69 5.34 51.77 4.84"/><path class="cls-9" d="M54.21,3.43h0l-2.42,1.4a2.56,2.56,0,0,1,0,2.5l2.42,1.4A3.88,3.88,0,0,0,54.21,3.43Z"/><polygon class="cls-12" points="51.75 7.34 50.27 13.29 52.69 14.69 54.17 8.74 51.75 7.34"/><path class="cls-9" d="M53.28,12.31l-2.42-1.4-1.54.64-.23,3.62S53.31,13.83,53.28,12.31Z"/><path class="cls-12" d="M51,10.39s0-1.82-3.67-2.9L47.2,5.92S51.45,7.4,51.38,8.8Z"/><path class="cls-10" d="M38.47,9l.19.82a5.69,5.69,0,0,1,3.49-2.33l.11-1.59S38.36,7.15,38.47,9Z"/><path class="cls-9" d="M42.26,5.92l-1.86-1a9.29,9.29,0,0,0-2.51,1c.11.68.58,3.14.58,3.14S38.15,7.34,42.26,5.92Z"/><path class="cls-9" d="M35.85,12.47l3-1.73s-.1.82,1.27,1.27c0,.18.25,3.12.25,3.12S36.61,14.12,35.85,12.47Z"/><path class="cls-13" d="M55.58,40.19A3.5,3.5,0,0,1,55.1,42a6.3,6.3,0,0,1-1.23,1.44,10.77,10.77,0,0,1-3.26,1.89,13.66,13.66,0,0,1-7.41.59,17,17,0,0,0,7.26-1,11.57,11.57,0,0,0,3.2-1.75A4.54,4.54,0,0,0,55.58,40.19Z"/></g></g></g></svg>