<svg xmlns="http://www.w3.org/2000/svg" viewBox="0 0 400 320" fill="none">
  <defs>
    <linearGradient id="wood" x1="0%" y1="0%" x2="100%" y2="100%">
      <stop offset="0%" stop-color="#8B6914"/>
      <stop offset="100%" stop-color="#5C4A1a"/>
    </linearGradient>
  </defs>
  <g transform="rotate(-8 200 160)">
    <rect x="50" y="220" width="300" height="20" rx="3" fill="url(#wood)"/>
    <rect x="60" y="80" width="280" height="145" rx="3" fill="url(#wood)" stroke="#4a3a12" stroke-width="2"/>
    <rect x="70" y="90" width="35" height="35" fill="#f0d9b5"/>
    <rect x="105" y="90" width="35" height="35" fill="#b58863"/>
    <rect x="140" y="90" width="35" height="35" fill="#f0d9b5"/>
    <rect x="175" y="90" width="35" height="35" fill="#b58863"/>
    <rect x="210" y="90" width="35" height="35" fill="#f0d9b5"/>
    <rect x="245" y="90" width="35" height="35" fill="#b58863"/>
    <rect x="280" y="90" width="35" height="35" fill="#f0d9b5"/>
    <rect x="315" y="90" width="35" height="35" fill="#b58863"/>
    <rect x="70" y="125" width="35" height="35" fill="#b58863"/>
    <rect x="105" y="125" width="35" height="35" fill="#f0d9b5"/>
    <rect x="140" y="125" width="35" height="35" fill="#b58863"/>
    <rect x="175" y="125" width="35" height="35" fill="#f0d9b5"/>
    <rect x="210" y="125" width="35" height="35" fill="#b58863"/>
    <rect x="245" y="125" width="35" height="35" fill="#f0d9b5"/>
    <rect x="280" y="125" width="35" height="35" fill="#b58863"/>
    <rect x="315" y="125" width="35" height="35" fill="#f0d9b5"/>
    <rect x="70" y="160" width="35" height="35" fill="#f0d9b5"/>
    <rect x="105" y="160" width="35" height="35" fill="#b58863"/>
    <rect x="140" y="160" width="35" height="35" fill="#f0d9b5"/>
    <rect x="175" y="160" width="35" height="35" fill="#b58863"/>
    <rect x="210" y="160" width="35" height="35" fill="#f0d9b5"/>
    <rect x="245" y="160" width="35" height="35" fill="#b58863"/>
    <rect x="280" y="160" width="35" height="35" fill="#f0d9b5"/>
    <rect x="315" y="160" width="35" height="35" fill="#b58863"/>
    <circle cx="130" cy="145" r="14" fill="#1a1a1a"/>
    <circle cx="250" cy="175" r="12" fill="#fff" stroke="#ccc" stroke-width="1.5"/>
    <circle cx="190" cy="110" r="11" fill="#1a1a1a" opacity="0.85"/>
  </g>
</svg>
