<svg xmlns="http://www.w3.org/2000/svg" viewBox="0 0 120.42 87.25"><defs><style>.cls-1{isolation:isolate;}.cls-2{fill:#875f41;}.cls-3{fill:#bf9c7c;}.cls-4{fill:#6e4831;}.cls-5{fill:#ebecd0;}.cls-6{fill:#8c6148;}.cls-7{fill:#e0d4a4;}.cls-8{fill:#86a4b5;}.cls-9{fill:#6e92a6;}.cls-10{fill:#4a7790;}.cls-11{fill:#0f0f0f;}.cls-12{fill:#282828;}.cls-13{fill:#242424;}.cls-14{fill:#323232;}.cls-15{fill:#ccc;}.cls-16{fill:#c8d2db;}.cls-17{fill:#ff223d;}.cls-18{fill:#b30b29;}.cls-19{fill:#9ca4ab;}.cls-20{fill:#bcc6cf;}.cls-21{fill:#171717;}.cls-22{fill:#ff454c;}.cls-23{fill:#7d001f;}.cls-24{fill:#dd2f36;}.cls-25{fill:#474747;}.cls-26{fill:#a6a6a6;mix-blend-mode:multiply;}.cls-27{fill:#1f1f1f;}.cls-28{fill:#191919;}.cls-29{fill:#5b5b5b;}.cls-30{fill:#141414;}.cls-31{fill:#2c2c2c;}.cls-32{fill:#262626;}.cls-33{fill:#1c1c1c;}.cls-34{fill:#8b8b8b;}.cls-35{fill:#212121;}.cls-36{fill:#6f6f6f;}.cls-37{fill:#1a1a1a;}.cls-38{fill:#979797;}.cls-39{fill:#3b3b3b;}.cls-40{fill:#3d3d3d;}.cls-41{fill:#aeb1b3;}.cls-42{fill:#d2d5d6;}.cls-43{fill:#f5f9fa;}.cls-44{fill:#e6eaeb;}.cls-45{fill:#cdd0d1;}.cls-46{fill:#babdbd;}.cls-47{fill:#7a7c7d;}.cls-48{fill:#f7fafb;}.cls-49{fill:#fff;}</style></defs><g class="cls-1"><g id="Capa_2" data-name="Capa 2"><g id="layer"><polygon class="cls-2" points="80.45 85.9 0 39.45 0 31.63 80.45 78.08 80.45 85.9"/><polygon class="cls-3" points="80.45 85.9 120.42 62.82 120.42 55 80.45 78.08 80.45 85.9"/><polygon class="cls-4" points="120.42 55 80.45 78.08 0 31.63 39.97 8.55 120.42 55"/><polygon class="cls-4" points="120.42 55 80.45 78.08 75.39 75.16 110.34 54.98 120.42 55"/><polygon class="cls-4" points="40.01 14.37 5.05 34.55 0 31.63 39.97 8.55 40.01 14.37"/><polygon class="cls-2" points="80.45 77.34 0 30.9 0 23.08 80.45 69.53 80.45 77.34"/><polygon class="cls-3" points="80.45 77.34 120.42 54.27 120.42 46.45 80.45 69.53 80.45 77.34"/><polygon class="cls-5" points="120.42 46.45 80.45 69.52 0 23.08 39.97 0 120.42 46.45"/><polygon class="cls-6" points="110.34 46.43 75.39 66.61 5.05 26 40.01 5.82 110.34 46.43"/><polygon class="cls-5" points="108.08 46.42 74.26 65.95 6.19 26.65 40.01 7.13 108.08 46.42"/><polygon class="cls-6" points="98.3 41.62 106.62 46.42 98.35 51.2 90.02 46.39 98.3 41.62"/><polygon class="cls-5" points="89.97 36.81 98.3 41.62 90.02 46.39 81.7 41.59 89.97 36.81"/><polygon class="cls-6" points="81.64 32 89.97 36.81 81.7 41.59 73.37 36.78 81.64 32"/><polygon class="cls-5" points="73.32 27.19 81.64 32 73.37 36.78 65.05 31.97 73.32 27.19"/><polygon class="cls-6" points="64.99 22.39 73.32 27.19 65.05 31.97 56.72 27.16 64.99 22.39"/><polygon class="cls-5" points="56.67 17.58 64.99 22.39 56.72 27.16 48.39 22.36 56.67 17.58"/><polygon class="cls-6" points="48.34 12.77 56.67 17.58 48.39 22.36 40.07 17.55 48.34 12.77"/><polygon class="cls-5" points="40.02 7.97 48.34 12.77 40.07 17.55 31.74 12.74 40.02 7.97"/><polygon class="cls-6" points="31.8 22.33 23.47 17.52 31.74 12.74 40.07 17.55 31.8 22.33"/><polygon class="cls-5" points="40.12 27.13 31.8 22.33 40.07 17.55 48.39 22.36 40.12 27.13"/><polygon class="cls-6" points="48.45 31.94 40.12 27.13 48.39 22.36 56.72 27.16 48.45 31.94"/><polygon class="cls-5" points="56.77 36.75 48.45 31.94 56.72 27.16 65.05 31.97 56.77 36.75"/><polygon class="cls-6" points="65.1 41.55 56.77 36.75 65.05 31.97 73.37 36.78 65.1 41.55"/><polygon class="cls-5" points="73.42 46.36 65.1 41.55 73.37 36.78 81.7 41.59 73.42 46.36"/><polygon class="cls-6" points="81.75 51.17 73.42 46.36 81.7 41.59 90.02 46.39 81.75 51.17"/><polygon class="cls-5" points="90.07 55.98 81.75 51.17 90.02 46.39 98.35 51.2 90.07 55.98"/><polygon class="cls-6" points="81.75 51.17 90.07 55.98 81.8 60.75 73.47 55.95 81.75 51.17"/><polygon class="cls-5" points="73.42 46.36 81.75 51.17 73.47 55.95 65.15 51.14 73.42 46.36"/><polygon class="cls-6" points="65.1 41.55 73.42 46.36 65.15 51.14 56.82 46.33 65.1 41.55"/><polygon class="cls-5" points="56.77 36.75 65.1 41.55 56.82 46.33 48.5 41.52 56.77 36.75"/><polygon class="cls-6" points="48.45 31.94 56.77 36.75 48.5 41.52 40.17 36.72 48.45 31.94"/><polygon class="cls-5" points="40.12 27.13 48.45 31.94 40.17 36.72 31.85 31.91 40.12 27.13"/><polygon class="cls-6" points="31.8 22.33 40.12 27.13 31.85 31.91 23.52 27.1 31.8 22.33"/><polygon class="cls-5" points="23.47 17.52 31.8 22.33 23.52 27.1 15.2 22.3 23.47 17.52"/><polygon class="cls-6" points="15.25 31.88 6.92 27.07 15.2 22.3 23.52 27.1 15.25 31.88"/><polygon class="cls-5" points="23.57 36.69 15.25 31.88 23.52 27.1 31.85 31.91 23.57 36.69"/><polygon class="cls-6" points="31.9 41.49 23.57 36.69 31.85 31.91 40.17 36.72 31.9 41.49"/><polygon class="cls-5" points="40.22 46.3 31.9 41.49 40.17 36.72 48.5 41.52 40.22 46.3"/><polygon class="cls-6" points="48.55 51.11 40.22 46.3 48.5 41.52 56.82 46.33 48.55 51.11"/><polygon class="cls-5" points="56.88 55.91 48.55 51.11 56.82 46.33 65.15 51.14 56.88 55.91"/><polygon class="cls-6" points="65.2 60.72 56.88 55.91 65.15 51.14 73.47 55.95 65.2 60.72"/><polygon class="cls-5" points="73.53 65.53 65.2 60.72 73.47 55.95 81.8 60.75 73.53 65.53"/><polygon class="cls-7" points="120.42 46.45 80.45 69.52 75.39 66.61 110.34 46.43 120.42 46.45"/><polygon class="cls-7" points="40.01 5.82 5.05 26 0 23.08 39.97 0 40.01 5.82"/><path class="cls-6" d="M6.63,22.74l.15.06.18,0,.21,0a1.28,1.28,0,0,0,.24-.11q.21-.12.21-.24c0-.07-.06-.15-.18-.22l-.1,0-.09,0-.09,0-.08,0L7,22l1.05-.5,1,.61-.49.3-.16-.09.07-.07,0,0a.06.06,0,0,0,0,0,0,0,0,0,0,0,0l-.05,0-.58-.33h0l-.07,0-.09.05-.1.05L7.37,22l.07,0,.09,0,.09,0,.09.05a1.6,1.6,0,0,1,.26.19.4.4,0,0,1,.11.2.24.24,0,0,1,0,.18.48.48,0,0,1-.21.18,1,1,0,0,1-.36.14,1.16,1.16,0,0,1-.37,0A1.28,1.28,0,0,1,6.76,23a1.82,1.82,0,0,1-.28-.13.83.83,0,0,1-.24-.17.37.37,0,0,1-.1-.14.13.13,0,0,1,0-.12.38.38,0,0,1,.09-.09.35.35,0,0,1,.2-.05.48.48,0,0,1,.21.07.39.39,0,0,0-.1.08.14.14,0,0,0,0,.09.12.12,0,0,0,0,.1A.44.44,0,0,0,6.63,22.74Z"/><path class="cls-6" d="M17.18,17.07A.38.38,0,0,0,17,17a1.17,1.17,0,0,0-.26,0l-.3.09a2.14,2.14,0,0,0-.35.16h.1l.12,0,.13.05.14.07a.57.57,0,0,1,.18.16.21.21,0,0,1,.07.16.31.31,0,0,1-.07.17.7.7,0,0,1-.2.16,1.2,1.2,0,0,1-.31.13,1.26,1.26,0,0,1-.33.05,1.31,1.31,0,0,1-.34,0,1.17,1.17,0,0,1-.33-.14.7.7,0,0,1-.22-.19.32.32,0,0,1,0-.23.59.59,0,0,1,.15-.24,1.69,1.69,0,0,1,.37-.27A2.09,2.09,0,0,1,16,17a2.07,2.07,0,0,1,.49-.12,1.93,1.93,0,0,1,.48,0,1.57,1.57,0,0,1,.43.15.93.93,0,0,1,.2.15.31.31,0,0,1,.09.13.16.16,0,0,1,0,.1.24.24,0,0,1-.09.08l-.1,0h-.13l-.15,0a.77.77,0,0,1-.17-.07l.12-.08a.59.59,0,0,0,.08-.08.1.1,0,0,0,0-.08A.09.09,0,0,0,17.18,17.07Zm-.89.41a.19.19,0,0,0-.09,0l-.11,0-.11,0h-.1l-.31.21a.89.89,0,0,0-.17.18.14.14,0,0,0,0,.13.13.13,0,0,0,.07.09.43.43,0,0,0,.28,0,1.19,1.19,0,0,0,.41-.17.6.6,0,0,0,.26-.22A.14.14,0,0,0,16.29,17.48Z"/><path class="cls-6" d="M22.63,13.31l2.4-.54-.73-.42a.44.44,0,0,0-.15,0,.28.28,0,0,0-.15,0l-.15.07-.17-.1.59-.32,1.33.76-.14.08-2.6.61Z"/><path class="cls-6" d="M30.53,8.14a.77.77,0,0,1,.19-.08l.22,0a.91.91,0,0,1,.23,0l.26,0a.44.44,0,0,1,0-.27.36.36,0,0,1,.19-.22l.22-.09a1.12,1.12,0,0,1,.27,0,1.81,1.81,0,0,1,.31,0,2,2,0,0,1,.35.15,1.12,1.12,0,0,1,.22.17A.27.27,0,0,1,33,8a.21.21,0,0,1,0,.15.39.39,0,0,1-.15.13.45.45,0,0,1-.18.07.58.58,0,0,1-.19,0l-.21,0-.25,0a.56.56,0,0,1,.09.2.28.28,0,0,1,0,.15.31.31,0,0,1-.06.13.75.75,0,0,1-.13.11.94.94,0,0,1-.28.1,1.08,1.08,0,0,1-.31,0A1.3,1.3,0,0,1,31,9a1.14,1.14,0,0,1-.34-.15,1,1,0,0,1-.26-.19.39.39,0,0,1-.1-.19.22.22,0,0,1,.05-.17A.56.56,0,0,1,30.53,8.14Zm.32.61a.47.47,0,0,0,.15.06l.17,0,.18,0,.16-.07a.24.24,0,0,0,.09-.08.1.1,0,0,0,0-.1.35.35,0,0,0,0-.13.89.89,0,0,0-.09-.16H31.2l-.15,0-.15.07a.34.34,0,0,0-.13.1.24.24,0,0,0-.05.1.17.17,0,0,0,0,.1A.3.3,0,0,0,30.85,8.75ZM32.5,8.1A.39.39,0,0,0,32.6,8a.2.2,0,0,0,0-.09.08.08,0,0,0,0-.08.15.15,0,0,0-.08-.08.31.31,0,0,0-.12,0H32.3l-.15,0a.38.38,0,0,0-.13.06.35.35,0,0,0-.11.08.17.17,0,0,0,0,.19.41.41,0,0,0,.06.11l.15,0h.14l.13,0A.38.38,0,0,0,32.5,8.1Z"/><path class="cls-6" d="M82.57,65.12l-.15-.06-.18,0a.52.52,0,0,0-.21,0,.82.82,0,0,0-.24.1q-.21.12-.21.24c0,.07.06.15.18.22l.1,0,.09,0,.08,0,.09,0,.07.11-1,.5-1.05-.61.49-.3.16.09-.07.07s0,0,0,0a.08.08,0,0,0,0,0,0,0,0,0,0,0,0l0,0,.58.33h0l.07,0,.08,0,.11,0,.27-.13-.07,0-.09,0-.09,0-.1,0a1.35,1.35,0,0,1-.25-.19.4.4,0,0,1-.11-.2.2.2,0,0,1,0-.18.51.51,0,0,1,.2-.18,1.12,1.12,0,0,1,.37-.14,1.16,1.16,0,0,1,.37,0,1.28,1.28,0,0,1,.34.07,1.82,1.82,0,0,1,.28.13.83.83,0,0,1,.24.17.37.37,0,0,1,.1.14.13.13,0,0,1,0,.12.32.32,0,0,1-.3.14.48.48,0,0,1-.2-.07l.1-.08a.12.12,0,0,0,0-.09.12.12,0,0,0,0-.1A.44.44,0,0,0,82.57,65.12Z"/><path class="cls-6" d="M89.29,61.1a.36.36,0,0,0,.19,0,.78.78,0,0,0,.26,0l.3-.09a2.14,2.14,0,0,0,.35-.16h-.1l-.12,0L90,60.8l-.14-.07a1,1,0,0,1-.19-.15.29.29,0,0,1-.06-.17.25.25,0,0,1,.07-.17.7.7,0,0,1,.2-.16,1.2,1.2,0,0,1,.31-.13,1.26,1.26,0,0,1,.33-.05,1.07,1.07,0,0,1,.66.17.65.65,0,0,1,.23.19.27.27,0,0,1,0,.23.45.45,0,0,1-.15.25A2.08,2.08,0,0,1,91,61a2.91,2.91,0,0,1-.48.21,2.19,2.19,0,0,1-.49.12,1.93,1.93,0,0,1-.48,0,1.57,1.57,0,0,1-.43-.15,1.45,1.45,0,0,1-.21-.15.38.38,0,0,1-.08-.13.11.11,0,0,1,0-.1.24.24,0,0,1,.09-.08l.1,0h.13l.14,0a.48.48,0,0,1,.18.08l-.12.07a.38.38,0,0,0-.09.09.08.08,0,0,0,0,.08A.1.1,0,0,0,89.29,61.1Zm.88-.41.09,0,.12,0,.11,0h.1l.31-.21a.69.69,0,0,0,.17-.18.14.14,0,0,0,0-.13.12.12,0,0,0-.08-.09.39.39,0,0,0-.27,0,1.32,1.32,0,0,0-.41.17.54.54,0,0,0-.26.22A.13.13,0,0,0,90.17,60.69Z"/><path class="cls-6" d="M99.26,55.71l-2.41.54.74.42a.3.3,0,0,0,.15,0,.28.28,0,0,0,.15,0l.15-.07.17.1-.59.33-1.33-.77.14-.08,2.6-.61Z"/><path class="cls-6" d="M106.92,51.56a.73.73,0,0,1-.19.07.78.78,0,0,1-.22,0h-.23l-.26,0a.47.47,0,0,1,0,.28.34.34,0,0,1-.19.21.85.85,0,0,1-.22.09,1.12,1.12,0,0,1-.27,0,1.18,1.18,0,0,1-.31-.05,1.48,1.48,0,0,1-.35-.15.84.84,0,0,1-.22-.17.27.27,0,0,1-.08-.16.23.23,0,0,1,0-.16.36.36,0,0,1,.16-.13.51.51,0,0,1,.17-.07l.19,0h.21l.25,0a.53.53,0,0,1-.09-.19.28.28,0,0,1,0-.29.45.45,0,0,1,.13-.1,1,1,0,0,1,.28-.11,1.08,1.08,0,0,1,.31,0,1.3,1.3,0,0,1,.33.07,2.07,2.07,0,0,1,.34.15,1,1,0,0,1,.26.2.35.35,0,0,1,.1.19.2.2,0,0,1,0,.16A.58.58,0,0,1,106.92,51.56Zm-2,0-.1.08a.2.2,0,0,0,0,.09.1.1,0,0,0,0,.09s0,0,.08.08l.12,0h.14l.15,0,.13-.06a.35.35,0,0,0,.11-.09.18.18,0,0,0,0-.09.2.2,0,0,0,0-.1.41.41,0,0,0-.06-.11h-.15a.33.33,0,0,0-.14,0l-.13,0Zm1.65-.65-.15-.06h-.17l-.18,0-.16.07-.09.09a.1.1,0,0,0,0,.1.3.3,0,0,0,0,.12.89.89,0,0,0,.09.16h.15a.42.42,0,0,0,.16,0l.15,0,.15-.07a.34.34,0,0,0,.13-.1.19.19,0,0,0,0-.1.19.19,0,0,0,0-.1A.3.3,0,0,0,106.6,50.94Z"/><path class="cls-6" d="M47.18,8.72a.21.21,0,0,0,.11,0h.12l.12,0,.13-.06a.91.91,0,0,1,.24.18c0,.06,0,.1,0,.14a.34.34,0,0,1-.17,0,.86.86,0,0,1-.22,0,1.27,1.27,0,0,1-.23-.08L47,8.81a.91.91,0,0,1-.23-.16.26.26,0,0,1-.1-.15.17.17,0,0,1,0-.15,1,1,0,0,1,.18-.14l.71-.41.08-.06s0,0,0,0,0,0,0-.05l-.07,0h0l.15-.09.52.3-.13.14,0,0h.34l.14,0,.15.07a.57.57,0,0,1,.14.11.22.22,0,0,1,.06.13.2.2,0,0,1-.05.14.56.56,0,0,1-.16.13.75.75,0,0,1-.49.1,1.34,1.34,0,0,1-.58-.2l-.24-.13-.15.09a.62.62,0,0,0-.12.08.29.29,0,0,0-.08.07.06.06,0,0,0,0,.07A.14.14,0,0,0,47.18,8.72Zm1.18-.39a.36.36,0,0,0,.14-.13s0-.07-.06-.1l-.14,0h-.15l-.16,0a.61.61,0,0,0-.17.07l-.2.12.13.07.16.06a.47.47,0,0,0,.16,0,.35.35,0,0,0,.14,0Z"/><path class="cls-6" d="M55.3,12.72a1.92,1.92,0,0,1,.39-.18,1.45,1.45,0,0,1,.35-.07,1.06,1.06,0,0,1,.31,0,1,1,0,0,1,.29.11l.13.1.07.09a.18.18,0,0,1,0,.1.19.19,0,0,1,0,.1h0l.29-.08.53.31-.15.08h0l-.09,0-.09,0h-.11l-.12,0-1.42.83a.18.18,0,0,0-.08.06.07.07,0,0,0,0,.06.21.21,0,0,0,0,.06l.08,0h0l-.14.09-.66-.38.47-.27.11-.06.12-.06.13-.06h0a1.14,1.14,0,0,1-.32,0,1.11,1.11,0,0,1-.32-.11.65.65,0,0,1-.19-.17.24.24,0,0,1,0-.18.46.46,0,0,1,.14-.2A1.67,1.67,0,0,1,55.3,12.72Zm.13.72a.27.27,0,0,0,.17.06.41.41,0,0,0,.19,0,1.11,1.11,0,0,0,.22-.07,2.26,2.26,0,0,0,.26-.14,1.53,1.53,0,0,0,.23-.15.38.38,0,0,0,.13-.12.14.14,0,0,0,0-.12.27.27,0,0,0-.11-.1.47.47,0,0,0-.34,0,1.59,1.59,0,0,0-.48.21,1.08,1.08,0,0,0-.36.28C55.31,13.32,55.33,13.39,55.43,13.44Z"/><path class="cls-6" d="M65.11,17.49a1,1,0,0,1,.24.19.28.28,0,0,1,.09.2.32.32,0,0,1-.09.21,1.19,1.19,0,0,1-.31.24,1.41,1.41,0,0,1-.43.18,1.31,1.31,0,0,1-.38.06,1.21,1.21,0,0,1-.34-.05,1.44,1.44,0,0,1-.31-.13,1.39,1.39,0,0,1-.22-.15.6.6,0,0,1-.11-.14.14.14,0,0,1,0-.11s0-.06.08-.09l.1,0h.13l.16,0,.2.09-.13.09a.6.6,0,0,0-.08.08.08.08,0,0,0,0,.08s0,0,.06.06a.29.29,0,0,0,.13,0,.62.62,0,0,0,.19,0,1.11,1.11,0,0,0,.24-.08l.31-.16A.86.86,0,0,0,65,17.8c0-.09,0-.16-.11-.23l-.16-.07-.16,0h-.16l-.15,0a.06.06,0,0,1,0-.06s0,0,.06-.05a.38.38,0,0,1,.14-.05h.19l.24.06A1.59,1.59,0,0,1,65.11,17.49Z"/><path class="cls-6" d="M72.51,22.19a.3.3,0,0,0,.08-.07.07.07,0,0,0,0-.06.13.13,0,0,0,0-.06l-.08-.06h0l.15-.09.54.31-.14.17,0,0,.18,0h.16l.17,0,.16.07a.71.71,0,0,1,.2.17.24.24,0,0,1,0,.18.46.46,0,0,1-.13.2,1.29,1.29,0,0,1-.3.22,2.2,2.2,0,0,1-.39.18,1.59,1.59,0,0,1-.35.08,1.72,1.72,0,0,1-.32,0,1,1,0,0,1-.28-.12l-.12-.09a.18.18,0,0,1-.07-.09A.21.21,0,0,1,72,23h0l-.13.09-.06,0,0,0,0,0h0l-.15.09a.12.12,0,0,0-.07.07,0,0,0,0,0,0,.05s0,0,0,.06l.09,0h0l-.15.09-.67-.39Zm.87.31-.17-.06H73a1.19,1.19,0,0,0-.22.08,2.1,2.1,0,0,0-.26.13l-.23.15a.79.79,0,0,0-.13.13.12.12,0,0,0,0,.11s0,.07.1.11a.37.37,0,0,0,.15,0,.41.41,0,0,0,.19,0,1.19,1.19,0,0,0,.23-.07l.25-.13a1.28,1.28,0,0,0,.37-.28C73.49,22.62,73.47,22.56,73.38,22.5Z"/><path class="cls-6" d="M81.76,27.11a.72.72,0,0,1,.26.21.27.27,0,0,1,.08.21.36.36,0,0,1-.1.22,1.05,1.05,0,0,1-.27.21,1.65,1.65,0,0,1-.39.17,1.31,1.31,0,0,1-.38.06.87.87,0,0,1-.36,0,1,1,0,0,1-.34-.13.65.65,0,0,1-.23-.19.25.25,0,0,1-.08-.19.26.26,0,0,1,.08-.19.69.69,0,0,1,.24-.19l.14-.08.91.52a1.45,1.45,0,0,0,.21-.15.33.33,0,0,0,.09-.14.13.13,0,0,0,0-.12.26.26,0,0,0-.12-.11l-.15-.07-.16,0h-.31s0-.08.06-.12a.33.33,0,0,1,.15,0,.6.6,0,0,1,.19,0l.24.06A1.26,1.26,0,0,1,81.76,27.11Zm-1.33.8a.48.48,0,0,0,.3,0,1.38,1.38,0,0,0,.41-.15l-.48-.28-.18.12a.31.31,0,0,0-.1.1.1.1,0,0,0,0,.09A.13.13,0,0,0,80.43,27.91Z"/><path class="cls-6" d="M90.74,32.32l-.15.08-.06,0-.07,0a.32.32,0,0,0-.09,0h-.1a.28.28,0,0,0-.12,0l-1,.56.25.14-.19.11L89,33l-.1.06a1.51,1.51,0,0,1-.26.12,1.26,1.26,0,0,1-.27,0,1,1,0,0,1-.29-.05,1.38,1.38,0,0,1-.29-.12,1.51,1.51,0,0,1-.21-.14.39.39,0,0,1-.09-.11.08.08,0,0,1,0-.08l.06-.06a.4.4,0,0,1,.22,0,.94.94,0,0,1,.3.13l-.06,0a.13.13,0,0,0,0,.06.14.14,0,0,0,0,.06A.12.12,0,0,0,88,33L88,33h.1a.43.43,0,0,0,.13,0l.16-.08.15-.09-.38-.22.19-.11.38.22,1-.55a.3.3,0,0,0,.08-.07.06.06,0,0,0,0-.06.1.1,0,0,0,0,0l-.06,0-.13-.08.15-.08Z"/><path class="cls-6" d="M96.26,37.15l.07,0h.08l.09,0a.27.27,0,0,1,.11,0l0,0a0,0,0,0,0,0,0s0,0,0,0l0,0,.06,0h.06a.19.19,0,0,1,0-.07l0-.08.07-.07.09-.06a.85.85,0,0,1,.22-.09,1.09,1.09,0,0,1,.26,0,.84.84,0,0,1,.27,0,1.78,1.78,0,0,1,.29.12l0,0,0,0,0,0,0,0h.19l.05,0a.07.07,0,0,0,0-.06.19.19,0,0,0-.08-.07L98,36.86a.8.8,0,0,1-.21-.16.33.33,0,0,1-.09-.14.2.2,0,0,1,0-.13.31.31,0,0,1,.15-.12.81.81,0,0,1,.27-.11,1.13,1.13,0,0,1,.32,0,1.82,1.82,0,0,1,.36.08,3.44,3.44,0,0,1,.39.19.85.85,0,0,1,.39.34c0,.1,0,.18-.12.25a.54.54,0,0,1-.33.08A1,1,0,0,1,98.8,37a.16.16,0,0,1,0,.07.13.13,0,0,1,0,.06.14.14,0,0,1,0,.07l-.07.06-.1,0h-.27l-.17,0a.21.21,0,0,1,.06.1.17.17,0,0,1,0,.1.3.3,0,0,1-.06.11l-.13.1a.94.94,0,0,1-.52.13,1.2,1.2,0,0,1-.57-.17.74.74,0,0,1-.16-.12l-.09-.12h-.21l-.12,0-.11,0-.08-.06,0,0a.07.07,0,0,1,0-.06A.11.11,0,0,1,96.26,37.15Zm1.44.35.12-.08.07-.08a.08.08,0,0,0,0-.07s0-.05-.06-.07l-.12,0h-.12l-.13.05-.15.07-.13.08a.28.28,0,0,0-.07.09.06.06,0,0,0,0,.07.15.15,0,0,0,.07.07.2.2,0,0,0,.11,0,.29.29,0,0,0,.13,0l.14,0Zm1.46-.63c.08,0,.11-.09.09-.15a.4.4,0,0,0-.19-.17,1.11,1.11,0,0,0-.42-.16.48.48,0,0,0-.32,0c-.06,0-.08.07-.07.1s.06.08.13.12l.33.19.09,0a.2.2,0,0,0,.11,0H99Z"/><path class="cls-6" d="M107.46,42l-.91.53a.85.85,0,0,0-.14.1.22.22,0,0,0-.08.09.08.08,0,0,0,0,.08.29.29,0,0,0,.08.07.44.44,0,0,0,.15,0h.17l.18-.06a.7.7,0,0,0,.17-.09l.53-.3.08-.06a.07.07,0,0,0,0-.06s0,0,0-.05l-.07,0h0l.15-.09.85.49-.15.09h0l-.1-.05-.09,0h-.1l-.12,0-1.45.83s-.06.05-.06.07a.11.11,0,0,0,0,.05l0,.06.06,0h0l-.15.09-.65-.38.45-.26.12-.07.12-.06.14-.06h0a.77.77,0,0,1-.21,0h-.17l-.14-.05-.13-.07a.53.53,0,0,1-.16-.13.24.24,0,0,1,0-.14.32.32,0,0,1,.08-.15.63.63,0,0,1,.21-.15l.64-.37.09-.07s0,0,0,0,0,0,0-.05l-.07,0h0l.14-.08Z"/><polygon class="cls-8" points="24.59 48.08 15.25 42.69 15.25 40.43 24.59 45.83 24.59 48.08"/><polygon class="cls-8" points="24.59 45.09 15.25 39.69 15.25 37.45 24.59 42.84 24.59 45.09"/><path class="cls-9" d="M14.79,40.34c0,.22.16.31.35.2a.77.77,0,0,0,.35-.6c0-.21-.16-.3-.35-.19A.76.76,0,0,0,14.79,40.34Z"/><polygon class="cls-9" points="19.46 43.2 14.88 40.56 15.38 39.72 19.95 42.36 19.46 43.2"/><path class="cls-10" d="M19.36,43c0,.22.15.31.35.2a.76.76,0,0,0,.34-.6c0-.22-.15-.31-.34-.2A.75.75,0,0,0,19.36,43Z"/><path class="cls-9" d="M19.47,43c0,.22.16.31.35.2a.76.76,0,0,0,.34-.6c0-.21-.15-.3-.34-.19A.76.76,0,0,0,19.47,43Z"/><polygon class="cls-9" points="24.14 45.9 19.56 43.26 20.06 42.42 24.63 45.06 24.14 45.9"/><path class="cls-10" d="M24,45.68c0,.22.15.31.34.2a.77.77,0,0,0,.35-.6c0-.22-.16-.31-.35-.2A.76.76,0,0,0,24,45.68Z"/><path class="cls-10" d="M23.44,43.64c0,.22-.15.31-.34.2a.77.77,0,0,1-.35-.6c0-.21.16-.3.35-.19A.75.75,0,0,1,23.44,43.64Z"/><path class="cls-9" d="M23.36,43.6a.16.16,0,0,1-.26.15.58.58,0,0,1-.26-.46c0-.16.11-.23.26-.15A.61.61,0,0,1,23.36,43.6Z"/><rect class="cls-10" x="23.04" y="43.09" width="0.11" height="0.71"/><rect class="cls-10" x="23.04" y="43.07" width="0.11" height="0.75" transform="translate(-25.59 36.32) rotate(-53.67)"/><path class="cls-10" d="M23.44,46.21c0,.22-.15.31-.34.2a.77.77,0,0,1-.35-.6c0-.22.16-.31.35-.2A.76.76,0,0,1,23.44,46.21Z"/><path class="cls-9" d="M23.36,46.16c0,.17-.12.24-.26.15a.56.56,0,0,1-.26-.45c0-.17.11-.24.26-.15A.57.57,0,0,1,23.36,46.16Z"/><rect class="cls-10" x="23.04" y="45.66" width="0.11" height="0.71"/><rect class="cls-10" x="23.04" y="45.64" width="0.11" height="0.75" transform="translate(-27.66 37.37) rotate(-53.68)"/><path class="cls-10" d="M20.16,41.76c0,.22-.15.31-.34.2a.77.77,0,0,1-.35-.6c0-.22.16-.31.35-.2A.76.76,0,0,1,20.16,41.76Z"/><path class="cls-9" d="M20.08,41.71c0,.17-.12.24-.26.15a.56.56,0,0,1-.27-.45c0-.17.12-.23.27-.15A.59.59,0,0,1,20.08,41.71Z"/><rect class="cls-10" x="19.76" y="41.21" width="0.11" height="0.71"/><rect class="cls-10" x="19.76" y="41.19" width="0.11" height="0.75" transform="translate(-25.41 32.91) rotate(-53.68)"/><path class="cls-10" d="M20.16,44.33c0,.22-.15.3-.34.19a.76.76,0,0,1-.35-.59c0-.22.16-.31.35-.2A.76.76,0,0,1,20.16,44.33Z"/><path class="cls-9" d="M20.08,44.28c0,.17-.12.23-.26.15a.59.59,0,0,1-.27-.45c0-.17.12-.24.27-.15A.57.57,0,0,1,20.08,44.28Z"/><rect class="cls-10" x="19.76" y="43.78" width="0.11" height="0.71"/><rect class="cls-10" x="19.76" y="43.75" width="0.11" height="0.75" transform="translate(-27.48 33.95) rotate(-53.68)"/><path class="cls-10" d="M16.88,39.88c0,.22-.16.3-.35.19a.75.75,0,0,1-.34-.59c0-.22.15-.31.34-.2A.77.77,0,0,1,16.88,39.88Z"/><path class="cls-9" d="M16.8,39.83c0,.17-.12.23-.27.15a.59.59,0,0,1-.26-.45c0-.17.12-.24.26-.15A.56.56,0,0,1,16.8,39.83Z"/><rect class="cls-10" x="16.48" y="39.33" width="0.11" height="0.71"/><rect class="cls-10" x="16.48" y="39.31" width="0.11" height="0.75" transform="translate(-25.23 29.5) rotate(-53.68)"/><path class="cls-10" d="M16.88,42.44c0,.22-.16.31-.35.2a.76.76,0,0,1-.34-.6c0-.21.15-.3.34-.19A.76.76,0,0,1,16.88,42.44Z"/><path class="cls-9" d="M16.8,42.4c0,.16-.12.23-.27.15a.61.61,0,0,1-.26-.46.16.16,0,0,1,.26-.15A.59.59,0,0,1,16.8,42.4Z"/><rect class="cls-10" x="16.48" y="41.89" width="0.11" height="0.71"/><rect class="cls-10" x="16.48" y="41.87" width="0.11" height="0.75" transform="translate(-27.3 30.57) rotate(-53.71)"/><polygon class="cls-8" points="65.2 71.53 55.86 66.14 55.86 63.88 65.2 69.27 65.2 71.53"/><polygon class="cls-8" points="65.2 68.53 55.86 63.14 55.86 60.9 65.2 66.29 65.2 68.53"/><path class="cls-9" d="M55.41,63.79c0,.22.15.31.34.2a.77.77,0,0,0,.35-.6c0-.22-.16-.3-.35-.19A.75.75,0,0,0,55.41,63.79Z"/><polygon class="cls-9" points="60.08 66.65 55.5 64.01 55.99 63.17 60.56 65.81 60.08 66.65"/><path class="cls-10" d="M60,66.43c0,.22.16.3.35.19a.75.75,0,0,0,.34-.59c0-.22-.15-.31-.34-.2A.77.77,0,0,0,60,66.43Z"/><path class="cls-9" d="M60.08,66.49c0,.22.16.31.35.2a.76.76,0,0,0,.34-.6c0-.22-.15-.3-.34-.19A.76.76,0,0,0,60.08,66.49Z"/><polygon class="cls-9" points="64.75 69.35 60.17 66.71 60.67 65.87 65.24 68.51 64.75 69.35"/><path class="cls-10" d="M64.65,69.13c0,.22.15.3.35.19a.75.75,0,0,0,.34-.59c0-.22-.15-.31-.34-.2A.75.75,0,0,0,64.65,69.13Z"/><path class="cls-10" d="M64.06,67.09c0,.22-.16.31-.35.2a.76.76,0,0,1-.34-.6c0-.22.15-.3.34-.19A.76.76,0,0,1,64.06,67.09Z"/><path class="cls-9" d="M64,67c0,.17-.12.24-.27.15a.57.57,0,0,1-.26-.45c0-.17.12-.23.26-.15A.57.57,0,0,1,64,67Z"/><rect class="cls-10" x="63.66" y="66.54" width="0.11" height="0.71"/><rect class="cls-10" x="63.66" y="66.52" width="0.11" height="0.75" transform="translate(-27.93 78.58) rotate(-53.67)"/><path class="cls-10" d="M64.06,69.66c0,.22-.16.3-.35.19a.75.75,0,0,1-.34-.59c0-.22.15-.31.34-.2A.77.77,0,0,1,64.06,69.66Z"/><path class="cls-9" d="M64,69.61c0,.17-.12.23-.27.15a.59.59,0,0,1-.26-.45c0-.17.12-.24.26-.15A.56.56,0,0,1,64,69.61Z"/><rect class="cls-10" x="63.66" y="69.11" width="0.11" height="0.71"/><rect class="cls-10" x="63.66" y="69.09" width="0.11" height="0.75" transform="translate(-30 79.57) rotate(-53.63)"/><path class="cls-10" d="M60.77,65.21c0,.22-.15.31-.34.2a.77.77,0,0,1-.35-.6c0-.22.16-.31.35-.2A.76.76,0,0,1,60.77,65.21Z"/><path class="cls-9" d="M60.69,65.16c0,.17-.12.23-.26.15a.56.56,0,0,1-.26-.45c0-.17.11-.24.26-.15A.57.57,0,0,1,60.69,65.16Z"/><rect class="cls-10" x="60.38" y="64.66" width="0.11" height="0.71"/><rect class="cls-10" x="60.38" y="64.64" width="0.11" height="0.75" transform="translate(-27.75 75.12) rotate(-53.63)"/><path class="cls-10" d="M60.77,67.77c0,.22-.15.31-.34.2a.77.77,0,0,1-.35-.59c0-.22.16-.31.35-.2A.76.76,0,0,1,60.77,67.77Z"/><path class="cls-9" d="M60.69,67.73a.16.16,0,0,1-.26.15.58.58,0,0,1-.26-.46c0-.16.11-.23.26-.15A.61.61,0,0,1,60.69,67.73Z"/><rect class="cls-10" x="60.38" y="67.22" width="0.11" height="0.71"/><rect class="cls-10" x="60.38" y="67.2" width="0.11" height="0.75" transform="translate(-29.81 76.22) rotate(-53.67)"/><path class="cls-10" d="M57.49,63.33c0,.21-.15.3-.34.19a.76.76,0,0,1-.35-.59c0-.22.16-.31.35-.2A.76.76,0,0,1,57.49,63.33Z"/><path class="cls-9" d="M57.41,63.28a.16.16,0,0,1-.26.15.59.59,0,0,1-.27-.46c0-.16.12-.23.27-.15A.61.61,0,0,1,57.41,63.28Z"/><rect class="cls-10" x="57.09" y="62.78" width="0.11" height="0.71"/><rect class="cls-10" x="57.09" y="62.75" width="0.11" height="0.75" transform="translate(-27.57 71.71) rotate(-53.63)"/><path class="cls-10" d="M57.49,65.89c0,.22-.15.31-.34.2a.77.77,0,0,1-.35-.6c0-.22.16-.3.35-.19A.75.75,0,0,1,57.49,65.89Z"/><path class="cls-9" d="M57.41,65.84c0,.17-.12.24-.26.15a.56.56,0,0,1-.27-.45c0-.17.12-.23.27-.15A.59.59,0,0,1,57.41,65.84Z"/><rect class="cls-10" x="57.09" y="65.34" width="0.11" height="0.71"/><rect class="cls-10" x="57.09" y="65.32" width="0.11" height="0.75" transform="translate(-29.64 72.76) rotate(-53.63)"/><polygon class="cls-11" points="0.19 55.19 0.19 28.75 37.94 50.54 37.94 76.98 0.19 55.19"/><polygon class="cls-2" points="35.84 51.74 2.28 32.37 2.28 53.98 35.84 73.36 35.84 51.74"/><polygon class="cls-3" points="35.84 51.74 35.84 73.36 36.36 73.06 36.36 51.45 35.84 51.74"/><polygon class="cls-7" points="35.84 51.74 2.28 32.37 2.79 32.07 36.36 51.45 35.84 51.74"/><polygon class="cls-12" points="37.94 50.54 48.26 44.58 48.26 71.03 37.94 76.98 37.94 50.54"/><polygon class="cls-13" points="37.94 50.54 38.63 75.45 48.26 70.53 48.26 44.58 48.26 71.03 37.94 76.98 37.94 50.54"/><polygon class="cls-14" points="37.94 50.54 48.26 44.58 10.51 22.79 0.19 28.75 37.94 50.54"/><polygon class="cls-15" points="34.03 53.08 4.09 35.79 4.09 52.19 34.03 69.48 34.03 53.08"/><path class="cls-15" d="M33.45,59.92c0,3.53-2.49,4.94-5.56,3.17a12.24,12.24,0,0,1-5.56-9.59c0-3.52,2.49-4.94,5.56-3.17A12.27,12.27,0,0,1,33.45,59.92Z"/><path class="cls-16" d="M28.67,56.83c0,.31-.22.44-.49.28a1.06,1.06,0,0,1-.49-.84c0-.31.22-.43.49-.28A1.09,1.09,0,0,1,28.67,56.83Z"/><polygon class="cls-16" points="25.96 52.38 25.63 52.56 28.06 56.74 28.39 56.56 25.96 52.38"/><polygon class="cls-16" points="32.5 61.71 32.7 61.34 28.32 56.47 28.12 56.84 32.5 61.71"/><polygon class="cls-16" points="28.3 51.15 28.15 51.06 28.15 58.83 28.3 58.92 28.3 51.15"/><polygon class="cls-17" points="28 63.15 27.79 63.03 27.79 62.44 28 62.56 28 63.15"/><polygon points="28.43 63.37 28.38 62.75 28.46 62.79 28.52 63.41 28.43 63.37"/><polygon points="29 63.61 28.9 62.96 28.98 62.99 29.09 63.63 29 63.61"/><polygon points="29.57 63.76 29.41 63.11 29.49 63.12 29.65 63.78 29.57 63.76"/><polygon points="30.11 63.84 29.9 63.18 29.98 63.18 30.2 63.85 30.11 63.84"/><polygon points="30.61 63.85 30.35 63.18 30.48 63.17 30.74 63.84 30.61 63.85"/><polygon points="31.12 63.77 30.82 63.11 30.89 63.09 31.2 63.75 31.12 63.77"/><polygon points="31.58 63.62 31.23 62.97 31.3 62.94 31.65 63.59 31.58 63.62"/><polygon points="31.99 63.39 31.6 62.76 31.66 62.72 32.05 63.35 31.99 63.39"/><polygon points="32.36 63.09 31.94 62.49 31.99 62.43 32.42 63.03 32.36 63.09"/><polygon points="32.67 62.73 32.21 62.17 32.29 62.06 32.74 62.63 32.67 62.73"/><polygon points="32.95 62.28 32.47 61.75 32.51 61.68 32.99 62.2 32.95 62.28"/><polygon points="33.17 61.78 32.66 61.3 32.69 61.22 33.19 61.7 33.17 61.78"/><polygon points="33.32 61.22 32.8 60.8 32.82 60.71 33.34 61.13 33.32 61.22"/><polygon points="33.42 60.62 32.88 60.25 32.89 60.15 33.43 60.52 33.42 60.62"/><polygon class="cls-17" points="33.45 60.04 32.91 59.73 32.91 59.49 33.45 59.8 33.45 60.04"/><polygon points="32.89 59.05 32.88 58.94 33.42 59.18 33.43 59.29 32.89 59.05"/><polygon points="32.81 58.41 32.79 58.3 33.32 58.47 33.34 58.58 32.81 58.41"/><polygon points="32.68 57.75 32.65 57.63 33.17 57.74 33.19 57.85 32.68 57.75"/><polygon points="32.49 57.08 32.46 56.96 32.95 56.99 32.99 57.11 32.49 57.08"/><polygon points="32.27 56.44 32.2 56.25 32.67 56.21 32.74 56.4 32.27 56.44"/><polygon points="31.97 55.73 31.92 55.62 32.36 55.5 32.42 55.62 31.97 55.73"/><polygon points="31.64 55.07 31.59 54.96 31.99 54.77 32.05 54.88 31.64 55.07"/><polygon points="31.28 54.43 31.21 54.32 31.58 54.07 31.65 54.17 31.28 54.43"/><polygon points="30.87 53.81 30.8 53.71 31.12 53.39 31.2 53.49 30.87 53.81"/><polygon points="30.46 53.26 30.33 53.1 30.61 52.71 30.74 52.87 30.46 53.26"/><polygon points="29.97 52.69 29.89 52.6 30.11 52.15 30.2 52.23 29.97 52.69"/><polygon points="29.48 52.18 29.4 52.1 29.57 51.6 29.65 51.68 29.48 52.18"/><polygon points="28.98 51.73 28.89 51.66 29 51.1 29.09 51.18 28.98 51.73"/><polygon points="28.46 51.34 28.37 51.27 28.43 50.67 28.52 50.73 28.46 51.34"/><polygon class="cls-17" points="28 51.03 27.79 50.91 27.79 50.27 28 50.39 28 51.03"/><polygon points="27.32 50.68 27.27 50.01 27.36 50.05 27.41 50.72 27.32 50.68"/><polygon points="26.81 50.48 26.69 49.79 26.78 49.82 26.9 50.51 26.81 50.48"/><polygon points="26.3 50.35 26.13 49.65 26.22 49.66 26.39 50.37 26.3 50.35"/><polygon points="25.82 50.29 25.59 49.58 25.67 49.58 25.9 50.29 25.82 50.29"/><polygon points="25.32 50.3 25.05 49.59 25.18 49.58 25.45 50.29 25.32 50.3"/><polygon points="24.91 50.38 24.59 49.67 24.66 49.66 24.99 50.36 24.91 50.38"/><polygon points="24.51 50.52 24.14 49.84 24.21 49.81 24.57 50.49 24.51 50.52"/><polygon points="24.14 50.74 23.73 50.08 23.79 50.04 24.2 50.7 24.14 50.74"/><polygon points="23.81 51.02 23.37 50.39 23.42 50.34 23.86 50.97 23.81 51.02"/><polygon points="23.51 51.38 23.04 50.8 23.11 50.69 23.59 51.28 23.51 51.38"/><polygon points="23.29 51.76 22.8 51.22 22.83 51.15 23.33 51.69 23.29 51.76"/><polygon points="23.11 52.22 22.59 51.73 22.62 51.65 23.13 52.14 23.11 52.22"/><polygon points="22.97 52.73 22.45 52.29 22.46 52.2 22.99 52.64 22.97 52.73"/><polygon points="22.89 53.28 22.36 52.9 22.37 52.81 22.9 53.18 22.89 53.28"/><polygon class="cls-17" points="22.87 53.93 22.33 53.62 22.33 53.38 22.87 53.69 22.87 53.93"/><polygon points="22.37 54.24 22.36 54.13 22.89 54.38 22.9 54.48 22.37 54.24"/><polygon points="22.46 54.96 22.45 54.84 22.97 55.02 22.98 55.13 22.46 54.96"/><polygon points="22.62 55.69 22.59 55.58 23.09 55.68 23.12 55.79 22.62 55.69"/><polygon points="22.83 56.43 22.8 56.32 23.28 56.35 23.31 56.47 22.83 56.43"/><polygon points="23.11 57.22 23.04 57.03 23.5 56.99 23.57 57.18 23.11 57.22"/><polygon points="23.42 57.92 23.37 57.81 23.79 57.7 23.85 57.81 23.42 57.92"/><polygon points="23.79 58.65 23.73 58.54 24.12 58.36 24.18 58.47 23.79 58.65"/><polygon points="24.21 59.36 24.14 59.25 24.49 59.01 24.56 59.12 24.21 59.36"/><polygon points="24.66 60.04 24.59 59.94 24.89 59.63 24.97 59.73 24.66 60.04"/><polygon points="25.18 60.71 25.05 60.55 25.31 60.19 25.44 60.35 25.18 60.71"/><polygon points="25.67 61.28 25.59 61.19 25.8 60.77 25.88 60.86 25.67 61.28"/><polygon points="26.22 61.83 26.13 61.75 26.29 61.27 26.38 61.36 26.22 61.83"/><polygon points="26.78 62.32 26.69 62.25 26.8 61.73 26.89 61.8 26.78 62.32"/><polygon points="27.36 62.75 27.27 62.69 27.32 62.13 27.41 62.19 27.36 62.75"/><polygon points="25.63 52.44 25.3 52.63 27.73 56.81 28.06 56.62 25.63 52.44"/><polygon points="32.17 61.77 32.37 61.4 27.99 56.53 27.79 56.9 32.17 61.77"/><path d="M27.84,52.11v.16l-.56-.33v-.16l.2.11v-.71l-.13,0h0l0,0,0,0v0L27.2,51l.31-.12.16.09v1Z"/><path d="M28.6,52.51a.1.1,0,0,1,0,0,.14.14,0,0,1,0,.07v.12l-.7-.4v-.07a.06.06,0,0,1,0,0l0,0,.3-.17a.18.18,0,0,0,.07-.05l.05,0,0-.06s0,0,0-.08a.28.28,0,0,0,0-.13.19.19,0,0,0-.1-.1l-.05,0h0l0,0a.05.05,0,0,0,0,0l0,0-.06,0-.1-.08a.21.21,0,0,1,0-.12.13.13,0,0,1,.07-.06.2.2,0,0,1,.11,0l.12.06a.43.43,0,0,1,.13.09l.11.13.06.14a.77.77,0,0,1,0,.15.37.37,0,0,1,0,.11.35.35,0,0,1-.05.08l-.06.06-.08,0-.21.13.07,0,.07,0Z"/><path d="M27.9,61.6l0,0h.05l.07,0a.44.44,0,0,1,.11.09l.09.11a1,1,0,0,1,.07.15.47.47,0,0,1,0,.17.32.32,0,0,1,0,.14.27.27,0,0,1-.07.08l-.12,0-.15-.06-.14-.11a.72.72,0,0,1-.11-.15.51.51,0,0,1-.07-.17.57.57,0,0,1,0-.18.33.33,0,0,1,0-.15.38.38,0,0,1,.09-.13l.23-.23h0l.06,0,.17.1Zm0,.59.07,0h.06l0,0a.19.19,0,0,0,0-.08.28.28,0,0,0,0-.09l0-.08L28,61.85l-.07-.06-.07,0H27.8l0,0a.19.19,0,0,0,0,.08.28.28,0,0,0,0,.09.16.16,0,0,0,0,.08l.05.07A.18.18,0,0,0,27.92,62.19Z"/><path d="M30.43,54.34v.16l-.56-.33V54l.2.12v-.72l-.13.05h-.05l0,0,0,0-.06-.12.31-.13.16.09v1Z"/><path d="M30,62.08l.06,0,.06,0,.14.11a1.13,1.13,0,0,1,.1.13.47.47,0,0,1,.06.15.39.39,0,0,1,0,.15.54.54,0,0,1,0,.15.24.24,0,0,1-.08.09.25.25,0,0,1-.12,0l-.16-.06L30,62.8l-.08-.07-.07-.09-.06-.09.06-.06a0,0,0,0,1,.05,0l0,0,0,0,.05.06.08,0,.07,0h.06a.33.33,0,0,0,0-.06.19.19,0,0,0,0-.08.29.29,0,0,0,0-.16.53.53,0,0,0-.13-.13l-.14-.05-.12-.1.08-.52.51.29V62s0,0,0,0l0,0s0,0,0,0l-.05,0L30,61.88Z"/><path d="M32,57.09a.12.12,0,0,1,0,0,.14.14,0,0,1,0,.06v.13l-.7-.4v-.07s0,0,0,0,0,0,0,0l.3-.18.07,0,.05,0,0-.06v-.08a.32.32,0,0,0,0-.14.22.22,0,0,0-.1-.09.06.06,0,0,0-.05,0,0,0,0,0,0,0,0l0,0s0,0,0,0,0,0,0,0,0,0-.06,0l-.11-.08a.39.39,0,0,1,.05-.13.13.13,0,0,1,.07-.06.2.2,0,0,1,.11,0,.31.31,0,0,1,.12,0l.13.1a.41.41,0,0,1,.1.13.61.61,0,0,1,.07.14.77.77,0,0,1,0,.15.31.31,0,0,1,0,.1.56.56,0,0,1,0,.08l-.06.06-.08.05-.21.13.07,0,.06,0Z"/><path d="M32.12,61.72v.13s0,0,0,0h0l-.07,0v.28l-.17-.1v-.28l-.42-.24,0,0s0,0,0,0l0-.12.47-.46.19.11v.71Zm-.28-.16v-.4a.13.13,0,0,1,0-.06l-.3.29Z"/><path d="M32.09,59a.21.21,0,0,1,0-.12.13.13,0,0,1,.07-.06.2.2,0,0,1,.11,0,.21.21,0,0,1,.12,0,.45.45,0,0,1,.13.1.4.4,0,0,1,.1.12.31.31,0,0,1,.06.13.25.25,0,0,1,0,.12.22.22,0,0,1,0,.09.06.06,0,0,1,0,.06l-.05,0h-.06a.51.51,0,0,1,.17.37.29.29,0,0,1,0,.14.13.13,0,0,1-.07.06.14.14,0,0,1-.11,0,.42.42,0,0,1-.14-.06.38.38,0,0,1-.13-.09l-.1-.11-.07-.14a.84.84,0,0,1,0-.17h.08a.07.07,0,0,1,.06,0,.1.1,0,0,1,0,.06.11.11,0,0,0,0,.07l0,.06,0,.06.06,0,.07,0h.05l0,0a.13.13,0,0,0,0-.06.17.17,0,0,0,0-.07.14.14,0,0,0,0-.07l-.07-.08-.12-.08v-.15l.1,0h.07l0,0a.35.35,0,0,0,0-.06.28.28,0,0,0,0-.13.24.24,0,0,0-.1-.1l-.05,0h0l0,0,0,0s0,0,0,0a.09.09,0,0,1-.06,0Z"/><path d="M25.74,51.63v.16l-.56-.32V51.3l.2.12V50.7l-.13,0H25.2l0,0,0,0-.06-.13.31-.12.16.09v1Z"/><path d="M26.55,52.1v.16L26,51.93v-.16l.2.11v-.71l-.14,0h0l0,0s0,0,0,0,0,0,0,0L25.91,51l.31-.12.15.09v1Z"/><path d="M26.18,59.46v.16l0,0-.37.67,0,0a.11.11,0,0,1-.07,0l-.14-.08.38-.64,0,0,0,0-.46-.26s0,0,0,0l0,0v-.15Z"/><path d="M24.31,52.67v.16l-.57-.32v-.17l.2.12v-.72l-.13,0h0s0,0,0,0l0,0-.06-.12.31-.13.16.1v1Z"/><path d="M25.16,52.75a.78.78,0,0,1,0,.24.24.24,0,0,1-.08.14.13.13,0,0,1-.12,0,.3.3,0,0,1-.14-.05.57.57,0,0,1-.15-.12l-.12-.17a.88.88,0,0,1-.07-.23,1.27,1.27,0,0,1,0-.28.9.9,0,0,1,0-.25.26.26,0,0,1,.07-.14.19.19,0,0,1,.12,0,.45.45,0,0,1,.29.17.57.57,0,0,1,.12.18.78.78,0,0,1,.08.23A1.2,1.2,0,0,1,25.16,52.75Zm-.2-.12a1.34,1.34,0,0,0,0-.21,1.55,1.55,0,0,0,0-.15.35.35,0,0,0-.06-.09l-.06-.06-.07,0a.05.05,0,0,0,0,0,.19.19,0,0,0,0,.1,1,1,0,0,0,0,.19,1.22,1.22,0,0,0,0,.21.54.54,0,0,0,0,.15.31.31,0,0,0,0,.1l.07,0a.07.07,0,0,0,.06,0,.09.09,0,0,0,.06,0,.51.51,0,0,0,0-.1A1.09,1.09,0,0,0,25,52.63Z"/><path d="M24.36,57.08a.73.73,0,0,1,.14.18.71.71,0,0,1,0,.2.21.21,0,0,1,0,.12.16.16,0,0,1-.07.07h-.11l-.15-.06a.49.49,0,0,1-.14-.11.69.69,0,0,1-.11-.13.51.51,0,0,1-.07-.15.4.4,0,0,1,0-.15.21.21,0,0,1,0-.15.15.15,0,0,1,.14,0,.42.42,0,0,1-.11-.16.47.47,0,0,1,0-.17.18.18,0,0,1,0-.11.09.09,0,0,1,.06-.06.2.2,0,0,1,.11,0l.12,0,.13.1a.53.53,0,0,1,.1.12.46.46,0,0,1,.07.14.34.34,0,0,1,0,.14.23.23,0,0,1,0,.13A.12.12,0,0,1,24.36,57.08Zm-.18.34.07,0h.05l0,0a.13.13,0,0,0,0-.06.29.29,0,0,0,0-.16.26.26,0,0,0-.12-.11c-.05,0-.09,0-.11,0s0,.05,0,.11a.17.17,0,0,0,0,.07.13.13,0,0,0,0,.08l.05.06A.15.15,0,0,0,24.18,57.42Zm0-.85-.06,0h0a.05.05,0,0,0,0,0,.07.07,0,0,0,0,0,.2.2,0,0,0,0,.07.14.14,0,0,0,0,.06.16.16,0,0,0,0,.07l.06,0,.07,0h0a.08.08,0,0,0,0,0,.07.07,0,0,0,0,0,.15.15,0,0,0,0-.07.14.14,0,0,0,0-.06l-.05-.06S24.21,56.59,24.18,56.57Z"/><path d="M23.56,54.46l0,0,0,0h-.07l-.09,0-.1-.08-.09-.11-.06-.14a1,1,0,0,1,0-.17.51.51,0,0,1,0-.13.27.27,0,0,1,.07-.08.2.2,0,0,1,.11,0,.27.27,0,0,1,.14.05.42.42,0,0,1,.15.11.71.71,0,0,1,.1.14.46.46,0,0,1,.07.16.47.47,0,0,1,0,.17v.1a.24.24,0,0,0,0,.08l0,.06-.05.06-.22.24h0l-.06,0-.18-.1Zm-.2-.48a.29.29,0,0,0,0,.16.25.25,0,0,0,.11.12l.07,0h.05l0,0a.15.15,0,0,0,0-.07.28.28,0,0,0,0-.09l0-.07-.05-.07-.07,0-.06,0H23.4l0,0A.15.15,0,0,0,23.36,54Z"/><path class="cls-18" d="M28.38,57a.32.32,0,0,1-.15.32l-.2.11c-.08,0,0-.09-.14-.15a1.05,1.05,0,0,1-.48-.84c0-.11-.14-.11-.09-.17l.22-.14a.37.37,0,0,1,.35,0A1.09,1.09,0,0,1,28.38,57Z"/><path class="cls-17" d="M28.21,57.09c0,.31-.22.43-.49.28a1.09,1.09,0,0,1-.49-.84c0-.31.22-.44.49-.28A1.06,1.06,0,0,1,28.21,57.09Z"/><polygon class="cls-17" points="27.97 51.21 27.82 51.12 27.82 58.9 27.97 58.98 27.97 51.21"/><polygon class="cls-3" points="5.02 36.33 5.02 51.91 4.09 52.19 4.09 35.79 5.02 36.33"/><polygon class="cls-19" points="34.03 67.53 34.03 68.65 5.02 51.91 5.02 36.33 6.29 37.06 6.29 51.52 34.03 67.53"/><polygon class="cls-7" points="34.03 68.65 34.03 69.48 4.09 52.19 5.02 51.91 34.03 68.65"/><polygon class="cls-20" points="34.03 67.53 34.03 68.65 5.02 51.91 6.29 51.52 34.03 67.53"/><ellipse class="cls-15" cx="13.77" cy="48.75" rx="4.52" ry="7.84" transform="translate(-22.72 13.61) rotate(-30.31)"/><polygon class="cls-17" points="13.88 55.19 13.67 55.07 13.67 54.48 13.88 54.6 13.88 55.19"/><polygon points="14.31 55.41 14.25 54.79 14.34 54.83 14.4 55.45 14.31 55.41"/><polygon points="14.88 55.65 14.78 55 14.86 55.03 14.97 55.68 14.88 55.65"/><polygon points="15.45 55.8 15.29 55.15 15.37 55.16 15.53 55.82 15.45 55.8"/><polygon points="15.99 55.88 15.78 55.22 15.86 55.22 16.07 55.89 15.99 55.88"/><polygon points="16.49 55.89 16.23 55.22 16.36 55.21 16.61 55.88 16.49 55.89"/><polygon points="17 55.81 16.7 55.15 16.77 55.13 17.07 55.79 17 55.81"/><polygon points="17.46 55.66 17.11 55.01 17.18 54.98 17.52 55.63 17.46 55.66"/><polygon points="17.87 55.43 17.48 54.8 17.54 54.76 17.93 55.39 17.87 55.43"/><polygon points="18.24 55.13 17.82 54.53 17.87 54.47 18.3 55.07 18.24 55.13"/><polygon points="18.55 54.78 18.09 54.21 18.17 54.1 18.62 54.67 18.55 54.78"/><polygon points="18.83 54.32 18.35 53.79 18.39 53.72 18.87 54.24 18.83 54.32"/><polygon points="19.05 53.82 18.54 53.34 18.57 53.26 19.07 53.74 19.05 53.82"/><polygon points="19.2 53.27 18.68 52.84 18.7 52.75 19.22 53.17 19.2 53.27"/><polygon points="19.3 52.66 18.76 52.29 18.77 52.19 19.3 52.56 19.3 52.66"/><polygon class="cls-17" points="19.33 52.08 18.79 51.77 18.79 51.53 19.33 51.84 19.33 52.08"/><polygon points="18.77 51.09 18.76 50.98 19.3 51.23 19.3 51.33 18.77 51.09"/><polygon points="18.69 50.45 18.67 50.34 19.2 50.51 19.22 50.62 18.69 50.45"/><polygon points="18.56 49.79 18.53 49.67 19.05 49.78 19.07 49.89 18.56 49.79"/><polygon points="18.37 49.12 18.34 49 18.83 49.03 18.87 49.15 18.37 49.12"/><polygon points="18.15 48.48 18.08 48.29 18.55 48.25 18.62 48.44 18.15 48.48"/><polygon points="17.85 47.77 17.8 47.66 18.24 47.54 18.3 47.66 17.85 47.77"/><polygon points="17.52 47.11 17.46 47 17.87 46.81 17.93 46.93 17.52 47.11"/><polygon points="17.16 46.47 17.09 46.37 17.46 46.11 17.52 46.22 17.16 46.47"/><polygon points="16.75 45.86 16.68 45.75 17 45.43 17.07 45.53 16.75 45.86"/><polygon points="16.34 45.3 16.21 45.14 16.49 44.75 16.61 44.91 16.34 45.3"/><polygon points="15.85 44.73 15.77 44.64 15.99 44.19 16.07 44.28 15.85 44.73"/><polygon points="15.36 44.23 15.28 44.14 15.45 43.64 15.53 43.72 15.36 44.23"/><polygon points="14.86 43.77 14.77 43.7 14.88 43.15 14.97 43.22 14.86 43.77"/><polygon points="14.34 43.38 14.25 43.31 14.31 42.71 14.4 42.78 14.34 43.38"/><polygon class="cls-17" points="13.88 43.07 13.67 42.95 13.67 42.31 13.88 42.44 13.88 43.07"/><polygon points="13.2 42.72 13.15 42.05 13.23 42.09 13.29 42.76 13.2 42.72"/><polygon points="12.69 42.52 12.57 41.83 12.66 41.86 12.78 42.55 12.69 42.52"/><polygon points="12.18 42.39 12.01 41.69 12.1 41.7 12.27 42.41 12.18 42.39"/><polygon points="11.69 42.33 11.47 41.62 11.55 41.62 11.78 42.33 11.69 42.33"/><polygon points="11.2 42.34 10.93 41.63 11.06 41.62 11.33 42.33 11.2 42.34"/><polygon points="10.79 42.42 10.47 41.72 10.54 41.7 10.86 42.4 10.79 42.42"/><polygon points="10.39 42.56 10.02 41.88 10.09 41.85 10.45 42.53 10.39 42.56"/><polygon points="10.02 42.78 9.61 42.12 9.67 42.08 10.08 42.74 10.02 42.78"/><polygon points="9.69 43.06 9.25 42.43 9.3 42.38 9.74 43.01 9.69 43.06"/><polygon points="9.39 43.42 8.92 42.84 8.99 42.73 9.47 43.32 9.39 43.42"/><polygon points="9.17 43.8 8.67 43.26 8.71 43.19 9.21 43.73 9.17 43.8"/><polygon points="8.98 44.26 8.47 43.77 8.5 43.69 9.01 44.18 8.98 44.26"/><polygon points="8.85 44.77 8.32 44.33 8.34 44.24 8.87 44.68 8.85 44.77"/><polygon points="8.77 45.32 8.24 44.94 8.25 44.85 8.78 45.22 8.77 45.32"/><polygon class="cls-17" points="8.75 45.97 8.21 45.66 8.21 45.42 8.75 45.73 8.75 45.97"/><polygon points="8.25 46.28 8.24 46.17 8.77 46.42 8.78 46.52 8.25 46.28"/><polygon points="8.34 47 8.32 46.88 8.85 47.06 8.86 47.17 8.34 47"/><polygon points="8.5 47.73 8.47 47.62 8.97 47.72 9 47.83 8.5 47.73"/><polygon points="8.71 48.47 8.67 48.36 9.16 48.39 9.19 48.51 8.71 48.47"/><polygon points="8.99 49.26 8.92 49.07 9.38 49.03 9.45 49.22 8.99 49.26"/><polygon points="9.3 49.96 9.25 49.85 9.67 49.74 9.72 49.85 9.3 49.96"/><polygon points="9.67 50.69 9.61 50.58 10 50.4 10.06 50.52 9.67 50.69"/><polygon points="10.09 51.4 10.02 51.29 10.37 51.05 10.44 51.16 10.09 51.4"/><polygon points="10.54 52.08 10.47 51.98 10.77 51.67 10.85 51.77 10.54 52.08"/><polygon points="11.06 52.75 10.93 52.59 11.19 52.23 11.32 52.39 11.06 52.75"/><polygon points="11.55 53.32 11.47 53.23 11.68 52.81 11.76 52.9 11.55 53.32"/><polygon points="12.1 53.87 12.01 53.79 12.17 53.32 12.26 53.4 12.1 53.87"/><polygon points="12.66 54.36 12.57 54.29 12.68 53.77 12.77 53.84 12.66 54.36"/><polygon points="13.23 54.79 13.15 54.73 13.2 54.17 13.29 54.23 13.23 54.79"/><path class="cls-16" d="M14.55,48.88c0,.3-.22.43-.49.27a1.06,1.06,0,0,1-.49-.84c0-.31.22-.43.49-.28A1.1,1.1,0,0,1,14.55,48.88Z"/><polygon class="cls-16" points="11.84 44.42 11.51 44.6 13.94 48.79 14.27 48.6 11.84 44.42"/><polygon class="cls-16" points="18.38 53.75 18.58 53.38 14.2 48.51 14 48.88 18.38 53.75"/><polygon class="cls-16" points="14.17 43.19 14.03 43.1 14.03 50.87 14.17 50.96 14.17 43.19"/><polygon points="11.51 44.48 11.18 44.67 13.61 48.85 13.94 48.66 11.51 44.48"/><polygon points="18.05 53.81 18.25 53.44 13.87 48.57 13.67 48.94 18.05 53.81"/><path d="M13.72,44.15v.16L13.15,44v-.16l.2.12v-.72l-.13.05h0l0,0,0,0v0l-.06-.13.31-.12.16.09v1Z"/><path d="M14.48,44.55a.1.1,0,0,1,0,0,.14.14,0,0,1,0,.07v.13l-.7-.41v-.07a.06.06,0,0,1,0,0s0,0,0,0l.3-.17.07,0L14.3,44a.16.16,0,0,0,0-.06v-.07a.29.29,0,0,0,0-.14.32.32,0,0,0-.1-.1l0,0h0l0,0a.05.05,0,0,0,0,0l0,0-.06,0-.11-.08a.33.33,0,0,1,.05-.12.13.13,0,0,1,.07-.06h.11l.12.06a.41.41,0,0,1,.13.1.38.38,0,0,1,.1.12l.07.14a.77.77,0,0,1,0,.15.37.37,0,0,1,0,.11.56.56,0,0,1,0,.08l-.06.06-.08.05-.21.12.07,0,.06,0Z"/><path d="M13.77,53.64l0,0h.06l.07,0,.11.09.09.12a.61.61,0,0,1,.07.14.47.47,0,0,1,0,.17.59.59,0,0,1,0,.14.2.2,0,0,1-.08.08.2.2,0,0,1-.11,0l-.15-.06-.14-.11a1.58,1.58,0,0,1-.12-.15.87.87,0,0,1-.07-.17,1.1,1.1,0,0,1,0-.18.33.33,0,0,1,0-.15.38.38,0,0,1,.09-.13l.23-.22,0,0,.06,0,.17.1Zm0,.59a.11.11,0,0,0,.07,0h.05l0,0a.19.19,0,0,0,0-.08A.28.28,0,0,0,14,54l0-.08-.06-.07-.07-.06-.07,0h-.05a.09.09,0,0,0,0,0,.12.12,0,0,0,0,.07s0,.06,0,.09a.3.3,0,0,0,0,.08l.05.07A.18.18,0,0,0,13.8,54.23Z"/><path d="M16.31,46.38v.16l-.56-.33v-.16l.2.12v-.72l-.13,0h-.05l0,0s0,0,0,0l-.06-.12.31-.13.16.09v1Z"/><path d="M15.88,54.12l.06,0,.06,0,.14.11a.71.71,0,0,1,.1.14.35.35,0,0,1,.06.14.39.39,0,0,1,0,.15.38.38,0,0,1,0,.16.27.27,0,0,1-.07.08.25.25,0,0,1-.12,0l-.16-.06-.09-.07-.08-.07-.07-.09-.06-.09.06-.05s0,0,.05,0l0,0,0,0,.05.06a.18.18,0,0,0,.07,0l.08,0h.06l0,0a.28.28,0,0,0,0-.09.29.29,0,0,0,0-.16.53.53,0,0,0-.13-.13l-.14,0-.12-.1.08-.52.51.29V54s0,0,0,0l0,0h0l-.06,0-.26-.15Z"/><path d="M17.91,49.13a.12.12,0,0,1,.05,0,.14.14,0,0,1,0,.06v.13l-.7-.4V48.9s0,0,0,0,0,0,0,0l.3-.17.07,0,.05,0a.14.14,0,0,0,0-.06.19.19,0,0,0,0-.08.32.32,0,0,0,0-.14.22.22,0,0,0-.1-.09l-.05,0s0,0,0,0l0,0,0,0a.08.08,0,0,1,0,0l-.06,0-.1-.08a.4.4,0,0,1,0-.13.21.21,0,0,1,.08-.06h.11l.12,0,.13.1a.64.64,0,0,1,.1.13.61.61,0,0,1,.07.14.77.77,0,0,1,0,.15.25.25,0,0,1,0,.1.15.15,0,0,1,0,.08l-.06.06-.08,0-.21.13.07,0,.06,0Z"/><path d="M18,53.76v.13s0,0,0,0h0l-.08,0v.28l-.16-.1v-.28l-.42-.23,0,0,0,0,0-.12.47-.45.18.1v.71Zm-.28-.16v-.4a.13.13,0,0,1,0-.06l-.3.29Z"/><path d="M18,51a.33.33,0,0,1,.05-.12.13.13,0,0,1,.07-.06h.11a.21.21,0,0,1,.12,0l.13.1a.4.4,0,0,1,.1.12.31.31,0,0,1,.06.13.5.5,0,0,1,0,.12.31.31,0,0,1,0,.1l0,.05,0,0h-.06a.51.51,0,0,1,.17.37.29.29,0,0,1,0,.14.23.23,0,0,1-.07.07.24.24,0,0,1-.12,0l-.13-.06a.38.38,0,0,1-.13-.09.52.52,0,0,1-.1-.11.61.61,0,0,1-.07-.14.84.84,0,0,1,0-.17H18a.09.09,0,0,1,.06,0,.07.07,0,0,1,0,.06l0,.07,0,.07,0,.05.06,0,.07,0h.05l0,0a.13.13,0,0,0,0-.06.17.17,0,0,0,0-.07.11.11,0,0,0,0-.07.21.21,0,0,0-.06-.08l-.12-.08v-.15l.1,0h.06l0,0V51.3a.28.28,0,0,0,0-.13.32.32,0,0,0-.1-.1l-.05,0h0l0,0a.05.05,0,0,0,0,0s0,0,0,0l-.07,0Z"/><path d="M11.62,43.67v.16l-.56-.32v-.16l.2.11v-.72l-.13,0h-.05s0,0,0,0l0,0L11,42.61l.31-.12.16.09v1Z"/><path d="M12.43,44.14v.16L11.86,44v-.16l.2.12v-.72l-.13,0h0l0,0s0,0,0,0v0l-.06-.13.3-.12.16.09v1Z"/><path d="M12.06,51.5v.09a.15.15,0,0,1,0,.07s0,0,0,0l-.37.67,0,0a.11.11,0,0,1-.07,0l-.14-.08.38-.64,0,0,0,0-.47-.26,0,0V51.1Z"/><path d="M10.18,44.71v.16l-.56-.32v-.17l.2.12v-.72l-.13,0a0,0,0,0,1,0,0h0s0,0,0,0l0,0-.06-.13.31-.12.16.09v1Z"/><path d="M11,44.79A.78.78,0,0,1,11,45a.24.24,0,0,1-.08.14.13.13,0,0,1-.12,0,.3.3,0,0,1-.14-.05.44.44,0,0,1-.15-.12.52.52,0,0,1-.12-.17,1.55,1.55,0,0,1-.08-.23,2.46,2.46,0,0,1,0-.28,1.69,1.69,0,0,1,0-.25A.37.37,0,0,1,10.4,44a.21.21,0,0,1,.12,0l.15,0a.53.53,0,0,1,.14.12.57.57,0,0,1,.12.18.78.78,0,0,1,.08.23A1.2,1.2,0,0,1,11,44.79Zm-.2-.12a1.34,1.34,0,0,0,0-.21,1.27,1.27,0,0,0,0-.14.44.44,0,0,0-.06-.1l-.06-.06-.07,0a.07.07,0,0,0,0,0,.19.19,0,0,0,0,.1.92.92,0,0,0,0,.19,1.27,1.27,0,0,0,0,.22.57.57,0,0,0,0,.14.23.23,0,0,0,0,.1.18.18,0,0,0,.07,0,.07.07,0,0,0,.06,0,.09.09,0,0,0,.06,0,.34.34,0,0,0,0-.1A1.09,1.09,0,0,0,10.84,44.67Z"/><path d="M10.24,49.12a.51.51,0,0,1,.13.18.49.49,0,0,1,.05.2.21.21,0,0,1,0,.12.16.16,0,0,1-.07.07.2.2,0,0,1-.11,0l-.15-.06a.71.71,0,0,1-.14-.1,1.34,1.34,0,0,1-.11-.14.71.71,0,0,1-.08-.15.77.77,0,0,1,0-.15.21.21,0,0,1,0-.15.12.12,0,0,1,.13,0,.75.75,0,0,1-.1-.17.33.33,0,0,1,0-.17.2.2,0,0,1,0-.11.09.09,0,0,1,.06-.06h.1l.13.05.13.1a.64.64,0,0,1,.1.13.83.83,0,0,1,.07.13.36.36,0,0,1,0,.14.23.23,0,0,1,0,.13A.11.11,0,0,1,10.24,49.12Zm-.18.34.07,0h0l0,0s0,0,0-.06a.29.29,0,0,0,0-.16.26.26,0,0,0-.12-.11c-.05,0-.09,0-.12,0s0,0,0,.11a.17.17,0,0,0,0,.07.13.13,0,0,0,0,.08l0,.06Zm0-.85-.06,0h0a.05.05,0,0,0,0,0,.07.07,0,0,0,0,0,.17.17,0,0,0,0,.07.25.25,0,0,0,0,.07l0,.06s0,0,.06,0l.07,0h0a.08.08,0,0,0,0,0s0,0,0-.06,0-.05,0-.07l0-.06-.05-.06S10.09,48.63,10.06,48.61Z"/><path d="M9.44,46.5l0,0,0,0H9.41l-.09,0-.1-.08-.09-.11-.06-.14a.44.44,0,0,1,0-.16.3.3,0,0,1,0-.14.27.27,0,0,1,.07-.08.2.2,0,0,1,.11,0,.3.3,0,0,1,.14,0,.83.83,0,0,1,.15.11.71.71,0,0,1,.1.14.77.77,0,0,1,.07.16.5.5,0,0,1,0,.17v.1l0,.08,0,.07s0,0-.05.05l-.22.24h0l-.06,0-.18-.1ZM9.24,46a.29.29,0,0,0,0,.16.25.25,0,0,0,.11.12l.07,0h0l0,0a.15.15,0,0,0,0-.07.19.19,0,0,0,0-.08l0-.08,0-.07-.07,0-.06,0H9.28s0,0,0,0A.15.15,0,0,0,9.24,46Z"/><path class="cls-18" d="M14.26,49a.3.3,0,0,1-.16.31l-.19.11c-.08,0,0-.08-.14-.15a1.06,1.06,0,0,1-.49-.84c0-.11-.13-.11-.08-.17l.22-.14a.37.37,0,0,1,.35,0A1.1,1.1,0,0,1,14.26,49Z"/><path class="cls-17" d="M14.09,49.13c0,.31-.22.43-.49.28a1.08,1.08,0,0,1-.49-.84c0-.31.22-.44.49-.28A1.06,1.06,0,0,1,14.09,49.13Z"/><polygon class="cls-17" points="13.85 43.25 13.7 43.16 13.7 50.94 13.85 51.02 13.85 43.25"/><path class="cls-21" d="M18.38,33.2a3.72,3.72,0,0,1-3.39,0,1,1,0,0,1,0-2,3.75,3.75,0,0,1,3.39,0A1,1,0,0,1,18.38,33.2Z"/><path class="cls-18" d="M18.81,33.29a3.62,3.62,0,0,1-3.27,0,1.12,1.12,0,0,1,0-2.07,3.36,3.36,0,0,1,3.28.1A1.11,1.11,0,0,1,18.81,33.29Z"/><path class="cls-22" d="M18.6,32.91a3.32,3.32,0,0,1-3,0c-.83-.48-.83-1.25,0-1.72a3.28,3.28,0,0,1,3,0C19.42,31.66,19.43,32.43,18.6,32.91Z"/><path d="M18.34,32.66l0,0a2.75,2.75,0,0,1-2.39,0l0,0c-.67-.39-.69-1,0-1.41l0,0a2.77,2.77,0,0,1,2.48,0l0,0A.74.74,0,0,1,18.34,32.66Z"/><path class="cls-23" d="M18.38,30.18v2.25h0a.52.52,0,0,1-.08.26,2.75,2.75,0,0,1-2.39,0,.49.49,0,0,1-.08-.25V30.18H16A.84.84,0,0,1,16.2,30,2,2,0,0,1,18,30a.84.84,0,0,1,.23.18Z"/><path class="cls-18" d="M18.6,30.65a3.32,3.32,0,0,1-3,0,.91.91,0,0,1,0-1.72,3.28,3.28,0,0,1,3,0C19.42,29.4,19.43,30.17,18.6,30.65Z"/><rect class="cls-18" x="14.99" y="29.22" width="4.23" height="0.57"/><path class="cls-22" d="M18.6,30.08a3.28,3.28,0,0,1-3,0,.91.91,0,0,1,0-1.73,3.31,3.31,0,0,1,3,0C19.42,28.83,19.43,29.61,18.6,30.08Z"/><path class="cls-24" d="M18.41,30a3.09,3.09,0,0,1-2.81,0,.86.86,0,0,1,0-1.62,3.12,3.12,0,0,1,2.81,0A.86.86,0,0,1,18.41,30Z"/><polygon class="cls-25" points="0.19 28.75 37.94 49.67 48.26 44.58 37.94 50.54 0.19 28.75"/><polygon class="cls-26" points="5.02 36.33 6.29 38.25 32.91 53.39 32.97 67.22 32.97 68.04 34.03 69.48 34.03 53.08 5.02 36.33"/><path class="cls-21" d="M32.67,41.45a3.74,3.74,0,0,1-3.4,0,1,1,0,0,1,0-2,3.74,3.74,0,0,1,3.4,0A1,1,0,0,1,32.67,41.45Z"/><path class="cls-18" d="M33.1,41.54a3.59,3.59,0,0,1-3.27,0c-.91-.52-1-1.43,0-2.06a3.35,3.35,0,0,1,3.27.1A1.11,1.11,0,0,1,33.1,41.54Z"/><path class="cls-22" d="M32.89,41.16a3.32,3.32,0,0,1-3,0c-.83-.48-.84-1.25,0-1.73a3.32,3.32,0,0,1,3,0A.91.91,0,0,1,32.89,41.16Z"/><path d="M32.63,40.91l-.05,0a2.78,2.78,0,0,1-2.39,0l0,0c-.68-.39-.69-1,0-1.41l0,0a2.72,2.72,0,0,1,2.47,0l0,0C33.31,39.9,33.3,40.52,32.63,40.91Z"/><path class="cls-23" d="M32.66,38.43v2.25h0a.44.44,0,0,1-.08.26,2.78,2.78,0,0,1-2.39,0,.47.47,0,0,1-.07-.25V38.43h.14a.75.75,0,0,1,.23-.19,2,2,0,0,1,1.8,0,.79.79,0,0,1,.22.18Z"/><path class="cls-18" d="M32.89,38.9a3.32,3.32,0,0,1-3,0c-.83-.48-.84-1.25,0-1.73a3.32,3.32,0,0,1,3,0A.91.91,0,0,1,32.89,38.9Z"/><rect class="cls-18" x="29.27" y="37.46" width="4.23" height="0.57"/><path class="cls-22" d="M32.89,38.33a3.31,3.31,0,0,1-3,0c-.83-.48-.84-1.26,0-1.73a3.31,3.31,0,0,1,3,0A.91.91,0,0,1,32.89,38.33Z"/><path class="cls-24" d="M32.69,38.22a3.1,3.1,0,0,1-2.8,0c-.78-.45-.79-1.17,0-1.62a3.1,3.1,0,0,1,2.8,0A.86.86,0,0,1,32.69,38.22Z"/><path class="cls-27" d="M57.47,86.61a6.28,6.28,0,0,0,5.08.2h0a3.06,3.06,0,0,0,.51-.26l.25-.16.07-.06.14-.11.08-.07.11-.12.06-.07.09-.11.06-.09.06-.11a.3.3,0,0,0,0-.08.61.61,0,0,0,0-.12l0-.08,0-.12s0-.06,0-.09V85.1a.53.53,0,0,0,0-.13V84.5a1,1,0,0,1,0,.17h0a1,1,0,0,0,0-.17,1.94,1.94,0,0,0,0-.34,1.91,1.91,0,0,0,0-.29c0-.08,0-.17-.07-.26a.14.14,0,0,0,0-.06,1.54,1.54,0,0,0,.14-.68c0-.16,0-.26,0-.3a.65.65,0,0,0,0-.13,2.67,2.67,0,0,0-.09-.26,1.66,1.66,0,0,1,.1.29,1.74,1.74,0,0,0-.34-.66l-.12-.14-.06-.07-.12-.15-.11-.14-.06-.07-.12-.15L63.08,81,63,80.87l-.12-.14v0a1.48,1.48,0,0,0-.08-.29,1.09,1.09,0,0,0-.08-.15.28.28,0,0,0-.06-.09,1.09,1.09,0,0,0-.2-.25,1,1,0,0,0-.15-.14h0l0,0h0l-.07,0c-.18-.92-.33-1.79-.43-2.59l0-.48c0-.14,0-.34,0-.48l0-.45c0-.14,0-.33,0-.47v-.38c0-.12,0-.29,0-.41l0-.23a3,3,0,0,1,.09-.32v0l-.11,0-.1.07a1.14,1.14,0,0,0,.5-.56.88.88,0,0,1,0-.15v0a1,1,0,0,1,.07-.15h0a.93.93,0,0,1,.05-.1l.06,0,.11-.08,0,0h0l.16-.13h0l.07-.06,0,0,0,0,.09-.1a1.77,1.77,0,0,0,.16-.22.59.59,0,0,0,0-.08v0h0l0-.12V72l0,0v-.09h0v-.27h0v-.19h0s0-.07,0-.1a1.27,1.27,0,0,0,0-.37,2,2,0,0,0-.08-.22l-.07-.15a1.82,1.82,0,0,0-.15-.23h0v0l.06-.1L63.2,70c0-.05.06-.11.08-.16l.1-.17a1,1,0,0,1,.09-.18v0l.07-.14c0-.06.06-.14.08-.19l.08-.2v-.06a.49.49,0,0,0,0-.11v0h0v0a1.32,1.32,0,0,0,.05-.18,2,2,0,0,0,.06-.28h0a1.53,1.53,0,0,0,0-.18,2.33,2.33,0,0,0,0-.37,1.09,1.09,0,0,0-.05-.17,1.58,1.58,0,0,0-.16-.35c-.07-.1-.18-.22-.26-.32s-.1-.1-.15-.15a3.16,3.16,0,0,0-.5-.34A4.42,4.42,0,0,0,61.9,66v0a.43.43,0,0,1,0,0l0-.07a1.15,1.15,0,0,0-.27-.3h0a1.65,1.65,0,0,0,.29-.22l0,0,0,0h0l0,0,0,0h0l0,0h0l0,0v0h0l0,0v0h0a.07.07,0,0,0,0-.05h0v0h0v-.09h0v-.06h0a.36.36,0,0,0,0-.1h0v0a.19.19,0,0,0,0-.07h0a1.73,1.73,0,0,0-.08-.21h0l0-.07h0l-.12-.06,0,0-.13-.07h0L61.41,64l-.16-.09h0a1.54,1.54,0,0,1,.28-.69h0l0,0h0l0,0,0,0,0,0h0l0,0,0,0h0l0,0h0l0,0,0,0h0l0,0,0,0-.05,0,0,0,0,0,0,0h0l-.05,0h0l0,0,0,0h0l-.05,0,0,0,0,0h0l0,0,0,0,0,0h-.07a.61.61,0,0,0,.19-.44.61.61,0,1,0-1.16.24,1.49,1.49,0,0,0-.35.14l-.09.06-.06,0h0l0,0h0l0,0h0l0,0h0l0,0h0v0h-.06l0,0a2.55,2.55,0,0,1,.13.29h0l0,0-.09.06-.06,0h0l0,0h0l0,0h0l0,0h0l0,0h0l0,0h0l0,0,0,0h0v0l0,0h0l0,0s0,0,0,0v0a.41.41,0,0,0-.06.24h0v0h0v.07h0v0h0v0h0a.43.43,0,0,1,0,0l0,0v0h0l0,0h0a2.06,2.06,0,0,1,.09.22h0l.15.08,0,0,.1,0a1.34,1.34,0,0,1,.24.12l.13.07a3,3,0,0,1-.16.5h0a.72.72,0,0,1-.12.21h0l0,0,0,0,.05,0,0,.06h0l-.1.07-.08.07-.07.08-.05.08,0,0h0l0,0h0a.16.16,0,0,0,0,.08l-.3.1-.24.09a3.92,3.92,0,0,0-.44.23,3.67,3.67,0,0,0-.38.27c-.05,0-.12.1-.16.15a2.51,2.51,0,0,0-.25.32,1.68,1.68,0,0,0-.27.88c0,.06,0,.13,0,.19s0,.27.08.38a2.94,2.94,0,0,0,.18.51,10.7,10.7,0,0,0,.59,1.17l0,0a2.29,2.29,0,0,0-.17.28,1.92,1.92,0,0,0-.11.28,1.26,1.26,0,0,0,0,.27v.13s0,.07,0,.1v.08c0,.09,0,.14,0,.21a1.47,1.47,0,0,0,.21.58,1.73,1.73,0,0,0,.2.28,1.5,1.5,0,0,0,.22.21,3.28,3.28,0,0,0,.38.27l.06.11c0,.06.08.19.12.3a1.08,1.08,0,0,0,.56.61l-.16-.1,0,0-.06,0v0l.05.17c0,.11,0,.26.06.38l0,.34c0,.14,0,.32,0,.45v.44c0,.14,0,.34,0,.48l0,.48c0,.15,0,.34-.06.49l-.07.48-.07.47-.08.44c0,.13,0,.3-.08.42l-.07.38c0,.1,0,.23-.07.34v.06l-.09.06,0,0-.19.17a1.3,1.3,0,0,0-.15.18l-.07.09a1.36,1.36,0,0,0-.19.51l0,0-.12.14-.06.07-.12.15-.3.36-.11.14-.06.07-.12.14a1.77,1.77,0,0,0-.35.68,1.15,1.15,0,0,1,.11-.31.84.84,0,0,0-.06.14l-.07.22,0,.21a2.36,2.36,0,0,0,0,.27,1.87,1.87,0,0,0,.09.42c0,.06,0,.11.07.16a2,2,0,0,0-.07.26,2.81,2.81,0,0,0-.08.64V85A2,2,0,0,0,57.47,86.61Z"/><path class="cls-28" d="M57.52,82.07l.25,0a5.25,5.25,0,0,1,4.79,0c1.35.75,1.4,2,.1,2.77a5.28,5.28,0,0,1-4.79,0c-1.35-.75-1.4-2-.1-2.78l-.25,0c-1.43.86-1.38,2.23.11,3.06a5.81,5.81,0,0,0,5.28-.06c1.43-.86,1.38-2.23-.11-3.06A5.81,5.81,0,0,0,57.52,82.07Z"/><path class="cls-27" d="M64.16,84.5a1.94,1.94,0,0,0,0-.34,1.91,1.91,0,0,0,0-.29c0-.16-.08-.33-.14-.51s-.05-.15-.09-.25c.26.68,0,1.42-1,2a5.81,5.81,0,0,1-5.28.06c-1-.55-1.34-1.33-1.06-2a5.48,5.48,0,0,0-.23.75,2.81,2.81,0,0,0-.08.64,2,2,0,0,0,1.21,1.65,6.15,6.15,0,0,0,5.59,0A1.92,1.92,0,0,0,64.16,84.5Z"/><path class="cls-29" d="M58.3,85.58a1.63,1.63,0,0,1,.7.16s.26.19.16.34-1.09,0-1.13-.28C58,85.76,58,85.62,58.3,85.58Z"/><path class="cls-27" d="M63.79,81.81l-.12-.14-.06-.07-.12-.15-.11-.14-.06-.07-.12-.15L63.08,81,63,80.87l-.12-.14-.11-.14-.06-.08-.12-.14c.45.56.3,1.24-.48,1.71a4.11,4.11,0,0,1-3.74,0c-.84-.47-1-1.19-.55-1.76h0l-.12.14-.06.07-.12.15-.12.14-.06.07-.12.15-.3.36-.11.14-.06.07-.12.14c-.72.87-.43,1.94.83,2.65a6.18,6.18,0,0,0,5.59-.06C64.24,83.68,64.47,82.65,63.79,81.81Z"/><path class="cls-30" d="M64.16,85V84.5a1.92,1.92,0,0,1-1.1,1.58,6.15,6.15,0,0,1-5.59,0,2,2,0,0,1-1.21-1.65V85a2,2,0,0,0,1.21,1.66,6.15,6.15,0,0,0,5.59-.06A1.92,1.92,0,0,0,64.16,85Z"/><path class="cls-30" d="M63,84.72l.33-.23a2.62,2.62,0,0,0,.29-.26,2,2,0,0,0,.28-.35,2.81,2.81,0,0,0,.17-.33,1.54,1.54,0,0,0,.14-.68c0-.16,0-.26,0-.3a.65.65,0,0,0,0-.13,2.67,2.67,0,0,0-.09-.26c.36.76,0,1.6-1,2.2a6.18,6.18,0,0,1-5.59.06C56.39,83.83,56,83,56.41,82.16a.84.84,0,0,0-.06.14l-.07.22,0,.21a2.36,2.36,0,0,0,0,.27,1.87,1.87,0,0,0,.09.42,2.19,2.19,0,0,0,.2.41,2.34,2.34,0,0,0,.61.66l.16.12a2.4,2.4,0,0,0,.27.16l.22.12.38.16a6.21,6.21,0,0,0,4.06,0,2.44,2.44,0,0,0,.24-.1l.24-.1Z"/><path class="cls-28" d="M58.46,81.68a4,4,0,0,0,3.6,0c1-.59.94-1.52-.08-2.08a4,4,0,0,0-3.59,0C57.42,80.18,57.45,81.11,58.46,81.68Z"/><path class="cls-27" d="M62.57,81.72a1.32,1.32,0,0,0,.28-.47,1.08,1.08,0,0,0,0-.51,1.65,1.65,0,0,0-.08-.32,1.09,1.09,0,0,0-.08-.15.28.28,0,0,0-.06-.09,1.09,1.09,0,0,0-.2-.25,1.54,1.54,0,0,0-.19-.17c.71.57.64,1.36-.22,1.88a4,4,0,0,1-3.6,0c-.93-.52-1-1.35-.3-1.93l-.19.17a1.3,1.3,0,0,0-.15.18l-.07.09a1.45,1.45,0,0,0-.2.54,1,1,0,0,0,0,.48.86.86,0,0,0,.11.26,1.21,1.21,0,0,0,.17.24,1.85,1.85,0,0,0,.52.41,4.11,4.11,0,0,0,3.74,0A1.81,1.81,0,0,0,62.57,81.72Z"/><path class="cls-29" d="M58.7,82.06s.09.17.5.25a.66.66,0,0,0,.51,0s0,0,0,0-.93-.35-1-.21v0Z"/><path class="cls-27" d="M62.13,73.46a1.72,1.72,0,0,1,.27-.56,2.18,2.18,0,0,1-.88.45,3.26,3.26,0,0,1-.58.13,4.83,4.83,0,0,1-.64,0,4.5,4.5,0,0,1-.63,0,3.58,3.58,0,0,1-.6-.12l-.18-.06a2.11,2.11,0,0,1-.33-.13l-.25-.13L58.16,73a.43.43,0,0,1-.07-.07,2,2,0,0,1,.15.26c0,.06.08.19.12.3a1.08,1.08,0,0,0,.56.61,3,3,0,0,0,2.71,0A1.14,1.14,0,0,0,62.13,73.46Z"/><path class="cls-21" d="M58.36,73.09a4.24,4.24,0,0,0,1.74.5,2.21,2.21,0,0,1,.49.09.38.38,0,0,1,.22.18,2.07,2.07,0,0,1,.1.43,2.56,2.56,0,0,0,.72-.27,1.14,1.14,0,0,0,.5-.56h0v-.09l0,0,0,0,0,0,0-.06,0-.06a.13.13,0,0,0,0,0l0,0,0,0,0,0,0,0h0l0,0-.06,0-.16.11-.13.07-.15.08-.17.06a1,1,0,0,1-.18.06l-.18.06-.2,0-.2,0-.21,0-.21,0h-.64l-.21,0-.21,0-.2,0-.19-.05-.18-.06-.18-.06-.15-.07-.15-.08-.1,0-.06,0,.11.07Z"/><path class="cls-27" d="M62.37,73a3.33,3.33,0,0,0,.41-.31l.17-.18a1.77,1.77,0,0,0,.16-.22,1.55,1.55,0,0,0,.18-.43,1.48,1.48,0,0,0,.05-.24s0-.07,0-.1v-.11s0-.09,0-.13a1.27,1.27,0,0,0,0-.37,2,2,0,0,0-.08-.22l-.07-.15c-.07-.13-.2-.29-.22-.33s-.18-.22-.37-.4c.63.6.51,1.4-.37,1.92a4.25,4.25,0,0,1-3.88,0c-1-.52-1.1-1.35-.45-2a3.35,3.35,0,0,0-.46.53,2.29,2.29,0,0,0-.17.28,1.92,1.92,0,0,0-.11.28,1.26,1.26,0,0,0,0,.27v.13s0,.07,0,.1v.08c0,.09,0,.14,0,.21a1.47,1.47,0,0,0,.21.58,1.73,1.73,0,0,0,.2.28,1.5,1.5,0,0,0,.22.21,2.42,2.42,0,0,0,.59.38,4.21,4.21,0,0,0,1.7.39,4.68,4.68,0,0,0,.65,0l.43-.06.21,0,.21-.06c.12,0,.27-.09.38-.13S62.36,73,62.37,73Z"/><path class="cls-30" d="M63,70.55l-.05-.44a1.27,1.27,0,0,1-.74,1.18,4.25,4.25,0,0,1-3.82,0,1.33,1.33,0,0,1-.82-1.24l-.05.44a1.34,1.34,0,0,0,.84,1.25,4.25,4.25,0,0,0,3.88,0A1.29,1.29,0,0,0,63,70.55Z"/><path class="cls-31" d="M57.8,69.34a5.52,5.52,0,0,0,5,0h0L63,69.2l0,0,.09-.08,0,0,.12-.1h0l.11-.1h0l0,0,.05,0,0,0a.1.1,0,0,0,0,0l0,0a.21.21,0,0,0,0-.06l0,0,0-.06a0,0,0,0,1,0,0v0a.61.61,0,0,0,0-.12h0l0-.11v0s0-.08,0-.11v0a.49.49,0,0,0,0-.12h0v-.15s0-.08,0-.12v0a.43.43,0,0,0,0-.11l0,0,0-.1v0l-.06-.12,0,0-.06-.09,0,0L63.44,67h0l-.1-.11h0l0,0-.09-.08,0,0-.13-.1,0,0-.12-.08,0,0-.16-.09-.15-.09-.05,0-.12,0-.06,0-.13,0,0,0L62,66.07h0l-.15,0-.06,0-.13,0-.06,0-.16,0h0l-.2,0h-.05l-.14,0h-.07l-.14,0h-.92l-.19,0H59.6l-.14,0H59.3l-.08,0h-.08l-.08,0L59,66H58.9l-.08,0-.08,0-.07,0-.08,0-.08,0-.07,0-.08,0-.07,0-.07,0h0l0,0-.06,0-.08,0,0,0-.08,0,0,0-.12.07a2.63,2.63,0,0,0-.51.39C56.39,67.62,56.6,68.67,57.8,69.34Zm1.59-2.48a.51.51,0,0,1,.24-.27l.06,0h0l0,0h.11l0,0h.59l.09,0h0l.07,0h0l.06,0h0l.08,0,.08,0v0l0,0h0l0,.06h0l0,0h0a.14.14,0,0,1,0,.06h0a.13.13,0,0,1,0,.06v0a.09.09,0,0,1,0,.05h0s0,0,0,.06v0l0,0,0,0,0,0h0l0,0v0l-.07,0h0l-.13.06a1.41,1.41,0,0,1-1.12,0A.42.42,0,0,1,59.39,66.86Z"/><path class="cls-32" d="M57.19,66.83a3.82,3.82,0,0,1,2.2,0c.43.12.86.29,1.35.48l0,0A6,6,0,0,1,63,69.17l.09-.08,0,0,.12-.1h0l.11-.1h0l0,0,.05,0,0,0a.1.1,0,0,0,0,0l0,0a.21.21,0,0,0,0-.06l0,0,0-.06a0,0,0,0,1,0,0v0a.61.61,0,0,0,0-.12h0l0-.11v0s0-.08,0-.11v0a.49.49,0,0,0,0-.12h0v-.15s0-.08,0-.12v0a.43.43,0,0,0,0-.11l0,0,0-.1v0l-.06-.12,0,0-.06-.09,0,0L63.44,67h0l-.1-.11h0l0,0-.09-.08,0,0-.13-.1,0,0-.12-.08,0,0-.16-.09-.15-.09-.05,0-.12,0-.06,0-.13,0,0,0L62,66.07h0l-.15,0-.06,0-.13,0-.06,0-.16,0h0l-.2,0h-.05l-.14,0h-.07l-.14,0h-.92l-.19,0H59.6l-.14,0H59.3l-.08,0h-.08l-.08,0L59,66H58.9l-.08,0-.08,0-.07,0-.08,0-.08,0-.07,0-.08,0-.07,0-.07,0h0l0,0-.06,0-.08,0,0,0-.08,0,0,0-.12.07A2.63,2.63,0,0,0,57.19,66.83Z"/><path class="cls-33" d="M62.76,66.38a4.41,4.41,0,0,0-1.21-.45,5.54,5.54,0,0,0-1.37-.14,5.43,5.43,0,0,0-1.35.17,3.23,3.23,0,0,0-.5.15l-.24.09a3.92,3.92,0,0,0-.44.23s0,0,.05,0a5.5,5.5,0,0,1,5,0c1.42.78,1.46,2.08.11,2.9a5.52,5.52,0,0,1-5,0c-1.41-.79-1.46-2.09-.1-2.9,0,0,0,0-.05,0a3.67,3.67,0,0,0-.38.27c-.05,0-.12.1-.16.15a2.51,2.51,0,0,0-.25.32,1.68,1.68,0,0,0-.27.88c0,.06,0,.13,0,.19s0,.27.08.38a2.94,2.94,0,0,0,.18.51,12.56,12.56,0,0,0,.84,1.59,1.91,1.91,0,0,0,.67.61,4.25,4.25,0,0,0,3.82,0,1.76,1.76,0,0,0,.59-.55,12.84,12.84,0,0,0,.85-1.59,3.56,3.56,0,0,0,.21-.61,1.56,1.56,0,0,0,.07-.46,2.33,2.33,0,0,0,0-.37,1.09,1.09,0,0,0-.05-.17,1.58,1.58,0,0,0-.16-.35c-.07-.1-.18-.22-.26-.32s-.1-.1-.15-.15A3.16,3.16,0,0,0,62.76,66.38Z"/><path class="cls-27" d="M58.1,80.91l0,0v0h0a1.21,1.21,0,0,0,.39.43l.18.12,0,0h0a3.23,3.23,0,0,0,1.34.33h.65l.09,0,.12,0,.09,0,.12,0,.09,0,.12,0,.07,0,.13-.06h.06l0,0,.14-.08.12-.07s0-.13-.05-.28c0,.1,0,.19.05.28a1,1,0,0,0,.49-.82v-.06c-.27-1.21-.47-2.35-.6-3.38l0-.48c0-.14,0-.34,0-.48l0-.45c0-.14,0-.33,0-.47v-.38c0-.12,0-.29,0-.41l0-.23a3,3,0,0,1,.09-.32v0l-.11,0-.13.14a.58.58,0,0,1,.13-.14l-.1.07-.13.07,0,0-.1,0,0,0-.15,0h0l-.14,0H61l-.12,0h0a3,3,0,0,1-1.89-.26l-.16-.1,0,0-.06,0v0l.05.17c0,.11,0,.26.06.38l0,.34c0,.14,0,.32,0,.45v.44c0,.14,0,.34,0,.48l0,.48c0,.15,0,.34-.06.49l-.07.48-.07.47-.08.44c0,.13,0,.3-.08.42l-.07.38c0,.1,0,.23-.07.34l-.06.28a2.25,2.25,0,0,0,0,.22l0,.16,0,.08s0,0,0,.07v0a.09.09,0,0,0,0,0v.36Z"/><path class="cls-21" d="M60,74.35c.73.09.79.1.84.37.21,1.24.09,2.5.18,3.75.07,1.08.19,2.16.27,3.24a2.21,2.21,0,0,0,.54-.24l.12-.07,0-.09c-.47-2.92-.87-6.57-.17-7.36l-.1.07a2.94,2.94,0,0,1-1.76.32Z"/><path class="cls-29" d="M60.09,81.86s-.06-3.25-.15-4.66-.24-2.61-.5-.65-.69,5-.69,5A2.56,2.56,0,0,0,60.09,81.86Z"/><path class="cls-21" d="M63.06,86.08a2,2,0,0,0,1.09-1.42v0l0,0c-.06,0-.32-.53-.32-.54a2.23,2.23,0,0,1-.9.91l-.32.17a2.29,2.29,0,0,1,0,1l0,.06c.18-.08.35-.17.51-.26Z"/><path class="cls-28" d="M63.8,83.76l-1.18-2.09a1.84,1.84,0,0,1-.49.41l-.17.09.87,2.34.24-.13a2.68,2.68,0,0,0,.73-.62Z"/><path class="cls-29" d="M58.8,82.31l.16,0,.23.07.32.06.21,0L59.46,85,59.15,85a3.71,3.71,0,0,1-.48-.1,3.37,3.37,0,0,1-.34-.09l-.23-.08Z"/><path class="cls-21" d="M64.15,85.14v-.48a2,2,0,0,1-1.09,1.42c-.16.09-.33.18-.51.26v.47a3.06,3.06,0,0,0,.51-.26,2,2,0,0,0,1.09-1.41Z"/><path class="cls-33" d="M62.13,82.08a1.81,1.81,0,0,0,.44-.36l0,0,0-.06.05-.06,0-.08,0-.06,0-.09,0-.08,0-.1v-.08s0-.08,0-.11v-.17c0,.06,0,.23-.29.33a1.54,1.54,0,0,1-.55.52,2.71,2.71,0,0,1-.65.28h0c.36.35-.31.57-.91.62a3.57,3.57,0,0,0,1.63-.46Z"/><path class="cls-28" d="M59.87,73.52c.07,0,.22,0,.44,0h.21l.22,0,.22,0,.21,0,.21,0,.21-.06.2-.06.2-.08.18-.08.2-.11.15-.1a2.37,2.37,0,0,0,.34-.29l.09-.1.16-.22,0-.1.07-.15,0-.09,0-.11v-.08a.24.24,0,0,0,0-.08v-.31l0,.08c0,.14-.1.26-.29.28s-.22-.09-.27-.13l-.25,0a.61.61,0,0,1,.07-.1,1.87,1.87,0,0,1-.38.28l0,0,.06,0,0,0c0,.23,0,.46,0,.69l0,.15c0,.07-.13.09-.16.16s0,.14,0,.21a.48.48,0,0,1-.21.22,3.31,3.31,0,0,1-2.13.34l.16,0Z"/><path class="cls-34" d="M58.87,72.73a3.05,3.05,0,0,0,.48.14.29.29,0,0,0,.16,0s.06,0,.06-.06a.84.84,0,0,0-.18-.2H58.9a.12.12,0,0,0-.06.06.21.21,0,0,0,0,.07Z"/><path class="cls-28" d="M63,70.86l0-.44a1.43,1.43,0,0,1-.72.87l-.31.16,0,.46a3.07,3.07,0,0,0,.31-.17,1.49,1.49,0,0,0,.74-.88Z"/><path class="cls-28" d="M62.2,71.29a1.76,1.76,0,0,0,.59-.55l0,0,0-.06,0-.08.06-.1.07-.13a.64.64,0,0,0,.08-.14L63.2,70c0-.05.06-.11.08-.16l.1-.17a1,1,0,0,1,.09-.18l.09-.19c0-.06.06-.14.08-.19l.08-.2a1.8,1.8,0,0,1,.08-.21l.05-.2a2.8,2.8,0,0,0,.06-.28v-.05a1.37,1.37,0,0,1-.23.47c-.36.5-1,.7-1.34,1.18a6,6,0,0,0-.65,1.25,2.89,2.89,0,0,1-.23.49,3.29,3.29,0,0,0,.74-.31Z"/><path class="cls-29" d="M58.44,69.82a3.58,3.58,0,0,0,.9.22c.35,0,.37,0,.42-.05a10.67,10.67,0,0,1-1.31-.26s-.1-.06-.15,0,0,0,0,0,.12.06.18.09Z"/><path class="cls-35" d="M58.61,66.47h0l0,.09a.54.54,0,0,0,.05.11l.06.08.08.1.07.08,0,0a2,2,0,0,0,.72.38h0l.08,0,.11,0h.21a2.38,2.38,0,0,0,.38,0h.11l.09,0h0a1.8,1.8,0,0,0,.75-.31l.12-.09.08-.07.09-.1.06-.08,0,0a.43.43,0,0,1,0-.07h0l0-.07h0a.24.24,0,0,0,0-.08v0h0a.13.13,0,0,1,0-.06v0a.34.34,0,0,0,0-.1v-.09s0-.05,0-.08h0a.81.81,0,0,0-.08-.2,1.18,1.18,0,0,0-.47-.43,2.46,2.46,0,0,0-2.26,0h0l-.18.13-.08.07-.07.08-.05.08-.06.09h0A.67.67,0,0,0,58.61,66.47Zm.69-1h-.17A.32.32,0,0,1,59.3,65.46Zm.84.35a3.94,3.94,0,0,0-.73-.33H59.3A3,3,0,0,1,60.14,65.81Z"/><path class="cls-31" d="M61.9,66.09s0,0,0,0a1,1,0,0,0-.07-.17,1.18,1.18,0,0,0-.47-.43,2.45,2.45,0,0,0-1.53-.23l0,0,0,0a2.18,2.18,0,0,0-.73.25h0l-.18.13-.08.07-.07.08-.05.08-.06.09h0l0,.11h0l0,.09.05.11.06.08.08.1.07.08,0,0a1.9,1.9,0,0,0,.72.39h0l.08,0,.11,0h.7l.09,0h0a1.8,1.8,0,0,0,.75-.31l.12-.09.08-.07.09-.1.06-.09,0,0a.43.43,0,0,1,0-.07h0l0-.08h0ZM60,65.72l0,0Zm-.12-.06,0,0Zm-.11-.06,0,0Zm-.1,0,0,0Zm-.25-.08h0Zm.12,0,0,0Zm-.08,0h0Zm-.26,0h0Zm.06,0h0Zm0,0h0ZM60,65.3l0,0Z"/><path class="cls-35" d="M61.92,66.07Z"/><path class="cls-28" d="M60.09,67.43h.49l.11,0,.1,0,.11,0,.1,0,.12,0,.1-.05.13-.07.09-.06.12-.09.08-.07.09-.1.06-.08s.05-.08.06-.11l0-.09s0-.07,0-.11v-.08a.3.3,0,0,1-.12.18h0c-.11.1-.25.17-.37.26a.58.58,0,0,0-.1.12.57.57,0,0,1-.3.29,1.78,1.78,0,0,1-1.13.19l.1,0Z"/><path class="cls-36" d="M59.43,67.06a1,1,0,0,0,.55.11s0,0,0-.07L59.45,67a.11.11,0,0,0,0,.06Z"/><path class="cls-37" d="M58.33,63.68h0v.07h0v0h0v0h0a.43.43,0,0,1,0,0l0,0v0h0l0,0h0a2.06,2.06,0,0,1,.09.22h0l.15.08,0,0,.1,0a1.34,1.34,0,0,1,.24.12l.13.07a3,3,0,0,1-.16.5h0a.72.72,0,0,1-.12.21h0l0,0,0,0,.05,0,0,.06h0l0,0h0l0,0h0l0,0h0l0,0,.05.05,0,0,.05,0h0l.09.07h0l.06,0,0,0h0l.21.14,0,0h0l.07,0,0,0h0l.07,0h.07l0,0h0l0,0h.88l0,0h0l.06,0,.09,0c.18-.11.3-.23.28-.28s-.08-.21-.12-.31l0,0,.09,0a1.65,1.65,0,0,0,.29-.22l0,0,0,0h0l0,0,0,0h0l0,0h0l0,0v0h0l0,0v0h0a.07.07,0,0,0,0-.05h0v0h0v-.09h0v-.06h0a.36.36,0,0,0,0-.1h0v0a.19.19,0,0,0,0-.07h0a1.73,1.73,0,0,0-.08-.21h0l0-.07-.16-.08,0,0h0l-.09-.05h0L61.41,64h0l0,0-.13-.06a1.54,1.54,0,0,1,.28-.69h0s0-.05,0-.07h0l0,0,0,0,0,0h0l0,0,0,0h0l0,0h0l0,0,0,0h0l0,0-.14-.14,0,0,0,0h0l-.05,0h0l0,0,0,0h0l-.05,0,0,0,0,0h0l0,0h0l0,0h0l0,0h0l0,0H60.4l0,0h-.19l0,0h-.49a1.12,1.12,0,0,0-.38.14l-.09.06-.06,0h0l0,0h0l0,0h0l0,0h0l0,0h0v0h0s0,0,0,0h0l.12.31h0l0,0-.09.06-.06,0h0l0,0h0l0,0h0l0,0h0l0,0h0l0,0h0l0,0,0,0h0v0l0,0h0l0,0a.43.43,0,0,0-.09.3h0v0h0Zm2.41,2.75Zm-2.22-3.24Zm.65,1.41Zm0,0Zm0,0Zm-.65-.34Zm.35,1.1Zm-.35-1.1h0Zm2.08-2h0Zm0,0Zm-1.74,3.1Zm-.36-1.1Z"/><path class="cls-31" d="M58.87,62.49h0s0,0,0,0a1.52,1.52,0,0,1,.91.21l0,0a3.54,3.54,0,0,1,.9.84h0a1.36,1.36,0,0,0,.42-.17h0l.09,0c.19-.11.3-.21.28-.24l0,0,0,0,0-.05,0,0-.05-.05,0,0,0,0,0,0-.05,0,0,0,0,0-.05,0,0,0,0,0-.05,0,0,0,0,0,0,0,0,0,0,0h0l-.05,0,0,0,0,0-.05,0,0,0,0,0-.05,0h-.1l0,0h-.49a1.12,1.12,0,0,0-.38.14l-.09.06-.06,0h0l0,0h0l0,0h0l0,0h0l0,0h0v0h0Z"/><path class="cls-31" d="M58.52,63.19h0a0,0,0,0,0,0,0h0l0,0h0l0,0h0l0,0h0l0,0h0l0,0h0l0,0h0l.06,0,.09-.06c.17-.1.33-.15.38-.12l.67.43a.55.55,0,0,0-.42.1l-.09.06-.08,0h0s0,0,0,0h0l0,0,0,0s0,0,0,0-.07.11,0,.14l-.68-.43Z"/><path class="cls-31" d="M60.94,64.05l.29-.17.67.34a1.34,1.34,0,0,0-.32.16l-.09.05a1.6,1.6,0,0,0-.39.27l-.68-.35.43-.24Z"/><path class="cls-27" d="M59.79,62.73a1.52,1.52,0,0,0-.91-.21,4.06,4.06,0,0,1,.32,1.12l-.68-.43c-.25.27-.25.49,0,1.05l.66.33a1.89,1.89,0,0,1-.31.77,3.6,3.6,0,0,0,.93.82,1.65,1.65,0,0,0,.93.25,5.55,5.55,0,0,1-.3-1.11l.66.42c.25-.27.25-.48,0-1l-.68-.35a1.47,1.47,0,0,1,.31-.76,3.54,3.54,0,0,0-.9-.84h0Z"/><path class="cls-28" d="M60.45,62.18a.13.13,0,0,1-.08.16.49.49,0,0,1-.44,0c-.09,0-.12-.11-.1-.16l-.06.18a.17.17,0,0,0,.11.2.6.6,0,0,0,.54,0,.16.16,0,0,0,.1-.19v0h0v0h0v0h0v0h0Z"/><path class="cls-21" d="M59.54,61.8a.61.61,0,1,0,.61-.61A.6.6,0,0,0,59.54,61.8Z"/><circle class="cls-13" cx="60.08" cy="61.73" r="0.5"/><path class="cls-38" d="M59.8,61.65a.16.16,0,1,0,.32,0,.16.16,0,1,0-.32,0Z"/><path class="cls-39" d="M57.76,68.8c-.07.27.42.61,1.09.77s1.25.06,1.31-.21.11-1.57-.55-1.73S57.82,68.53,57.76,68.8Z"/><path class="cls-40" d="M58.69,65.87a.63.63,0,0,0,0,.36.83.83,0,0,0,.2.32,1.5,1.5,0,0,0,.64.36,2.51,2.51,0,0,0,.72.11,3.38,3.38,0,0,0,.72-.11,3.1,3.1,0,0,1-1.42-.08,1.49,1.49,0,0,1-.62-.33A.65.65,0,0,1,58.69,65.87Z"/><path class="cls-40" d="M61.27,65.45a1.14,1.14,0,0,0-.16-.76h0l-.67-.36v0a3,3,0,0,1,.11-.4.63.63,0,0,1,.21-.33l0,0,0,0a2.93,2.93,0,0,0-.38-.41,3,3,0,0,0-.43-.36,1.57,1.57,0,0,0-1.07-.31h-.06l0,0a2.85,2.85,0,0,1,.32,1.11l0,0-.68-.43h0a.58.58,0,0,0-.17.36,1,1,0,0,0,0,.38.81.81,0,0,1,0-.38.51.51,0,0,1,.17-.33h0l.67.45,0,0v-.06a2.9,2.9,0,0,0-.31-1.14l0,.06a1.51,1.51,0,0,1,1,.29q.21.16.42.36a3.59,3.59,0,0,1,.38.4v0a.75.75,0,0,0-.23.37,2.71,2.71,0,0,0-.09.41v0h0l.69.34h0A1.24,1.24,0,0,1,61.27,65.45Z"/><path class="cls-41" d="M48.17,77a1.28,1.28,0,0,0,0,.28,2,2,0,0,0,.09.42s0,.11.06.15,0,.18-.07.27a2.8,2.8,0,0,0-.08.63v.47a2,2,0,0,0,1.22,1.66,6.22,6.22,0,0,0,5.07.2h0a5,5,0,0,0,.52-.26,2.49,2.49,0,0,0,.24-.17l.08,0,.14-.12a.46.46,0,0,0,.07-.07l.11-.11.07-.08.09-.11a.56.56,0,0,1,0-.08.75.75,0,0,0,.07-.12.59.59,0,0,0,0-.08l.05-.12,0-.08,0-.12s0-.06,0-.08v-.07s0-.08,0-.12v-.48a2,2,0,0,0,0-.34s0-.16-.05-.29,0-.17-.08-.26l0-.06a1.67,1.67,0,0,0,.14-.68,1.27,1.27,0,0,0,0-.3l0-.13-.1-.25a1,1,0,0,1,.1.28,1.52,1.52,0,0,0-.34-.65l-.11-.15-.06-.07-.12-.14-.12-.15-.06-.07-.12-.15L55,75.22l-.06-.07L54.82,75l0,0a1,1,0,0,0-.08-.29l-.07-.15-.06-.09a1.84,1.84,0,0,0-.21-.25l-.14-.14h0l0,0,0,0-.07,0c-.19-.91-.33-1.78-.43-2.59l0-.48c0-.14,0-.33-.05-.48l0-.45c0-.14,0-.33,0-.47v-.37c0-.13,0-.3,0-.42l0-.23a3,3,0,0,1,.08-.32v0a.23.23,0,0,0-.12.06l-.1.06a1,1,0,0,0,.5-.56l.06-.15v0l.06-.15h0l.06-.1.05,0,.11-.07,0,0h0l.16-.12v0a.13.13,0,0,0,.07-.06l.05,0,0,0,.09-.1a1.59,1.59,0,0,0,.15-.21l0-.09h0v0l0-.11v-.12l0-.06v0h0l0-.07v-.2h0v-.18a.45.45,0,0,0,0-.11,1,1,0,0,0,0-.37,1.72,1.72,0,0,0-.07-.21l-.08-.16L55,64.59h0l0,0,.06-.1.08-.15.09-.17.09-.17a1.51,1.51,0,0,0,.09-.18v0l.07-.15.09-.19.08-.19v0l0-.05a.42.42,0,0,1,0-.1v0h0v0l.05-.18a2,2,0,0,0,0-.27h0c0-.09,0-.15,0-.18a2.09,2.09,0,0,0,0-.36c0-.06,0-.13,0-.18a1.8,1.8,0,0,0-.17-.34,3.92,3.92,0,0,0-.25-.32,1.14,1.14,0,0,0-.16-.15,3,3,0,0,0-.49-.35,4,4,0,0,0-.86-.35v0s0,0,0-.05a.24.24,0,0,0,0-.07,1.21,1.21,0,0,0-.28-.31h0a1.44,1.44,0,0,0,.28-.21l0,0,0,0h0l0,0h0l0,0h0l0,0h0V59.3h0a.43.43,0,0,1,0,0h0v0a.11.11,0,0,0,0,0v0h0v0h0s0-.06,0-.1h0v0s0,0,0-.06h0s0-.11-.08-.21h0l0-.08h0l-.13-.06,0,0-.13-.06,0,0-.17-.09-.17-.09h0a1.47,1.47,0,0,1,.28-.69h0s0,0,0-.05h0l0-.06,0-.05,0,0v0l0,0-.05-.05h0l0,0h0l0,0h0l0,0h0l0,0,0,0,0,0h0l0,0h0l0,0h0l0,0,0,0h0v0h0l0,0,0,0h-.05l0,0h0l0,0h-.07a.64.64,0,0,0,.19-.44.61.61,0,0,0-.61-.61.61.61,0,0,0-.61.61.71.71,0,0,0,.06.25.94.94,0,0,0-.35.14l-.09,0-.07,0h0l0,0h0l0,0h0l0,0h0l0,0h0v0h-.06l0,.05a2.55,2.55,0,0,1,.13.29h0l0,0-.09,0-.06,0h0l0,0h0l0,0h-.08l0,0h0l0,0,0,0h0l0,0h0l0,0a.08.08,0,0,0,0,0l0,0a.5.5,0,0,0-.06.24h0v0h0v.09h0v0h0l0,.06v.06h0l0,0h0a1.35,1.35,0,0,0,.09.22h0l.16.07,0,0,.1,0,.24.12.12.07a2.37,2.37,0,0,1-.16.51h0a1.07,1.07,0,0,1-.13.21h0v0h0l0,0,0,0,0,.06.05,0h0l-.09.08-.08.07-.07.07-.06.08,0,0h0l0,0v0h0l0,.07-.3.1-.23.1a2.44,2.44,0,0,0-.45.22c-.11.08-.27.18-.38.27s-.11.1-.15.15a3.65,3.65,0,0,0-.26.32,1.7,1.7,0,0,0-.26.89,1.09,1.09,0,0,0,0,.18c0,.12,0,.27.08.39a5.16,5.16,0,0,0,.18.5c.14.32.36.75.6,1.18l0,0a2.62,2.62,0,0,0-.17.27,1.23,1.23,0,0,0-.1.29,1.19,1.19,0,0,0,0,.26.57.57,0,0,0,0,.13.34.34,0,0,0,0,.1v.08c0,.1,0,.14,0,.21a1.88,1.88,0,0,0,.21.58,1.91,1.91,0,0,0,.2.28,2.27,2.27,0,0,0,.22.22,2.86,2.86,0,0,0,.38.26.45.45,0,0,1,.06.12,1.54,1.54,0,0,1,.12.3,1.14,1.14,0,0,0,.56.6l-.16-.1,0,0-.07,0v0l0,.17c0,.12,0,.27.07.38l0,.34c0,.14,0,.32,0,.45V70c0,.15,0,.34,0,.49l0,.47c0,.15,0,.35-.06.49l-.06.48c0,.14,0,.33-.08.47l-.07.45c0,.12-.06.29-.08.41l-.07.38c0,.1-.05.24-.07.34l0,.06-.09.07,0,0-.2.18-.15.17-.06.09a1.35,1.35,0,0,0-.2.51l0,0-.11.14-.06.07-.12.15-.3.36-.12.14-.06.07-.12.15a1.64,1.64,0,0,0-.34.67,1.45,1.45,0,0,1,.11-.31s0,.1-.07.14,0,.16-.06.22A1.77,1.77,0,0,0,48.17,77Z"/><path class="cls-41" d="M49.43,76.34l.25,0a5.31,5.31,0,0,1,4.8,0c1.35.75,1.39,2,.1,2.78a5.27,5.27,0,0,1-4.8,0c-1.35-.75-1.39-2-.1-2.77l-.25,0c-1.42.86-1.37,2.23.11,3.06a5.81,5.81,0,0,0,5.28-.05c1.43-.86,1.38-2.23-.11-3.06A5.81,5.81,0,0,0,49.43,76.34Z"/><path class="cls-42" d="M56.08,78.77a2,2,0,0,0,0-.34s0-.16-.05-.29-.09-.33-.15-.51c0,0,0-.14-.08-.25.26.68-.06,1.43-1,2a5.81,5.81,0,0,1-5.28.05c-1-.55-1.33-1.33-1-2a5.39,5.39,0,0,0-.24.76,2.8,2.8,0,0,0-.08.63,2,2,0,0,0,1.22,1.66A6.15,6.15,0,0,0,55,80.35,1.94,1.94,0,0,0,56.08,78.77Z"/><path class="cls-43" d="M50.22,79.85a1.88,1.88,0,0,1,.7.16s.26.2.15.34S50,80.4,50,80.07C49.94,80,50,79.9,50.22,79.85Z"/><path class="cls-44" d="M55.7,76.09l-.11-.15-.06-.07-.12-.14-.12-.15-.06-.07-.12-.15L55,75.22l-.06-.07L54.82,75l-.12-.14-.06-.07-.12-.15c.46.56.3,1.25-.48,1.72a4.12,4.12,0,0,1-3.73,0c-.85-.47-1-1.18-.56-1.76h0l-.12.14-.06.07-.12.15-.11.14-.06.07-.12.15-.3.36-.12.14-.06.07-.12.15c-.71.86-.43,1.94.83,2.64A6.15,6.15,0,0,0,55,78.65C56.15,78,56.39,76.92,55.7,76.09Z"/><path class="cls-41" d="M56.08,79.25v-.48A1.94,1.94,0,0,1,55,80.35a6.15,6.15,0,0,1-5.59.06,2,2,0,0,1-1.22-1.66v.47a2,2,0,0,0,1.22,1.66,6.15,6.15,0,0,0,5.59,0A1.94,1.94,0,0,0,56.08,79.25Z"/><path class="cls-45" d="M54.88,79a2.54,2.54,0,0,0,.34-.23,2.44,2.44,0,0,0,.28-.25,3.78,3.78,0,0,0,.29-.36,2.13,2.13,0,0,0,.17-.33,1.67,1.67,0,0,0,.14-.68,1.27,1.27,0,0,0,0-.3l0-.13-.1-.25c.36.75.05,1.59-1,2.19a6.15,6.15,0,0,1-5.59.06c-1.09-.61-1.45-1.49-1.06-2.28,0,0,0,.1-.07.14s0,.16-.06.22a1.77,1.77,0,0,0,0,.21,1.28,1.28,0,0,0,0,.28,2,2,0,0,0,.09.42,2.21,2.21,0,0,0,.2.41,2.73,2.73,0,0,0,.6.66l.17.11.26.17.22.11.38.16a6.24,6.24,0,0,0,4.07,0l.24-.09.23-.11Z"/><path class="cls-46" d="M50.38,76a4,4,0,0,0,3.59,0c1-.58.94-1.51-.07-2.08a4,4,0,0,0-3.6,0C49.33,74.45,49.36,75.38,50.38,76Z"/><path class="cls-45" d="M54.49,76a1.34,1.34,0,0,0,.27-.47,1.13,1.13,0,0,0,.05-.51,1.1,1.1,0,0,0-.09-.33l-.07-.15-.06-.09a1.84,1.84,0,0,0-.21-.25A1.45,1.45,0,0,0,54.2,74c.71.57.64,1.36-.23,1.88a4,4,0,0,1-3.59,0c-.93-.52-1-1.34-.3-1.93l-.2.18-.15.17-.06.09a1.35,1.35,0,0,0-.21.54,1.41,1.41,0,0,0,0,.48,1.23,1.23,0,0,0,.11.26,1.09,1.09,0,0,0,.17.24,1.91,1.91,0,0,0,.53.41,4.12,4.12,0,0,0,3.73,0A1.87,1.87,0,0,0,54.49,76Z"/><path class="cls-43" d="M50.62,76.33s.08.17.5.26a.7.7,0,0,0,.51,0v0c0-.09-.93-.35-1-.21a0,0,0,0,0,0,0Z"/><path class="cls-45" d="M54,67.73a2.08,2.08,0,0,1,.28-.56,2.11,2.11,0,0,1-.88.46,5.39,5.39,0,0,1-.59.13,4.74,4.74,0,0,1-.63,0c-.24,0-.4,0-.64,0a3.85,3.85,0,0,1-.6-.12l-.18-.05-.32-.13a1.62,1.62,0,0,1-.25-.14l-.16-.11L50,67.16a1.51,1.51,0,0,1,.15.26,1.54,1.54,0,0,1,.12.3,1.14,1.14,0,0,0,.56.6,3,3,0,0,0,2.71,0A1,1,0,0,0,54,67.73Z"/><path class="cls-41" d="M50.27,67.36a4.14,4.14,0,0,0,1.75.5,1.51,1.51,0,0,1,.49.1.37.37,0,0,1,.22.17,3.34,3.34,0,0,1,.1.43,2,2,0,0,0,.71-.27,1,1,0,0,0,.5-.56h0v0l0,0v0l0,0,0-.05,0-.06,0-.05,0-.06,0,0,0,0v0l0,0h0l0,0-.06,0-.16.11-.13.07-.16.07-.16.07-.18.06-.19.05-.2,0-.2,0-.21,0-.21,0h-.64l-.21,0-.2,0-.2,0-.2,0-.18-.05-.17-.07-.15-.06-.16-.08-.09-.06-.06,0,.1.07Z"/><path class="cls-45" d="M54.28,67.28a2.16,2.16,0,0,0,.41-.31,1.53,1.53,0,0,0,.18-.18,1.59,1.59,0,0,0,.15-.21,1.75,1.75,0,0,0,.19-.44c0-.09,0-.17,0-.23s0-.08,0-.11v-.11a.57.57,0,0,0,0-.13,1,1,0,0,0,0-.37,1.72,1.72,0,0,0-.07-.21l-.08-.16a2.69,2.69,0,0,0-.22-.32,3.09,3.09,0,0,0-.36-.4c.62.6.51,1.39-.37,1.92a4.28,4.28,0,0,1-3.88,0c-1-.53-1.11-1.36-.45-2a3.7,3.7,0,0,0-.47.54,2.62,2.62,0,0,0-.17.27,1.23,1.23,0,0,0-.1.29,1.19,1.19,0,0,0,0,.26.57.57,0,0,0,0,.13.34.34,0,0,0,0,.1v.08c0,.1,0,.14,0,.21a1.88,1.88,0,0,0,.21.58,1.91,1.91,0,0,0,.2.28,2.27,2.27,0,0,0,.22.22,3,3,0,0,0,.6.37,4.34,4.34,0,0,0,2.35.37l.43-.06.21,0,.21-.06.38-.14A3.78,3.78,0,0,0,54.28,67.28Z"/><path class="cls-41" d="M54.91,64.82l0-.44a1.28,1.28,0,0,1-.75,1.18,4.19,4.19,0,0,1-3.81,0,1.3,1.3,0,0,1-.82-1.23l0,.43a1.34,1.34,0,0,0,.84,1.26,4.28,4.28,0,0,0,3.88,0A1.32,1.32,0,0,0,54.91,64.82Z"/><path class="cls-44" d="M49.72,63.61a5.5,5.5,0,0,0,5,0h0l.14-.09,0,0,.1-.07,0,0,.12-.1h0l.1-.1h0l0,0,0-.05s0,0,0,0l0-.06,0,0a.1.1,0,0,1,0,0l0-.05,0,0,0,0h0l.06-.12v0s0-.07,0-.11v0l0-.11v0s0-.08,0-.12h0v0a.34.34,0,0,0,0-.1v0a.5.5,0,0,0,0-.12v0l0-.1v0a.69.69,0,0,0,0-.1v0a.34.34,0,0,0-.06-.12v0l-.06-.09,0,0-.09-.11h0l-.09-.1,0,0h0l-.1-.09,0,0L55,60.88l0,0-.11-.08,0,0-.16-.09-.16-.08,0,0-.12,0,0,0-.13,0h0l-.18-.06,0,0-.14,0-.06,0-.13,0h-.06l-.17,0h0l-.19,0H53l-.14,0H51.3l-.08,0h-.08l-.08,0H51l-.07,0-.08,0-.08,0-.08,0-.08,0-.08,0-.07,0-.08,0-.07,0-.07,0-.08,0h0l0,0-.06,0-.08,0-.05,0-.09,0,0,0-.12.07a2.63,2.63,0,0,0-.51.39C48.3,61.9,48.51,62.94,49.72,63.61Zm1.59-2.48a.45.45,0,0,1,.23-.27l.06,0h0l0,0,0,0h.69l.1,0h0l.07,0h0l.06,0h0l.08,0,.07,0h0l0,0h0L53,61h0l0,0v0s0,0,0,0h0v.06h0v.07a.14.14,0,0,1,0,.06h0s0,0,0,0v0s0,0,0,0l0,0,0,0h0l-.07,0h0l-.12.06a1.41,1.41,0,0,1-1.12-.05C51.35,61.46,51.26,61.29,51.31,61.13Z"/><path class="cls-41" d="M49.11,61.1a3.91,3.91,0,0,1,2.2,0c.42.12.86.29,1.34.48l0,0a5.92,5.92,0,0,1,2.23,1.81l.1-.07,0,0,.12-.1h0l.1-.1h0l0,0,0-.05s0,0,0,0l0-.06,0,0a.1.1,0,0,1,0,0l0-.05,0,0,0,0h0l.06-.12v0s0-.07,0-.11v0l0-.11v0s0-.08,0-.12h0v0a.34.34,0,0,0,0-.1v0a.5.5,0,0,0,0-.12v0l0-.1v0a.69.69,0,0,0,0-.1v0a.34.34,0,0,0-.06-.12v0l-.06-.09,0,0-.09-.11h0l-.09-.1,0,0h0l-.1-.09,0,0L55,60.88l0,0-.11-.08,0,0-.16-.09-.16-.08,0,0-.12,0,0,0-.13,0h0l-.18-.06,0,0-.14,0-.06,0-.13,0h-.06l-.17,0h0l-.19,0H53l-.14,0H51.3l-.08,0h-.08l-.08,0H51l-.07,0-.08,0-.08,0-.08,0-.08,0-.08,0-.07,0-.08,0-.07,0-.07,0-.08,0h0l0,0-.06,0-.08,0-.05,0-.09,0,0,0-.12.07A2.63,2.63,0,0,0,49.11,61.1Z"/><path class="cls-46" d="M54.68,60.65a4.81,4.81,0,0,0-1.22-.45,6.6,6.6,0,0,0-1.36-.14,5.87,5.87,0,0,0-1.35.17,3.6,3.6,0,0,0-.51.15l-.23.1a2.44,2.44,0,0,0-.45.22h.06a5.5,5.5,0,0,1,5-.05c1.41.79,1.46,2.09.1,2.9a5.5,5.5,0,0,1-5,0c-1.41-.78-1.46-2.08-.1-2.9h-.06c-.11.08-.27.18-.38.27s-.11.1-.15.15a3.65,3.65,0,0,0-.26.32,1.7,1.7,0,0,0-.26.89,1.09,1.09,0,0,0,0,.18c0,.12,0,.27.08.39a5.16,5.16,0,0,0,.18.5,13.56,13.56,0,0,0,.85,1.6,1.81,1.81,0,0,0,.67.6,4.19,4.19,0,0,0,3.81,0,1.79,1.79,0,0,0,.6-.55,14.34,14.34,0,0,0,.85-1.59,3.56,3.56,0,0,0,.21-.61,2,2,0,0,0,.07-.46,2.09,2.09,0,0,0,0-.36c0-.06,0-.13,0-.18a1.8,1.8,0,0,0-.17-.34,3.92,3.92,0,0,0-.25-.32,1.14,1.14,0,0,0-.16-.15A3,3,0,0,0,54.68,60.65Z"/><path class="cls-44" d="M50,75.18l0,0v0h0a1.32,1.32,0,0,0,.4.42l.18.12.05,0h0a3.18,3.18,0,0,0,1.33.33h.74l.13,0L53,76l.12,0,.08,0,.12,0,.08,0,.12,0h.09l.15-.08.11-.08s0-.13,0-.27c0,.09,0,.18,0,.27a1,1,0,0,0,.5-.81l0-.07c-.26-1.21-.46-2.34-.59-3.38l0-.48c0-.14,0-.33-.05-.48l0-.45c0-.14,0-.33,0-.47v-.37c0-.13,0-.3,0-.42l0-.23a3,3,0,0,1,.08-.32v0a.23.23,0,0,0-.12.06l-.12.14a.42.42,0,0,1,.12-.14l-.1.06-.13.07,0,0-.1.05h0l-.14,0h0l-.13,0h0l-.12,0h0a3,3,0,0,1-1.9-.26l-.16-.1,0,0-.07,0v0l0,.17c0,.12,0,.27.07.38l0,.34c0,.14,0,.32,0,.45V70c0,.15,0,.34,0,.49l0,.47c0,.15,0,.35-.06.49l-.06.48c0,.14,0,.33-.08.47l-.07.45c0,.12-.06.29-.08.41l-.07.38c0,.1-.05.24-.07.34l-.07.28a1.89,1.89,0,0,1,0,.23l0,.15,0,.09s0,0,0,.06v.37l0,0Z"/><path class="cls-46" d="M51.89,68.62c.73.09.79.1.83.37a33.51,33.51,0,0,1,.18,3.75c.07,1.08.2,2.16.27,3.25a2.29,2.29,0,0,0,.55-.24l.11-.08v-.09c-.47-2.92-.88-6.57-.18-7.35l-.1.06a2.91,2.91,0,0,1-1.75.32Z"/><path class="cls-43" d="M52,76.13s0-3.25-.15-4.66-.23-2.61-.5-.65-.68,5-.68,5A2.5,2.5,0,0,0,52,76.13Z"/><path class="cls-41" d="M55,80.35a2.06,2.06,0,0,0,1.09-1.41h0l0,0s-.31-.53-.31-.53a2.26,2.26,0,0,1-.91.91l-.31.17a2.24,2.24,0,0,1,0,1l0,.06a4.06,4.06,0,0,0,.51-.26Z"/><path class="cls-46" d="M55.72,78l-1.19-2.1a1.89,1.89,0,0,1-.49.42l-.16.09.86,2.34.24-.14a2.71,2.71,0,0,0,.74-.61Z"/><path class="cls-43" d="M50.72,76.58l.16.06.22.06.32.07.21,0-.25,2.52-.32,0-.48-.1-.33-.1L50,79Z"/><path class="cls-41" d="M56.07,79.41v-.47A2,2,0,0,1,55,80.35a4.06,4.06,0,0,1-.51.26v.48a5,5,0,0,0,.52-.26,2.07,2.07,0,0,0,1.09-1.42Z"/><path class="cls-46" d="M54,76.36a1.87,1.87,0,0,0,.45-.36l0,0,0,0,0-.06,0-.08,0-.07a.36.36,0,0,1,0-.09l0-.07,0-.11,0-.08s0-.08,0-.11v-.09s0-.08,0-.11v0c0,.06,0,.23-.28.34a1.65,1.65,0,0,1-.56.51,2.64,2.64,0,0,1-.64.28h0c.36.35-.32.58-.91.63A3.65,3.65,0,0,0,54,76.36Z"/><path class="cls-41" d="M51.78,67.79l.44,0h.22l.22,0,.21,0,.22,0,.21,0,.21-.06.19-.07.21-.08.17-.08.2-.11.15-.1a2.45,2.45,0,0,0,.35-.29l.09-.1c.05-.06.11-.15.15-.21l.06-.1.07-.16,0-.09,0-.11,0-.07a.29.29,0,0,1,0-.09v-.31l0,.08c-.05.14-.1.26-.3.28s-.21-.09-.26-.12l-.26-.06.07-.09a2.24,2.24,0,0,1-.37.28l-.06,0,.07,0h0c0,.23,0,.45,0,.68s0,.14,0,.15S54,66.93,54,67a1.7,1.7,0,0,0,0,.22s-.06.12-.21.22a3.29,3.29,0,0,1-2.13.34Z"/><path class="cls-43" d="M50.79,67a2.88,2.88,0,0,0,.48.15h.15a.09.09,0,0,0,.06-.07s-.15-.19-.18-.2h-.49s-.05,0-.05.05,0,0,0,.07Z"/><path class="cls-41" d="M54.89,65.13l0-.44a1.48,1.48,0,0,1-.73.87,2.85,2.85,0,0,1-.3.16l0,.46.31-.16a1.51,1.51,0,0,0,.74-.89Z"/><path class="cls-41" d="M54.11,65.56a1.79,1.79,0,0,0,.6-.55l0,0,0-.06.05-.09.06-.1.08-.12a.64.64,0,0,1,.08-.14l.08-.15.09-.17.09-.17a1.51,1.51,0,0,0,.09-.18l.09-.19.09-.19.08-.19.07-.22.06-.2a2.33,2.33,0,0,0,0-.28v-.05a1.42,1.42,0,0,1-.24.48c-.35.49-1,.69-1.34,1.17a6.66,6.66,0,0,0-.65,1.26,4.74,4.74,0,0,1-.22.48,3,3,0,0,0,.73-.31Z"/><path class="cls-43" d="M50.35,64.09a3.16,3.16,0,0,0,.91.22c.34,0,.37,0,.42,0A10.59,10.59,0,0,1,50.37,64s-.11-.06-.15,0,0,0,0,0,.13.07.18.09Z"/><path class="cls-45" d="M50.53,60.74h0l0,.1.06.1.05.09.08.1.08.07,0,0a1.8,1.8,0,0,0,.72.38h0l.09,0,.11,0H52a1.6,1.6,0,0,0,.38,0h.21a1.93,1.93,0,0,0,.75-.31l.11-.08.08-.08.09-.1.07-.08v0a.16.16,0,0,0,0-.07h0a.25.25,0,0,0,0-.07h0l0-.09h0a.13.13,0,0,0,0-.06v-.22a.19.19,0,0,0,0-.07h0l-.08-.19a1.29,1.29,0,0,0-.47-.44,2.46,2.46,0,0,0-2.27,0h0a.89.89,0,0,0-.18.13l-.08.07-.07.07-.06.08s0,.06-.05.09v0A.67.67,0,0,0,50.53,60.74Zm.69-1H51A.33.33,0,0,1,51.22,59.73Zm.83.35a3.5,3.5,0,0,0-.73-.32h-.1A3.36,3.36,0,0,1,52.05,60.08Z"/><path class="cls-44" d="M53.81,60.37l0,0a1.44,1.44,0,0,0-.07-.16,1.29,1.29,0,0,0-.47-.44,2.45,2.45,0,0,0-1.53-.23l0,0,0,0a2.12,2.12,0,0,0-.74.26h0a.89.89,0,0,0-.18.13l-.08.07-.07.07-.06.08s0,.06-.05.09v0a.42.42,0,0,0,0,.1h0l0,.09.06.11.05.08.08.1.08.08,0,0a1.8,1.8,0,0,0,.72.38h0l.09,0,.11,0H52a1.6,1.6,0,0,0,.38,0h.11l.09,0h0a1.93,1.93,0,0,0,.75-.31l.11-.09.08-.07.09-.1.07-.08v0a.25.25,0,0,0,0-.07h0a.25.25,0,0,0,0-.07ZM51.88,60l0,0Zm-.13-.06,0,0Zm-.11,0,0,0Zm-.1-.05,0,0Zm-.25-.08h0Zm.13,0h0Zm-.08,0h0Zm-.27,0Zm.06,0h0Zm0,0h0Zm.77-.15,0,0Z"/><path class="cls-35" d="M53.83,60.35h0v0Z"/><path class="cls-41" d="M52,61.7h.49l.1,0,.1,0,.11,0,.11,0,.12,0,.1-.05.12-.06.1-.07.11-.08.08-.08.09-.1.07-.08.06-.11,0-.09,0-.1,0-.09v0a.27.27,0,0,1-.11.18v0c-.12.1-.26.16-.37.26a.29.29,0,0,0-.1.12.68.68,0,0,1-.31.29,1.83,1.83,0,0,1-1.12.19H52Z"/><path class="cls-43" d="M51.35,61.33a1,1,0,0,0,.54.11.07.07,0,0,0,0-.07,4,4,0,0,0-.5-.1s0,0,0,0Z"/><path class="cls-47" d="M50.25,58h0v.09h0v0h0l0,.06v.06h0l0,0h0a1.35,1.35,0,0,0,.09.22h0l.16.07,0,0,.1,0,.24.12.12.07a2.37,2.37,0,0,1-.16.51h0a1.07,1.07,0,0,1-.13.21h0v0h0l0,0,0,0,0,.06.05,0v0h0l0,0h0l0,0h0l0,0h0l0,0h0l0,0,0,0,.05,0,0,0h0l.08.08h0l.07.06h0l.2.14.06,0h0l.07,0,0,0h0l.07,0H52l0,0,0,0h1l.06,0,.09,0c.18-.11.3-.22.28-.27s-.08-.21-.11-.32l0,0,.09,0a1.44,1.44,0,0,0,.28-.21l0,0,0,0h0l0,0h0l0,0h0l0,0h0V59.3h0a.43.43,0,0,1,0,0h0v0a.11.11,0,0,0,0,0v0h0v0h0s0-.06,0-.1h0v0s0,0,0-.06h0s0-.11-.08-.21h0l0-.08-.17-.08h0l-.09,0,0,0-.17-.09h0l0,0-.12-.07a1.47,1.47,0,0,1,.28-.69h0s0,0,0-.07h0l0-.06,0-.05,0,0v0l0,0-.05-.05h0v0l0,0h0l0,0h0l0,0L53,56.91h0l0,0h0l0,0h0l0,0,0,0h0v0h0l0,0,0,0h0l0,0h0l0,0h0l0,0h-.14l0,0h-.07l0,0h-.1l-.05,0h-.59a1.14,1.14,0,0,0-.37.15l-.09,0-.07,0h0l0,0h0l0,0h0l0,0h0l0,0h0v0h0a0,0,0,0,0,0,0h0c.05.1.09.21.13.31h0l0,0-.09,0-.06,0h0l0,0h0l0,0h-.08l0,0h0l0,0,0,0h0l0,0h0l0,0a.58.58,0,0,0-.09.3h0v0h0Zm2.4,2.76Zm-2.22-3.25Zm.66,1.41Zm0,0Zm0,0Zm-.66-.34Zm.36,1.1Zm-.36-1.1Zm2.08-2Zm0,0Zm-1.74,3.09Zm-.36-1.1Z"/><path class="cls-41" d="M50.79,56.76h0a0,0,0,0,0,0,0,1.55,1.55,0,0,1,.91.22l0,0a3.35,3.35,0,0,1,.91.83h0a1.16,1.16,0,0,0,.43-.17h0l.09,0c.18-.11.3-.21.28-.23l0-.06,0-.05,0,0-.05-.05,0,0,0,0-.05,0,0,0,0,0,0,0-.05,0,0,0,0,0-.05,0,0,0,0,0-.05,0,0,0,0,0,0,0h0l0,0-.05,0,0,0,0,0,0,0-.05,0h0l-.05,0h-.59a1.14,1.14,0,0,0-.37.15l-.09,0-.07,0h0l0,0h0l0,0h0l0,0h0l0,0h0v0h0Z"/><path class="cls-41" d="M50.44,57.46h0a0,0,0,0,1,0,0h0v0h0l0,0h.08l0,0h0l0,0h0l.06,0,.09,0c.18-.11.34-.16.38-.13l.67.43c-.06,0-.24,0-.41.11l-.09.05-.08,0h0l0,0h0l0,0,0,0,0,0c0,.06-.07.12,0,.15l-.68-.44Z"/><path class="cls-41" d="M52.86,58.33l.29-.18c.28.15.47.25.67.34a1.31,1.31,0,0,0-.33.16l-.09.05A2.38,2.38,0,0,0,53,59l-.68-.35s.24-.12.44-.24Z"/><path class="cls-45" d="M51.71,57a1.55,1.55,0,0,0-.91-.22,3.74,3.74,0,0,1,.31,1.13l-.68-.44c-.24.28-.24.49,0,1.05l.66.34a1.93,1.93,0,0,1-.3.76,3.28,3.28,0,0,0,.93.82,1.61,1.61,0,0,0,.93.25,5,5,0,0,1-.3-1.11L53,60c.25-.28.25-.49,0-1.05l-.68-.35a1.39,1.39,0,0,1,.32-.76,3.35,3.35,0,0,0-.91-.83h0Z"/><path class="cls-47" d="M52.37,56.45a.14.14,0,0,1-.08.16.48.48,0,0,1-.45,0c-.08,0-.11-.11-.09-.17l-.06.18c0,.07,0,.15.11.2a.55.55,0,0,0,.53,0c.09-.06.13-.13.1-.2v0h0v0h0v0h0v0h0Z"/><path class="cls-46" d="M51.45,56.07a.61.61,0,0,0,.61.61.61.61,0,0,0,0-1.22A.61.61,0,0,0,51.45,56.07Z"/><path class="cls-44" d="M51.49,56a.5.5,0,0,0,.51.5.5.5,0,0,0,.5-.5.5.5,0,0,0-.5-.51A.51.51,0,0,0,51.49,56Z"/><path class="cls-48" d="M51.71,55.92a.17.17,0,0,0,.17.16.16.16,0,0,0,0-.32A.17.17,0,0,0,51.71,55.92Z"/><path class="cls-43" d="M49.67,63.07c-.06.27.43.61,1.09.77s1.26.06,1.32-.21.11-1.57-.56-1.73S49.73,62.8,49.67,63.07Z"/><path class="cls-43" d="M50.61,60.14a.55.55,0,0,0,0,.36.94.94,0,0,0,.19.32,1.65,1.65,0,0,0,.64.37,2.57,2.57,0,0,0,.73.1,2.92,2.92,0,0,0,.72-.11,3.23,3.23,0,0,1-1.42-.07,1.57,1.57,0,0,1-.62-.34A.63.63,0,0,1,50.61,60.14Z"/><path class="cls-49" d="M53.18,59.72A1.19,1.19,0,0,0,53,59h0l-.68-.36,0,0a2.92,2.92,0,0,1,.1-.4.75.75,0,0,1,.21-.33l0,0,0,0a5.14,5.14,0,0,0-.38-.42c-.14-.12-.28-.25-.43-.36a1.59,1.59,0,0,0-1.07-.31h-.06l0,.05a3,3,0,0,1,.32,1.11l0,0-.69-.42h0a.52.52,0,0,0-.16.35,1,1,0,0,0,0,.38,1,1,0,0,1,0-.38.52.52,0,0,1,.16-.33h0l.67.44,0,0v0a2.74,2.74,0,0,0-.31-1.15l0,.06a1.49,1.49,0,0,1,1,.3,4.73,4.73,0,0,1,.8.75v-.05a.77.77,0,0,0-.23.37,2,2,0,0,0-.1.42v0h0L53,59h0A1.14,1.14,0,0,1,53.18,59.72Z"/></g></g></g></svg>