<svg xmlns="http://www.w3.org/2000/svg" viewBox="0 0 120.42 85.9"><defs><style>.cls-1{fill:#875f41;}.cls-2{fill:#bf9c7c;}.cls-3{fill:#6e4831;}.cls-4{fill:#ebecd0;}.cls-5{fill:#8c6148;}.cls-6{fill:#e0d4a4;}.cls-7{fill:#86a4b5;}.cls-8{fill:#6e92a6;}.cls-9{fill:#4a7790;}</style></defs><g id="Capa_2" data-name="Capa 2"><g id="layer"><polygon class="cls-1" points="80.45 85.9 0 39.45 0 31.63 80.45 78.08 80.45 85.9"/><polygon class="cls-2" points="80.45 85.9 120.42 62.82 120.42 55 80.45 78.08 80.45 85.9"/><polygon class="cls-3" points="120.42 55 80.45 78.08 0 31.63 39.97 8.55 120.42 55"/><polygon class="cls-3" points="120.42 55 80.45 78.08 75.39 75.16 110.34 54.98 120.42 55"/><polygon class="cls-3" points="40.01 14.37 5.05 34.55 0 31.63 39.97 8.55 40.01 14.37"/><polygon class="cls-1" points="80.45 77.34 0 30.9 0 23.08 80.45 69.53 80.45 77.34"/><polygon class="cls-2" points="80.45 77.34 120.42 54.27 120.42 46.45 80.45 69.53 80.45 77.34"/><polygon class="cls-4" points="120.42 46.45 80.45 69.52 0 23.08 39.97 0 120.42 46.45"/><polygon class="cls-5" points="110.34 46.43 75.39 66.61 5.05 26 40.01 5.82 110.34 46.43"/><polygon class="cls-4" points="108.08 46.42 74.26 65.95 6.19 26.65 40.01 7.13 108.08 46.42"/><polygon class="cls-5" points="98.3 41.62 106.62 46.42 98.35 51.2 90.02 46.39 98.3 41.62"/><polygon class="cls-4" points="89.97 36.81 98.3 41.62 90.02 46.39 81.7 41.59 89.97 36.81"/><polygon class="cls-5" points="81.64 32 89.97 36.81 81.7 41.59 73.37 36.78 81.64 32"/><polygon class="cls-4" points="73.32 27.19 81.64 32 73.37 36.78 65.05 31.97 73.32 27.19"/><polygon class="cls-5" points="64.99 22.39 73.32 27.19 65.05 31.97 56.72 27.16 64.99 22.39"/><polygon class="cls-4" points="56.67 17.58 64.99 22.39 56.72 27.16 48.39 22.36 56.67 17.58"/><polygon class="cls-5" points="48.34 12.77 56.67 17.58 48.39 22.36 40.07 17.55 48.34 12.77"/><polygon class="cls-4" points="40.02 7.97 48.34 12.77 40.07 17.55 31.74 12.74 40.02 7.97"/><polygon class="cls-5" points="31.8 22.33 23.47 17.52 31.74 12.74 40.07 17.55 31.8 22.33"/><polygon class="cls-4" points="40.12 27.13 31.8 22.33 40.07 17.55 48.39 22.36 40.12 27.13"/><polygon class="cls-5" points="48.45 31.94 40.12 27.13 48.39 22.36 56.72 27.16 48.45 31.94"/><polygon class="cls-4" points="56.77 36.75 48.45 31.94 56.72 27.16 65.05 31.97 56.77 36.75"/><polygon class="cls-5" points="65.1 41.55 56.77 36.75 65.05 31.97 73.37 36.78 65.1 41.55"/><polygon class="cls-4" points="73.42 46.36 65.1 41.55 73.37 36.78 81.7 41.59 73.42 46.36"/><polygon class="cls-5" points="81.75 51.17 73.42 46.36 81.7 41.59 90.02 46.39 81.75 51.17"/><polygon class="cls-4" points="90.07 55.98 81.75 51.17 90.02 46.39 98.35 51.2 90.07 55.98"/><polygon class="cls-5" points="81.75 51.17 90.07 55.98 81.8 60.75 73.47 55.95 81.75 51.17"/><polygon class="cls-4" points="73.42 46.36 81.75 51.17 73.47 55.95 65.15 51.14 73.42 46.36"/><polygon class="cls-5" points="65.1 41.55 73.42 46.36 65.15 51.14 56.82 46.33 65.1 41.55"/><polygon class="cls-4" points="56.77 36.75 65.1 41.55 56.82 46.33 48.5 41.52 56.77 36.75"/><polygon class="cls-5" points="48.45 31.94 56.77 36.75 48.5 41.52 40.17 36.72 48.45 31.94"/><polygon class="cls-4" points="40.12 27.13 48.45 31.94 40.17 36.72 31.85 31.91 40.12 27.13"/><polygon class="cls-5" points="31.8 22.33 40.12 27.13 31.85 31.91 23.52 27.1 31.8 22.33"/><polygon class="cls-4" points="23.47 17.52 31.8 22.33 23.52 27.1 15.2 22.3 23.47 17.52"/><polygon class="cls-5" points="15.25 31.88 6.92 27.07 15.2 22.3 23.52 27.1 15.25 31.88"/><polygon class="cls-4" points="23.57 36.69 15.25 31.88 23.52 27.1 31.85 31.91 23.57 36.69"/><polygon class="cls-5" points="31.9 41.49 23.57 36.69 31.85 31.91 40.17 36.72 31.9 41.49"/><polygon class="cls-4" points="40.22 46.3 31.9 41.49 40.17 36.72 48.5 41.52 40.22 46.3"/><polygon class="cls-5" points="48.55 51.11 40.22 46.3 48.5 41.52 56.82 46.33 48.55 51.11"/><polygon class="cls-4" points="56.88 55.91 48.55 51.11 56.82 46.33 65.15 51.14 56.88 55.91"/><polygon class="cls-5" points="65.2 60.72 56.88 55.91 65.15 51.14 73.47 55.95 65.2 60.72"/><polygon class="cls-4" points="73.53 65.53 65.2 60.72 73.47 55.95 81.8 60.75 73.53 65.53"/><polygon class="cls-6" points="120.42 46.45 80.45 69.52 75.39 66.61 110.34 46.43 120.42 46.45"/><polygon class="cls-6" points="40.01 5.82 5.05 26 0 23.08 39.97 0 40.01 5.82"/><path class="cls-5" d="M6.63,22.74l.15.06.18,0,.21,0,.24-.11q.21-.12.21-.24c0-.07-.06-.15-.18-.22l-.1,0-.09,0-.09,0-.08,0L7,22l1.05-.5,1,.61-.49.3-.16-.09.07-.07,0,0a.06.06,0,0,0,0,0,0,0,0,0,0,0,0l-.05,0-.58-.33h0l-.07,0-.09.05-.1.05L7.37,22l.07,0,.09,0,.09,0,.09.05a1.6,1.6,0,0,1,.26.19.4.4,0,0,1,.11.2.24.24,0,0,1,0,.18.48.48,0,0,1-.21.18,1,1,0,0,1-.36.14,1.16,1.16,0,0,1-.37,0A1.28,1.28,0,0,1,6.76,23a1.82,1.82,0,0,1-.28-.13.83.83,0,0,1-.24-.17.37.37,0,0,1-.1-.14.13.13,0,0,1,0-.12.38.38,0,0,1,.09-.09.35.35,0,0,1,.2-.05.48.48,0,0,1,.21.07.39.39,0,0,0-.1.08.14.14,0,0,0,0,.09.12.12,0,0,0,0,.1A.44.44,0,0,0,6.63,22.74Z"/><path class="cls-5" d="M17.18,17.07A.38.38,0,0,0,17,17a1.17,1.17,0,0,0-.26,0l-.3.09a2.14,2.14,0,0,0-.35.16h.1l.12,0,.13.05.14.07a.57.57,0,0,1,.18.16.21.21,0,0,1,.07.16.31.31,0,0,1-.07.17.7.7,0,0,1-.2.16,1.2,1.2,0,0,1-.31.13,1.26,1.26,0,0,1-.33.05,1.31,1.31,0,0,1-.34,0,1.17,1.17,0,0,1-.33-.14.7.7,0,0,1-.22-.19.32.32,0,0,1,0-.23.59.59,0,0,1,.15-.24,1.69,1.69,0,0,1,.37-.27A2.09,2.09,0,0,1,16,17a2.07,2.07,0,0,1,.49-.12,1.93,1.93,0,0,1,.48,0,1.57,1.57,0,0,1,.43.15.93.93,0,0,1,.2.15.31.31,0,0,1,.09.13.12.12,0,0,1,0,.1.15.15,0,0,1-.08.08l-.1,0h-.13l-.15,0a.77.77,0,0,1-.17-.07l.12-.08a.59.59,0,0,0,.08-.08.1.1,0,0,0,0-.08A.09.09,0,0,0,17.18,17.07Zm-.89.41a.19.19,0,0,0-.09,0l-.11,0-.11,0h-.1l-.31.21a.89.89,0,0,0-.17.18.14.14,0,0,0,0,.13.13.13,0,0,0,.07.09.43.43,0,0,0,.28,0,1.19,1.19,0,0,0,.41-.17.6.6,0,0,0,.26-.22A.14.14,0,0,0,16.29,17.48Z"/><path class="cls-5" d="M22.63,13.31l2.4-.54-.73-.42a.44.44,0,0,0-.15,0,.28.28,0,0,0-.15,0l-.15.07-.17-.1.59-.32,1.33.76-.14.08-2.6.61Z"/><path class="cls-5" d="M30.53,8.14a.77.77,0,0,1,.19-.08l.22,0a.91.91,0,0,1,.23,0l.26,0a.44.44,0,0,1,0-.27.36.36,0,0,1,.19-.22l.22-.09a1.12,1.12,0,0,1,.27,0,1.81,1.81,0,0,1,.31,0,2,2,0,0,1,.35.15,1.12,1.12,0,0,1,.22.17A.27.27,0,0,1,33,8a.21.21,0,0,1,0,.15.49.49,0,0,1-.15.13.45.45,0,0,1-.18.07.58.58,0,0,1-.19,0l-.21,0-.25,0a.56.56,0,0,1,.09.2.28.28,0,0,1,0,.15.31.31,0,0,1-.06.13.75.75,0,0,1-.13.11.94.94,0,0,1-.28.1,1.08,1.08,0,0,1-.31,0A1.3,1.3,0,0,1,31,9a1.14,1.14,0,0,1-.34-.15,1,1,0,0,1-.26-.19.39.39,0,0,1-.1-.19.22.22,0,0,1,.05-.17A.56.56,0,0,1,30.53,8.14Zm.32.61a.47.47,0,0,0,.15.06l.17,0,.18,0,.16-.07a.24.24,0,0,0,.09-.08.1.1,0,0,0,0-.1.35.35,0,0,0,0-.13.89.89,0,0,0-.09-.16H31.2l-.15,0-.15.07a.34.34,0,0,0-.13.1.24.24,0,0,0-.05.1.17.17,0,0,0,0,.1A.3.3,0,0,0,30.85,8.75ZM32.5,8.1A.39.39,0,0,0,32.6,8a.2.2,0,0,0,0-.09.08.08,0,0,0,0-.08.15.15,0,0,0-.08-.08.31.31,0,0,0-.12,0H32.3l-.15,0a.38.38,0,0,0-.13.06.35.35,0,0,0-.11.08.17.17,0,0,0,0,.19.41.41,0,0,0,.06.11l.15,0h.14l.13,0A.38.38,0,0,0,32.5,8.1Z"/><path class="cls-5" d="M82.57,65.12l-.15-.06-.18,0a.52.52,0,0,0-.21,0,.82.82,0,0,0-.24.1q-.21.12-.21.24c0,.07.06.15.18.22l.1,0,.09,0,.08,0,.09,0,.07.11-1,.5-1.05-.61.49-.3.16.09-.07.07s0,0,0,0a.08.08,0,0,0,0,0,0,0,0,0,0,0,0l0,0,.58.33h0l.07,0,.08,0,.11,0,.27-.13-.07,0-.09,0-.09,0-.1,0a1.35,1.35,0,0,1-.25-.19.4.4,0,0,1-.11-.2.2.2,0,0,1,0-.18.51.51,0,0,1,.2-.18,1.12,1.12,0,0,1,.37-.14,1.16,1.16,0,0,1,.37,0,1.28,1.28,0,0,1,.34.07,1.82,1.82,0,0,1,.28.13.83.83,0,0,1,.24.17.37.37,0,0,1,.1.14.13.13,0,0,1,0,.12.32.32,0,0,1-.3.14.48.48,0,0,1-.2-.07l.1-.08a.12.12,0,0,0,0-.09.12.12,0,0,0,0-.1A.44.44,0,0,0,82.57,65.12Z"/><path class="cls-5" d="M89.29,61.1a.36.36,0,0,0,.19,0,.78.78,0,0,0,.26,0l.3-.09a2.14,2.14,0,0,0,.35-.16h-.1l-.12,0L90,60.8l-.14-.07a1,1,0,0,1-.19-.15.29.29,0,0,1-.06-.17.25.25,0,0,1,.07-.17.7.7,0,0,1,.2-.16,1.2,1.2,0,0,1,.31-.13,1.26,1.26,0,0,1,.33-.05,1.07,1.07,0,0,1,.66.17.65.65,0,0,1,.23.19.27.27,0,0,1,0,.23.45.45,0,0,1-.15.25A2.08,2.08,0,0,1,91,61a2.91,2.91,0,0,1-.48.21,2.19,2.19,0,0,1-.49.12,1.93,1.93,0,0,1-.48,0,1.57,1.57,0,0,1-.43-.15,1.45,1.45,0,0,1-.21-.15.38.38,0,0,1-.08-.13.11.11,0,0,1,0-.1.24.24,0,0,1,.09-.08l.1,0h.13l.14,0a.48.48,0,0,1,.18.08l-.12.07a.38.38,0,0,0-.09.09.08.08,0,0,0,0,.08A.1.1,0,0,0,89.29,61.1Zm.88-.41.1,0,.11,0,.11,0h.1l.31-.21a.69.69,0,0,0,.17-.18.14.14,0,0,0,0-.13.12.12,0,0,0-.08-.09.39.39,0,0,0-.27,0,1.32,1.32,0,0,0-.41.17.54.54,0,0,0-.26.22A.13.13,0,0,0,90.17,60.69Z"/><path class="cls-5" d="M99.26,55.71l-2.41.54.74.42a.3.3,0,0,0,.15,0,.28.28,0,0,0,.15,0l.15-.07.17.1-.59.33-1.33-.77.14-.08,2.6-.61Z"/><path class="cls-5" d="M106.92,51.56a.73.73,0,0,1-.19.07.78.78,0,0,1-.22,0h-.23l-.26,0a.47.47,0,0,1,0,.28.34.34,0,0,1-.19.21.85.85,0,0,1-.22.09,1.12,1.12,0,0,1-.27,0,1.18,1.18,0,0,1-.31-.05,1.48,1.48,0,0,1-.35-.15.84.84,0,0,1-.22-.17.27.27,0,0,1-.08-.16.23.23,0,0,1,0-.16.36.36,0,0,1,.16-.13.51.51,0,0,1,.17-.07l.19,0h.21l.25,0a.53.53,0,0,1-.09-.19.28.28,0,0,1,0-.29.45.45,0,0,1,.13-.1,1,1,0,0,1,.28-.11,1.08,1.08,0,0,1,.31,0,1.3,1.3,0,0,1,.33.07,2.07,2.07,0,0,1,.34.15,1,1,0,0,1,.26.2.35.35,0,0,1,.1.19.2.2,0,0,1,0,.16A.58.58,0,0,1,106.92,51.56Zm-2,0-.1.08a.2.2,0,0,0,0,.09.1.1,0,0,0,0,.09s0,0,.08.08l.12,0h.14l.15,0,.13-.06a.35.35,0,0,0,.11-.09.18.18,0,0,0,0-.09.2.2,0,0,0,0-.1.41.41,0,0,0-.06-.11h-.15a.33.33,0,0,0-.14,0l-.13,0Zm1.65-.65-.15-.06h-.17l-.18,0-.16.07-.09.09a.1.1,0,0,0,0,.1.3.3,0,0,0,0,.12.89.89,0,0,0,.09.16h.15a.42.42,0,0,0,.16,0l.15,0,.15-.07a.34.34,0,0,0,.13-.1.19.19,0,0,0,0-.1.19.19,0,0,0,0-.1A.3.3,0,0,0,106.6,50.94Z"/><path class="cls-5" d="M47.18,8.72a.21.21,0,0,0,.11,0h.12l.12,0,.13-.06a.91.91,0,0,1,.24.18c0,.06,0,.1,0,.14a.34.34,0,0,1-.17,0,.86.86,0,0,1-.22,0,1.27,1.27,0,0,1-.23-.08L47,8.81a.91.91,0,0,1-.23-.16.26.26,0,0,1-.1-.15.17.17,0,0,1,0-.15,1,1,0,0,1,.18-.14l.71-.41.08-.06s0,0,0,0,0,0,0-.05l-.07,0h0l.15-.09.52.3-.13.14,0,0h.34l.14,0,.15.07a.57.57,0,0,1,.14.11.22.22,0,0,1,.06.13.2.2,0,0,1-.05.14.56.56,0,0,1-.16.13.75.75,0,0,1-.49.1,1.34,1.34,0,0,1-.58-.2l-.24-.13-.15.09a.62.62,0,0,0-.12.08.29.29,0,0,0-.08.07.06.06,0,0,0,0,.07A.14.14,0,0,0,47.18,8.72Zm1.18-.39a.36.36,0,0,0,.14-.13s0-.07-.06-.1l-.14,0h-.15l-.16,0a.61.61,0,0,0-.17.07l-.2.12.13.07.16.06a.47.47,0,0,0,.16,0,.35.35,0,0,0,.14,0Z"/><path class="cls-5" d="M55.3,12.72a1.92,1.92,0,0,1,.39-.18,1.45,1.45,0,0,1,.35-.07,1.06,1.06,0,0,1,.31,0,1,1,0,0,1,.29.11l.13.1.07.09a.18.18,0,0,1,0,.1.19.19,0,0,1,0,.1h0l.29-.08.53.31-.15.08h0l-.09,0-.09,0h-.11l-.12,0-1.42.83a.18.18,0,0,0-.08.06.07.07,0,0,0,0,.06.21.21,0,0,0,0,.06l.08,0h0l-.14.09-.66-.38.47-.27.11-.06.12-.06.13-.06h0a1.14,1.14,0,0,1-.32,0,1.11,1.11,0,0,1-.32-.11.65.65,0,0,1-.19-.17.24.24,0,0,1,0-.18.46.46,0,0,1,.14-.2A1.67,1.67,0,0,1,55.3,12.72Zm.13.72a.27.27,0,0,0,.17.06.41.41,0,0,0,.19,0,1.11,1.11,0,0,0,.22-.07,2.26,2.26,0,0,0,.26-.14,1.53,1.53,0,0,0,.23-.15.38.38,0,0,0,.13-.12.14.14,0,0,0,0-.12.27.27,0,0,0-.11-.1.47.47,0,0,0-.34,0,1.59,1.59,0,0,0-.48.21,1.08,1.08,0,0,0-.36.28C55.31,13.32,55.34,13.39,55.43,13.44Z"/><path class="cls-5" d="M65.11,17.49a1,1,0,0,1,.24.19.28.28,0,0,1,.09.2.32.32,0,0,1-.09.21,1.19,1.19,0,0,1-.31.24,1.41,1.41,0,0,1-.43.18,1.31,1.31,0,0,1-.38.06,1.21,1.21,0,0,1-.34-.05,1.44,1.44,0,0,1-.31-.13,1.39,1.39,0,0,1-.22-.15.6.6,0,0,1-.11-.14.14.14,0,0,1,0-.11s0-.06.08-.09l.1,0h.13l.16,0,.2.09-.13.09a.6.6,0,0,0-.08.08.08.08,0,0,0,0,.08s0,0,.06.06a.29.29,0,0,0,.13,0,.62.62,0,0,0,.19,0,1.11,1.11,0,0,0,.24-.08l.31-.16A.86.86,0,0,0,65,17.8c0-.09,0-.16-.11-.23l-.16-.07-.16,0h-.16l-.15,0a.06.06,0,0,1,0-.06s0,0,.06-.05a.38.38,0,0,1,.14-.05h.19l.24.06A1.59,1.59,0,0,1,65.11,17.49Z"/><path class="cls-5" d="M72.51,22.19a.3.3,0,0,0,.08-.07.07.07,0,0,0,0-.06.13.13,0,0,0,0-.06l-.08-.06h0l.15-.09.54.31-.14.17,0,0,.18,0h.16l.17,0,.16.07a.71.71,0,0,1,.2.17.24.24,0,0,1,0,.18.46.46,0,0,1-.13.2,1.29,1.29,0,0,1-.3.22,2.2,2.2,0,0,1-.39.18,1.59,1.59,0,0,1-.35.08,1.72,1.72,0,0,1-.32,0,1,1,0,0,1-.28-.12l-.12-.09a.18.18,0,0,1-.07-.09A.21.21,0,0,1,72,23h0l-.13.09-.06,0,0,0,0,0h0l-.15.09a.12.12,0,0,0-.07.07,0,0,0,0,0,0,.05s0,0,0,.06l.09,0h0l-.15.09-.67-.39Zm.87.31-.17-.06H73a1.19,1.19,0,0,0-.22.08,2.1,2.1,0,0,0-.26.13l-.23.15a.79.79,0,0,0-.13.13.12.12,0,0,0,0,.11s0,.07.1.11a.37.37,0,0,0,.15,0,.41.41,0,0,0,.19,0,1.19,1.19,0,0,0,.23-.07l.25-.13a1.28,1.28,0,0,0,.37-.28C73.49,22.62,73.47,22.56,73.38,22.5Z"/><path class="cls-5" d="M81.76,27.11a.72.72,0,0,1,.26.21.27.27,0,0,1,.08.21.36.36,0,0,1-.1.22,1.05,1.05,0,0,1-.27.21,1.65,1.65,0,0,1-.39.17,1.31,1.31,0,0,1-.38.06.87.87,0,0,1-.36,0,1,1,0,0,1-.34-.13.65.65,0,0,1-.23-.19.25.25,0,0,1-.08-.19.26.26,0,0,1,.08-.19.69.69,0,0,1,.24-.19l.14-.08.91.52a1.45,1.45,0,0,0,.21-.15.33.33,0,0,0,.09-.14.13.13,0,0,0,0-.12.26.26,0,0,0-.12-.11l-.15-.07-.16,0h-.31s0-.08.06-.12a.33.33,0,0,1,.15,0,.6.6,0,0,1,.19,0l.24.06A1.26,1.26,0,0,1,81.76,27.11Zm-1.33.8a.48.48,0,0,0,.3,0,1.38,1.38,0,0,0,.41-.15l-.48-.28-.18.12a.31.31,0,0,0-.1.1.1.1,0,0,0,0,.09A.13.13,0,0,0,80.43,27.91Z"/><path class="cls-5" d="M90.74,32.32l-.15.08-.06,0-.07,0a.32.32,0,0,0-.09,0h-.1a.28.28,0,0,0-.12,0l-1,.56.25.14-.19.11L89,33l-.1.06a1.51,1.51,0,0,1-.26.12,1.26,1.26,0,0,1-.27,0,1,1,0,0,1-.29-.05,1.38,1.38,0,0,1-.29-.12,1.51,1.51,0,0,1-.21-.14.39.39,0,0,1-.09-.11.08.08,0,0,1,0-.08l.06-.06a.4.4,0,0,1,.22,0,.94.94,0,0,1,.3.13l-.06,0a.13.13,0,0,0,0,.06.14.14,0,0,0,0,.06A.12.12,0,0,0,88,33L88,33h.1a.43.43,0,0,0,.13,0l.16-.08.15-.09-.38-.22.19-.11.38.22,1-.55a.3.3,0,0,0,.08-.07.06.06,0,0,0,0-.06.1.1,0,0,0,0,0l-.06,0-.13-.08.15-.08Z"/><path class="cls-5" d="M96.26,37.15l.07,0h.08l.09,0a.27.27,0,0,1,.11,0l0,0a0,0,0,0,0,0,0s0,0,0,0l0,0,.06,0h.06a.19.19,0,0,1,0-.07l0-.08.07-.07.09-.06a.85.85,0,0,1,.22-.09,1.09,1.09,0,0,1,.26,0,.84.84,0,0,1,.27,0,1.78,1.78,0,0,1,.29.12l0,0,0,0,0,0,0,0h.19l.05,0a.07.07,0,0,0,0-.06.19.19,0,0,0-.08-.07L98,36.86a.8.8,0,0,1-.21-.16.33.33,0,0,1-.09-.14.2.2,0,0,1,0-.13.31.31,0,0,1,.15-.12.81.81,0,0,1,.27-.11,1.13,1.13,0,0,1,.32,0,1.82,1.82,0,0,1,.36.08,3.44,3.44,0,0,1,.39.19.85.85,0,0,1,.39.34c0,.1,0,.18-.12.25a.54.54,0,0,1-.33.08A1,1,0,0,1,98.8,37a.16.16,0,0,1,0,.07.13.13,0,0,1,0,.06.14.14,0,0,1,0,.07l-.07.06-.1,0h-.27l-.17,0a.21.21,0,0,1,.06.1.17.17,0,0,1,0,.1.3.3,0,0,1-.06.11l-.13.1a.94.94,0,0,1-.52.13,1.2,1.2,0,0,1-.57-.17.74.74,0,0,1-.16-.12l-.09-.12h-.21l-.12,0-.11,0-.08-.06,0,0a.07.07,0,0,1,0-.06A.11.11,0,0,1,96.26,37.15Zm1.44.35.12-.08.07-.08a.08.08,0,0,0,0-.07s0-.05-.06-.07l-.12,0h-.12l-.13.05-.15.07-.13.08a.28.28,0,0,0-.07.09.06.06,0,0,0,0,.07.15.15,0,0,0,.07.07.2.2,0,0,0,.11,0,.29.29,0,0,0,.13,0l.14,0Zm1.46-.63c.08,0,.11-.09.09-.15a.4.4,0,0,0-.19-.17,1.11,1.11,0,0,0-.42-.16.48.48,0,0,0-.32,0c-.06,0-.08.07-.07.1s.06.08.13.12l.33.19.09,0a.2.2,0,0,0,.11,0H99Z"/><path class="cls-5" d="M107.46,42l-.91.53a.85.85,0,0,0-.14.1.22.22,0,0,0-.08.09.08.08,0,0,0,0,.08.29.29,0,0,0,.08.07.44.44,0,0,0,.15,0h.17l.18-.06a.56.56,0,0,0,.17-.09l.53-.3.08-.06a.07.07,0,0,0,0-.06s0,0,0-.05l-.07,0h0l.15-.09.85.49-.15.09h0l-.1-.05-.09,0h-.1l-.12,0-1.45.83s-.06.05-.06.07a.11.11,0,0,0,0,.05l0,.06.06,0h0l-.15.09-.65-.38.45-.26.12-.07.12-.06.14-.06h0a.77.77,0,0,1-.21,0h-.17l-.14-.05-.13-.07a.53.53,0,0,1-.16-.13.24.24,0,0,1,0-.14.32.32,0,0,1,.08-.15.63.63,0,0,1,.21-.15l.64-.37.09-.07s0,0,0,0,0,0,0-.05l-.07,0h0l.14-.08Z"/><polygon class="cls-7" points="24.59 48.08 15.25 42.69 15.25 40.43 24.59 45.83 24.59 48.08"/><polygon class="cls-7" points="24.59 45.09 15.25 39.69 15.25 37.45 24.59 42.84 24.59 45.09"/><path class="cls-8" d="M14.79,40.34c0,.22.16.31.35.2a.76.76,0,0,0,.34-.6c0-.21-.15-.3-.34-.19A.76.76,0,0,0,14.79,40.34Z"/><polygon class="cls-8" points="19.46 43.2 14.88 40.56 15.38 39.72 19.95 42.36 19.46 43.2"/><path class="cls-9" d="M19.36,43c0,.22.15.31.35.2a.76.76,0,0,0,.34-.6c0-.22-.15-.31-.34-.2A.75.75,0,0,0,19.36,43Z"/><path class="cls-8" d="M19.47,43c0,.22.16.31.35.2a.76.76,0,0,0,.34-.6c0-.21-.15-.3-.34-.19A.76.76,0,0,0,19.47,43Z"/><polygon class="cls-8" points="24.14 45.9 19.56 43.26 20.06 42.42 24.63 45.06 24.14 45.9"/><path class="cls-9" d="M24,45.68c0,.22.15.31.34.2a.77.77,0,0,0,.35-.6c0-.22-.16-.31-.35-.2A.76.76,0,0,0,24,45.68Z"/><path class="cls-9" d="M23.44,43.64c0,.22-.15.31-.34.2a.77.77,0,0,1-.35-.6c0-.21.16-.3.35-.19A.75.75,0,0,1,23.44,43.64Z"/><path class="cls-8" d="M23.36,43.6a.16.16,0,0,1-.26.15.58.58,0,0,1-.26-.46c0-.16.11-.23.26-.15A.61.61,0,0,1,23.36,43.6Z"/><rect class="cls-9" x="23.04" y="43.09" width="0.11" height="0.71"/><rect class="cls-9" x="23.04" y="43.07" width="0.11" height="0.75" transform="translate(-25.59 36.32) rotate(-53.67)"/><path class="cls-9" d="M23.44,46.21c0,.22-.15.31-.34.2a.77.77,0,0,1-.35-.6c0-.22.16-.31.35-.2A.76.76,0,0,1,23.44,46.21Z"/><path class="cls-8" d="M23.36,46.16c0,.17-.12.24-.26.15a.56.56,0,0,1-.26-.45c0-.17.11-.24.26-.15A.57.57,0,0,1,23.36,46.16Z"/><rect class="cls-9" x="23.04" y="45.66" width="0.11" height="0.71"/><rect class="cls-9" x="23.04" y="45.64" width="0.11" height="0.75" transform="translate(-27.66 37.37) rotate(-53.68)"/><path class="cls-9" d="M20.16,41.76c0,.22-.15.31-.34.2a.77.77,0,0,1-.35-.6c0-.22.16-.31.35-.2A.76.76,0,0,1,20.16,41.76Z"/><path class="cls-8" d="M20.08,41.71c0,.17-.12.24-.26.15a.56.56,0,0,1-.27-.45c0-.17.12-.23.27-.15A.59.59,0,0,1,20.08,41.71Z"/><rect class="cls-9" x="19.76" y="41.21" width="0.11" height="0.71"/><rect class="cls-9" x="19.76" y="41.19" width="0.11" height="0.75" transform="translate(-25.41 32.91) rotate(-53.68)"/><path class="cls-9" d="M20.16,44.33c0,.22-.15.3-.34.19a.76.76,0,0,1-.35-.59c0-.22.16-.31.35-.2A.76.76,0,0,1,20.16,44.33Z"/><path class="cls-8" d="M20.08,44.28c0,.17-.12.23-.26.15a.59.59,0,0,1-.27-.45c0-.17.12-.24.27-.15A.57.57,0,0,1,20.08,44.28Z"/><rect class="cls-9" x="19.76" y="43.78" width="0.11" height="0.71"/><rect class="cls-9" x="19.76" y="43.75" width="0.11" height="0.75" transform="translate(-27.48 33.95) rotate(-53.68)"/><path class="cls-9" d="M16.88,39.88c0,.22-.16.3-.35.19a.75.75,0,0,1-.34-.59c0-.22.15-.31.34-.2A.77.77,0,0,1,16.88,39.88Z"/><path class="cls-8" d="M16.8,39.83c0,.17-.12.23-.27.15a.59.59,0,0,1-.26-.45c0-.17.12-.24.26-.15A.56.56,0,0,1,16.8,39.83Z"/><rect class="cls-9" x="16.48" y="39.33" width="0.11" height="0.71"/><rect class="cls-9" x="16.48" y="39.31" width="0.11" height="0.75" transform="translate(-25.23 29.5) rotate(-53.68)"/><path class="cls-9" d="M16.88,42.44c0,.22-.16.31-.35.2a.76.76,0,0,1-.34-.6c0-.21.15-.3.34-.19A.76.76,0,0,1,16.88,42.44Z"/><path class="cls-8" d="M16.8,42.4c0,.16-.12.23-.27.15a.61.61,0,0,1-.26-.46.16.16,0,0,1,.26-.15A.59.59,0,0,1,16.8,42.4Z"/><rect class="cls-9" x="16.48" y="41.89" width="0.11" height="0.71"/><rect class="cls-9" x="16.48" y="41.87" width="0.11" height="0.75" transform="translate(-27.3 30.57) rotate(-53.71)"/><polygon class="cls-7" points="65.2 71.53 55.86 66.14 55.86 63.88 65.2 69.27 65.2 71.53"/><polygon class="cls-7" points="65.2 68.53 55.86 63.14 55.86 60.9 65.2 66.29 65.2 68.53"/><path class="cls-8" d="M55.41,63.79c0,.22.15.31.34.2a.77.77,0,0,0,.35-.6c0-.22-.16-.3-.35-.19A.75.75,0,0,0,55.41,63.79Z"/><polygon class="cls-8" points="60.08 66.65 55.5 64.01 55.99 63.17 60.56 65.81 60.08 66.65"/><path class="cls-9" d="M60,66.43c0,.22.16.3.35.19a.75.75,0,0,0,.34-.59c0-.22-.15-.31-.34-.2A.77.77,0,0,0,60,66.43Z"/><path class="cls-8" d="M60.08,66.49c0,.22.16.31.35.2a.76.76,0,0,0,.34-.6c0-.22-.15-.3-.34-.19A.76.76,0,0,0,60.08,66.49Z"/><polygon class="cls-8" points="64.75 69.35 60.17 66.71 60.67 65.87 65.24 68.51 64.75 69.35"/><path class="cls-9" d="M64.65,69.13c0,.22.15.3.35.19a.75.75,0,0,0,.34-.59c0-.22-.15-.31-.34-.2A.75.75,0,0,0,64.65,69.13Z"/><path class="cls-9" d="M64.06,67.09c0,.22-.16.31-.35.2a.76.76,0,0,1-.34-.6c0-.22.15-.3.34-.19A.76.76,0,0,1,64.06,67.09Z"/><path class="cls-8" d="M64,67c0,.17-.12.24-.27.15a.57.57,0,0,1-.26-.45c0-.17.12-.23.26-.15A.57.57,0,0,1,64,67Z"/><rect class="cls-9" x="63.66" y="66.54" width="0.11" height="0.71"/><rect class="cls-9" x="63.66" y="66.52" width="0.11" height="0.75" transform="translate(-27.93 78.58) rotate(-53.67)"/><path class="cls-9" d="M64.06,69.66c0,.22-.16.3-.35.19a.75.75,0,0,1-.34-.59c0-.22.15-.31.34-.2A.77.77,0,0,1,64.06,69.66Z"/><path class="cls-8" d="M64,69.61c0,.17-.12.23-.27.15a.59.59,0,0,1-.26-.45c0-.17.12-.24.26-.15A.56.56,0,0,1,64,69.61Z"/><rect class="cls-9" x="63.66" y="69.11" width="0.11" height="0.71"/><rect class="cls-9" x="63.66" y="69.09" width="0.11" height="0.75" transform="translate(-30 79.57) rotate(-53.63)"/><path class="cls-9" d="M60.77,65.21c0,.22-.15.31-.34.2a.77.77,0,0,1-.35-.6c0-.22.16-.31.35-.2A.76.76,0,0,1,60.77,65.21Z"/><path class="cls-8" d="M60.69,65.16c0,.17-.12.23-.26.15a.56.56,0,0,1-.26-.45c0-.17.11-.24.26-.15A.57.57,0,0,1,60.69,65.16Z"/><rect class="cls-9" x="60.38" y="64.66" width="0.11" height="0.71"/><rect class="cls-9" x="60.38" y="64.64" width="0.11" height="0.75" transform="translate(-27.75 75.12) rotate(-53.63)"/><path class="cls-9" d="M60.77,67.77c0,.22-.15.31-.34.2a.77.77,0,0,1-.35-.59c0-.22.16-.31.35-.2A.76.76,0,0,1,60.77,67.77Z"/><path class="cls-8" d="M60.69,67.73a.16.16,0,0,1-.26.15.58.58,0,0,1-.26-.46c0-.16.11-.23.26-.15A.61.61,0,0,1,60.69,67.73Z"/><rect class="cls-9" x="60.38" y="67.22" width="0.11" height="0.71"/><rect class="cls-9" x="60.38" y="67.2" width="0.11" height="0.75" transform="translate(-29.81 76.22) rotate(-53.67)"/><path class="cls-9" d="M57.49,63.33c0,.21-.15.3-.34.19a.76.76,0,0,1-.35-.59c0-.22.16-.31.35-.2A.76.76,0,0,1,57.49,63.33Z"/><path class="cls-8" d="M57.41,63.28a.16.16,0,0,1-.26.15.59.59,0,0,1-.27-.46c0-.16.12-.23.27-.15A.61.61,0,0,1,57.41,63.28Z"/><rect class="cls-9" x="57.09" y="62.78" width="0.11" height="0.71"/><rect class="cls-9" x="57.09" y="62.75" width="0.11" height="0.75" transform="translate(-27.57 71.71) rotate(-53.63)"/><path class="cls-9" d="M57.49,65.89c0,.22-.15.31-.34.2a.77.77,0,0,1-.35-.6c0-.22.16-.3.35-.19A.75.75,0,0,1,57.49,65.89Z"/><path class="cls-8" d="M57.41,65.84c0,.17-.12.24-.26.15a.56.56,0,0,1-.27-.45c0-.17.12-.23.27-.15A.59.59,0,0,1,57.41,65.84Z"/><rect class="cls-9" x="57.09" y="65.34" width="0.11" height="0.71"/><rect class="cls-9" x="57.09" y="65.32" width="0.11" height="0.75" transform="translate(-29.64 72.76) rotate(-53.63)"/></g></g></svg>