<svg xmlns="http://www.w3.org/2000/svg" viewBox="0 0 137.08 85.9"><defs><style>.cls-1{isolation:isolate;}.cls-2{fill:#d7dce0;mix-blend-mode:multiply;}.cls-3{fill:#875f41;}.cls-4{fill:#bf9c7c;}.cls-5{fill:#6e4831;}.cls-6{fill:#ebecd0;}.cls-7{fill:#8c6148;}.cls-8{fill:#e0d4a4;}.cls-9{fill:#86a4b5;}.cls-10{fill:#6e92a6;}.cls-11{fill:#4a7790;}</style></defs><g class="cls-1"><g id="Capa_2" data-name="Capa 2"><g id="layer"><polygon class="cls-2" points="53.96 7.66 0 38.81 81 85.58 97.11 85.9 53.96 7.66"/><polygon class="cls-3" points="97.11 85.9 16.66 39.45 16.66 31.63 97.11 78.08 97.11 85.9"/><polygon class="cls-4" points="97.11 85.9 137.08 62.82 137.08 55 97.11 78.08 97.11 85.9"/><polygon class="cls-5" points="137.08 55 97.11 78.08 16.66 31.63 56.63 8.55 137.08 55"/><polygon class="cls-5" points="137.08 55 97.11 78.08 92.05 75.16 127 54.98 137.08 55"/><polygon class="cls-5" points="56.66 14.37 21.71 34.55 16.66 31.63 56.63 8.55 56.66 14.37"/><polygon class="cls-3" points="97.11 77.34 16.66 30.9 16.66 23.08 97.11 69.53 97.11 77.34"/><polygon class="cls-4" points="97.11 77.34 137.08 54.27 137.08 46.45 97.11 69.53 97.11 77.34"/><polygon class="cls-6" points="137.08 46.45 97.11 69.52 16.66 23.08 56.63 0 137.08 46.45"/><polygon class="cls-7" points="127 46.43 92.05 66.61 21.71 26 56.66 5.82 127 46.43"/><polygon class="cls-6" points="124.73 46.42 90.91 65.95 22.85 26.65 56.67 7.13 124.73 46.42"/><polygon class="cls-7" points="114.95 41.62 123.28 46.42 115 51.2 106.68 46.39 114.95 41.62"/><polygon class="cls-6" points="106.63 36.81 114.95 41.62 106.68 46.39 98.35 41.59 106.63 36.81"/><polygon class="cls-7" points="98.3 32 106.63 36.81 98.35 41.59 90.03 36.78 98.3 32"/><polygon class="cls-6" points="89.98 27.19 98.3 32 90.03 36.78 81.7 31.97 89.98 27.19"/><polygon class="cls-7" points="81.65 22.39 89.98 27.19 81.7 31.97 73.38 27.16 81.65 22.39"/><polygon class="cls-6" points="73.33 17.58 81.65 22.39 73.38 27.16 65.05 22.36 73.33 17.58"/><polygon class="cls-7" points="65 12.77 73.33 17.58 65.05 22.36 56.73 17.55 65 12.77"/><polygon class="cls-6" points="56.67 7.97 65 12.77 56.73 17.55 48.4 12.74 56.67 7.97"/><polygon class="cls-7" points="48.45 22.33 40.13 17.52 48.4 12.74 56.73 17.55 48.45 22.33"/><polygon class="cls-6" points="56.78 27.13 48.45 22.33 56.73 17.55 65.05 22.36 56.78 27.13"/><polygon class="cls-7" points="65.1 31.94 56.78 27.13 65.05 22.36 73.38 27.16 65.1 31.94"/><polygon class="cls-6" points="73.43 36.75 65.1 31.94 73.38 27.16 81.7 31.97 73.43 36.75"/><polygon class="cls-7" points="81.75 41.55 73.43 36.75 81.7 31.97 90.03 36.78 81.75 41.55"/><polygon class="cls-6" points="90.08 46.36 81.75 41.55 90.03 36.78 98.35 41.59 90.08 46.36"/><polygon class="cls-7" points="98.41 51.17 90.08 46.36 98.35 41.59 106.68 46.39 98.41 51.17"/><polygon class="cls-6" points="106.73 55.98 98.41 51.17 106.68 46.39 115 51.2 106.73 55.98"/><polygon class="cls-7" points="98.41 51.17 106.73 55.98 98.46 60.75 90.13 55.95 98.41 51.17"/><polygon class="cls-6" points="90.08 46.36 98.41 51.17 90.13 55.95 81.81 51.14 90.08 46.36"/><polygon class="cls-7" points="81.75 41.55 90.08 46.36 81.81 51.14 73.48 46.33 81.75 41.55"/><polygon class="cls-6" points="73.43 36.75 81.75 41.55 73.48 46.33 65.16 41.52 73.43 36.75"/><polygon class="cls-7" points="65.1 31.94 73.43 36.75 65.16 41.52 56.83 36.72 65.1 31.94"/><polygon class="cls-6" points="56.78 27.13 65.1 31.94 56.83 36.72 48.5 31.91 56.78 27.13"/><polygon class="cls-7" points="48.45 22.33 56.78 27.13 48.5 31.91 40.18 27.1 48.45 22.33"/><polygon class="cls-6" points="40.13 17.52 48.45 22.33 40.18 27.1 31.85 22.3 40.13 17.52"/><polygon class="cls-7" points="31.91 31.88 23.58 27.07 31.85 22.3 40.18 27.1 31.91 31.88"/><polygon class="cls-6" points="40.23 36.69 31.91 31.88 40.18 27.1 48.5 31.91 40.23 36.69"/><polygon class="cls-7" points="48.56 41.49 40.23 36.69 48.5 31.91 56.83 36.72 48.56 41.49"/><polygon class="cls-6" points="56.88 46.3 48.56 41.49 56.83 36.72 65.16 41.52 56.88 46.3"/><polygon class="cls-7" points="65.21 51.11 56.88 46.3 65.16 41.52 73.48 46.33 65.21 51.11"/><polygon class="cls-6" points="73.53 55.91 65.21 51.11 73.48 46.33 81.81 51.14 73.53 55.91"/><polygon class="cls-7" points="81.86 60.72 73.53 55.91 81.81 51.14 90.13 55.95 81.86 60.72"/><polygon class="cls-6" points="90.18 65.53 81.86 60.72 90.13 55.95 98.46 60.75 90.18 65.53"/><polygon class="cls-8" points="137.08 46.45 97.11 69.52 92.05 66.61 127 46.43 137.08 46.45"/><polygon class="cls-8" points="56.66 5.82 21.71 26 16.66 23.08 56.63 0 56.66 5.82"/><path class="cls-7" d="M23.28,22.74l.16.06.18,0,.21,0,.24-.11c.13-.08.2-.16.2-.24s-.05-.15-.17-.22l-.1,0-.09,0-.09,0-.08,0L23.66,22l1-.5,1.05.61-.48.3-.16-.09.07-.07,0,0a.06.06,0,0,0,0,0l0,0,0,0-.58-.33h0l-.06,0-.09.05-.1.05L24,22l.08,0a.19.19,0,0,0,.09,0l.09,0,.09.05a2.21,2.21,0,0,1,.26.19.4.4,0,0,1,.11.2.24.24,0,0,1,0,.18.48.48,0,0,1-.21.18,1,1,0,0,1-.37.14,1.09,1.09,0,0,1-.36,0,1.28,1.28,0,0,1-.34-.07l-.29-.13a.91.91,0,0,1-.23-.17.42.42,0,0,1-.11-.14.16.16,0,0,1,0-.12.3.3,0,0,1,.1-.09.35.35,0,0,1,.2-.05.58.58,0,0,1,.21.07.39.39,0,0,0-.1.08.24.24,0,0,0-.06.09.2.2,0,0,0,0,.1A.57.57,0,0,0,23.28,22.74Z"/><path class="cls-7" d="M33.84,17.07a.42.42,0,0,0-.2-.05,1.09,1.09,0,0,0-.25,0l-.31.09a2.52,2.52,0,0,0-.34.16h.1l.12,0,.12.05a.61.61,0,0,1,.14.07.52.52,0,0,1,.19.16.25.25,0,0,1,.06.16.29.29,0,0,1-.06.17.87.87,0,0,1-.2.16,1.37,1.37,0,0,1-.31.13,1.27,1.27,0,0,1-.34.05,1.23,1.23,0,0,1-.33,0,1.17,1.17,0,0,1-.33-.14.6.6,0,0,1-.22-.19.28.28,0,0,1-.05-.23.59.59,0,0,1,.15-.24,1.69,1.69,0,0,1,.37-.27,2.23,2.23,0,0,1,.47-.22,2.33,2.33,0,0,1,.49-.12,1.91,1.91,0,0,1,.48,0A1.63,1.63,0,0,1,34,17a.93.93,0,0,1,.2.15.27.27,0,0,1,.08.13.09.09,0,0,1,0,.1.24.24,0,0,1-.09.08.25.25,0,0,1-.09,0H34l-.15,0a.77.77,0,0,1-.17-.07l.12-.08.08-.08a.16.16,0,0,0,0-.08A.09.09,0,0,0,33.84,17.07Zm-.89.41a.19.19,0,0,0-.09,0l-.11,0-.11,0h-.1l-.32.21a1.31,1.31,0,0,0-.17.18.17.17,0,0,0,0,.13.11.11,0,0,0,.07.09.42.42,0,0,0,.28,0,1.19,1.19,0,0,0,.41-.17.6.6,0,0,0,.26-.22A.14.14,0,0,0,33,17.48Z"/><path class="cls-7" d="M39.28,13.31l2.41-.54L41,12.35a.44.44,0,0,0-.15,0,.28.28,0,0,0-.15,0l-.16.07-.16-.1.59-.32,1.32.76-.13.08-2.6.61Z"/><path class="cls-7" d="M47.19,8.14a.64.64,0,0,1,.19-.08l.21,0a1,1,0,0,1,.24,0l.26,0a.45.45,0,0,1,0-.27.42.42,0,0,1,.2-.22l.22-.09a1.12,1.12,0,0,1,.27,0,1.81,1.81,0,0,1,.31,0,2,2,0,0,1,.35.15,1,1,0,0,1,.21.17A.35.35,0,0,1,49.7,8a.21.21,0,0,1,0,.15.53.53,0,0,1-.16.13.36.36,0,0,1-.17.07.58.58,0,0,1-.19,0l-.21,0-.25,0a1.59,1.59,0,0,1,.09.2.28.28,0,0,1,0,.15.31.31,0,0,1-.06.13l-.13.11a1,1,0,0,1-.28.1,1.13,1.13,0,0,1-.32,0A1.51,1.51,0,0,1,47.67,9a1.21,1.21,0,0,1-.33-.15.83.83,0,0,1-.26-.19.39.39,0,0,1-.1-.19A.22.22,0,0,1,47,8.28.45.45,0,0,1,47.19,8.14Zm.32.61a.39.39,0,0,0,.15.06l.17,0a.86.86,0,0,0,.17,0l.16-.07a.21.21,0,0,0,.1-.08.19.19,0,0,0,0-.1.35.35,0,0,0,0-.13.89.89,0,0,0-.09-.16h-.31l-.15,0a.52.52,0,0,0-.15.07.34.34,0,0,0-.13.1.16.16,0,0,0,0,.1.12.12,0,0,0,0,.1A.3.3,0,0,0,47.51,8.75Zm1.65-.65a.39.39,0,0,0,.1-.08.41.41,0,0,0,.05-.09.12.12,0,0,0,0-.08.15.15,0,0,0-.08-.08.29.29,0,0,0-.13,0H49l-.14,0a.42.42,0,0,0-.14.06.44.44,0,0,0-.1.08.12.12,0,0,0,0,.09.17.17,0,0,0,0,.1l.06.11.16,0h.13l.14,0Z"/><path class="cls-7" d="M99.23,65.12l-.15-.06-.18,0a.52.52,0,0,0-.21,0,.82.82,0,0,0-.24.1q-.21.12-.21.24c0,.07.06.15.18.22l.1,0,.09,0,.08,0,.08,0,.08.11-1,.5-1-.61.49-.3.16.09-.08.07,0,0s0,0,0,0,0,0,0,0l0,0,.57.33h0l.06,0,.09,0a.31.31,0,0,0,.1,0l.28-.13-.07,0-.09,0-.1,0-.09,0a1.08,1.08,0,0,1-.25-.19.43.43,0,0,1-.12-.2.24.24,0,0,1,0-.18.48.48,0,0,1,.21-.18,1,1,0,0,1,.37-.14,1.1,1.1,0,0,1,.36,0,1.21,1.21,0,0,1,.34.07,1.57,1.57,0,0,1,.29.13,1.24,1.24,0,0,1,.24.17.53.53,0,0,1,.1.14.16.16,0,0,1,0,.12.38.38,0,0,1-.09.09.41.41,0,0,1-.21,0,.58.58,0,0,1-.21-.07.27.27,0,0,0,.1-.08.18.18,0,0,0,.06-.09.13.13,0,0,0,0-.1A.37.37,0,0,0,99.23,65.12Z"/><path class="cls-7" d="M105.94,61.1a.42.42,0,0,0,.2,0,.71.71,0,0,0,.25,0l.31-.09a2.6,2.6,0,0,0,.35-.16h-.11l-.11,0-.13-.05-.14-.07a.79.79,0,0,1-.19-.15.29.29,0,0,1-.06-.17.25.25,0,0,1,.07-.17.7.7,0,0,1,.2-.16,1.2,1.2,0,0,1,.31-.13,1.26,1.26,0,0,1,.33-.05,1.23,1.23,0,0,1,.33,0,1.22,1.22,0,0,1,.33.14.65.65,0,0,1,.23.19.31.31,0,0,1,0,.23.61.61,0,0,1-.15.25,2.23,2.23,0,0,1-.37.27,2.81,2.81,0,0,1-.47.21,2.33,2.33,0,0,1-.49.12,1.91,1.91,0,0,1-.48,0,1.63,1.63,0,0,1-.44-.15,2.07,2.07,0,0,1-.2-.15.38.38,0,0,1-.08-.13.11.11,0,0,1,0-.1.24.24,0,0,1,.09-.08l.1,0h.12l.15,0a.44.44,0,0,1,.17.08l-.11.07a.38.38,0,0,0-.09.09.11.11,0,0,0,0,.08A.19.19,0,0,0,105.94,61.1Zm.89-.41.09,0,.11,0,.12,0h.09a3,3,0,0,0,.32-.21.69.69,0,0,0,.17-.18.18.18,0,0,0,0-.13.14.14,0,0,0-.08-.09.41.41,0,0,0-.28,0,1.28,1.28,0,0,0-.4.17.54.54,0,0,0-.26.22C106.72,60.59,106.75,60.65,106.83,60.69Z"/><path class="cls-7" d="M115.92,55.71l-2.41.54.73.42a.3.3,0,0,0,.15,0,.28.28,0,0,0,.15,0l.16-.07.17.1-.6.33L113,56.27l.13-.08,2.6-.61Z"/><path class="cls-7" d="M123.57,51.56a.62.62,0,0,1-.19.07.66.66,0,0,1-.21,0h-.24l-.26,0a.42.42,0,0,1,0,.28.38.38,0,0,1-.19.21.85.85,0,0,1-.22.09,1.24,1.24,0,0,1-.27,0,1.12,1.12,0,0,1-.31-.05,1.32,1.32,0,0,1-.35-.15.84.84,0,0,1-.22-.17.27.27,0,0,1-.08-.16.19.19,0,0,1,0-.16.39.39,0,0,1,.15-.13.61.61,0,0,1,.17-.07l.2,0h.21l.24,0a1.54,1.54,0,0,1-.09-.19.45.45,0,0,1,0-.16.31.31,0,0,1,.06-.13.34.34,0,0,1,.13-.1,1,1,0,0,1,.28-.11,1.06,1.06,0,0,1,.31,0,1.3,1.3,0,0,1,.33.07,2.52,2.52,0,0,1,.34.15,1.17,1.17,0,0,1,.26.2.33.33,0,0,1,.09.19.2.2,0,0,1,0,.16A.51.51,0,0,1,123.57,51.56Zm-2,0a.44.44,0,0,0-.1.08.19.19,0,0,0-.05.18.36.36,0,0,0,.09.08l.12,0h.14l.14,0,.14-.06a.53.53,0,0,0,.11-.09.36.36,0,0,0,0-.09.2.2,0,0,0,0-.1.41.41,0,0,0-.06-.11H122a.33.33,0,0,0-.14,0,.31.31,0,0,0-.13,0Zm1.65-.65-.16-.06h-.17l-.17,0-.16.07a.45.45,0,0,0-.1.09.17.17,0,0,0,0,.1.34.34,0,0,0,0,.12.89.89,0,0,0,.09.16h.15a.43.43,0,0,0,.16,0,.4.4,0,0,0,.15,0l.15-.07a.4.4,0,0,0,.12-.1.21.21,0,0,0,.06-.1.19.19,0,0,0,0-.1A.45.45,0,0,0,123.26,50.94Z"/><path class="cls-7" d="M63.83,8.72a.3.3,0,0,0,.11,0h.12l.13,0,.13-.06a.91.91,0,0,1,.24.18c0,.06,0,.1,0,.14a.35.35,0,0,1-.18,0,.82.82,0,0,1-.21,0,1.27,1.27,0,0,1-.23-.08l-.24-.12a1.52,1.52,0,0,1-.23-.16.33.33,0,0,1-.1-.15.17.17,0,0,1,0-.15.59.59,0,0,1,.18-.14l.7-.41.09-.06s0,0,0,0a.06.06,0,0,0,0-.05l-.07,0h0l.15-.09.51.3-.13.14,0,0h.33l.15,0,.15.07a.57.57,0,0,1,.14.11.22.22,0,0,1,.06.13.27.27,0,0,1-.05.14.56.56,0,0,1-.16.13.77.77,0,0,1-.49.1,1.42,1.42,0,0,1-.59-.2l-.23-.13L64,8.44l-.13.08a.23.23,0,0,0-.07.07.06.06,0,0,0,0,.07S63.8,8.7,63.83,8.72ZM65,8.33a.45.45,0,0,0,.14-.13s0-.07-.07-.1l-.13,0h-.15l-.17,0a.56.56,0,0,0-.16.07l-.21.12.14.07a.52.52,0,0,0,.16.06.41.41,0,0,0,.15,0l.15,0Z"/><path class="cls-7" d="M72,12.72a1.85,1.85,0,0,1,.38-.18,1.55,1.55,0,0,1,.35-.07,1.13,1.13,0,0,1,.32,0,1,1,0,0,1,.29.11l.13.1.07.09a.38.38,0,0,1,0,.1.19.19,0,0,1,0,.1h0l.29-.08.53.31-.15.08h0l-.08,0-.1,0h-.1l-.12,0-1.43.83a.14.14,0,0,0-.07.06,0,0,0,0,0,0,.06s0,0,0,.06l.08,0h0l-.15.09-.65-.38.47-.27.11-.06.11-.06.14-.06h0a1.14,1.14,0,0,1-.32,0,1,1,0,0,1-.32-.11.65.65,0,0,1-.19-.17.24.24,0,0,1,0-.18.52.52,0,0,1,.13-.2A1.8,1.8,0,0,1,72,12.72Zm.13.72a.27.27,0,0,0,.17.06.41.41,0,0,0,.19,0,1.11,1.11,0,0,0,.22-.07,2.26,2.26,0,0,0,.26-.14,1.53,1.53,0,0,0,.23-.15.38.38,0,0,0,.13-.12.13.13,0,0,0,0-.12.19.19,0,0,0-.1-.1.47.47,0,0,0-.34,0,1.75,1.75,0,0,0-.49.21,1.35,1.35,0,0,0-.36.28C72,13.32,72,13.39,72.09,13.44Z"/><path class="cls-7" d="M81.77,17.49a1,1,0,0,1,.24.19.28.28,0,0,1,.09.2.29.29,0,0,1-.1.21,1,1,0,0,1-.3.24,1.52,1.52,0,0,1-.43.18,1.31,1.31,0,0,1-.38.06,1.34,1.34,0,0,1-.35-.05,1.36,1.36,0,0,1-.3-.13,1,1,0,0,1-.22-.15.6.6,0,0,1-.11-.14.14.14,0,0,1,0-.11A.15.15,0,0,1,80,17.9l.11,0h.13l.16,0,.2.09-.13.09a.3.3,0,0,0-.08.08.13.13,0,0,0,0,.08.17.17,0,0,0,.06.06.34.34,0,0,0,.14,0,.57.57,0,0,0,.18,0,1,1,0,0,0,.24-.08,2.31,2.31,0,0,0,.31-.16.83.83,0,0,0,.35-.28c0-.09,0-.16-.12-.23a.69.69,0,0,0-.15-.07l-.16,0H81l-.15,0a.06.06,0,0,1,0-.06.1.1,0,0,1,.06-.05l.13-.05h.2l.24.06Z"/><path class="cls-7" d="M89.17,22.19a.3.3,0,0,0,.08-.07.13.13,0,0,0,0-.06L89.21,22l-.08-.06h0l.15-.09.53.31-.13.17,0,0,.17,0H90l.17,0,.16.07a.71.71,0,0,1,.2.17.24.24,0,0,1,0,.18.46.46,0,0,1-.13.2,1.38,1.38,0,0,1-.31.22,1.85,1.85,0,0,1-.38.18,1.59,1.59,0,0,1-.35.08,1.67,1.67,0,0,1-.32,0,1,1,0,0,1-.28-.12.48.48,0,0,1-.13-.09l-.07-.09a.21.21,0,0,1,0-.18h0l-.14.09,0,0-.05,0,0,0h0l-.15.09a.12.12,0,0,0-.07.07s0,0,0,.05l.05.06.08,0h0l-.14.09-.67-.39Zm.87.31a.64.64,0,0,0-.18-.06h-.19a1.19,1.19,0,0,0-.22.08,2.1,2.1,0,0,0-.26.13l-.23.15a.52.52,0,0,0-.13.13s0,.08,0,.11,0,.07.1.11a.33.33,0,0,0,.15,0,.43.43,0,0,0,.19,0,1.11,1.11,0,0,0,.22-.07l.26-.13a1.08,1.08,0,0,0,.36-.28C90.15,22.62,90.13,22.56,90,22.5Z"/><path class="cls-7" d="M98.42,27.11a.72.72,0,0,1,.26.21.31.31,0,0,1,.08.21.36.36,0,0,1-.1.22,1.13,1.13,0,0,1-.28.21,1.59,1.59,0,0,1-.38.17,1.31,1.31,0,0,1-.38.06.92.92,0,0,1-.37,0,1.09,1.09,0,0,1-.34-.13.9.9,0,0,1-.23-.19.28.28,0,0,1-.07-.19.25.25,0,0,1,.07-.19.86.86,0,0,1,.25-.19l.14-.08.91.52a1.45,1.45,0,0,0,.21-.15.46.46,0,0,0,.09-.14.16.16,0,0,0,0-.12.43.43,0,0,0-.12-.11L98,27.11l-.16,0h-.31s0-.08.06-.12a.33.33,0,0,1,.15,0,.6.6,0,0,1,.19,0l.23.06A1.11,1.11,0,0,1,98.42,27.11Zm-1.33.8a.46.46,0,0,0,.3,0,1.48,1.48,0,0,0,.41-.15l-.48-.28-.18.12a.31.31,0,0,0-.1.1.1.1,0,0,0,0,.09S97.05,27.89,97.09,27.91Z"/><path class="cls-7" d="M107.4,32.32l-.15.08-.06,0-.07,0a.32.32,0,0,0-.09,0h-.1a.28.28,0,0,0-.12,0l-1,.56.24.14-.18.11-.25-.15-.1.06-.26.12a1.26,1.26,0,0,1-.28,0,1,1,0,0,1-.28-.05,1.19,1.19,0,0,1-.29-.12,1.51,1.51,0,0,1-.21-.14.47.47,0,0,1-.1-.11.11.11,0,0,1,0-.08l.06-.06a.38.38,0,0,1,.22,0,1,1,0,0,1,.3.13l-.07,0,0,.06a.13.13,0,0,0,0,.06s0,0,0,.05l.08,0h.1a.38.38,0,0,0,.12,0l.17-.08.15-.09-.39-.22.19-.11.39.22,1-.55a.22.22,0,0,0,.07-.07.07.07,0,0,0,0-.06.1.1,0,0,0,0,0l-.06,0-.13-.08.15-.08Z"/><path class="cls-7" d="M112.91,37.15l.07,0h.09l.09,0a.27.27,0,0,1,.11,0l0,0a0,0,0,0,0,0,0s0,0,0,0,0,0,0,0l.06,0h.06a.19.19,0,0,1,0-.07.3.3,0,0,1,0-.08l.07-.07.09-.06a.73.73,0,0,1,.22-.09,1.09,1.09,0,0,1,.26,0,.88.88,0,0,1,.27,0,1.78,1.78,0,0,1,.29.12l0,0,0,0,0,0,0,0H115l0,0s0,0,0-.06a.15.15,0,0,0-.07-.07l-.34-.19a1.41,1.41,0,0,1-.21-.16.41.41,0,0,1-.08-.14.13.13,0,0,1,0-.13.33.33,0,0,1,.14-.12,1,1,0,0,1,.28-.11,1.13,1.13,0,0,1,.32,0,1.59,1.59,0,0,1,.35.08,2.87,2.87,0,0,1,.4.19.85.85,0,0,1,.39.34c0,.1,0,.18-.13.25a.5.5,0,0,1-.32.08.92.92,0,0,1-.37-.11.43.43,0,0,1,0,.07.13.13,0,0,1,0,.06.14.14,0,0,1,0,.07l-.07.06-.11,0H115l-.16,0a.19.19,0,0,1,.05.1.17.17,0,0,1,0,.1.3.3,0,0,1-.06.11l-.13.1a1,1,0,0,1-.52.13,1.14,1.14,0,0,1-.57-.17.74.74,0,0,1-.16-.12l-.09-.12h-.22l-.11,0-.11,0-.08-.06,0,0a.14.14,0,0,1,0-.06S112.89,37.16,112.91,37.15Zm1.45.35.12-.08.07-.08a.08.08,0,0,0,0-.07.12.12,0,0,0-.07-.07l-.11,0h-.12l-.14.05-.14.07-.13.08a.28.28,0,0,0-.07.09.06.06,0,0,0,0,.07s0,0,.06.07l.12,0a.28.28,0,0,0,.13,0l.14,0Zm1.46-.63c.08,0,.11-.09.09-.15a.46.46,0,0,0-.19-.17,1.15,1.15,0,0,0-.43-.16.46.46,0,0,0-.31,0c-.06,0-.09.07-.07.1s.06.08.13.12l.32.19.1,0a.2.2,0,0,0,.11,0h.12Z"/><path class="cls-7" d="M124.12,42l-.91.53-.15.1a.28.28,0,0,0-.07.09.08.08,0,0,0,0,.08.19.19,0,0,0,.08.07.44.44,0,0,0,.15,0h.17l.18-.06.17-.09.53-.3a.22.22,0,0,0,.07-.06.07.07,0,0,0,0-.06l0-.05-.08,0h0l.14-.09.86.49-.15.09h0l-.09-.05-.09,0h-.11l-.11,0-1.45.83a.45.45,0,0,0-.07.07,0,0,0,0,0,0,.05.21.21,0,0,0,0,.06l.06,0h0l-.14.09-.65-.38.45-.26.12-.07.12-.06.13-.06h0a.77.77,0,0,1-.21,0h-.17l-.14-.05-.13-.07a.53.53,0,0,1-.16-.13.19.19,0,0,1,0-.14c0-.05,0-.09.08-.15a.69.69,0,0,1,.2-.15l.64-.37.1-.07s0,0,0,0,0,0,0-.05l-.08,0h0l.15-.08Z"/><polygon class="cls-9" points="41.24 48.08 31.91 42.69 31.91 40.43 41.24 45.83 41.24 48.08"/><polygon class="cls-9" points="41.24 45.09 31.91 39.69 31.91 37.45 41.24 42.84 41.24 45.09"/><path class="cls-10" d="M31.45,40.34c0,.22.16.31.35.2a.76.76,0,0,0,.34-.6c0-.21-.15-.3-.34-.19A.76.76,0,0,0,31.45,40.34Z"/><polygon class="cls-10" points="36.12 43.2 31.54 40.56 32.04 39.72 36.61 42.36 36.12 43.2"/><path class="cls-11" d="M36,43c0,.22.15.31.34.2a.77.77,0,0,0,.35-.6c0-.22-.16-.31-.35-.2A.76.76,0,0,0,36,43Z"/><path class="cls-10" d="M36.13,43c0,.22.15.31.34.2a.77.77,0,0,0,.35-.6c0-.21-.16-.3-.35-.19A.75.75,0,0,0,36.13,43Z"/><polygon class="cls-10" points="40.8 45.9 36.22 43.26 36.72 42.42 41.28 45.06 40.8 45.9"/><path class="cls-11" d="M40.69,45.68c0,.22.16.31.35.2a.76.76,0,0,0,.34-.6c0-.22-.15-.31-.34-.2A.77.77,0,0,0,40.69,45.68Z"/><path class="cls-11" d="M40.1,43.64c0,.22-.15.31-.34.2a.77.77,0,0,1-.35-.6c0-.21.16-.3.35-.19A.75.75,0,0,1,40.1,43.64Z"/><path class="cls-10" d="M40,43.6a.16.16,0,0,1-.26.15.59.59,0,0,1-.27-.46c0-.16.12-.23.27-.15A.61.61,0,0,1,40,43.6Z"/><rect class="cls-11" x="39.7" y="43.09" width="0.11" height="0.71"/><rect class="cls-11" x="39.7" y="43.07" width="0.11" height="0.75" transform="translate(-18.8 49.74) rotate(-53.67)"/><path class="cls-11" d="M40.1,46.21c0,.22-.15.31-.34.2a.77.77,0,0,1-.35-.6c0-.22.16-.31.35-.2A.76.76,0,0,1,40.1,46.21Z"/><path class="cls-10" d="M40,46.16c0,.17-.12.24-.26.15a.57.57,0,0,1-.27-.45c0-.17.12-.24.27-.15A.57.57,0,0,1,40,46.16Z"/><rect class="cls-11" x="39.7" y="45.66" width="0.11" height="0.71"/><rect class="cls-11" x="39.7" y="45.64" width="0.11" height="0.75" transform="translate(-20.86 50.79) rotate(-53.68)"/><path class="cls-11" d="M36.82,41.76c0,.22-.16.31-.35.2a.76.76,0,0,1-.34-.6c0-.22.15-.31.34-.2A.77.77,0,0,1,36.82,41.76Z"/><path class="cls-10" d="M36.74,41.71c0,.17-.12.24-.27.15a.57.57,0,0,1-.26-.45c0-.17.12-.23.26-.15A.57.57,0,0,1,36.74,41.71Z"/><rect class="cls-11" x="36.42" y="41.21" width="0.11" height="0.71"/><rect class="cls-11" x="36.42" y="41.19" width="0.11" height="0.75" transform="translate(-18.62 46.33) rotate(-53.68)"/><path class="cls-11" d="M36.82,44.33c0,.22-.16.3-.35.19a.75.75,0,0,1-.34-.59c0-.22.15-.31.34-.2A.77.77,0,0,1,36.82,44.33Z"/><path class="cls-10" d="M36.74,44.28c0,.17-.12.23-.27.15a.61.61,0,0,1-.26-.45c0-.17.12-.24.26-.15A.56.56,0,0,1,36.74,44.28Z"/><rect class="cls-11" x="36.42" y="43.78" width="0.11" height="0.71"/><rect class="cls-11" x="36.42" y="43.75" width="0.11" height="0.75" transform="translate(-20.69 47.38) rotate(-53.68)"/><path class="cls-11" d="M33.54,39.88c0,.22-.16.3-.35.19a.75.75,0,0,1-.34-.59c0-.22.15-.31.34-.2A.77.77,0,0,1,33.54,39.88Z"/><path class="cls-10" d="M33.45,39.83c0,.17-.11.23-.26.15a.59.59,0,0,1-.26-.45c0-.17.12-.24.26-.15A.55.55,0,0,1,33.45,39.83Z"/><rect class="cls-11" x="33.14" y="39.33" width="0.11" height="0.71"/><rect class="cls-11" x="33.14" y="39.31" width="0.11" height="0.75" transform="translate(-18.44 42.92) rotate(-53.68)"/><path class="cls-11" d="M33.54,42.44c0,.22-.16.31-.35.2a.76.76,0,0,1-.34-.6c0-.21.15-.3.34-.19A.76.76,0,0,1,33.54,42.44Z"/><path class="cls-10" d="M33.45,42.4c0,.16-.11.23-.26.15a.61.61,0,0,1-.26-.46.16.16,0,0,1,.26-.15A.58.58,0,0,1,33.45,42.4Z"/><rect class="cls-11" x="33.14" y="41.89" width="0.11" height="0.71"/><rect class="cls-11" x="33.14" y="41.87" width="0.11" height="0.75" transform="translate(-20.51 43.99) rotate(-53.71)"/><polygon class="cls-9" points="81.86 71.53 72.52 66.14 72.52 63.88 81.86 69.27 81.86 71.53"/><polygon class="cls-9" points="81.86 68.53 72.52 63.14 72.52 60.9 81.86 66.29 81.86 68.53"/><path class="cls-10" d="M72.07,63.79c0,.22.15.31.34.2a.77.77,0,0,0,.35-.6c0-.22-.16-.3-.35-.19A.75.75,0,0,0,72.07,63.79Z"/><polygon class="cls-10" points="76.73 66.65 72.16 64.01 72.65 63.17 77.22 65.81 76.73 66.65"/><path class="cls-11" d="M76.63,66.43c0,.22.16.3.35.19a.75.75,0,0,0,.34-.59c0-.22-.15-.31-.34-.2A.77.77,0,0,0,76.63,66.43Z"/><path class="cls-10" d="M76.74,66.49c0,.22.16.31.35.2a.76.76,0,0,0,.34-.6c0-.22-.15-.3-.34-.19A.76.76,0,0,0,76.74,66.49Z"/><polygon class="cls-10" points="81.41 69.35 76.83 66.71 77.33 65.87 81.9 68.51 81.41 69.35"/><path class="cls-11" d="M81.31,69.13c0,.22.15.3.34.19a.76.76,0,0,0,.35-.59c0-.22-.16-.31-.35-.2A.76.76,0,0,0,81.31,69.13Z"/><path class="cls-11" d="M80.71,67.09c0,.22-.15.31-.34.2a.77.77,0,0,1-.35-.6c0-.22.16-.3.35-.19A.75.75,0,0,1,80.71,67.09Z"/><path class="cls-10" d="M80.63,67c0,.17-.12.24-.26.15a.55.55,0,0,1-.26-.45c0-.17.11-.23.26-.15A.59.59,0,0,1,80.63,67Z"/><rect class="cls-11" x="80.32" y="66.54" width="0.11" height="0.71"/><rect class="cls-11" x="80.32" y="66.52" width="0.11" height="0.75" transform="translate(-21.14 92) rotate(-53.67)"/><path class="cls-11" d="M80.71,69.66c0,.22-.15.3-.34.19a.76.76,0,0,1-.35-.59c0-.22.16-.31.35-.2A.76.76,0,0,1,80.71,69.66Z"/><path class="cls-10" d="M80.63,69.61c0,.17-.12.23-.26.15a.56.56,0,0,1-.26-.45c0-.17.11-.24.26-.15A.57.57,0,0,1,80.63,69.61Z"/><rect class="cls-11" x="80.32" y="69.11" width="0.11" height="0.71"/><rect class="cls-11" x="80.32" y="69.09" width="0.11" height="0.75" transform="translate(-23.22 92.99) rotate(-53.63)"/><path class="cls-11" d="M77.43,65.21c0,.22-.15.31-.34.2a.77.77,0,0,1-.35-.6c0-.22.16-.31.35-.2A.76.76,0,0,1,77.43,65.21Z"/><path class="cls-10" d="M77.35,65.16c0,.17-.12.23-.26.15a.57.57,0,0,1-.27-.45c0-.17.12-.24.27-.15A.57.57,0,0,1,77.35,65.16Z"/><rect class="cls-11" x="77.03" y="64.66" width="0.11" height="0.71"/><rect class="cls-11" x="77.03" y="64.64" width="0.11" height="0.75" transform="translate(-20.97 88.54) rotate(-53.63)"/><path class="cls-11" d="M77.43,67.77c0,.22-.15.31-.34.2a.77.77,0,0,1-.35-.59c0-.22.16-.31.35-.2A.76.76,0,0,1,77.43,67.77Z"/><path class="cls-10" d="M77.35,67.73a.16.16,0,0,1-.26.15.59.59,0,0,1-.27-.46c0-.16.12-.23.27-.15A.61.61,0,0,1,77.35,67.73Z"/><rect class="cls-11" x="77.03" y="67.22" width="0.11" height="0.71"/><rect class="cls-11" x="77.03" y="67.2" width="0.11" height="0.75" transform="translate(-23.03 89.64) rotate(-53.67)"/><path class="cls-11" d="M74.15,63.33c0,.21-.15.3-.35.19a.75.75,0,0,1-.34-.59c0-.22.15-.31.34-.2A.75.75,0,0,1,74.15,63.33Z"/><path class="cls-10" d="M74.07,63.28c0,.16-.12.23-.27.15a.61.61,0,0,1-.26-.46.16.16,0,0,1,.26-.15A.59.59,0,0,1,74.07,63.28Z"/><rect class="cls-11" x="73.75" y="62.78" width="0.11" height="0.71"/><rect class="cls-11" x="73.75" y="62.75" width="0.11" height="0.75" transform="translate(-20.79 85.13) rotate(-53.63)"/><path class="cls-11" d="M74.15,65.89c0,.22-.15.31-.35.2a.76.76,0,0,1-.34-.6c0-.22.15-.3.34-.19A.73.73,0,0,1,74.15,65.89Z"/><path class="cls-10" d="M74.07,65.84c0,.17-.12.24-.27.15a.57.57,0,0,1-.26-.45c0-.17.12-.23.26-.15A.57.57,0,0,1,74.07,65.84Z"/><rect class="cls-11" x="73.75" y="65.34" width="0.11" height="0.71"/><rect class="cls-11" x="73.75" y="65.32" width="0.11" height="0.75" transform="translate(-22.86 86.17) rotate(-53.63)"/></g></g></g></svg>