<svg xmlns="http://www.w3.org/2000/svg" viewBox="0 0 170.53 101.03"><defs><style>.cls-1{isolation:isolate;}.cls-2{fill:#d7dce0;mix-blend-mode:multiply;}.cls-3{fill:#6e4831;}.cls-4{fill:#bf9c7c;}.cls-5{fill:#ebecd0;}.cls-6{fill:#8c6148;}.cls-7{fill:#e0d4a4;}.cls-8{fill:#875f41;}</style></defs><g class="cls-1"><g id="Capa_2" data-name="Capa 2"><g id="layer"><polygon class="cls-2" points="119.41 32.38 120.42 30.58 80.45 7.5 0 53.95 81 100.71 89.53 101.03 121.47 31.19 119.41 32.38"/><polygon class="cls-3" points="130.55 77.34 50.1 30.9 50.1 23.08 130.55 69.53 130.55 77.34"/><polygon class="cls-4" points="130.55 77.34 170.53 54.27 170.53 46.45 130.55 69.53 130.55 77.34"/><polygon class="cls-5" points="170.53 46.45 130.55 69.52 50.1 23.08 90.08 0 170.53 46.45"/><polygon class="cls-6" points="160.45 46.43 125.5 66.61 55.16 26 90.11 5.82 160.45 46.43"/><polygon class="cls-5" points="158.18 46.42 124.36 65.95 56.3 26.65 90.12 7.13 158.18 46.42"/><polygon class="cls-6" points="148.4 41.62 156.73 46.42 148.45 51.2 140.13 46.39 148.4 41.62"/><polygon class="cls-5" points="140.07 36.81 148.4 41.62 140.13 46.39 131.8 41.59 140.07 36.81"/><polygon class="cls-6" points="131.75 32 140.07 36.81 131.8 41.59 123.48 36.78 131.75 32"/><polygon class="cls-5" points="123.42 27.2 131.75 32 123.48 36.78 115.15 31.97 123.42 27.2"/><polygon class="cls-6" points="115.1 22.39 123.42 27.2 115.15 31.97 106.83 27.16 115.1 22.39"/><polygon class="cls-5" points="106.77 17.58 115.1 22.39 106.83 27.16 98.5 22.36 106.77 17.58"/><polygon class="cls-6" points="98.45 12.77 106.77 17.58 98.5 22.36 90.17 17.55 98.45 12.77"/><polygon class="cls-5" points="90.12 7.97 98.45 12.77 90.17 17.55 81.85 12.74 90.12 7.97"/><polygon class="cls-6" points="81.9 22.33 73.57 17.52 81.85 12.74 90.17 17.55 81.9 22.33"/><polygon class="cls-5" points="90.23 27.14 81.9 22.33 90.17 17.55 98.5 22.36 90.23 27.14"/><polygon class="cls-6" points="98.55 31.94 90.23 27.14 98.5 22.36 106.83 27.16 98.55 31.94"/><polygon class="cls-5" points="106.88 36.75 98.55 31.94 106.83 27.16 115.15 31.97 106.88 36.75"/><polygon class="cls-6" points="115.2 41.55 106.88 36.75 115.15 31.97 123.48 36.78 115.2 41.55"/><polygon class="cls-5" points="123.53 46.36 115.2 41.55 123.48 36.78 131.8 41.59 123.53 46.36"/><polygon class="cls-6" points="131.85 51.17 123.53 46.36 131.8 41.59 140.13 46.39 131.85 51.17"/><polygon class="cls-5" points="140.18 55.98 131.85 51.17 140.13 46.39 148.45 51.2 140.18 55.98"/><polygon class="cls-6" points="131.85 51.17 140.18 55.98 131.91 60.75 123.58 55.95 131.85 51.17"/><polygon class="cls-5" points="123.53 46.36 131.85 51.17 123.58 55.95 115.25 51.14 123.53 46.36"/><polygon class="cls-6" points="115.2 41.55 123.53 46.36 115.25 51.14 106.93 46.33 115.2 41.55"/><polygon class="cls-5" points="106.88 36.75 115.2 41.55 106.93 46.33 98.6 41.52 106.88 36.75"/><polygon class="cls-6" points="98.55 31.94 106.88 36.75 98.6 41.52 90.28 36.72 98.55 31.94"/><polygon class="cls-5" points="90.23 27.14 98.55 31.94 90.28 36.72 81.95 31.91 90.23 27.14"/><polygon class="cls-6" points="81.9 22.33 90.23 27.14 81.95 31.91 73.63 27.11 81.9 22.33"/><polygon class="cls-5" points="73.57 17.52 81.9 22.33 73.63 27.11 65.3 22.3 73.57 17.52"/><polygon class="cls-6" points="65.35 31.88 57.03 27.07 65.3 22.3 73.63 27.11 65.35 31.88"/><polygon class="cls-5" points="73.68 36.69 65.35 31.88 73.63 27.11 81.95 31.91 73.68 36.69"/><polygon class="cls-6" points="82 41.49 73.68 36.69 81.95 31.91 90.28 36.72 82 41.49"/><polygon class="cls-5" points="90.33 46.3 82 41.49 90.28 36.72 98.6 41.52 90.33 46.3"/><polygon class="cls-6" points="98.66 51.11 90.33 46.3 98.6 41.52 106.93 46.33 98.66 51.11"/><polygon class="cls-5" points="106.98 55.91 98.66 51.11 106.93 46.33 115.25 51.14 106.98 55.91"/><polygon class="cls-6" points="115.31 60.72 106.98 55.91 115.25 51.14 123.58 55.95 115.31 60.72"/><polygon class="cls-5" points="123.63 65.53 115.31 60.72 123.58 55.95 131.91 60.75 123.63 65.53"/><polygon class="cls-7" points="170.53 46.45 130.55 69.52 125.5 66.61 160.45 46.43 170.53 46.45"/><polygon class="cls-7" points="90.11 5.82 55.16 26 50.1 23.08 90.08 0 90.11 5.82"/><path class="cls-6" d="M56.73,22.74l.15.06.18,0a.76.76,0,0,0,.21,0,1.28,1.28,0,0,0,.24-.11q.21-.12.21-.24c0-.07-.06-.15-.18-.22l-.1,0-.09,0-.08,0-.08,0L57.11,22l1-.5,1.05.61-.49.3-.15-.09.07-.07,0,0s0,0,0,0l0,0,0,0L58,21.75h0l-.06,0-.09,0-.1.05-.28.13.07,0,.09,0,.1,0,.09.05a1.08,1.08,0,0,1,.25.19.43.43,0,0,1,.12.2.28.28,0,0,1,0,.19.54.54,0,0,1-.21.17,1,1,0,0,1-.37.14,1.1,1.1,0,0,1-.36,0,1.21,1.21,0,0,1-.34-.07l-.29-.13a1.24,1.24,0,0,1-.24-.17.53.53,0,0,1-.1-.14.17.17,0,0,1,0-.12.38.38,0,0,1,.09-.09.41.41,0,0,1,.21-.05.58.58,0,0,1,.21.07.27.27,0,0,0-.1.08.24.24,0,0,0-.06.09.13.13,0,0,0,0,.1A.37.37,0,0,0,56.73,22.74Z"/><path class="cls-6" d="M67.29,17.07a.42.42,0,0,0-.2-.05,1.09,1.09,0,0,0-.25,0l-.31.09a2.6,2.6,0,0,0-.35.16h.11l.11,0,.13.05.14.07a.62.62,0,0,1,.19.16.27.27,0,0,1,.06.16.25.25,0,0,1-.07.17.7.7,0,0,1-.2.16,1.07,1.07,0,0,1-.31.13,1.26,1.26,0,0,1-.33.05,1.23,1.23,0,0,1-.33,0,1,1,0,0,1-.33-.14.75.75,0,0,1-.23-.19.29.29,0,0,1,0-.22.64.64,0,0,1,.15-.26,1.78,1.78,0,0,1,.37-.26,2.86,2.86,0,0,1,.47-.22,2.33,2.33,0,0,1,.49-.12,1.91,1.91,0,0,1,.48,0,1.63,1.63,0,0,1,.44.15l.2.15a.38.38,0,0,1,.08.13.11.11,0,0,1,0,.1.24.24,0,0,1-.09.08l-.1,0h-.12l-.15,0-.17-.08.11-.08.09-.08a.16.16,0,0,0,0-.08A.21.21,0,0,0,67.29,17.07Zm-.89.41-.09,0-.11,0-.12,0H66l-.32.21a.89.89,0,0,0-.17.18.24.24,0,0,0,0,.13.14.14,0,0,0,.08.09.41.41,0,0,0,.28,0,1.15,1.15,0,0,0,.4-.17.54.54,0,0,0,.26-.22C66.51,17.58,66.48,17.52,66.4,17.48Z"/><path class="cls-6" d="M72.73,13.31l2.41-.54-.73-.42a.44.44,0,0,0-.15,0,.28.28,0,0,0-.15,0l-.16.07-.17-.1.6-.32,1.32.76-.13.08-2.6.62Z"/><path class="cls-6" d="M80.64,8.14a.64.64,0,0,1,.19-.08L81,8a1,1,0,0,1,.24,0l.26,0a.38.38,0,0,1,0-.27.41.41,0,0,1,.2-.22l.22-.09a1.12,1.12,0,0,1,.27,0,2,2,0,0,1,.31,0l.34.15a1.12,1.12,0,0,1,.22.17.4.4,0,0,1,.09.17.28.28,0,0,1,0,.15A.53.53,0,0,1,83,8.3a.41.41,0,0,1-.17.07.63.63,0,0,1-.19,0l-.22,0-.24,0a1.07,1.07,0,0,1,.09.19.27.27,0,0,1,0,.15.18.18,0,0,1-.06.13.36.36,0,0,1-.13.11.85.85,0,0,1-.28.1,1.06,1.06,0,0,1-.31,0A1.3,1.3,0,0,1,81.12,9a1.42,1.42,0,0,1-.34-.15.9.9,0,0,1-.25-.19.39.39,0,0,1-.1-.19.21.21,0,0,1,0-.17A.61.61,0,0,1,80.64,8.14Zm.31.61a.44.44,0,0,0,.16.06l.17,0,.17,0,.16-.07a.21.21,0,0,0,.1-.08.17.17,0,0,0,0-.1.35.35,0,0,0,0-.13c0-.05-.06-.1-.09-.16h-.31l-.16,0L81,8.36a.4.4,0,0,0-.12.1.16.16,0,0,0,0,.1.12.12,0,0,0,0,.1A.45.45,0,0,0,81,8.75Zm1.66-.65A.24.24,0,0,0,82.7,8a.21.21,0,0,0,.06-.08.28.28,0,0,0,0-.09.18.18,0,0,0-.09-.08.26.26,0,0,0-.12,0H82.4a.76.76,0,0,0-.28.09L82,7.89A.16.16,0,0,0,82,8a.17.17,0,0,0,0,.1l.06.11.15,0h.14l.13,0A.42.42,0,0,0,82.61,8.1Z"/><path class="cls-6" d="M132.68,65.12l-.16-.06-.18,0a.59.59,0,0,0-.21,0,1.12,1.12,0,0,0-.24.1c-.13.08-.2.16-.2.24s.05.15.17.22l.1,0,.09,0,.09,0,.08,0,.08.1-1,.5-1-.61.48-.3.16.1-.07.06,0,0a0,0,0,0,0,0,0s0,0,0,0l0,0,.58.33h0l.06,0,.09,0,.1,0,.28-.13-.08,0-.08,0-.1,0-.09,0a1.46,1.46,0,0,1-.26-.19.42.42,0,0,1-.11-.19.26.26,0,0,1,0-.19.48.48,0,0,1,.21-.18,1,1,0,0,1,.37-.14,1.45,1.45,0,0,1,.36,0,1.28,1.28,0,0,1,.34.07l.29.13a1.24,1.24,0,0,1,.23.17.42.42,0,0,1,.11.14.16.16,0,0,1,0,.12.3.3,0,0,1-.1.09.35.35,0,0,1-.2,0,.58.58,0,0,1-.21-.07.39.39,0,0,0,.1-.08.15.15,0,0,0,.06-.09.13.13,0,0,0,0-.1A.57.57,0,0,0,132.68,65.12Z"/><path class="cls-6" d="M139.39,61.1a.42.42,0,0,0,.2,0,.72.72,0,0,0,.25,0l.31-.09a2.06,2.06,0,0,0,.34-.16h-.1l-.11,0-.13-.05-.14-.07a.63.63,0,0,1-.19-.15.27.27,0,0,1,0-.34.87.87,0,0,1,.2-.16,1.27,1.27,0,0,1,.32-.13,1.14,1.14,0,0,1,.33-.05,1.84,1.84,0,0,1,.33,0,1.56,1.56,0,0,1,.33.14.6.6,0,0,1,.22.19.28.28,0,0,1,0,.23.61.61,0,0,1-.15.25,2.76,2.76,0,0,1-.37.27,2.81,2.81,0,0,1-.47.21,2.33,2.33,0,0,1-.49.12,1.91,1.91,0,0,1-.48,0,1.35,1.35,0,0,1-.44-.15A.86.86,0,0,1,139,61a.27.27,0,0,1-.08-.13.11.11,0,0,1,0-.1.24.24,0,0,1,.09-.08.25.25,0,0,1,.09,0h.13l.15,0a.51.51,0,0,1,.17.08l-.12.07-.08.09a.11.11,0,0,0,0,.08A.1.1,0,0,0,139.39,61.1Zm.89-.41a.19.19,0,0,0,.09,0l.11,0,.11,0h.1l.32-.21a.91.91,0,0,0,.17-.18.24.24,0,0,0,0-.13.14.14,0,0,0-.08-.09.41.41,0,0,0-.28,0,1.43,1.43,0,0,0-.41.17.6.6,0,0,0-.26.23C140.17,60.59,140.2,60.65,140.28,60.69Z"/><path class="cls-6" d="M149.37,55.71l-2.41.54.73.42a.3.3,0,0,0,.15,0,.28.28,0,0,0,.15,0l.16-.07.16.1-.59.33-1.32-.77.13-.08,2.6-.61Z"/><path class="cls-6" d="M157,51.56a.62.62,0,0,1-.19.07.71.71,0,0,1-.21,0h-.24l-.26,0a.38.38,0,0,1,0,.27.36.36,0,0,1-.2.21.63.63,0,0,1-.22.09,1.12,1.12,0,0,1-.27,0,1.24,1.24,0,0,1-.31-.05,1.42,1.42,0,0,1-.34-.15.84.84,0,0,1-.22-.17.38.38,0,0,1-.09-.16.29.29,0,0,1,0-.16.53.53,0,0,1,.16-.13l.17-.07.19,0h.22l.24,0a1.54,1.54,0,0,1-.09-.19.3.3,0,0,1,0-.16.18.18,0,0,1,.06-.13.49.49,0,0,1,.13-.1.86.86,0,0,1,.28-.11,1.06,1.06,0,0,1,.31,0,1.3,1.3,0,0,1,.33.07l.34.15a.91.91,0,0,1,.25.2.35.35,0,0,1,.1.19.19.19,0,0,1,0,.16A.51.51,0,0,1,157,51.56Zm-2,0-.1.07a.41.41,0,0,0,0,.09.28.28,0,0,0,0,.09.24.24,0,0,0,.09.08.25.25,0,0,0,.12,0h.14l.14,0,.14-.06a.53.53,0,0,0,.11-.09.36.36,0,0,0,0-.09.44.44,0,0,0,0-.1s0-.07-.06-.11h-.29l-.13,0Zm1.66-.66-.16-.06h-.17a.51.51,0,0,0-.17,0,.44.44,0,0,0-.16.06.45.45,0,0,0-.1.09.17.17,0,0,0,0,.1.27.27,0,0,0,0,.12l.09.16h.16a.85.85,0,0,0,.16,0l.15,0,.15-.07.12-.09a.18.18,0,0,0,.05-.11.13.13,0,0,0,0-.1A.45.45,0,0,0,156.71,50.94Z"/><path class="cls-6" d="M97.28,8.72a.25.25,0,0,0,.11,0h.12l.13,0,.12-.06a.56.56,0,0,1,.24.19c0,.05,0,.09,0,.13a.37.37,0,0,1-.18,0,.75.75,0,0,1-.21,0,1.27,1.27,0,0,1-.23-.08l-.24-.12a1.14,1.14,0,0,1-.23-.16.26.26,0,0,1-.1-.15.17.17,0,0,1,0-.15A.59.59,0,0,1,97,8.21l.7-.41.09-.06s0,0,0,0a.17.17,0,0,0,0-.05l-.07,0h0l.15-.09.51.3-.13.14,0,0h.33l.15,0,.14.07a.47.47,0,0,1,.15.12.21.21,0,0,1,0,.12.19.19,0,0,1,0,.14.63.63,0,0,1-.17.13.74.74,0,0,1-.48.1,1.38,1.38,0,0,1-.59-.2l-.23-.12-.16.08-.12.08a.23.23,0,0,0-.07.07.07.07,0,0,0,0,.07A.14.14,0,0,0,97.28,8.72Zm1.18-.39c.08-.05.13-.09.14-.13s0-.07-.06-.1l-.13,0h-.15l-.17,0-.16.07-.21.12.13.07L98,8.4a.39.39,0,0,0,.15,0l.15,0Z"/><path class="cls-6" d="M105.41,12.72a1.85,1.85,0,0,1,.38-.18,1.55,1.55,0,0,1,.35-.07,1.13,1.13,0,0,1,.32,0,1,1,0,0,1,.29.11l.13.1a.24.24,0,0,1,.06.09.2.2,0,0,1,0,.1.38.38,0,0,1,0,.1h0l.29-.08.53.31-.15.08h0l-.08,0-.1,0h-.11l-.11,0-1.43.83a.18.18,0,0,0-.08.06.13.13,0,0,0,0,.06.13.13,0,0,0,0,.06l.07,0h0l-.14.09-.65-.38.47-.27.1-.06.12-.05.13-.07h0a.92.92,0,0,1-.33,0,1,1,0,0,1-.31-.11.54.54,0,0,1-.19-.17.2.2,0,0,1,0-.18.42.42,0,0,1,.13-.2A1.47,1.47,0,0,1,105.41,12.72Zm.12.72a.29.29,0,0,0,.17.06.41.41,0,0,0,.19,0,1.19,1.19,0,0,0,.23-.07l.26-.14.23-.14a.79.79,0,0,0,.13-.13.17.17,0,0,0,0-.12.24.24,0,0,0-.1-.1.5.5,0,0,0-.35,0,1.71,1.71,0,0,0-.48.21,1.08,1.08,0,0,0-.36.28C105.42,13.32,105.44,13.39,105.53,13.44Z"/><path class="cls-6" d="M115.22,17.49a1,1,0,0,1,.24.19.27.27,0,0,1,.08.2.32.32,0,0,1-.09.22,1.24,1.24,0,0,1-.31.23,1.9,1.9,0,0,1-.42.19,1.81,1.81,0,0,1-.39.05,1.27,1.27,0,0,1-.34-.05,1.69,1.69,0,0,1-.31-.13,1,1,0,0,1-.21-.15.42.42,0,0,1-.11-.14.15.15,0,0,1,0-.11.23.23,0,0,1,.08-.09l.1,0h.14l.16,0a.92.92,0,0,1,.2.1.57.57,0,0,0-.13.08.36.36,0,0,0-.09.08.24.24,0,0,0,0,.08.11.11,0,0,0,.06.06.34.34,0,0,0,.14,0,.57.57,0,0,0,.18,0,1,1,0,0,0,.24-.08,1.85,1.85,0,0,0,.31-.16.79.79,0,0,0,.34-.28c0-.08,0-.16-.11-.23l-.15-.07-.16,0-.16,0-.16,0a.13.13,0,0,1,0-.06.12.12,0,0,1,.05-.05l.14-.05h.2l.24.06Z"/><path class="cls-6" d="M122.61,22.19l.09-.07a.06.06,0,0,0,0-.06s0,0,0-.06l-.08-.06h0l.14-.09.54.31-.14.17,0,0,.17,0h.17l.16,0,.17.07a.65.65,0,0,1,.19.17.2.2,0,0,1,0,.18.36.36,0,0,1-.12.2,1.66,1.66,0,0,1-.31.22,1.85,1.85,0,0,1-.38.18,1.59,1.59,0,0,1-.35.08,1.67,1.67,0,0,1-.32,0,.88.88,0,0,1-.28-.12.33.33,0,0,1-.13-.09l-.07-.09a.21.21,0,0,1,0-.18h0l-.13.09-.05,0-.06,0,0,0h0l-.15.09a.19.19,0,0,0-.08.07,0,0,0,0,0,0,.05l0,.06.08,0h0l-.14.09-.67-.39Zm.87.31a.49.49,0,0,0-.17-.06h-.19a1.19,1.19,0,0,0-.22.08l-.27.13-.22.15a.6.6,0,0,0-.14.13.15.15,0,0,0,0,.11.33.33,0,0,0,.1.11.42.42,0,0,0,.16,0,.62.62,0,0,0,.19,0l.22-.08.26-.13a1.08,1.08,0,0,0,.36-.28C123.6,22.62,123.58,22.56,123.48,22.5Z"/><path class="cls-6" d="M131.87,27.11a1,1,0,0,1,.26.21.37.37,0,0,1,.08.21.4.4,0,0,1-.1.22,1.36,1.36,0,0,1-.28.21,1.65,1.65,0,0,1-.39.17,1.59,1.59,0,0,1-.38.07,1.47,1.47,0,0,1-.36,0,2,2,0,0,1-.34-.14.75.75,0,0,1-.23-.19.29.29,0,0,1-.08-.19.31.31,0,0,1,.08-.19.69.69,0,0,1,.24-.19l.15-.08.9.52a1.45,1.45,0,0,0,.21-.15.33.33,0,0,0,.09-.14.13.13,0,0,0,0-.12.36.36,0,0,0-.13-.11l-.15-.07a.8.8,0,0,0-.15,0H131s0-.08.06-.12a.33.33,0,0,1,.14,0,.67.67,0,0,1,.2,0l.23.06A1.32,1.32,0,0,1,131.87,27.11Zm-1.34.8a.48.48,0,0,0,.3,0,1.38,1.38,0,0,0,.41-.15l-.48-.28a.83.83,0,0,0-.17.12l-.11.1a.15.15,0,0,0,0,.09A.13.13,0,0,0,130.53,27.91Z"/><path class="cls-6" d="M140.84,32.32l-.14.08-.07,0-.07,0-.08,0h-.11a.3.3,0,0,0-.11,0l-1,.56.24.14-.19.11-.24-.14-.11,0a1.23,1.23,0,0,1-.26.12,1.26,1.26,0,0,1-.27,0,.92.92,0,0,1-.28-.05.81.81,0,0,1-.29-.12,1.51,1.51,0,0,1-.21-.14.33.33,0,0,1-.1-.11.08.08,0,0,1,0-.08.1.1,0,0,1,.06-.05.27.27,0,0,1,.22,0,.84.84,0,0,1,.3.12l-.07,0-.05.06a.07.07,0,0,0,0,.06s0,0,0,.05l.08,0h.1l.12,0,.16-.08.15-.09-.38-.22.19-.11.38.22,1-.55a.22.22,0,0,0,.07-.07.13.13,0,0,0,0-.06l0,0-.06,0-.13-.08.15-.08Z"/><path class="cls-6" d="M146.36,37.15l.07,0h.08l.1,0a.34.34,0,0,1,.11,0l-.05,0s0,0,0,0,0,0,0,0l0,0,.06,0h.06a.17.17,0,0,1,0-.07.35.35,0,0,1,0-.08l.06-.07.09-.06a.92.92,0,0,1,.23-.09,1,1,0,0,1,.25,0,1,1,0,0,1,.28,0l.29.12,0,0,0,0,0,0,0,0h.18l.06,0s0,0,0-.06a.15.15,0,0,0-.07-.07l-.34-.19a1.41,1.41,0,0,1-.21-.16.25.25,0,0,1-.08-.14.15.15,0,0,1,0-.13.36.36,0,0,1,.15-.12,1,1,0,0,1,.28-.11,1.06,1.06,0,0,1,.31,0,1.55,1.55,0,0,1,.36.08,2.87,2.87,0,0,1,.4.19,1,1,0,0,1,.39.34c0,.1,0,.18-.13.25a.51.51,0,0,1-.32.08.92.92,0,0,1-.37-.11l0,.07a.14.14,0,0,1,0,.06.09.09,0,0,1,0,.07.14.14,0,0,1-.07.06l-.1,0h-.12a.75.75,0,0,1-.15,0l-.16,0a.31.31,0,0,1,0,.1.17.17,0,0,1,0,.1.23.23,0,0,1-.07.11l-.13.1a.93.93,0,0,1-.51.13,1.2,1.2,0,0,1-.58-.17,1.11,1.11,0,0,1-.16-.12,1.23,1.23,0,0,1-.08-.12h-.22l-.12,0-.11,0-.07-.06a.09.09,0,0,1,0,0,.07.07,0,0,1,0,0S146.34,37.17,146.36,37.15Zm1.45.35.12-.08.06-.08a.06.06,0,0,0,0-.07.15.15,0,0,0-.07-.07l-.11,0h-.13a.38.38,0,0,0-.13,0l-.14.07-.13.09a.2.2,0,0,0-.08.08.09.09,0,0,0,0,.07.15.15,0,0,0,.07.07l.12,0h.13l.14,0Zm1.46-.63c.07,0,.1-.09.08-.15a.4.4,0,0,0-.19-.17,1.11,1.11,0,0,0-.42-.16.49.49,0,0,0-.32,0c-.06,0-.08.07-.06.1s0,.08.13.12l.32.19.09,0a.23.23,0,0,0,.11,0h.13Z"/><path class="cls-6" d="M157.57,42l-.91.53-.15.1a.32.32,0,0,0-.08.09.11.11,0,0,0,0,.08.19.19,0,0,0,.08.07.33.33,0,0,0,.15,0h.17l.17-.06a.76.76,0,0,0,.18-.09l.52-.3a.18.18,0,0,0,.08-.06.07.07,0,0,0,0-.06l0-.05-.08,0h0l.15-.09.85.49-.14.09h0l-.09-.05-.1,0h-.1l-.12,0-1.44.83-.07.07a0,0,0,0,0,0,.05l0,.06.06,0h0l-.15.09-.65-.38.46-.26.12-.06.12-.07.13-.06h0a.76.76,0,0,1-.21,0h-.16l-.14-.05-.13-.07a.43.43,0,0,1-.16-.13.16.16,0,0,1-.05-.14.29.29,0,0,1,.07-.15,1,1,0,0,1,.21-.15l.64-.37.09-.07s0,0,0,0l0-.05-.08,0h0l.15-.08Z"/><polygon class="cls-4" points="89.53 101.03 129.5 77.95 129.5 70.13 89.53 93.21 89.53 101.03"/><polygon class="cls-8" points="89.53 101.03 9.08 54.58 9.08 46.76 89.53 93.21 89.53 101.03"/><polygon class="cls-5" points="129.5 70.13 89.53 93.21 9.08 46.76 49.05 23.68 54.11 26.6 129.5 70.13"/><polygon class="cls-6" points="124.45 67.21 89.5 87.39 19.16 46.78 54.11 26.6 124.45 67.21"/><polygon class="cls-5" points="123.31 66.56 89.49 86.08 21.43 46.79 55.25 27.26 123.31 66.56"/><polygon class="cls-6" points="114.25 61.33 122.58 66.14 114.31 70.91 105.98 66.11 114.25 61.33"/><polygon class="cls-5" points="105.93 56.52 114.25 61.33 105.98 66.11 97.66 61.3 105.93 56.52"/><polygon class="cls-6" points="97.6 51.72 105.93 56.52 97.66 61.3 89.33 56.49 97.6 51.72"/><polygon class="cls-5" points="89.28 46.91 97.6 51.72 89.33 56.49 81 51.69 89.28 46.91"/><polygon class="cls-6" points="80.95 42.1 89.28 46.91 81 51.69 72.68 46.88 80.95 42.1"/><polygon class="cls-5" points="72.63 37.3 80.95 42.1 72.68 46.88 64.35 42.07 72.63 37.3"/><polygon class="cls-6" points="64.3 32.49 72.63 37.3 64.35 42.07 56.03 37.27 64.3 32.49"/><polygon class="cls-5" points="55.98 27.68 64.3 32.49 56.03 37.27 47.7 32.46 55.98 27.68"/><polygon class="cls-6" points="47.75 42.04 39.43 37.23 47.7 32.46 56.03 37.27 47.75 42.04"/><polygon class="cls-5" points="56.08 46.85 47.75 42.04 56.03 37.27 64.35 42.07 56.08 46.85"/><polygon class="cls-6" points="64.41 51.66 56.08 46.85 64.35 42.07 72.68 46.88 64.41 51.66"/><polygon class="cls-5" points="72.73 56.46 64.41 51.66 72.68 46.88 81 51.69 72.73 56.46"/><polygon class="cls-6" points="81.06 61.27 72.73 56.46 81 51.69 89.33 56.49 81.06 61.27"/><polygon class="cls-5" points="89.38 66.08 81.06 61.27 89.33 56.49 97.66 61.3 89.38 66.08"/><polygon class="cls-6" points="97.71 70.88 89.38 66.08 97.66 61.3 105.98 66.11 97.71 70.88"/><polygon class="cls-5" points="106.03 75.69 97.71 70.88 105.98 66.11 114.31 70.91 106.03 75.69"/><polygon class="cls-6" points="97.71 70.88 106.03 75.69 97.76 80.47 89.43 75.66 97.71 70.88"/><polygon class="cls-5" points="89.38 66.08 97.71 70.88 89.43 75.66 81.11 70.85 89.38 66.08"/><polygon class="cls-6" points="81.06 61.27 89.38 66.08 81.11 70.85 72.78 66.05 81.06 61.27"/><polygon class="cls-5" points="72.73 56.46 81.06 61.27 72.78 66.05 64.46 61.24 72.73 56.46"/><polygon class="cls-6" points="64.41 51.66 72.73 56.46 64.46 61.24 56.13 56.43 64.41 51.66"/><polygon class="cls-5" points="56.08 46.85 64.41 51.66 56.13 56.43 47.81 51.63 56.08 46.85"/><polygon class="cls-6" points="47.75 42.04 56.08 46.85 47.81 51.63 39.48 46.82 47.75 42.04"/><polygon class="cls-5" points="39.43 37.23 47.75 42.04 39.48 46.82 31.16 42.01 39.43 37.23"/><polygon class="cls-6" points="31.21 51.59 22.88 46.79 31.16 42.01 39.48 46.82 31.21 51.59"/><polygon class="cls-5" points="39.53 56.4 31.21 51.59 39.48 46.82 47.81 51.63 39.53 56.4"/><polygon class="cls-6" points="47.86 61.21 39.53 56.4 47.81 51.63 56.13 56.43 47.86 61.21"/><polygon class="cls-5" points="56.18 66.02 47.86 61.21 56.13 56.43 64.46 61.24 56.18 66.02"/><polygon class="cls-6" points="64.51 70.82 56.18 66.02 64.46 61.24 72.78 66.05 64.51 70.82"/><polygon class="cls-5" points="72.83 75.63 64.51 70.82 72.78 66.05 81.11 70.85 72.83 75.63"/><polygon class="cls-6" points="81.16 80.44 72.83 75.63 81.11 70.85 89.43 75.66 81.16 80.44"/><polygon class="cls-5" points="89.49 85.24 81.16 80.44 89.43 75.66 97.76 80.47 89.49 85.24"/><polygon class="cls-7" points="129.5 70.13 89.53 93.21 89.5 87.39 124.45 67.21 129.5 70.13"/><polygon class="cls-7" points="54.11 26.6 19.16 46.78 9.08 46.76 49.05 23.68 54.11 26.6"/><path class="cls-6" d="M23.67,51.15l-.11,0h-.12l-.12,0-.13.07A.75.75,0,0,1,23,51c0-.05,0-.1.05-.13a.34.34,0,0,1,.17,0,.5.5,0,0,1,.21,0,.88.88,0,0,1,.23.07l.24.12a1.27,1.27,0,0,1,.23.16.32.32,0,0,1,.1.16.15.15,0,0,1,0,.14.71.71,0,0,1-.18.15l-.71.41-.08.05a.09.09,0,0,0,0,.06s0,0,0,0a.1.1,0,0,0,.06.05h0l-.14.08-.52-.29.13-.15h-.2l-.16,0a.7.7,0,0,1-.14,0l-.15-.07-.15-.12a.21.21,0,0,1-.05-.13.2.2,0,0,1,.05-.13.43.43,0,0,1,.16-.13.76.76,0,0,1,.49-.11,1.58,1.58,0,0,1,.58.21l.24.12.15-.09.12-.07.08-.07a.06.06,0,0,0,0-.07Zm-1.18.4a.45.45,0,0,0-.14.12.1.1,0,0,0,.06.11l.13,0a.85.85,0,0,0,.16,0,.45.45,0,0,0,.16,0l.17-.07.2-.12-.13-.07-.17-.07a.38.38,0,0,0-.15,0l-.14,0Z"/><path class="cls-6" d="M32.2,56.77a2.67,2.67,0,0,1-.39.18,1.55,1.55,0,0,1-.35.07,1.06,1.06,0,0,1-.31,0,.92.92,0,0,1-.29-.11l-.13-.1a.23.23,0,0,1-.07-.1.14.14,0,0,1,0-.09.3.3,0,0,1,0-.1h0l-.29.08-.53-.31.15-.08h0l.09,0,.09,0h.11l.12,0,1.42-.83a.18.18,0,0,0,.08-.06.07.07,0,0,0,0-.06l0-.06-.08,0h0l.14-.08.66.38-.48.27-.1.06-.12.05-.13.07h0a.86.86,0,0,1,.32,0,.75.75,0,0,1,.51.28.23.23,0,0,1,0,.18.46.46,0,0,1-.14.2A1.67,1.67,0,0,1,32.2,56.77Zm-.13-.72A.27.27,0,0,0,31.9,56a.41.41,0,0,0-.19,0,1.11,1.11,0,0,0-.22.07,2.26,2.26,0,0,0-.26.14,2,2,0,0,0-.23.14.52.52,0,0,0-.13.13.14.14,0,0,0,0,.12.27.27,0,0,0,.11.1.47.47,0,0,0,.34,0,1.59,1.59,0,0,0,.48-.21,1.08,1.08,0,0,0,.36-.28C32.18,56.16,32.16,56.1,32.07,56.05Z"/><path class="cls-6" d="M39.09,61.64a1.25,1.25,0,0,1-.24-.18.34.34,0,0,1-.08-.2.37.37,0,0,1,.09-.22,1,1,0,0,1,.31-.23,1.9,1.9,0,0,1,.42-.19,1.37,1.37,0,0,1,.39-.06,1,1,0,0,1,.34.06,1.2,1.2,0,0,1,.31.13,1,1,0,0,1,.21.15A.4.4,0,0,1,41,61a.17.17,0,0,1,0,.12.2.2,0,0,1-.08.08l-.1,0a.29.29,0,0,1-.13,0l-.17,0-.19-.09.12-.08a.38.38,0,0,0,.09-.09.1.1,0,0,0,0-.07.1.1,0,0,0-.06-.07.33.33,0,0,0-.14,0,.54.54,0,0,0-.18,0l-.24.08-.31.16a.79.79,0,0,0-.34.29c0,.08,0,.16.11.22l.15.07.16,0H40a.07.07,0,0,1,0,.06l-.05.05-.14,0h-.2l-.23,0A1.38,1.38,0,0,1,39.09,61.64Z"/><path class="cls-6" d="M48.29,66.53a.19.19,0,0,0-.08.07.13.13,0,0,0,0,.06l0,.06.08,0h0l-.15.08-.53-.31.13-.17h0l-.17,0h-.17l-.17,0-.16-.08a.56.56,0,0,1-.2-.16.24.24,0,0,1,0-.18.48.48,0,0,1,.13-.21,1.18,1.18,0,0,1,.31-.21,1.85,1.85,0,0,1,.38-.18,1.59,1.59,0,0,1,.35-.08,1.13,1.13,0,0,1,.32,0,1,1,0,0,1,.28.11l.13.09a.61.61,0,0,1,.07.1.29.29,0,0,1,0,.09.32.32,0,0,1,0,.09h0l.14-.09.05,0,0,0,.05,0,0,0,.15-.09a.14.14,0,0,0,.07-.06.07.07,0,0,0,0-.06l0,0-.08,0,0,0,.15-.08.67.39Zm-.87-.32a.64.64,0,0,0,.18.06.41.41,0,0,0,.19,0,1.11,1.11,0,0,0,.22-.07,2.26,2.26,0,0,0,.26-.14l.23-.14a.52.52,0,0,0,.13-.13.11.11,0,0,0,0-.12.19.19,0,0,0-.1-.1.33.33,0,0,0-.15,0l-.19,0a1.27,1.27,0,0,0-.23.08,2,2,0,0,0-.25.13,1.08,1.08,0,0,0-.36.28C47.31,66.09,47.33,66.16,47.42,66.21Z"/><path class="cls-6" d="M55.69,71.22a.82.82,0,0,1-.26-.21.31.31,0,0,1-.08-.21.43.43,0,0,1,.1-.22,1.36,1.36,0,0,1,.28-.21,1.65,1.65,0,0,1,.39-.17,1.19,1.19,0,0,1,.37-.06.92.92,0,0,1,.37,0,1.11,1.11,0,0,1,.34.14.62.62,0,0,1,.23.18.29.29,0,0,1,.08.19.31.31,0,0,1-.08.19.74.74,0,0,1-.25.19l-.14.08-.91-.52a1.45,1.45,0,0,0-.2.15.53.53,0,0,0-.1.14.16.16,0,0,0,0,.12.36.36,0,0,0,.13.11.52.52,0,0,0,.15.07.8.8,0,0,0,.15,0h.31s0,.08-.06.12a.33.33,0,0,1-.14,0,.67.67,0,0,1-.2,0L56,71.35A1.11,1.11,0,0,1,55.69,71.22Zm1.34-.8a.48.48,0,0,0-.3,0,1.29,1.29,0,0,0-.41.15l.48.28.17-.12a.31.31,0,0,0,.1-.1.11.11,0,0,0,0-.09A.13.13,0,0,0,57,70.42Z"/><path class="cls-6" d="M63.37,75.62l.14-.08.06,0a.2.2,0,0,0,.08,0l.08,0h.11a.34.34,0,0,0,.11,0l1-.55-.24-.14.19-.11.24.14.11-.06a1.1,1.1,0,0,1,.53-.15.9.9,0,0,1,.28,0,1.78,1.78,0,0,1,.29.12l.21.14a.47.47,0,0,1,.1.11.08.08,0,0,1,0,.08.17.17,0,0,1-.06.06.31.31,0,0,1-.22,0,1.54,1.54,0,0,1-.3-.12l.07,0,0-.06a.09.09,0,0,0,0,0,.07.07,0,0,0,0-.05s0,0-.08,0H66l-.12,0-.16.09-.15.08.38.22-.19.11-.38-.22-1,.56a.14.14,0,0,0-.07.06.18.18,0,0,0,0,.06.1.1,0,0,0,0,0l.06,0,.13.07-.15.09Z"/><path class="cls-6" d="M74.5,80.4a.09.09,0,0,1-.07,0,.11.11,0,0,1-.08,0h-.1l-.1-.05,0,0s0,0,0,0,0,0,0,0l0,0-.06,0H74a.17.17,0,0,1,0,.07l0,.07s0,0-.06.08l-.09.06a.92.92,0,0,1-.23.09,1,1,0,0,1-.25,0,1.45,1.45,0,0,1-.28,0,1.17,1.17,0,0,1-.28-.13l0,0,0,0,0,0,0,0h-.18l-.06,0s0,0,0,.06l.07.07.34.19a1,1,0,0,1,.21.16.19.19,0,0,1,.08.14.16.16,0,0,1,0,.13.49.49,0,0,1-.15.12.86.86,0,0,1-.28.11,1.05,1.05,0,0,1-.31,0,1.19,1.19,0,0,1-.36-.09,1.7,1.7,0,0,1-.39-.18,1,1,0,0,1-.4-.34c0-.1,0-.18.13-.26a.6.6,0,0,1,.32-.07,1,1,0,0,1,.38.1.21.21,0,0,1,0-.06.14.14,0,0,1,0-.07s0,0,0-.06a.11.11,0,0,1,.07-.06l.1,0,.13,0h.14l.16,0a.31.31,0,0,1,0-.1.17.17,0,0,1,0-.1.34.34,0,0,1,.07-.11.49.49,0,0,1,.13-.1.94.94,0,0,1,.52-.13,1.2,1.2,0,0,1,.57.17,1.11,1.11,0,0,1,.16.12.28.28,0,0,1,.08.12h.22l.12,0,.11,0a.22.22,0,0,1,.07.06s0,0,0,0a.07.07,0,0,1,0,0A.1.1,0,0,1,74.5,80.4Zm-2.91.29c-.07,0-.1.09-.08.15a.4.4,0,0,0,.19.17,1.11,1.11,0,0,0,.42.16.49.49,0,0,0,.32,0c.06,0,.08-.07.07-.11a.35.35,0,0,0-.14-.11l-.32-.19-.09,0a.23.23,0,0,0-.11,0,.24.24,0,0,0-.12,0A.39.39,0,0,0,71.59,80.69Zm1.47-.63-.13.08a.21.21,0,0,0-.06.08.09.09,0,0,0,0,.07l.07.07.11,0h.13l.13,0,.14-.07.13-.09.08-.08a.09.09,0,0,0,0-.07.12.12,0,0,0-.07-.07.34.34,0,0,0-.12,0h-.13l-.14,0Z"/><path class="cls-6" d="M81.8,86.27l.91-.53a.85.85,0,0,0,.14-.1.22.22,0,0,0,.08-.09.06.06,0,0,0,0-.08.15.15,0,0,0-.07-.07.44.44,0,0,0-.15-.05h-.17a1.27,1.27,0,0,0-.18.06.56.56,0,0,0-.17.09l-.53.3a.28.28,0,0,0-.08.06.07.07,0,0,0,0,.06s0,0,0,0l.07,0h0l-.15.09-.85-.49.15-.09h0l.1,0,.09,0h.1l.12,0,1.44-.83s.07,0,.07-.07a.11.11,0,0,0,0,0l0-.06-.06,0h0l.15-.09.65.38-.45.26-.12.06-.12.07-.14.06h0a.77.77,0,0,1,.21,0H83l.14,0,.13.07a.53.53,0,0,1,.16.13.24.24,0,0,1,0,.14.32.32,0,0,1-.08.15,1,1,0,0,1-.21.15l-.64.37-.09.07s0,0,0,.05,0,0,0,0l.07,0h0l-.14.08Z"/><path class="cls-6" d="M21.92,42.37l.14-.09.23.13a.11.11,0,0,0,.07,0h.15l.1,0,1.38-.8h-.54l-.11,0s0,0,0,0a0,0,0,0,1,0-.06.09.09,0,0,1,0-.05.22.22,0,0,1,.07-.06l.11,0,.14,0,.17,0,.22,0,.33,0,.31.17-1.65,1-.07,0s0,0,0,0a.09.09,0,0,0,0,.05l.06,0,.23.13-.15.09Z"/><path class="cls-6" d="M32.74,37.29l-.14.06-.17,0-.22,0h-1.7l.65.37a.6.6,0,0,0,.19.06.62.62,0,0,0,.23,0l.11,0,.16.09-.59.33L30,37.45l.28-.16H31.5l.34,0a1.33,1.33,0,0,0,.47-.18c.1-.06.16-.11.17-.16a.14.14,0,0,0-.08-.14.44.44,0,0,0-.32,0,1.23,1.23,0,0,0-.41.17.48.48,0,0,1-.13-.09.18.18,0,0,1-.07-.09.1.1,0,0,1,0-.09.3.3,0,0,1,.1-.09.48.48,0,0,1,.18-.06H32l.27.06a2.12,2.12,0,0,1,.54.31.48.48,0,0,1,.11.17.2.2,0,0,1,0,.15A.41.41,0,0,1,32.74,37.29Z"/><path class="cls-6" d="M38.94,33.12A1.37,1.37,0,0,1,38.7,33a.49.49,0,0,1-.12-.15.24.24,0,0,1,0-.12.2.2,0,0,1,.09-.09.27.27,0,0,1,.11-.05h.12l.12,0,.1.05a.42.42,0,0,0-.12.1.19.19,0,0,0,0,.1.19.19,0,0,0,0,.1.27.27,0,0,0,.11.1l.15.06a.47.47,0,0,0,.17,0,.69.69,0,0,0,.2,0,.77.77,0,0,0,.23-.1.4.4,0,0,0,.12-.1.2.2,0,0,0,0-.11.34.34,0,0,0-.06-.12.75.75,0,0,0-.16-.13l-.17-.09.17-.1.18.1a.64.64,0,0,0,.19.08.61.61,0,0,0,.19,0,.65.65,0,0,0,.19,0,.64.64,0,0,0,.19-.08c.1-.06.16-.11.18-.17s0-.1-.09-.15a.43.43,0,0,0-.16-.05l-.17,0-.17.06-.17.08A.41.41,0,0,1,40,32c0-.05,0-.11.09-.16a.48.48,0,0,1,.18-.05h.22a.9.9,0,0,1,.27.07A2.38,2.38,0,0,1,41,32a1.91,1.91,0,0,1,.24.17.37.37,0,0,1,.11.17.18.18,0,0,1,0,.16.33.33,0,0,1-.15.13.5.5,0,0,1-.2.08.85.85,0,0,1-.23,0h-.24l-.25-.05a.74.74,0,0,1,.13.12.51.51,0,0,1,.07.15.21.21,0,0,1,0,.15s-.08.09-.16.14a1.09,1.09,0,0,1-.34.13,1.38,1.38,0,0,1-.35,0,1.89,1.89,0,0,1-.34-.09A1.73,1.73,0,0,1,38.94,33.12Z"/><path class="cls-6" d="M48.14,28.25l-.17.1-.09.07a.13.13,0,0,0,0,.06.13.13,0,0,0,.05.06l.08.06,0,0-.14.08-1-.56.15-.08.08,0,.09,0,.1,0h.11l.12-.05.17-.1L47,27.58l.17-.1,2.08-.29.38.22-1.27.74.29.17-.18.1Zm.26-.61.26-.15.29-.15-.14,0-.18,0-.18,0h-.12l-1,.14.57.33Z"/><path class="cls-6" d="M98.93,85l-.15.08-.23-.13-.07,0h-.07l-.08,0-.09,0-1.39.79h.4l.14,0,.11,0a.1.1,0,0,1,0,0,.09.09,0,0,1,0,.05l0,.06-.07.06-.12,0-.14,0-.17,0-.21,0-.34,0-.31-.18,1.65-1,.07,0,0-.05a.06.06,0,0,0,0,0s0,0-.06,0l-.22-.13.14-.08Z"/><path class="cls-6" d="M104.51,80.44a.61.61,0,0,1,.14-.07l.17,0a.78.78,0,0,1,.22,0l.3,0h1.4l-.65-.38a.41.41,0,0,0-.19,0,.46.46,0,0,0-.23,0l-.11,0-.16-.09.59-.33,1.31.76-.28.17h-1.27l-.33,0-.26.07-.22.11c-.1.06-.16.12-.17.17s0,.09.09.13a.41.41,0,0,0,.31,0,1.37,1.37,0,0,0,.42-.17l.13.09a.21.21,0,0,1,.06.1.1.1,0,0,1,0,.09.29.29,0,0,1-.1.08.48.48,0,0,1-.18.06h-.23a1,1,0,0,1-.28-.07,2.38,2.38,0,0,1-.29-.13,1.08,1.08,0,0,1-.25-.18.38.38,0,0,1-.1-.17.16.16,0,0,1,0-.15A.39.39,0,0,1,104.51,80.44Z"/><path class="cls-6" d="M115.2,75.24a1.25,1.25,0,0,1,.24.18.32.32,0,0,1,.11.14.2.2,0,0,1,0,.13.3.3,0,0,1-.1.09l-.11,0h-.12l-.11,0-.11,0a.5.5,0,0,0,.13-.11.15.15,0,0,0,0-.2.41.41,0,0,0-.12-.09.61.61,0,0,0-.14-.07l-.18,0-.2,0-.22.09a.63.63,0,0,0-.12.1.14.14,0,0,0,0,.12.17.17,0,0,0,.06.12.55.55,0,0,0,.16.12l.17.1-.17.1-.19-.11a.67.67,0,0,0-.18-.07.62.62,0,0,0-.19,0l-.2,0-.18.08a.42.42,0,0,0-.18.17q0,.09.09.15a.3.3,0,0,0,.15,0h.17l.18-.06.16-.09c.12.07.19.13.21.19s0,.11-.09.16a.48.48,0,0,1-.18.06.81.81,0,0,1-.22,0,1.34,1.34,0,0,1-.27-.07,1.92,1.92,0,0,1-.29-.14,1.24,1.24,0,0,1-.24-.17.44.44,0,0,1-.12-.17.2.2,0,0,1,0-.15.31.31,0,0,1,.14-.14,1.31,1.31,0,0,1,.21-.08.85.85,0,0,1,.23,0,1,1,0,0,1,.24,0l.25,0a.8.8,0,0,1-.13-.13.27.27,0,0,1-.07-.14.21.21,0,0,1,0-.15.29.29,0,0,1,.15-.14.93.93,0,0,1,.35-.13,1,1,0,0,1,.35,0,1.3,1.3,0,0,1,.34.08Z"/><path class="cls-6" d="M122.24,70.38l.17-.1a.22.22,0,0,0,.09-.07.13.13,0,0,0,0-.06.13.13,0,0,0-.05-.06l-.08,0,0,0,.14-.09,1,.57-.15.08-.08,0-.09-.05-.1,0h-.11a.31.31,0,0,0-.12,0l-.17.1.77.44-.17.1-2.08.29-.38-.23,1.27-.73-.29-.17.18-.11ZM122,71l-.26.15-.29.14.14,0,.18,0,.17,0,.13,0,1-.14-.57-.33Z"/></g></g></g></svg>