<svg xmlns="http://www.w3.org/2000/svg" viewBox="0 0 161.44 101.03"><defs><style>.cls-1{fill:#6e4831;}.cls-2{fill:#bf9c7c;}.cls-3{fill:#ebecd0;}.cls-4{fill:#8c6148;}.cls-5{fill:#e0d4a4;}.cls-6{fill:#875f41;}</style></defs><g id="Capa_2" data-name="Capa 2"><g id="layer"><polygon class="cls-1" points="121.47 77.34 41.02 30.9 41.02 23.08 121.47 69.53 121.47 77.34"/><polygon class="cls-2" points="121.47 77.34 161.44 54.27 161.44 46.45 121.47 69.53 121.47 77.34"/><polygon class="cls-3" points="161.44 46.45 121.47 69.52 41.02 23.08 81 0 161.44 46.45"/><polygon class="cls-4" points="151.37 46.43 116.42 66.61 46.08 26 81.03 5.82 151.37 46.43"/><polygon class="cls-3" points="149.1 46.42 115.28 65.95 47.22 26.65 81.03 7.13 149.1 46.42"/><polygon class="cls-4" points="139.32 41.62 147.64 46.42 139.37 51.2 131.04 46.39 139.32 41.62"/><polygon class="cls-3" points="130.99 36.81 139.32 41.62 131.04 46.39 122.72 41.59 130.99 36.81"/><polygon class="cls-4" points="122.67 32 130.99 36.81 122.72 41.59 114.39 36.78 122.67 32"/><polygon class="cls-3" points="114.34 27.2 122.67 32 114.39 36.78 106.07 31.97 114.34 27.2"/><polygon class="cls-4" points="106.02 22.39 114.34 27.2 106.07 31.97 97.74 27.16 106.02 22.39"/><polygon class="cls-3" points="97.69 17.58 106.02 22.39 97.74 27.16 89.42 22.36 97.69 17.58"/><polygon class="cls-4" points="89.36 12.77 97.69 17.58 89.42 22.36 81.09 17.55 89.36 12.77"/><polygon class="cls-3" points="81.04 7.97 89.36 12.77 81.09 17.55 72.77 12.74 81.04 7.97"/><polygon class="cls-4" points="72.82 22.33 64.49 17.52 72.77 12.74 81.09 17.55 72.82 22.33"/><polygon class="cls-3" points="81.14 27.14 72.82 22.33 81.09 17.55 89.42 22.36 81.14 27.14"/><polygon class="cls-4" points="89.47 31.94 81.14 27.14 89.42 22.36 97.74 27.16 89.47 31.94"/><polygon class="cls-3" points="97.8 36.75 89.47 31.94 97.74 27.16 106.07 31.97 97.8 36.75"/><polygon class="cls-4" points="106.12 41.55 97.8 36.75 106.07 31.97 114.39 36.78 106.12 41.55"/><polygon class="cls-3" points="114.45 46.36 106.12 41.55 114.39 36.78 122.72 41.59 114.45 46.36"/><polygon class="cls-4" points="122.77 51.17 114.45 46.36 122.72 41.59 131.04 46.39 122.77 51.17"/><polygon class="cls-3" points="131.1 55.98 122.77 51.17 131.04 46.39 139.37 51.2 131.1 55.98"/><polygon class="cls-4" points="122.77 51.17 131.1 55.98 122.82 60.75 114.5 55.95 122.77 51.17"/><polygon class="cls-3" points="114.45 46.36 122.77 51.17 114.5 55.95 106.17 51.14 114.45 46.36"/><polygon class="cls-4" points="106.12 41.55 114.45 46.36 106.17 51.14 97.85 46.33 106.12 41.55"/><polygon class="cls-3" points="97.8 36.75 106.12 41.55 97.85 46.33 89.52 41.52 97.8 36.75"/><polygon class="cls-4" points="89.47 31.94 97.8 36.75 89.52 41.52 81.2 36.72 89.47 31.94"/><polygon class="cls-3" points="81.14 27.14 89.47 31.94 81.2 36.72 72.87 31.91 81.14 27.14"/><polygon class="cls-4" points="72.82 22.33 81.14 27.14 72.87 31.91 64.55 27.11 72.82 22.33"/><polygon class="cls-3" points="64.49 17.52 72.82 22.33 64.55 27.11 56.22 22.3 64.49 17.52"/><polygon class="cls-4" points="56.27 31.88 47.95 27.07 56.22 22.3 64.55 27.11 56.27 31.88"/><polygon class="cls-3" points="64.6 36.69 56.27 31.88 64.55 27.11 72.87 31.91 64.6 36.69"/><polygon class="cls-4" points="72.92 41.49 64.6 36.69 72.87 31.91 81.2 36.72 72.92 41.49"/><polygon class="cls-3" points="81.25 46.3 72.92 41.49 81.2 36.72 89.52 41.52 81.25 46.3"/><polygon class="cls-4" points="89.57 51.11 81.25 46.3 89.52 41.52 97.85 46.33 89.57 51.11"/><polygon class="cls-3" points="97.9 55.91 89.57 51.11 97.85 46.33 106.17 51.14 97.9 55.91"/><polygon class="cls-4" points="106.22 60.72 97.9 55.91 106.17 51.14 114.5 55.95 106.22 60.72"/><polygon class="cls-3" points="114.55 65.53 106.22 60.72 114.5 55.95 122.82 60.75 114.55 65.53"/><polygon class="cls-5" points="161.44 46.45 121.47 69.52 116.42 66.61 151.37 46.43 161.44 46.45"/><polygon class="cls-5" points="81.03 5.82 46.08 26 41.02 23.08 81 0 81.03 5.82"/><path class="cls-4" d="M47.65,22.74l.15.06.18,0a.76.76,0,0,0,.21,0,1.28,1.28,0,0,0,.24-.11q.21-.12.21-.24c0-.07-.06-.15-.18-.22l-.1,0-.09,0-.08,0-.08,0L48,22l1-.5,1,.61-.49.3-.16-.09.07-.07s0,0,0,0,0,0,0,0a0,0,0,0,0,0,0l0,0-.58-.33h0l-.06,0-.09,0-.11.05-.27.13.07,0,.09,0,.1,0,.09.05a1.35,1.35,0,0,1,.25.19.53.53,0,0,1,.12.2.29.29,0,0,1,0,.19.5.5,0,0,1-.2.17,1,1,0,0,1-.37.14,1.15,1.15,0,0,1-.37,0,1.28,1.28,0,0,1-.34-.07,1.82,1.82,0,0,1-.28-.13,1.24,1.24,0,0,1-.24-.17.37.37,0,0,1-.1-.14.17.17,0,0,1,0-.12.38.38,0,0,1,.09-.09.41.41,0,0,1,.21-.05.58.58,0,0,1,.21.07l-.11.08a.2.2,0,0,0,0,.09.13.13,0,0,0,0,.1S47.59,22.7,47.65,22.74Z"/><path class="cls-4" d="M58.21,17.07A.42.42,0,0,0,58,17a1.17,1.17,0,0,0-.26,0l-.3.09a2.14,2.14,0,0,0-.35.16h.1l.12,0,.13.05.14.07a.62.62,0,0,1,.19.16.27.27,0,0,1,.06.16.25.25,0,0,1-.07.17.7.7,0,0,1-.2.16,1.2,1.2,0,0,1-.31.13,1.26,1.26,0,0,1-.33.05,1.34,1.34,0,0,1-.34,0,1,1,0,0,1-.32-.14.65.65,0,0,1-.23-.19.25.25,0,0,1,0-.22.47.47,0,0,1,.15-.26,1.55,1.55,0,0,1,.37-.26A2.86,2.86,0,0,1,57,17a2.19,2.19,0,0,1,.49-.12,1.93,1.93,0,0,1,.48,0,1.46,1.46,0,0,1,.43.15l.21.15a.38.38,0,0,1,.08.13.11.11,0,0,1,0,.1.24.24,0,0,1-.09.08l-.1,0h-.12l-.15,0L58,17.39l.12-.08.09-.08a.09.09,0,0,0,0-.08S58.24,17.1,58.21,17.07Zm-.89.41-.09,0-.12,0-.11,0h-.1l-.31.21a.89.89,0,0,0-.17.18.18.18,0,0,0,0,.13.12.12,0,0,0,.08.09.39.39,0,0,0,.27,0,1.12,1.12,0,0,0,.41-.17.54.54,0,0,0,.26-.22A.13.13,0,0,0,57.32,17.48Z"/><path class="cls-4" d="M63.65,13.31l2.41-.54-.73-.42a.49.49,0,0,0-.16,0,.34.34,0,0,0-.15,0l-.15.07-.17-.1.6-.32,1.32.76-.14.08-2.6.62Z"/><path class="cls-4" d="M71.56,8.14a.64.64,0,0,1,.19-.08L72,8a1,1,0,0,1,.24,0l.26,0a.38.38,0,0,1,0-.27.43.43,0,0,1,.19-.22l.22-.09.27,0a1.92,1.92,0,0,1,.32,0l.34.15a1.12,1.12,0,0,1,.22.17.4.4,0,0,1,.09.17.23.23,0,0,1,0,.15.39.39,0,0,1-.15.13.41.41,0,0,1-.17.07.63.63,0,0,1-.19,0l-.22,0-.24,0a1.07,1.07,0,0,1,.09.19.27.27,0,0,1,0,.15.22.22,0,0,1-.06.13.36.36,0,0,1-.13.11.94.94,0,0,1-.28.1,1.06,1.06,0,0,1-.31,0A1.3,1.3,0,0,1,72,9a1.26,1.26,0,0,1-.34-.15,1.17,1.17,0,0,1-.26-.19.36.36,0,0,1-.09-.19.21.21,0,0,1,0-.17A.49.49,0,0,1,71.56,8.14Zm.31.61a.44.44,0,0,0,.16.06l.17,0,.17,0,.16-.07a.27.27,0,0,0,.1-.08.17.17,0,0,0,0-.1.38.38,0,0,0,0-.13.89.89,0,0,0-.09-.16h-.31l-.15,0-.15.07a.4.4,0,0,0-.12.1.27.27,0,0,0-.06.1.17.17,0,0,0,0,.1A.45.45,0,0,0,71.87,8.75Zm1.65-.65a.27.27,0,0,0,.1-.08.21.21,0,0,0,.06-.08.28.28,0,0,0,0-.09.18.18,0,0,0-.09-.08.26.26,0,0,0-.12,0h-.14a.32.32,0,0,0-.14,0,.35.35,0,0,0-.14.06l-.11.08a.36.36,0,0,0,0,.09.36.36,0,0,0,0,.1.41.41,0,0,0,.06.11l.15,0h.14l.13,0A.38.38,0,0,0,73.52,8.1Z"/><path class="cls-4" d="M123.59,65.12l-.15-.06-.18,0a.59.59,0,0,0-.21,0,1.12,1.12,0,0,0-.24.1c-.14.08-.2.16-.21.24s.06.15.18.22l.1,0,.09,0,.09,0,.08,0,.08.1-1,.5-1.06-.61.49-.3.16.1-.07.06,0,0a0,0,0,0,0,0,0s0,0,0,0,0,0,0,0l.58.33h0l.06,0,.09,0,.1,0,.27-.13-.07,0-.09,0-.09,0-.09,0a1.17,1.17,0,0,1-.26-.19.42.42,0,0,1-.11-.19.26.26,0,0,1,0-.19.48.48,0,0,1,.21-.18,1.07,1.07,0,0,1,.36-.14,1.54,1.54,0,0,1,.37,0,1.28,1.28,0,0,1,.34.07l.29.13a1.24,1.24,0,0,1,.23.17.28.28,0,0,1,.1.14.13.13,0,0,1,0,.12.45.45,0,0,1-.1.09.35.35,0,0,1-.2,0,.58.58,0,0,1-.21-.07.39.39,0,0,0,.1-.08.15.15,0,0,0,.06-.09.2.2,0,0,0,0-.1A.44.44,0,0,0,123.59,65.12Z"/><path class="cls-4" d="M130.31,61.1a.38.38,0,0,0,.19,0,.77.77,0,0,0,.26,0,2,2,0,0,0,.3-.09,2.14,2.14,0,0,0,.35-.16h-.1l-.12,0-.13-.05-.13-.07a.63.63,0,0,1-.19-.15.25.25,0,0,1-.07-.17.41.41,0,0,1,.07-.17.87.87,0,0,1,.2-.16,1.37,1.37,0,0,1,.31-.13,1.26,1.26,0,0,1,.33-.05,1.87,1.87,0,0,1,.34,0,1.56,1.56,0,0,1,.33.14.6.6,0,0,1,.22.19.28.28,0,0,1,.05.23.61.61,0,0,1-.15.25A2.76,2.76,0,0,1,132,61a2.81,2.81,0,0,1-.47.21,2.27,2.27,0,0,1-.5.12,1.84,1.84,0,0,1-.47,0,1.27,1.27,0,0,1-.44-.15.69.69,0,0,1-.2-.15.31.31,0,0,1-.09-.13.12.12,0,0,1,0-.1.2.2,0,0,1,.08-.08l.1,0h.13l.15,0a.51.51,0,0,1,.17.08l-.12.07-.08.09a.11.11,0,0,0,0,.08A.1.1,0,0,0,130.31,61.1Zm.89-.41a.19.19,0,0,0,.09,0l.11,0,.11,0h.1l.32-.21a.91.91,0,0,0,.17-.18.17.17,0,0,0,0-.13.11.11,0,0,0-.07-.09.42.42,0,0,0-.28,0,1.43,1.43,0,0,0-.41.17.55.55,0,0,0-.26.23C131.09,60.59,131.12,60.65,131.2,60.69Z"/><path class="cls-4" d="M140.28,55.71l-2.4.54.73.42a.3.3,0,0,0,.15,0,.28.28,0,0,0,.15,0l.15-.07.17.1-.59.33-1.33-.77.14-.08,2.6-.61Z"/><path class="cls-4" d="M147.94,51.56a.62.62,0,0,1-.19.07l-.21,0h-.24l-.26,0a.38.38,0,0,1,0,.27.4.4,0,0,1-.2.21.63.63,0,0,1-.22.09,1.12,1.12,0,0,1-.27,0,1.24,1.24,0,0,1-.31-.05,1.42,1.42,0,0,1-.34-.15.84.84,0,0,1-.22-.17.38.38,0,0,1-.09-.16.29.29,0,0,1,0-.16.53.53,0,0,1,.16-.13l.17-.07.19,0h.22l.24,0a1.54,1.54,0,0,1-.09-.19.47.47,0,0,1,0-.16.31.31,0,0,1,.06-.13.85.85,0,0,1,.14-.1.86.86,0,0,1,.28-.11,1.06,1.06,0,0,1,.31,0,1.3,1.3,0,0,1,.33.07,2.41,2.41,0,0,1,.33.15.84.84,0,0,1,.26.2.35.35,0,0,1,.1.19.23.23,0,0,1,0,.16A.63.63,0,0,1,147.94,51.56Zm-2,0-.1.07a.41.41,0,0,0-.05.09.14.14,0,0,0,0,.09s0,0,.08.08a.28.28,0,0,0,.13,0h.14l.14,0,.14-.06a.3.3,0,0,0,.1-.09.12.12,0,0,0,0-.09.18.18,0,0,0,0-.1l-.06-.11h-.29a.5.5,0,0,0-.13,0Zm1.65-.66-.15-.06h-.17a.51.51,0,0,0-.17,0A.44.44,0,0,0,147,51a.3.3,0,0,0-.1.09.17.17,0,0,0,0,.1.27.27,0,0,0,0,.12.89.89,0,0,0,.09.16h.16a.75.75,0,0,0,.15,0l.16,0,.15-.07.12-.09a.18.18,0,0,0,.05-.11.13.13,0,0,0,0-.1A.35.35,0,0,0,147.62,50.94Z"/><path class="cls-4" d="M88.2,8.72a.25.25,0,0,0,.11,0h.12l.12,0,.13-.06a.56.56,0,0,1,.24.19c0,.05,0,.09,0,.13a.31.31,0,0,1-.17,0,.75.75,0,0,1-.21,0,1,1,0,0,1-.23-.08A1.34,1.34,0,0,1,88,8.81a1.14,1.14,0,0,1-.23-.16.26.26,0,0,1-.1-.15.21.21,0,0,1,0-.15.84.84,0,0,1,.19-.14l.7-.41a.18.18,0,0,0,.08-.06l0,0a.17.17,0,0,0,0-.05l-.07,0h0l.14-.09.52.3-.13.14,0,0h.34l.14,0,.15.07a.61.61,0,0,1,.15.12.21.21,0,0,1,.05.12.19.19,0,0,1,0,.14.63.63,0,0,1-.17.13.75.75,0,0,1-.49.1,1.39,1.39,0,0,1-.58-.2l-.24-.12-.15.08-.12.08a.29.29,0,0,0-.08.07.09.09,0,0,0,0,.07A.14.14,0,0,0,88.2,8.72Zm1.18-.39c.08-.05.13-.09.14-.13s0-.07-.06-.1l-.13,0h-.16l-.16,0-.16.07-.21.12.13.07a.58.58,0,0,0,.17.06.39.39,0,0,0,.15,0,.32.32,0,0,0,.14,0Z"/><path class="cls-4" d="M96.33,12.72a1.85,1.85,0,0,1,.38-.18,1.55,1.55,0,0,1,.35-.07,1.13,1.13,0,0,1,.32,0,1.15,1.15,0,0,1,.29.11l.12.1a.28.28,0,0,1,.07.09.44.44,0,0,1,0,.1l0,.1h0l.3-.08.52.31-.14.08h0l-.09,0-.09,0h-.11l-.12,0-1.42.83a.18.18,0,0,0-.08.06.13.13,0,0,0,0,.06.21.21,0,0,0,0,.06l.08,0h0l-.14.09L96,14.06l.47-.27.1-.06.12-.05.13-.07h0a.86.86,0,0,1-.32,0,1,1,0,0,1-.31-.11.71.71,0,0,1-.2-.17.2.2,0,0,1,0-.18.42.42,0,0,1,.13-.2A1.47,1.47,0,0,1,96.33,12.72Zm.12.72a.29.29,0,0,0,.17.06.41.41,0,0,0,.19,0,.94.94,0,0,0,.22-.07l.27-.14.22-.14a.6.6,0,0,0,.14-.13.17.17,0,0,0,0-.12.24.24,0,0,0-.1-.1.5.5,0,0,0-.35,0,1.59,1.59,0,0,0-.48.21,1.08,1.08,0,0,0-.36.28C96.34,13.32,96.36,13.39,96.45,13.44Z"/><path class="cls-4" d="M106.13,17.49a.86.86,0,0,1,.25.19.32.32,0,0,1,.08.2.37.37,0,0,1-.09.22,1.46,1.46,0,0,1-.31.23,1.44,1.44,0,0,1-.81.24,1.27,1.27,0,0,1-.34-.05,1.69,1.69,0,0,1-.31-.13,1,1,0,0,1-.21-.15.42.42,0,0,1-.11-.14.15.15,0,0,1,0-.11s0-.06.08-.09l.1,0h.13l.17,0a.7.7,0,0,1,.19.1l-.12.08a.36.36,0,0,0-.09.08.12.12,0,0,0,0,.08s0,0,.06.06a.34.34,0,0,0,.14,0,.57.57,0,0,0,.18,0,1,1,0,0,0,.24-.08,1.85,1.85,0,0,0,.31-.16.79.79,0,0,0,.34-.28c0-.08,0-.16-.11-.23l-.15-.07-.16,0-.17,0-.15,0a.07.07,0,0,1,0-.06.12.12,0,0,1,.05-.05.46.46,0,0,1,.14-.05h.19a1.05,1.05,0,0,1,.24.06A1.59,1.59,0,0,1,106.13,17.49Z"/><path class="cls-4" d="M113.53,22.19a.19.19,0,0,0,.08-.07,0,0,0,0,0,0-.06l0-.06-.08-.06h0l.15-.09.54.31-.14.17,0,0,.17,0h.17l.16,0,.17.07a.65.65,0,0,1,.19.17.2.2,0,0,1,0,.18.33.33,0,0,1-.13.2,1.29,1.29,0,0,1-.3.22,1.85,1.85,0,0,1-.38.18,1.73,1.73,0,0,1-.35.08,1.62,1.62,0,0,1-.32,0,1,1,0,0,1-.29-.12.38.38,0,0,1-.12-.09.28.28,0,0,1-.07-.09.21.21,0,0,1,0-.18h0l-.13.09-.06,0-.05,0,0,0h0l-.15.09a.19.19,0,0,0-.08.07,0,0,0,0,0,0,.05.13.13,0,0,0,0,.06l.08,0h0l-.15.09-.66-.39Zm.87.31a.49.49,0,0,0-.17-.06H114a1.27,1.27,0,0,0-.23.08c-.08,0-.16.08-.26.13l-.23.15a.79.79,0,0,0-.13.13.15.15,0,0,0,0,.11s0,.07.1.11a.42.42,0,0,0,.16,0,.62.62,0,0,0,.19,0l.22-.08.26-.13a1.08,1.08,0,0,0,.36-.28C114.51,22.62,114.49,22.56,114.4,22.5Z"/><path class="cls-4" d="M122.79,27.11a1.18,1.18,0,0,1,.26.21.32.32,0,0,1,0,.43,1.05,1.05,0,0,1-.27.21,1.65,1.65,0,0,1-.39.17,1.69,1.69,0,0,1-.38.07,1.47,1.47,0,0,1-.36,0,2,2,0,0,1-.34-.14.75.75,0,0,1-.23-.19.29.29,0,0,1-.08-.19.31.31,0,0,1,.08-.19.69.69,0,0,1,.24-.19l.14-.08.91.52a1.45,1.45,0,0,0,.21-.15.33.33,0,0,0,.09-.14.13.13,0,0,0,0-.12.26.26,0,0,0-.12-.11l-.15-.07a.76.76,0,0,0-.16,0h-.3s0-.08.06-.12a.29.29,0,0,1,.14,0,.6.6,0,0,1,.19,0,1.05,1.05,0,0,1,.24.06A1.62,1.62,0,0,1,122.79,27.11Zm-1.34.8a.48.48,0,0,0,.3,0,1.38,1.38,0,0,0,.41-.15l-.48-.28a.83.83,0,0,0-.17.12.57.57,0,0,0-.11.1.1.1,0,0,0,0,.09A.13.13,0,0,0,121.45,27.91Z"/><path class="cls-4" d="M131.76,32.32l-.15.08-.06,0-.07,0-.09,0h-.1a.3.3,0,0,0-.11,0l-1,.56.25.14-.19.11L130,33l-.1,0a1.23,1.23,0,0,1-.26.12,1.26,1.26,0,0,1-.27,0,.92.92,0,0,1-.28-.05.81.81,0,0,1-.29-.12,1.51,1.51,0,0,1-.21-.14.33.33,0,0,1-.1-.11.08.08,0,0,1,0-.08.12.12,0,0,1,.05-.05.28.28,0,0,1,.22,0,.72.72,0,0,1,.3.12l-.06,0,0,.06a.07.07,0,0,0,0,.06s0,0,0,.05l.08,0h.09a.43.43,0,0,0,.13,0l.16-.08.15-.09-.38-.22.19-.11.38.22,1-.55a.3.3,0,0,0,.08-.07.06.06,0,0,0,0-.06s0,0,0,0l-.06,0-.13-.08.14-.08Z"/><path class="cls-4" d="M137.28,37.15l.07,0h.08l.1,0a.24.24,0,0,1,.1,0l0,0a0,0,0,0,0,0,0s0,0,0,0l0,0,.06,0h.06s0-.05,0-.07a.35.35,0,0,1,.05-.08l.06-.07.09-.06a.92.92,0,0,1,.23-.09,1,1,0,0,1,.25,0,1,1,0,0,1,.28,0,1.69,1.69,0,0,1,.28.12l0,0,.05,0,0,0,0,0h.18l.06,0s0,0,0-.06l-.07-.07-.34-.19a1.41,1.41,0,0,1-.21-.16.21.21,0,0,1-.08-.14.15.15,0,0,1,0-.13.31.31,0,0,1,.15-.12.86.86,0,0,1,.28-.11,1.05,1.05,0,0,1,.31,0,1.55,1.55,0,0,1,.36.08,2.33,2.33,0,0,1,.39.19,1,1,0,0,1,.4.34c0,.1,0,.18-.13.25a.53.53,0,0,1-.32.08,1,1,0,0,1-.38-.11.25.25,0,0,1,0,.07.07.07,0,0,1,0,.06.08.08,0,0,1,0,.07.22.22,0,0,1-.07.06l-.1,0h-.13a.65.65,0,0,1-.14,0l-.16,0a.31.31,0,0,1,.05.1.17.17,0,0,1,0,.1.34.34,0,0,1-.07.11l-.13.1a.94.94,0,0,1-.52.13,1.2,1.2,0,0,1-.57-.17,1.11,1.11,0,0,1-.16-.12.49.49,0,0,1-.08-.12h-.22l-.12,0-.11,0a.22.22,0,0,1-.07-.06.09.09,0,0,1,0,0,.07.07,0,0,1,0,0Zm1.44.35.13-.08.06-.08s0-.05,0-.07a.15.15,0,0,0-.07-.07l-.12,0h-.12a.33.33,0,0,0-.13,0l-.14.07a.48.48,0,0,0-.13.09.2.2,0,0,0-.08.08.09.09,0,0,0,0,.07.15.15,0,0,0,.07.07l.11,0h.14l.14,0Zm1.47-.63c.07,0,.1-.09.08-.15a.4.4,0,0,0-.19-.17,1.11,1.11,0,0,0-.42-.16.49.49,0,0,0-.32,0c-.06,0-.08.07-.07.1a.29.29,0,0,0,.14.12l.32.19.09,0a.23.23,0,0,0,.11,0h.13Z"/><path class="cls-4" d="M148.48,42l-.9.53-.15.1a.22.22,0,0,0-.08.09.11.11,0,0,0,0,.08.19.19,0,0,0,.08.07.33.33,0,0,0,.15,0h.16a1.27,1.27,0,0,0,.18-.06.56.56,0,0,0,.17-.09l.53-.3a.18.18,0,0,0,.08-.06.07.07,0,0,0,0-.06.09.09,0,0,0,0-.05l-.08,0h0l.15-.09.85.49-.15.09h0l-.09-.05-.1,0h-.1l-.12,0-1.44.83a.22.22,0,0,0-.07.07,0,0,0,0,0,0,.05s0,0,0,.06l.06,0h0l-.15.09-.65-.38.46-.26.11-.06.13-.07.13-.06h0a.77.77,0,0,1-.21,0h-.16l-.14-.05-.13-.07a.48.48,0,0,1-.17-.13.18.18,0,0,1,0-.14.23.23,0,0,1,.07-.15,1,1,0,0,1,.21-.15l.64-.37.09-.07s0,0,0,0l0-.05s0,0-.07,0h0l.15-.08Z"/><polygon class="cls-2" points="80.45 101.03 120.42 77.95 120.42 70.13 80.45 93.21 80.45 101.03"/><polygon class="cls-6" points="80.45 101.03 0 54.58 0 46.76 80.45 93.21 80.45 101.03"/><polygon class="cls-3" points="120.42 70.13 80.45 93.21 0 46.76 39.97 23.68 45.03 26.6 120.42 70.13"/><polygon class="cls-4" points="115.37 67.21 80.42 87.39 10.08 46.78 45.03 26.6 115.37 67.21"/><polygon class="cls-3" points="114.23 66.56 80.41 86.08 12.35 46.79 46.16 27.26 114.23 66.56"/><polygon class="cls-4" points="105.17 61.33 113.5 66.14 105.22 70.91 96.9 66.11 105.17 61.33"/><polygon class="cls-3" points="96.85 56.52 105.17 61.33 96.9 66.11 88.57 61.3 96.85 56.52"/><polygon class="cls-4" points="88.52 51.72 96.85 56.52 88.57 61.3 80.25 56.49 88.52 51.72"/><polygon class="cls-3" points="80.2 46.91 88.52 51.72 80.25 56.49 71.92 51.69 80.2 46.91"/><polygon class="cls-4" points="71.87 42.1 80.2 46.91 71.92 51.69 63.6 46.88 71.87 42.1"/><polygon class="cls-3" points="63.55 37.3 71.87 42.1 63.6 46.88 55.27 42.07 63.55 37.3"/><polygon class="cls-4" points="55.22 32.49 63.55 37.3 55.27 42.07 46.95 37.27 55.22 32.49"/><polygon class="cls-3" points="46.89 27.68 55.22 32.49 46.95 37.27 38.62 32.46 46.89 27.68"/><polygon class="cls-4" points="38.67 42.04 30.35 37.23 38.62 32.46 46.95 37.27 38.67 42.04"/><polygon class="cls-3" points="47 46.85 38.67 42.04 46.95 37.27 55.27 42.07 47 46.85"/><polygon class="cls-4" points="55.32 51.66 47 46.85 55.27 42.07 63.6 46.88 55.32 51.66"/><polygon class="cls-3" points="63.65 56.46 55.32 51.66 63.6 46.88 71.92 51.69 63.65 56.46"/><polygon class="cls-4" points="71.97 61.27 63.65 56.46 71.92 51.69 80.25 56.49 71.97 61.27"/><polygon class="cls-3" points="80.3 66.08 71.97 61.27 80.25 56.49 88.57 61.3 80.3 66.08"/><polygon class="cls-4" points="88.63 70.88 80.3 66.08 88.57 61.3 96.9 66.11 88.63 70.88"/><polygon class="cls-3" points="96.95 75.69 88.63 70.88 96.9 66.11 105.22 70.91 96.95 75.69"/><polygon class="cls-4" points="88.63 70.88 96.95 75.69 88.68 80.47 80.35 75.66 88.63 70.88"/><polygon class="cls-3" points="80.3 66.08 88.63 70.88 80.35 75.66 72.03 70.85 80.3 66.08"/><polygon class="cls-4" points="71.97 61.27 80.3 66.08 72.03 70.85 63.7 66.05 71.97 61.27"/><polygon class="cls-3" points="63.65 56.46 71.97 61.27 63.7 66.05 55.38 61.24 63.65 56.46"/><polygon class="cls-4" points="55.32 51.66 63.65 56.46 55.38 61.24 47.05 56.43 55.32 51.66"/><polygon class="cls-3" points="47 46.85 55.32 51.66 47.05 56.43 38.73 51.63 47 46.85"/><polygon class="cls-4" points="38.67 42.04 47 46.85 38.73 51.63 30.4 46.82 38.67 42.04"/><polygon class="cls-3" points="30.35 37.23 38.67 42.04 30.4 46.82 22.07 42.01 30.35 37.23"/><polygon class="cls-4" points="22.13 51.59 13.8 46.79 22.07 42.01 30.4 46.82 22.13 51.59"/><polygon class="cls-3" points="30.45 56.4 22.13 51.59 30.4 46.82 38.73 51.63 30.45 56.4"/><polygon class="cls-4" points="38.78 61.21 30.45 56.4 38.73 51.63 47.05 56.43 38.78 61.21"/><polygon class="cls-3" points="47.1 66.02 38.78 61.21 47.05 56.43 55.38 61.24 47.1 66.02"/><polygon class="cls-4" points="55.43 70.82 47.1 66.02 55.38 61.24 63.7 66.05 55.43 70.82"/><polygon class="cls-3" points="63.75 75.63 55.43 70.82 63.7 66.05 72.03 70.85 63.75 75.63"/><polygon class="cls-4" points="72.08 80.44 63.75 75.63 72.03 70.85 80.35 75.66 72.08 80.44"/><polygon class="cls-3" points="80.4 85.24 72.08 80.44 80.35 75.66 88.68 80.47 80.4 85.24"/><polygon class="cls-5" points="120.42 70.13 80.45 93.21 80.42 87.39 115.37 67.21 120.42 70.13"/><polygon class="cls-5" points="45.03 26.6 10.08 46.78 0 46.76 39.97 23.68 45.03 26.6"/><path class="cls-4" d="M14.59,51.15l-.11,0h-.12l-.12,0-.13.07a.65.65,0,0,1-.24-.19c0-.05,0-.1.05-.13a.34.34,0,0,1,.17,0,.5.5,0,0,1,.21,0,1,1,0,0,1,.23.07l.24.12a1.27,1.27,0,0,1,.23.16.32.32,0,0,1,.1.16.19.19,0,0,1,0,.14.63.63,0,0,1-.19.15l-.7.41-.08.05,0,.06a.08.08,0,0,0,0,0,.18.18,0,0,0,.07.05h0l-.14.08-.52-.29.13-.15h-.2l-.16,0a.58.58,0,0,1-.14,0L13,51.81l-.15-.12a.21.21,0,0,1-.05-.13.2.2,0,0,1,.05-.13A.36.36,0,0,1,13,51.3a.76.76,0,0,1,.49-.11,1.58,1.58,0,0,1,.58.21l.24.12.15-.09.12-.07.08-.07s0,0,0-.07Zm-1.18.4c-.08.05-.13.09-.14.12a.1.1,0,0,0,.06.11l.13,0a.85.85,0,0,0,.16,0l.16,0,.16-.07.21-.12L14,51.54l-.17-.07a.38.38,0,0,0-.15,0l-.14,0Z"/><path class="cls-4" d="M23.12,56.77a3.26,3.26,0,0,1-.39.18,1.55,1.55,0,0,1-.35.07,1.13,1.13,0,0,1-.32,0,1.15,1.15,0,0,1-.29-.11l-.12-.1a.23.23,0,0,1-.07-.1.29.29,0,0,1,0-.09l0-.1h0l-.3.08-.52-.31.14-.08h0l.09,0,.09,0h.11l.12,0,1.42-.83a.18.18,0,0,0,.08-.06.13.13,0,0,0,0-.06l0-.06-.08,0h0l.14-.08.65.38L23,55.7l-.1.06-.12.05-.13.07h0a.86.86,0,0,1,.32,0,.77.77,0,0,1,.31.11.71.71,0,0,1,.2.17.19.19,0,0,1,0,.18.36.36,0,0,1-.13.2A1.67,1.67,0,0,1,23.12,56.77ZM23,56.05a.29.29,0,0,0-.17-.06.41.41,0,0,0-.19,0,1.11,1.11,0,0,0-.22.07l-.27.14-.22.14a.6.6,0,0,0-.14.13.17.17,0,0,0,0,.12.24.24,0,0,0,.1.1.51.51,0,0,0,.35,0,1.59,1.59,0,0,0,.48-.21,1.08,1.08,0,0,0,.36-.28C23.1,56.16,23.08,56.1,23,56.05Z"/><path class="cls-4" d="M30,61.64a1.25,1.25,0,0,1-.24-.18.3.3,0,0,1-.09-.2.39.39,0,0,1,.1-.22,1,1,0,0,1,.31-.23,1.71,1.71,0,0,1,.42-.19,1.36,1.36,0,0,1,.38-.06,1,1,0,0,1,.35.06,1.2,1.2,0,0,1,.31.13,1,1,0,0,1,.21.15.58.58,0,0,1,.11.13.13.13,0,0,1,0,.12.13.13,0,0,1-.07.08l-.11,0a.27.27,0,0,1-.13,0l-.16,0-.2-.09.13-.08a.22.22,0,0,0,.08-.09.11.11,0,0,0,0-.07.13.13,0,0,0-.06-.07.33.33,0,0,0-.14,0,.54.54,0,0,0-.18,0l-.24.08a2.31,2.31,0,0,0-.31.16.91.91,0,0,0-.35.29c0,.08,0,.16.12.22l.15.07.16,0h.31a.06.06,0,0,1,0,.06s0,0-.06.05a.4.4,0,0,1-.13,0h-.2l-.24,0A1.62,1.62,0,0,1,30,61.64Z"/><path class="cls-4" d="M39.21,66.53a.19.19,0,0,0-.08.07.07.07,0,0,0,0,.06l.05.06.08,0h0l-.15.08-.53-.31.13-.17h0l-.18,0h-.16l-.17,0L38,66.26a.56.56,0,0,1-.2-.16.24.24,0,0,1,0-.18.48.48,0,0,1,.13-.21,1.18,1.18,0,0,1,.31-.21,1.85,1.85,0,0,1,.38-.18,1.59,1.59,0,0,1,.35-.08,1.15,1.15,0,0,1,.32,0,1,1,0,0,1,.28.11l.13.09a.27.27,0,0,1,.06.1.21.21,0,0,1,0,.18h0l.14-.09.05,0,0,0,0,0,0,0,.15-.09a.14.14,0,0,0,.07-.06.06.06,0,0,0,0-.06s0,0,0,0a.26.26,0,0,0-.09,0l0,0,.15-.08.67.39Zm-.87-.32a.64.64,0,0,0,.18.06.42.42,0,0,0,.19,0,1.11,1.11,0,0,0,.22-.07,2.26,2.26,0,0,0,.26-.14l.23-.14a.52.52,0,0,0,.13-.13.13.13,0,0,0,0-.12.19.19,0,0,0-.1-.1.38.38,0,0,0-.15,0l-.19,0a1.27,1.27,0,0,0-.23.08,2,2,0,0,0-.25.13,1.28,1.28,0,0,0-.37.28C38.23,66.09,38.25,66.16,38.34,66.21Z"/><path class="cls-4" d="M46.61,71.22a.72.72,0,0,1-.26-.21.31.31,0,0,1-.08-.21.36.36,0,0,1,.1-.22,1.13,1.13,0,0,1,.28-.21A1.59,1.59,0,0,1,47,70.2a1.31,1.31,0,0,1,.38-.06.92.92,0,0,1,.37,0,1.22,1.22,0,0,1,.34.14.71.71,0,0,1,.23.18.28.28,0,0,1,.07.19.25.25,0,0,1-.07.19.86.86,0,0,1-.25.19l-.14.08-.91-.52-.21.15a.46.46,0,0,0-.09.14.16.16,0,0,0,0,.12.43.43,0,0,0,.12.11l.15.07.16,0h.31s0,.08-.06.12a.33.33,0,0,1-.15,0,.6.6,0,0,1-.19,0l-.23-.06A1.11,1.11,0,0,1,46.61,71.22Zm1.33-.8a.46.46,0,0,0-.3,0,1.48,1.48,0,0,0-.41.15l.48.28.18-.12a.31.31,0,0,0,.1-.1.1.1,0,0,0,0-.09S48,70.44,47.94,70.42Z"/><path class="cls-4" d="M54.29,75.62l.14-.08.06,0,.07,0,.09,0h.11a.34.34,0,0,0,.11,0l1-.55-.24-.14.18-.11.25.14.1-.06a1,1,0,0,1,.27-.11.8.8,0,0,1,.27,0,1,1,0,0,1,.28,0,1.78,1.78,0,0,1,.29.12l.21.14a.47.47,0,0,1,.1.11.12.12,0,0,1,0,.08l-.06.06a.31.31,0,0,1-.22,0,1.54,1.54,0,0,1-.3-.12l.07,0,.05-.06a.09.09,0,0,0,0,0,.07.07,0,0,0,0-.05l-.08,0h-.1l-.12,0-.16.09-.16.08.39.22-.19.11-.38-.22-1,.56a.14.14,0,0,0-.07.06s0,0,0,.06a.1.1,0,0,0,0,0l.06,0,.13.07-.15.09Z"/><path class="cls-4" d="M65.42,80.4a.09.09,0,0,1-.07,0,.11.11,0,0,1-.08,0h-.1l-.11-.05s0,0,0,0a.05.05,0,0,0,0,0s0,0,0,0,0,0,0,0l-.06,0H65a.1.1,0,0,1,0,.07.25.25,0,0,1,0,.07l-.06.08-.09.06a.92.92,0,0,1-.23.09,1,1,0,0,1-.25,0,1.08,1.08,0,0,1-.57-.17l0,0,0,0,0,0,0,0h-.18l-.06,0s0,0,0,.06a.22.22,0,0,0,.07.07l.34.19a1,1,0,0,1,.21.16A.23.23,0,0,1,64,81a.16.16,0,0,1,0,.13.65.65,0,0,1-.15.12,1,1,0,0,1-.28.11,1.06,1.06,0,0,1-.31,0,1.19,1.19,0,0,1-.36-.09,2,2,0,0,1-.4-.18.91.91,0,0,1-.39-.34c0-.1,0-.18.13-.26a.58.58,0,0,1,.32-.07.89.89,0,0,1,.37.1l0-.06a.14.14,0,0,1,0-.07.09.09,0,0,1,0-.06.09.09,0,0,1,.07-.06l.1,0,.12,0h.15l.16,0a.31.31,0,0,1-.05-.1.17.17,0,0,1,0-.1.23.23,0,0,1,.07-.11.49.49,0,0,1,.13-.1.93.93,0,0,1,.51-.13,1.2,1.2,0,0,1,.58.17l.15.12a.31.31,0,0,1,.09.12h.22l.12,0,.11,0,.07.06s0,0,0,0a.07.07,0,0,1,0,0A.1.1,0,0,1,65.42,80.4Zm-2.91.29c-.07,0-.1.09-.08.15a.42.42,0,0,0,.18.17,1.21,1.21,0,0,0,.43.16.49.49,0,0,0,.32,0c.06,0,.08-.07.06-.11s-.05-.07-.13-.11L63,80.71l-.09,0a.23.23,0,0,0-.11,0,.28.28,0,0,0-.13,0A.43.43,0,0,0,62.51,80.69ZM64,80.06l-.12.08a.21.21,0,0,0-.06.08.06.06,0,0,0,0,.07.22.22,0,0,0,.07.07l.11,0h.13l.13,0,.14-.07.13-.09a.3.3,0,0,0,.08-.08.17.17,0,0,0,0-.07.12.12,0,0,0-.07-.07l-.12,0h-.13l-.14,0Z"/><path class="cls-4" d="M72.72,86.27l.9-.53a1,1,0,0,0,.15-.1.22.22,0,0,0,.08-.09.11.11,0,0,0,0-.08.19.19,0,0,0-.08-.07.33.33,0,0,0-.15-.05h-.16a1.27,1.27,0,0,0-.18.06.56.56,0,0,0-.17.09l-.53.3a.18.18,0,0,0-.08.06.07.07,0,0,0,0,.06.09.09,0,0,0,0,0l.08,0h0l-.15.09-.85-.49.15-.09h0l.09,0,.1,0h.1l.12,0,1.44-.83a.22.22,0,0,0,.07-.07,0,0,0,0,0,0,0s0,0,0-.06l-.06,0h0l.15-.09.65.38-.45.26-.12.06-.13.07-.13.06h0a.77.77,0,0,1,.21,0h.16l.14,0,.13.07a.48.48,0,0,1,.17.13.18.18,0,0,1,0,.14.23.23,0,0,1-.07.15,1,1,0,0,1-.21.15l-.64.37-.09.07s0,0,0,.05,0,0,0,0l.07,0h0l-.15.08Z"/><path class="cls-4" d="M12.83,42.37l.15-.09.23.13a.09.09,0,0,0,.07,0h.15l.1,0,1.38-.8h-.54l-.11,0,0,0a.13.13,0,0,1,0-.06l0-.05.07-.06.12,0,.14,0,.17,0,.21,0,.34,0,.31.17-1.65,1-.07,0s0,0,0,0a.09.09,0,0,0,0,.05l.06,0,.23.13L14,43Z"/><path class="cls-4" d="M23.66,37.29l-.14.06-.17,0-.22,0h-1.7l.65.37a.53.53,0,0,0,.19.06.62.62,0,0,0,.23,0l.11,0,.16.09-.59.33-1.31-.76.28-.16h1.27l.33,0,.26-.07.22-.11c.1-.06.16-.11.17-.16s0-.1-.09-.14a.41.41,0,0,0-.31,0,1.37,1.37,0,0,0-.42.17l-.13-.09a.24.24,0,0,1-.06-.09.1.1,0,0,1,0-.09.3.3,0,0,1,.1-.09.48.48,0,0,1,.18-.06h.23l.28.06a2.12,2.12,0,0,1,.54.31.44.44,0,0,1,.1.17.16.16,0,0,1,0,.15A.41.41,0,0,1,23.66,37.29Z"/><path class="cls-4" d="M29.86,33.12a1.52,1.52,0,0,1-.25-.17.63.63,0,0,1-.11-.15.13.13,0,0,1,0-.12.2.2,0,0,1,.09-.09.27.27,0,0,1,.11-.05h.12l.12,0,.1.05a.49.49,0,0,0-.13.1.26.26,0,0,0,0,.1.18.18,0,0,0,0,.1A.4.4,0,0,0,30,33l.15.06a.47.47,0,0,0,.17,0,.69.69,0,0,0,.2,0,.89.89,0,0,0,.23-.1.4.4,0,0,0,.12-.1.2.2,0,0,0,0-.11.34.34,0,0,0-.06-.12.75.75,0,0,0-.16-.13l-.17-.09.17-.1.18.1a.64.64,0,0,0,.19.08.59.59,0,0,0,.19,0,.65.65,0,0,0,.19,0,.64.64,0,0,0,.19-.08c.1-.06.16-.11.18-.17s0-.1-.09-.15a.43.43,0,0,0-.16-.05l-.17,0a.58.58,0,0,0-.17.06l-.17.08a.41.41,0,0,1-.2-.19c0-.05,0-.11.09-.16a.48.48,0,0,1,.17-.05h.23a1.08,1.08,0,0,1,.27.07,2.38,2.38,0,0,1,.29.13,1.91,1.91,0,0,1,.24.17.48.48,0,0,1,.11.17.22.22,0,0,1,0,.16.39.39,0,0,1-.15.13.5.5,0,0,1-.2.08.91.91,0,0,1-.23,0h-.24l-.25-.05a.46.46,0,0,1,.12.12.34.34,0,0,1,.07.15.2.2,0,0,1,0,.15.46.46,0,0,1-.16.14,1.09,1.09,0,0,1-.34.13,1.38,1.38,0,0,1-.35,0,1.89,1.89,0,0,1-.34-.09A1.46,1.46,0,0,1,29.86,33.12Z"/><path class="cls-4" d="M39.06,28.25l-.17.1-.09.07a.07.07,0,0,0,0,.06.13.13,0,0,0,.05.06l.08.06,0,0-.14.08-1-.56.15-.08.08,0,.09,0,.1,0h.11l.12-.05.17-.1-.77-.44.17-.1,2.07-.29.39.22-1.27.74.29.17-.19.1Zm.25-.61.27-.15.28-.15-.13,0-.18,0-.18,0h-.12l-1,.14.57.33Z"/><path class="cls-4" d="M89.85,85l-.15.08-.23-.13-.07,0h-.07l-.08,0-.1,0-1.38.79h.4l.14,0,.11,0a.1.1,0,0,1,0,0,.09.09,0,0,1,0,.05l0,.06a.28.28,0,0,1-.08.06l-.11,0-.14,0-.17,0-.22,0-.33,0-.31-.18,1.65-1,.07,0,0-.05a.06.06,0,0,0,0,0s0,0-.06,0l-.23-.13.15-.08Z"/><path class="cls-4" d="M95.43,80.44a.61.61,0,0,1,.14-.07l.17,0a.73.73,0,0,1,.22,0l.3,0h1.4L97,79.92a.41.41,0,0,0-.19,0,.46.46,0,0,0-.23,0l-.11,0-.16-.09.59-.33,1.31.76-.28.17H96.67l-.34,0-.25.07-.22.11c-.11.06-.16.12-.17.17s0,.09.08.13a.44.44,0,0,0,.32,0,1.23,1.23,0,0,0,.41-.17.48.48,0,0,1,.13.09.17.17,0,0,1,.07.1.1.1,0,0,1,0,.09.29.29,0,0,1-.1.08.48.48,0,0,1-.18.06h-.24a1.08,1.08,0,0,1-.27-.07,2.38,2.38,0,0,1-.29-.13,1.08,1.08,0,0,1-.25-.18.41.41,0,0,1-.11-.17.21.21,0,0,1,0-.15A.39.39,0,0,1,95.43,80.44Z"/><path class="cls-4" d="M106.12,75.24a1.25,1.25,0,0,1,.24.18.42.42,0,0,1,.11.14.15.15,0,0,1,0,.13.19.19,0,0,1-.09.09l-.11,0h-.12l-.11,0-.11,0a.5.5,0,0,0,.13-.11.15.15,0,0,0,0-.2l-.12-.09a.52.52,0,0,0-.15-.07l-.17,0-.2,0-.22.09a.32.32,0,0,0-.12.1.14.14,0,0,0,0,.12.17.17,0,0,0,.06.12.55.55,0,0,0,.16.12l.17.1-.17.1-.19-.11a.67.67,0,0,0-.18-.07.65.65,0,0,0-.19,0l-.2,0-.18.08a.37.37,0,0,0-.18.17q0,.09.09.15a.3.3,0,0,0,.15,0h.17l.18-.06.16-.09c.12.07.19.13.21.19s0,.11-.09.16a.48.48,0,0,1-.18.06.88.88,0,0,1-.23,0,1.45,1.45,0,0,1-.26-.07,2,2,0,0,1-.3-.14,1.53,1.53,0,0,1-.23-.17.44.44,0,0,1-.12-.17.2.2,0,0,1,0-.15.31.31,0,0,1,.14-.14,1,1,0,0,1,.21-.08.85.85,0,0,1,.23,0,1.06,1.06,0,0,1,.24,0l.24,0-.12-.13a.27.27,0,0,1-.07-.14.26.26,0,0,1,0-.15.38.38,0,0,1,.16-.14.93.93,0,0,1,.35-.13,1,1,0,0,1,.35,0,1.4,1.4,0,0,1,.34.08Z"/><path class="cls-4" d="M113.16,70.38l.17-.1s.07,0,.08-.07a.07.07,0,0,0,0-.06l-.05-.06-.08,0,0,0,.15-.09,1,.57-.14.08-.08,0-.1-.05-.09,0h-.11a.43.43,0,0,0-.13,0l-.16.1.76.44-.16.1-2.08.29-.39-.23,1.28-.73-.29-.17.18-.11Zm-.26.62-.26.15-.29.14.13,0,.18,0,.18,0,.13,0,1-.14-.58-.33Z"/></g></g></svg>