<svg xmlns="http://www.w3.org/2000/svg" viewBox="0 0 62.03 69.94"><defs><style>.cls-1{isolation:isolate;}.cls-2{fill:#0f0f0f;}.cls-3{fill:#875f41;}.cls-4{fill:#bf9c7c;}.cls-5{fill:#e0d4a4;}.cls-6{fill:#282828;}.cls-7{fill:#242424;}.cls-8{fill:#323232;}.cls-9{fill:#ccc;}.cls-10{fill:#c8d2db;}.cls-11{fill:#ff223d;}.cls-12{fill:#b30b29;}.cls-13{fill:#9ca4ab;}.cls-14{fill:#bcc6cf;}.cls-15{fill:#171717;}.cls-16{fill:#ff454c;}.cls-17{fill:#7d001f;}.cls-18{fill:#dd2f36;}.cls-19{fill:#474747;}.cls-20{fill:#a6a6a6;mix-blend-mode:multiply;}</style></defs><g class="cls-1"><g id="Capa_2" data-name="Capa 2"><g id="layer"><polygon class="cls-2" points="0 41.82 0 7.69 48.71 35.81 48.71 69.94 0 41.82"/><polygon class="cls-3" points="46.01 37.37 2.7 12.37 2.7 40.26 46.01 65.26 46.01 37.37"/><polygon class="cls-4" points="46.01 37.37 46.01 65.26 46.67 64.88 46.67 36.99 46.01 37.37"/><polygon class="cls-5" points="46.01 37.37 2.7 12.37 3.36 11.98 46.67 36.99 46.01 37.37"/><polygon class="cls-6" points="48.71 35.81 62.03 28.12 62.03 62.25 48.71 69.94 48.71 35.81"/><polygon class="cls-7" points="48.71 35.81 49.61 67.96 62.03 61.61 62.03 28.12 62.03 62.25 48.71 69.94 48.71 35.81"/><polygon class="cls-8" points="48.71 35.81 62.03 28.12 13.32 0 0 7.69 48.71 35.81"/><polygon class="cls-9" points="43.67 39.09 5.04 16.78 5.04 37.95 43.67 60.25 43.67 39.09"/><path class="cls-9" d="M42.92,47.92c0,4.55-3.21,6.38-7.17,4.09a15.78,15.78,0,0,1-7.17-12.37c0-4.55,3.21-6.38,7.17-4.09A15.82,15.82,0,0,1,42.92,47.92Z"/><path class="cls-10" d="M36.75,43.94c0,.4-.28.56-.63.36a1.41,1.41,0,0,1-.63-1.09c0-.4.29-.56.63-.36A1.39,1.39,0,0,1,36.75,43.94Z"/><polygon class="cls-10" points="33.26 38.18 32.83 38.43 35.96 43.82 36.39 43.58 33.26 38.18"/><polygon class="cls-10" points="41.7 50.23 41.95 49.75 36.3 43.46 36.05 43.94 41.7 50.23"/><polygon class="cls-10" points="36.27 36.6 36.08 36.49 36.08 46.52 36.27 46.63 36.27 36.6"/><polygon class="cls-11" points="35.89 52.09 35.62 51.94 35.62 51.17 35.89 51.32 35.89 52.09"/><polygon points="36.44 52.38 36.37 51.57 36.49 51.63 36.56 52.43 36.44 52.38"/><polygon points="37.19 52.68 37.05 51.85 37.16 51.88 37.3 52.71 37.19 52.68"/><polygon points="37.91 52.88 37.71 52.03 37.82 52.05 38.02 52.9 37.91 52.88"/><polygon points="38.62 52.98 38.34 52.12 38.45 52.13 38.72 52.99 38.62 52.98"/><polygon points="39.25 52.99 38.92 52.13 39.09 52.11 39.42 52.97 39.25 52.99"/><polygon points="39.92 52.89 39.52 52.03 39.62 52.01 40.01 52.86 39.92 52.89"/><polygon points="40.51 52.69 40.06 51.85 40.14 51.81 40.59 52.65 40.51 52.69"/><polygon points="41.04 52.4 40.54 51.59 40.62 51.53 41.12 52.34 41.04 52.4"/><polygon points="41.52 52.01 40.97 51.23 41.04 51.16 41.59 51.94 41.52 52.01"/><polygon points="41.92 51.55 41.33 50.82 41.42 50.69 42.01 51.42 41.92 51.55"/><polygon points="42.28 50.96 41.66 50.28 41.7 50.19 42.33 50.87 42.28 50.96"/><polygon points="42.56 50.32 41.91 49.7 41.94 49.59 42.59 50.21 42.56 50.32"/><polygon points="42.76 49.6 42.08 49.05 42.11 48.94 42.78 49.49 42.76 49.6"/><polygon points="42.88 48.82 42.19 48.34 42.2 48.22 42.89 48.7 42.88 48.82"/><polygon class="cls-11" points="42.92 48.08 42.23 47.68 42.23 47.37 42.92 47.77 42.92 48.08"/><polygon points="42.2 46.79 42.19 46.66 42.88 46.97 42.89 47.11 42.2 46.79"/><polygon points="42.1 45.97 42.08 45.82 42.76 46.05 42.78 46.19 42.1 45.97"/><polygon points="41.93 45.11 41.89 44.97 42.56 45.1 42.59 45.25 41.93 45.11"/><polygon points="41.69 44.25 41.64 44.1 42.28 44.14 42.33 44.29 41.69 44.25"/><polygon points="41.4 43.43 41.31 43.18 41.92 43.13 42.01 43.38 41.4 43.43"/><polygon points="41.02 42.51 40.95 42.37 41.52 42.22 41.59 42.37 41.02 42.51"/><polygon points="40.59 41.66 40.52 41.52 41.04 41.28 41.12 41.42 40.59 41.66"/><polygon points="40.12 40.84 40.03 40.7 40.51 40.37 40.59 40.51 40.12 40.84"/><polygon points="39.59 40.04 39.5 39.91 39.92 39.49 40.01 39.62 39.59 40.04"/><polygon points="39.06 39.33 38.9 39.12 39.25 38.62 39.42 38.83 39.06 39.33"/><polygon points="38.43 38.58 38.33 38.47 38.62 37.89 38.72 38 38.43 38.58"/><polygon points="37.8 37.94 37.69 37.83 37.91 37.18 38.02 37.28 37.8 37.94"/><polygon points="37.15 37.35 37.04 37.26 37.19 36.54 37.3 36.64 37.15 37.35"/><polygon points="36.48 36.84 36.37 36.76 36.44 35.99 36.56 36.07 36.48 36.84"/><polygon class="cls-11" points="35.89 36.45 35.62 36.3 35.62 35.47 35.89 35.63 35.89 36.45"/><polygon points="35.02 36 34.94 35.13 35.06 35.19 35.13 36.05 35.02 36"/><polygon points="34.35 35.74 34.2 34.85 34.32 34.89 34.47 35.78 34.35 35.74"/><polygon points="33.7 35.57 33.48 34.66 33.59 34.68 33.81 35.59 33.7 35.57"/><polygon points="33.07 35.49 32.78 34.57 32.89 34.58 33.18 35.5 33.07 35.49"/><polygon points="32.44 35.5 32.08 34.59 32.25 34.57 32.6 35.49 32.44 35.5"/><polygon points="31.91 35.6 31.49 34.7 31.58 34.67 32 35.58 31.91 35.6"/><polygon points="31.38 35.79 30.91 34.91 30.99 34.87 31.47 35.75 31.38 35.79"/><polygon points="30.91 36.07 30.38 35.22 30.46 35.17 30.98 36.02 30.91 36.07"/><polygon points="30.48 36.43 29.91 35.63 29.98 35.56 30.55 36.37 30.48 36.43"/><polygon points="30.1 36.9 29.49 36.15 29.59 36.01 30.2 36.77 30.1 36.9"/><polygon points="29.81 37.39 29.17 36.7 29.22 36.6 29.86 37.3 29.81 37.39"/><polygon points="29.57 37.98 28.91 37.35 28.95 37.25 29.61 37.88 29.57 37.98"/><polygon points="29.4 38.64 28.72 38.08 28.75 37.96 29.43 38.52 29.4 38.64"/><polygon points="29.3 39.35 28.61 38.86 28.62 38.74 29.31 39.22 29.3 39.35"/><polygon class="cls-11" points="29.27 40.19 28.58 39.79 28.58 39.48 29.27 39.88 29.27 40.19"/><polygon points="28.62 40.59 28.61 40.45 29.3 40.77 29.31 40.91 28.62 40.59"/><polygon points="28.75 41.51 28.72 41.37 29.39 41.59 29.42 41.74 28.75 41.51"/><polygon points="28.95 42.46 28.91 42.31 29.56 42.45 29.6 42.59 28.95 42.46"/><polygon points="29.22 43.42 29.17 43.27 29.8 43.31 29.84 43.46 29.22 43.42"/><polygon points="29.59 44.43 29.49 44.19 30.08 44.14 30.17 44.38 29.59 44.43"/><polygon points="29.98 45.34 29.91 45.2 30.46 45.05 30.53 45.2 29.98 45.34"/><polygon points="30.46 46.28 30.38 46.14 30.88 45.91 30.96 46.05 30.46 46.28"/><polygon points="30.99 47.2 30.91 47.06 31.36 46.74 31.45 46.88 30.99 47.2"/><polygon points="31.58 48.07 31.49 47.94 31.88 47.54 31.98 47.68 31.58 48.07"/><polygon points="32.25 48.94 32.08 48.74 32.42 48.26 32.58 48.47 32.25 48.94"/><polygon points="32.89 49.67 32.78 49.56 33.05 49.02 33.16 49.13 32.89 49.67"/><polygon points="33.59 50.38 33.48 50.28 33.69 49.67 33.8 49.77 33.59 50.38"/><polygon points="34.32 51.02 34.2 50.93 34.34 50.26 34.45 50.35 34.32 51.02"/><polygon points="35.06 51.58 34.94 51.49 35.01 50.77 35.13 50.85 35.06 51.58"/><polygon points="32.84 38.26 32.41 38.51 35.54 43.9 35.96 43.66 32.84 38.26"/><polygon points="41.28 50.31 41.53 49.83 35.88 43.54 35.62 44.02 41.28 50.31"/><path d="M35.68,37.84V38L35,37.62v-.2l.25.14V36.7s0,0,0-.06l-.17.06H35l0,0,0,0-.07-.17.4-.15.2.11v1.29Z"/><path d="M36.67,38.35l.06.06a.31.31,0,0,1,0,.08v.17l-.9-.52v-.09a.07.07,0,0,1,0,0l0,0,.39-.22.09-.06.06-.07a.59.59,0,0,0,0-.08s0-.06,0-.1a.34.34,0,0,0,0-.17.3.3,0,0,0-.12-.13l-.07,0h-.05l0,0,0,0s0,0,0,0a.12.12,0,0,1-.08,0l-.13-.1a.6.6,0,0,1,.05-.16.25.25,0,0,1,.1-.08.33.33,0,0,1,.14,0,.43.43,0,0,1,.16.07.66.66,0,0,1,.17.12,1.09,1.09,0,0,1,.13.17,1,1,0,0,1,.08.18.63.63,0,0,1,0,.19.52.52,0,0,1,0,.14.21.21,0,0,1-.06.1.3.3,0,0,1-.08.08l-.1.06-.27.16.09,0,.08,0Z"/><path d="M35.75,50.09l0,0,.07,0,.08,0a.72.72,0,0,1,.15.11l.12.15a1.08,1.08,0,0,1,.08.19.54.54,0,0,1,0,.22.31.31,0,0,1,0,.17.2.2,0,0,1-.09.11.24.24,0,0,1-.15,0,.4.4,0,0,1-.19-.07,1.33,1.33,0,0,1-.19-.14,1.43,1.43,0,0,1-.14-.2.78.78,0,0,1-.09-.21,1,1,0,0,1,0-.24.58.58,0,0,1,0-.19.66.66,0,0,1,.12-.17l.3-.29h.05l.08,0,.22.13Zm0,.76.09,0,.07,0a.1.1,0,0,0,0,0,.16.16,0,0,0,0-.1.41.41,0,0,0,0-.11,1.17,1.17,0,0,0,0-.11.31.31,0,0,0-.07-.09l-.09-.07a.16.16,0,0,0-.09,0,.08.08,0,0,0-.07,0,.09.09,0,0,0,0,.06.2.2,0,0,0,0,.09.5.5,0,0,0,0,.12.42.42,0,0,0,0,.1.47.47,0,0,0,.06.09Z"/><path d="M39,40.72v.21l-.73-.43v-.2l.26.15v-.93l-.17.07h-.07l0,0s0,0,0,0l-.08-.16.4-.16.2.12v1.28Z"/><path d="M38.48,50.71l.07,0,.07,0a.86.86,0,0,1,.18.14,1.1,1.1,0,0,1,.14.18,1.08,1.08,0,0,1,.08.19,1.23,1.23,0,0,1,0,.19.56.56,0,0,1,0,.2.23.23,0,0,1-.11.11.24.24,0,0,1-.15,0,.64.64,0,0,1-.2-.08l-.11-.08a.52.52,0,0,1-.11-.1l-.09-.11a1,1,0,0,0-.08-.11l.08-.08a.06.06,0,0,1,.06,0,.1.1,0,0,1,.05,0l0,.07.07.08.1.07.1,0a.08.08,0,0,0,.07,0,.16.16,0,0,0,0-.07.36.36,0,0,0,0-.11.39.39,0,0,0-.06-.21.52.52,0,0,0-.17-.16.67.67,0,0,0-.18-.07l-.15-.13.11-.67.65.37v.12a.43.43,0,0,1,0,0l0,0h0l-.07,0-.33-.19Z"/><path d="M41.09,44.27a.09.09,0,0,1,.06.06.13.13,0,0,1,0,.08v.17l-.9-.52V44a.13.13,0,0,1,0-.06,0,0,0,0,1,0,0l.38-.23a.19.19,0,0,0,.09,0,.19.19,0,0,0,.06-.07.2.2,0,0,0,0-.08.31.31,0,0,0,0-.1.37.37,0,0,0,0-.18.3.3,0,0,0-.13-.12l-.06,0h-.06l0,0a.08.08,0,0,0,0,.05.07.07,0,0,1,0,0,.13.13,0,0,1-.07,0L40.3,43a.25.25,0,0,1,.05-.16.19.19,0,0,1,.1-.08.19.19,0,0,1,.13,0l.17.06.16.13a.91.91,0,0,1,.13.16.66.66,0,0,1,.09.19.58.58,0,0,1,0,.19.59.59,0,0,1,0,.14l-.06.1a.27.27,0,0,1-.08.07l-.1.07-.28.16.09,0,.09,0Z"/><path d="M41.21,50.24v.16s0,0,0,0h0l-.1-.06v.36l-.22-.13v-.35l-.53-.31a.08.08,0,0,1,0,0,.09.09,0,0,1,0-.06l0-.16.6-.58.24.14v.92ZM40.84,50v-.44a.17.17,0,0,1,0-.07v-.08l-.37.38Z"/><path d="M41.16,46.73a.38.38,0,0,1,.06-.17.2.2,0,0,1,.09-.07.22.22,0,0,1,.14,0,.43.43,0,0,1,.16.07,1,1,0,0,1,.17.12.83.83,0,0,1,.12.16A.53.53,0,0,1,42,47a.45.45,0,0,1,0,.16.41.41,0,0,1,0,.12.16.16,0,0,1,0,.07l-.06,0h-.09a.63.63,0,0,1,.22.47A.42.42,0,0,1,42,48a.28.28,0,0,1-.1.09.22.22,0,0,1-.14,0,.45.45,0,0,1-.18-.07.61.61,0,0,1-.16-.12.86.86,0,0,1-.13-.14,1.62,1.62,0,0,1-.1-.18l-.06-.22.11,0,.08,0a.22.22,0,0,1,0,.08.36.36,0,0,0,0,.09.2.2,0,0,0,0,.08l.06.07.07.06.09,0h.07l0-.05s0,0,0-.07a.31.31,0,0,0,0-.1.36.36,0,0,0,0-.09l-.08-.1-.16-.1v-.2l.14.06h.08a.1.1,0,0,0,0-.05.19.19,0,0,0,0-.08.34.34,0,0,0-.05-.17.37.37,0,0,0-.12-.13l-.07,0h-.05l0,0,0,0s0,0,0,0l-.08,0Z"/><path d="M33,37.22v.21L32.25,37V36.8l.26.15V36l-.17.06h0l0,0s0,0,0,0l0,0-.08-.17.4-.16.2.12v1.28Z"/><path d="M34,37.82V38l-.73-.42V37.4l.25.15v-.81a.13.13,0,0,1,0-.06v0l-.17.06h0l0,0,0,0v0l-.08-.17.4-.16.2.12v1.28Z"/><path d="M33.55,47.33v.12s0,.06,0,.08l0,0-.47.86a.1.1,0,0,1,0,0s0,0-.08,0l-.18-.1.49-.83,0-.05,0,0-.6-.34,0,0a.14.14,0,0,1,0-.06V46.8Z"/><path d="M31.12,38.56v.21l-.73-.42v-.21l.26.15v-.92l-.17.06h0l0,0,0,0,0,0-.08-.17.4-.16.21.12v1.28Z"/><path d="M32.22,38.66a1.39,1.39,0,0,1,0,.32.5.5,0,0,1-.1.18.19.19,0,0,1-.16.05.41.41,0,0,1-.19-.06.9.9,0,0,1-.19-.16,1.06,1.06,0,0,1-.25-.52,2,2,0,0,1,0-.36,1.45,1.45,0,0,1,0-.32.5.5,0,0,1,.1-.18.3.3,0,0,1,.15,0,.49.49,0,0,1,.19.07.7.7,0,0,1,.19.15,1.34,1.34,0,0,1,.16.23,2,2,0,0,1,.1.29A2,2,0,0,1,32.22,38.66ZM32,38.52a2.16,2.16,0,0,0,0-.28,1.05,1.05,0,0,0-.05-.19.63.63,0,0,0-.07-.12.28.28,0,0,0-.09-.07.13.13,0,0,0-.08,0,.1.1,0,0,0-.07,0,.38.38,0,0,0-.05.14,1.47,1.47,0,0,0,0,.25,2,2,0,0,0,0,.27.74.74,0,0,0,.05.19.54.54,0,0,0,.07.13l.08.07.09,0a.09.09,0,0,0,.07,0,.32.32,0,0,0,.05-.13A1.57,1.57,0,0,0,32,38.52Z"/><path d="M31.2,44.26a.91.91,0,0,1,.17.23.74.74,0,0,1,.05.25.35.35,0,0,1,0,.16.2.2,0,0,1-.09.09h-.15L31,44.92a1.33,1.33,0,0,1-.19-.14,1,1,0,0,1-.14-.17.62.62,0,0,1-.1-.2.64.64,0,0,1,0-.2.3.3,0,0,1,0-.18.17.17,0,0,1,.17,0,.8.8,0,0,1-.13-.21.59.59,0,0,1-.05-.22.33.33,0,0,1,0-.15.16.16,0,0,1,.09-.07.18.18,0,0,1,.13,0l.17.06.16.13a.65.65,0,0,1,.13.16.76.76,0,0,1,.09.18.55.55,0,0,1,0,.17.3.3,0,0,1-.05.18A.17.17,0,0,1,31.2,44.26ZM31,44.7l.08,0a.08.08,0,0,0,.07,0,.09.09,0,0,0,0,0,.19.19,0,0,0,0-.08.42.42,0,0,0-.05-.2.54.54,0,0,0-.15-.15c-.07,0-.12-.05-.16,0s0,.07,0,.15a.29.29,0,0,0,0,.09.38.38,0,0,0,0,.1l.07.08A.22.22,0,0,0,31,44.7Zm0-1.1-.08,0-.06,0,0,0s0,0,0,.07,0,.06,0,.09l0,.08A.3.3,0,0,0,31,44l.08,0,.05,0s0,0,0-.05a.22.22,0,0,0,0-.08s0,0,0-.08l0-.08L31,43.66Z"/><path d="M30.16,40.87l0,0,0,0-.09,0a.25.25,0,0,1-.11,0l-.13-.1a.83.83,0,0,1-.11-.15.61.61,0,0,1-.09-.18.76.76,0,0,1,0-.21.43.43,0,0,1,0-.17.24.24,0,0,1,.1-.1.21.21,0,0,1,.14,0,.38.38,0,0,1,.18.06,1.33,1.33,0,0,1,.19.14.8.8,0,0,1,.13.19.72.72,0,0,1,.09.2.89.89,0,0,1,0,.22.53.53,0,0,1,0,.13l0,.1a.79.79,0,0,1,0,.09L30.4,41l-.29.31a0,0,0,0,1-.05,0,.12.12,0,0,1-.08,0l-.23-.13Zm-.26-.62a.46.46,0,0,0,.05.21.36.36,0,0,0,.15.15.16.16,0,0,0,.09,0,.07.07,0,0,0,.06,0,.1.1,0,0,0,0-.05.28.28,0,0,0,0-.09.37.37,0,0,0,0-.11.3.3,0,0,0,0-.1l-.07-.09-.08-.06-.08,0H30a.15.15,0,0,0,0,.06A.19.19,0,0,0,29.9,40.25Z"/><path class="cls-12" d="M36.38,44.14a.44.44,0,0,1-.2.42s-.23.13-.25.13,0-.11-.18-.19a1.37,1.37,0,0,1-.63-1.08c0-.15-.17-.15-.11-.23L35.3,43a.44.44,0,0,1,.45,0A1.38,1.38,0,0,1,36.38,44.14Z"/><path class="cls-11" d="M36.16,44.27c0,.39-.28.55-.63.35a1.37,1.37,0,0,1-.63-1.08c0-.4.28-.56.63-.36A1.39,1.39,0,0,1,36.16,44.27Z"/><polygon class="cls-11" points="35.85 36.68 35.65 36.57 35.65 46.6 35.85 46.71 35.85 36.68"/><polygon class="cls-4" points="6.24 17.48 6.24 37.58 5.04 37.95 5.04 16.78 6.24 17.48"/><polygon class="cls-13" points="43.67 57.74 43.67 59.19 6.24 37.58 6.24 17.48 7.87 18.42 7.87 37.07 43.67 57.74"/><polygon class="cls-5" points="43.67 59.19 43.67 60.25 5.04 37.95 6.24 37.58 43.67 59.19"/><polygon class="cls-14" points="43.67 57.74 43.67 59.19 6.24 37.58 7.87 37.07 43.67 57.74"/><ellipse class="cls-9" cx="17.53" cy="33.51" rx="5.84" ry="10.11" transform="translate(-14.52 13.43) rotate(-30.31)"/><polygon class="cls-11" points="17.66 41.82 17.39 41.66 17.39 40.9 17.66 41.05 17.66 41.82"/><polygon points="18.22 42.1 18.15 41.3 18.27 41.35 18.34 42.16 18.22 42.1"/><polygon points="18.96 42.41 18.82 41.58 18.94 41.61 19.08 42.44 18.96 42.41"/><polygon points="19.69 42.61 19.48 41.76 19.59 41.78 19.8 42.63 19.69 42.61"/><polygon points="20.39 42.71 20.12 41.85 20.23 41.86 20.5 42.72 20.39 42.71"/><polygon points="21.03 42.72 20.7 41.86 20.86 41.84 21.2 42.7 21.03 42.72"/><polygon points="21.7 42.62 21.3 41.76 21.4 41.74 21.79 42.59 21.7 42.62"/><polygon points="22.29 42.42 21.83 41.58 21.92 41.54 22.37 42.38 22.29 42.42"/><polygon points="22.82 42.12 22.32 41.31 22.39 41.26 22.9 42.07 22.82 42.12"/><polygon points="23.3 41.73 22.75 40.96 22.82 40.89 23.37 41.67 23.3 41.73"/><polygon points="23.69 41.28 23.1 40.55 23.2 40.41 23.79 41.15 23.69 41.28"/><polygon points="24.06 40.69 23.44 40.01 23.48 39.92 24.11 40.6 24.06 40.69"/><polygon points="24.33 40.05 23.68 39.43 23.72 39.32 24.37 39.94 24.33 40.05"/><polygon points="24.53 39.33 23.86 38.78 23.89 38.66 24.56 39.22 24.53 39.33"/><polygon points="24.66 38.55 23.97 38.07 23.98 37.95 24.67 38.43 24.66 38.55"/><polygon class="cls-11" points="24.7 37.81 24.01 37.41 24.01 37.1 24.7 37.5 24.7 37.81"/><polygon points="23.98 36.52 23.96 36.38 24.66 36.7 24.67 36.84 23.98 36.52"/><polygon points="23.88 35.7 23.85 35.55 24.53 35.78 24.56 35.92 23.88 35.7"/><polygon points="23.7 34.84 23.67 34.7 24.33 34.83 24.37 34.98 23.7 34.84"/><polygon points="23.46 33.98 23.42 33.83 24.06 33.87 24.11 34.02 23.46 33.98"/><polygon points="23.18 33.16 23.08 32.91 23.69 32.86 23.79 33.1 23.18 33.16"/><polygon points="22.79 32.24 22.73 32.1 23.3 31.95 23.37 32.1 22.79 32.24"/><polygon points="22.37 31.39 22.29 31.25 22.82 31.01 22.9 31.15 22.37 31.39"/><polygon points="21.9 30.57 21.81 30.43 22.29 30.09 22.37 30.23 21.9 30.57"/><polygon points="21.37 29.77 21.28 29.64 21.7 29.22 21.79 29.35 21.37 29.77"/><polygon points="20.84 29.06 20.68 28.85 21.03 28.35 21.2 28.56 20.84 29.06"/><polygon points="20.21 28.31 20.1 28.2 20.39 27.62 20.5 27.73 20.21 28.31"/><polygon points="19.58 27.66 19.47 27.56 19.69 26.91 19.8 27.01 19.58 27.66"/><polygon points="18.93 27.08 18.82 26.99 18.96 26.27 19.08 26.37 18.93 27.08"/><polygon points="18.26 26.57 18.14 26.49 18.22 25.72 18.34 25.8 18.26 26.57"/><polygon class="cls-11" points="17.66 26.18 17.39 26.02 17.39 25.2 17.66 25.36 17.66 26.18"/><polygon points="16.8 25.73 16.72 24.86 16.84 24.92 16.91 25.78 16.8 25.73"/><polygon points="16.13 25.47 15.98 24.58 16.09 24.62 16.24 25.5 16.13 25.47"/><polygon points="15.48 25.3 15.26 24.39 15.37 24.41 15.59 25.32 15.48 25.3"/><polygon points="14.85 25.22 14.56 24.3 14.66 24.31 14.95 25.23 14.85 25.22"/><polygon points="14.21 25.23 13.86 24.32 14.02 24.3 14.38 25.22 14.21 25.23"/><polygon points="13.68 25.33 13.26 24.43 13.36 24.4 13.78 25.31 13.68 25.33"/><polygon points="13.16 25.52 12.69 24.64 12.77 24.6 13.25 25.48 13.16 25.52"/><polygon points="12.69 25.8 12.16 24.95 12.23 24.9 12.76 25.75 12.69 25.8"/><polygon points="12.26 26.16 11.69 25.36 11.76 25.29 12.33 26.09 12.26 26.16"/><polygon points="11.88 26.63 11.27 25.88 11.36 25.74 11.97 26.5 11.88 26.63"/><polygon points="11.59 27.12 10.95 26.43 11 26.33 11.64 27.03 11.59 27.12"/><polygon points="11.35 27.71 10.69 27.08 10.72 26.98 11.39 27.61 11.35 27.71"/><polygon points="11.18 28.36 10.5 27.81 10.52 27.69 11.2 28.25 11.18 28.36"/><polygon points="11.08 29.08 10.39 28.59 10.4 28.47 11.09 28.95 11.08 29.08"/><polygon class="cls-11" points="11.05 29.92 10.35 29.52 10.35 29.21 11.05 29.61 11.05 29.92"/><polygon points="10.4 30.32 10.39 30.18 11.07 30.5 11.09 30.64 10.4 30.32"/><polygon points="10.52 31.24 10.5 31.1 11.17 31.32 11.2 31.47 10.52 31.24"/><polygon points="10.72 32.19 10.69 32.04 11.34 32.17 11.37 32.32 10.72 32.19"/><polygon points="11 33.15 10.95 33 11.57 33.04 11.62 33.19 11 33.15"/><polygon points="11.36 34.16 11.27 33.92 11.86 33.87 11.95 34.11 11.36 34.16"/><polygon points="11.76 35.07 11.69 34.92 12.24 34.78 12.31 34.93 11.76 35.07"/><polygon points="12.23 36.01 12.16 35.87 12.66 35.64 12.74 35.78 12.23 36.01"/><polygon points="12.77 36.93 12.69 36.79 13.14 36.47 13.22 36.61 12.77 36.93"/><polygon points="13.36 37.8 13.26 37.67 13.66 37.27 13.75 37.41 13.36 37.8"/><polygon points="14.02 38.67 13.86 38.47 14.19 37.99 14.36 38.2 14.02 38.67"/><polygon points="14.66 39.4 14.56 39.29 14.83 38.74 14.94 38.86 14.66 39.4"/><polygon points="15.37 40.11 15.26 40.01 15.46 39.4 15.57 39.5 15.37 40.11"/><polygon points="16.09 40.75 15.98 40.66 16.12 39.99 16.23 40.08 16.09 40.75"/><polygon points="16.84 41.3 16.72 41.22 16.79 40.5 16.91 40.58 16.84 41.3"/><path class="cls-10" d="M18.53,33.67c0,.4-.28.56-.63.36a1.39,1.39,0,0,1-.63-1.09c0-.4.28-.56.63-.36A1.39,1.39,0,0,1,18.53,33.67Z"/><polygon class="cls-10" points="15.04 27.91 14.61 28.16 17.74 33.55 18.16 33.31 15.04 27.91"/><polygon class="cls-10" points="23.48 39.96 23.73 39.48 18.08 33.19 17.82 33.67 23.48 39.96"/><polygon class="cls-10" points="18.05 26.33 17.86 26.22 17.86 36.25 18.05 36.36 18.05 26.33"/><polygon points="14.61 27.99 14.19 28.24 17.32 33.63 17.74 33.39 14.61 27.99"/><polygon points="23.05 40.04 23.31 39.56 17.66 33.27 17.4 33.75 23.05 40.04"/><path d="M17.46,27.56v.21l-.73-.42v-.21l.26.15v-.92l-.17.06a0,0,0,0,1,0,0l0,0,0,0,0,0-.08-.17L17,26l.21.11v1.29Z"/><path d="M18.44,28.08l.07.06a.31.31,0,0,1,0,.08v.17l-.9-.52v-.09a.07.07,0,0,1,0-.05s0,0,0,0l.39-.22.08-.06a.23.23,0,0,0,.07-.07l0-.08a.3.3,0,0,0,0-.1.34.34,0,0,0-.05-.17.27.27,0,0,0-.13-.13l-.06,0H18l0,0a.08.08,0,0,0,0,.05s0,0,0,0a.12.12,0,0,1-.08,0l-.13-.1a.5.5,0,0,1,.05-.16.25.25,0,0,1,.1-.08.33.33,0,0,1,.14,0,.43.43,0,0,1,.16.07.66.66,0,0,1,.17.12,1.09,1.09,0,0,1,.13.17.75.75,0,0,1,.08.18.63.63,0,0,1,0,.19.59.59,0,0,1,0,.14.33.33,0,0,1-.06.1.6.6,0,0,1-.08.08l-.1.06-.27.16.09,0,.08,0Z"/><path d="M17.53,39.82l0,0,.08,0,.08,0a.49.49,0,0,1,.14.11.64.64,0,0,1,.13.15,1.08,1.08,0,0,1,.08.19.78.78,0,0,1,0,.22.43.43,0,0,1,0,.17.2.2,0,0,1-.09.11.24.24,0,0,1-.15,0,.4.4,0,0,1-.19-.07.7.7,0,0,1-.19-.15.52.52,0,0,1-.14-.19.85.85,0,0,1-.09-.22.57.57,0,0,1,0-.42.62.62,0,0,1,.11-.17l.31-.29.05,0,.08,0,.22.13Zm0,.76.09,0,.08,0,0-.05a.3.3,0,0,0,0-.1.68.68,0,0,0-.06-.22.35.35,0,0,0-.07-.09l-.1-.07-.08,0a.08.08,0,0,0-.07,0,.09.09,0,0,0,0,.06.2.2,0,0,0,0,.09s0,.08,0,.11,0,.08,0,.11l.07.09Z"/><path d="M20.81,30.45v.2l-.73-.42V30l.26.14v-.92l-.17.06s0,0,0,0h0l0,0s0,0,0,0L20,29.07l.4-.15.2.11v1.29Z"/><path d="M20.25,40.43l.08,0,.07,0a.86.86,0,0,1,.18.14.75.75,0,0,1,.13.18.46.46,0,0,1,.08.19.63.63,0,0,1,0,.19.4.4,0,0,1,0,.2.27.27,0,0,1-.1.11.24.24,0,0,1-.15,0,.64.64,0,0,1-.2-.08l-.12-.08a.94.94,0,0,1-.1-.1.87.87,0,0,1-.09-.11l-.08-.11L20,41s0,0,.06,0l.05,0,.05.07.07.08.1.07a.19.19,0,0,0,.1,0,.07.07,0,0,0,.07,0,.09.09,0,0,0,0-.06.37.37,0,0,0,0-.11.46.46,0,0,0-.05-.21.44.44,0,0,0-.17-.16.45.45,0,0,0-.18-.07L20,40.5l.11-.67.65.37v.17l0,0h0l-.07,0-.34-.19Z"/><path d="M22.87,34a.17.17,0,0,1,.06.06.12.12,0,0,1,0,.08v.17l-.9-.52v-.1a.43.43,0,0,0,0,0s0,0,0,0l.38-.22.09-.05.06-.07a.2.2,0,0,0,0-.08.31.31,0,0,0,0-.1.48.48,0,0,0,0-.18.37.37,0,0,0-.13-.12s-.05,0-.07,0h-.05l0,0,0,0s0,0,0,0,0,0-.08,0l-.13-.1a.34.34,0,0,1,.06-.16.14.14,0,0,1,.09-.08.22.22,0,0,1,.14,0,.52.52,0,0,1,.16.06.76.76,0,0,1,.17.13,1,1,0,0,1,.13.16.64.64,0,0,1,.08.19.58.58,0,0,1,0,.19.32.32,0,0,1,0,.14.26.26,0,0,1-.14.17l-.09.07-.28.16.09,0,.09,0Z"/><path d="M23,40v.16s0,0,0,0a0,0,0,0,1,0,0l-.1-.06v.36l-.22-.13V40l-.54-.31s0,0,0,0a.14.14,0,0,1,0-.06l0-.16.61-.58.24.13v.93Zm-.37-.21v-.51s0-.06,0-.08l-.38.38Z"/><path d="M22.94,36.45a.6.6,0,0,1,0-.16.25.25,0,0,1,.1-.08h.14a.43.43,0,0,1,.16.07,1,1,0,0,1,.17.12.61.61,0,0,1,.12.16.89.89,0,0,1,.08.17.45.45,0,0,1,0,.16.37.37,0,0,1,0,.12.16.16,0,0,1,0,.07.06.06,0,0,1-.06,0h-.08a.63.63,0,0,1,.22.47.3.3,0,0,1,0,.18.2.2,0,0,1-.09.09h-.15a.47.47,0,0,1-.17-.07.66.66,0,0,1-.17-.12.44.44,0,0,1-.12-.15,1,1,0,0,1-.1-.17,1.42,1.42,0,0,1-.07-.22H23a.2.2,0,0,1,.08,0,.11.11,0,0,1,.05.08.36.36,0,0,1,0,.09.56.56,0,0,0,.05.08.18.18,0,0,0,.05.07l.08.06a.16.16,0,0,0,.09,0h.06a.1.1,0,0,0,0,0,.17.17,0,0,0,0-.07v-.1a.36.36,0,0,0,0-.09l-.09-.1-.15-.1v-.2l.13.06h.08a0,0,0,0,0,0,0,.19.19,0,0,0,0-.08.34.34,0,0,0-.05-.17.37.37,0,0,0-.12-.13l-.07,0h0a.05.05,0,0,0,0,0,.13.13,0,0,0,0,0s0,0,0,0l-.08,0Z"/><path d="M14.75,27v.21L14,26.74v-.21l.25.15v-.87a.43.43,0,0,1,0,0l-.17.06h0l0,0,0,0v0l-.08-.17.4-.16.2.12v1.28Z"/><path d="M15.79,27.55v.21l-.73-.42v-.21l.26.15v-.87a.07.07,0,0,1,0-.05l-.17.06h0l0,0,0,0,0,0L15,26.18l.39-.16.21.12v1.28Z"/><path d="M15.32,37.05v.13a.19.19,0,0,1,0,.08.08.08,0,0,1,0,0l-.47.86a.1.1,0,0,1-.05,0,.09.09,0,0,1-.08,0l-.18-.1.48-.83,0,0,0,0-.6-.34,0,0a.07.07,0,0,1,0-.06v-.19Z"/><path d="M12.9,28.29v.21l-.73-.42v-.21l.26.15V27.1l-.17.06h0l0,0s0,0,0,0,0,0,0,0l-.08-.17.4-.16.2.12v1.28Z"/><path d="M14,28.39a1,1,0,0,1,0,.32.32.32,0,0,1-.1.18.17.17,0,0,1-.15.05.38.38,0,0,1-.19-.06.7.7,0,0,1-.19-.16.86.86,0,0,1-.15-.22,1.32,1.32,0,0,1-.1-.3,2,2,0,0,1,0-.36,1.32,1.32,0,0,1,0-.32.39.39,0,0,1,.1-.18.2.2,0,0,1,.15-.05.52.52,0,0,1,.19.06,1,1,0,0,1,.19.16.76.76,0,0,1,.15.23A.91.91,0,0,1,14,28,1.37,1.37,0,0,1,14,28.39Zm-.25-.14a2.16,2.16,0,0,0,0-.28c0-.07,0-.14-.05-.19a.36.36,0,0,0-.08-.12.18.18,0,0,0-.08-.07l-.08,0a.1.1,0,0,0-.07,0,.38.38,0,0,0,0,.14,1.47,1.47,0,0,0,0,.25,2.13,2.13,0,0,0,0,.27.74.74,0,0,0,0,.19.54.54,0,0,0,.07.13.27.27,0,0,0,.08.07l.08,0a.09.09,0,0,0,.08,0,.59.59,0,0,0,.05-.13A1.57,1.57,0,0,0,13.75,28.25Z"/><path d="M13,34a.76.76,0,0,1,.18.23.7.7,0,0,1,0,.25.35.35,0,0,1,0,.16.28.28,0,0,1-.1.09h-.14a.6.6,0,0,1-.19-.08.83.83,0,0,1-.18-.13.84.84,0,0,1-.15-.18.66.66,0,0,1-.09-.19.64.64,0,0,1,0-.2.24.24,0,0,1,.05-.18.16.16,0,0,1,.17,0,.85.85,0,0,1-.14-.21.57.57,0,0,1,0-.22.33.33,0,0,1,0-.15.18.18,0,0,1,.08-.07.22.22,0,0,1,.14,0l.16.06a1.09,1.09,0,0,1,.17.13,1,1,0,0,1,.13.16.76.76,0,0,1,.09.18.55.55,0,0,1,0,.17.25.25,0,0,1-.05.17A.16.16,0,0,1,13,34Zm-.23.44.09,0h.06a.1.1,0,0,0,0-.05.19.19,0,0,0,0-.08.33.33,0,0,0,0-.2.36.36,0,0,0-.15-.15q-.11-.06-.15,0a.17.17,0,0,0-.05.14.31.31,0,0,0,0,.1.36.36,0,0,0,0,.09l.06.09Zm0-1.1a.13.13,0,0,0-.08,0s0,0-.05,0l0,0a.15.15,0,0,0,0,.07.28.28,0,0,0,0,.09.13.13,0,0,0,0,.08.22.22,0,0,0,.05.08.27.27,0,0,0,.08.07l.09,0,.05,0,0,0v-.16a.2.2,0,0,0,0-.08.35.35,0,0,0,0-.08Z"/><path d="M11.94,30.6l0,0,0,0a.18.18,0,0,1-.1,0l-.1,0-.13-.1-.12-.15a1.42,1.42,0,0,1-.08-.18.76.76,0,0,1,0-.21.43.43,0,0,1,0-.17.18.18,0,0,1,.09-.1.32.32,0,0,1,.14,0,.56.56,0,0,1,.19.07.86.86,0,0,1,.18.14.85.85,0,0,1,.14.19.72.72,0,0,1,.09.2.89.89,0,0,1,0,.22c0,.05,0,.09,0,.13l0,.1a.41.41,0,0,1,0,.09.13.13,0,0,1-.06.07l-.28.31h-.06l-.07,0-.23-.13ZM11.68,30a.36.36,0,0,0,.05.21.36.36,0,0,0,.15.15l.08,0H12a.1.1,0,0,0,0-.05.28.28,0,0,0,0-.09.37.37,0,0,0,0-.11A.31.31,0,0,0,12,30a.18.18,0,0,0-.06-.09l-.08-.06a.16.16,0,0,0-.09,0h-.06a.1.1,0,0,0,0,.05A.28.28,0,0,0,11.68,30Z"/><path class="cls-12" d="M18.16,33.87a.45.45,0,0,1-.2.42s-.23.12-.25.13,0-.11-.18-.19a1.37,1.37,0,0,1-.63-1.08c0-.15-.18-.15-.11-.23l.29-.17a.44.44,0,0,1,.45,0A1.37,1.37,0,0,1,18.16,33.87Z"/><path class="cls-11" d="M17.93,34c0,.4-.28.56-.62.36a1.37,1.37,0,0,1-.63-1.08c0-.4.28-.56.63-.36A1.4,1.4,0,0,1,17.93,34Z"/><polygon class="cls-11" points="17.62 26.41 17.43 26.3 17.43 36.33 17.62 36.44 17.62 26.41"/><path class="cls-15" d="M23.48,13.44a4.83,4.83,0,0,1-4.38,0,1.34,1.34,0,0,1,0-2.53,4.85,4.85,0,0,1,4.39,0A1.34,1.34,0,0,1,23.48,13.44Z"/><path class="cls-12" d="M24,13.56a4.68,4.68,0,0,1-4.22,0c-1.16-.68-1.24-1.84,0-2.67A4.37,4.37,0,0,1,24,11,1.44,1.44,0,0,1,24,13.56Z"/><path class="cls-16" d="M23.76,13.06a4.27,4.27,0,0,1-3.86,0,1.18,1.18,0,0,1,0-2.23,4.27,4.27,0,0,1,3.86,0C24.82,11.45,24.83,12.45,23.76,13.06Z"/><path d="M23.43,12.75l-.06,0a3.6,3.6,0,0,1-3.09,0l0,0c-.87-.5-.89-1.31-.06-1.82l.05,0a3.52,3.52,0,0,1,3.19,0l0,0A1,1,0,0,1,23.43,12.75Z"/><path class="cls-17" d="M23.47,9.54v2.91h0a.6.6,0,0,1-.1.33,3.6,3.6,0,0,1-3.09,0,.84.84,0,0,1-.1-.32V9.54h.19a1.2,1.2,0,0,1,.29-.24,2.59,2.59,0,0,1,2.32,0,1.48,1.48,0,0,1,.3.23Z"/><path class="cls-12" d="M23.76,10.15a4.27,4.27,0,0,1-3.86,0,1.18,1.18,0,0,1,0-2.23,4.27,4.27,0,0,1,3.86,0C24.82,8.54,24.83,9.53,23.76,10.15Z"/><rect class="cls-12" x="19.1" y="8.3" width="5.46" height="0.73"/><path class="cls-16" d="M23.76,9.42a4.27,4.27,0,0,1-3.86,0,1.18,1.18,0,0,1,0-2.23,4.27,4.27,0,0,1,3.86,0C24.82,7.81,24.83,8.8,23.76,9.42Z"/><path class="cls-18" d="M23.51,9.27a4,4,0,0,1-3.62,0,1.1,1.1,0,0,1,0-2.09,4,4,0,0,1,3.62,0C24.5,7.76,24.51,8.69,23.51,9.27Z"/><polygon class="cls-19" points="0 7.69 48.71 34.69 62.03 28.12 48.71 35.81 0 7.69"/><polygon class="cls-20" points="6.24 17.48 7.87 19.95 42.23 39.49 42.3 57.34 42.3 58.4 43.67 60.25 43.67 39.09 6.24 17.48"/><path class="cls-15" d="M41.92,24.08a4.82,4.82,0,0,1-4.39,0,1.34,1.34,0,0,1,0-2.53,4.86,4.86,0,0,1,4.38,0C43.12,22.25,43.12,23.39,41.92,24.08Z"/><path class="cls-12" d="M42.47,24.2a4.65,4.65,0,0,1-4.22,0c-1.17-.67-1.25-1.84,0-2.66a4.32,4.32,0,0,1,4.22.13A1.44,1.44,0,0,1,42.47,24.2Z"/><path class="cls-16" d="M42.2,23.71a4.27,4.27,0,0,1-3.86,0c-1.07-.62-1.08-1.62,0-2.23a4.27,4.27,0,0,1,3.86,0A1.18,1.18,0,0,1,42.2,23.71Z"/><path d="M41.86,23.39l-.06,0a3.54,3.54,0,0,1-3.08,0l0,0c-.87-.5-.89-1.31-.05-1.82l0,0a3.52,3.52,0,0,1,3.19,0l0,0C42.74,22.09,42.72,22.89,41.86,23.39Z"/><path class="cls-17" d="M41.9,20.18v2.91h0a.53.53,0,0,1-.1.33,3.54,3.54,0,0,1-3.08,0,.55.55,0,0,1-.1-.32V20.18h.18a1.48,1.48,0,0,1,.3-.23,2.56,2.56,0,0,1,2.32,0,1.18,1.18,0,0,1,.29.23Z"/><path class="cls-12" d="M42.2,20.79a4.27,4.27,0,0,1-3.86,0,1.18,1.18,0,0,1,0-2.23,4.27,4.27,0,0,1,3.86,0A1.18,1.18,0,0,1,42.2,20.79Z"/><rect class="cls-12" x="37.53" y="18.94" width="5.46" height="0.73"/><path class="cls-16" d="M42.2,20.06a4.27,4.27,0,0,1-3.86,0,1.18,1.18,0,0,1,0-2.23,4.27,4.27,0,0,1,3.86,0A1.18,1.18,0,0,1,42.2,20.06Z"/><path class="cls-18" d="M41.94,19.91a4,4,0,0,1-3.62,0c-1-.58-1-1.52,0-2.09a4,4,0,0,1,3.62,0C42.94,18.4,42.94,19.34,41.94,19.91Z"/></g></g></g></svg>