<svg xmlns="http://www.w3.org/2000/svg" viewBox="0 0 70.68 69.94"><defs><style>.cls-1{isolation:isolate;}.cls-2{fill:#d7dce0;}.cls-2,.cls-21{mix-blend-mode:multiply;}.cls-3{fill:#0f0f0f;}.cls-4{fill:#875f41;}.cls-5{fill:#bf9c7c;}.cls-6{fill:#e0d4a4;}.cls-7{fill:#282828;}.cls-8{fill:#242424;}.cls-9{fill:#323232;}.cls-10{fill:#ccc;}.cls-11{fill:#c8d2db;}.cls-12{fill:#ff223d;}.cls-13{fill:#b30b29;}.cls-14{fill:#9ca4ab;}.cls-15{fill:#bcc6cf;}.cls-16{fill:#171717;}.cls-17{fill:#ff454c;}.cls-18{fill:#7d001f;}.cls-19{fill:#dd2f36;}.cls-20{fill:#474747;}.cls-21{fill:#a6a6a6;}</style></defs><g class="cls-1"><g id="Capa_2" data-name="Capa 2"><g id="layer"><polygon class="cls-2" points="57.37 69.94 44.13 69.94 0 45.37 10.64 37.75 14.06 37.53 14.06 44.94 57.37 69.94"/><polygon class="cls-3" points="8.65 41.82 8.65 7.69 57.37 35.81 57.37 69.94 8.65 41.82"/><polygon class="cls-4" points="54.66 37.37 11.36 12.37 11.36 40.26 54.66 65.26 54.66 37.37"/><polygon class="cls-5" points="54.66 37.37 54.66 65.26 55.33 64.88 55.33 36.99 54.66 37.37"/><polygon class="cls-6" points="54.66 37.37 11.36 12.37 12.02 11.98 55.33 36.99 54.66 37.37"/><polygon class="cls-7" points="57.37 35.81 70.68 28.12 70.68 62.25 57.37 69.94 57.37 35.81"/><polygon class="cls-8" points="57.37 35.81 58.27 67.96 70.68 61.61 70.68 28.12 70.68 62.25 57.37 69.94 57.37 35.81"/><polygon class="cls-9" points="57.37 35.81 70.68 28.12 21.97 0 8.65 7.69 57.37 35.81"/><polygon class="cls-10" points="52.33 39.09 13.69 16.78 13.69 37.95 52.33 60.25 52.33 39.09"/><path class="cls-10" d="M51.58,47.92c0,4.55-3.21,6.38-7.17,4.09a15.77,15.77,0,0,1-7.18-12.37c0-4.55,3.21-6.38,7.18-4.09A15.82,15.82,0,0,1,51.58,47.92Z"/><path class="cls-11" d="M45.41,43.94c0,.4-.29.56-.63.36a1.39,1.39,0,0,1-.63-1.09c0-.4.28-.56.63-.36A1.41,1.41,0,0,1,45.41,43.94Z"/><polygon class="cls-11" points="41.91 38.18 41.49 38.43 44.62 43.82 45.04 43.58 41.91 38.18"/><polygon class="cls-11" points="50.35 50.23 50.61 49.75 44.96 43.46 44.7 43.94 50.35 50.23"/><polygon class="cls-11" points="44.92 36.6 44.73 36.49 44.73 46.52 44.92 46.63 44.92 36.6"/><polygon class="cls-12" points="44.54 52.09 44.27 51.94 44.27 51.17 44.54 51.32 44.54 52.09"/><polygon points="45.1 52.38 45.03 51.57 45.14 51.63 45.21 52.43 45.1 52.38"/><polygon points="45.84 52.68 45.7 51.85 45.81 51.88 45.95 52.71 45.84 52.68"/><polygon points="46.57 52.88 46.36 52.03 46.47 52.05 46.68 52.9 46.57 52.88"/><polygon points="47.27 52.98 47 52.12 47.1 52.13 47.38 52.99 47.27 52.98"/><polygon points="47.91 52.99 47.57 52.13 47.74 52.11 48.08 52.97 47.91 52.99"/><polygon points="48.58 52.89 48.18 52.03 48.27 52.01 48.67 52.86 48.58 52.89"/><polygon points="49.16 52.69 48.71 51.85 48.8 51.81 49.25 52.65 49.16 52.69"/><polygon points="49.7 52.4 49.2 51.59 49.27 51.53 49.77 52.34 49.7 52.4"/><polygon points="50.17 52.01 49.63 51.23 49.69 51.16 50.24 51.94 50.17 52.01"/><polygon points="50.57 51.55 49.98 50.82 50.08 50.69 50.67 51.42 50.57 51.55"/><polygon points="50.94 50.96 50.31 50.28 50.36 50.19 50.98 50.87 50.94 50.96"/><polygon points="51.21 50.32 50.56 49.7 50.6 49.59 51.25 50.21 51.21 50.32"/><polygon points="51.41 49.6 50.74 49.05 50.76 48.94 51.43 49.49 51.41 49.6"/><polygon points="51.53 48.82 50.85 48.34 50.86 48.22 51.55 48.7 51.53 48.82"/><polygon class="cls-12" points="51.58 48.08 50.89 47.68 50.89 47.37 51.58 47.77 51.58 48.08"/><polygon points="50.85 46.79 50.84 46.66 51.53 46.97 51.55 47.11 50.85 46.79"/><polygon points="50.75 45.97 50.73 45.82 51.41 46.05 51.43 46.19 50.75 45.97"/><polygon points="50.58 45.11 50.55 44.97 51.21 45.1 51.25 45.25 50.58 45.11"/><polygon points="50.34 44.25 50.3 44.1 50.94 44.14 50.98 44.29 50.34 44.25"/><polygon points="50.06 43.43 49.96 43.18 50.57 43.13 50.67 43.38 50.06 43.43"/><polygon points="49.67 42.51 49.6 42.37 50.17 42.22 50.24 42.37 49.67 42.51"/><polygon points="49.25 41.66 49.17 41.52 49.7 41.28 49.77 41.42 49.25 41.66"/><polygon points="48.77 40.84 48.69 40.7 49.16 40.37 49.25 40.51 48.77 40.84"/><polygon points="48.25 40.04 48.16 39.91 48.58 39.49 48.67 39.62 48.25 40.04"/><polygon points="47.72 39.33 47.55 39.12 47.91 38.62 48.08 38.83 47.72 39.33"/><polygon points="47.09 38.58 46.98 38.47 47.27 37.89 47.38 38 47.09 38.58"/><polygon points="46.46 37.94 46.35 37.83 46.57 37.18 46.68 37.28 46.46 37.94"/><polygon points="45.8 37.35 45.69 37.26 45.84 36.54 45.95 36.64 45.8 37.35"/><polygon points="45.14 36.84 45.02 36.76 45.1 35.99 45.21 36.07 45.14 36.84"/><polygon class="cls-12" points="44.54 36.45 44.27 36.3 44.27 35.47 44.54 35.63 44.54 36.45"/><polygon points="43.67 36 43.6 35.13 43.71 35.19 43.79 36.05 43.67 36"/><polygon points="43.01 35.74 42.86 34.85 42.97 34.89 43.12 35.78 43.01 35.74"/><polygon points="42.35 35.57 42.13 34.66 42.24 34.68 42.47 35.59 42.35 35.57"/><polygon points="41.73 35.49 41.44 34.57 41.54 34.58 41.83 35.5 41.73 35.49"/><polygon points="41.09 35.5 40.73 34.59 40.9 34.57 41.26 35.49 41.09 35.5"/><polygon points="40.56 35.6 40.14 34.7 40.23 34.67 40.65 35.58 40.56 35.6"/><polygon points="40.04 35.79 39.56 34.91 39.65 34.87 40.12 35.75 40.04 35.79"/><polygon points="39.56 36.07 39.03 35.22 39.11 35.17 39.64 36.02 39.56 36.07"/><polygon points="39.14 36.43 38.57 35.63 38.64 35.56 39.21 36.37 39.14 36.43"/><polygon points="38.75 36.9 38.15 36.15 38.24 36.01 38.85 36.77 38.75 36.9"/><polygon points="38.47 37.39 37.83 36.7 37.88 36.6 38.52 37.3 38.47 37.39"/><polygon points="38.23 37.98 37.56 37.35 37.6 37.25 38.27 37.88 38.23 37.98"/><polygon points="38.06 38.64 37.38 38.08 37.4 37.96 38.08 38.52 38.06 38.64"/><polygon points="37.96 39.35 37.26 38.86 37.28 38.74 37.97 39.22 37.96 39.35"/><polygon class="cls-12" points="37.92 40.19 37.23 39.79 37.23 39.48 37.92 39.88 37.92 40.19"/><polygon points="37.28 40.59 37.27 40.45 37.95 40.77 37.96 40.91 37.28 40.59"/><polygon points="37.4 41.51 37.38 41.37 38.05 41.59 38.07 41.74 37.4 41.51"/><polygon points="37.6 42.46 37.56 42.31 38.22 42.45 38.25 42.59 37.6 42.46"/><polygon points="37.88 43.42 37.83 43.27 38.45 43.31 38.5 43.46 37.88 43.42"/><polygon points="38.24 44.43 38.15 44.19 38.73 44.14 38.83 44.38 38.24 44.43"/><polygon points="38.64 45.34 38.57 45.2 39.12 45.05 39.18 45.2 38.64 45.34"/><polygon points="39.11 46.28 39.03 46.14 39.54 45.91 39.62 46.05 39.11 46.28"/><polygon points="39.65 47.2 39.56 47.06 40.01 46.74 40.1 46.88 39.65 47.2"/><polygon points="40.23 48.07 40.14 47.94 40.54 47.54 40.63 47.68 40.23 48.07"/><polygon points="40.9 48.94 40.73 48.74 41.07 48.26 41.24 48.47 40.9 48.94"/><polygon points="41.54 49.67 41.44 49.56 41.71 49.02 41.81 49.13 41.54 49.67"/><polygon points="42.24 50.38 42.13 50.28 42.34 49.67 42.45 49.77 42.24 50.38"/><polygon points="42.97 51.02 42.86 50.93 43 50.26 43.11 50.35 42.97 51.02"/><polygon points="43.71 51.58 43.6 51.49 43.67 50.77 43.78 50.85 43.71 51.58"/><polygon points="41.49 38.26 41.06 38.51 44.19 43.9 44.62 43.66 41.49 38.26"/><polygon points="49.93 50.31 50.19 49.83 44.53 43.54 44.28 44.02 49.93 50.31"/><path d="M44.34,37.84V38l-.73-.42v-.2l.26.14v-.92l-.17.06h-.07s0,0,0,0l0,0-.08-.17.4-.15.2.11v1.29Z"/><path d="M45.32,38.35l.06.06a.16.16,0,0,1,0,.08v.17l-.9-.52v-.09a.07.07,0,0,1,0,0s0,0,0,0l.38-.22.09-.06a.13.13,0,0,0,.06-.07.2.2,0,0,0,0-.08.28.28,0,0,0,0-.1.33.33,0,0,0,0-.17.27.27,0,0,0-.13-.13l-.06,0h-.06l0,0a.08.08,0,0,0,0,0,.05.05,0,0,1-.05,0s0,0-.07,0l-.13-.1a.28.28,0,0,1,0-.16.25.25,0,0,1,.1-.08.28.28,0,0,1,.13,0,.47.47,0,0,1,.17.07.61.61,0,0,1,.16.12.7.7,0,0,1,.13.17.61.61,0,0,1,.09.18.63.63,0,0,1,0,.19.52.52,0,0,1,0,.14l-.06.1-.08.08-.1.06-.28.16.09,0,.09,0Z"/><path d="M44.41,50.09l0,0,.07,0,.09,0a.67.67,0,0,1,.14.11.44.44,0,0,1,.12.15.66.66,0,0,1,.09.19.78.78,0,0,1,0,.22.43.43,0,0,1,0,.17.22.22,0,0,1-.1.11.22.22,0,0,1-.14,0,.4.4,0,0,1-.19-.07.94.94,0,0,1-.19-.14,1,1,0,0,1-.15-.2.78.78,0,0,1-.09-.21,1,1,0,0,1,0-.24.41.41,0,0,1,0-.19.45.45,0,0,1,.11-.17l.3-.29h.06l.08,0,.21.13Zm0,.76.09,0,.07,0a.12.12,0,0,0,0,0,.3.3,0,0,0,0-.1.43.43,0,0,0,0-.11.37.37,0,0,0,0-.11.31.31,0,0,0-.07-.09.22.22,0,0,0-.09-.07l-.08,0a.08.08,0,0,0-.07,0,.1.1,0,0,0,0,.06.22.22,0,0,0,0,.09.49.49,0,0,0,0,.12.42.42,0,0,0,0,.1l.07.09Z"/><path d="M47.68,40.72v.21L47,40.5v-.2l.26.15v-.87s0,0,0-.06l-.17.07H47l0,0,0,0-.07-.16.4-.16.2.12v1.28Z"/><path d="M47.13,50.71s0,0,.08,0l.07,0a.86.86,0,0,1,.18.14,1,1,0,0,1,.13.18.64.64,0,0,1,.08.19.63.63,0,0,1,0,.19.4.4,0,0,1,0,.2.22.22,0,0,1-.1.11.27.27,0,0,1-.16,0,.6.6,0,0,1-.19-.08l-.12-.08a.47.47,0,0,1-.1-.1l-.1-.11-.07-.11.08-.08s0,0,.06,0l0,0,.05.07.07.08.09.07.1,0a.08.08,0,0,0,.07,0,.18.18,0,0,0,0-.07.37.37,0,0,0,0-.11.39.39,0,0,0-.06-.21.49.49,0,0,0-.16-.16A.89.89,0,0,0,47,50.9l-.15-.13L47,50.1l.65.37v.12a.07.07,0,0,1,0,0l0,0h0l-.06,0-.34-.19Z"/><path d="M49.74,44.27a.13.13,0,0,1,.07.06.24.24,0,0,1,0,.08v.17l-.9-.52V44a.13.13,0,0,1,0-.06l0,0,.39-.23.08,0,.07-.07,0-.08s0-.06,0-.1a.37.37,0,0,0-.05-.18.34.34,0,0,0-.12-.12l-.07,0h0l0,0,0,.05s0,0,0,0a.12.12,0,0,1-.08,0L49,43a.5.5,0,0,1,0-.16.19.19,0,0,1,.1-.08.22.22,0,0,1,.14,0l.16.06a1.09,1.09,0,0,1,.17.13,1.83,1.83,0,0,1,.13.16,1.08,1.08,0,0,1,.08.19.58.58,0,0,1,0,.19.59.59,0,0,1,0,.14.21.21,0,0,1-.06.1.27.27,0,0,1-.08.07l-.1.07-.27.16.09,0a.2.2,0,0,1,.08,0Z"/><path d="M49.86,50.24v.16s0,0,0,0h0l-.1-.06v.36l-.21-.13v-.35L49,49.94s0,0,0,0a.14.14,0,0,1,0-.06l0-.16.61-.58.23.14v.92ZM49.5,50v-.51a.22.22,0,0,1,0-.08l-.38.38Z"/><path d="M49.82,46.73a.38.38,0,0,1,0-.17.23.23,0,0,1,.1-.07.19.19,0,0,1,.13,0,.47.47,0,0,1,.17.07,1,1,0,0,1,.16.12,1.83,1.83,0,0,1,.13.16.89.89,0,0,1,.08.17.44.44,0,0,1,0,.16.41.41,0,0,1,0,.12.16.16,0,0,1,0,.07.06.06,0,0,1-.06,0h-.08a.67.67,0,0,1,.22.47.3.3,0,0,1,0,.18.22.22,0,0,1-.1.09.22.22,0,0,1-.14,0,.47.47,0,0,1-.17-.07.66.66,0,0,1-.17-.12.86.86,0,0,1-.13-.14l-.09-.18a1.42,1.42,0,0,1-.07-.22l.11,0a.13.13,0,0,1,.08,0,.22.22,0,0,1,.05.08l0,.09a.22.22,0,0,0,0,.08.18.18,0,0,0,0,.07l.08.06a.16.16,0,0,0,.09,0h.06a.1.1,0,0,0,0-.05.17.17,0,0,0,0-.07.31.31,0,0,0,0-.1.16.16,0,0,0,0-.09l-.09-.1-.15-.1v-.2l.13.06h.08a.07.07,0,0,0,0-.05.19.19,0,0,0,0-.08.33.33,0,0,0,0-.17.4.4,0,0,0-.13-.13l-.06,0h-.06l0,0s0,0,0,0a.05.05,0,0,1,0,0l-.07,0Z"/><path d="M41.63,37.22v.21L40.9,37V36.8l.26.15V36l-.17.06h0l0,0s0,0,0,0l0,0-.08-.17.4-.16.21.12v1.28Z"/><path d="M42.67,37.82V38l-.73-.42V37.4l.26.15v-.92l-.17.06h0l0,0,0,0,0,0-.08-.17.4-.16.2.12v1.28Z"/><path d="M42.2,47.33v.12a.19.19,0,0,1,0,.08s0,0,0,0l-.47.86-.05,0a.09.09,0,0,1-.08,0l-.18-.1.48-.83,0-.05s0,0,0,0l-.6-.34s0,0,0,0a.13.13,0,0,1,0-.06V46.8Z"/><path d="M39.78,38.56v.21l-.73-.42v-.21l.26.15v-.92l-.17.06h0l0,0,0,0v0L39,37.19l.4-.16.2.12v1.28Z"/><path d="M40.88,38.66a1,1,0,0,1,0,.32.39.39,0,0,1-.1.18.17.17,0,0,1-.15.05.38.38,0,0,1-.19-.06.7.7,0,0,1-.19-.16.86.86,0,0,1-.15-.22,1.32,1.32,0,0,1-.1-.3,1.37,1.37,0,0,1,0-.36,1,1,0,0,1,0-.32.39.39,0,0,1,.1-.18.25.25,0,0,1,.15,0,.56.56,0,0,1,.19.07.9.9,0,0,1,.19.15.91.91,0,0,1,.15.23,1.24,1.24,0,0,1,.1.29A1.37,1.37,0,0,1,40.88,38.66Zm-.26-.14a1.19,1.19,0,0,0,0-.28.59.59,0,0,0-.05-.19.35.35,0,0,0-.07-.12.18.18,0,0,0-.08-.07l-.08,0s0,0-.08,0a.39.39,0,0,0,0,.14.86.86,0,0,0,0,.25,1.1,1.1,0,0,0,0,.27.78.78,0,0,0,0,.19l.08.13a.27.27,0,0,0,.08.07l.08,0a.08.08,0,0,0,.07,0,.22.22,0,0,0,.05-.13A.9.9,0,0,0,40.62,38.52Z"/><path d="M39.85,44.26a.6.6,0,0,1,.17.23.57.57,0,0,1,.06.25.25.25,0,0,1,0,.16A.2.2,0,0,1,40,45h-.14a.89.89,0,0,1-.19-.07,1.33,1.33,0,0,1-.19-.14,2.09,2.09,0,0,1-.14-.17.88.88,0,0,1-.09-.2.45.45,0,0,1,0-.2.24.24,0,0,1,.06-.18.16.16,0,0,1,.17,0,.85.85,0,0,1-.14-.21.57.57,0,0,1,0-.22.33.33,0,0,1,0-.15.18.18,0,0,1,.08-.07.19.19,0,0,1,.13,0l.17.06a1.09,1.09,0,0,1,.17.13,1,1,0,0,1,.13.16,1.42,1.42,0,0,1,.08.18A.55.55,0,0,1,40,44a.3.3,0,0,1,0,.18A.2.2,0,0,1,39.85,44.26Zm-.23.44.09,0a.06.06,0,0,0,.06,0,.1.1,0,0,0,0,0,.19.19,0,0,0,0-.08.33.33,0,0,0,0-.2.36.36,0,0,0-.15-.15q-.1-.06-.15,0s0,.07,0,.15a.28.28,0,0,0,0,.09.42.42,0,0,0,0,.1s0,.05.06.08Zm0-1.1-.08,0,0,0s0,0,0,0a.15.15,0,0,0,0,.07.28.28,0,0,0,0,.09.19.19,0,0,0,0,.08.24.24,0,0,0,.06.08.27.27,0,0,0,.08.07l.08,0,.06,0a.08.08,0,0,0,0-.05.33.33,0,0,0,0-.16.11.11,0,0,0,0-.08.35.35,0,0,0,0-.08Z"/><path d="M38.81,40.87l0,0,0,0-.1,0a.21.21,0,0,1-.1,0l-.13-.1a.57.57,0,0,1-.12-.15,1,1,0,0,1-.08-.18.76.76,0,0,1,0-.21.43.43,0,0,1,0-.17.18.18,0,0,1,.09-.1.22.22,0,0,1,.14,0,.38.38,0,0,1,.19.06,1.24,1.24,0,0,1,.18.14,1.33,1.33,0,0,1,.14.19.7.7,0,0,1,.08.2.89.89,0,0,1,0,.22.53.53,0,0,1,0,.13.3.3,0,0,1,0,.1l0,.09-.06.07-.29.31a0,0,0,0,1,0,0,.13.13,0,0,1-.08,0l-.22-.13Zm-.26-.62a.46.46,0,0,0,.05.21.54.54,0,0,0,.15.15l.09,0a.08.08,0,0,0,.07,0l0-.05s0-.06,0-.09a.36.36,0,0,0,0-.11.3.3,0,0,0,0-.1l-.06-.09-.09-.06-.08,0h-.06a.09.09,0,0,0,0,.06A.19.19,0,0,0,38.55,40.25Z"/><path class="cls-13" d="M45,44.14a.43.43,0,0,1-.2.42,2,2,0,0,1-.25.13c-.1,0,0-.11-.17-.19a1.37,1.37,0,0,1-.63-1.08c0-.15-.18-.15-.11-.23L44,43a.44.44,0,0,1,.45,0A1.4,1.4,0,0,1,45,44.14Z"/><path class="cls-12" d="M44.81,44.27c0,.39-.28.55-.63.35a1.4,1.4,0,0,1-.63-1.08c0-.4.29-.56.63-.36A1.39,1.39,0,0,1,44.81,44.27Z"/><polygon class="cls-12" points="44.5 36.68 44.31 36.57 44.31 46.6 44.5 46.71 44.5 36.68"/><polygon class="cls-5" points="14.89 17.48 14.89 37.58 13.69 37.95 13.69 16.78 14.89 17.48"/><polygon class="cls-14" points="52.33 57.74 52.33 59.19 14.89 37.58 14.89 17.48 16.53 18.42 16.53 37.07 52.33 57.74"/><polygon class="cls-6" points="52.33 59.19 52.33 60.25 13.69 37.95 14.89 37.58 52.33 59.19"/><polygon class="cls-15" points="52.33 57.74 52.33 59.19 14.89 37.58 16.53 37.07 52.33 57.74"/><ellipse class="cls-10" cx="26.18" cy="33.51" rx="5.84" ry="10.11" transform="translate(-13.33 17.79) rotate(-30.31)"/><polygon class="cls-12" points="26.32 41.82 26.05 41.66 26.05 40.9 26.32 41.05 26.32 41.82"/><polygon points="26.88 42.1 26.8 41.3 26.92 41.35 26.99 42.16 26.88 42.1"/><polygon points="27.62 42.41 27.48 41.58 27.59 41.61 27.73 42.44 27.62 42.41"/><polygon points="28.34 42.61 28.14 41.76 28.25 41.78 28.45 42.63 28.34 42.61"/><polygon points="29.05 42.71 28.78 41.85 28.88 41.86 29.15 42.72 29.05 42.71"/><polygon points="29.69 42.72 29.35 41.86 29.52 41.84 29.85 42.7 29.69 42.72"/><polygon points="30.35 42.62 29.96 41.76 30.05 41.74 30.45 42.59 30.35 42.62"/><polygon points="30.94 42.42 30.49 41.58 30.57 41.54 31.03 42.38 30.94 42.42"/><polygon points="31.48 42.12 30.97 41.31 31.05 41.26 31.55 42.07 31.48 42.12"/><polygon points="31.95 41.73 31.4 40.96 31.47 40.89 32.02 41.67 31.95 41.73"/><polygon points="32.35 41.28 31.76 40.55 31.86 40.41 32.44 41.15 32.35 41.28"/><polygon points="32.71 40.69 32.09 40.01 32.14 39.92 32.76 40.6 32.71 40.69"/><polygon points="32.99 40.05 32.34 39.43 32.37 39.32 33.02 39.94 32.99 40.05"/><polygon points="33.19 39.33 32.52 38.78 32.54 38.66 33.21 39.22 33.19 39.33"/><polygon points="33.31 38.55 32.63 38.07 32.64 37.95 33.32 38.43 33.31 38.55"/><polygon class="cls-12" points="33.36 37.81 32.66 37.41 32.66 37.1 33.36 37.5 33.36 37.81"/><polygon points="32.63 36.52 32.62 36.38 33.31 36.7 33.32 36.84 32.63 36.52"/><polygon points="32.53 35.7 32.51 35.55 33.19 35.78 33.21 35.92 32.53 35.7"/><polygon points="32.36 34.84 32.32 34.7 32.99 34.83 33.02 34.98 32.36 34.84"/><polygon points="32.12 33.98 32.07 33.83 32.71 33.87 32.76 34.02 32.12 33.98"/><polygon points="31.83 33.16 31.74 32.91 32.35 32.86 32.44 33.1 31.83 33.16"/><polygon points="31.45 32.24 31.38 32.1 31.95 31.95 32.02 32.1 31.45 32.24"/><polygon points="31.02 31.39 30.95 31.25 31.48 31.01 31.55 31.15 31.02 31.39"/><polygon points="30.55 30.57 30.46 30.43 30.94 30.09 31.03 30.23 30.55 30.57"/><polygon points="30.03 29.77 29.93 29.64 30.35 29.22 30.45 29.35 30.03 29.77"/><polygon points="29.5 29.06 29.33 28.85 29.69 28.35 29.85 28.56 29.5 29.06"/><polygon points="28.86 28.31 28.76 28.2 29.05 27.62 29.15 27.73 28.86 28.31"/><polygon points="28.23 27.66 28.12 27.56 28.34 26.91 28.45 27.01 28.23 27.66"/><polygon points="27.58 27.08 27.47 26.99 27.62 26.27 27.73 26.37 27.58 27.08"/><polygon points="26.91 26.57 26.8 26.49 26.88 25.72 26.99 25.8 26.91 26.57"/><polygon class="cls-12" points="26.32 26.18 26.05 26.02 26.05 25.2 26.32 25.36 26.32 26.18"/><polygon points="25.45 25.73 25.38 24.86 25.49 24.92 25.57 25.78 25.45 25.73"/><polygon points="24.78 25.47 24.64 24.58 24.75 24.62 24.9 25.5 24.78 25.47"/><polygon points="24.13 25.3 23.91 24.39 24.02 24.41 24.24 25.32 24.13 25.3"/><polygon points="23.5 25.22 23.21 24.3 23.32 24.31 23.61 25.23 23.5 25.22"/><polygon points="22.87 25.23 22.51 24.32 22.68 24.3 23.04 25.22 22.87 25.23"/><polygon points="22.34 25.33 21.92 24.43 22.01 24.4 22.43 25.31 22.34 25.33"/><polygon points="21.82 25.52 21.34 24.64 21.43 24.6 21.9 25.48 21.82 25.52"/><polygon points="21.34 25.8 20.81 24.95 20.89 24.9 21.42 25.75 21.34 25.8"/><polygon points="20.92 26.16 20.34 25.36 20.41 25.29 20.98 26.09 20.92 26.16"/><polygon points="20.53 26.63 19.92 25.88 20.02 25.74 20.63 26.5 20.53 26.63"/><polygon points="20.25 27.12 19.61 26.43 19.65 26.33 20.29 27.03 20.25 27.12"/><polygon points="20.01 27.71 19.34 27.08 19.38 26.98 20.04 27.61 20.01 27.71"/><polygon points="19.84 28.36 19.15 27.81 19.18 27.69 19.86 28.25 19.84 28.36"/><polygon points="19.73 29.08 19.04 28.59 19.05 28.47 19.75 28.95 19.73 29.08"/><polygon class="cls-12" points="19.7 29.92 19.01 29.52 19.01 29.21 19.7 29.61 19.7 29.92"/><polygon points="19.05 30.32 19.04 30.18 19.73 30.5 19.74 30.64 19.05 30.32"/><polygon points="19.18 31.24 19.15 31.1 19.82 31.32 19.85 31.47 19.18 31.24"/><polygon points="19.38 32.19 19.34 32.04 19.99 32.17 20.03 32.32 19.38 32.19"/><polygon points="19.65 33.15 19.61 33 20.23 33.04 20.27 33.19 19.65 33.15"/><polygon points="20.02 34.16 19.92 33.92 20.51 33.87 20.61 34.11 20.02 34.16"/><polygon points="20.41 35.07 20.34 34.92 20.89 34.78 20.96 34.93 20.41 35.07"/><polygon points="20.89 36.01 20.81 35.87 21.32 35.64 21.39 35.78 20.89 36.01"/><polygon points="21.43 36.93 21.34 36.79 21.79 36.47 21.88 36.61 21.43 36.93"/><polygon points="22.01 37.8 21.92 37.67 22.32 37.27 22.41 37.41 22.01 37.8"/><polygon points="22.68 38.67 22.51 38.47 22.85 37.99 23.01 38.2 22.68 38.67"/><polygon points="23.32 39.4 23.21 39.29 23.48 38.74 23.59 38.86 23.32 39.4"/><polygon points="24.02 40.11 23.91 40.01 24.12 39.4 24.23 39.5 24.02 40.11"/><polygon points="24.75 40.75 24.64 40.66 24.77 39.99 24.89 40.08 24.75 40.75"/><polygon points="25.49 41.3 25.38 41.22 25.45 40.5 25.56 40.58 25.49 41.3"/><path class="cls-11" d="M27.18,33.67c0,.4-.28.56-.62.36a1.39,1.39,0,0,1-.63-1.09c0-.4.28-.56.63-.36A1.4,1.4,0,0,1,27.18,33.67Z"/><polygon class="cls-11" points="23.69 27.91 23.27 28.16 26.39 33.55 26.82 33.31 23.69 27.91"/><polygon class="cls-11" points="32.13 39.96 32.39 39.48 26.73 33.19 26.48 33.67 32.13 39.96"/><polygon class="cls-11" points="26.7 26.33 26.51 26.22 26.51 36.25 26.7 36.36 26.7 26.33"/><polygon points="23.27 27.99 22.84 28.24 25.97 33.63 26.4 33.39 23.27 27.99"/><polygon points="31.71 40.04 31.96 39.56 26.31 33.27 26.05 33.75 31.71 40.04"/><path d="M26.12,27.56v.21l-.73-.42v-.21l.26.15v-.92l-.17.06a0,0,0,0,1,0,0l0,0,0,0s0,0,0,0l-.08-.17.4-.15.2.11v1.29Z"/><path d="M27.1,28.08l.06.06a.13.13,0,0,1,0,.08v.17l-.9-.52v-.09a.43.43,0,0,1,0-.05.08.08,0,0,1,0,0l.38-.22.09-.06.06-.07a.2.2,0,0,0,0-.08.31.31,0,0,0,0-.1.33.33,0,0,0,0-.17.33.33,0,0,0-.13-.13l-.07,0h-.05l0,0,0,.05s0,0,0,0,0,0-.08,0l-.13-.1a.34.34,0,0,1,.06-.16.23.23,0,0,1,.09-.08.33.33,0,0,1,.14,0,.37.37,0,0,1,.16.07.52.52,0,0,1,.17.12,1.09,1.09,0,0,1,.13.17.49.49,0,0,1,.08.18.63.63,0,0,1,0,.19.32.32,0,0,1,0,.14.31.31,0,0,1-.05.1l-.09.08-.09.06-.28.16.09,0,.09,0Z"/><path d="M26.19,39.82l0,0,.07,0,.09,0a1.1,1.1,0,0,1,.14.11,1,1,0,0,1,.12.15,1.11,1.11,0,0,1,.09.19.78.78,0,0,1,0,.22.43.43,0,0,1,0,.17.27.27,0,0,1-.1.11.24.24,0,0,1-.15,0,.45.45,0,0,1-.19-.07.9.9,0,0,1-.19-.15.94.94,0,0,1-.14-.19.91.91,0,0,1-.12-.45.41.41,0,0,1,0-.19.45.45,0,0,1,.11-.17l.3-.29.05,0,.08,0,.22.13Zm0,.76.09,0,.07,0s0,0,.05-.05a.31.31,0,0,0,0-.1.37.37,0,0,0,0-.11.37.37,0,0,0-.05-.11.22.22,0,0,0-.07-.09l-.09-.07a.16.16,0,0,0-.09,0,.09.09,0,0,0-.07,0,.15.15,0,0,0,0,.06.22.22,0,0,0,0,.09.37.37,0,0,0,0,.11.36.36,0,0,0,0,.11l.07.09A.22.22,0,0,0,26.22,40.58Z"/><path d="M29.46,30.45v.2l-.73-.42V30l.26.14v-.92l-.17.06a0,0,0,0,1,0,0h0l0,0,0,0-.08-.17.4-.15.21.11v1.29Z"/><path d="M28.91,40.43l.07,0,.08,0,.18.14a1.18,1.18,0,0,1,.13.18,1.08,1.08,0,0,1,.08.19.63.63,0,0,1,0,.19.54.54,0,0,1,0,.2.36.36,0,0,1-.1.11.29.29,0,0,1-.16,0,.6.6,0,0,1-.19-.08.36.36,0,0,1-.12-.08l-.11-.1-.09-.11-.07-.11.07-.08a0,0,0,0,1,.06,0,.1.1,0,0,1,.05,0l0,.07.07.08.1.07.1,0a.06.06,0,0,0,.07,0,.09.09,0,0,0,0-.06.36.36,0,0,0,0-.11.37.37,0,0,0-.06-.21A.38.38,0,0,0,29,40.7a.45.45,0,0,0-.18-.07l-.15-.13.11-.67.65.37v.12a.07.07,0,0,1,0,0s0,0,0,0h0l-.07,0L29,40.18Z"/><path d="M31.52,34a.09.09,0,0,1,.06.06.13.13,0,0,1,0,.08v.17l-.9-.52v-.1a.11.11,0,0,1,0,0,.05.05,0,0,1,0,0l.39-.22.08-.05a.19.19,0,0,0,.06-.07.2.2,0,0,0,0-.08.31.31,0,0,0,0-.1.34.34,0,0,0,0-.18.3.3,0,0,0-.13-.12s0,0-.06,0H31l0,0a.08.08,0,0,0,0,0s0,0-.05,0a.13.13,0,0,1-.07,0l-.13-.1a.34.34,0,0,1,.05-.16.19.19,0,0,1,.1-.08.19.19,0,0,1,.13,0,.58.58,0,0,1,.17.06,1.09,1.09,0,0,1,.17.13,1,1,0,0,1,.13.16,1.08,1.08,0,0,1,.08.19.58.58,0,0,1,0,.19.59.59,0,0,1,0,.14l-.06.1a.27.27,0,0,1-.08.07l-.1.07-.27.16.09,0,.08,0Z"/><path d="M31.64,40v.16s0,0,0,0,0,0,0,0l-.1-.06v.36l-.21-.13V40l-.54-.31,0,0s0,0,0-.06l0-.16.61-.58.23.13v.93Zm-.36-.21v-.59l-.37.38Z"/><path d="M31.59,36.45a.38.38,0,0,1,.06-.16.2.2,0,0,1,.1-.08h.13a.37.37,0,0,1,.16.07.74.74,0,0,1,.17.12,1,1,0,0,1,.13.16.51.51,0,0,1,.07.17.45.45,0,0,1,0,.16.41.41,0,0,1,0,.12.16.16,0,0,1,0,.07.09.09,0,0,1-.06,0h-.09a.64.64,0,0,1,.23.47.4.4,0,0,1,0,.18.28.28,0,0,1-.1.09h-.14a.45.45,0,0,1-.18-.07.61.61,0,0,1-.16-.12.64.64,0,0,1-.13-.15.56.56,0,0,1-.09-.17,1.42,1.42,0,0,1-.07-.22h.11l.08,0a.16.16,0,0,1,.05.08.36.36,0,0,0,0,.09l0,.08.06.07.07.06.09,0h.07l0,0s0-.05,0-.07a.31.31,0,0,0,0-.1.18.18,0,0,0,0-.09l-.08-.1-.16-.1v-.2l.14.06h.08s0,0,0,0a.19.19,0,0,0,0-.08.33.33,0,0,0,0-.17A.4.4,0,0,0,32,36.5l-.07,0h-.05l0,0s0,0,0,0,0,0-.05,0l-.08,0Z"/><path d="M23.41,27v.21l-.73-.42v-.21l.26.15v-.92l-.17.06h0l0,0,0,0,0,0-.08-.17.4-.16.2.12v1.28Z"/><path d="M24.45,27.55v.21l-.73-.42v-.21l.26.15v-.92l-.17.06h0l0,0,0,0s0,0,0,0l-.08-.16L24,26l.2.12v1.28Z"/><path d="M24,37.05v.13s0,.06,0,.08l0,0-.48.86a.08.08,0,0,1,0,0s-.05,0-.09,0l-.18-.1.49-.83a.1.1,0,0,1,0,0l0,0-.6-.34a.08.08,0,0,1,0,0,.14.14,0,0,1,0-.06v-.19Z"/><path d="M21.55,28.29v.21l-.73-.42v-.21l.26.15v-.87a.09.09,0,0,1,0,0l-.17.06h0l0,0,0,0,0,0-.07-.17.4-.16.2.12v1.28Z"/><path d="M22.66,28.39a1.32,1.32,0,0,1,0,.32.39.39,0,0,1-.1.18.17.17,0,0,1-.15.05.35.35,0,0,1-.19-.06.58.58,0,0,1-.19-.16,1.25,1.25,0,0,1-.16-.22,1.32,1.32,0,0,1-.09-.3,1.37,1.37,0,0,1,0-.36,1,1,0,0,1,0-.32.38.38,0,0,1,.09-.18.24.24,0,0,1,.16-.05.58.58,0,0,1,.19.06,1.35,1.35,0,0,1,.19.16,1,1,0,0,1,.15.23,1.24,1.24,0,0,1,.1.29A2,2,0,0,1,22.66,28.39Zm-.26-.14a2.16,2.16,0,0,0,0-.28.87.87,0,0,0-.05-.19.35.35,0,0,0-.07-.12l-.08-.07a.16.16,0,0,0-.09,0,.13.13,0,0,0-.07,0,.72.72,0,0,0-.05.14A1.47,1.47,0,0,0,22,28a2.13,2.13,0,0,0,0,.27,1.67,1.67,0,0,0,.05.19c0,.05.05.09.07.13l.09.07.08,0a.08.08,0,0,0,.07,0,.32.32,0,0,0,.05-.13A1.57,1.57,0,0,0,22.4,28.25Z"/><path d="M21.63,34a.72.72,0,0,1,.17.23.53.53,0,0,1,.05.25.35.35,0,0,1,0,.16.2.2,0,0,1-.09.09h-.15a.67.67,0,0,1-.18-.08l-.19-.13a1.24,1.24,0,0,1-.14-.18,1.14,1.14,0,0,1-.1-.19.64.64,0,0,1,0-.2.3.3,0,0,1,0-.18.18.18,0,0,1,.18,0,.64.64,0,0,1-.14-.21.59.59,0,0,1-.05-.22.33.33,0,0,1,0-.15.16.16,0,0,1,.09-.07.19.19,0,0,1,.13,0l.17.06.16.13a.65.65,0,0,1,.13.16.76.76,0,0,1,.09.18.55.55,0,0,1,0,.17.25.25,0,0,1,0,.17A.17.17,0,0,1,21.63,34Zm-.23.44a.16.16,0,0,0,.09,0h.06a.1.1,0,0,0,0-.05s0,0,0-.08a.42.42,0,0,0-.05-.2A.36.36,0,0,0,21.4,34c-.07,0-.12,0-.16,0a.17.17,0,0,0,0,.14.3.3,0,0,0,0,.1l0,.09.07.09A.22.22,0,0,0,21.4,34.43Zm0-1.1-.08,0s0,0-.05,0a.08.08,0,0,0,0,0s0,0,0,.07,0,.06,0,.09l0,.08a.3.3,0,0,0,.14.15l.08,0,.05,0a.05.05,0,0,0,0,0,.33.33,0,0,0,0-.16l0-.08-.05-.08Z"/><path d="M20.59,30.6l0,0,0,0a.14.14,0,0,1-.09,0l-.11,0-.13-.1-.11-.15a.71.71,0,0,1-.08-.18.52.52,0,0,1,0-.21.31.31,0,0,1,0-.17.18.18,0,0,1,.09-.1.29.29,0,0,1,.14,0,.45.45,0,0,1,.18.07,1.33,1.33,0,0,1,.19.14.8.8,0,0,1,.13.19.72.72,0,0,1,.09.2.89.89,0,0,1,0,.22.53.53,0,0,1,0,.13.17.17,0,0,1,0,.1.36.36,0,0,1,0,.09l-.06.07-.29.31h-.05l-.08,0-.23-.13ZM20.33,30a.46.46,0,0,0,.05.21.43.43,0,0,0,.15.15.16.16,0,0,0,.09,0h.06a.1.1,0,0,0,0-.05.29.29,0,0,0,0-.09.36.36,0,0,0,0-.11.3.3,0,0,0,0-.1.31.31,0,0,0-.07-.09l-.08-.06-.08,0h-.06a.07.07,0,0,0,0,.05A.29.29,0,0,0,20.33,30Z"/><path class="cls-13" d="M26.81,33.87a.45.45,0,0,1-.2.42s-.23.12-.25.13,0-.11-.18-.19a1.4,1.4,0,0,1-.63-1.08c0-.15-.17-.15-.11-.23l.29-.17a.44.44,0,0,1,.45,0A1.37,1.37,0,0,1,26.81,33.87Z"/><path class="cls-12" d="M26.59,34c0,.4-.28.56-.63.36a1.37,1.37,0,0,1-.63-1.08c0-.4.28-.56.63-.36A1.38,1.38,0,0,1,26.59,34Z"/><polygon class="cls-12" points="26.28 26.41 26.09 26.3 26.09 36.33 26.28 36.44 26.28 26.41"/><path class="cls-16" d="M32.13,13.44a4.83,4.83,0,0,1-4.38,0,1.34,1.34,0,0,1,0-2.53,4.83,4.83,0,0,1,4.38,0A1.34,1.34,0,0,1,32.13,13.44Z"/><path class="cls-13" d="M32.69,13.56a4.68,4.68,0,0,1-4.22,0c-1.17-.68-1.25-1.84,0-2.67a4.35,4.35,0,0,1,4.22.14A1.44,1.44,0,0,1,32.69,13.56Z"/><path class="cls-17" d="M32.42,13.06a4.27,4.27,0,0,1-3.86,0c-1.07-.62-1.08-1.62,0-2.23a4.27,4.27,0,0,1,3.86,0A1.18,1.18,0,0,1,32.42,13.06Z"/><path d="M32.08,12.75l-.06,0a3.57,3.57,0,0,1-3.08,0l-.05,0c-.87-.5-.89-1.31-.05-1.82l0,0a3.52,3.52,0,0,1,3.19,0l0,0A1,1,0,0,1,32.08,12.75Z"/><path class="cls-18" d="M32.12,9.54v2.91h0a.6.6,0,0,1-.1.33,3.57,3.57,0,0,1-3.08,0,.6.6,0,0,1-.1-.32V9.54H29a1.26,1.26,0,0,1,.3-.24,2.59,2.59,0,0,1,2.32,0,1.18,1.18,0,0,1,.29.23Z"/><path class="cls-13" d="M32.42,10.15a4.27,4.27,0,0,1-3.86,0c-1.07-.62-1.08-1.62,0-2.23a4.27,4.27,0,0,1,3.86,0A1.18,1.18,0,0,1,32.42,10.15Z"/><rect class="cls-13" x="27.75" y="8.3" width="5.46" height="0.73"/><path class="cls-17" d="M32.42,9.42a4.27,4.27,0,0,1-3.86,0c-1.07-.62-1.08-1.62,0-2.23a4.27,4.27,0,0,1,3.86,0A1.18,1.18,0,0,1,32.42,9.42Z"/><path class="cls-19" d="M32.16,9.27a4,4,0,0,1-3.62,0c-1-.58-1-1.51,0-2.09a4,4,0,0,1,3.62,0A1.1,1.1,0,0,1,32.16,9.27Z"/><polygon class="cls-20" points="8.65 7.69 57.37 34.69 70.68 28.12 57.37 35.81 8.65 7.69"/><polygon class="cls-21" points="14.89 17.48 16.53 19.95 50.89 39.49 50.95 57.34 50.96 58.4 52.33 60.25 52.33 39.09 14.89 17.48"/><path class="cls-16" d="M50.57,24.08a4.8,4.8,0,0,1-4.38,0,1.34,1.34,0,0,1,0-2.53,4.88,4.88,0,0,1,4.39,0C51.77,22.25,51.78,23.39,50.57,24.08Z"/><path class="cls-13" d="M51.12,24.2a4.65,4.65,0,0,1-4.22,0c-1.16-.67-1.24-1.84,0-2.66a4.32,4.32,0,0,1,4.22.13A1.44,1.44,0,0,1,51.12,24.2Z"/><path class="cls-17" d="M50.85,23.71a4.27,4.27,0,0,1-3.86,0,1.18,1.18,0,0,1,0-2.23,4.27,4.27,0,0,1,3.86,0A1.18,1.18,0,0,1,50.85,23.71Z"/><path d="M50.52,23.39l-.06,0a3.56,3.56,0,0,1-3.09,0l0,0c-.87-.5-.89-1.31-.06-1.82l0,0a3.52,3.52,0,0,1,3.19,0l.05,0A1,1,0,0,1,50.52,23.39Z"/><path class="cls-18" d="M50.56,20.18v2.91h0a.6.6,0,0,1-.1.33,3.56,3.56,0,0,1-3.09,0,.75.75,0,0,1-.1-.32V20.18h.19a1.18,1.18,0,0,1,.29-.23,2.56,2.56,0,0,1,2.32,0,1.48,1.48,0,0,1,.3.23Z"/><path class="cls-13" d="M50.85,20.79a4.27,4.27,0,0,1-3.86,0,1.18,1.18,0,0,1,0-2.23,4.27,4.27,0,0,1,3.86,0C51.91,19.18,51.92,20.18,50.85,20.79Z"/><rect class="cls-13" x="46.19" y="18.94" width="5.46" height="0.73"/><path class="cls-17" d="M50.85,20.06a4.27,4.27,0,0,1-3.86,0,1.18,1.18,0,0,1,0-2.23,4.27,4.27,0,0,1,3.86,0C51.91,18.45,51.92,19.45,50.85,20.06Z"/><path class="cls-19" d="M50.6,19.91a4,4,0,0,1-3.62,0c-1-.58-1-1.52,0-2.09a4,4,0,0,1,3.62,0C51.59,18.4,51.6,19.34,50.6,19.91Z"/></g></g></g></svg>