<svg xmlns="http://www.w3.org/2000/svg" viewBox="0 0 120 120" fill="none">
  <ellipse cx="60" cy="108" rx="28" ry="6" fill="#000" opacity="0.12"/>
  <path d="M60 18c-8 0-14 6-14 14 0 5 2 9 6 12-6 3-10 9-10 16v8h36v-8c0-7-4-13-10-16 4-3 6-7 6-12 0-8-6-14-14-14z" fill="#1a1a1a"/>
  <circle cx="60" cy="32" r="10" fill="#2a2a2a"/>
  <path d="M48 52h24v6c0 4-3 8-8 10l-4 28H60l-4-28c-5-2-8-6-8-10v-6z" fill="#0a0a0a"/>
  <circle cx="52" cy="28" r="3" fill="#444"/>
  <circle cx="68" cy="30" r="2" fill="#444"/>
</svg>
