<svg xmlns="http://www.w3.org/2000/svg" viewBox="0 0 76.08 69.94"><defs><style>.cls-1{isolation:isolate;}.cls-2{fill:#282828;}.cls-3{fill:#242424;}.cls-4{fill:#bf9c7c;}.cls-5{fill:#0f0f0f;}.cls-6{fill:#323232;}.cls-7{fill:#f4f4f4;}.cls-8{fill:#c8d2db;}.cls-9{fill:#ff223d;}.cls-10{fill:#b30b29;}.cls-11{fill:#875f41;}.cls-12{fill:#9ca4ab;}.cls-13{fill:#e0d4a4;}.cls-14{fill:#bcc6cf;}.cls-15{fill:#171717;}.cls-16{fill:#ff454c;}.cls-17{fill:#7d001f;}.cls-18{fill:#dd2f36;}.cls-19{fill:#474747;}.cls-20{fill:#d7dce0;mix-blend-mode:multiply;}</style></defs><g class="cls-1"><g id="Capa_2" data-name="Capa 2"><g id="layer"><polygon class="cls-2" points="27.37 35.81 76.08 7.69 76.08 41.82 27.37 69.94 27.37 35.81"/><polygon class="cls-3" points="27.37 42.05 27.84 68.72 75.39 41.31 76.08 13.93 76.08 41.82 27.37 69.94 27.37 42.05"/><polygon class="cls-4" points="30.07 37.37 73.38 12.37 73.38 40.26 30.07 65.26 30.07 37.37"/><polygon class="cls-5" points="27.37 35.81 14.06 28.12 14.06 62.25 27.37 69.94 27.37 35.81"/><polygon class="cls-6" points="27.37 35.81 14.06 28.12 62.77 0 76.08 7.69 27.37 35.81"/><polygon class="cls-7" points="32.41 39.09 71.05 16.78 71.05 37.95 32.41 60.25 32.41 39.09"/><path class="cls-7" d="M47.51,39.64A15.77,15.77,0,0,1,40.33,52c-4,2.29-7.17.46-7.17-4.09a15.82,15.82,0,0,1,7.17-12.37C44.3,33.26,47.51,35.09,47.51,39.64Z"/><path d="M40.27,37.94v.21l-.73.42v-.21l.26-.15v-.93l-.17.26,0,0,0,0h0l-.08-.08.4-.62.2-.12v1.29Z"/><path d="M41.25,37.32s0,0,.06,0,0,0,0,0v.17l-.9.52V38s0,0,0-.07a.25.25,0,0,1,0-.07l.38-.67L41,37l.06-.13a.93.93,0,0,0,0-.13.41.41,0,0,0,0-.11c0-.07,0-.11,0-.13a.16.16,0,0,0-.13,0l-.07.05,0,.07a.16.16,0,0,0,0,.07l0,.07a.23.23,0,0,1,0,.1.16.16,0,0,1-.08.05l-.13,0a.79.79,0,0,1,.06-.22.75.75,0,0,1,.1-.2.65.65,0,0,1,.13-.16l.16-.12a.5.5,0,0,1,.17-.06.18.18,0,0,1,.13,0,.16.16,0,0,1,.09.09.61.61,0,0,1,0,.15.5.5,0,0,1,0,.17,1,1,0,0,1,0,.16l-.08.17a1.62,1.62,0,0,0-.1.18l-.28.48.09-.07.09-.06Z"/><path d="M40.34,50.11l0,.08.07-.07.09-.06A.27.27,0,0,1,40.6,50a.16.16,0,0,1,.12,0,.16.16,0,0,1,.09.09.42.42,0,0,1,0,.18.82.82,0,0,1,0,.21,1.47,1.47,0,0,1-.1.22,1.33,1.33,0,0,1-.14.19,1,1,0,0,1-.2.15.4.4,0,0,1-.19.07.22.22,0,0,1-.14,0A.27.27,0,0,1,40,51a.54.54,0,0,1,0-.19.67.67,0,0,1,0-.24,1.6,1.6,0,0,1,.11-.3l.3-.64.05-.07.08-.07.22-.13Zm0,.73.09-.08.07-.09a.54.54,0,0,0,0-.11.41.41,0,0,0,0-.11.28.28,0,0,0,0-.1.1.1,0,0,0,0-.06h-.07l-.09,0-.09.07a.47.47,0,0,0-.06.09.37.37,0,0,0,0,.11.37.37,0,0,0,0,.11.31.31,0,0,0,0,.1.21.21,0,0,0,0,.06h.07Z"/><path d="M43.61,37v.2l-.73.43v-.21l.26-.15V36.3l-.17.26,0,0,0,0h0l-.08-.07.4-.62.21-.12v1.29Z"/><path d="M43.06,47.58l.07,0,.08-.05a.6.6,0,0,1,.18-.07.19.19,0,0,1,.13,0,.27.27,0,0,1,.08.1.41.41,0,0,1,0,.16,1,1,0,0,1,0,.24,1.6,1.6,0,0,1-.1.23,1.56,1.56,0,0,1-.16.2.9.9,0,0,1-.19.15l-.12.05a.22.22,0,0,1-.11,0,.27.27,0,0,1-.09,0l-.07,0,.07-.16a.16.16,0,0,1,.07-.07s0,0,0,0h.13l.09,0a.39.39,0,0,0,.1-.08.58.58,0,0,0,.12-.22s0-.08,0-.12,0-.13-.06-.15-.09,0-.17,0a.73.73,0,0,0-.18.14l-.15,0,.11-.8.65-.37v.12a.13.13,0,0,1,0,.06s0,0,0,0l0,.06-.06,0-.34.2Z"/><path d="M45.67,38.13a.06.06,0,0,1,.07,0s0,0,0,.05v.17l-.9.52v-.1a.18.18,0,0,1,0-.06.41.41,0,0,1,0-.08l.39-.66c0-.06.06-.11.08-.16a.91.91,0,0,0,.07-.14l0-.12a.52.52,0,0,0,0-.11.14.14,0,0,0-.05-.13s-.07,0-.13,0l-.06,0,0,.06-.05.08a.19.19,0,0,0,0,.07.39.39,0,0,1,0,.09.24.24,0,0,1-.08.06l-.13.05a1.55,1.55,0,0,1,0-.23,1.14,1.14,0,0,1,.1-.19.7.7,0,0,1,.14-.16.61.61,0,0,1,.16-.12A.47.47,0,0,1,45.5,37a.27.27,0,0,1,.13,0,.15.15,0,0,1,.08.08.38.38,0,0,1,0,.16.88.88,0,0,1,0,.16,1.15,1.15,0,0,1-.06.17,1.3,1.3,0,0,1-.08.17,1.62,1.62,0,0,1-.1.18l-.27.48.09-.08.08-.05Z"/><path d="M45.79,44v.16a.06.06,0,0,1,0,0l0,0-.1.06v.35l-.21.13v-.36l-.54.31h0s0,0,0,0l0-.13.61-1.28.23-.14v.92Zm-.36.21v-.52a.28.28,0,0,1,0-.09l-.38.82Z"/><path d="M45.74,40.5a.79.79,0,0,1,.06-.22.75.75,0,0,1,.1-.2.93.93,0,0,1,.13-.15,1.09,1.09,0,0,1,.17-.13l.16-.06a.19.19,0,0,1,.13,0,.15.15,0,0,1,.08.08.44.44,0,0,1,0,.13.53.53,0,0,1,0,.13.56.56,0,0,1,0,.12l-.06.1a.81.81,0,0,1-.09.1c.15,0,.23,0,.23.21a.78.78,0,0,1,0,.22.75.75,0,0,1-.1.2,1.24,1.24,0,0,1-.14.18.88.88,0,0,1-.17.12l-.17.08a.19.19,0,0,1-.13,0,.15.15,0,0,1-.09-.06.46.46,0,0,1-.07-.14l.11-.11A.21.21,0,0,1,45.9,41a0,0,0,0,1,.05,0l0,.05a.05.05,0,0,0,0,0h.06a.11.11,0,0,0,.07,0,.22.22,0,0,0,.09-.07l.07-.09a.36.36,0,0,0,0-.09.41.41,0,0,0,0-.18.09.09,0,0,0,0,0h-.09a.48.48,0,0,0-.15.07v-.2l.13-.09.08-.09a.36.36,0,0,0,0-.09.28.28,0,0,0,0-.09c0-.07,0-.11,0-.13a.14.14,0,0,0-.13,0l-.06.05-.06.06,0,.07a.24.24,0,0,0,0,.08.19.19,0,0,1,0,.09.16.16,0,0,1-.08.05Z"/><path d="M37.56,40.45v.21l-.73.42v-.21l.26-.15v-.93l-.17.26,0,0,0,0h0L36.73,40l.4-.62.21-.11v1.28Z"/><path d="M38.6,39.85v.21l-.73.42v-.21l.26-.15v-.93l-.17.26,0,0,0,0h0l-.08-.08.4-.61.2-.12V40Z"/><path d="M38.13,49.9V50a.28.28,0,0,1,0,.09.19.19,0,0,0,0,.07l-.47,1.4s0,.07-.05.1a.22.22,0,0,1-.09.07l-.17.1.48-1.38a1037438584018.16,1037438584018.16,0,0,0,.08-.18l-.6.35h0l0,0v-.19Z"/><path d="M35.7,43.93v.21l-.72.42v-.21l.25-.14v-.87s0,0,0-.06l-.17.26,0,0,0,0h0l-.08-.07.4-.62.2-.12v1.28Z"/><path d="M36.81,42.76a1.37,1.37,0,0,1,0,.36,1.32,1.32,0,0,1-.1.3.86.86,0,0,1-.15.22.9.9,0,0,1-.19.16.38.38,0,0,1-.19.06.17.17,0,0,1-.15,0,.32.32,0,0,1-.1-.18,1,1,0,0,1,0-.32,1.37,1.37,0,0,1,0-.36,1.19,1.19,0,0,1,.25-.52.9.9,0,0,1,.19-.15.49.49,0,0,1,.19-.07.25.25,0,0,1,.15,0,.39.39,0,0,1,.1.18A1,1,0,0,1,36.81,42.76Zm-.26.15a.86.86,0,0,0,0-.25.38.38,0,0,0-.05-.14.1.1,0,0,0-.07,0,.13.13,0,0,0-.08,0,.28.28,0,0,0-.09.07.63.63,0,0,0-.07.12s0,.12-.05.19a2.26,2.26,0,0,0,0,.27,1.93,1.93,0,0,0,0,.26.59.59,0,0,0,.05.13.09.09,0,0,0,.07,0l.09,0,.08-.07a.54.54,0,0,0,.07-.13.74.74,0,0,0,.05-.19A1.14,1.14,0,0,0,36.55,42.91Z"/><path d="M35.78,49.54a.16.16,0,0,1,.17,0,.24.24,0,0,1,0,.18.64.64,0,0,1,0,.2.88.88,0,0,1-.09.2,1.14,1.14,0,0,1-.15.17.86.86,0,0,1-.18.14.56.56,0,0,1-.19.07h-.14a.28.28,0,0,1-.1-.09.35.35,0,0,1,0-.16.57.57,0,0,1,.06-.25.6.6,0,0,1,.17-.23.2.2,0,0,1-.14-.05.3.3,0,0,1,0-.18.38.38,0,0,1,0-.17.71.71,0,0,1,.08-.18,1,1,0,0,1,.13-.16,1.09,1.09,0,0,1,.17-.13l.16-.06a.21.21,0,0,1,.14,0,.18.18,0,0,1,.08.07.33.33,0,0,1,0,.15.57.57,0,0,1,0,.22A.85.85,0,0,1,35.78,49.54Zm-.23.71.09-.07.06-.08a.3.3,0,0,0,0-.1.28.28,0,0,0,0-.09c0-.08,0-.13,0-.15s-.08,0-.15,0a.36.36,0,0,0-.15.15.33.33,0,0,0,0,.2.19.19,0,0,0,0,.08.1.1,0,0,0,0,.05.06.06,0,0,0,.06,0Zm0-1.1-.08.06a.35.35,0,0,0,0,.08.11.11,0,0,0,0,.08.22.22,0,0,0,0,.08v.08l0,0,.05,0,.09,0a.27.27,0,0,0,.08-.07l.06-.08a.19.19,0,0,0,0-.08.28.28,0,0,0,0-.09.15.15,0,0,0,0-.07l0,0,0,0Z"/><path d="M34.74,47.35l0-.05,0,0a.76.76,0,0,1-.09.09l-.11.08-.13,0a.2.2,0,0,1-.11,0,.15.15,0,0,1-.08-.08.4.4,0,0,1,0-.17.76.76,0,0,1,0-.21,1,1,0,0,1,.09-.21,1.33,1.33,0,0,1,.14-.19l.18-.14a.56.56,0,0,1,.19-.07.22.22,0,0,1,.14,0,.24.24,0,0,1,.08.11.48.48,0,0,1,0,.18.66.66,0,0,1,0,.14.35.35,0,0,1,0,.14,1,1,0,0,1,0,.14l-.06.14-.29.64,0,.07a.27.27,0,0,1-.08.07l-.22.13ZM34.48,47c0,.08,0,.13.05.15s.09,0,.15,0l.09-.07a.18.18,0,0,0,.06-.09.3.3,0,0,0,0-.1.3.3,0,0,0,0-.1.2.2,0,0,0,0-.09.07.07,0,0,0,0-.05.07.07,0,0,0-.06,0,.16.16,0,0,0-.09,0l-.08.06a.24.24,0,0,0-.06.09.3.3,0,0,0,0,.1A.36.36,0,0,0,34.48,47Z"/><path class="cls-8" d="M39.33,43.94c0,.4.28.56.63.36a1.39,1.39,0,0,0,.63-1.09c0-.4-.28-.56-.63-.36A1.39,1.39,0,0,0,39.33,43.94Z"/><polygon class="cls-8" points="42.83 38.18 43.25 38.43 40.12 43.82 39.7 43.58 42.83 38.18"/><polygon class="cls-8" points="34.38 50.23 34.13 49.75 39.78 43.46 40.04 43.94 34.38 50.23"/><polygon class="cls-8" points="39.81 36.6 40.01 36.49 40.01 46.52 39.81 46.63 39.81 36.6"/><polygon class="cls-9" points="40.2 52.09 40.47 51.94 40.47 51.17 40.2 51.32 40.2 52.09"/><polygon points="39.64 52.38 39.71 51.57 39.6 51.62 39.53 52.43 39.64 52.38"/><polygon points="38.9 52.68 39.04 51.85 38.92 51.88 38.79 52.71 38.9 52.68"/><polygon points="38.17 52.88 38.38 52.03 38.27 52.05 38.06 52.9 38.17 52.88"/><polygon points="37.47 52.98 37.74 52.12 37.63 52.13 37.36 52.99 37.47 52.98"/><polygon points="36.83 52.99 37.17 52.13 37 52.11 36.66 52.97 36.83 52.99"/><polygon points="36.16 52.89 36.56 52.03 36.47 52.01 36.07 52.86 36.16 52.89"/><polygon points="35.58 52.69 36.03 51.85 35.94 51.81 35.49 52.65 35.58 52.69"/><polygon points="35.04 52.4 35.54 51.58 35.47 51.53 34.96 52.34 35.04 52.4"/><polygon points="34.56 52.01 35.11 51.23 35.05 51.16 34.5 51.94 34.56 52.01"/><polygon points="34.17 51.55 34.76 50.82 34.66 50.69 34.07 51.42 34.17 51.55"/><polygon points="33.8 50.96 34.43 50.28 34.38 50.19 33.76 50.87 33.8 50.96"/><polygon points="33.53 50.32 34.18 49.7 34.14 49.59 33.49 50.21 33.53 50.32"/><polygon points="33.33 49.6 34 49.05 33.98 48.94 33.3 49.49 33.33 49.6"/><polygon points="33.2 48.82 33.89 48.34 33.88 48.22 33.19 48.7 33.2 48.82"/><polygon class="cls-9" points="33.16 48.08 33.85 47.68 33.85 47.37 33.16 47.77 33.16 48.08"/><polygon points="33.88 46.79 33.9 46.66 33.2 46.97 33.19 47.11 33.88 46.79"/><polygon points="33.99 45.97 34.01 45.82 33.33 46.05 33.3 46.19 33.99 45.97"/><polygon points="34.16 45.11 34.19 44.97 33.53 45.1 33.49 45.25 34.16 45.11"/><polygon points="34.4 44.25 34.44 44.1 33.8 44.14 33.76 44.29 34.4 44.25"/><polygon points="34.68 43.43 34.78 43.18 34.17 43.13 34.07 43.38 34.68 43.43"/><polygon points="35.07 42.51 35.14 42.37 34.56 42.22 34.5 42.37 35.07 42.51"/><polygon points="35.49 41.66 35.57 41.52 35.04 41.28 34.96 41.42 35.49 41.66"/><polygon points="35.97 40.84 36.05 40.7 35.58 40.37 35.49 40.51 35.97 40.84"/><polygon points="36.49 40.04 36.58 39.91 36.16 39.49 36.07 39.62 36.49 40.04"/><polygon points="37.02 39.33 37.19 39.12 36.83 38.62 36.66 38.83 37.02 39.33"/><polygon points="37.65 38.58 37.76 38.47 37.47 37.89 37.36 38 37.65 38.58"/><polygon points="38.28 37.94 38.39 37.83 38.17 37.18 38.06 37.28 38.28 37.94"/><polygon points="38.93 37.35 39.05 37.26 38.9 36.54 38.79 36.64 38.93 37.35"/><polygon points="39.6 36.84 39.72 36.76 39.64 35.99 39.53 36.07 39.6 36.84"/><polygon class="cls-9" points="40.2 36.45 40.47 36.3 40.47 35.47 40.2 35.63 40.2 36.45"/><polygon points="41.07 36 41.14 35.13 41.03 35.19 40.95 36.05 41.07 36"/><polygon points="41.73 35.74 41.88 34.85 41.77 34.89 41.62 35.78 41.73 35.74"/><polygon points="42.38 35.57 42.6 34.66 42.5 34.68 42.27 35.59 42.38 35.57"/><polygon points="43.01 35.49 43.3 34.57 43.2 34.58 42.91 35.5 43.01 35.49"/><polygon points="43.65 35.5 44 34.59 43.84 34.57 43.48 35.49 43.65 35.5"/><polygon points="44.18 35.6 44.6 34.7 44.5 34.67 44.09 35.58 44.18 35.6"/><polygon points="44.7 35.79 45.18 34.91 45.09 34.87 44.62 35.75 44.7 35.79"/><polygon points="45.18 36.07 45.7 35.22 45.63 35.17 45.1 36.02 45.18 36.07"/><polygon points="45.6 36.43 46.17 35.63 46.1 35.56 45.53 36.37 45.6 36.43"/><polygon points="45.98 36.9 46.59 36.15 46.5 36.01 45.89 36.77 45.98 36.9"/><polygon points="46.27 37.39 46.91 36.7 46.86 36.6 46.22 37.3 46.27 37.39"/><polygon points="46.51 37.98 47.17 37.35 47.14 37.25 46.47 37.88 46.51 37.98"/><polygon points="46.68 38.64 47.36 38.08 47.34 37.96 46.66 38.52 46.68 38.64"/><polygon points="46.78 39.35 47.48 38.86 47.46 38.74 46.77 39.22 46.78 39.35"/><polygon class="cls-9" points="46.81 40.19 47.51 39.79 47.51 39.48 46.81 39.88 46.81 40.19"/><polygon points="47.46 40.59 47.48 40.45 46.79 40.77 46.78 40.91 47.46 40.59"/><polygon points="47.34 41.51 47.36 41.37 46.69 41.59 46.67 41.74 47.34 41.51"/><polygon points="47.14 42.46 47.17 42.31 46.52 42.45 46.49 42.59 47.14 42.46"/><polygon points="46.86 43.42 46.91 43.27 46.29 43.31 46.24 43.46 46.86 43.42"/><polygon points="46.5 44.43 46.59 44.19 46.01 44.14 45.91 44.38 46.5 44.43"/><polygon points="46.1 45.34 46.17 45.2 45.62 45.05 45.55 45.2 46.1 45.34"/><polygon points="45.63 46.28 45.7 46.14 45.2 45.91 45.12 46.05 45.63 46.28"/><polygon points="45.09 47.2 45.18 47.06 44.73 46.74 44.64 46.88 45.09 47.2"/><polygon points="44.5 48.07 44.6 47.94 44.2 47.54 44.11 47.68 44.5 48.07"/><polygon points="43.84 48.94 44 48.74 43.67 48.26 43.5 48.47 43.84 48.94"/><polygon points="43.2 49.67 43.3 49.56 43.03 49.02 42.93 49.13 43.2 49.67"/><polygon points="42.5 50.38 42.6 50.28 42.4 49.67 42.29 49.77 42.5 50.38"/><polygon points="41.77 51.02 41.88 50.93 41.74 50.26 41.63 50.35 41.77 51.02"/><polygon points="41.03 51.58 41.14 51.49 41.07 50.77 40.96 50.85 41.03 51.58"/><polygon points="43.25 38.26 43.68 38.51 40.55 43.9 40.12 43.66 43.25 38.26"/><polygon points="34.81 50.31 34.55 49.83 40.21 43.54 40.46 44.02 34.81 50.31"/><path class="cls-10" d="M39.71,44.14a.44.44,0,0,0,.19.42l.26.13c.1,0,0-.11.17-.19A1.37,1.37,0,0,0,41,43.42c0-.15.18-.15.11-.23L40.78,43a.44.44,0,0,0-.45,0A1.4,1.4,0,0,0,39.71,44.14Z"/><path class="cls-9" d="M39.93,44.27c0,.39.28.55.63.35a1.4,1.4,0,0,0,.63-1.08c0-.4-.29-.56-.63-.36A1.39,1.39,0,0,0,39.93,44.27Z"/><polygon class="cls-9" points="40.24 36.68 40.43 36.57 40.43 46.6 40.24 46.71 40.24 36.68"/><polygon class="cls-11" points="69.85 17.48 69.85 37.58 71.05 37.95 71.05 16.78 69.85 17.48"/><polygon class="cls-12" points="32.41 57.74 32.41 59.19 69.85 37.58 69.85 17.48 68.21 18.42 68.21 37.07 32.41 57.74"/><polygon class="cls-13" points="32.41 59.19 32.41 60.25 71.05 37.95 69.85 37.58 32.41 59.19"/><polygon class="cls-14" points="32.41 57.74 32.41 59.19 69.85 37.58 68.21 37.07 32.41 57.74"/><path class="cls-7" d="M65.73,29.37a15.82,15.82,0,0,1-7.17,12.37c-4,2.29-7.18.46-7.18-4.09a15.8,15.8,0,0,1,7.18-12.37C62.52,23,65.73,24.82,65.73,29.37Z"/><polygon class="cls-8" points="58.04 26.33 58.23 26.22 58.23 36.25 58.04 36.36 58.04 26.33"/><path d="M58.49,27.67v.21l-.73.42v-.21l.26-.15V27l-.17.26,0,0,0,0h0l-.08-.08.4-.62.2-.12V27.8Z"/><path d="M59.47,27.05s.05,0,.06,0a0,0,0,0,1,0,.05v.17l-.9.52v-.09a.2.2,0,0,1,0-.07.11.11,0,0,1,0-.07l.38-.67a.65.65,0,0,0,.09-.16.49.49,0,0,0,.06-.13.93.93,0,0,0,0-.13.41.41,0,0,0,0-.11c0-.07,0-.11,0-.13s-.07,0-.13,0l-.06.05-.06.07a.43.43,0,0,0,0,.07.19.19,0,0,0,0,.07.31.31,0,0,1,0,.1.13.13,0,0,1-.07,0l-.13.05a.54.54,0,0,1,0-.22,1.24,1.24,0,0,1,.1-.2,1,1,0,0,1,.13-.16,1,1,0,0,1,.17-.12.4.4,0,0,1,.16-.06.2.2,0,0,1,.22.09.41.41,0,0,1,0,.16,1,1,0,0,1,0,.17l-.06.16a1.3,1.3,0,0,1-.08.17l-.1.18-.28.48.09-.08.09-.05Z"/><path d="M58.56,39.84l0,.08a.46.46,0,0,1,.07-.07l.09-.06a.27.27,0,0,1,.14,0,.16.16,0,0,1,.12,0,.13.13,0,0,1,.09.09.4.4,0,0,1,0,.17.83.83,0,0,1,0,.22,1.07,1.07,0,0,1-.1.22,1.33,1.33,0,0,1-.14.19.9.9,0,0,1-.19.15.64.64,0,0,1-.19.07.24.24,0,0,1-.15,0,.27.27,0,0,1-.09-.12.56.56,0,0,1,0-.2.75.75,0,0,1,0-.24,1.83,1.83,0,0,1,.11-.29l.3-.64s0-.05.06-.08l.08-.06.21-.13Zm0,.72a.28.28,0,0,0,.09-.07l.07-.09a.54.54,0,0,0,0-.11.52.52,0,0,0,0-.11.25.25,0,0,0,0-.1.1.1,0,0,0,0-.06h-.07l-.09,0a.27.27,0,0,0-.08.07.31.31,0,0,0-.07.09,1.17,1.17,0,0,0,0,.11.37.37,0,0,0,0,.11.31.31,0,0,0,0,.1.21.21,0,0,0,0,.06h.07A.12.12,0,0,0,58.59,40.56Z"/><path d="M61.83,26.69v.2l-.72.42v-.2l.25-.15v-.87s0,0,0-.06l-.17.26,0,0,0,0h0a0,0,0,0,1,0,0L61,26.27l.4-.62.2-.12v1.29Z"/><path d="M61.28,37.31l.08-.06.07,0a.6.6,0,0,1,.18-.07.18.18,0,0,1,.13,0,.16.16,0,0,1,.08.1.38.38,0,0,1,0,.16.67.67,0,0,1,0,.24.94.94,0,0,1-.45.58l-.12,0-.1,0H61l-.07,0,.08-.16a.09.09,0,0,1,.06-.07l0,0h.12l.09,0a.27.27,0,0,0,.1-.08l.08-.1,0-.12a.49.49,0,0,0,0-.12q0-.12-.06-.15s-.09,0-.16,0a.77.77,0,0,0-.19.14l-.15,0,.11-.8.65-.37v.12a.07.07,0,0,1,0,0,.14.14,0,0,1,0,.06.12.12,0,0,1-.05,0,.15.15,0,0,1-.06.05l-.34.2Z"/><path d="M63.89,27.86a.06.06,0,0,1,.07,0s0,0,0,0v.17l-.9.52v-.1a.15.15,0,0,1,0-.06l0-.08.39-.66.09-.16.06-.14,0-.12s0-.08,0-.12a.14.14,0,0,0-.05-.12s-.07,0-.12,0a.18.18,0,0,0-.07.05l0,.06a.3.3,0,0,0,0,.08l0,.07a.19.19,0,0,1,0,.09.24.24,0,0,1-.08.06l-.13.05a1.55,1.55,0,0,1,0-.23,1.14,1.14,0,0,1,.1-.19,1.07,1.07,0,0,1,.14-.16.61.61,0,0,1,.16-.12.47.47,0,0,1,.17-.07.28.28,0,0,1,.13,0,.24.24,0,0,1,.08.09A.38.38,0,0,1,64,27a.88.88,0,0,1,0,.16.58.58,0,0,1-.06.17l-.08.17a1.62,1.62,0,0,1-.1.18l-.27.48.09-.08L63.6,28Z"/><path d="M64,33.7v.16a.06.06,0,0,1,0,0,.08.08,0,0,1,0,0l-.1.06v.35l-.21.13v-.36l-.54.31h0s0,0,0,0l0-.13L63.63,33l.23-.14v.92Zm-.36.21v-.52a.28.28,0,0,1,0-.09l-.38.82Z"/><path d="M64,30.23A.79.79,0,0,1,64,30a1.24,1.24,0,0,1,.1-.2,1,1,0,0,1,.13-.16l.17-.12a.46.46,0,0,1,.16-.06.18.18,0,0,1,.13,0,.18.18,0,0,1,.08.07.32.32,0,0,1,0,.14.53.53,0,0,1,0,.13.56.56,0,0,1,0,.12.27.27,0,0,1-.06.1l-.08.1c.14,0,.22,0,.22.21a.57.57,0,0,1,0,.22.75.75,0,0,1-.1.2.79.79,0,0,1-.14.17.7.7,0,0,1-.17.13.47.47,0,0,1-.17.07.15.15,0,0,1-.13,0,.18.18,0,0,1-.09-.07.4.4,0,0,1-.07-.13l.11-.11.08-.06s0,0,0,0l0,0a.05.05,0,0,0,.05,0h0l.08,0,.09-.07.06-.09a.36.36,0,0,0,0-.09.41.41,0,0,0,0-.18.05.05,0,0,0,0-.05s0,0-.09,0a.48.48,0,0,0-.15.07v-.2l.13-.09a.32.32,0,0,0,.08-.09.18.18,0,0,0,0-.09.28.28,0,0,0,0-.09c0-.07,0-.11,0-.13a.17.17,0,0,0-.13,0l-.06.05-.06.07,0,.07a.19.19,0,0,0,0,.07.19.19,0,0,1,0,.1.13.13,0,0,1-.07.05Z"/><path d="M55.78,30.18v.21l-.73.42V30.6l.26-.15v-.87a.13.13,0,0,1,0-.06l-.17.26,0,0,0,0h0L55,29.76l.39-.62.21-.11v1.28Z"/><path d="M56.82,29.58v.21l-.73.42V30l.26-.15v-.93l-.17.26,0,0,0,0h0L56,29.16l.4-.62.21-.11v1.28Z"/><path d="M56.35,39.62v.13a.28.28,0,0,1,0,.09s0,0,0,.07l-.47,1.4a.93.93,0,0,1-.05.1.27.27,0,0,1-.08.07l-.18.1L56,40.2l0-.09,0-.09-.6.35a0,0,0,0,1,0,0,0,0,0,0,1,0,0v-.19Z"/><path d="M53.93,33.66v.21l-.73.42v-.21l.26-.15V33l-.17.26,0,0,0,0h0l-.08-.07.4-.62.2-.12v1.28Z"/><path d="M55,32.49a1.37,1.37,0,0,1,0,.36,1.1,1.1,0,0,1-.1.29.76.76,0,0,1-.15.23.7.7,0,0,1-.19.16.38.38,0,0,1-.19.06.17.17,0,0,1-.15-.05.39.39,0,0,1-.1-.18,1,1,0,0,1,0-.32,1.37,1.37,0,0,1,0-.36,1.1,1.1,0,0,1,.1-.29.76.76,0,0,1,.15-.23.66.66,0,0,1,.19-.15.56.56,0,0,1,.19-.07.25.25,0,0,1,.15,0,.39.39,0,0,1,.1.18A1,1,0,0,1,55,32.49Zm-.26.15a1.7,1.7,0,0,0,0-.25.72.72,0,0,0,0-.14s-.05,0-.08,0l-.08,0a.18.18,0,0,0-.08.07.35.35,0,0,0-.07.12.87.87,0,0,0,0,.19,1.14,1.14,0,0,0,0,.27,1,1,0,0,0,0,.26.32.32,0,0,0,0,.13.08.08,0,0,0,.07,0l.08,0a.27.27,0,0,0,.08-.07l.08-.13a1.67,1.67,0,0,0,0-.19A2.26,2.26,0,0,0,54.77,32.64Z"/><path d="M54,39.27a.16.16,0,0,1,.17,0,.24.24,0,0,1,.06.18.45.45,0,0,1,0,.2.66.66,0,0,1-.09.19,1.24,1.24,0,0,1-.14.18.8.8,0,0,1-.19.13.6.6,0,0,1-.19.08h-.14a.2.2,0,0,1-.09-.09.34.34,0,0,1,0-.16.54.54,0,0,1,.06-.25.6.6,0,0,1,.17-.23.2.2,0,0,1-.14,0,.3.3,0,0,1,0-.18.55.55,0,0,1,0-.17,1.42,1.42,0,0,1,.08-.18,1,1,0,0,1,.13-.16,1.09,1.09,0,0,1,.17-.13l.17-.06a.19.19,0,0,1,.13,0,.18.18,0,0,1,.08.07.33.33,0,0,1,0,.15.57.57,0,0,1,0,.22A.85.85,0,0,1,54,39.27Zm-.23.71.09-.07a.47.47,0,0,0,.06-.09.36.36,0,0,0,0-.09.31.31,0,0,0,0-.1c0-.07,0-.12,0-.14s-.08,0-.15,0a.36.36,0,0,0-.15.15.33.33,0,0,0,0,.2.19.19,0,0,0,0,.08.1.1,0,0,0,0,0h.06A.16.16,0,0,0,53.77,40Zm0-1.1-.08.06a.35.35,0,0,0,0,.08.11.11,0,0,0,0,.08.32.32,0,0,0,0,.16.08.08,0,0,0,0,.05l.06,0,.08,0a.27.27,0,0,0,.08-.07.24.24,0,0,0,.06-.08l0-.08V39a.15.15,0,0,0,0-.07s0,0,0,0h0Z"/><path d="M53,37.08l0,0L53,37l-.1.1-.1.08-.13.05a.23.23,0,0,1-.12,0,.15.15,0,0,1-.08-.08.43.43,0,0,1,0-.17.76.76,0,0,1,0-.21,1,1,0,0,1,.09-.21.79.79,0,0,1,.33-.33.6.6,0,0,1,.18-.07.22.22,0,0,1,.14,0,.19.19,0,0,1,.08.11.34.34,0,0,1,0,.18s0,.09,0,.14l0,.14s0,.09-.05.14L53.2,37l-.29.64,0,.07a.19.19,0,0,1-.07.06l-.23.14Zm-.26-.32q0,.12.06.15a.13.13,0,0,0,.14,0,.22.22,0,0,0,.09-.07l.07-.09a1,1,0,0,0,0-.1.34.34,0,0,0,0-.1.16.16,0,0,0,0-.1.1.1,0,0,0,0,0H53l-.09,0s0,0-.08.06l-.06.09a.3.3,0,0,0,0,.1A.36.36,0,0,0,52.7,36.76Z"/><polygon class="cls-9" points="58.42 41.82 58.69 41.66 58.69 40.9 58.42 41.05 58.42 41.82"/><polygon points="57.86 42.1 57.93 41.3 57.82 41.35 57.75 42.16 57.86 42.1"/><polygon points="57.12 42.41 57.26 41.58 57.15 41.61 57.01 42.44 57.12 42.41"/><polygon points="56.4 42.61 56.6 41.76 56.49 41.78 56.28 42.63 56.4 42.61"/><polygon points="55.69 42.71 55.96 41.85 55.86 41.86 55.59 42.72 55.69 42.71"/><polygon points="55.05 42.72 55.39 41.86 55.22 41.84 54.89 42.7 55.05 42.72"/><polygon points="54.39 42.62 54.78 41.76 54.69 41.74 54.29 42.59 54.39 42.62"/><polygon points="53.8 42.42 54.25 41.58 54.16 41.54 53.71 42.38 53.8 42.42"/><polygon points="53.26 42.12 53.77 41.31 53.69 41.26 53.19 42.07 53.26 42.12"/><polygon points="52.79 41.73 53.34 40.96 53.27 40.89 52.72 41.67 52.79 41.73"/><polygon points="52.39 41.28 52.98 40.55 52.88 40.41 52.3 41.15 52.39 41.28"/><polygon points="52.03 40.69 52.65 40.01 52.6 39.92 51.98 40.6 52.03 40.69"/><polygon points="51.75 40.05 52.4 39.43 52.37 39.32 51.72 39.94 51.75 40.05"/><polygon points="51.55 39.33 52.22 38.78 52.2 38.66 51.53 39.22 51.55 39.33"/><polygon points="51.43 38.55 52.11 38.07 52.1 37.95 51.42 38.43 51.43 38.55"/><polygon class="cls-9" points="51.38 37.81 52.08 37.41 52.08 37.1 51.38 37.5 51.38 37.81"/><polygon points="52.11 36.52 52.12 36.38 51.43 36.7 51.42 36.84 52.11 36.52"/><polygon points="52.21 35.7 52.23 35.55 51.55 35.78 51.53 35.92 52.21 35.7"/><polygon points="52.38 34.84 52.42 34.7 51.75 34.83 51.72 34.98 52.38 34.84"/><polygon points="52.62 33.98 52.67 33.83 52.03 33.87 51.98 34.02 52.62 33.98"/><polygon points="52.91 33.16 53 32.91 52.39 32.86 52.3 33.1 52.91 33.16"/><polygon points="53.29 32.24 53.36 32.1 52.79 31.95 52.72 32.09 53.29 32.24"/><polygon points="53.71 31.39 53.79 31.25 53.26 31.01 53.19 31.15 53.71 31.39"/><polygon points="54.19 30.57 54.27 30.43 53.8 30.09 53.71 30.23 54.19 30.57"/><polygon points="54.71 29.77 54.8 29.64 54.39 29.22 54.29 29.35 54.71 29.77"/><polygon points="55.24 29.06 55.41 28.85 55.05 28.35 54.89 28.55 55.24 29.06"/><polygon points="55.88 28.31 55.98 28.2 55.69 27.62 55.59 27.73 55.88 28.31"/><polygon points="56.51 27.66 56.62 27.56 56.4 26.91 56.28 27.01 56.51 27.66"/><polygon points="57.16 27.08 57.27 26.99 57.12 26.27 57.01 26.37 57.16 27.08"/><polygon points="57.83 26.57 57.94 26.49 57.86 25.72 57.75 25.8 57.83 26.57"/><polygon class="cls-9" points="58.42 26.18 58.69 26.02 58.69 25.2 58.42 25.36 58.42 26.18"/><polygon points="59.29 25.73 59.36 24.86 59.25 24.92 59.17 25.78 59.29 25.73"/><polygon points="59.96 25.47 60.1 24.58 59.99 24.62 59.84 25.5 59.96 25.47"/><polygon points="60.61 25.3 60.83 24.39 60.72 24.41 60.5 25.32 60.61 25.3"/><polygon points="61.24 25.22 61.53 24.3 61.42 24.31 61.13 25.23 61.24 25.22"/><polygon points="61.87 25.23 62.23 24.32 62.06 24.3 61.7 25.22 61.87 25.23"/><polygon points="62.4 25.33 62.82 24.43 62.73 24.4 62.31 25.31 62.4 25.33"/><polygon points="62.92 25.52 63.4 24.64 63.31 24.6 62.84 25.48 62.92 25.52"/><polygon points="63.4 25.8 63.93 24.95 63.85 24.9 63.32 25.75 63.4 25.8"/><polygon points="63.82 26.16 64.39 25.36 64.33 25.29 63.75 26.09 63.82 26.16"/><polygon points="64.21 26.63 64.82 25.88 64.72 25.74 64.11 26.5 64.21 26.63"/><polygon points="64.49 27.12 65.13 26.43 65.09 26.33 64.45 27.03 64.49 27.12"/><polygon points="64.73 27.71 65.4 27.08 65.36 26.98 64.7 27.61 64.73 27.71"/><polygon points="64.9 28.36 65.59 27.81 65.56 27.69 64.88 28.25 64.9 28.36"/><polygon points="65.01 29.08 65.7 28.59 65.69 28.47 64.99 28.95 65.01 29.08"/><polygon class="cls-9" points="65.04 29.92 65.73 29.52 65.73 29.21 65.04 29.61 65.04 29.92"/><polygon points="65.69 30.32 65.7 30.18 65.01 30.5 65 30.63 65.69 30.32"/><polygon points="65.56 31.24 65.59 31.1 64.91 31.32 64.89 31.47 65.56 31.24"/><polygon points="65.36 32.19 65.4 32.04 64.75 32.17 64.71 32.32 65.36 32.19"/><polygon points="65.09 33.15 65.13 33 64.51 33.04 64.46 33.19 65.09 33.15"/><polygon points="64.72 34.16 64.82 33.92 64.23 33.87 64.13 34.11 64.72 34.16"/><polygon points="64.33 35.07 64.39 34.92 63.85 34.78 63.78 34.93 64.33 35.07"/><polygon points="63.85 36.01 63.93 35.87 63.42 35.64 63.35 35.78 63.85 36.01"/><polygon points="63.31 36.93 63.4 36.79 62.95 36.47 62.86 36.61 63.31 36.93"/><polygon points="62.73 37.8 62.82 37.67 62.42 37.27 62.33 37.41 62.73 37.8"/><polygon points="62.06 38.67 62.23 38.47 61.89 37.99 61.73 38.2 62.06 38.67"/><polygon points="61.42 39.4 61.53 39.29 61.26 38.74 61.15 38.86 61.42 39.4"/><polygon points="60.72 40.11 60.83 40.01 60.62 39.4 60.51 39.5 60.72 40.11"/><polygon points="59.99 40.75 60.1 40.66 59.97 39.99 59.85 40.08 59.99 40.75"/><polygon points="59.25 41.3 59.36 41.22 59.29 40.5 59.18 40.58 59.25 41.3"/><path class="cls-8" d="M57.56,33.67c0,.4.28.56.62.36a1.39,1.39,0,0,0,.63-1.09c0-.4-.28-.56-.63-.36A1.4,1.4,0,0,0,57.56,33.67Z"/><polygon class="cls-8" points="61.05 27.91 61.47 28.16 58.35 33.55 57.92 33.31 61.05 27.91"/><polygon class="cls-8" points="52.61 39.96 52.35 39.48 58.01 33.19 58.26 33.67 52.61 39.96"/><polygon points="61.47 27.99 61.9 28.24 58.77 33.63 58.34 33.39 61.47 27.99"/><polygon points="53.03 40.04 52.78 39.56 58.43 33.27 58.68 33.75 53.03 40.04"/><path class="cls-10" d="M57.93,33.87a.44.44,0,0,0,.2.42s.23.12.25.13,0-.11.18-.19a1.4,1.4,0,0,0,.63-1.08c0-.15.17-.15.11-.23L59,32.75a.44.44,0,0,0-.45,0A1.37,1.37,0,0,0,57.93,33.87Z"/><path class="cls-9" d="M58.15,34c0,.4.28.56.63.36a1.37,1.37,0,0,0,.63-1.08c0-.4-.28-.56-.63-.36A1.38,1.38,0,0,0,58.15,34Z"/><polygon class="cls-9" points="58.46 26.41 58.65 26.3 58.65 36.33 58.46 36.44 58.46 26.41"/><path class="cls-15" d="M52.51,13.9a4.83,4.83,0,0,0,4.38,0,1.34,1.34,0,0,0,0-2.53,4.83,4.83,0,0,0-4.38,0A1.34,1.34,0,0,0,52.51,13.9Z"/><path class="cls-10" d="M53.11,13.79a4.65,4.65,0,0,0,4.22,0c1.17-.67,1.25-1.84,0-2.66a4.35,4.35,0,0,0-4.22.13A1.44,1.44,0,0,0,53.11,13.79Z"/><path class="cls-16" d="M53.38,13.3a4.27,4.27,0,0,0,3.86,0c1.07-.62,1.08-1.61,0-2.23a4.27,4.27,0,0,0-3.86,0A1.18,1.18,0,0,0,53.38,13.3Z"/><path d="M53.72,13l.05,0a3.56,3.56,0,0,0,3.09,0l0,0c.87-.51.89-1.32.05-1.82l0,0a3.52,3.52,0,0,0-3.19,0l-.06,0C52.84,11.68,52.85,12.48,53.72,13Z"/><path class="cls-17" d="M53.67,9.77v2.91h0a.57.57,0,0,0,.09.33,3.56,3.56,0,0,0,3.09,0,.63.63,0,0,0,.1-.32V9.77h-.18a1.48,1.48,0,0,0-.3-.23,2.56,2.56,0,0,0-2.32,0,1.18,1.18,0,0,0-.29.23Z"/><path class="cls-10" d="M53.38,10.38a4.27,4.27,0,0,0,3.86,0c1.07-.62,1.08-1.62,0-2.23a4.27,4.27,0,0,0-3.86,0A1.18,1.18,0,0,0,53.38,10.38Z"/><rect class="cls-10" x="52.59" y="8.53" width="5.46" height="0.73"/><path class="cls-16" d="M53.38,9.65a4.27,4.27,0,0,0,3.86,0c1.07-.62,1.08-1.62,0-2.23a4.27,4.27,0,0,0-3.86,0A1.18,1.18,0,0,0,53.38,9.65Z"/><path class="cls-18" d="M53.63,9.51a4,4,0,0,0,3.63,0,1.1,1.1,0,0,0,0-2.09,4,4,0,0,0-3.62,0A1.11,1.11,0,0,0,53.63,9.51Z"/><polygon class="cls-19" points="76.08 7.69 27.37 34.69 14.06 28.12 27.37 35.81 76.08 7.69"/><path class="cls-15" d="M34.07,24.54a4.8,4.8,0,0,0,4.38,0,1.34,1.34,0,0,0,0-2.53,4.88,4.88,0,0,0-4.39,0C32.87,22.71,32.86,23.85,34.07,24.54Z"/><path class="cls-10" d="M34.68,24.44a4.68,4.68,0,0,0,4.22,0c1.16-.68,1.24-1.85,0-2.67a4.37,4.37,0,0,0-4.23.14A1.44,1.44,0,0,0,34.68,24.44Z"/><path class="cls-16" d="M35,23.94a4.27,4.27,0,0,0,3.86,0,1.17,1.17,0,0,0,0-2.22,4.24,4.24,0,0,0-3.86,0C33.89,22.33,33.88,23.33,35,23.94Z"/><path d="M35.26,23.62l.06,0a3.57,3.57,0,0,0,3.08,0l.05,0c.87-.5.89-1.31,0-1.82l0,0a3.52,3.52,0,0,0-3.19,0l-.05,0A1,1,0,0,0,35.26,23.62Z"/><path class="cls-17" d="M35.24,20.42v2.9h0a.61.61,0,0,0,.1.34,3.57,3.57,0,0,0,3.08,0,.6.6,0,0,0,.1-.33v-2.9h-.18a1,1,0,0,0-.29-.24,2.58,2.58,0,0,0-2.33,0,1.13,1.13,0,0,0-.29.23Z"/><path class="cls-10" d="M35,21a4.27,4.27,0,0,0,3.86,0,1.18,1.18,0,0,0,0-2.23,4.27,4.27,0,0,0-3.86,0A1.18,1.18,0,0,0,35,21Z"/><rect class="cls-10" x="34.15" y="19.18" width="5.46" height="0.73"/><path class="cls-16" d="M35,20.3a4.27,4.27,0,0,0,3.86,0,1.18,1.18,0,0,0,0-2.23,4.27,4.27,0,0,0-3.86,0A1.18,1.18,0,0,0,35,20.3Z"/><path class="cls-18" d="M35.2,20.15a4,4,0,0,0,3.62,0c1-.58,1-1.51,0-2.09a4,4,0,0,0-3.62,0C34.21,18.64,34.2,19.57,35.2,20.15Z"/><polygon class="cls-13" points="30.07 37.37 73.38 12.37 72.72 11.98 29.41 36.99 30.07 37.37"/><polygon class="cls-11" points="30.07 37.37 30.07 65.26 29.41 64.88 29.41 36.99 30.07 37.37"/><polygon points="27.37 35.81 26.47 67.96 14.06 61.61 14.06 28.12 14.06 62.25 27.37 69.94 27.37 35.81"/><polygon class="cls-20" points="27.37 69.94 14.14 69.94 0 62.68 14.06 54.85 14.06 62.25 27.37 69.94"/></g></g></g></svg>