<svg xmlns="http://www.w3.org/2000/svg" viewBox="0 0 62.03 69.94"><defs><style>.cls-1{fill:#282828;}.cls-2{fill:#242424;}.cls-3{fill:#bf9c7c;}.cls-4{fill:#0f0f0f;}.cls-5{fill:#323232;}.cls-6{fill:#f4f4f4;}.cls-7{fill:#c8d2db;}.cls-8{fill:#ff223d;}.cls-9{fill:#b30b29;}.cls-10{fill:#875f41;}.cls-11{fill:#9ca4ab;}.cls-12{fill:#e0d4a4;}.cls-13{fill:#bcc6cf;}.cls-14{fill:#171717;}.cls-15{fill:#ff454c;}.cls-16{fill:#7d001f;}.cls-17{fill:#dd2f36;}.cls-18{fill:#474747;}</style></defs><g id="Capa_2" data-name="Capa 2"><g id="layer"><polygon class="cls-1" points="13.32 35.81 62.03 7.69 62.03 41.82 13.32 69.94 13.32 35.81"/><polygon class="cls-2" points="13.32 42.05 13.79 68.72 61.34 41.31 62.03 13.93 62.03 41.82 13.32 69.94 13.32 42.05"/><polygon class="cls-3" points="16.02 37.37 59.33 12.37 59.33 40.26 16.02 65.26 16.02 37.37"/><polygon class="cls-4" points="13.32 35.81 0 28.12 0 62.25 13.32 69.94 13.32 35.81"/><polygon class="cls-5" points="13.32 35.81 0 28.12 48.71 0 62.03 7.69 13.32 35.81"/><polygon class="cls-6" points="18.36 39.09 56.99 16.78 56.99 37.95 18.36 60.25 18.36 39.09"/><path class="cls-6" d="M33.45,39.64A15.78,15.78,0,0,1,26.28,52c-4,2.29-7.18.46-7.18-4.09a15.83,15.83,0,0,1,7.18-12.37C30.24,33.26,33.45,35.09,33.45,39.64Z"/><path d="M26.21,37.94v.21l-.73.42v-.21l.26-.15v-.93l-.17.26,0,0,0,0h-.05l-.08-.08.4-.62.21-.12v1.29Z"/><path d="M27.19,37.32a.06.06,0,0,1,.07,0,.08.08,0,0,1,0,0v.17l-.9.52V38a.2.2,0,0,1,0-.07.21.21,0,0,1,0-.07l.39-.67a1.19,1.19,0,0,0,.08-.16.83.83,0,0,0,.07-.13l0-.13a.43.43,0,0,0,0-.11.14.14,0,0,0-.05-.13.17.17,0,0,0-.13,0l-.06.05a.18.18,0,0,0-.05.07l0,.07a.19.19,0,0,0,0,.07.51.51,0,0,1,0,.1l-.08.05-.13,0a1.42,1.42,0,0,1,.05-.22,1.24,1.24,0,0,1,.1-.2.7.7,0,0,1,.14-.16l.16-.12a.44.44,0,0,1,.17-.06.19.19,0,0,1,.13,0,.18.18,0,0,1,.08.09.33.33,0,0,1,0,.15,1,1,0,0,1,0,.17,1,1,0,0,1-.06.16,1.3,1.3,0,0,1-.08.17,1.62,1.62,0,0,1-.1.18l-.27.48.09-.07a.21.21,0,0,1,.08-.06Z"/><path d="M26.28,50.11l0,.08.08-.07.08-.06a.3.3,0,0,1,.14-.05.19.19,0,0,1,.13,0,.18.18,0,0,1,.08.09.42.42,0,0,1,0,.18.82.82,0,0,1,0,.21.85.85,0,0,1-.09.22,1.39,1.39,0,0,1-.15.19.9.9,0,0,1-.19.15.45.45,0,0,1-.19.07.2.2,0,0,1-.14,0A.27.27,0,0,1,25.9,51a.38.38,0,0,1,0-.19,1,1,0,0,1,0-.24,2.85,2.85,0,0,1,.11-.3l.31-.64.05-.07a.27.27,0,0,1,.08-.07l.22-.13Zm0,.73a.24.24,0,0,0,.09-.08l.08-.09s0-.07,0-.11a.43.43,0,0,0,0-.11.25.25,0,0,0,0-.1.09.09,0,0,0,0-.06h-.07l-.1,0a.27.27,0,0,0-.08.07l-.07.09a.68.68,0,0,0-.06.22s0,.07,0,.1l0,.06h.07Z"/><path d="M29.56,37v.2l-.73.43v-.21l.26-.15V36.3l-.17.26,0,0,0,0h0l-.08-.07.4-.62.2-.12v1.29Z"/><path d="M29,47.58l.08,0,.07-.05a.6.6,0,0,1,.18-.07.18.18,0,0,1,.13,0,.16.16,0,0,1,.08.1.41.41,0,0,1,0,.16,1,1,0,0,1-.14.47.88.88,0,0,1-.35.35l-.12.05a.18.18,0,0,1-.1,0,.27.27,0,0,1-.09,0l-.08,0,.08-.16a.14.14,0,0,1,.06-.07s0,0,.05,0H29l.1,0,.1-.08.07-.1a.56.56,0,0,0,0-.12.49.49,0,0,0,0-.12c0-.08,0-.13-.05-.15s-.1,0-.17,0a.73.73,0,0,0-.18.14l-.16,0,.11-.8.65-.37v.18l0,0,0,.06-.07,0-.34.2Z"/><path d="M31.62,38.13a0,0,0,0,1,.06,0s0,0,0,.05v.17l-.9.52v-.1a.35.35,0,0,0,0-.06.59.59,0,0,1,0-.08l.38-.66.09-.16.06-.14a.56.56,0,0,0,0-.12.45.45,0,0,0,0-.11c0-.07,0-.11,0-.13a.13.13,0,0,0-.13,0l-.07,0-.05.06a.3.3,0,0,0,0,.08l0,.07a.19.19,0,0,1,0,.09.17.17,0,0,1-.08.06l-.13.05a.86.86,0,0,1,.06-.23,1.11,1.11,0,0,1,.09-.19,1.07,1.07,0,0,1,.14-.16.83.83,0,0,1,.16-.12.56.56,0,0,1,.17-.07.27.27,0,0,1,.13,0s.06,0,.08.08a.38.38,0,0,1,0,.16.44.44,0,0,1,0,.16,1.09,1.09,0,0,1-.05.17,1.4,1.4,0,0,1-.09.17l-.09.18-.28.48.09-.08.09-.05Z"/><path d="M31.74,44v.16l0,0,0,0-.1.06v.35l-.22.13v-.36l-.54.31h0s0,0,0,0l0-.13.61-1.28.24-.14v.92Zm-.37.21v-.52s0-.06,0-.09l-.38.82Z"/><path d="M31.69,40.5a1.42,1.42,0,0,1,0-.22,1.24,1.24,0,0,1,.1-.2,1,1,0,0,1,.14-.15l.16-.13.17-.06a.16.16,0,0,1,.12,0s.06,0,.08.08a.25.25,0,0,1,0,.13.51.51,0,0,1,0,.13.53.53,0,0,1,0,.12.61.61,0,0,1-.07.1l-.08.1c.15,0,.22,0,.22.21a.54.54,0,0,1,0,.22.72.72,0,0,1-.09.2,1.3,1.3,0,0,1-.15.18.66.66,0,0,1-.17.12.85.85,0,0,1-.17.08.16.16,0,0,1-.12,0,.21.21,0,0,1-.1-.06.91.91,0,0,1-.07-.14l.11-.11.08-.06a.06.06,0,0,1,.06,0l0,.05s0,0,.05,0H32l.07,0L32.2,41a.47.47,0,0,0,.06-.09.36.36,0,0,0,0-.09.29.29,0,0,0,0-.09s0-.06,0-.09a.1.1,0,0,0,0,0h-.09a.61.61,0,0,0-.15.07v-.2l.13-.09a.32.32,0,0,0,.08-.09.18.18,0,0,0,0-.09.29.29,0,0,0,0-.09.14.14,0,0,0,0-.13.12.12,0,0,0-.12,0,.18.18,0,0,0-.07.05l-.05.06a.25.25,0,0,0,0,.07.26.26,0,0,0,0,.08.39.39,0,0,1,0,.09l-.08.05Z"/><path d="M23.5,40.45v.21l-.72.42v-.21l.25-.15v-.87a.13.13,0,0,0,0-.06l-.17.26,0,0,0,0h0L22.68,40l.4-.62.2-.11v1.28Z"/><path d="M24.54,39.85v.21l-.73.42v-.21l.26-.15v-.87a.13.13,0,0,1,0-.06l-.17.26,0,0,0,0h-.05l-.07-.08.4-.61.2-.12V40Z"/><path d="M24.07,49.9V50a.28.28,0,0,1,0,.09.19.19,0,0,1,0,.07l-.47,1.4-.05.1a.27.27,0,0,1-.08.07l-.18.1.48-1.38a.36.36,0,0,0,0-.09l0-.09-.6.35h0s0,0,0,0v-.19Z"/><path d="M21.65,43.93v.21l-.73.42v-.21l.26-.14v-.93l-.17.26,0,0,0,0h0l-.08-.07.4-.62.2-.12v1.28Z"/><path d="M22.75,42.76a2,2,0,0,1,0,.36,1.33,1.33,0,0,1-.11.3.86.86,0,0,1-.15.22.7.7,0,0,1-.19.16.38.38,0,0,1-.19.06.17.17,0,0,1-.15,0,.5.5,0,0,1-.1-.18,1.32,1.32,0,0,1,0-.32,1.51,1.51,0,0,1,.14-.65.91.91,0,0,1,.15-.23.9.9,0,0,1,.19-.15.56.56,0,0,1,.19-.07.25.25,0,0,1,.15,0,.4.4,0,0,1,.11.18A1.39,1.39,0,0,1,22.75,42.76Zm-.25.15a1.47,1.47,0,0,0,0-.25.72.72,0,0,0-.05-.14.13.13,0,0,0-.07,0l-.09,0s-.05,0-.08.07a.35.35,0,0,0-.07.12.87.87,0,0,0-.05.19,2.13,2.13,0,0,0,0,.27,1.72,1.72,0,0,0,0,.26.32.32,0,0,0,.05.13.08.08,0,0,0,.07,0l.08,0,.09-.07s.05-.08.07-.13a1.67,1.67,0,0,0,.05-.19A2.13,2.13,0,0,0,22.5,42.91Z"/><path d="M21.72,49.54a.18.18,0,0,1,.18,0,.3.3,0,0,1,.05.18.64.64,0,0,1,0,.2,1.86,1.86,0,0,1-.1.2,2.09,2.09,0,0,1-.14.17,1.33,1.33,0,0,1-.19.14.6.6,0,0,1-.18.07h-.15a.2.2,0,0,1-.09-.09.35.35,0,0,1,0-.16.56.56,0,0,1,.05-.25.72.72,0,0,1,.17-.23.2.2,0,0,1-.14-.05.3.3,0,0,1,0-.18.55.55,0,0,1,0-.17,1.42,1.42,0,0,1,.08-.18,1.07,1.07,0,0,1,.14-.16l.16-.13.17-.06a.19.19,0,0,1,.13,0,.16.16,0,0,1,.09.07.33.33,0,0,1,0,.15.59.59,0,0,1-.05.22A.64.64,0,0,1,21.72,49.54Zm-.23.71a.22.22,0,0,0,.09-.07.21.21,0,0,0,.06-.08.3.3,0,0,0,0-.1.28.28,0,0,0,0-.09c0-.08,0-.13-.05-.15s-.08,0-.15,0a.36.36,0,0,0-.15.15.42.42,0,0,0-.05.2.19.19,0,0,0,0,.08.1.1,0,0,0,0,.05.07.07,0,0,0,.06,0A.16.16,0,0,0,21.49,50.25Zm0-1.1-.08.06a.35.35,0,0,0-.05.08l0,.08a.33.33,0,0,0,0,.16.05.05,0,0,0,0,0l.05,0,.08,0a.31.31,0,0,0,.09-.07.22.22,0,0,0,.05-.08l0-.08s0-.06,0-.09,0,0,0-.07a.08.08,0,0,0,0,0l-.05,0Z"/><path d="M20.69,47.35l0-.05,0,0-.09.09-.11.08-.13,0a.25.25,0,0,1-.12,0,.15.15,0,0,1-.08-.08.4.4,0,0,1,0-.17.76.76,0,0,1,0-.21,1,1,0,0,1,.09-.21.79.79,0,0,1,.33-.33.6.6,0,0,1,.18-.07.21.21,0,0,1,.14,0,.2.2,0,0,1,.09.11.48.48,0,0,1,0,.18c0,.05,0,.09,0,.14L21,47a1.21,1.21,0,0,1-.05.14.53.53,0,0,1-.06.14l-.28.64s0,0-.06.07l-.07.07-.23.13ZM20.43,47c0,.08,0,.13.05.15s.08,0,.15,0a.27.27,0,0,0,.08-.07.31.31,0,0,0,.07-.09.3.3,0,0,0,0-.1.31.31,0,0,0,0-.1.22.22,0,0,0,0-.09.08.08,0,0,0-.05-.05.06.06,0,0,0-.06,0,.13.13,0,0,0-.08,0l-.09.06-.06.09a.3.3,0,0,0,0,.1A.34.34,0,0,0,20.43,47Z"/><path class="cls-7" d="M25.28,43.94c0,.4.28.56.63.36a1.4,1.4,0,0,0,.62-1.09c0-.4-.28-.56-.62-.36A1.39,1.39,0,0,0,25.28,43.94Z"/><polygon class="cls-7" points="28.77 38.18 29.2 38.43 26.07 43.82 25.64 43.58 28.77 38.18"/><polygon class="cls-7" points="20.33 50.23 20.07 49.75 25.73 43.46 25.98 43.94 20.33 50.23"/><polygon class="cls-7" points="25.76 36.6 25.95 36.49 25.95 46.52 25.76 46.63 25.76 36.6"/><polygon class="cls-8" points="26.14 52.09 26.41 51.94 26.41 51.17 26.14 51.32 26.14 52.09"/><polygon points="25.59 52.38 25.66 51.57 25.54 51.62 25.47 52.43 25.59 52.38"/><polygon points="24.84 52.68 24.98 51.85 24.87 51.88 24.73 52.71 24.84 52.68"/><polygon points="24.12 52.88 24.32 52.03 24.21 52.05 24.01 52.9 24.12 52.88"/><polygon points="23.41 52.98 23.68 52.12 23.58 52.13 23.31 52.99 23.41 52.98"/><polygon points="22.77 52.99 23.11 52.13 22.94 52.11 22.61 52.97 22.77 52.99"/><polygon points="22.11 52.89 22.5 52.03 22.41 52.01 22.02 52.86 22.11 52.89"/><polygon points="21.52 52.69 21.97 51.85 21.89 51.81 21.43 52.65 21.52 52.69"/><polygon points="20.99 52.4 21.49 51.58 21.41 51.53 20.91 52.34 20.99 52.4"/><polygon points="20.51 52.01 21.06 51.23 20.99 51.16 20.44 51.94 20.51 52.01"/><polygon points="20.11 51.55 20.7 50.82 20.61 50.69 20.02 51.42 20.11 51.55"/><polygon points="19.75 50.96 20.37 50.28 20.32 50.19 19.7 50.87 19.75 50.96"/><polygon points="19.47 50.32 20.12 49.7 20.09 49.59 19.44 50.21 19.47 50.32"/><polygon points="19.27 49.6 19.95 49.05 19.92 48.94 19.25 49.49 19.27 49.6"/><polygon points="19.15 48.82 19.84 48.34 19.82 48.22 19.14 48.7 19.15 48.82"/><polygon class="cls-8" points="19.1 48.08 19.8 47.68 19.8 47.37 19.1 47.77 19.1 48.08"/><polygon points="19.83 46.79 19.84 46.66 19.15 46.97 19.14 47.11 19.83 46.79"/><polygon points="19.93 45.97 19.95 45.82 19.27 46.05 19.25 46.19 19.93 45.97"/><polygon points="20.1 45.11 20.14 44.97 19.47 45.1 19.44 45.25 20.1 45.11"/><polygon points="20.34 44.25 20.39 44.1 19.75 44.14 19.7 44.29 20.34 44.25"/><polygon points="20.63 43.43 20.72 43.18 20.11 43.13 20.02 43.38 20.63 43.43"/><polygon points="21.01 42.51 21.08 42.37 20.51 42.22 20.44 42.37 21.01 42.51"/><polygon points="21.44 41.66 21.51 41.52 20.99 41.28 20.91 41.42 21.44 41.66"/><polygon points="21.91 40.84 22 40.7 21.52 40.37 21.43 40.51 21.91 40.84"/><polygon points="22.43 40.04 22.53 39.91 22.11 39.49 22.02 39.62 22.43 40.04"/><polygon points="22.96 39.33 23.13 39.12 22.77 38.62 22.61 38.83 22.96 39.33"/><polygon points="23.6 38.58 23.7 38.47 23.41 37.89 23.31 38 23.6 38.58"/><polygon points="24.23 37.94 24.34 37.83 24.12 37.18 24.01 37.28 24.23 37.94"/><polygon points="24.88 37.35 24.99 37.26 24.84 36.54 24.73 36.64 24.88 37.35"/><polygon points="25.55 36.84 25.66 36.76 25.59 35.99 25.47 36.07 25.55 36.84"/><polygon class="cls-8" points="26.14 36.45 26.41 36.3 26.41 35.47 26.14 35.63 26.14 36.45"/><polygon points="27.01 36 27.09 35.13 26.97 35.19 26.9 36.05 27.01 36"/><polygon points="27.68 35.74 27.83 34.85 27.71 34.89 27.57 35.78 27.68 35.74"/><polygon points="28.33 35.57 28.55 34.66 28.44 34.68 28.22 35.59 28.33 35.57"/><polygon points="28.96 35.49 29.25 34.57 29.14 34.58 28.85 35.5 28.96 35.49"/><polygon points="29.59 35.5 29.95 34.59 29.78 34.57 29.43 35.49 29.59 35.5"/><polygon points="30.12 35.6 30.54 34.7 30.45 34.67 30.03 35.58 30.12 35.6"/><polygon points="30.65 35.79 31.12 34.91 31.04 34.87 30.56 35.75 30.65 35.79"/><polygon points="31.12 36.07 31.65 35.22 31.57 35.17 31.04 36.02 31.12 36.07"/><polygon points="31.54 36.43 32.12 35.63 32.05 35.56 31.48 36.37 31.54 36.43"/><polygon points="31.93 36.9 32.54 36.15 32.44 36.01 31.83 36.77 31.93 36.9"/><polygon points="32.22 37.39 32.86 36.7 32.81 36.6 32.17 37.3 32.22 37.39"/><polygon points="32.45 37.98 33.12 37.35 33.08 37.25 32.42 37.88 32.45 37.98"/><polygon points="32.63 38.64 33.31 38.08 33.28 37.96 32.6 38.52 32.63 38.64"/><polygon points="32.73 39.35 33.42 38.86 33.41 38.74 32.72 39.22 32.73 39.35"/><polygon class="cls-8" points="32.76 40.19 33.45 39.79 33.45 39.48 32.76 39.88 32.76 40.19"/><polygon points="33.41 40.59 33.42 40.45 32.73 40.77 32.72 40.91 33.41 40.59"/><polygon points="33.28 41.51 33.31 41.37 32.64 41.59 32.61 41.74 33.28 41.51"/><polygon points="33.08 42.46 33.12 42.31 32.47 42.45 32.43 42.59 33.08 42.46"/><polygon points="32.81 43.42 32.86 43.27 32.23 43.31 32.19 43.46 32.81 43.42"/><polygon points="32.44 44.43 32.54 44.19 31.95 44.14 31.86 44.38 32.44 44.43"/><polygon points="32.05 45.34 32.12 45.2 31.57 45.05 31.5 45.2 32.05 45.34"/><polygon points="31.57 46.28 31.65 46.14 31.14 45.91 31.07 46.05 31.57 46.28"/><polygon points="31.04 47.2 31.12 47.06 30.67 46.74 30.58 46.88 31.04 47.2"/><polygon points="30.45 48.07 30.54 47.94 30.15 47.54 30.05 47.68 30.45 48.07"/><polygon points="29.78 48.94 29.95 48.74 29.61 48.26 29.45 48.47 29.78 48.94"/><polygon points="29.14 49.67 29.25 49.56 28.98 49.02 28.87 49.13 29.14 49.67"/><polygon points="28.44 50.38 28.55 50.28 28.34 49.67 28.23 49.77 28.44 50.38"/><polygon points="27.71 51.02 27.83 50.93 27.69 50.26 27.57 50.35 27.71 51.02"/><polygon points="26.97 51.58 27.09 51.49 27.02 50.77 26.9 50.85 26.97 51.58"/><polygon points="29.19 38.26 29.62 38.51 26.49 43.9 26.07 43.66 29.19 38.26"/><polygon points="20.75 50.31 20.5 49.83 26.15 43.54 26.41 44.02 20.75 50.31"/><path class="cls-9" d="M25.65,44.14a.44.44,0,0,0,.2.42s.23.13.25.13,0-.11.18-.19a1.37,1.37,0,0,0,.63-1.08c0-.15.17-.15.11-.23L26.73,43a.44.44,0,0,0-.45,0A1.38,1.38,0,0,0,25.65,44.14Z"/><path class="cls-8" d="M25.87,44.27c0,.39.28.55.63.35a1.37,1.37,0,0,0,.63-1.08c0-.4-.28-.56-.63-.36A1.39,1.39,0,0,0,25.87,44.27Z"/><polygon class="cls-8" points="26.18 36.68 26.38 36.57 26.38 46.6 26.18 46.71 26.18 36.68"/><polygon class="cls-10" points="55.79 17.48 55.79 37.58 56.99 37.95 56.99 16.78 55.79 17.48"/><polygon class="cls-11" points="18.36 57.74 18.36 59.19 55.79 37.58 55.79 17.48 54.16 18.42 54.16 37.07 18.36 57.74"/><polygon class="cls-12" points="18.36 59.19 18.36 60.25 56.99 37.95 55.79 37.58 18.36 59.19"/><polygon class="cls-13" points="18.36 57.74 18.36 59.19 55.79 37.58 54.16 37.07 18.36 57.74"/><path class="cls-6" d="M51.67,29.37A15.82,15.82,0,0,1,44.5,41.74c-4,2.29-7.17.46-7.17-4.09A15.82,15.82,0,0,1,44.5,25.28C48.46,23,51.67,24.82,51.67,29.37Z"/><polygon class="cls-7" points="43.98 26.33 44.17 26.22 44.17 36.25 43.98 36.36 43.98 26.33"/><path d="M44.43,27.67v.21l-.73.42v-.21l.26-.15v-.87s0,0,0-.06l-.17.26,0,0,0,0h0l-.07-.08.4-.62.2-.12V27.8Z"/><path d="M45.41,27.05a.06.06,0,0,1,.07,0,.06.06,0,0,1,0,.05v.17l-.9.52v-.09a.2.2,0,0,1,0-.07l0-.07.39-.67.09-.16.06-.13c0-.05,0-.09,0-.13s0-.07,0-.11a.14.14,0,0,0,0-.13s-.07,0-.12,0l-.07.05a.18.18,0,0,0-.05.07.16.16,0,0,0,0,.07l0,.07a.3.3,0,0,1,0,.1l-.08,0-.13.05a1.42,1.42,0,0,1,.05-.22,1.24,1.24,0,0,1,.1-.2,1.07,1.07,0,0,1,.14-.16,1,1,0,0,1,.16-.12.44.44,0,0,1,.17-.06.19.19,0,0,1,.13,0,.2.2,0,0,1,.08.08.41.41,0,0,1,0,.16,1,1,0,0,1,0,.17.52.52,0,0,1-.06.16,1.3,1.3,0,0,1-.08.17,1.62,1.62,0,0,1-.1.18l-.27.48.09-.08.08-.05Z"/><path d="M44.5,39.84l0,.08a.23.23,0,0,1,.07-.07l.08-.06a.3.3,0,0,1,.14,0,.19.19,0,0,1,.13,0,.15.15,0,0,1,.08.09A.29.29,0,0,1,45,40a.57.57,0,0,1,0,.22,1,1,0,0,1-.09.22,1,1,0,0,1-.34.34.56.56,0,0,1-.19.07.21.21,0,0,1-.14,0,.27.27,0,0,1-.09-.12.56.56,0,0,1,0-.2,1.12,1.12,0,0,1,0-.24c0-.08.07-.18.12-.29l.3-.64.05-.08.08-.06.22-.13Zm0,.72a.28.28,0,0,0,.09-.07l.07-.09a.49.49,0,0,0,0-.11.52.52,0,0,0,0-.11.15.15,0,0,0,0-.1.09.09,0,0,0,0-.06h-.07l-.09,0-.09.07a.31.31,0,0,0-.07.09.68.68,0,0,0-.06.22.3.3,0,0,0,0,.1.21.21,0,0,0,0,.06h.06A.16.16,0,0,0,44.54,40.56Z"/><path d="M47.78,26.69v.2l-.73.42v-.2l.26-.15V26l-.17.26,0,0,0,0h0s0,0,0,0L47,26.27l.4-.62.2-.12v1.29Z"/><path d="M47.22,37.31l.08-.06.07,0a.6.6,0,0,1,.18-.07.18.18,0,0,1,.22.12.7.7,0,0,1,0,.16,1,1,0,0,1,0,.24,1,1,0,0,1-.11.23.88.88,0,0,1-.35.35l-.12,0-.1,0H47l-.08,0,.08-.16a.14.14,0,0,1,.06-.07l.05,0h.12l.1,0a.39.39,0,0,0,.1-.08.61.61,0,0,0,.07-.1.56.56,0,0,0,0-.12.5.5,0,0,0,0-.12q0-.12-.06-.15a.17.17,0,0,0-.17,0,.73.73,0,0,0-.18.14l-.15,0,.1-.8.66-.37v.12a.43.43,0,0,1,0,0s0,0,0,.06a.1.1,0,0,1,0,0,.18.18,0,0,1-.07.05l-.33.2Z"/><path d="M49.84,27.86s0,0,.06,0,0,0,0,0v.17l-.9.52v-.16a.59.59,0,0,1,0-.08l.38-.66c0-.06.06-.11.09-.16a.84.84,0,0,0,.06-.14.56.56,0,0,0,0-.12.49.49,0,0,0,0-.12c0-.06,0-.1,0-.12s-.07,0-.13,0l-.06.05-.06.06s0,.05,0,.08a.19.19,0,0,0,0,.07.19.19,0,0,1,0,.09.2.2,0,0,1-.07.06l-.14.05a.86.86,0,0,1,.06-.23.69.69,0,0,1,.1-.19,1,1,0,0,1,.13-.16.66.66,0,0,1,.17-.12.43.43,0,0,1,.16-.07.27.27,0,0,1,.13,0,.2.2,0,0,1,.09.09.38.38,0,0,1,0,.16.45.45,0,0,1,0,.16,1.09,1.09,0,0,1-.05.17l-.08.17-.1.18-.28.48.09-.08.09-.06Z"/><path d="M50,33.7v.2l0,0-.1.06v.35l-.22.13v-.36l-.53.31H49s0,0,0,0l0-.13.6-1.28.24-.14v.92Zm-.37.21v-.45a.17.17,0,0,1,0-.07V33.3l-.37.82Z"/><path d="M49.91,30.23A.79.79,0,0,1,50,30a.72.72,0,0,1,.09-.2,1.07,1.07,0,0,1,.14-.16l.16-.12a.44.44,0,0,1,.17-.06.16.16,0,0,1,.12,0,.14.14,0,0,1,.08.07.32.32,0,0,1,0,.14s0,.09,0,.13,0,.08,0,.12l-.06.1-.09.1c.15,0,.22,0,.22.21a.83.83,0,0,1,0,.22,1.24,1.24,0,0,1-.1.2.61.61,0,0,1-.15.17.7.7,0,0,1-.17.13.52.52,0,0,1-.16.07.15.15,0,0,1-.13,0,.17.17,0,0,1-.1-.07.39.39,0,0,1-.06-.13l.1-.11.08-.06s0,0,.06,0a.1.1,0,0,0,0,0s0,0,0,0h.06l.07,0a.22.22,0,0,0,.09-.07l.07-.09a.32.32,0,0,0,0-.09.29.29,0,0,0,0-.09s0-.06,0-.09a.1.1,0,0,0,0-.05.12.12,0,0,0-.08,0l-.16.07v-.2a.48.48,0,0,0,.13-.09.38.38,0,0,0,.09-.09.36.36,0,0,0,0-.09s0-.06,0-.09a.14.14,0,0,0-.05-.13.14.14,0,0,0-.12,0l-.07.05a.18.18,0,0,0-.05.07.16.16,0,0,0,0,.07l0,.07a.19.19,0,0,1,0,.1.16.16,0,0,1-.08.05Z"/><path d="M41.73,30.18v.21l-.73.42V30.6l.26-.15v-.93l-.17.26,0,0,0,0h0l-.08-.08.4-.62.2-.11v1.28Z"/><path d="M42.77,29.58v.21l-.73.42V30l.25-.15V29a.13.13,0,0,1,0-.06v-.06l-.17.26,0,0,0,0h0a0,0,0,0,0,0,0l-.08-.08.4-.62.2-.11v1.28Z"/><path d="M42.3,39.62v.13s0,.06,0,.09l0,.07-.47,1.4a.93.93,0,0,1,0,.1.19.19,0,0,1-.08.07l-.18.1L42,40.2l0-.09,0-.09-.6.35s0,0,0,0l0,0v-.19Z"/><path d="M39.87,33.66v.21l-.73.42v-.21l.26-.15V33l-.17.26,0,0,0,0h-.05L39,33.25l.4-.62.21-.12v1.28Z"/><path d="M41,32.49a2,2,0,0,1,0,.36,1.63,1.63,0,0,1-.1.29,1,1,0,0,1-.16.23.58.58,0,0,1-.19.16.35.35,0,0,1-.19.06.18.18,0,0,1-.15-.05.5.5,0,0,1-.1-.18A1.39,1.39,0,0,1,40,33a2,2,0,0,1,0-.36,1.63,1.63,0,0,1,.1-.29,1.53,1.53,0,0,1,.15-.23.83.83,0,0,1,.19-.15.64.64,0,0,1,.19-.07.3.3,0,0,1,.16,0,.5.5,0,0,1,.1.18A1.39,1.39,0,0,1,41,32.49Zm-.25.15a1.47,1.47,0,0,0,0-.25.38.38,0,0,0-.05-.14.13.13,0,0,0-.07,0,.16.16,0,0,0-.09,0s-.05,0-.08.07a.35.35,0,0,0-.07.12.87.87,0,0,0-.05.19,2.13,2.13,0,0,0,0,.27,1.72,1.72,0,0,0,0,.26.32.32,0,0,0,.05.13.08.08,0,0,0,.07,0l.08,0,.09-.07s.05-.08.07-.13a.74.74,0,0,0,.05-.19A2.13,2.13,0,0,0,40.72,32.64Z"/><path d="M40,39.27a.17.17,0,0,1,.17,0,.3.3,0,0,1,.05.18.64.64,0,0,1,0,.2,1.11,1.11,0,0,1-.09.19,1.3,1.3,0,0,1-.15.18.64.64,0,0,1-.19.13.55.55,0,0,1-.18.08h-.15a.2.2,0,0,1-.09-.09.35.35,0,0,1,0-.16.7.7,0,0,1,.05-.25.91.91,0,0,1,.17-.23.17.17,0,0,1-.13,0,.3.3,0,0,1-.05-.18.55.55,0,0,1,0-.17.76.76,0,0,1,.09-.18.65.65,0,0,1,.13-.16l.16-.13.17-.06a.18.18,0,0,1,.13,0,.16.16,0,0,1,.09.07.33.33,0,0,1,0,.15.59.59,0,0,1-.05.22A.8.8,0,0,1,40,39.27Zm-.24.71a.22.22,0,0,0,.09-.07l.07-.09a.32.32,0,0,0,0-.09.3.3,0,0,0,0-.1.17.17,0,0,0-.05-.14s-.09,0-.16,0a.54.54,0,0,0-.15.15.42.42,0,0,0-.05.2s0,.06,0,.08l0,0h.07Zm0-1.1-.07.06a.42.42,0,0,0-.06.08l0,.08s0,0,0,.08a.22.22,0,0,0,0,.08s0,0,0,.05l.05,0,.08,0a.3.3,0,0,0,.14-.15l0-.08s0-.06,0-.09,0,0,0-.07l0,0h-.06Z"/><path d="M38.91,37.08l0,0L39,37l-.09.1-.11.08-.13.05a.2.2,0,0,1-.11,0,.14.14,0,0,1-.09-.08.43.43,0,0,1,0-.17.76.76,0,0,1,0-.21,2,2,0,0,1,.1-.21.85.85,0,0,1,.14-.19.86.86,0,0,1,.18-.14.6.6,0,0,1,.18-.07.21.21,0,0,1,.14,0,.2.2,0,0,1,.09.11.48.48,0,0,1,0,.18.66.66,0,0,1,0,.14l0,.14s0,.09,0,.14l-.06.14-.29.64,0,.07a.21.21,0,0,1-.08.06l-.23.14Zm-.26-.32c0,.08,0,.13.05.15s.08,0,.15,0l.09-.07.06-.09a.3.3,0,0,0,0-.1.34.34,0,0,0,0-.1.31.31,0,0,0,0-.1.1.1,0,0,0,0,0h-.07l-.08,0a.24.24,0,0,0-.08.06l-.07.09a1,1,0,0,0,0,.1A.34.34,0,0,0,38.65,36.76Z"/><polygon class="cls-8" points="44.37 41.82 44.64 41.66 44.64 40.9 44.37 41.05 44.37 41.82"/><polygon points="43.81 42.1 43.88 41.3 43.76 41.35 43.69 42.16 43.81 42.1"/><polygon points="43.07 42.41 43.2 41.58 43.09 41.61 42.95 42.44 43.07 42.41"/><polygon points="42.34 42.61 42.55 41.76 42.44 41.78 42.23 42.63 42.34 42.61"/><polygon points="41.64 42.71 41.91 41.85 41.8 41.86 41.53 42.72 41.64 42.71"/><polygon points="41 42.72 41.33 41.86 41.17 41.84 40.83 42.7 41 42.72"/><polygon points="40.33 42.62 40.73 41.76 40.63 41.74 40.24 42.59 40.33 42.62"/><polygon points="39.74 42.42 40.2 41.58 40.11 41.54 39.66 42.38 39.74 42.42"/><polygon points="39.21 42.12 39.71 41.31 39.63 41.26 39.13 42.07 39.21 42.12"/><polygon points="38.73 41.73 39.28 40.96 39.21 40.89 38.66 41.67 38.73 41.73"/><polygon points="38.34 41.28 38.92 40.55 38.83 40.41 38.24 41.15 38.34 41.28"/><polygon points="37.97 40.69 38.59 40.01 38.55 39.92 37.92 40.6 37.97 40.69"/><polygon points="37.7 40.05 38.35 39.43 38.31 39.32 37.66 39.94 37.7 40.05"/><polygon points="37.5 39.33 38.17 38.78 38.14 38.66 37.47 39.22 37.5 39.33"/><polygon points="37.37 38.55 38.06 38.07 38.05 37.95 37.36 38.43 37.37 38.55"/><polygon class="cls-8" points="37.33 37.81 38.02 37.41 38.02 37.1 37.33 37.5 37.33 37.81"/><polygon points="38.05 36.52 38.06 36.38 37.37 36.7 37.36 36.84 38.05 36.52"/><polygon points="38.15 35.7 38.18 35.55 37.5 35.78 37.47 35.92 38.15 35.7"/><polygon points="38.33 34.84 38.36 34.7 37.7 34.83 37.66 34.98 38.33 34.84"/><polygon points="38.56 33.98 38.61 33.83 37.97 33.87 37.92 34.02 38.56 33.98"/><polygon points="38.85 33.16 38.95 32.91 38.34 32.86 38.24 33.1 38.85 33.16"/><polygon points="39.23 32.24 39.3 32.1 38.73 31.95 38.66 32.09 39.23 32.24"/><polygon points="39.66 31.39 39.74 31.25 39.21 31.01 39.13 31.15 39.66 31.39"/><polygon points="40.13 30.57 40.22 30.43 39.74 30.09 39.66 30.23 40.13 30.57"/><polygon points="40.66 29.77 40.75 29.64 40.33 29.22 40.24 29.35 40.66 29.77"/><polygon points="41.19 29.06 41.35 28.85 41 28.35 40.83 28.55 41.19 29.06"/><polygon points="41.82 28.31 41.93 28.2 41.64 27.62 41.53 27.73 41.82 28.31"/><polygon points="42.45 27.66 42.56 27.56 42.34 26.91 42.23 27.01 42.45 27.66"/><polygon points="43.1 27.08 43.22 26.99 43.07 26.27 42.95 26.37 43.1 27.08"/><polygon points="43.77 26.57 43.88 26.49 43.81 25.72 43.69 25.8 43.77 26.57"/><polygon class="cls-8" points="44.37 26.18 44.64 26.02 44.64 25.2 44.37 25.36 44.37 26.18"/><polygon points="45.23 25.73 45.31 24.86 45.19 24.92 45.12 25.78 45.23 25.73"/><polygon points="45.9 25.47 46.05 24.58 45.94 24.62 45.79 25.5 45.9 25.47"/><polygon points="46.55 25.3 46.77 24.39 46.66 24.41 46.44 25.32 46.55 25.3"/><polygon points="47.18 25.22 47.47 24.3 47.37 24.31 47.08 25.23 47.18 25.22"/><polygon points="47.81 25.23 48.17 24.32 48.01 24.3 47.65 25.22 47.81 25.23"/><polygon points="48.35 25.33 48.77 24.43 48.67 24.4 48.25 25.31 48.35 25.33"/><polygon points="48.87 25.52 49.34 24.64 49.26 24.6 48.78 25.48 48.87 25.52"/><polygon points="49.34 25.8 49.87 24.95 49.79 24.9 49.27 25.75 49.34 25.8"/><polygon points="49.77 26.16 50.34 25.36 50.27 25.29 49.7 26.09 49.77 26.16"/><polygon points="50.15 26.63 50.76 25.88 50.67 25.74 50.06 26.5 50.15 26.63"/><polygon points="50.44 27.12 51.08 26.43 51.03 26.33 50.39 27.03 50.44 27.12"/><polygon points="50.68 27.71 51.34 27.08 51.31 26.98 50.64 27.61 50.68 27.71"/><polygon points="50.85 28.36 51.53 27.81 51.51 27.69 50.83 28.25 50.85 28.36"/><polygon points="50.95 29.08 51.64 28.59 51.63 28.47 50.94 28.95 50.95 29.08"/><polygon class="cls-8" points="50.98 29.92 51.67 29.52 51.67 29.21 50.98 29.61 50.98 29.92"/><polygon points="51.63 30.32 51.64 30.18 50.95 30.5 50.94 30.63 51.63 30.32"/><polygon points="51.51 31.24 51.53 31.1 50.86 31.32 50.83 31.47 51.51 31.24"/><polygon points="51.31 32.19 51.34 32.04 50.69 32.17 50.66 32.32 51.31 32.19"/><polygon points="51.03 33.15 51.08 33 50.46 33.04 50.41 33.19 51.03 33.15"/><polygon points="50.67 34.16 50.76 33.92 50.17 33.87 50.08 34.11 50.67 34.16"/><polygon points="50.27 35.07 50.34 34.92 49.79 34.78 49.72 34.93 50.27 35.07"/><polygon points="49.79 36.01 49.87 35.87 49.37 35.64 49.29 35.78 49.79 36.01"/><polygon points="49.26 36.93 49.34 36.79 48.89 36.47 48.81 36.61 49.26 36.93"/><polygon points="48.67 37.8 48.77 37.67 48.37 37.27 48.28 37.41 48.67 37.8"/><polygon points="48.01 38.67 48.17 38.47 47.84 37.99 47.67 38.2 48.01 38.67"/><polygon points="47.37 39.4 47.47 39.29 47.2 38.74 47.09 38.86 47.37 39.4"/><polygon points="46.66 40.11 46.77 40.01 46.57 39.4 46.46 39.5 46.66 40.11"/><polygon points="45.94 40.75 46.05 40.66 45.91 39.99 45.8 40.08 45.94 40.75"/><polygon points="45.19 41.3 45.31 41.22 45.24 40.5 45.12 40.58 45.19 41.3"/><path class="cls-7" d="M43.5,33.67c0,.4.28.56.63.36a1.39,1.39,0,0,0,.63-1.09c0-.4-.28-.56-.63-.36A1.39,1.39,0,0,0,43.5,33.67Z"/><polygon class="cls-7" points="46.99 27.91 47.42 28.16 44.29 33.55 43.86 33.31 46.99 27.91"/><polygon class="cls-7" points="38.55 39.96 38.3 39.48 43.95 33.19 44.2 33.67 38.55 39.96"/><polygon points="47.42 27.99 47.84 28.24 44.71 33.63 44.29 33.39 47.42 27.99"/><polygon points="38.98 40.04 38.72 39.56 44.37 33.27 44.63 33.75 38.98 40.04"/><path class="cls-9" d="M43.87,33.87a.45.45,0,0,0,.2.42s.23.12.25.13,0-.11.18-.19a1.37,1.37,0,0,0,.63-1.08c0-.15.18-.15.11-.23L45,32.75a.44.44,0,0,0-.45,0A1.37,1.37,0,0,0,43.87,33.87Z"/><path class="cls-8" d="M44.09,34c0,.4.29.56.63.36a1.37,1.37,0,0,0,.63-1.08c0-.4-.28-.56-.63-.36A1.41,1.41,0,0,0,44.09,34Z"/><polygon class="cls-8" points="44.41 26.41 44.6 26.3 44.6 36.33 44.41 36.44 44.41 26.41"/><path class="cls-14" d="M38.45,13.9a4.83,4.83,0,0,0,4.38,0,1.34,1.34,0,0,0,0-2.53,4.85,4.85,0,0,0-4.39,0A1.34,1.34,0,0,0,38.45,13.9Z"/><path class="cls-9" d="M39.06,13.79a4.63,4.63,0,0,0,4.21,0c1.17-.67,1.25-1.84,0-2.66a4.37,4.37,0,0,0-4.23.13A1.44,1.44,0,0,0,39.06,13.79Z"/><path class="cls-15" d="M39.33,13.3a4.27,4.27,0,0,0,3.86,0,1.18,1.18,0,0,0,0-2.23,4.27,4.27,0,0,0-3.86,0C38.27,11.69,38.26,12.68,39.33,13.3Z"/><path d="M39.66,13l.06,0a3.54,3.54,0,0,0,3.08,0l.05,0c.87-.51.89-1.32,0-1.82l0,0a3.52,3.52,0,0,0-3.19,0l-.05,0A1,1,0,0,0,39.66,13Z"/><path class="cls-16" d="M39.62,9.77v2.91h0a.58.58,0,0,0,.1.33,3.54,3.54,0,0,0,3.08,0,.55.55,0,0,0,.1-.32V9.77h-.18a1.18,1.18,0,0,0-.29-.23,2.58,2.58,0,0,0-2.33,0,1.4,1.4,0,0,0-.29.23Z"/><path class="cls-9" d="M39.33,10.38a4.27,4.27,0,0,0,3.86,0,1.18,1.18,0,0,0,0-2.23,4.27,4.27,0,0,0-3.86,0C38.27,8.77,38.26,9.77,39.33,10.38Z"/><rect class="cls-9" x="38.53" y="8.53" width="5.46" height="0.73"/><path class="cls-15" d="M39.33,9.65a4.27,4.27,0,0,0,3.86,0,1.18,1.18,0,0,0,0-2.23,4.27,4.27,0,0,0-3.86,0C38.27,8,38.26,9,39.33,9.65Z"/><path class="cls-17" d="M39.58,9.51a4,4,0,0,0,3.62,0c1-.58,1-1.52,0-2.09a4,4,0,0,0-3.62,0A1.11,1.11,0,0,0,39.58,9.51Z"/><polygon class="cls-18" points="62.03 7.69 13.32 34.69 0 28.12 13.32 35.81 62.03 7.69"/><path class="cls-14" d="M20,24.54a4.82,4.82,0,0,0,4.39,0,1.34,1.34,0,0,0,0-2.53A4.86,4.86,0,0,0,20,22C18.81,22.71,18.81,23.85,20,24.54Z"/><path class="cls-9" d="M20.62,24.44a4.68,4.68,0,0,0,4.22,0c1.17-.68,1.25-1.85,0-2.67a4.35,4.35,0,0,0-4.22.14A1.44,1.44,0,0,0,20.62,24.44Z"/><path class="cls-15" d="M20.89,23.94a4.27,4.27,0,0,0,3.86,0,1.17,1.17,0,0,0,0-2.22,4.24,4.24,0,0,0-3.86,0A1.18,1.18,0,0,0,20.89,23.94Z"/><path d="M21.2,23.62l.06,0a3.57,3.57,0,0,0,3.08,0l.05,0c.87-.5.89-1.31.05-1.82a.05.05,0,0,0,0,0,3.52,3.52,0,0,0-3.19,0l-.05,0A1,1,0,0,0,21.2,23.62Z"/><path class="cls-16" d="M21.18,20.42v2.9h0a.7.7,0,0,0,.1.34,3.6,3.6,0,0,0,3.09,0,.7.7,0,0,0,.1-.33v-2.9h-.18a1.22,1.22,0,0,0-.3-.24,2.56,2.56,0,0,0-2.32,0,1,1,0,0,0-.29.23Z"/><path class="cls-9" d="M20.89,21a4.27,4.27,0,0,0,3.86,0c1.07-.62,1.08-1.62,0-2.23a4.27,4.27,0,0,0-3.86,0A1.18,1.18,0,0,0,20.89,21Z"/><rect class="cls-9" x="20.1" y="19.18" width="5.46" height="0.73"/><path class="cls-15" d="M20.89,20.3a4.27,4.27,0,0,0,3.86,0c1.07-.62,1.08-1.62,0-2.23a4.27,4.27,0,0,0-3.86,0A1.18,1.18,0,0,0,20.89,20.3Z"/><path class="cls-17" d="M21.14,20.15a4,4,0,0,0,3.63,0,1.1,1.1,0,0,0,0-2.09,4,4,0,0,0-3.62,0A1.1,1.1,0,0,0,21.14,20.15Z"/><polygon class="cls-12" points="16.02 37.37 59.33 12.37 58.67 11.98 15.36 36.99 16.02 37.37"/><polygon class="cls-10" points="16.02 37.37 16.02 65.26 15.36 64.88 15.36 36.99 16.02 37.37"/><polygon points="13.32 35.81 12.42 67.96 0 61.61 0 28.12 0 62.25 13.32 69.94 13.32 35.81"/></g></g></svg>