<svg xmlns="http://www.w3.org/2000/svg" xmlns:xlink="http://www.w3.org/1999/xlink" viewBox="0 0 60.86 64.26"><defs><style>.cls-1{fill:#1f1f1f;}.cls-2{isolation:isolate;}.cls-3{fill:#d7dce0;mix-blend-mode:multiply;}.cls-4{fill:#aeb1b3;}.cls-5{fill:#d2d5d6;}.cls-6{clip-path:url(#clip-path);}.cls-7{fill:#cdd0d1;}.cls-8{fill:#babdbd;}.cls-9{fill:#e6eaeb;}.cls-10{fill:#f5f9fa;}.cls-11{fill:#d4d8d9;}.cls-12{fill:#c0c3c4;}.cls-13{fill:#f7fafb;}</style><clipPath id="clip-path"><path class="cls-1" d="M37.93,56.32c0-.23,0-.53,0-.75s.05-.32.07-.45c.08-.34.11-.46.19-.72s.16-.43.24-.62a8.66,8.66,0,0,1,1.44-2.28c-2,2.28-1.44,5.14,1.79,7.09,4.07,2.45,10.81,2.51,15,.15,3.49-2,4.2-4.93,2.08-7.29a8.57,8.57,0,0,1,1.45,2.23,7.64,7.64,0,0,1,.42,1.3,5.88,5.88,0,0,1,.15,1.27c0,1.75-1.18,3.5-3.53,4.81-4.57,2.55-11.82,2.47-16.21-.16C39,59.62,37.94,58,37.93,56.32Z"/></clipPath></defs><g class="cls-2"><g id="Capa_2" data-name="Capa 2"><g id="layer"><path class="cls-3" d="M55.36,54l0-.05a14.68,14.68,0,0,0-3.22-4,12.19,12.19,0,0,1-1.8-2.05c-.56-.63-1-.55-1.93-.59l-.32,0-.64,0-.3,0h0c-.29-.11-.52-.17-.59-.19a6,6,0,0,0-.71-.15,8,8,0,0,0-.91-.12l-.75,0h-.68C40,45.34,33.32,42.5,28,39.74a2.09,2.09,0,0,1-.38-.24l-.19-.2s.06-.09.09-.15l0,0,.15-.27,0,0,.1-.21.1-.29s0,0,0,.06.06-.23.1-.4l0-.27a2.15,2.15,0,0,0-.05-.48L27.91,37l-.14-.3-.12-.19-.16-.19-.14-.15-.14-.13-.14-.12L27,35.84l-.12-.09-.09-.07-.09-.06-.07,0-.07,0h0l-.05,0-.25-.18.06,0a2.27,2.27,0,0,0-.33-.19l-.17-.09a4.71,4.71,0,0,0-.51-.19L25,34.78l-.51-.11-.36-.05-.54,0h-.44a12.45,12.45,0,0,0-1.56.12,9.92,9.92,0,0,0-2.69-2.11c-2.52-1.45-9.36-2.54-13.19-3.06.25-.56,0-1.17-.74-1.61a4.55,4.55,0,0,0-4.1,0c-1.13.66-1.14,1.71,0,2.36a4.37,4.37,0,0,0,2.77.43l.1.22.07.15.2.48c.07.15.17.35.23.5l.25.5c.07.16.18.37.26.53l.28.53c.08.16.21.37.3.53l.3.52c.1.17.24.38.34.54l.34.5.39.52.37.45c.13.15.33.35.47.5l.4.38.64.5.1.06.33.21c.38.22.77.43,1.17.62h0l.5.23.13.06.25.1.11,0,.1,0,.19.07.19.08.32.1.1,0,.19.06.1,0,.14,0h.06l-.1.25-.09.3c0,.1,0,.23,0,.33V41c0,.1,0,.23,0,.32l.09.23a3.49,3.49,0,0,0,.18.31l.14.17a2,2,0,0,0,.35.31l.18.12a2.56,2.56,0,0,0,.39.21l.18.08.16.07.07,0,.11.06.11,0,.16.06.15.07.21.08.2.08.31.1.26.07.47.1.33.05.75.07h.41a11.11,11.11,0,0,0,1.3-.06l.49-.07.15,0,.33-.06.14,0,.17,0,.35-.07.16,0a2.84,2.84,0,0,1,.62.28,149.06,149.06,0,0,1,12.27,8.9h0a.34.34,0,0,0,0,.1s0,0,0,.06,0,.13,0,.18a2.34,2.34,0,0,0,0,.38,2.46,2.46,0,0,0,.17.5,1.79,1.79,0,0,0,.24.41,2.6,2.6,0,0,0,.3.34l.12.11.5,2.93a2,2,0,0,0,0,.24.64.64,0,0,0,0,.07l.06.18,0,0a1.47,1.47,0,0,0,.1.22l0,0,.05.07,0,0,0,0,.06.09,0,.06.06.08,0,0h0l0,0h0l.09.11c.06.08.17.18.24.26a5,5,0,0,0,.43.34l.3.2.34.18.56.25.45.16,0,0v0a1.77,1.77,0,0,0,.19.23,3.79,3.79,0,0,0,.45.45,2.91,2.91,0,0,0,.33.26l.06.05.23.16.1.06,0,0,.19.11,1.15.66a8.79,8.79,0,0,0,4.48.87h.22l.33,0h.14l.46,0h0l.39,0h.06L47.3,63l.53-.08.17,0,.37-.06.2,0,.33-.07.22-.05.33-.08.2,0L50,62.4l.19,0,.44-.13.08,0,.5-.16h0c.28-.08.55-.18.82-.28l.16-.06c.27-.09.53-.2.8-.3l0,0c1.14-.46,4-1.36,4.42-2.67S56.05,55.07,55.36,54Z"/><path class="cls-4" d="M60.86,56.16v-.1c0-.11,0-.21,0-.3l0-.1s0-.09,0-.13l0-.14c0-.12,0-.29-.08-.41l-.08-.34c0-.1-.08-.24-.11-.35l0-.06v0l0-.1v0L60.41,54a.61.61,0,0,0,0-.12,3.63,3.63,0,0,0,.19-1,4.62,4.62,0,0,0-.11-1.26,3,3,0,0,0-.12-.4,5.36,5.36,0,0,0-.24-.6,4,4,0,0,1,.31.86,4.7,4.7,0,0,0-1-1.89l-.33-.41-.17-.2-.33-.4-.34-.41-.17-.2-.33-.41-.33-.4-.17-.2-.34-.41-.16-.19s0,0,0,0a4.17,4.17,0,0,0-.15-.57,5.06,5.06,0,0,0-.25-.58,4.06,4.06,0,0,0-.42-.63,4.51,4.51,0,0,0-.4-.47l-.22-.2a3.48,3.48,0,0,1,.54.63,3.91,3.91,0,0,0-.58-.67l0,0,0,0,0,0a.52.52,0,0,0-.11-.1h0l.1.09-.11-.08a159.19,159.19,0,0,1-1.91-16.09,2,2,0,0,1,.13-.78l.18-.09,0,0,.4-.21.26-.15.35-.23,0,0,.43-.33.28-.26a4,4,0,0,0,.45-.51l.19-.27c.07-.11.15-.26.22-.38l.11-.26a2.49,2.49,0,0,0,.11-.29l.06-.23a1.6,1.6,0,0,0,0-.21l0-.2a.88.88,0,0,0,0-.16l0-.16,0-.12v-.3h0v-.07a2.11,2.11,0,0,0,0-.32v.06a3.46,3.46,0,0,0,0-.38l0-.19a4.17,4.17,0,0,0-.09-.49l-.08-.23c0-.13-.13-.29-.19-.41l-.16-.26-.27-.35-.25-.26a6.22,6.22,0,0,0-1-.78,11.53,11.53,0,0,0,.55-3.69c0-2.93-2.87-8-4.56-10.75a2.37,2.37,0,1,0-2.38,0L48,4.68l-.12.2-.36.6-.36.63-.37.66-.37.68L46,8.14l-.36.71-.35.71c-.1.22-.23.51-.34.73l-.3.7c-.09.22-.21.52-.29.75l-.24.67c-.08.23-.17.54-.24.77l-.14.62c-.05.26-.1.61-.14.87l0,.53v.59a1.15,1.15,0,0,1,0,.19h0c0,.16,0,.38,0,.54v.05a1.36,1.36,0,0,0,0,.2l0,.23c0,.08,0,.18,0,.29s0,.06,0,.09a.78.78,0,0,0,0,.16l.1.46c0,.17.1.39.14.55l0,.1v0l0,.14-.3.19-.35.25c-.12.09-.26.22-.37.31l-.26.27a4.47,4.47,0,0,0-.29.35l-.18.28c-.07.12-.15.29-.21.41l-.09.27a2.75,2.75,0,0,0-.11.5v.24a2.16,2.16,0,0,0,0,.43l0,.19a.88.88,0,0,0,0,.16V23a.77.77,0,0,1,0,.15l0,.15a1.3,1.3,0,0,0,0,.21l0,.19a2.29,2.29,0,0,0,.08.28l.08.23c0,.11.12.26.17.37l.14.25.36.51.17.19h0l.06.06a5.88,5.88,0,0,0,.82.69l.35.22c.13.09.32.18.46.26l.41.19a1.21,1.21,0,0,1,.05.14,2.27,2.27,0,0,1,.08.64A154.67,154.67,0,0,1,43.6,43.77h0a3.84,3.84,0,0,0-.52.56,3.31,3.31,0,0,1,.35-.41l-.2.19a3.34,3.34,0,0,0-.35.4A4.15,4.15,0,0,0,42,46.17s0,.11,0,.18l-2.65,3.24a5.62,5.62,0,0,0-.53.81l-.11.21a.54.54,0,0,0-.05.11l0-.09s0,.1-.07.15,0,.07,0,.11a2.56,2.56,0,0,0-.12.32,3,3,0,0,0-.12.4c0,.17-.07.41-.1.59s0,.26,0,.38,0,.26,0,.37.05.41.08.58.07.29.11.42l0,.1h0c0,.1-.08.21-.12.34s-.11.38-.19.72l-.06.34v.06s0,0,0,0a.17.17,0,0,1,0,.07c0,.1,0,.21,0,.3v.16a1.55,1.55,0,0,0,0,.22v1.33a4.78,4.78,0,0,0,1.71,3.48h0l0,0a7.77,7.77,0,0,0,.87.69l.09.08.48.3a11.65,11.65,0,0,0,1.66.82c.19.08.39.13.59.21s.6.23.92.32l.33.07c.23.07.47.11.7.16L46,64v0a17.88,17.88,0,0,0,11.3-1.54c2.35-1.31,3.53-3.06,3.52-4.81V56.16Z"/><path class="cls-4" d="M37.94,57.65V56.32c0,1.65,1.07,3.3,3.19,4.58,4.39,2.63,11.64,2.71,16.21.16,2.35-1.31,3.53-3.06,3.53-4.81v1.34c0,1.75-1.17,3.5-3.52,4.81-4.57,2.54-11.83,2.47-16.21-.17C39,61,37.94,59.3,37.94,57.65Z"/><path class="cls-5" d="M41.12,60.9C39,59.62,37.94,58,37.93,56.32a1.55,1.55,0,0,1,0-.22,7.25,7.25,0,0,1,.62-2.5l.17-.37c.05-.07.1-.18.14-.25l.13-.21.13-.22.12-.18.13-.18.11-.16.11-.14.1-.13.09-.11.07-.08.06-.07c-2,2.28-1.44,5.14,1.79,7.09a15,15,0,0,0,7.49,1.88h-.08c-.35.26-1.37,1.86,1.23,2.3l.62.08a17.07,17.07,0,0,1-9.85-2Z"/><path class="cls-1" d="M37.93,56.32c0-.23,0-.53,0-.75s.05-.32.07-.45c.08-.34.11-.46.19-.72s.16-.43.24-.62a8.66,8.66,0,0,1,1.44-2.28c-2,2.28-1.44,5.14,1.79,7.09,4.07,2.45,10.81,2.51,15,.15,3.49-2,4.2-4.93,2.08-7.29a8.57,8.57,0,0,1,1.45,2.23,7.64,7.64,0,0,1,.42,1.3,5.88,5.88,0,0,1,.15,1.27c0,1.75-1.18,3.5-3.53,4.81-4.57,2.55-11.82,2.47-16.21-.16C39,59.62,37.94,58,37.93,56.32Z"/><g class="cls-6"><path class="cls-5" d="M37.93,56.32a7.37,7.37,0,0,1,2-4.82c-2,2.28-1.44,5.14,1.79,7.09,4.07,2.45,10.81,2.51,15,.15,3.49-2,4.2-4.93,2.08-7.29a7.44,7.44,0,0,1,2,4.69c0,1.86-1.18,3.61-3.53,4.92-4.57,2.55-11.82,2.47-16.21-.16C39,59.62,37.94,58,37.93,56.32Z"/><path class="cls-5" d="M59,51.6l.2.23.11.14.11.16.12.17.13.19.13.2.13.23.13.23.13.27.13.26c0,.09.09.22.12.31l.11.3c0,.11.08.25.11.35l.08.34c0,.12.06.29.08.41l.05.37c0,.15,0,.34,0,.49,0,1.75-1.18,3.5-3.53,4.81-4.57,2.55-11.82,2.47-16.21-.16C39,59.62,37.94,58,37.93,56.32v-.38c0-.14,0-.34.05-.48l.06-.34.1-.41.09-.31.13-.35.11-.27.13-.3.12-.25c.05-.07.1-.18.14-.25l.13-.21.13-.22.12-.18.13-.18.11-.16.11-.14.1-.13.09-.11.07-.08.06-.07c-2,2.28-1.44,5.14,1.79,7.09A16.27,16.27,0,0,0,51.87,60.3h0c-1.26.46-1.21,1.23-.77,1.5,1.24.74,4.36-.33,4.12-1.41-.13-.61-.84-.27-1.19-.55a13,13,0,0,0,2.73-1.11c3.49-2,4.2-4.93,2.08-7.29l.06.07.07.08Z"/><path class="cls-5" d="M59,51.6l.2.23.11.14.11.16.12.17.13.19.13.2.13.23.13.23.13.27.13.26c0,.09.09.22.12.31l.11.3c0,.11.08.25.11.35l.08.34c0,.12.06.29.08.41l.05.37c0,.15,0,.34,0,.49,0,1.75-1.18,3.5-3.53,4.81-4.57,2.55-11.82,2.47-16.21-.16C39,59.62,37.94,58,37.93,56.32v-.38c0-.14,0-.34.05-.48l.06-.34.1-.41.09-.31.13-.35.11-.27.13-.3.12-.25c.05-.07.1-.18.14-.25l.13-.21.13-.22.12-.18.13-.18.11-.16.11-.14.1-.13.09-.11.07-.08.06-.07c-2,2.28-1.44,5.14,1.79,7.09a16,16,0,0,0,9.44,1.79l0,0c-.88.32-1.14,1.35-.18,1.69,1.76.63,5.43-.65,4.8-2a.86.86,0,0,0-.89-.49,12.83,12.83,0,0,0,1.92-.85c3.49-2,4.2-4.93,2.08-7.29l.06.07.07.08Z"/><path class="cls-5" d="M59,51.6l.2.23.11.14.11.16.12.17.13.19.13.2.13.23.13.23.13.27.13.26c0,.09.09.22.12.31l.11.3c0,.11.08.25.11.35l.08.34c0,.12.06.29.08.41l.05.37c0,.15,0,.34,0,.49,0,1.75-1.18,3.5-3.53,4.81-4.57,2.55-11.82,2.47-16.21-.16C39,59.62,37.94,58,37.93,56.32v-.38c0-.14,0-.34.05-.48l.06-.34.1-.41.09-.31.13-.35.11-.27.13-.3.12-.25c.05-.07.1-.18.14-.25l.13-.21.13-.22.12-.18.13-.18.11-.16.11-.14.1-.13.09-.11.07-.08.06-.07c-2,2.28-1.44,5.14,1.79,7.09a15.67,15.67,0,0,0,8.79,1.84l0,0c-.69.35-1.06,1.38.1,1.8,2.07.74,6.65-.85,5.8-2.45a.79.79,0,0,0-.83-.47,10.09,10.09,0,0,0,1.24-.59c3.49-2,4.2-4.93,2.08-7.29l.06.07.07.08Z"/><path class="cls-5" d="M59,51.6l.2.23.11.14.11.16.12.17.13.19.13.2.13.23.13.23.13.27.13.26c0,.09.09.22.12.31l.11.3c0,.11.08.25.11.35l.08.34c0,.12.06.29.08.41l.05.37c0,.15,0,.34,0,.49,0,1.75-1.18,3.5-3.53,4.81-4.57,2.55-11.82,2.47-16.21-.16C39,59.62,37.94,58,37.93,56.32v-.38c0-.14,0-.34.05-.48l.06-.34.1-.41.09-.31.13-.35.11-.27.13-.3.12-.25c.05-.07.1-.18.14-.25l.13-.21.13-.22.12-.18.13-.18.11-.16.11-.14.1-.13.09-.11.07-.08.06-.07c-2,2.28-1.44,5.14,1.79,7.09a15.36,15.36,0,0,0,8.17,1.87l-.07,0c-.5.28-1.24,1.61.69,2,2.83.63,7.73-1.23,6.68-3a.86.86,0,0,0-.9-.51l.48-.25c3.49-2,4.2-4.93,2.08-7.29h0l.13.15Z"/><path class="cls-5" d="M59,51.6l.2.23.11.14.11.16.12.17.13.19.13.2.13.23.13.23.13.27.13.26c0,.09.09.22.12.31l.11.3c0,.11.08.25.11.35l.08.34c0,.12.06.29.08.41l.05.37c0,.15,0,.34,0,.49a5.42,5.42,0,0,1-2.78,4.35l.22-.27c1-1.45-.81-2-.92-1.95l-.08,0c3-2,3.55-4.74,1.54-7l.06.07.07.08Z"/><path class="cls-5" d="M41.12,60.9a6.59,6.59,0,0,1-3-3.29l.06,0c.67.64.67.64.85.51.34-.26.35-1.42.35-1.43a3.33,3.33,0,0,0-.07-.34h0a6.79,6.79,0,0,0,2.35,2.2,14.74,14.74,0,0,0,6.68,1.85h0a1.33,1.33,0,0,0,0,2.09,3,3,0,0,0,.53.27l.37.12a16.28,16.28,0,0,1-8.19-2Z"/><path class="cls-5" d="M41.12,60.9a7.84,7.84,0,0,1-2.26-2L39,59c1.12.48.86-1.89.85-1.92a7.68,7.68,0,0,0,1.86,1.53,14,14,0,0,0,5.63,1.77c-.34,0-.83,1.52-.07,2.21l.18.14.23.14a15.5,15.5,0,0,1-6.56-2Z"/><path class="cls-1" d="M41.12,60.9a9.36,9.36,0,0,1-1.48-1.11h0c1.16.07.85-2,.76-2.16a8.71,8.71,0,0,0,1.31,1,13,13,0,0,0,4.22,1.55,1.8,1.8,0,0,0-.06,2.35l.17.15a14.66,14.66,0,0,1-4.92-1.74Z"/><path class="cls-1" d="M41.12,60.9l-.46-.3.22,0a.61.61,0,0,0,.23-.11c.1-.1.24-.12.33-.23a.73.73,0,0,0,.15-.34,1.69,1.69,0,0,0,0-.66,2,2,0,0,0,0-.26c0-.15,0-.3,0-.44s0-.1-.14-.19l.32.2a11.43,11.43,0,0,0,2.35,1.06s-.08,0-.12,0a1.94,1.94,0,0,0-.44,1.3c0,.12,0,.45.55,1.12l.23.19a13.42,13.42,0,0,1-3.16-1.34Z"/><path class="cls-1" d="M54.64,60.72c-.11.92-2.63,1.55-3.17.79-.29-.41.33-.9.44-1a5.2,5.2,0,0,1,2-.45c.77.13.78.51.77.62Z"/><path class="cls-1" d="M54,60.91c0,.24-.94.59-.94.6s-.8,0-1-.21a.25.25,0,0,1,0-.12c0-.24.84-.65.87-.66s1,0,1,.16a.31.31,0,0,1,0,.23Z"/><path class="cls-1" d="M38.79,53.77a3.92,3.92,0,0,1,1-2.05.88.88,0,0,1,.12-.15l.06-.07a4.42,4.42,0,0,0-1.14,2.35.25.25,0,0,1,0-.08Z"/><path class="cls-5" d="M59,51.6l.2.23.11.14.11.16.12.17.13.19.13.2.13.23.13.23.13.27.13.26c0,.09.09.22.12.31l.11.3c0,.11.08.25.11.35l.08.34c0,.12.06.29.08.41l.05.37c0,.15,0,.34,0,.49a4.68,4.68,0,0,1-1.45,3.25l.1-.23a1.26,1.26,0,0,0-1-1.82,4,4,0,0,0,.31-6l.06.07.07.08Z"/><path class="cls-5" d="M59,51.6l.2.23.11.14.11.16.12.17.13.19.13.2.13.23.13.23.13.27.13.26c0,.09.09.22.12.31l.11.3c0,.11.08.25.11.35l.08.34c0,.12.06.29.08.41l.05.37c0,.15,0,.34,0,.49a4.29,4.29,0,0,1-.69,2.28l.06-.22a1.65,1.65,0,0,0-.82-1.93,3.91,3.91,0,0,0-.57-4.93l.06.07.07.08Z"/><path class="cls-5" d="M59,51.6l.2.23.11.14.11.16.12.17.13.19.13.2.13.23.13.23.13.27.13.26c0,.09.09.22.12.31l.11.3c0,.11.08.25.11.35l.08.34c0,.12.06.29.08.41l.05.37c0,.15,0,.34,0,.49a4,4,0,0,1-.22,1.31l0-.19a2.2,2.2,0,0,0-.78-2,4,4,0,0,0-1-3.87l.06.07.07.08Z"/><path class="cls-5" d="M59,51.6l.2.23.11.14.11.16.12.17.13.19.13.2.13.23.13.23.13.27.13.26c0,.09.09.22.12.31l.11.3c0,.11.08.25.11.35l.08.34c0,.12.06.29.08.41l.05.37c0,.15,0,.34,0,.49a2.44,2.44,0,0,1,0,.27v-.21a3,3,0,0,0-.82-2.1,4.23,4.23,0,0,0-1.19-2.76l.06.07.07.08Z"/><path class="cls-5" d="M59,51.6l.2.23.11.14.11.16.12.17.13.19.13.2.13.23.13.23.13.27.13.26c0,.09.09.22.12.31l.09.24,0-.1a4.6,4.6,0,0,0-.7-1.22h0a4.86,4.86,0,0,0-.93-1.46l.06.07.07.08Z"/></g><path class="cls-4" d="M59.87,53.2A5.91,5.91,0,0,0,57.07,50c-3.15-1.9-7.91-2.37-11.87-1.38A13.14,13.14,0,0,0,42,49.87a8.5,8.5,0,0,0-1.76,1.28,4.36,4.36,0,0,0-1.51,3.37A4.83,4.83,0,0,0,40.84,58a7.78,7.78,0,0,0,.76.53l.11.07A13.3,13.3,0,0,0,46,60.16a18,18,0,0,0,3.75.3,15.26,15.26,0,0,0,7-1.72,8.44,8.44,0,0,0,1.78-1.3,4.93,4.93,0,0,0,1.34-2.09A3.66,3.66,0,0,0,59.87,53.2ZM57.7,56.64a6.91,6.91,0,0,1-1.62,1.18,13.78,13.78,0,0,1-6.33,1.57,16.08,16.08,0,0,1-3.41-.27,12.33,12.33,0,0,1-3.93-1.43l-.1-.07a6,6,0,0,1-.69-.48A4.36,4.36,0,0,1,39.72,54a4,4,0,0,1,1.38-3.07,8.17,8.17,0,0,1,1.59-1.16,12,12,0,0,1,2.89-1.11A15.13,15.13,0,0,1,56.37,49.9a5.41,5.41,0,0,1,2.54,2.89,3.32,3.32,0,0,1,0,2A4.5,4.5,0,0,1,57.7,56.64Z"/><path class="cls-7" d="M45.42,27.69a2.27,2.27,0,0,0-.08-.64,1.34,1.34,0,0,0-.22-.45,2.74,2.74,0,0,0,.78.46,7.06,7.06,0,0,0,1,.34l.43.1.87.12c.18,0,.67.06,1,.06a11.46,11.46,0,0,0,1.39-.08,9.49,9.49,0,0,0,1.26-.25,5.22,5.22,0,0,0,1-.34,2.93,2.93,0,0,0,.71-.43,1.56,1.56,0,0,0-.3,1.09A2,2,0,0,1,52,29.37a6.1,6.1,0,0,1-5.52-.06A1.86,1.86,0,0,1,45.42,27.69Z"/><path class="cls-4" d="M53.15,28.16a3.6,3.6,0,0,1,0-.67c0-.44.06-.46,0-.47s-.07,0-.1,0c-.54.25-1,.44-1,.44a16.38,16.38,0,0,0-2.83.91,2.24,2.24,0,0,0-1.14,1.48,4.87,4.87,0,0,1-1.58-.58,2.61,2.61,0,0,1-.45-.33h0a5.68,5.68,0,0,0-.88-2.3l0-.05h0v0h0l0,0,.07.06.1.07.09.06.18.1.31.14.28.11.37.13.37.1.43.1.43.07.46.05.46,0,.48,0h.47l.47,0,.45,0,.46-.07.41-.08.42-.1.33-.1.37-.14.24-.1.3-.15.14-.09.16-.1.05-.05.06,0h0l0,0,0,0,0,.07,0,.07s0,.08,0,.11l0,.1a.65.65,0,0,0,0,.13l0,.11a.77.77,0,0,0,0,.15v.28a1.4,1.4,0,0,1-.06.49Z"/><path class="cls-8" d="M54.39,43.22l-.58.46c2.35,1.41,2.27,3.67-.18,5a9.63,9.63,0,0,1-8.7-.09c-1.76-1.06-2.16-2.58-1.23-3.85a4.15,4.15,0,0,1,1.41-1.19,9.17,9.17,0,0,1,4.83-1L50,42a10.4,10.4,0,0,0-5.47,1.12A4.85,4.85,0,0,0,43,44.46c-1,1.44-.59,3.16,1.39,4.36a10.89,10.89,0,0,0,9.85.1C57,47.37,57.05,44.82,54.39,43.22Z"/><path class="cls-9" d="M43.22,46.07a166.69,166.69,0,0,0,2.2-18.38,1.86,1.86,0,0,0,1.08,1.62,6.1,6.1,0,0,0,5.52.06,2,2,0,0,0,1.19-1.7A165,165,0,0,0,55.52,46a3.08,3.08,0,0,1-1.89,2.69,9.63,9.63,0,0,1-8.7-.09A3,3,0,0,1,43.22,46.07Z"/><path class="cls-10" d="M50.33,35.83s.23-5.93.46-6.62.57,1.52,1.15,7.1,1.45,12.37,1.45,12.37a5.86,5.86,0,0,1-3.31.91C50.19,48.45,50.33,35.83,50.33,35.83Z"/><path class="cls-8" d="M48.05,30.27c-.77,19.21-.77,19.21-.75,19.24a7.61,7.61,0,0,1-2.37-.88,5,5,0,0,1-.56-.39h0A177.74,177.74,0,0,0,46.05,29a2.61,2.61,0,0,0,.45.33,4.87,4.87,0,0,0,1.58.58c0,.11,0,.27,0,.38Z"/><path class="cls-11" d="M56.62,21.82l0-.19a4.17,4.17,0,0,0-.09-.49l-.08-.23c0-.13-.13-.29-.19-.41l-.16-.26-.27-.35-.25-.26a5.67,5.67,0,0,0-1-.79l-.45-.25-.44-.21-.48-.19L52.66,18l-.51-.14-.52-.12-.54-.09-.54-.07-.55,0-.55,0h-.56l-.55,0-.55.06-.54.08c-.16,0-.37.07-.53.1L46.2,18l-.51.16-.48.18-.49.21-.43.22-.44.27-.35.25c-.12.09-.26.22-.37.31l-.26.27a4.47,4.47,0,0,0-.29.35l-.18.28c-.07.12-.15.29-.21.41l-.09.27a2.75,2.75,0,0,0-.11.5v.24a2.16,2.16,0,0,0,0,.43l0,.19a.88.88,0,0,0,0,.16V23a.77.77,0,0,1,0,.15l0,.15a1.3,1.3,0,0,0,0,.21l0,.19a2.29,2.29,0,0,0,.08.28l.08.23c0,.11.12.26.17.37l.14.25.36.51.22.24a5.88,5.88,0,0,0,.82.69l.35.22c.13.09.32.18.46.26l.41.19.48.19.45.15.48.13.48.11.49.08.5.06.5,0,.5,0h.5l.5,0,.5,0,.5-.07.49-.1.48-.12.49-.15.45-.16.49-.22.4-.21a6.65,6.65,0,0,0,1-.68l.28-.26a4,4,0,0,0,.45-.51l.19-.27c.07-.11.15-.26.22-.38l.11-.26a2.49,2.49,0,0,0,.11-.29l.06-.23a1.6,1.6,0,0,0,0-.21l0-.2a.88.88,0,0,0,0-.16l0-.16s0-.08,0-.12v-.3h0v-.07A3.89,3.89,0,0,0,56.62,21.82Z"/><path class="cls-8" d="M54,26.57a7.28,7.28,0,0,1-.89.43l-.45.16-.49.15-.48.12-.49.1-.5.07-.5,0-.5,0h-.5l-.5,0-.5,0-.5-.06-.49-.08-.48-.11-.48-.13-.45-.15-.48-.19-.41-.19c-.14-.08-.33-.17-.46-.26l-.35-.22a5.88,5.88,0,0,1-.82-.69l-.07-.07h0c.39.37.71.28.69-.2,0-.32,0-.32,0-.34s2,.5,2,1.11c0,1.68,5.39,2.37,8.68.13l-.35.23-.26.15Z"/><path class="cls-9" d="M56.62,21.82l0-.19a4.17,4.17,0,0,0-.09-.49l-.08-.23c0-.13-.13-.29-.19-.41l-.16-.26-.27-.35-.25-.26a5.67,5.67,0,0,0-1-.79l-.45-.25-.44-.21-.48-.19L52.66,18l-.51-.14-.52-.12-.54-.09-.54-.07-.55,0-.55,0h-.56l-.55,0-.55.06-.54.08c-.16,0-.37.07-.53.1L46.2,18l-.48.15-.48.17c-2.88,1.16-3.92,3.29-2.53,5.17,2.71,3.7,12.88,3.18,13.87-1.75a1.21,1.21,0,0,1,0,.5A3.46,3.46,0,0,0,56.62,21.82Z"/><path class="cls-12" d="M55.75,21.07c.32,1.18-.33,2.44-1.93,3.33a10.2,10.2,0,0,1-9.24-.09c-1.46-.88-2-2.07-1.74-3.2a1.26,1.26,0,0,0,1.48-1v0h0a2.31,2.31,0,0,0,1.37,2.2,6.92,6.92,0,0,0,3.48.88s0,0,0,0A6.52,6.52,0,0,0,53.31,22a2,2,0,0,0,.9-2.15c.33,1.19,1,1.24,1.54,1.19Z"/><path class="cls-8" d="M55.75,21.07c.32,1.18-.33,2.44-1.93,3.33a10.2,10.2,0,0,1-9.24-.09c-1.46-.88-2-2.07-1.74-3.2a1.42,1.42,0,0,0,.87-.15h0a1.43,1.43,0,0,0,1.46,1.91c.17-.13.16-.29.14-.79a3.77,3.77,0,0,0,.39.26,6.1,6.1,0,0,0,1.86.71h0c-1.22,1.61,1.76,1.94,3.1,1.79a5.82,5.82,0,0,0,3.59-1.62c.53-.61.53-.61,0-2.46a1.75,1.75,0,0,0,0-.88c.33,1.19,1,1.24,1.54,1.19Z"/><path class="cls-9" d="M49.32,2.51s-5.7,8.75-5.7,12.69,1.51,7.4,5.67,7.4,5.8-3.28,5.8-7.44S49.32,2.51,49.32,2.51Z"/><path class="cls-8" d="M49.29,22.6l-.55,0-.28,0-.28,0-.28-.07-.28-.07-.28-.1-.3-.11L46.75,22l-.31-.17-.3-.2a5.35,5.35,0,0,1-.84-.75l-.25-.31c-.12-.18-.29-.43-.41-.63l-.19-.38a5.89,5.89,0,0,1-.24-.58l-.15-.43c0-.16-.1-.38-.14-.55l-.1-.46c0-.17-.06-.38-.08-.54l-.06-.48c0-.16,0-.38,0-.54l0-.48v-.3l0-.53c0-.26.09-.61.14-.87l.14-.62c.07-.23.16-.54.24-.77l.24-.67c.08-.23.2-.53.29-.75l.3-.7c.11-.22.24-.51.34-.73l.35-.71L46,8.14l.37-.69.37-.68.37-.66.36-.63.36-.6c.1-.17.23-.4.34-.56l.31-.53.3-.48.26-.42a3,3,0,0,0,.24-.38C46,10.6,43.39,20.07,49.43,22.6c0,0-.09,0-.14,0Z"/><path class="cls-13" d="M49.53,4.73s-.22,9.79.47,11.91a1.66,1.66,0,0,0,3.27,0c.2-1.5-.36-3.64-1.2-6.1s-2.71-7.79-2.71-7.79Z"/><path class="cls-8" d="M51.71,2.37A2.37,2.37,0,1,1,49.34,0,2.37,2.37,0,0,1,51.71,2.37Z"/><path class="cls-9" d="M51.56,2.12a2,2,0,1,1-2-2A2,2,0,0,1,51.56,2.12Z"/><path class="cls-13" d="M50.71,1.78a.64.64,0,1,1-.64-.64A.64.64,0,0,1,50.71,1.78Z"/><path class="cls-7" d="M56.82,46.94a3.74,3.74,0,0,0-.22-1.15,5.06,5.06,0,0,0-.25-.58,4.06,4.06,0,0,0-.42-.63,4.51,4.51,0,0,0-.4-.47l-.22-.2c1.67,1.57,1.28,3.67-1.12,5a10.89,10.89,0,0,1-9.85-.1c-2.23-1.35-2.52-3.37-.91-4.9l-.2.19a3.34,3.34,0,0,0-.35.4A4.15,4.15,0,0,0,42,46.17a4.47,4.47,0,0,0-.1.66,3.46,3.46,0,0,0,.13,1.28,4.17,4.17,0,0,0,2,2.23,11.54,11.54,0,0,0,10.49.11,4.28,4.28,0,0,0,2.17-2.38A3.31,3.31,0,0,0,56.82,46.94Zm-1.69-3.19.18.16-.18-.16Zm-11.54,0-.16.14.16-.14Zm.14-.12-.14.12h0Z"/><path class="cls-8" d="M44,50.34a5.34,5.34,0,0,1-1.31-1.07h0c.11.08.89.31.73-.52a9.43,9.43,0,0,0-.29-.9,4.77,4.77,0,0,0,1.17,1,8.8,8.8,0,0,0,3,1.06c-1.25.73-.09,1.51.45,1.66l.09,0,.06,0A9.87,9.87,0,0,1,44,50.34Z"/><path class="cls-10" d="M53.19,50.1s-.24.47-1.42.72a1.87,1.87,0,0,1-1.43-.13.11.11,0,0,1,0-.1c.09-.24,2.61-1,2.85-.59a.34.34,0,0,1,0,.1Z"/><path class="cls-7" d="M41.53,57.58c-.29-.18-.66-.43-.93-.63a8.31,8.31,0,0,1-.79-.71l-.3-.32c-.12-.16-.29-.36-.41-.53a5.39,5.39,0,0,1-.56-1.06,5.71,5.71,0,0,1-.24-.8c0-.17-.06-.4-.08-.58s0-.26,0-.37,0-.27,0-.38.06-.42.1-.59a3,3,0,0,1,.12-.4,5.83,5.83,0,0,1,.23-.58c-1,2.12-.13,4.48,2.69,6.17,4.25,2.56,11.28,2.63,15.7.16,3.07-1.71,4.08-4.18,3-6.39a5.36,5.36,0,0,1,.24.6,3,3,0,0,1,.12.4,4.62,4.62,0,0,1,.11,1.26A4.83,4.83,0,0,1,59.89,55,6.86,6.86,0,0,1,58,57a9.52,9.52,0,0,1-1.13.72l-.6.32-1,.44a17.7,17.7,0,0,1-11.76,0c-.38-.15-.88-.37-1.25-.54S41.75,57.71,41.53,57.58Z"/><path class="cls-9" d="M59.41,49.54l-.33-.41-.17-.2-.33-.4-.34-.41-.17-.2-.33-.41-.33-.4-.17-.2-.34-.41-.16-.19a3.59,3.59,0,0,1,.08.63A3.39,3.39,0,0,1,56.7,48h0l0,.07h0v.08l0,0v0l0,0v0l0,0,0,0,0,0v0l0,0,0,0,0,0,0,0,0,0,0,0,0,0,0,0,0,0,0,0,0,0,0,0,0,0,0,0,0,0,0,0,0,0,0,0,0,0,0,0,0,0,0,0,0,0,0,0,0,0,0,0,0,0,0,0,0,0,0,0,0,0,0,0,0,0,0,0-.05,0,0,0,0,0,0,0-.05,0,0,0,0,0,0,0-.06,0,0,0-.06,0,0,0,0,0-.05,0,0,0-.06,0-.21.13A11.54,11.54,0,0,1,44,50.34l-.1-.06,0,0-.06,0,0,0-.07,0,0,0,0,0,0,0-.05,0,0,0,0,0,0,0,0,0,0,0,0,0,0,0,0,0,0,0,0,0,0,0,0,0,0,0,0,0,0,0,0,0,0,0,0,0,0,0,0,0,0,0,0,0,0,0,0,0,0,0,0,0,0,0,0,0,0,0,0,0,0,0,0,0,0,0,0,0,0,0,0,0,0,0,0,0,0,0,0,0,0,0,0,0v0l0,0,0,0,0-.06v0l0-.08h0l0-.07v0l0,0h0a1.36,1.36,0,0,1,0-.17,3.62,3.62,0,0,1-.09-1.11,2.25,2.25,0,0,1,.06-.48l-2.65,3.24c-1.91,2.35-1.25,5.23,2,7.21,4.25,2.56,11.28,2.63,15.7.16C60.62,55,61.42,52,59.41,49.54Zm-3.09-3.71h0v0Zm-13.91,0v0Zm0,0Z"/><path class="cls-8" d="M39.34,49.59l3.32-4.06A2.72,2.72,0,0,0,42.47,49l-3.42,5.76a4.07,4.07,0,0,1,.29-5.12Z"/><path class="cls-8" d="M40.11,55.89l3.06-6.16a5.36,5.36,0,0,0,.69.51l-2.73,6.41a8.45,8.45,0,0,1-1-.76Z"/><path class="cls-8" d="M41.13,56.65l2.73-6.41.16.1a8,8,0,0,0,1.59.73l-1.85,6.82a11.85,11.85,0,0,1-2.39-1.09l-.24-.15Z"/><path class="cls-8" d="M43.76,57.89l1.85-6.82a10.94,10.94,0,0,0,1.31.35l-1.21,7a15.51,15.51,0,0,1-2-.52Z"/><path class="cls-10" d="M52.9,51.13l-.61.17a9.37,9.37,0,0,1-.92.19l1,7c.47-.07.92-.17,1.37-.28s.62-.16.92-.26Z"/><path class="cls-10" d="M53.87,60.1a5.2,5.2,0,0,0-2,.45c-.11.06-.73.55-.44,1,.54.76,3.06.13,3.17-.79C54.65,60.61,54.64,60.23,53.87,60.1Z"/><path class="cls-4" d="M46,62.64l-.17-.15a1.8,1.8,0,0,1,.06-2.35,13,13,0,0,1-4.22-1.55,8.71,8.71,0,0,1-1.31-1c.09.11.4,2.23-.76,2.16h0v1.34a10.57,10.57,0,0,0,1,.79l.48.3a13.11,13.11,0,0,0,3.17,1.35c.57.16,1.15.29,1.74.4V62.64Z"/></g></g></g></svg>