<svg xmlns="http://www.w3.org/2000/svg" viewBox="0 0 22.33 73.31"><defs><style>.cls-1{fill:#aeb1b3;}.cls-2{fill:#d2d5d6;}.cls-3{fill:#f5f9fa;}.cls-4{fill:#e6eaeb;}.cls-5{fill:#cdd0d1;}.cls-6{fill:#babdbd;}.cls-7{fill:#212121;}.cls-8{fill:#7a7c7d;}.cls-9{fill:#f7fafb;}.cls-10{fill:#fff;}</style></defs><g id="Capa_2" data-name="Capa 2"><g id="layer"><path class="cls-1" d="M22.22,60a4.4,4.4,0,0,0-.18-.62c0-.12-.12-.27-.17-.39a4,4,0,0,1,.31.86,4.7,4.7,0,0,0-1-1.89l-.33-.41-.17-.2-.33-.4-.84-1-.34-.4-.16-.2-.34-.41,0-.05a3.78,3.78,0,0,0-.56-1.42l-.18-.27c-.12-.15-.29-.34-.42-.48a5.17,5.17,0,0,0-.55-.5l.13.13-.25-.19,0-.17-.2-.95L16.37,50c-.07-.35-.15-.83-.22-1.18l-.21-1.25c-.07-.39-.15-.92-.21-1.32l-.18-1.34c-.06-.42-.12-1-.17-1.39l-.12-1.34c0-.4-.06-1-.09-1.36l0-1.23c0-.38,0-.89,0-1.27l.08-1c0-.32.12-.74.18-1.06l.15-.49V35.7a.69.69,0,0,0-.19.1l-.12.08a4.92,4.92,0,0,1-.45.28,3.14,3.14,0,0,0,1.57-1.69,7.15,7.15,0,0,1,.34-.84,3.53,3.53,0,0,1,.17-.33A8,8,0,0,0,18,32.55a6,6,0,0,0,.62-.6,5.61,5.61,0,0,0,.56-.78,4.9,4.9,0,0,0,.59-1.64c0-.2,0-.32.07-.59a.78.78,0,0,0,0-.16s0,0,0-.06,0-.2,0-.28,0-.26,0-.37a3.78,3.78,0,0,0-.12-.75,4.16,4.16,0,0,0-.31-.79,4.85,4.85,0,0,0-.47-.78l-.07-.11a33.21,33.21,0,0,0,1.67-3.31,10.88,10.88,0,0,0,.51-1.42c.08-.32.17-.76.23-1.09a4.36,4.36,0,0,0,0-.51,4.61,4.61,0,0,0-.74-2.49,7.58,7.58,0,0,0-.71-.9c-.12-.13-.31-.29-.44-.42a10.3,10.3,0,0,0-1.07-.76,10,10,0,0,0-1.25-.64c-.2-.08-.46-.2-.67-.26l-.83-.28c0-.07-.05-.14-.09-.22h0l0,0a1,1,0,0,0-.08-.14h0l-.07-.11-.16-.22-.2-.22-.21-.2-.27-.2,0,0,.13-.15.13-.15.08-.1.05-.06h0v0h0s0,0,0,0l0,0a3.28,3.28,0,0,1-.35-.59h0a6.69,6.69,0,0,1-.46-1.43l.35-.18.68-.35a2.44,2.44,0,0,1,.28-.14l.08-.05L16,8.64h0c.05-.11.16-.36.26-.63V8a1.21,1.21,0,0,1,.05-.14v0h0l0-.07,0-.11s0-.1,0-.15v0l0-.1V7.11a.25.25,0,0,1,0-.08V6.94a.45.45,0,0,0,0-.11v0a1.35,1.35,0,0,0-.18-.67l0-.07s0-.06,0-.09a1,1,0,0,0-.08-.11v0h0l-.06-.08,0,0,0,0-.09-.11-.09-.1h0v0h0l-.08-.09h0l0-.05h0l-.05,0,0,0h0l0,0-.1-.07h0l0,0h0l0,0L15.24,5l0,0h0L15,4.83l-.26-.15-.1,0h0l0,0A7.59,7.59,0,0,1,15,3.79l.08-.14-.15,0h0v0l0-.06,0,0a.58.58,0,0,0-.08-.1h0l-.09-.09,0,0-.1-.08-.05,0-.11-.08-.05,0A1.18,1.18,0,0,0,14.15,3L13.9,2.8a3.24,3.24,0,0,0-1-.4,1.59,1.59,0,0,0,.16-.69,1.71,1.71,0,0,0-3.42,0,1.68,1.68,0,0,0,.54,1.23l-.07,0h0l0,0h0l0,0-.14.08,0,0,0,0,0,0-.14.09-.06,0h0l-.07,0-.14.11-.12.1,0,0-.05,0h0l-.11.1-.12.1h0L8.79,4l0,0L8.7,4l0,0-.13.13-.13.12a1.59,1.59,0,0,1-.13.13l0,0h0l-.08.08,0,0-.05.06L8,4.7l0,0-.08.09,0,0,0,0A.81.81,0,0,1,7.77,5l-.08.1,0,0-.07.09-.12.14-.12.15h0a0,0,0,0,0,0,0h0v0a.31.31,0,0,0,.11.15v0l0,0a4.15,4.15,0,0,1,.8,1.94h0l-.48.26-.48.25-.09,0-.38.19-.07,0-.37.18h0a1.76,1.76,0,0,0-.09.2v0c-.13.31-.2.5-.23.6h0L6,9.56l0,.07L6,9.7v.06a1.57,1.57,0,0,0-.06.28h0v.48s0,0,0,.06v0l0,.14v.05l0,.07A.37.37,0,0,0,6,11H6v0l.07.12v0h0l.09.14,0,0h0l.06.09,0,.05,0,0,.09.11.1.12a3.66,3.66,0,0,0,.8.6h0a2.9,2.9,0,0,0-.76.85,1.23,1.23,0,0,0-.1.2l-.06.14a.43.43,0,0,1,0,.05,12.8,12.8,0,0,0-2.43,1,7.67,7.67,0,0,0-1.39,1,4.37,4.37,0,0,0-.44.42,10.4,10.4,0,0,0-.71.9,3.4,3.4,0,0,0-.46,1,4.74,4.74,0,0,0-.15.5,6.92,6.92,0,0,0-.11,1,4.56,4.56,0,0,0,0,.51h0v0a6.39,6.39,0,0,0,.15.77c0,.11.08.29.15.51v.08s0,.07,0,.11.07.19.1.29l.05.12,0,0,.22.55c.07.17.17.38.24.54l.19.41,0,.06,0,.06.26.51.25.48c.08.14.18.32.25.46l.24.43c0,.08.11.18.16.28l0,.07h0a6,6,0,0,0-.41.65,2.86,2.86,0,0,0-.21.43,4.44,4.44,0,0,0-.22.61,3.19,3.19,0,0,0-.11,1c0,.09,0,.2,0,.3v-.05l0,.12s0,.09,0,.13l0,.19v.13a1.25,1.25,0,0,1,0,.15l0,.16s0,.06,0,.1v.06l0,.08,0,.2V30a.14.14,0,0,1,0,.07l.06.18,0,.12,0,.08,0,.06,0,.07c0,.11.09.22.14.31l0,.05,0,.05.13.23a6.51,6.51,0,0,0,.43.6l.27.29.1.1a1.59,1.59,0,0,1,.13.13l.2.17,0,0a4.49,4.49,0,0,0,.46.36l0,0,.1.07a3.48,3.48,0,0,1,.31.2l.16.09.15.28h0l.18.41,0,0c.06.14.11.29.16.42A3,3,0,0,0,7.2,36.08a1.67,1.67,0,0,1-.28-.18.77.77,0,0,0-.33-.15l0,0c.08.27.18.63.24.91l.1.63c0,.35.07.82.09,1.18l0,1.06c0,.39,0,.92,0,1.32L7,42.17c0,.4-.09.94-.12,1.34L6.7,44.85c-.28,2.28-.69,4.72-1.21,7.29l-.19.13a.08.08,0,0,0,0,0l-.07.06,0,0a5.11,5.11,0,0,0-.41.38,4.92,4.92,0,0,0-.58.71l-.17.26c-.06.13-.15.29-.2.42a3.68,3.68,0,0,0-.23.82l0,.05-.33.41-.17.2c-.09.13-.23.29-.33.41l-.33.41-.17.2L1.94,57l-.33.4-.17.21-.33.4a4.64,4.64,0,0,0-.95,1.84,3.5,3.5,0,0,1,.29-.8c-.09.21-.2.49-.27.71s-.07.27-.1.38A4.89,4.89,0,0,0,0,61a5,5,0,0,0,.39,1.9,1.3,1.3,0,0,1,.08.17c-.07.25-.15.5-.2.73s-.13.71-.15.82a7.82,7.82,0,0,0-.06,1V66.9c0,.12,0,.24,0,.35v.11a.24.24,0,0,0,0,.08,2.23,2.23,0,0,0,0,.23c0,.11.05.22.08.34l.09.23c0,.11.08.22.13.33l.12.24c.06.1.12.21.19.31l.15.23.25.32.18.22.31.31.21.2a4.31,4.31,0,0,0,.4.32l.2.16a7.05,7.05,0,0,0,.7.46,10.83,10.83,0,0,0,1.44.74v0c4.28,1.82,10.32,1.66,14.28-.55,2.28-1.27,3.43-3,3.42-4.66V65.5a7.76,7.76,0,0,0-.23-1.78,7.25,7.25,0,0,0-.19-.74,3.68,3.68,0,0,0,.17-.44,4.52,4.52,0,0,0,.26-1.19,3.75,3.75,0,0,0,0-.76A3.82,3.82,0,0,0,22.22,60Z"/><path class="cls-1" d="M18.75,58.73l-.7-.12a14.83,14.83,0,0,0-13.48-.14c-3.8,2.12-3.93,5.61-.28,7.81a14.86,14.86,0,0,0,13.48.13c3.8-2.11,3.92-5.61.28-7.8l.7.12c4,2.41,3.88,6.26-.31,8.6S7.61,69.6,3.59,67.18s-3.88-6.27.31-8.61S14.73,56.31,18.75,58.73Z"/><path class="cls-2" d="M.06,65.56a7.82,7.82,0,0,1,.06-1c0-.11.07-.45.15-.82a14.48,14.48,0,0,1,.4-1.44c0-.09.13-.41.25-.7-.74,1.92.14,4,2.67,5.53,4,2.42,10.67,2.48,14.85.15,2.76-1.54,3.76-3.73,3-5.74a16.11,16.11,0,0,1,.65,2.13,7.76,7.76,0,0,1,.23,1.78c0,1.7-1.14,3.39-3.42,4.67C14.44,72.64,7.4,72.57,3.15,70,1.09,68.76.06,67.16.06,65.56Z"/><path class="cls-3" d="M16.54,68.6a5.2,5.2,0,0,0-2,.45c-.11.06-.73.55-.44,1,.54.76,3.06.14,3.17-.78C17.32,69.11,17.31,68.73,16.54,68.6Z"/><path class="cls-4" d="M1.11,58l.33-.4.17-.21.33-.4.33-.41.17-.2L2.77,56c.1-.12.24-.28.33-.41l.17-.2L3.6,55l.34-.4.16-.21.33-.4c-1.28,1.57-.84,3.5,1.36,4.82a11.57,11.57,0,0,0,10.5.11c2.38-1.33,2.91-3.34,1.57-5h0l.33.41.17.2.33.4.34.41.16.2.34.4.84,1,.33.4.17.2.33.41c2,2.43,1.22,5.45-2.34,7.43-4.43,2.47-11.47,2.4-15.72-.16C-.15,63.25-.81,60.36,1.11,58Z"/><path class="cls-1" d="M.06,66.9V65.56c0,1.6,1,3.2,3.09,4.45,4.25,2.56,11.29,2.63,15.73.16,2.28-1.28,3.42-3,3.42-4.67v1.34c0,1.69-1.14,3.39-3.42,4.66C14.45,74,7.41,73.9,3.16,71.34,1.09,70.1.07,68.5.06,66.9Z"/><path class="cls-5" d="M3.42,66.18c-.29-.18-.67-.44-.93-.64a6.71,6.71,0,0,1-.8-.72,6.62,6.62,0,0,1-.81-1,5.55,5.55,0,0,1-.49-.92A5,5,0,0,1,0,61a4.89,4.89,0,0,1,.08-.85c0-.11.06-.27.1-.38s.18-.5.27-.71c-1,2.12-.13,4.48,2.69,6.18,4.25,2.56,11.29,2.63,15.72.16,3.07-1.71,4.08-4.19,3-6.4.05.12.13.27.17.39a4.4,4.4,0,0,1,.18.62,3.82,3.82,0,0,1,.09.59,3.75,3.75,0,0,1,0,.76,4.52,4.52,0,0,1-.26,1.19,5.52,5.52,0,0,1-.55,1.16,7,7,0,0,1-1.71,1.85c-.13.1-.32.24-.46.33s-.51.33-.74.46-.43.23-.63.32l-1.07.45a17.46,17.46,0,0,1-11.42,0c-.21-.08-.48-.18-.68-.27s-.46-.21-.66-.3S3.63,66.3,3.42,66.18Z"/><path class="cls-6" d="M16.31,51.77A11.15,11.15,0,0,0,6.2,51.66C3.35,53.25,3.25,55.88,6,57.52a11.12,11.12,0,0,0,10.11.1C19,56,19,53.41,16.31,51.77Z"/><path class="cls-5" d="M4.54,57.76a3.85,3.85,0,0,1-.78-1.32,3.36,3.36,0,0,1,.12-2.35c.05-.13.14-.29.2-.42l.17-.26a4.92,4.92,0,0,1,.58-.71c.14-.15.35-.33.51-.47-2,1.6-1.78,3.83.65,5.29a11.12,11.12,0,0,0,10.11.1c2.61-1.45,2.91-3.77.84-5.42a5.17,5.17,0,0,1,.55.5c.13.14.3.33.42.48l.18.27A3.75,3.75,0,0,1,18.67,55a3.42,3.42,0,0,1-.11,1.36,3.24,3.24,0,0,1-.31.73,3.73,3.73,0,0,1-.48.67,5.49,5.49,0,0,1-1.48,1.16,11.57,11.57,0,0,1-10.5-.11A5.24,5.24,0,0,1,4.54,57.76Z"/><path class="cls-3" d="M15.43,58.71s-.24.47-1.42.71a1.89,1.89,0,0,1-1.43-.12.12.12,0,0,1,0-.1c.09-.24,2.61-1,2.85-.6a.41.41,0,0,1,0,.11Z"/><path class="cls-5" d="M5.79,34.5A6,6,0,0,0,5,32.93a5.72,5.72,0,0,0,2.47,1.29,11.14,11.14,0,0,0,1.65.36,13.49,13.49,0,0,0,1.78.14,13.28,13.28,0,0,0,1.78-.1,10.77,10.77,0,0,0,1.69-.34l.51-.15a8.24,8.24,0,0,0,1.63-.75l.43-.31a1.81,1.81,0,0,0,.19-.17,3.65,3.65,0,0,0-.42.73,7.15,7.15,0,0,0-.34.84,3.14,3.14,0,0,1-1.57,1.69,8.36,8.36,0,0,1-7.62-.08A3,3,0,0,1,5.79,34.5Z"/><path class="cls-1" d="M16.39,33.46a11.58,11.58,0,0,1-4.91,1.41,5.09,5.09,0,0,0-1.38.27,1.12,1.12,0,0,0-.61.49,7.22,7.22,0,0,0-.29,1.22,6.56,6.56,0,0,1-2-.77A3,3,0,0,1,5.79,34.5v0l0,0,0-.08a.49.49,0,0,0,0-.11l0-.12L5.59,34l-.07-.15-.07-.16-.07-.15-.09-.17-.07-.13-.09-.14,0-.07L5,32.93l0,0,.06,0,.16.14.46.32.36.19a4.39,4.39,0,0,0,.44.21l.46.19.51.17.52.14.56.12.57.1.58.07.6.05.6,0h.6l.59,0,.59-.06.58-.09.56-.11.55-.14.51-.15.5-.18.42-.19.43-.22.28-.16.16-.11-.3.19Z"/><path class="cls-5" d="M5.11,33.24A8.25,8.25,0,0,1,4,32.38c-.15-.15-.36-.35-.5-.52a6.51,6.51,0,0,1-.43-.6A4.65,4.65,0,0,1,2.51,30c-.07-.26-.1-.5-.13-.67a2.4,2.4,0,0,1,0-.28l0-.19s0-.09,0-.13,0-.26,0-.37a3.19,3.19,0,0,1,.11-1,4.44,4.44,0,0,1,.22-.61,2.86,2.86,0,0,1,.21-.43,7.33,7.33,0,0,1,.62-.92,12.29,12.29,0,0,1,1-1.13C2.69,26,3,28.2,5.49,29.69a12,12,0,0,0,10.92.11c2.67-1.49,3.1-3.81,1.26-5.55A10.07,10.07,0,0,1,19,25.75a4.85,4.85,0,0,1,.47.78,4.16,4.16,0,0,1,.31.79,3.78,3.78,0,0,1,.12.75c0,.11,0,.26,0,.37s0,.19,0,.28,0,0,0,.06a.78.78,0,0,1,0,.16c0,.27,0,.39-.07.59a4.9,4.9,0,0,1-.59,1.64,5.61,5.61,0,0,1-.56.78,6,6,0,0,1-.62.6,7.72,7.72,0,0,1-1.68,1.07,11.86,11.86,0,0,1-4.76,1.1,14.38,14.38,0,0,1-1.85-.06c-.36,0-.84-.12-1.2-.18l-.59-.13c-.18,0-.42-.1-.6-.16s-.75-.26-1.07-.39A11.12,11.12,0,0,1,5.11,33.24Z"/><path class="cls-1" d="M3.36,26.32c0-.41.09-.82.13-1.23-.13,1.18.57,2.39,2.1,3.31a11.8,11.8,0,0,0,10.73.11c1.68-.94,2.46-2.21,2.31-3.46l.14,1.22c.15,1.27-.64,2.57-2.36,3.53a12,12,0,0,1-10.92-.11C3.94,28.75,3.23,27.52,3.36,26.32Z"/><path class="cls-4" d="M19.67,15.86a7.58,7.58,0,0,0-1.43-1.1l-.35-.2-.11-.06-.25-.13-.14-.07-.23-.1L17,14.13l-.13-.06-.09,0-.2-.08-.21-.08-.2-.07L16,13.73l-.21-.06-.22-.07-.21-.06-.23-.06-.21-.05-.23,0-.22-.05-.23-.05-.23,0-.23,0-.23,0-.12,0h-.09l-.4-.05h-.15L12.19,13H12.1l-.47,0H10.32l-.56,0H9.61l-.4,0-.19,0-.39.05-.11,0h0l-.54.09H7.87l-.47.1-.17,0-.36.09-.17.05-.4.12-.11,0-.5.17-.12,0-.36.15-.16.07-.33.15-.14.06-.44.24-.45.26L3.58,15c-.12.07-.23.15-.33.22l-.09.07c-.12.09-.25.19-.36.29l-.08.06-.26.25,0,.05,0,0c-.09.1-.19.2-.27.3h0l-.25.32a.35.35,0,0,1-.06.09l-.16.26a.35.35,0,0,0-.05.08c-.06.11-.12.22-.17.33l0,.07c0,.09-.07.18-.1.27a.69.69,0,0,0,0,.1c0,.1-.05.2-.08.3v.05c0,.11,0,.22,0,.34v.09c0,.08,0,.18,0,.26v.09l0,.35a.11.11,0,0,1,0,.05l.06.3a.36.36,0,0,1,0,.1c0,.1.06.2.1.3s0,0,0,.05.09.22.14.33l0,0s0,.05,0,.08l.09.16.07.12a1.3,1.3,0,0,1,.1.15l.09.12.12.15.09.12.13.15.07.08,0,0c.09.1.19.19.3.29h0c.11.1.22.2.34.29l.1.08.28.21.12.08.39.25h0C7.66,25.08,14,25.14,18,22.93,21.34,21,21.93,18.1,19.67,15.86Zm-6.92,1.35a3.92,3.92,0,0,1-3.15.14,2.31,2.31,0,0,1-.35-.18h0L9.06,17,9,17l-.12-.11a.1.1,0,0,1,0-.05l-.07-.07,0-.06-.05-.08,0-.06a.52.52,0,0,1-.06-.16.08.08,0,0,1,0,0,.78.78,0,0,1,0-.14v-.05a1,1,0,0,1,0-.17h0a.38.38,0,0,1,.05-.15.08.08,0,0,1,0,0,.54.54,0,0,1,.07-.13l0,0a.87.87,0,0,1,.13-.15l0,0,.14-.12,0,0,.22-.13L9.55,15l.07,0,.17-.07.09,0,.19-.06h.06l.27,0h.06l.21,0h.65l.27,0,.12,0,.11,0,.11,0,.11,0,.11,0,.1,0,.11,0,.1,0,.13.06.06,0,.17.09a1.32,1.32,0,0,1,.66.77C13.6,16.4,13.36,16.87,12.75,17.21Z"/><path class="cls-1" d="M19.67,15.86a10.85,10.85,0,0,0-6.19.09A38.15,38.15,0,0,0,9.7,17.3l-.1.05a16.84,16.84,0,0,0-6.28,5.09L3,22.23l-.1-.08c-.12-.09-.23-.19-.34-.29h0c-.11-.1-.21-.19-.3-.29l0,0-.07-.08-.13-.15L2,21.19,1.86,21l-.09-.12a1.3,1.3,0,0,0-.1-.15l-.07-.12-.09-.16s0,0,0-.08l0,0c-.05-.11-.1-.22-.14-.33s0,0,0-.05-.07-.2-.1-.3a.36.36,0,0,0,0-.1l-.06-.3a.11.11,0,0,0,0-.05l0-.35V18.8c0-.08,0-.18,0-.26v-.09c0-.12,0-.23,0-.34v-.05c0-.1.05-.2.08-.3a.69.69,0,0,1,0-.1c0-.09.06-.18.1-.27l0-.07c.05-.11.11-.22.17-.33a.35.35,0,0,1,.05-.08l.16-.26a.35.35,0,0,0,.06-.09l.25-.32h0c.08-.1.18-.2.27-.3l0,0,0-.05.26-.25.08-.06c.11-.1.24-.2.36-.29l.09-.07c.1-.07.21-.15.33-.22l.11-.08.45-.26.44-.24.14-.06.33-.15.16-.07L5.57,14l.12,0,.5-.17.11,0,.4-.12.17-.05.36-.09.17,0,.47-.1h.06l.54-.09h0l.11,0L9,13.12l.19,0,.4,0h.15l.56,0h1.31l.47,0h.09l.55.05h.15l.4.05h.09l.12,0,.23,0,.23,0,.23,0,.23.05.22.05.23,0,.21.05.23.06.21.06.22.07.21.06.22.08.2.07.21.08.2.08.09,0,.13.06.16.07.23.1.14.07.25.13.11.06.35.2A7.58,7.58,0,0,1,19.67,15.86Z"/><path class="cls-6" d="M4,14.59a12.65,12.65,0,0,1,3.42-1.26,16.46,16.46,0,0,1,3.84-.39,16.21,16.21,0,0,1,3.8.47,11.07,11.07,0,0,1,1.41.43c.21.06.47.18.67.26a10,10,0,0,1,1.25.64.14.14,0,0,0-.15,0c-3.81-2.3-10.12-2.36-14.1-.14S0,20.49,3.85,22.78,14,25.14,18,22.93s4.1-5.88.29-8.17a.14.14,0,0,1,.15,0,10.3,10.3,0,0,1,1.07.76c.13.13.32.29.44.42a7.58,7.58,0,0,1,.71.9,4.61,4.61,0,0,1,.74,2.49,4.36,4.36,0,0,1,0,.51c-.06.33-.15.77-.23,1.09a10.88,10.88,0,0,1-.51,1.42,35.7,35.7,0,0,1-2.37,4.48,5,5,0,0,1-1.89,1.7A11.8,11.8,0,0,1,5.59,28.4a4.85,4.85,0,0,1-1.67-1.55,36.2,36.2,0,0,1-2.39-4.47,11.09,11.09,0,0,1-.6-1.71,5.43,5.43,0,0,1-.19-1.3,6.92,6.92,0,0,1,.11-1,4.74,4.74,0,0,1,.15-.5,3.4,3.4,0,0,1,.46-1,10.4,10.4,0,0,1,.71-.9,4.37,4.37,0,0,1,.44-.42A7.67,7.67,0,0,1,4,14.59Z"/><path class="cls-4" d="M17.14,55.39a.49.49,0,0,0,0-.11l0-.08,0-.1a.29.29,0,0,0,0-.09.36.36,0,0,0,0-.1.28.28,0,0,0,0-.09.34.34,0,0,0,0-.1.25.25,0,0,0,0-.08v-.19c0-.05,0-.09,0-.13v-.06a1.06,1.06,0,0,0,0-.19c0-.07,0-.16-.05-.23l-.11-.44c0-.19-.1-.45-.14-.63l-.17-.8-.2-.95L16.37,50c-.07-.35-.15-.83-.22-1.18l-.21-1.25c-.07-.39-.15-.92-.21-1.32l-.18-1.34c-.06-.42-.12-1-.17-1.39l-.12-1.34c0-.4-.06-1-.09-1.36l0-1.23c0-.38,0-.89,0-1.27l.08-1c0-.32.12-.74.18-1.06l.15-.49V35.7a.69.69,0,0,0-.19.1l-.12.08a4.92,4.92,0,0,1-.45.28,8.44,8.44,0,0,1-5.34.74l-.11,0L9,36.8l-.13,0-.38-.1,0,0-.4-.14-.11,0-.29-.13-.11,0a3.07,3.07,0,0,1-.36-.2,1.67,1.67,0,0,1-.28-.18,1.31,1.31,0,0,1,.34.39l-.34-.39a.77.77,0,0,0-.33-.15l0,0c.08.27.18.63.24.91l.1.63c0,.35.07.82.09,1.18l0,1.06c0,.39,0,.92,0,1.32L7,42.17c0,.4-.09.94-.12,1.34L6.7,44.85C6.34,47.77,5.78,51,5,54.36l0,.19a2.83,2.83,0,0,0,1.4,2.3c0-.25.08-.51.13-.78-.07.41-.11.68-.13.78l.32.21c.13.08.27.15.41.22l.08,0,0,0,.06,0h0l.06,0,.35.15.21.07.34.12.24.06.34.09.25,0,.35.07.26,0,.36,0,.26,0,.37,0h.84a8.8,8.8,0,0,0,3.75-.93h0l.13-.08a5.13,5.13,0,0,0,.52-.32,3.52,3.52,0,0,0,1.1-1.2h0l0-.06.05-.1Z"/><path class="cls-6" d="M11.85,37c-2,.25-2.22.27-2.35,1-.61,3.49-.27,7-.5,10.53-.21,3-.56,6.09-.77,9.14a7.3,7.3,0,0,1-1.53-.67l-.32-.21,0-.27c1.32-8.21,2.47-18.47.5-20.68a1.67,1.67,0,0,0,.28.18,8.09,8.09,0,0,0,4.93.9l-.28,0Z"/><path class="cls-3" d="M11.53,58.14S11.68,49,12,45s.66-7.33,1.4-1.84,1.93,14,1.93,14A7.11,7.11,0,0,1,11.53,58.14Z"/><path class="cls-1" d="M3.15,70A5.74,5.74,0,0,1,.09,66l0,0a.12.12,0,0,0,.05.05c.16,0,.89-1.49.89-1.5a6.45,6.45,0,0,0,2.54,2.56c.28.17.58.33.89.48a6.35,6.35,0,0,0,0,2.9l.11.17A10.75,10.75,0,0,1,3.15,70Z"/><path class="cls-6" d="M1.08,63.5l3.33-5.89a5.23,5.23,0,0,0,1.38,1.16l.46.25L3.82,65.61l-.68-.38A7.86,7.86,0,0,1,1.08,63.5Z"/><path class="cls-3" d="M15.13,59.41l-.44.15-.63.17a9,9,0,0,1-.9.19l-.59.08.71,7.07c.3,0,.59-.07.89-.12.46-.07.91-.17,1.35-.28s.63-.16.94-.26l.67-.23Z"/><path class="cls-1" d="M.09,67.36V66a5.74,5.74,0,0,0,3.06,4,13.09,13.09,0,0,0,1.45.73v1.34a10.83,10.83,0,0,1-1.44-.74,5.69,5.69,0,0,1-3.07-4Z"/><path class="cls-6" d="M5.79,58.77a5.24,5.24,0,0,1-1.25-1l-.11-.13a1.67,1.67,0,0,1-.12-.16l-.12-.16-.14-.23L4,56.9l-.11-.26-.08-.2c0-.09-.06-.21-.08-.29l0-.23c0-.1,0-.22,0-.32v-.24l0-.33v.1c0,.18,0,.64.8.94A4.54,4.54,0,0,0,6,57.52a7.81,7.81,0,0,0,1.81.79h0c-1,1,.89,1.61,2.56,1.75a10.16,10.16,0,0,1-4.57-1.29Z"/><path class="cls-1" d="M12.14,34.68a10.94,10.94,0,0,1-1.23,0l-.61,0-.62,0-.6-.08-.61-.1-.58-.13-.6-.16L6.75,34l-.58-.23-.5-.23c-.16-.1-.39-.22-.56-.31L4.7,33a6.46,6.46,0,0,1-1-.82l-.27-.29c-.13-.17-.3-.41-.43-.6L2.88,31a4.14,4.14,0,0,1-.2-.43l-.09-.26A3,3,0,0,1,2.5,30l0-.2c0-.07,0-.17,0-.24l0-.16c0-.05,0-.11,0-.17v-.11l0-.12V28.9s0-.09,0-.13l0-.12,0,.24c.13.39.29.73.83.79.25,0,.61-.25.75-.36a3.68,3.68,0,0,1,.71-.16,2.22,2.22,0,0,0-.19-.27,6.3,6.3,0,0,0,1,.8l.16.09-.18-.08-.11,0c.07.64-.12,1.28,0,1.92.08.4.08.4.09.43.09.21.35.26.45.45s0,.41.11.6.18.34.59.62c.2.14,2.05,1.32,6,1l-.46,0Z"/><path class="cls-3" d="M14.94,32.45a8.19,8.19,0,0,1-1.35.42,1.3,1.3,0,0,1-.44,0c-.07,0-.16-.1-.16-.17a2.05,2.05,0,0,1,.5-.57h1.39s.14.08.15.14,0,.15-.09.2Z"/><path class="cls-1" d="M3.42,27.21,3.55,26a4.09,4.09,0,0,0,2,2.44,7.76,7.76,0,0,0,.86.45l-.08,1.29a8.07,8.07,0,0,1-.88-.45,4.17,4.17,0,0,1-2.07-2.48Z"/><path class="cls-1" d="M5.59,28.4a4.85,4.85,0,0,1-1.67-1.55l0-.09-.11-.17-.14-.23-.17-.3-.21-.34c-.06-.12-.15-.27-.22-.39l-.24-.43c-.07-.14-.17-.32-.25-.46L2.28,24,2,23.45l-.25-.53c-.07-.16-.17-.37-.24-.54l-.22-.55c-.07-.17-.16-.41-.22-.59l-.16-.57c-.05-.23-.12-.55-.15-.79l0-.33,0,.2a4,4,0,0,0,.65,1.33c1,1.39,2.74,2,3.78,3.31A18.42,18.42,0,0,1,7,27.91a11.58,11.58,0,0,0,.63,1.38,9,9,0,0,1-2.07-.89Z"/><path class="cls-3" d="M16.16,24.27a9.42,9.42,0,0,1-2.54.63c-1,.13-1,0-1.18-.14A26.68,26.68,0,0,0,16.12,24c.13,0,.3-.16.42-.13s.14.09.13.14-.35.18-.51.25Z"/><path class="cls-5" d="M15.55,13.34l0,0a2.07,2.07,0,0,0-.15-.25l-.16-.22-.2-.22-.21-.2a3.81,3.81,0,0,0-.52-.36l0,0,0,0A6.9,6.9,0,0,0,7.91,12,3.5,3.5,0,0,0,6.6,13.2a2.25,2.25,0,0,0-.23.56v0c0,.07,0,.15,0,.21l0,.25c0,.09,0,.21,0,.3v.06l0,.17v.06a2.25,2.25,0,0,0,.08.24v0l.09.21,0,0v0l.11.19.05.08.18.23c.07.09.18.2.25.28l.23.21.32.25a5.59,5.59,0,0,0,2.11.87h0l.26,0h0l.26,0h0a6.22,6.22,0,0,0,1.06,0h.06l.21,0h.13l.18,0h0l.3-.06.25-.06h0l.06,0a5.2,5.2,0,0,0,2-1.07l.09-.08L15,16l.23-.29.16-.24c.05-.08.1-.2.15-.29l.09-.25v0h0A1.93,1.93,0,0,0,15.55,13.34ZM14.23,12h-.5A1,1,0,0,1,14.23,12Zm-.5,0h-.11l-.1,0h-.08a10.8,10.8,0,0,0-2,.91A9,9,0,0,1,13.73,12Z"/><path class="cls-4" d="M6.45,13.81h0l.09.21,0,0v0l.11.19.05.08.18.23c.07.09.18.2.25.28l.23.21.32.25a5.59,5.59,0,0,0,2.11.87h0l.26,0h0l.26,0h0a6.22,6.22,0,0,0,1.06,0h.06l.21,0h.13l.18,0h0l.3-.06.25-.06h0l.06,0a5.1,5.1,0,0,0,2-1.08l.09-.07.21-.21.23-.29.16-.24c.05-.08.1-.2.15-.29l.09-.26h0a2.34,2.34,0,0,0-.12-.3l0,0a2.07,2.07,0,0,0-.15-.25l-.16-.22-.2-.22-.21-.2a3.81,3.81,0,0,0-.52-.36l0,0,0,0a6.37,6.37,0,0,0-2.08-.72l-.11.05.11-.05a7,7,0,0,0-4.3.65A3.5,3.5,0,0,0,6.6,13.2a2.07,2.07,0,0,0-.2.46.5.5,0,0,0,0,.13Zm5.31-1,.12-.06Zm.34-.18.13-.06Zm.32-.15.12-.05Zm.3-.13.1,0Zm.79-.28.07,0-.06,0Zm-.45.15.11,0Zm.22-.08.11,0Zm.83-.14h0Zm-.06,0h0Zm-.16,0h0Zm-2-.49-.12.05Z"/><path class="cls-7" d="M6.37,13.74h0a.09.09,0,0,0,0-.05Z"/><path class="cls-1" d="M11.51,17.54l-.55,0h-.27l-.28,0-.28,0-.29,0-.28-.06-.32-.08L9,17.2l-.34-.13-.29-.13L8,16.74l-.28-.17-.32-.25-.23-.21c-.07-.08-.18-.19-.25-.28l-.18-.23c-.05-.09-.13-.21-.17-.3l-.11-.25-.1-.3,0-.25v0a.9.9,0,0,0,.32.5l0,0c.32.28.71.46,1,.73a1.13,1.13,0,0,1,.28.34,1.79,1.79,0,0,0,.86.81,5,5,0,0,0,3.17.54l-.28,0-.23,0Z"/><path class="cls-3" d="M13.37,16.5a2.56,2.56,0,0,1-1.53.31s0-.14.05-.18a10,10,0,0,1,1.42-.3.16.16,0,0,1,.09.15l0,0Z"/><path class="cls-8" d="M16.47,7v0a.45.45,0,0,0,0-.11v0A1.44,1.44,0,0,0,16.23,6a1,1,0,0,0-.08-.11v0h0l-.06-.08,0,0,0,0-.09-.11-.09-.1h0v0h0l-.08-.09h0l0-.05h0l-.05,0,0,0h0l0,0-.1-.07h0l0,0h0l0,0L15.24,5l0,0h0L15,4.83l-.26-.15-.1,0h0l0,0,0,0c.11-.3.22-.59.35-.87,0,0,0,0,0,0h0a.1.1,0,0,0,0-.09h0v0l0-.06,0,0a.58.58,0,0,0-.08-.1h0l-.09-.09,0,0-.1-.08-.05,0-.11-.08-.05,0A1.18,1.18,0,0,0,14.15,3L13.9,2.8a3,3,0,0,0-1.05-.41H11.73l-.11,0h0l-.13,0h0l-.13,0-.09,0h0l-.14,0h0L11,2.6l-.05,0-.08,0-.05,0h0l-.14.05h0l-.05,0-.08,0,0,0,0,0-.07,0,0,0,0,0h0l0,0h0l0,0,0,0-.08,0h0l0,0h0l-.05,0-.14.08,0,0-.08,0h0l-.14.09h0l-.05,0-.07,0-.14.11-.12.1,0,0-.05,0h0l-.11.1-.12.1h0L8.79,4l0,0L8.7,4l0,0c-.11.1-.25.24-.41.41l-.08.08,0,0-.05.06L8,4.7l0,0-.08.09,0,0h0A.81.81,0,0,1,7.77,5l-.08.1,0,0-.07.09-.12.14-.12.15h0a0,0,0,0,0,0,0h0s0,.11.13.19l0,0a4.15,4.15,0,0,1,.8,1.94L8,7.74l-.11.06,0,0-.48.25-.09,0L7,8.24l0,0-.07,0-.47.24a1.76,1.76,0,0,0-.09.2v0c-.13.31-.2.5-.23.6h0L6,9.56l0,.07L6,9.7v.06a1.57,1.57,0,0,0-.06.28h0v.48s0,0,0,.06v0l0,.14v.05l0,.07A.37.37,0,0,0,6,11H6v0l.07.12v0h0l.09.14,0,0h0l.06.09,0,.05,0,0,.09.11.1.12a3.66,3.66,0,0,0,.8.6l.25.14.14.08c-.1.31-.2.6-.32.89s.28.47.79.77l.25.15.17.09h0l0,0,.09,0h.09l.07,0,0,0h.07l0,0h0l.05,0h1.27l.14,0h0l.08,0h0l.07,0h.07l.06,0H11l.14,0,.08,0h0l0,0,.13,0,.13,0,.1,0,0,0,.07,0h0l0,0h0l.19-.09.05,0,.09,0,.21-.11h0l.15-.09c.2-.12.39-.26.58-.4h0l.07,0,.19-.15h0a2.43,2.43,0,0,0,.25-.2h0l.14-.12.13-.13a1.74,1.74,0,0,1,.14-.12l0-.06,0,0,0-.05,0,0,0,0,.06-.06h0l0,0,0,0,.07-.08,0,0,.07-.08,0,0,0-.05.13-.15.13-.15.08-.1.05-.06h0v0h0s0,0,0,0l0,0a3.28,3.28,0,0,1-.35-.59h0a6.69,6.69,0,0,1-.46-1.43l.35-.18.68-.35a2.44,2.44,0,0,1,.28-.14l.08-.05L16,8.64h0c.05-.11.16-.36.26-.63V8a1.21,1.21,0,0,1,.05-.14v0h0l0-.07s0-.07,0-.11,0-.1,0-.15v0l0-.1V7.11a.25.25,0,0,1,0-.08V7ZM9.7,14.75Zm6.24-9.13Zm-1.85,4Zm0,0Zm0,0h0ZM16,8.63Zm-1,3.1h0Zm1-3.1h0ZM10.1,3Zm0,0Zm4.9,8.7Zm1-3.08Z"/><path class="cls-1" d="M14.93,3.62v0l0-.06,0,0a.58.58,0,0,0-.08-.1h0l-.09-.09,0,0-.1-.08-.05,0-.11-.08-.05,0A1.18,1.18,0,0,0,14.15,3L13.9,2.8a3,3,0,0,0-1.05-.41l-.16,0h-.82l-.14,0-.14,0-.13,0-.14,0-.13,0-.14,0-.14.05-.13,0-.14.05-.14.06-.13.07-.14.07L10.1,3H10l-.14.08-.13.09-.14.09-.13.09-.14.11-.13.1-.13.11-.14.11L8.79,4l-.13.12-.13.13-.13.12a1.59,1.59,0,0,1-.13.13l-.13.14L8,4.72l-.13.14A.81.81,0,0,1,7.77,5l-.12.15-.12.14-.12.15c-.06.08.26.36.78.66l.25.15h0l0,0h0a3.44,3.44,0,0,0,1.19.48l0,0,0,0h0A10.09,10.09,0,0,1,12.25,4.4l.11-.06a4.34,4.34,0,0,1,2.55-.6.08.08,0,0,0,0-.09h0Z"/><path class="cls-1" d="M15.94,5.62h0a.21.21,0,0,0,0-.07v0l0,0h0l0,0h0l0,0-.08-.09h0l0-.05h0l-.05,0,0,0h0l0,0-.1-.07h0l0,0h0l0,0L15.24,5l0,0h0L15,4.83l-.26-.15c-.5-.29-.95-.44-1.07-.36-.55.38-1.08.72-1.89,1.22.19-.12.68,0,1.18.3l.25.14.22.14,0,0,0,0,.12.1,0,0,.09.08.06.06.07.07c.14.17.19.31.14.4.81-.5,1.4-.88,1.91-1.22Z"/><path class="cls-1" d="M9.13,8.06a6.67,6.67,0,0,1-.82-.51c-.8.43-1.33.7-1.89,1A3.51,3.51,0,0,1,7.34,9l.25.15a5.66,5.66,0,0,1,1.1.74c.5-.24,1.1-.55,1.91-1-.12-.05-.66-.35-1.22-.67Z"/><path class="cls-5" d="M12.35,4.34a4.39,4.39,0,0,1,2.56-.6A11.56,11.56,0,0,0,14,6.9c.81-.5,1.4-.88,1.91-1.22.7.77.7,1.37,0,3-.49.23-1.06.52-1.86.95a5.38,5.38,0,0,0,.85,2.15A9.67,9.67,0,0,1,12.33,14a4.63,4.63,0,0,1-2.61.71,15.45,15.45,0,0,0,.84-3.13c-.8.51-1.38.87-1.86,1.2-.7-.77-.7-1.37,0-3,.5-.24,1.1-.55,1.91-1a4,4,0,0,0-.9-2.14A10.09,10.09,0,0,1,12.25,4.4l.05,0Z"/><path class="cls-8" d="M10.49,2.78a.4.4,0,0,0,.23.46,1.4,1.4,0,0,0,1.26,0c.23-.13.32-.31.26-.48l.18.51c.07.2,0,.42-.31.58a1.69,1.69,0,0,1-1.52,0c-.25-.15-.34-.36-.27-.55V3.21l0,0,0-.05v0l0-.05V3l0,0,0-.06V2.78Z"/><path class="cls-6" d="M13.07,1.71A1.71,1.71,0,1,1,11.36,0,1.71,1.71,0,0,1,13.07,1.71Z"/><path class="cls-4" d="M13,1.53A1.42,1.42,0,1,1,11.54.11,1.43,1.43,0,0,1,13,1.53Z"/><path class="cls-9" d="M12.34,1.28a.46.46,0,0,1-.46.47.47.47,0,0,1,0-.93A.46.46,0,0,1,12.34,1.28Z"/><path class="cls-3" d="M18.08,21.41c.18.75-1.2,1.71-3.07,2.15s-3.53.18-3.7-.58-.3-4.43,1.57-4.86S17.91,20.65,18.08,21.41Z"/><path class="cls-3" d="M15.45,13.15a1.65,1.65,0,0,1,.05,1,2.29,2.29,0,0,1-.55.89,4.4,4.4,0,0,1-1.79,1,7,7,0,0,1-2,.29,8.18,8.18,0,0,1-2-.31,8.7,8.7,0,0,0,4-.21,4.38,4.38,0,0,0,1.74-.93A1.81,1.81,0,0,0,15.45,13.15Z"/><path class="cls-10" d="M8.21,12a3.3,3.3,0,0,1,.44-2.14h0l1.89-1,0,.08a6.47,6.47,0,0,0-.29-1.13,2.06,2.06,0,0,0-.58-.93l-.09-.07.06-.08A10,10,0,0,1,10.7,5.52a11.74,11.74,0,0,1,1.2-1,4.36,4.36,0,0,1,3-.87l.16,0L15,3.79a8.19,8.19,0,0,0-.89,3.12L14,6.84l1.93-1.2,0,0,0,0a1.53,1.53,0,0,1,.46,1,2.63,2.63,0,0,1-.12,1.08,2.77,2.77,0,0,0,.08-1.07,1.45,1.45,0,0,0-.48-.92H16L14.07,7l-.13.09V6.9a7.74,7.74,0,0,1,.87-3.22l.07.16A4.3,4.3,0,0,0,12,4.68a13.87,13.87,0,0,0-1.18,1A9.32,9.32,0,0,0,9.79,6.8l0-.14a2.07,2.07,0,0,1,.65,1,6.62,6.62,0,0,1,.27,1.17v.06l0,0-1.93,1,0,0A3.22,3.22,0,0,0,8.21,12Z"/></g></g></svg>