<svg xmlns="http://www.w3.org/2000/svg" viewBox="0 0 25.81 48.06"><defs><style>.cls-1{fill:#aeb1b3;}.cls-2{fill:#e6eaeb;}.cls-3{fill:#babdbd;}.cls-4{fill:#cdd0d1;}.cls-5{fill:#1f1f1f;}.cls-6{fill:#191919;}.cls-7{fill:#f5f9fa;}.cls-8{fill:#eef2f2;}.cls-9{fill:#121212;}.cls-10{fill:#dee2e3;}.cls-11{fill:#d2d5d6;}.cls-12{fill:#d7dadb;}.cls-13{fill:#737778;}</style></defs><g id="Capa_2" data-name="Capa 2"><g id="layer"><path class="cls-1" d="M25.81,19.3c0-.1,0-.21,0-.33v-.08a.22.22,0,0,0,0-.08c0-.09,0-.19,0-.29s0-.12,0-.18,0-.31,0-.46v-.07c0-.13,0-.26,0-.37s0-.08,0-.12,0-.17,0-.24a.11.11,0,0,1,0,0c0-.06,0-.1,0-.14-.14-.49-.7-1-1.18-1.86-.3-.64-.53-1.19-.73-1.69l-.44-1.19C22.82,11,22.52,10,21.87,8.51l-.16-.38a2.29,2.29,0,0,1-.1-.23c-.1-.21-.21-.44-.34-.69a7.1,7.1,0,0,0-1.78-2.44h0a26.24,26.24,0,0,0,2.38-2.7L21.77,2c-2-1.77-4.3-1.22-6-.33A11.67,11.67,0,0,0,13.94.72l0,0h0C12.26.05,9.86-.5,7.9.75,7.77.84,6.75,1.42,6,1.86A5.17,5.17,0,0,0,4.39,3l0,0a5.39,5.39,0,0,0-.51.63c-.1.14-.19.29-.29.45s-.16.28-.23.43a8.5,8.5,0,0,0-.45,1l0,.06v0l0,.09c0,.13-.07.28-.11.42-1.17,4-.87,8.9-.41,13.09.08.8.91,7.47.91,7.47h0a3.36,3.36,0,0,0-.73,3.82L2.4,30.4v.06a3.2,3.2,0,0,0,.12,1.22L1,34.05a3.62,3.62,0,0,0-.33.65c0-.05,0-.11.05-.16a1.39,1.39,0,0,0-.06.19,2.67,2.67,0,0,0-.14.36c0,.12-.07.23-.1.34a1.27,1.27,0,0,0,.06-.18c0,.11-.06.21-.07.31a.57.57,0,0,1,0-.13,2,2,0,0,0,0,.24.88.88,0,0,0,0,.17,4.32,4.32,0,0,0,.12,2,4,4,0,0,0-.19.5A6.69,6.69,0,0,0,.12,39a3.25,3.25,0,0,0-.07.45c0,.22,0,.51,0,.74v1.33a5.31,5.31,0,0,0,2.68,4.21h0l.47.3a11.91,11.91,0,0,0,1.64.81l.58.2c.3.11.6.23.91.32v0c4.16,1.19,9.32.84,12.86-1.14,2.32-1.29,3.49-3,3.48-4.74V40.14a6.4,6.4,0,0,0-.14-1.26,6.15,6.15,0,0,0-.36-1.1,4.53,4.53,0,0,0,0-2.37c0,.05,0,.1,0,.15a3.89,3.89,0,0,0-.12-.49s0,.07,0,.11L22,35l-.1-.25a1.86,1.86,0,0,0-.1-.25,1.8,1.8,0,0,1,.08.21,5.08,5.08,0,0,0-.35-.7c-.37-.57-.74-1.14-1.1-1.72l-.42-.64a5,5,0,0,0,.23-1.37,1.35,1.35,0,0,0,0-.21v-.11l0-.13c.5-1,.94-2.2.69-2.68-.51-1-2.63-5.56-3.56-7.34l-.27-.51.08,0c.14.05.14.29.29.34l.45.88.55,1.18,2.77,1.6C24.25,22.72,25.1,21,25.1,21a3.64,3.64,0,0,0,.7-1.28,2.73,2.73,0,0,0,0-.31Z"/><polygon class="cls-1" points="2.63 31.61 2.51 33.34 3.88 37.03 11.07 38.72 19.86 35.01 20.28 32.65 19.74 31.61 2.63 31.61"/><path class="cls-2" d="M0,40.21c0-.23,0-.52.05-.74A3.25,3.25,0,0,1,.12,39a6.69,6.69,0,0,1,.19-.72c.08-.24.15-.42.23-.62A8.67,8.67,0,0,1,2,35.42c-2,2.25-1.43,5.08,1.76,7,4,2.42,10.65,2.49,14.83.15,3.44-1.91,4.14-4.86,2-7.19h0a9.33,9.33,0,0,1,.8,1,8.8,8.8,0,0,1,.64,1.18,7.64,7.64,0,0,1,.43,1.29,6.4,6.4,0,0,1,.14,1.26c0,1.73-1.16,3.45-3.48,4.75-4.51,2.51-11.67,2.44-16-.16C1.05,43.46,0,41.83,0,40.21Z"/><path class="cls-3" d="M18.87,34l-.7-.12a14.82,14.82,0,0,0-13.46-.13c-3.79,2.11-3.92,5.6-.28,7.79a14.85,14.85,0,0,0,13.46.14c3.8-2.12,3.92-5.61.28-7.8l.7.12c4,2.42,3.88,6.26-.3,8.59S7.75,44.83,3.74,42.41s-3.88-6.25.3-8.59S14.86,31.56,18.87,34Z"/><path class="cls-1" d="M4.43,41.51l-.21-.13L3.74,41A4.38,4.38,0,0,1,1.79,38l-1,.54A4.87,4.87,0,0,0,3,41.9l.53.37.23.14c1.22.74,1,2.11,2.21,1,.77-.71,3.93-.17,3.93-.17A23.44,23.44,0,0,1,4.43,41.51Z"/><path class="cls-2" d="M1,34.05c.73-1.15,1.45-2.3,2.18-3.44-1.1,1.73-.49,3.75,1.87,5.17a13.41,13.41,0,0,0,12.18.13c2.56-1.43,3.28-3.54,2.12-5.35,0,.06.07.12.11.17.14.23.29.46.44.69s.36.57.55.85c.36.58.73,1.15,1.1,1.72,1.47,2.29.56,5-2.69,6.79-4.36,2.44-11.3,2.37-15.49-.15C.4,38.82-.38,36.25,1,34.05Z"/><path class="cls-4" d="M19.52,33.5a.93.93,0,0,1,0-.13.14.14,0,0,1,0-.06v0a.61.61,0,0,1,0-.27.06.06,0,0,1,0,0,.14.14,0,0,1,0-.07v0l0-.09c0-.09.12-.25.27-.54v0h0l0-.07-.11.22c-.06.11-.13.21-.2.32l-.08.1-.16.22-.1.11-.19.2-.11.11-.21.2a7.74,7.74,0,0,1-1.26.87,12.34,12.34,0,0,1-5.27,1.42l-.31,0H10.74l-.35,0H10.3c-.22,0-.44,0-.65-.06l-.16,0-.61-.08-.11,0-.58-.11-.16,0-.56-.14-.16,0a4,4,0,0,1-.49-.15l-.06,0-.11,0L6.12,35l-.06,0-.07,0a4.68,4.68,0,0,1-.45-.2l-.14-.07h0l-.52-.28-.31-.2,0,0,0,0-.21-.15h0l-.09-.06L4,33.69a.1.1,0,0,1-.05,0l-.25-.22,0-.06-.17-.17-.07-.07L3.22,33l-.05-.07a3.16,3.16,0,0,1-.34-.5l-.12-.23c0,.05,0,.09.07.14h0a5.6,5.6,0,0,1,.33.74s0,.07,0,.1v0a.57.57,0,0,1,0,.13.94.94,0,0,1,0,.16s0,0,0,0h0l0,.06L3,33.67c.06.11.12.22.19.33h0c.11.17.23.33.36.5l0,0h0l.16.17,0,0,0,0,.05.05.1.1L4,35l0,0H4l0,0,0,0,.07.06,0,0,0,0,.06,0,0,0,0,0,.06,0,0,0,.07,0,.12.09,0,0,0,0,0,0,0,0h0l.24.14a2.48,2.48,0,0,0,.31.18h0l0,0h0l0,0h0l0,0,.07,0,.06,0,0,0,0,0,0,0h0l0,0,.06,0,0,0H6l0,0h0l0,0,.08,0,0,0h0l.06,0,.05,0h0l0,0,.09,0h0l0,0h0l0,0h.06l.08,0,.05,0H7l.09,0h.12l.06,0,.11,0,.07,0h.13l.06,0,.08,0h.09l.08,0H8l.1,0,.1,0h.35l.1,0H8.7l.09,0,.15,0h.32l.14,0h2.46l.25,0h.31l.36,0h.08l.15,0,.38-.05h.08A14.38,14.38,0,0,0,15,36.83H15l.54-.17.05,0h0l.09,0L16,36.5l.13,0,.07,0,.07,0h0l.11,0,.15-.07.15-.07.07,0,.07,0,0,0h0l0,0,.36-.19.41-.24h0l.06,0,.3-.21.12-.09.21-.16.12-.11.18-.16h0l0,0a.6.6,0,0,1,.08-.08l.14-.15.06-.07L19,34.5l.13-.17.06-.07,0,0a1.27,1.27,0,0,0,.13-.19v0h0l0,0,0,0v0l0-.05a2,2,0,0,0,.13-.25s0,0-.05-.07v0Z"/><path class="cls-5" d="M2.63,30.87a1.18,1.18,0,0,1,0,.61,1.27,1.27,0,0,0,0,.68c-.21-.45,0-1.15-.2-1.51a2.39,2.39,0,0,0,.12.22Z"/><path class="cls-4" d="M0,41.54V40.21c0,1.62,1.05,3.25,3.15,4.52,4.32,2.6,11.48,2.67,16,.16,2.32-1.3,3.48-3,3.48-4.75v1.34c0,1.72-1.16,3.45-3.48,4.74-4.5,2.52-11.66,2.44-16-.16C1.05,44.8,0,43.17,0,41.54Z"/><path class="cls-4" d="M3.56,41.41C.64,39.61-.38,37.1.74,34.54c-1,2.09-.12,4.42,2.65,6.09,4.19,2.52,11.13,2.59,15.49.15,3-1.68,4-4.12,3-6.3,1.39,3.1-.39,6.09-4.65,7.8a17.37,17.37,0,0,1-11.75,0,11.52,11.52,0,0,1-1.88-.9Z"/><path class="cls-6" d="M2.4,30.4a.06.06,0,0,0,0,0A.08.08,0,0,1,2.4,30.4Z"/><path class="cls-6" d="M20.28,29.86a1.14,1.14,0,0,0,0-.26A1,1,0,0,0,20.28,29.86Z"/><path class="cls-4" d="M20.28,30.05v-.19a3.81,3.81,0,0,1-.1.42l-.14.35c0,.07-.07.13-.1.2l0,.07h0a.33.33,0,0,1,0-.06A6,6,0,0,1,17.58,33a14.2,14.2,0,0,1-12.87-.13,5.67,5.67,0,0,1-2.08-2,2.39,2.39,0,0,1-.12-.22c0-.08-.07-.17-.11-.25v.06a3.12,3.12,0,0,0,.14,1.3l0,.11a1.48,1.48,0,0,0,.12.29l.12.23h0a5.63,5.63,0,0,0,2,2,13.87,13.87,0,0,0,12.58.12,5.81,5.81,0,0,0,2.31-2.13l.11-.22h0a4.76,4.76,0,0,0,.42-1.85h0A1.35,1.35,0,0,0,20.28,30.05Zm-17.6,1.1v0Zm0-.17a.3.3,0,0,1,0,.1A.3.3,0,0,0,2.67,31Zm0,.07a.36.36,0,0,0,0-.1A.3.3,0,0,1,2.67,31.05Zm0,1a1.69,1.69,0,0,1,0-.55v0a1.67,1.67,0,0,0,0,.58S2.66,32,2.66,32Zm0-.83v0ZM20,31.06a.22.22,0,0,0,0,.08A.22.22,0,0,1,20,31.06ZM20,30.7l0,.07Zm0,.17s0,.05,0,.08S20,30.9,20,30.87Zm0,.56v0Zm0,.11v0Zm0,.2a.68.68,0,0,1,0,.14A.68.68,0,0,0,20,31.74Zm-.06-.64c0,.09,0,.2,0,.31A1.08,1.08,0,0,1,19.89,31.1Zm0,0v0Zm0,1s0,0,0-.06v0a.19.19,0,0,1,0,.08Z"/><path class="cls-7" d="M20.28,29.31A3.64,3.64,0,0,1,19.94,31a5,5,0,0,1-1.08,1.42,8,8,0,0,1-3.09,1.71,13.24,13.24,0,0,1-3.48.55,16.22,16.22,0,0,1-3.48-.32,26.79,26.79,0,0,0,3.47,0,14.3,14.3,0,0,0,3.37-.62,8.28,8.28,0,0,0,3-1.56A4.2,4.2,0,0,0,20.28,29.31Z"/><polygon class="cls-6" points="2.83 32.39 2.83 32.39 2.83 32.39 2.83 32.39"/><path class="cls-3" d="M3.15,44.72c-.16-.09-.31-.19-.46-.29l.21,0a.66.66,0,0,0,.24-.11c.09-.1.23-.13.32-.23a.87.87,0,0,0,.15-.35,2,2,0,0,0,0-.66,2.38,2.38,0,0,0,0-.26v0c0-.2.05-.44-.15-.6l.31.19a10.88,10.88,0,0,0,2.32,1.05s-.08,0-.11,0a1.87,1.87,0,0,0-.45,1.3c0,.13,0,.45.54,1.12l.23.19a13,13,0,0,1-3.11-1.33Z"/><path class="cls-7" d="M16.48,44.53c0,.46-.57.81-1.55,1.06,0,0-1.22.25-1.58-.28s.33-.89.43-1a5.2,5.2,0,0,1,1.93-.45c.74.13.79.48.77.62Z"/><path class="cls-3" d="M3.36,40.61,5,35.77h0a9.17,9.17,0,0,0,1.79.83L5.67,41.68a12.88,12.88,0,0,1-2.28-1l0,0Z"/><path class="cls-7" d="M15.36,36.71l-.5.14a14.22,14.22,0,0,1-1.5.31l.57,5.21A14.83,14.83,0,0,0,15.85,42q.31-.07.63-.18Z"/><path class="cls-1" d="M8.94,36c0,.08-.4.21-1.21.22l-1.08.06a.11.11,0,0,0,0,.1c.06.1.23.17.32.23l0,0a9.6,9.6,0,0,1-1.92-.87l-.24-.14.27.06c.27.12.27.12.46.1-.4-.58-1-1-1.37-1.56s-.32-.56-.3-.6a6.71,6.71,0,0,0,1,.7,11,11,0,0,0,3.73,1.34l.17.09s.22.13.18.23Z"/><path class="cls-1" d="M2.68,45.76V44.42a5.6,5.6,0,0,0,.48.3,12.77,12.77,0,0,0,3.13,1.33v1.34a13.17,13.17,0,0,1-3.13-1.33l-.47-.3Z"/><path class="cls-1" d="M18.72,41.57a11.93,11.93,0,0,1-1.53.71,17.37,17.37,0,0,1-11.75,0l-.63-.25a12.11,12.11,0,0,1-1.26-.65l-.47-.31a6.66,6.66,0,0,1-.89-.7l-.32-.3L1.73,40l.06.06a3.63,3.63,0,0,0,1.79.84l-.08-.16a12,12,0,0,0,2.15,1l-.08,0c1.76,1.75,8.86,2.69,14-.63l-.48.32-.33.19Z"/><path class="cls-1" d="M8.31,34.26c-1.16-.09-1.51.15-1,.7a3.35,3.35,0,0,0,1.32.72,11,11,0,0,1-3.73-1.34,6.71,6.71,0,0,1-1-.7l.06,0c.93.18.57-.48.38-.77a9.28,9.28,0,0,0-.75-.84,7.34,7.34,0,0,0,1.13.83,11.78,11.78,0,0,0,4.22,1.44l-.62-.06Z"/><path class="cls-8" d="M17.85,25.55h0c3.48,2.1,3.36,5.44-.27,7.46a14.2,14.2,0,0,1-12.87-.13c-3.48-2.1-3.36-5.43.27-7.46a14.2,14.2,0,0,1,12.87.13Z"/><path class="cls-1" d="M9.09,12.84c-1-8.59,2.37-8.33,3.79-9.13a21.28,21.28,0,0,0,3-2s-4.65-3.07-8-.94C7.7.88,5.36,2.21,5.18,2.37,4.43,3,7.08,2.2,6.6,3.62c-1.37,4.05-1,9.13-.52,13.51.08.8.91,7.47.91,7.47l3.35,1.93S10,20.29,9.09,12.84Z"/><polygon class="cls-9" points="20.37 20.12 20.62 20.97 20.37 21.18 20.37 20.12"/><path class="cls-3" d="M25.8,19.72A3.64,3.64,0,0,1,25.1,21l-3.78,2.33L20.62,21l1.71-1.42-1.78-2.7-.84-1.28c-1.48-.41-2.33-1.47-3-1.71-.74,0-1.11.33-1.22.78a4.4,4.4,0,0,0,.64,2.6c.45,1,1,1.9,1.36,2.55.93,1.78,3.05,6.38,3.56,7.34s-1.72,4.57-1.72,4.57a5.11,5.11,0,0,1-1.11,1,12.14,12.14,0,0,1-2.66,1.2h0L14.69,33l-7.16-8s.11-9.8,2.72-17.54c.43-1.24-2.36-.37-1.72-1,.19-.19,3.73-2.15,3.93-2.3.54-.39.35-.5.78-.8a15,15,0,0,1,3.89-2.05S17.24.89,19,.93a5,5,0,0,1,2.91,1.13L19.39,4.69s1.4.83,2.79,4.6A61.13,61.13,0,0,0,24.4,15c.48.91,1,1.37,1.18,1.86A13.61,13.61,0,0,1,25.8,19.72Z"/><path class="cls-3" d="M19.49,4.76a1.54,1.54,0,0,1-.95,0c-.41-.18-.54,0-.54,0L16.65,6.44l-1,.43A14.36,14.36,0,0,1,19,12c1.38,3.37,2.54,4.31,2.54,4.31S24.26,16,24.4,15c-1.35-2.9-1.43-4-2.53-6.52A11.23,11.23,0,0,0,19.49,4.76Z"/><path class="cls-1" d="M16.5,6.05S18,5.94,19.29,8.94s1.85,5,3.25,6.91l1.29-.57a13.89,13.89,0,0,1-1.65-3.91A13.43,13.43,0,0,0,18.76,5.5c-1.19-1.08-2.09-.73-2.09-.73Z"/><path class="cls-10" d="M21.87,2.06a4.91,4.91,0,0,0-3.6-.89A11.74,11.74,0,0,0,13.9,3.1s-.38.18,0-.15C15.17,1.83,18.89-.72,21.87,2.06Z"/><path class="cls-10" d="M21,27.13c0,1.1-.74,1.12-.74,1.12s-3.69-7.17-4.56-9.74-.26-3.87-.26-3.87h0a4.4,4.4,0,0,0,.64,2.6c.45,1,1,1.9,1.36,2.55C18.38,21.57,20.5,26.17,21,27.13Z"/><path class="cls-1" d="M19.29,31.7a5.11,5.11,0,0,1-1.11,1,12.14,12.14,0,0,1-2.66,1.2h0L14.69,33c0-.34.06-.58.06-.58l2.54-2.47c3.6-1.34,3.72-2.78,3.72-2.78C21.51,28.08,19.29,31.7,19.29,31.7Z"/><path class="cls-11" d="M23.31,21.11a3.82,3.82,0,0,1-.7,1.28l-1.29-1.56v2.5l-2.77-1.6L18,20.55l-.45-.88c-.15-.05-.15-.29-.29-.34-1.22-.48-3.84-3.06-3.78-3.65-2.59.44-.74,4.51.19,6.29.78,1.49,2.39,5,3.19,6.6.16.33.28.58.37.74.5.94-1.66,4.47-1.71,4.57h0l-12.3-7.1s-.29-6-.37-6.78c-.48-4.38-1.38-10.15,0-14.2C5.43-1.93,13.24,3.24,13.24,3.24A1.29,1.29,0,0,1,13.92,3a7,7,0,0,1,1.4-.09,4,4,0,0,1,2.77,1.33L15.61,6.87s1.85.91,3.23,4.68a18.05,18.05,0,0,0,2.71,4.74,24.35,24.35,0,0,1,1.54,2A14.33,14.33,0,0,1,23.31,21.11Z"/><path class="cls-12" d="M14.1,2.84A9.55,9.55,0,0,0,10,3.22a4.12,4.12,0,0,0-.52.24c-1.43.8-5.22,3-4.19,11.56.89,7.45,1.25,13.69,1.25,13.69l-1.13-.65L3.21,26.78s-.83-6.67-.91-7.47c-.48-4.38-.81-9.57.56-13.63C5.43-1.93,13.84,2.69,14.1,2.84Z"/><path class="cls-1" d="M16.36,11.46a5.15,5.15,0,0,1,1.1,2,1.83,1.83,0,0,1-.71-.29,2.25,2.25,0,0,1-.59-.54,2.08,2.08,0,0,1-.44-1.5l.64.35Z"/><path class="cls-2" d="M16.23,11.75l.08.19,0,.07a.54.54,0,0,0,.09.37.84.84,0,0,1,.1.34l0,0a.88.88,0,0,1-.4-.56c-.11-.43.19-.39.19-.39Z"/><path class="cls-10" d="M16.17,11.28a2.35,2.35,0,0,1,.76.82,4.21,4.21,0,0,1,.62,1.7,8.9,8.9,0,0,0-1.14-2.09,2.7,2.7,0,0,0-.63-.54,1.34,1.34,0,0,0-.33-.18A1.72,1.72,0,0,1,16.17,11.28Z"/><path class="cls-1" d="M25.8,19.72A3.64,3.64,0,0,1,25.1,21s-.85,1.72-3.78,2.33v-2.5l1.29,1.56a3.82,3.82,0,0,0,.7-1.28,14.33,14.33,0,0,0-.22-2.83,24.35,24.35,0,0,0-1.54-2L24.4,15c.48.91,1,1.37,1.18,1.86,0,0,0,.08,0,.14a15.37,15.37,0,0,1,.19,1.86A5.56,5.56,0,0,1,25.8,19.72Z"/><path class="cls-3" d="M23.31,21.11a3.82,3.82,0,0,1-.7,1.28l-1.29-1.56v2.5l-2.77-1.6L18,20.55a6.89,6.89,0,0,1,2.55-3.7,7.26,7.26,0,0,1,1-.56,24.35,24.35,0,0,1,1.54,2A14.33,14.33,0,0,1,23.31,21.11Z"/><polygon class="cls-13" points="22.61 22.39 21.32 20.83 21.32 23.33 22.61 22.39"/><path class="cls-10" d="M17.29,29.91a28.87,28.87,0,0,1-4-7.36c-1.52-4.18-1.86-6.64.23-6.87-.87,1.66,1.25,7.12,3.56,10.85A18,18,0,0,0,19,29.24S17.58,30,17.29,29.91Z"/><path class="cls-1" d="M13.75,3l-.51.21c-1-.75-4.54.22-6.21,2.26,1.22-2.89,5.68-3.31,5.68-3.31h1.4l1-.64L13.91.7l1.89,1Z"/><path class="cls-13" d="M18.09,4.24a4.87,4.87,0,0,0-2.38,1.5c-.67.79-1.45,1.48-.1,1.13a2.68,2.68,0,0,0,1-.43C17.52,5.6,18.53,4.24,18.09,4.24Z"/><path class="cls-10" d="M18.09,4.24,18,4.18a4.47,4.47,0,0,0-3-.83A8,8,0,0,0,12.06,4.6,5.63,5.63,0,0,1,13.8,3C15,2.4,16.19,2,18.17,4.27,18.12,4.21,18.09,4.24,18.09,4.24Z"/><path class="cls-13" d="M22.4,18.32a3.13,3.13,0,0,1,.72.28,1.16,1.16,0,0,1,.37.72.84.84,0,0,1-.17.69.47.47,0,0,1-.42,0,1.13,1.13,0,0,1-.51-.26c-.47-.43-.78-1-.62-1.33.1-.2.36-.21.63-.14Z"/><path class="cls-13" d="M25.8,18.89h0c-.19,0-.3-.11-.43-.29a1.14,1.14,0,0,1-.13-.68,4.39,4.39,0,0,1,.27-.7,1.57,1.57,0,0,1,.12-.19A15.37,15.37,0,0,1,25.8,18.89Z"/><path class="cls-13" d="M21.87,2.06s-.39,0-1.18.63a7.29,7.29,0,0,0-1.6,1.91c-.08.2-.14.37,0,.29a1.76,1.76,0,0,1,.36-.13A26.24,26.24,0,0,0,21.87,2.06Z"/><path class="cls-1" d="M10,3.22a4.12,4.12,0,0,0-.52.24c-1.43.8-5.22,3-4.19,11.56.89,7.45,1.25,13.69,1.25,13.69l-1.13-.65s-1.51-12.57-1.14-18C4.73,3.77,10,3.22,10,3.22Z"/></g></g></svg>