<svg xmlns="http://www.w3.org/2000/svg" viewBox="0 0 24.72 55.36"><defs><style>.cls-1{fill:#aeb1b3;}.cls-2{fill:#242424;}.cls-3{fill:#2c2c2c;}.cls-4{fill:#e6eaeb;}.cls-5{fill:#babdbd;}.cls-6{fill:#cdd0d1;}.cls-7{fill:#1f1f1f;}.cls-8{fill:#f5f9fa;}.cls-9{fill:#eef2f2;}.cls-10{fill:#d2d5d6;}.cls-11{fill:#d7dadb;}.cls-12{fill:#dee2e3;}.cls-13{fill:#9da0a1;}.cls-14{fill:#737778;}</style></defs><g id="Capa_2" data-name="Capa 2"><g id="layer"><path class="cls-1" d="M24.57,46.18a5.3,5.3,0,0,0-.35-1.1,4.53,4.53,0,0,0,0-2.37.66.66,0,0,1,0,.14,2.77,2.77,0,0,0-.11-.48s0,.07,0,.11l-.06-.2c0-.08-.07-.17-.1-.26a2.44,2.44,0,0,0-.1-.24A1.8,1.8,0,0,1,24,42a5.08,5.08,0,0,0-.35-.7l-1.1-1.72-.42-.65a4.87,4.87,0,0,0,.23-1.36V37.4a2.13,2.13,0,0,0,0-.25,3.19,3.19,0,0,0-.09-1.62,31.28,31.28,0,0,0,.42-15.81C20.13,9,12.89,4.6,12.89,4.6s0-.89-1.71-2.82S8,0,8,0s-.59,1.45,2.19,5.11c-.15-.18-.35-.41-.61-.68l0,0a1.62,1.62,0,0,0-.18-.19l-.19-.18a9.78,9.78,0,0,0-.72-.72,7.55,7.55,0,0,0-1.27-.91A4.53,4.53,0,0,0,5.8,1.87,2.47,2.47,0,0,0,4.16,2l-.09,0v.11a7.78,7.78,0,0,0,.46,2.92,6.63,6.63,0,0,0,.65,1.34,4.7,4.7,0,0,0,.38.5,14.44,14.44,0,0,0-1.27.82l-.08,0-.1.1,0,0A1.49,1.49,0,0,0,4,8.08a3.54,3.54,0,0,0-.44.54,14.87,14.87,0,0,1-1.36,1.79h0l-.32.33h0c-.11.11-.22.2-.32.29s0,0,0,0h0c-.76.66-1.21.76-1.33.94l0,0A6.66,6.66,0,0,0,0,14.09a12.51,12.51,0,0,0,.69,2.09l1.65-.52v2.5l1.8,1L5.69,18l.27-.2.49-.38c1.2,1.05,2,1.67,2.59,2.19l.43.34a5.43,5.43,0,0,1,1.2,2.11,2,2,0,0,1-.82,2.11,16.73,16.73,0,0,0-1.6.81S4.53,27.11,4.48,27.2h0C4,27.58,5.4,34,5.4,34h0a3.4,3.4,0,0,0-.82,3.93L4.5,37.7v.06A3,3,0,0,0,4.62,39l-1.5,2.36a4.06,4.06,0,0,0-.33.66s0-.11,0-.16,0,.12-.07.19-.09.24-.13.36l-.1.34a1.27,1.27,0,0,0,.06-.18c0,.1-.06.21-.08.31s0-.09,0-.13a2.23,2.23,0,0,0,0,.23l0,.18a4.47,4.47,0,0,0,.13,2,4,4,0,0,0-.19.5,6.46,6.46,0,0,0-.19.71,3.79,3.79,0,0,0-.07.45c0,.23,0,.52,0,.75v1.33A5.28,5.28,0,0,0,4.78,53v0l.47.3a11.87,11.87,0,0,0,1.64.8c.19.08.39.14.58.21s.6.23.91.32v0c4.16,1.19,9.32.84,12.86-1.14,2.32-1.29,3.49-3,3.48-4.74V47.44A5.72,5.72,0,0,0,24.57,46.18Z"/><path class="cls-2" d="M17.61,46.88a11.73,11.73,0,0,0,1.95-1,5.45,5.45,0,0,0,1.65-1.41H19.83Z"/><path class="cls-3" d="M19.59,40.65l-.13-.11h0Z"/><path class="cls-2" d="M19.13,45.73l-1.52,1.15-1.79-1V43.34l-1.65.53a12.32,12.32,0,0,1-.7-2.09,6.73,6.73,0,0,1,.11-2.06l0,0a8.66,8.66,0,0,1,2-1.59h0a5.41,5.41,0,0,1-.64.63s0,0,0,0h0c-.23.43.3,2,1.5,4.14A6.78,6.78,0,0,0,19.13,45.73Z"/><path class="cls-1" d="M4.48,41.64,4.62,39l3.14,2.18L22,39.06l.35,1.18s-5.1,5.44-5.59,5.45-6.16-.12-7-.2S4.48,41.64,4.48,41.64Z"/><path class="cls-4" d="M2.1,47.51c0-.23,0-.52,0-.75a3.79,3.79,0,0,1,.07-.45,6.46,6.46,0,0,1,.19-.71c.08-.24.15-.42.23-.62a8.67,8.67,0,0,1,1.44-2.26c-2,2.25-1.43,5.07,1.75,7,4,2.42,10.65,2.48,14.83.15,3.44-1.92,4.15-4.86,2.05-7.19h0a8.16,8.16,0,0,1,.79,1,8.75,8.75,0,0,1,.65,1.18,7.48,7.48,0,0,1,.42,1.29,5.72,5.72,0,0,1,.15,1.26c0,1.73-1.16,3.45-3.48,4.74-4.51,2.52-11.67,2.45-16-.16C3.15,50.76,2.1,49.13,2.1,47.51Z"/><path class="cls-5" d="M21,41.27l-.7-.12A14.85,14.85,0,0,0,6.81,41c-3.79,2.12-3.92,5.61-.28,7.8A14.85,14.85,0,0,0,20,49c3.79-2.12,3.92-5.61.28-7.8l.7.12c4,2.42,3.87,6.26-.31,8.59S9.84,52.13,5.83,49.71,2,43.45,6.14,41.12,17,38.86,21,41.27Z"/><path class="cls-1" d="M6.53,48.81l-.21-.13-.49-.34a4.39,4.39,0,0,1-1.94-3.09l-1,.54A4.87,4.87,0,0,0,5.07,49.2l.53.37.23.14a13.14,13.14,0,0,0,4.24,1.55l.31-1A11.92,11.92,0,0,1,6.53,48.81Z"/><path class="cls-4" d="M3.12,41.34,5.3,37.9c-1.1,1.74-.49,3.76,1.87,5.18a13.41,13.41,0,0,0,12.18.13c2.56-1.43,3.27-3.55,2.12-5.35,0,.06.07.12.11.17.14.23.29.46.44.69s.36.57.55.85l1.1,1.72c1.47,2.29.56,5-2.69,6.79-4.36,2.44-11.3,2.37-15.49-.15C2.5,46.12,1.72,43.55,3.12,41.34Z"/><path class="cls-6" d="M4.81,39.46c0-.1-.09-.2-.13-.3l0-.1a3,3,0,0,1-.14-1.3c0-.07,0-.08,0-.12a2.88,2.88,0,0,0,.13.31c.2.36,0,1.06.2,1.51Z"/><path class="cls-6" d="M22.38,37.56A4.76,4.76,0,0,1,22,39.41c.21-.43,0-1.1.17-1.47l.15-.36a2.32,2.32,0,0,0,.12-.68,1.87,1.87,0,0,0,0,.45v.21Z"/><path class="cls-6" d="M21.62,40.79l-.05-.12s0,0,0-.06v0a.83.83,0,0,1,0-.27.06.06,0,0,1,0,0,.14.14,0,0,1,0-.07v0a.41.41,0,0,1,0-.08c0-.1.12-.25.27-.54v0h0l0-.08a2.4,2.4,0,0,1-.11.23,2.92,2.92,0,0,1-.21.32l-.07.1-.17.22-.1.11a1.62,1.62,0,0,1-.18.2L21,40.7l-.22.2a7.23,7.23,0,0,1-1.25.87,12.63,12.63,0,0,1-5.27,1.42H12.83l-.34,0H12.4l-.65-.06-.16,0L11,43l-.11,0-.58-.11-.16,0-.56-.14-.16,0-.49-.15-.06,0-.11,0-.53-.2-.06,0-.07,0L7.63,42l-.13-.07h0L7,41.64a3.28,3.28,0,0,1-.31-.2l0,0-.05,0-.21-.15h0l-.09-.07L6.05,41,6,41l-.24-.22-.06-.06-.16-.17-.07-.07-.14-.17-.05-.07a3.23,3.23,0,0,1-.34-.51,1.55,1.55,0,0,1-.12-.22.54.54,0,0,0,.07.13v0a4.42,4.42,0,0,1,.34.74s0,.07,0,.1v.15a.94.94,0,0,1,0,.16l0,.05h0l0,.06L5.08,41c.06.11.12.22.19.33h0a3.9,3.9,0,0,0,.36.5l0,0h0L5.8,42l0,0,0,0,.05,0,.11.1.06,0a.12.12,0,0,0,0,.05h0l0,0,0,0,.07.06,0,0,0,0,.07,0,0,0,.05,0,.06,0,0,0,.07.05.12.09.05,0,0,0,0,0,0,0h0l.24.14.31.18h0l0,0h0l0,0h.06l.07,0,.06,0,0,0,0,0,.06,0,0,0H8l.06,0,.05,0,0,0,0,0h.06l.08,0,.05,0h.05l.06,0,.05,0h0l0,0,0,0,.09,0h0l0,0h0l.06,0,0,0h0l.08,0,.05,0h.1l.09,0h.12l.06,0,.11,0,.07,0,0,0h.13l.09,0h.09l.08,0h.09l.1,0,.1,0h.35l.09,0h.07l.1,0,.15,0h.2l.12,0,.14,0h3l.36,0H15l.15,0,.38,0h.08a14.38,14.38,0,0,0,1.48-.31h0l.06,0,.54-.16.05,0h0l.1,0,.26-.1.13,0,.07,0,.07,0h0l.11,0,.15-.06.15-.07.06,0,.07,0,0,0h0l0,0,.36-.18c.14-.08.28-.16.41-.25h0l.07-.05.3-.2.12-.09.21-.17.12-.1.18-.16v0h0l0,0,.08-.09a.93.93,0,0,0,.14-.14l.06-.07.06-.07.13-.16.06-.08,0,0,.12-.19,0,0h0l0,0,0,0v0l0,0,.13-.25s0-.05-.05-.07v0S21.63,40.81,21.62,40.79Z"/><path class="cls-6" d="M4.93,39.68a1.55,1.55,0,0,1-.12-.22l0-.06a1.43,1.43,0,0,1,0-.62,1.29,1.29,0,0,0,0-.61l0,.06c.17.47,0,1,.18,1.45Z"/><path class="cls-7" d="M4.73,38.17a1.18,1.18,0,0,1,0,.61,1.27,1.27,0,0,0,0,.68c-.22-.45,0-1.15-.2-1.51a1.19,1.19,0,0,0,.12.22Z"/><path class="cls-6" d="M4.81,39.46c-.22-.45,0-1.15-.2-1.51a1.19,1.19,0,0,0,.12.22l0,0c.12.41-.13.84.06,1.24Z"/><path class="cls-6" d="M22,39.41a1.27,1.27,0,0,0,.05-.68,1.08,1.08,0,0,1,0-.61l.12-.22c-.21.36,0,1.06-.2,1.51Z"/><path class="cls-6" d="M21.85,39.64c.21-.45,0-1.16.19-1.52l0,.05c-.13.41.13.84-.06,1.24a2.4,2.4,0,0,1-.11.23Z"/><path class="cls-6" d="M2.1,48.84V47.51c0,1.62,1,3.25,3.15,4.51,4.32,2.61,11.48,2.68,16,.16,2.32-1.29,3.48-3,3.48-4.74v1.34c0,1.72-1.16,3.45-3.48,4.74C16.73,56,9.58,56,5.25,53.36,3.15,52.1,2.11,50.47,2.1,48.84Z"/><path class="cls-6" d="M5.66,48.71C2.74,46.9,1.71,44.4,2.84,41.84c-1,2.09-.12,4.42,2.65,6.09,4.19,2.52,11.13,2.59,15.49.15,3-1.68,4-4.12,3-6.3,1.39,3.1-.4,6.09-4.65,7.8a17.37,17.37,0,0,1-11.75,0,11.14,11.14,0,0,1-1.88-.9Z"/><path class="cls-6" d="M4.93,39.68c-.22-.44,0-1.15-.2-1.51a5.67,5.67,0,0,0,2.08,2,14.2,14.2,0,0,0,12.87.13A6,6,0,0,0,22,38.12c-.2.36,0,1.07-.19,1.52a5.81,5.81,0,0,1-2.31,2.13A13.84,13.84,0,0,1,7,41.64,5.48,5.48,0,0,1,4.93,39.68Z"/><path class="cls-5" d="M5.24,52l-.45-.29.21,0a.68.68,0,0,0,.24-.12c.09-.09.23-.12.32-.22a1,1,0,0,0,.15-.35,2,2,0,0,0,0-.66,2.38,2.38,0,0,0-.05-.26v0c0-.2,0-.43-.15-.59l.31.19a12,12,0,0,0,2.32,1s-.08,0-.11,0A1.87,1.87,0,0,0,7.59,52c0,.12,0,.45.54,1.12l.23.19A13.27,13.27,0,0,1,5.24,52Z"/><path class="cls-8" d="M18.58,51.83c0,.46-.57.81-1.56,1.05,0,0-1.21.25-1.57-.27s.33-.89.43-1a5,5,0,0,1,1.93-.45c.74.13.79.48.77.62Z"/><path class="cls-5" d="M5.46,47.91l1.68-4.84h0a9.89,9.89,0,0,0,1.8.83L7.77,49a12.18,12.18,0,0,1-2.28-1l0,0Z"/><path class="cls-8" d="M17.46,44c-.16.06-.33.1-.5.15a14.22,14.22,0,0,1-1.5.31L16,49.67a15,15,0,0,0,1.91-.39c.22-.05.43-.12.64-.18Z"/><path class="cls-1" d="M11,43.31c0,.08-.4.21-1.22.22l-1.07.06a.1.1,0,0,0,0,.09c0,.11.22.18.32.24l0,0a9.69,9.69,0,0,1-1.93-.87l-.23-.15L7.2,43c.26.12.26.12.45.1-.39-.58-1-1-1.36-1.56S6,41,6,40.94a6.83,6.83,0,0,0,1,.7A11,11,0,0,0,10.69,43l.17.09s.22.13.18.23Z"/><path class="cls-1" d="M4.78,53.06V51.72l.47.3a13,13,0,0,0,3.14,1.33v1.34a13.17,13.17,0,0,1-3.13-1.33l-.47-.3Z"/><path class="cls-1" d="M20.81,48.87a11.84,11.84,0,0,1-1.52.71,17.43,17.43,0,0,1-11.75,0l-.63-.25a13.13,13.13,0,0,1-1.26-.65l-.47-.31a6.66,6.66,0,0,1-.89-.7L4,47.39l-.13-.14.06.06a3.59,3.59,0,0,0,1.79.84L5.6,48a12.79,12.79,0,0,0,2.15,1l-.08,0c1.76,1.75,8.86,2.69,14-.63l-.48.31-.34.2Z"/><path class="cls-1" d="M10.41,41.56c-1.16-.09-1.51.15-1,.7a3.48,3.48,0,0,0,1.32.72A11,11,0,0,1,7,41.64a6.83,6.83,0,0,1-1-.7l.07,0c.93.17.57-.48.38-.77a9.28,9.28,0,0,0-.75-.84,7.34,7.34,0,0,0,1.13.83A11.52,11.52,0,0,0,11,41.61l-.62,0Z"/><path class="cls-9" d="M20,32.85h0c3.48,2.1,3.36,5.43-.27,7.46a14.2,14.2,0,0,1-12.87-.13c-3.48-2.1-3.36-5.43.27-7.46A14.2,14.2,0,0,1,20,32.85Z"/><path class="cls-1" d="M17.66,36.69a36.06,36.06,0,0,0,1.58-17.64c-1.72-9.2-4.41-10.43-4.41-10.43l-1.94-4s0-.89-1.71-2.82S8,0,8,0s-.65,1.54,2.48,5.5a2.24,2.24,0,0,0-2.14-.12C8,5.57,4.34,7.49,4,8c-.58.92-.44,1.14-.12,1.11a.35.35,0,0,0-.23.18c-.14.34.47,1.59.53,2.14a12.32,12.32,0,0,0,.7,2.09l1.28-.08V16l2,2,2-2c1.48,1.3,2.33,1.22,3,1.8,2.83,3.37.14,4.32-.79,5S8.75,24.65,8.25,25c0,0-3.78,2.12-3.78,2.19.28,1.47,9.42,11.66,9.42,11.66l1.36-.57ZM4.82,8.82a1.35,1.35,0,0,1-.67.25C4.57,8.94,5,8.65,4.82,8.82Z"/><path class="cls-6" d="M4.26,2.18s1.19-.8,3.2.47A11.19,11.19,0,0,1,10.52,5.5,1.27,1.27,0,0,1,9.11,6.78C7.64,6.83,4.26,2.18,4.26,2.18Z"/><path class="cls-10" d="M13.89,38.87,5.4,34S4,27.58,4.47,27.21,7.75,25.72,8.68,25s3.62-1.66.79-5c-.71-.58-1.54-1.24-3-2.53L6,17.84l-.27.2L4.17,19.19l-1.8-1v-2.5l-1.65.52A12.51,12.51,0,0,1,0,14.09,6.66,6.66,0,0,1,.14,12l0,0c.12-.18.57-.28,1.33-.94h0s0,0,0,0,.21-.18.32-.29h0l.32-.33h0A14.87,14.87,0,0,0,3.51,8.62a2.27,2.27,0,0,1,3-1.08c-.62-.39-2.1-1.67-2.2-5.36,0,0,1.07-.05,2.78,1.89A13.54,13.54,0,0,1,9.11,6.78l1.94,4S13.74,12,15.46,21.23A36.25,36.25,0,0,1,13.89,38.87Z"/><path class="cls-1" d="M9.5,25.74s-4.75,1.77-5,1.47C5,26.83,7.75,25.72,8.68,25s3.62-1.66.79-5c-.71-.58-1.54-1.24-3-2.53a5.51,5.51,0,0,1,4,2.46C12.33,22.4,12,23.84,9.5,25.74Z"/><path class="cls-1" d="M22.74,19.72C20.13,9,12.89,4.6,12.89,4.6L9.11,6.78a18.42,18.42,0,0,1,9.56,12.79,77.3,77.3,0,0,1,.39,21l1.85-1.19A31.52,31.52,0,0,0,22.74,19.72Z"/><path class="cls-11" d="M20.89,20.91A20.59,20.59,0,0,0,9.11,6.78l1.94,4s4,.76,5.76,10a36.27,36.27,0,0,1-1.57,17.64l3.82,2.2A31.52,31.52,0,0,0,20.89,20.91Z"/><path class="cls-1" d="M4.59,9.83c-.65.1-1.43.15-1.27.94,0,.15.23.17.55.21a1.06,1.06,0,0,0,.54-.08,1.4,1.4,0,0,0,.7-1l-.52-.11Z"/><path class="cls-4" d="M4.61,10.15l-.11.1v.08a.36.36,0,0,1-.17.25.61.61,0,0,0-.16.21h0a.43.43,0,0,0,.42-.21c.19-.29,0-.44,0-.44Z"/><path class="cls-12" d="M4.44,9.75a1.18,1.18,0,0,0-1.07.54A2.2,2.2,0,0,1,5,10.14a2.28,2.28,0,0,1,.41.2A1.44,1.44,0,0,0,4.44,9.75Z"/><path class="cls-8" d="M22.46,36.52a3.78,3.78,0,0,1-.35,1.71A5,5,0,0,1,21,39.65,8.39,8.39,0,0,1,18,41.36a13.37,13.37,0,0,1-3.48.55A16.31,16.31,0,0,1,11,41.59a26.79,26.79,0,0,0,3.47,0A14.63,14.63,0,0,0,17.82,41a8.24,8.24,0,0,0,3-1.56A4.24,4.24,0,0,0,22.46,36.52Z"/><path class="cls-12" d="M8.89,14.05a4,4,0,0,0-3-2.18C3.81,11.75,3.78,13,3.62,13.21S4,11.15,8.89,14.05Z"/><path class="cls-13" d="M9.64,4.45c-.39-.33-.78-.66-1.2-1A10.13,10.13,0,0,0,7.15,2.7a4.9,4.9,0,0,0-1.41-.48,2.23,2.23,0,0,0-1.37.13l.09-.15a9.61,9.61,0,0,0,.1,1.4A8.28,8.28,0,0,0,4.89,5a6.7,6.7,0,0,0,.58,1.28,5.79,5.79,0,0,0,.86,1.11l.3.32-.42-.1a2.72,2.72,0,0,0-1.33,0,2.11,2.11,0,0,0-1.12.77,2.17,2.17,0,0,1,.45-.55,2,2,0,0,1,.62-.36,2.74,2.74,0,0,1,1.45-.11l-.12.22a6.15,6.15,0,0,1-1-1.12,6.63,6.63,0,0,1-.65-1.34,7.78,7.78,0,0,1-.46-2.92V2.06l.09,0A2.47,2.47,0,0,1,5.8,1.87a4.53,4.53,0,0,1,1.48.58,7.55,7.55,0,0,1,1.27.91A11.21,11.21,0,0,1,9.64,4.45Z"/><path class="cls-8" d="M9.56,5.86A5.54,5.54,0,0,0,5.68,2.71c-.7-.18.1,1.8.82,2.75A3.76,3.76,0,0,0,8.36,6.85C8.61,6.88,10.08,6.66,9.56,5.86Z"/><path class="cls-8" d="M8.51.46s-.11.71,1,2.24,1.93,2.59,1.93,2.59a3,3,0,0,0,1.09-.12,1.1,1.1,0,0,0,.37-.57S11.4,1,8.51.46Z"/><path class="cls-8" d="M10.38,9.42c.39,1.26,1.45,2.09,2.15,3.18A21.73,21.73,0,0,1,14.36,16a25.28,25.28,0,0,1,1.7,7.57,37.2,37.2,0,0,1-.36,7.75,50.84,50.84,0,0,1-1.81,7.52c.28-1.26.64-2.5.85-3.77.12-.63.28-1.25.37-1.89l.28-1.91a38.58,38.58,0,0,0,.25-7.67,25.23,25.23,0,0,0-1.58-7.48,21.56,21.56,0,0,0-1.7-3.44c-.35-.53-.7-1.07-1.1-1.57A5.1,5.1,0,0,1,10.38,9.42Z"/><path class="cls-5" d="M6,17.84l-.27.2L4.17,19.19l-1.8-1v-2.5l-1.65.52A12.51,12.51,0,0,1,0,14.09,6.66,6.66,0,0,1,.14,12l0,0c.12-.18.57-.28,1.33-.94h0s0,0,0,0,.21-.18.32-.29a6,6,0,0,0,.32,2.05,3.34,3.34,0,0,0,1.44,2.3A14.33,14.33,0,0,1,6,17.84Z"/><path class="cls-14" d="M.88,11.88a2.37,2.37,0,0,0-.44.18.7.7,0,0,0-.23.44.56.56,0,0,0,.11.43c0,.05.15.05.26,0a.69.69,0,0,0,.31-.15c.29-.27.48-.61.38-.82s-.22-.13-.39-.1Z"/></g></g></svg>