<svg xmlns="http://www.w3.org/2000/svg" viewBox="0 0 19.81 42.55"><defs><style>.cls-1{fill:#aeb1b3;}.cls-2{fill:#d2d5d6;}.cls-3{fill:#babdbd;}.cls-4{fill:#c0c3c4;}.cls-5{fill:#e6eaeb;}.cls-6{fill:#f5f9fa;}.cls-7{fill:#cdd0d1;}.cls-8{fill:#d6d6d6;}.cls-9{fill:#fff;}.cls-10{fill:#d4d8d9;}.cls-11{fill:#ebebeb;}.cls-12{fill:#f7fafb;}</style></defs><g id="Capa_2" data-name="Capa 2"><g id="layer"><path class="cls-1" d="M19.8,35.45a5.46,5.46,0,0,0,0-.57,3.38,3.38,0,0,0-.09-.41v-.06s0,0,0-.07l0-.06c0-.13-.09-.27-.13-.38l-.17-.35s0,0,0-.08a3.77,3.77,0,0,0-.1-1.09,2.54,2.54,0,0,0-.1-.37,5.49,5.49,0,0,0-.21-.51,1.48,1.48,0,0,1,.1.27,4.24,4.24,0,0,0-1-1.51L16.73,29v0a3.24,3.24,0,0,0,0-.43,3.42,3.42,0,0,0-.44-1.31,3.84,3.84,0,0,0-.55-.74c-.08-.09-.19-.19-.3-.29l0,0-.22-.2.12.12a3.3,3.3,0,0,0-.3-.22,54,54,0,0,1-1.24-8.86L14,17l.09,0,.11-.05.19-.09h0l.21-.11h0l0,0,.3-.18,0,0,.05,0h0l.2-.14h0l.13-.11h0l0,0,.08-.08.24-.2,0,0,.06-.06.1-.1.09-.1h0l0,0,0,0,.24-.3h0l.16-.24,0-.06v0a4,4,0,0,0,.21-.41h0l.07-.2a.05.05,0,0,1,0,0,.19.19,0,0,1,0-.07v0A3.77,3.77,0,0,0,17,13.5a.13.13,0,0,1,0-.06.34.34,0,0,1,0-.1v-.28a3.28,3.28,0,0,0,0-.34.09.09,0,0,1,0-.05h0v0a1.94,1.94,0,0,0-.05-.2c0-.22-.1-.4-.13-.52l0-.07v0l-.11-.28,0,0c-.06-.14-.11-.26-.15-.34l0,0h0A3.83,3.83,0,0,0,15.19,9.7l.09-.14,0-.05c0-.07.08-.16.13-.24l.12-.22c0-.07,0-.13.08-.19l.09-.2,0-.12a1.59,1.59,0,0,0,.07-.2l.05-.14s0,0,0,0a7,7,0,0,0,.23-.94,6.26,6.26,0,0,0,0-1.77,6.47,6.47,0,0,0-.28-1.23,5.39,5.39,0,0,0-.31-.75,6.2,6.2,0,0,0-1-1.51,7.14,7.14,0,0,0-.71-.66c-.2-.16-.48-.34-.69-.48A6,6,0,0,0,12,.38a5,5,0,0,0-.63-.2l-.6-.11a6.67,6.67,0,0,0-2,0,.29.29,0,0,0,.1,0h0L8.48.15l-.3.08-.34.1-.26.1H7.52L7.13.62,6.79.8l-.08,0h0L6.55,1l-.22.13-.12.09-.13.09L6,1.32l-.15.13a2.76,2.76,0,0,0-.25.21l-.11.1-.06.06c-.1.1-.18.19-.25.25s-.26.3-.47.6l0,.06-.12.18-.1.15,0,.06a3.68,3.68,0,0,0-.23.42s0,0,0,0l0,.08L4,4,4,4.1c0,.08-.05.14-.07.21l-.06.17s0,0,0,.09a5.64,5.64,0,0,0-.17.76c0,.15,0,.31-.06.46V6c0,.08,0,.17,0,.25v.13c0,.22,0,.43,0,.57s0,.35.07.49.12.52.18.74.1.3.16.46H4v0L4.13,9l.09.17.13.26.07.12.06.1-.06,0-.31.28-.31.34-.24.31c-.1.16-.21.37-.3.53h0a2.78,2.78,0,0,0-.12.26l-.06.14-.1.25,0,.1,0,.06v0a.06.06,0,0,1,0,0c0,.06,0,.11-.06.19v0a.64.64,0,0,0,0,.07l0,.16h0l0,.24v0h0s0,0,0,.06,0,.16,0,.23v.38q0,.09,0,.21v.06a.09.09,0,0,1,0,.05.44.44,0,0,1,0,.1v0l0,.06h0a.07.07,0,0,0,0,.05c0,.06,0,.11,0,.16s0,0,0,.07a2.34,2.34,0,0,0,.09.24l0,.09,0,.06v0l0,0a1.09,1.09,0,0,0,.08.15l.05.09,0,0a3.28,3.28,0,0,0,.21.31h0v0l.21.24,0,0h0l0,0h0c.09.11.23.23.33.33l.27.21,0,0,0,0h0l.38.25.13.09c.09.05.27.16.53.29l.24.11.14.06.13.05a55.06,55.06,0,0,1-1.19,8.87l-.24.16L4.58,26l-.1.09-.06.05-.31.29-.24.27a4.2,4.2,0,0,0-.39.56,3.46,3.46,0,0,0-.43,1.31c0,.12,0,.24,0,.36l-.09.1-.24.24-.12.13-.25.24-.24.25L2,30.05l-.24.25a4.45,4.45,0,0,0-1,1.47,2,2,0,0,1,.09-.22c0,.1-.1.23-.15.35v0a.69.69,0,0,0,0,.13,2,2,0,0,0-.09.35,3.21,3.21,0,0,0-.1.83,1.82,1.82,0,0,0,0,.33v.06c-.11.23-.22.5-.3.72a4.06,4.06,0,0,0-.14.71c0,.13,0,.31,0,.45A4.55,4.55,0,0,0,0,36a4.55,4.55,0,0,1,0-.53v1.34a4.17,4.17,0,0,0,1.49,3h0l0,0a8.2,8.2,0,0,0,.75.6s0,0,.08.06l.41.26a10.58,10.58,0,0,0,1.43.71l.51.17a8.46,8.46,0,0,0,.8.28l.29.07.6.14.61.14v0a15.46,15.46,0,0,0,9.76-1.34c2-1.13,3-2.64,3-4.15Z"/><path class="cls-2" d="M3.22,31a12.25,12.25,0,0,1,3.27-1.21,16.13,16.13,0,0,1,3.61-.37,15.61,15.61,0,0,1,3.57.44l.68.19.66.22c.19.06.44.17.63.25a9.55,9.55,0,0,1,1.23.63c-.43-.26-1.49.31-1.56.35a11.65,11.65,0,0,0-10.6-.11c-3,1.66-3.09,4.41-.22,6.14a11.68,11.68,0,0,0,10.6.1c3-1.66,3.08-4.41.22-6.13.07,0,1.13-.61,1.56-.35.16.1.38.23.53.34s.58.45.81.66A5.88,5.88,0,0,1,19,33a5,5,0,0,1,.31.49,8.1,8.1,0,0,1,.37.87,5.23,5.23,0,0,1,.12.54,5.46,5.46,0,0,1,0,.57c0,1.51-1,3-3,4.16-4,2.2-10.22,2.13-14-.14C.92,38.36,0,36.94,0,35.51c0-.14,0-.32,0-.45a4.06,4.06,0,0,1,.14-.71,6.74,6.74,0,0,1,.38-.87A5.43,5.43,0,0,1,.87,33a3.4,3.4,0,0,1,.38-.47c.24-.24.57-.54.83-.76A9,9,0,0,1,3.22,31Z"/><path class="cls-3" d="M16.87,31.13c.28.17.64.43.91.62l.43.38c.13.13.31.3.43.44L19,33c.1.15.23.34.31.49l.21.43a4.88,4.88,0,0,1,.18.54l.1.44c0,.17,0,.4,0,.57a3.5,3.5,0,0,1-.19,1.14h0c.08-.41.06-.49,0-.51s-.3.22-.4.34a10.61,10.61,0,0,1-5.52,3.3,25.35,25.35,0,0,1-6.62.74,2.8,2.8,0,0,0-.5.06s-.11.06-.11.11.08.12.5.34a12.55,12.55,0,0,1-4.24-1.5,7.37,7.37,0,0,1-1.28-1l.07.05c.11,0,.33.18.38.08s-.18-.32-.28-.44c-3-3.85-.06-6.24,1.35-7.09.24-.14.57-.31.82-.43l.65-.29.65-.24.68-.21.69-.17.71-.14.72-.11.72-.07.73,0h.73l.72,0,.73.06.71.09.71.12.7.15.68.19.66.22c.19.08.46.17.65.26l.6.28.61.34c-.43-.26-1.49.31-1.56.35a11.65,11.65,0,0,0-10.6-.11c-3,1.66-3.09,4.41-.22,6.14a11.68,11.68,0,0,0,10.6.1c3-1.66,3.08-4.41.22-6.13.07,0,1.13-.61,1.56-.35Z"/><path class="cls-4" d="M16.94,12.62a5.44,5.44,0,0,0-.22-.83c-.09-.24-.26-.6-.32-.72a4.17,4.17,0,0,0-1.64-1.66,6.25,6.25,0,0,0-.63-.33,10.77,10.77,0,0,0-9,.23,4.34,4.34,0,0,0-1.85,1.8,6.31,6.31,0,0,0-.35.84,3.89,3.89,0,0,0-.19.84,3.26,3.26,0,0,0,0,.93,3.41,3.41,0,0,0,.25.82,3.7,3.7,0,0,0,.43.73,3.52,3.52,0,0,0,.31.35,6.64,6.64,0,0,0,.63.56,5.35,5.35,0,0,0,1,.61,8.45,8.45,0,0,0,.91.4,9.88,9.88,0,0,0,1.95.48c.47.06.73.09,1,.1a9.74,9.74,0,0,0,1.53,0,10.48,10.48,0,0,0,2-.34,9.46,9.46,0,0,0,.95-.32,6.22,6.22,0,0,0,.9-.43,5.57,5.57,0,0,0,.79-.52,4.43,4.43,0,0,0,.66-.6,3.76,3.76,0,0,0,.8-1.33c0-.07.06-.21.1-.38s0-.25.06-.39A4.91,4.91,0,0,0,16.94,12.62Z"/><path class="cls-3" d="M14.32,12.16a2.29,2.29,0,0,0-.52-2.62c-1.24-1.36,1.49.55,1.49.55a2.24,2.24,0,0,1,.89,1.9c-.12,1.19-.29,1.31-.29,1.31Z"/><path class="cls-5" d="M17,13.44q0,.21-.06.39l-.79-.14-.27-1a2.47,2.47,0,0,0-1.16-2.81,1.38,1.38,0,0,1-.56-.75,6.25,6.25,0,0,1,.63.33,4.17,4.17,0,0,1,1.64,1.66c.06.12.23.48.32.72a5.44,5.44,0,0,1,.22.83A4.91,4.91,0,0,1,17,13.44Z"/><path class="cls-5" d="M15.9,31.24l0,0Zm0-.07,0,0ZM16,31.1l0,0Zm.05-.07,0,0Zm0-.07,0,0Zm0-.07,0-.05Zm0-.08,0,0Zm0-.07,0,0Zm0-.07,0-.05Zm0-.08,0-.05Zm0-.07,0-.07Zm0-.08,0-.07Zm0-.09,0-.05Zm0-.08,0-.05Zm0-.08v0Zm0-.07v0Zm0-.08v0Zm0-.07v0Zm0-.08v0Zm0-.07v0Zm1.57.44L16.73,29A3.4,3.4,0,0,1,16.55,30a4.06,4.06,0,0,1-.71,1.27h0l0,0-.06.07h0l0,0a5.14,5.14,0,0,1-1.34,1.06,10.26,10.26,0,0,1-9.3-.09C3.58,31.42,3,30.14,3.45,29c0-.1-.06-.2-.08-.3l-.05.05-.12.12L3,29.07l-.24.24-.12.13-.25.24-.24.25L2,30.05l-.24.25c-2,2-1.56,4.67,1.38,6.45a14.62,14.62,0,0,0,13.25.13C19.56,35.11,20.12,32.36,18,30.26Zm-2.19,1h0l0,0Zm.48-2.39,0,0Zm0,.08v0Zm0,.07v0Zm0,.07v0Zm0,.08v0Zm0,.07v0Zm0,.08v0Zm0,.07a.22.22,0,0,1,0,.08A.22.22,0,0,0,16.44,29.44Zm0,.1v0Zm0,.08v0Zm0,.08v0Z"/><path class="cls-6" d="M13.47,32.9a5.05,5.05,0,0,1-.55.18,9.25,9.25,0,0,1-1.58.34L12,38.27a15,15,0,0,0,2.25-.49c.27-.08.53-.16.78-.26Z"/><path class="cls-7" d="M0,36.85V35.51c0,1.43.92,2.85,2.76,4,3.78,2.27,10.05,2.34,14,.14,2-1.14,3-2.65,3-4.16v1.34c0,1.51-1,3-3,4.15-4,2.2-10.21,2.14-14-.14C.92,39.7,0,38.27,0,36.85Z"/><path class="cls-7" d="M3.29,37.53c-.24-.15-.56-.37-.79-.54a8.14,8.14,0,0,1-.67-.6l-.25-.27a5.55,5.55,0,0,1-.35-.46,4.89,4.89,0,0,1-.49-.91,4.52,4.52,0,0,1-.2-.68,4.29,4.29,0,0,1-.07-.5,1.82,1.82,0,0,1,0-.33,3.21,3.21,0,0,1,.1-.83,2,2,0,0,1,.09-.35c.06-.15.14-.36.21-.51-.85,1.78-.1,3.77,2.27,5.2a14.62,14.62,0,0,0,13.25.13c2.58-1.44,3.44-3.52,2.54-5.38a5.49,5.49,0,0,1,.21.51,2.54,2.54,0,0,1,.1.37,3.77,3.77,0,0,1,.1,1.09,4.17,4.17,0,0,1-.58,1.86,5.88,5.88,0,0,1-1.58,1.72,8.44,8.44,0,0,1-1,.61,5,5,0,0,1-.51.27c-.24.11-.56.25-.8.34a14.77,14.77,0,0,1-10,0c-.32-.13-.74-.31-1.05-.46Z"/><path class="cls-5" d="M4,31.44a4.23,4.23,0,0,1-.79-1.36,3.54,3.54,0,0,1-.17-1.47,3.46,3.46,0,0,1,.43-1.31,4.2,4.2,0,0,1,.39-.56l.24-.27L4.58,26c-1.82,1.46-1.64,3.51.58,4.84a10.19,10.19,0,0,0,9.25.1c2.39-1.34,2.66-3.46.76-5a6.64,6.64,0,0,1,.55.51,3.84,3.84,0,0,1,.55.74,3.42,3.42,0,0,1,.44,1.31A3.26,3.26,0,0,1,16.57,30a4.17,4.17,0,0,1-.81,1.43,4.94,4.94,0,0,1-1.32,1,10.26,10.26,0,0,1-9.3-.09A4.86,4.86,0,0,1,4,31.44Z"/><path class="cls-3" d="M14.6,25.62l-.58.46c2.19,1.32-5.14-1.09-3.51-1l.08-.6a9.81,9.81,0,0,0-5.24,1,4.31,4.31,0,0,0-1.53,1.32c-.94,1.34-.5,2.93,1.34,4a10.19,10.19,0,0,0,9.25.1C17,29.52,17.1,27.13,14.6,25.62Z"/><path class="cls-8" d="M13.4,7.39l-3.58.76,3.58-.76c1.89,1.14,1.83,3-.15,4.05a7.71,7.71,0,0,1-7-.07c-1.89-1.14-1.82-2.95.15-4A7.71,7.71,0,0,1,13.4,7.39Z"/><path class="cls-9" d="M14.81,40.29a8.79,8.79,0,0,1-3.79.64c.05,0,.1-.12.16-.14l.11,0,.69-.12s1.87-.37,2.61-.56c.57-.15.57-.15.74-.07l-.52.27Z"/><path class="cls-1" d="M7,41a14.84,14.84,0,0,1-1.5-.34,11.47,11.47,0,0,1-2.74-1.16l-.42-.27a8.89,8.89,0,0,1-.86-.68v1.33a6.83,6.83,0,0,0,.86.69l.41.26A11.41,11.41,0,0,0,5.5,42a14.86,14.86,0,0,0,1.5.35Z"/><path class="cls-3" d="M1.87,35.8l2.39-4.11a5.49,5.49,0,0,0,.57.47l-2.14,4.3a6.22,6.22,0,0,1-.82-.66Z"/><path class="cls-3" d="M2.69,36.46l2.14-4.3.31.2A7.5,7.5,0,0,0,6.63,33L5.25,37.7a10.75,10.75,0,0,1-2.12-1l-.44-.29Z"/><path class="cls-3" d="M5.25,37.7,6.63,33a10.71,10.71,0,0,0,1.18.3l-.88,4.8a12.91,12.91,0,0,1-1.68-.43Z"/><path class="cls-3" d="M5.14,32.36a4.79,4.79,0,0,1-1-.81v0a1.89,1.89,0,0,0,1-.17s0,0-.53-.89a5.14,5.14,0,0,0,.54.37,7.34,7.34,0,0,0,1.61.71c-.41.17-.56.23-.39.47A3.91,3.91,0,0,0,8,33.2,4.52,4.52,0,0,0,9,33.48l.1,0a9.16,9.16,0,0,1-4-1.14Z"/><path class="cls-5" d="M4.15,28.41A53.56,53.56,0,0,0,6,14.61a1.88,1.88,0,0,0,1.07,1.53,6,6,0,0,0,5.41.06,2,2,0,0,0,1.18-1.61,53.33,53.33,0,0,0,1.94,13.78,2.89,2.89,0,0,1-1.76,2.41,9,9,0,0,1-8.11-.08A2.81,2.81,0,0,1,4.15,28.41Z"/><path class="cls-6" d="M10.07,31.71s.28-6.88.43-9.23,1.09-6,1.5-3.14S13.3,29,13.85,30.78A8,8,0,0,1,10.07,31.71Z"/><path class="cls-3" d="M8.7,17.64C8.5,26,8,31.21,7.93,31.43c0,0,0,.07,0,.09a7.25,7.25,0,0,1-2.19-.82c-.18-.12-.35-.23-.5-.35h0A71.68,71.68,0,0,0,6.58,15.77a2.82,2.82,0,0,0,.5.37,4.7,4.7,0,0,0,1.64.58c0,.28,0,.64,0,.92Z"/><path class="cls-3" d="M4.91,16.56l-.51-.34L4.06,16c-.1-.1-.24-.22-.33-.33A3.22,3.22,0,0,1,3.21,15a3.29,3.29,0,0,1-.35-.74,3.24,3.24,0,0,1-.13-1.49,5.22,5.22,0,0,1,.53-1.61,2.38,2.38,0,0,0,0,2.2,4.21,4.21,0,0,0,1.62,1.6,10.62,10.62,0,0,0,9.65.09,4.25,4.25,0,0,0,1.82-1.73,2.35,2.35,0,0,0,0-2.2c.15.32.25.53.36.83a4.21,4.21,0,0,1,.18.77,3.39,3.39,0,0,1-.1,1.44,3.74,3.74,0,0,1-.33.75,4.68,4.68,0,0,1-.45.62,5.27,5.27,0,0,1-.66.63,6.72,6.72,0,0,1-.81.53,6,6,0,0,1-.91.44c-.41.17-.78.27-1,.33a10.83,10.83,0,0,1-2,.34l-.51,0H9.7l-.51,0a8.46,8.46,0,0,1-1-.1,9.28,9.28,0,0,1-1.94-.48A7.94,7.94,0,0,1,4.91,16.56Z"/><path class="cls-3" d="M3.29,13.31a2.38,2.38,0,0,1,0-2.2c.43-.9,1.58-.28,2.08-.44l-.08.21a1.53,1.53,0,0,0,.13,1.28c-.49.35-1.66.09-2.1,1.15Z"/><path class="cls-3" d="M3.26,11.11c.09-.16.2-.37.3-.53l.24-.31.31-.34.31-.28.14-.1.35-.26.41-.24.41-.21.44-.2.44-.16.46-.14.47-.12L8,8.13l.49-.07L9,8l.49,0H10l.49,0,.48,0,.49.06.48.08.47.1.46.13.45.15.44.17.41.2.41.23c-.43-.26-1.16.51-1.43.35l-.26-.15-.28-.13-.3-.12L12,9l-.32-.09-.33-.07L11,8.78l-.35,0-.35,0H9.57l-.35,0-.35,0-.27,0h0c-.63.12-2.57.49-3.32,1.9-.54.05-1.57-.43-2,.41Z"/><path class="cls-3" d="M16.38,13.27A4.25,4.25,0,0,1,14.56,15a10.62,10.62,0,0,1-9.65-.09,4.21,4.21,0,0,1-1.62-1.6c.44-1.06,1.61-.8,2.1-1.15l.09.14C6.12,13,6.6,13,6.61,13a11.83,11.83,0,0,0-.94-2,3.23,3.23,0,0,0,.58.43,6.38,6.38,0,0,0,2.2.77l-.07.3a1.09,1.09,0,0,1-.54.76c-.07.05-.2.11-.21.19-.13.79,3.61,1.36,5.75-.11a2.27,2.27,0,0,0,.94-1.12l.14.07a7.72,7.72,0,0,1,1.33.37,1.33,1.33,0,0,1,.59.67Z"/><path class="cls-5" d="M3.29,13.31a2.38,2.38,0,0,1,0-2.2.78.78,0,0,1,.48-.44l-.11.27a2.49,2.49,0,0,0,.09,1.81,1.33,1.33,0,0,0-.43.56Z"/><path class="cls-10" d="M5.13,15.61c-.24.43-1,.41-1.44,0l-.25-.3A3.88,3.88,0,0,1,3.21,15L3,14.63c0-.12-.13-.29-.17-.42l-.09-.34-.07-.49v-.33c0-.18,0-.42.07-.6l.07-.27a5.83,5.83,0,0,1,.42-1.07,2.38,2.38,0,0,0,0,2.2,4.21,4.21,0,0,0,1.62,1.6l.28.16,0,.26a.54.54,0,0,1-.08.28Z"/><path class="cls-10" d="M16.85,12.5a2.39,2.39,0,0,1,.1,1.09l-.06.34-.05.18-.12.34c-.06.12-.14.29-.21.41l-.21.32c-.09.11-.2.26-.29.36l-.29.29c-.11.09-.25.22-.37.31L15,16.4h0l-.05,0c-3.83,2.28-9.11,1.19-8.89-.66a1.4,1.4,0,0,1,.09-.29A10.87,10.87,0,0,0,14.56,15a4.25,4.25,0,0,0,1.82-1.73,2.5,2.5,0,0,0,.28-1.21l.09.19.1.25Z"/><path class="cls-5" d="M4.91,14.91a4.21,4.21,0,0,1-1.62-1.6,1.33,1.33,0,0,1,.43-.56l.09.21a3.24,3.24,0,0,0,.3.55,3.13,3.13,0,0,0,.2.3c.16.24.37.44.53.68s.22.42.35.58l-.28-.16Z"/><path class="cls-5" d="M16.38,13.27A4.25,4.25,0,0,1,14.56,15a10.87,10.87,0,0,1-8.44.49l.29-.16a2.51,2.51,0,0,1,1-.17c2,.06,6.24.2,8.46-2.52a1.3,1.3,0,0,1,.53.63Z"/><path class="cls-11" d="M12.18,13.43a2.76,2.76,0,0,1-1.85.32,5.53,5.53,0,0,1,2.05-.45l-.2.13Z"/><path class="cls-5" d="M6.61,11.72A6.29,6.29,0,0,1,4.13,9a5.56,5.56,0,0,1-.29-.75C3.78,8,3.7,7.7,3.66,7.47S3.61,7.13,3.59,7a5.84,5.84,0,0,1,0-1.65,6.19,6.19,0,0,1,.54-1.75,6.39,6.39,0,0,1,1-1.51A6.68,6.68,0,0,1,6.67.86,6.69,6.69,0,0,1,8.48.15a6.08,6.08,0,0,1,2.3-.08l.6.11a5,5,0,0,1,.63.2A6,6,0,0,1,13.12.9h0c.21.14.49.32.69.48a7.14,7.14,0,0,1,.71.66,6.2,6.2,0,0,1,1,1.51,5.39,5.39,0,0,1,.31.75,6.47,6.47,0,0,1,.28,1.23,6.26,6.26,0,0,1,0,1.77,6.38,6.38,0,0,1-.54,1.75,6.4,6.4,0,0,1-1,1.5,6.22,6.22,0,0,1-1.49,1.21,5.93,5.93,0,0,1-1.8.71,6.4,6.4,0,0,1-2.3.09,5.31,5.31,0,0,1-.6-.12c-.15,0-.32-.08-.64-.19A6.55,6.55,0,0,1,6.61,11.72Z"/><path class="cls-3" d="M15.31,9.51a7.5,7.5,0,0,1-.77,1l-.3.32c-.15.13-.35.31-.51.43l-.33.24-.46.29L12.6,12c-.12.05-.27.13-.39.17l-.32.12-.34.11-.3.07-.31.06-.29.05-.29,0h-.28a2.62,2.62,0,0,1-.28,0H9.52l-.28,0-.29,0-.3-.05-.3-.07L8,12.35l-.32-.1-.35-.14L7,12l-.41-.23-.35-.23a5.81,5.81,0,0,1-.83-.68l-.31-.33c-.16-.2-.37-.47-.53-.69l-.24-.4c-.11-.21-.25-.5-.34-.72l-.17-.46C3.78,8,3.7,7.7,3.66,7.47L3.59,7c0-.2,0-.45,0-.65l0-.51a6.82,6.82,0,0,1,.25-1.34L4,4a5,5,0,0,1,.44-.9l.25-.39c.15-.21.35-.47.51-.66l.31-.31c.15-.14.35-.31.51-.44l.33-.24L6.79.8,7.13.62,7.52.45,7.84.33l.34-.1.3-.08L8.79.09,9,.06l-.17,0C4,1.05,3.59,7.49,8.22,10.53c2.64,1.73,6.57,1.09,7.67-2.33l-.16.46c-.12.26-.28.6-.42.85Z"/><path class="cls-12" d="M13,4.85a1.52,1.52,0,0,1-2.34,1.52A1.75,1.75,0,0,1,9.79,5a1.67,1.67,0,0,1,.91-1.45A1.76,1.76,0,0,1,13,4.85Z"/><path class="cls-6" d="M12.87,15.94l-.09-.22a1.34,1.34,0,0,0-.2,0,8.15,8.15,0,0,0-.86.16,1.28,1.28,0,0,0-.29.13c0,.09-.1.21-.06.29s.28.23.41.23a7.71,7.71,0,0,0,.89-.24.52.52,0,0,0,.21-.3S12.87,16,12.87,15.94Z"/></g></g></svg>