<svg xmlns="http://www.w3.org/2000/svg" viewBox="0 0 43.23 42.55"><defs><style>.cls-1{isolation:isolate;}.cls-2{mix-blend-mode:multiply;}.cls-3{fill:#d7dce0;}.cls-4{fill:#aeb1b3;}.cls-5{fill:#d2d5d6;}.cls-6{fill:#babdbd;}.cls-7{fill:#c0c3c4;}.cls-8{fill:#e6eaeb;}.cls-9{fill:#f5f9fa;}.cls-10{fill:#cdd0d1;}.cls-11{fill:#d6d6d6;}.cls-12{fill:#fff;}.cls-13{fill:#d4d8d9;}.cls-14{fill:#ebebeb;}.cls-15{fill:#f7fafb;}</style></defs><g class="cls-1"><g id="Capa_2" data-name="Capa 2"><g id="layer"><g class="cls-2"><path class="cls-3" d="M40.93,34.61a3.33,3.33,0,0,0-.09-1,3.16,3.16,0,0,0-.48-.86c-.31-.43-.64-1-1-1.63a7.7,7.7,0,0,0-2.16-2.68c-1.19-.71-2.9.34-4-.23l0,0-.4-.21a5.6,5.6,0,0,0-1.51-.43,7.63,7.63,0,0,0-1.11-.09h-.88l-.32,0a77.42,77.42,0,0,1-8.66-3.76h0l.06-.08,0,0,.06-.09,0,0,.06-.1.05-.1,0-.07v0l0,0,0-.07c0-.09.08-.17.1-.23l0,0v-.06h0a.88.88,0,0,0,.07-.23l0-.07v-.07l0-.07v0a.15.15,0,0,0,0-.07v0a.11.11,0,0,0,0-.06V21.9a.68.68,0,0,0,0-.19s0,0,0-.06v0h0a1.07,1.07,0,0,0-.07-.19s0,0,0-.05h0a2,2,0,0,0-.11-.21l0,0-.05-.07a.83.83,0,0,0-.11-.15h0l0,0,0,0a2.32,2.32,0,0,0-.4-.35L20,20.43h0l-.16-.09,0,0-.14-.08-.05,0-.14-.07-.07,0-.07,0h0l-.3-.12-.47-.15-.08,0h-.05c-.28-.08-.74-.17-.9-.2a7.54,7.54,0,0,0-2.22-.08l-.06-.13v0a.14.14,0,0,0,0-.06L15,19a2.33,2.33,0,0,0-.17-.26v0l0,0a5.71,5.71,0,0,0-.82-.83,7.63,7.63,0,0,0-1.5-.89,9.93,9.93,0,0,0-1.3-.47c-.26-.08-.63-.16-.91-.22A12.44,12.44,0,0,0,8.06,16a10.24,10.24,0,0,0-1.18,0c-.31,0-.71.07-1,.11a10.14,10.14,0,0,0-1.41.29c-.37.1-.55.16-.72.22l-.62.24a8.06,8.06,0,0,0-1.61.94l.06-.05-.06.05,0,0,0,0,0,0,0,0-.17.15-.2.19-.08.08-.05.07-.07.07-.12.15,0,.06h0L.44,19h0a.08.08,0,0,0,0,0l-.12.21,0,.06v0a1.83,1.83,0,0,0-.11.26v.05a2,2,0,0,0-.07.23v.05a3.85,3.85,0,0,0-.06.42v.07a2.1,2.1,0,0,0,0,.27,2.22,2.22,0,0,0,.1.56v0h0c0,.09.07.18.11.28v0a1.91,1.91,0,0,0,.17.32v0c.06.1.13.19.19.28l0,0,0,0,.23.27h0a4.18,4.18,0,0,0,.55.51l.35.26,0,0,0,0,.35.21,0,0h0a5.12,5.12,0,0,0,.56.29l.49.21.8.28c.25.08.62.17.9.23l.49.09h.16l.2,0v.05l0,.3c0,.09,0,.22,0,.32l.07.28.08.19a2.14,2.14,0,0,0,.1.22,4.86,4.86,0,0,0,.43.59l0,0,.06.07,0,0,0,0,0,0,.06.05a2.64,2.64,0,0,0,.34.29l.09.06.1.07h0l0,0a2.72,2.72,0,0,0,.46.25l.08,0,0,0,.09,0,.43.14.1,0,.08,0,.21,0h0l.07,0H9l.27.05.56.06H10l.44,0H11l.41,0h0c.11,0,.34,0,.68-.07l.11,0c.14,0,.4-.06.74-.13H13l.11,0,.18,0,.1,0,.15,0h0a50,50,0,0,1,6.57,5,1.55,1.55,0,0,0,0,.21v0s0,0,0,.07,0,0,0,.06a.76.76,0,0,0,0,.15h0v0a.62.62,0,0,0,0,.13,2.42,2.42,0,0,0,0,.25,1.86,1.86,0,0,0,.14.48,2.31,2.31,0,0,0,.76.86l.31.2v1.29a2.14,2.14,0,0,0,.32,1.09l0,0,0,0,.13.18,0,0v0l.08.09.21.22a3.92,3.92,0,0,0,.64.47l.29.16,0,0a4.67,4.67,0,0,0,.36.51,3.9,3.9,0,0,0,.48.42c.1.08.26.17.37.24l1.16.66a7.6,7.6,0,0,0,3.87.76h.59l.4,0h0l.34,0h.05l.54-.07L32,41l.12,0,.74-.16.14,0,.74-.19.09,0,.72-.22h.07l.71-.24.14-.05.69-.27h0A28.69,28.69,0,0,0,40,37.92C41.22,37.18,40.91,36.06,40.93,34.61Z"/></g><path class="cls-4" d="M43.23,35.45a5.48,5.48,0,0,0,0-.57c0-.12,0-.28-.08-.41v-.06a.19.19,0,0,0,0-.07s0,0,0-.06S43,34,42.91,33.9l-.17-.35s0,0,0-.08a3.82,3.82,0,0,0-.09-1.09,2.54,2.54,0,0,0-.1-.37c-.06-.15-.14-.36-.21-.51,0,.09.06.18.1.27a4.42,4.42,0,0,0-1-1.51L40.16,29s0,0,0,0a3.16,3.16,0,0,0,0-.43,3.37,3.37,0,0,0-.45-1.31,3.47,3.47,0,0,0-.55-.74,4,4,0,0,0-.29-.29l0,0-.23-.2.12.12a3.3,3.3,0,0,0-.3-.22,55.16,55.16,0,0,1-1.24-8.86l.2-.08.1,0,.11-.05.18-.09h0a1,1,0,0,0,.2-.11h0l0,0,.31-.18,0,0,0,0h0l.21-.14h0l.14-.11h0l0,0L38.9,16l.24-.2,0,0,.06-.06.09-.1.1-.1h0l0,0,0,0a2.62,2.62,0,0,0,.24-.3h0l.15-.24,0-.06v0a2.67,2.67,0,0,0,.21-.41h0l.07-.2,0,0s0-.05,0-.07v0a2.91,2.91,0,0,0,.12-.61s0,0,0-.06v-.1a1.31,1.31,0,0,0,0-.28,3.28,3.28,0,0,0,0-.34v-.05h0v0c0-.06,0-.13,0-.2,0-.22-.1-.4-.14-.52l0-.07v0L40,11.51l0,0c-.06-.14-.12-.26-.16-.34l0,0h0A3.87,3.87,0,0,0,38.61,9.7l.09-.14,0-.05.12-.24L39,9.05c0-.07.05-.13.08-.19l.09-.2,0-.12.08-.2,0-.14s0,0,0,0a7,7,0,0,0,.23-.94,6.21,6.21,0,0,0,0-1.77,5.23,5.23,0,0,0-.28-1.23,5.33,5.33,0,0,0-.3-.75,6,6,0,0,0-1-1.51,7.14,7.14,0,0,0-.71-.66A7,7,0,0,0,36.54.9a6.36,6.36,0,0,0-1.1-.52,5,5,0,0,0-.64-.2L34.21.07a6.69,6.69,0,0,0-2.05,0l.1,0h0l-.3.06L31.6.23l-.34.1L31,.43H31l-.4.17L30.21.8l-.07,0h0L30,1l-.21.13-.13.09-.12.09-.09.06-.15.13L29,1.66l-.1.1-.06.06-.25.25c-.08.09-.26.3-.48.6l0,.06L28,2.91l-.09.15,0,.06c-.1.18-.15.27-.22.42a.05.05,0,0,0,0,0s0,0,0,.08L27.4,4l0,.08c0,.08-.05.14-.07.21l-.06.17,0,.09a5.64,5.64,0,0,0-.17.76c0,.15,0,.31-.05.46V6a2.09,2.09,0,0,0,0,.25v.13A4.45,4.45,0,0,0,27,7c0,.15,0,.35.07.49s.13.52.19.74.1.3.16.46h0v0l.12.27a1.4,1.4,0,0,0,.09.17l.12.26.08.12s0,.07,0,.1l0,0-.31.28-.31.34-.24.31c-.1.16-.22.37-.31.53h0c0,.1-.08.18-.12.26a.84.84,0,0,1-.06.14c0,.09-.07.17-.1.25l0,.1,0,.06v0a.06.06,0,0,0,0,0c0,.06,0,.11-.06.19v0a.14.14,0,0,0,0,.07l0,.16h0l0,.24v0h0s0,0,0,.06,0,.16,0,.23v.09a1,1,0,0,0,0,.25v0a1.83,1.83,0,0,0,0,.21s0,0,0,.06a.09.09,0,0,0,0,.05.3.3,0,0,0,0,.1v0l0,.06h0a.43.43,0,0,0,0,.05c0,.06,0,.11.05.16s0,0,0,.07l.09.24a.37.37,0,0,1,0,.09l0,.06,0,0v0c0,.05.06.1.08.15a.9.9,0,0,1,.05.09s0,0,0,0a2.08,2.08,0,0,0,.22.31h0l0,0,.2.24,0,0h0l0,0h0a3.55,3.55,0,0,0,.34.33l.27.21,0,0,0,0h0a3.17,3.17,0,0,0,.37.25l.13.09.53.29.24.11.15.06.12.05a55.24,55.24,0,0,1-1.18,8.87l-.25.16L28,26l-.1.09-.06.05-.32.29-.24.27a5.43,5.43,0,0,0-.39.56,3.52,3.52,0,0,0-.42,1.31,2.16,2.16,0,0,0,0,.36l-.1.1-.24.24-.12.13-.24.24-.24.25-.12.12-.25.25a4.41,4.41,0,0,0-1,1.47c0-.07.05-.15.08-.22a2.83,2.83,0,0,0-.14.35v0a.69.69,0,0,0-.05.13,2,2,0,0,0-.1.35,4.44,4.44,0,0,0-.1.83c0,.1,0,.23,0,.33s0,0,0,.06a6.13,6.13,0,0,0-.3.72,4.06,4.06,0,0,0-.15.71c0,.13,0,.31,0,.45a4.53,4.53,0,0,0,0,.53,4.53,4.53,0,0,1,0-.53v1.34a4.16,4.16,0,0,0,1.48,3h0l0,0c.22.2.48.4.75.6,0,0,0,0,.08.06l.42.26a10,10,0,0,0,1.43.71l.51.17a6.86,6.86,0,0,0,.8.28l.28.07.61.14.61.14v0a15.42,15.42,0,0,0,9.75-1.34c2-1.13,3-2.64,3-4.15Z"/><path class="cls-5" d="M26.65,31a12,12,0,0,1,3.27-1.21,16,16,0,0,1,3.6-.37,15.52,15.52,0,0,1,3.57.44l.69.19.65.22c.2.06.44.17.63.25a9.27,9.27,0,0,1,1.24.63c-.43-.26-1.5.31-1.57.35a11.65,11.65,0,0,0-10.6-.11c-3,1.66-3.08,4.41-.22,6.14a11.68,11.68,0,0,0,10.6.1c3-1.66,3.09-4.41.22-6.13.07,0,1.14-.61,1.57-.35.15.1.37.23.52.34s.58.45.82.66a7.39,7.39,0,0,1,.75.85c.09.14.23.34.31.49s.27.61.36.87a2.62,2.62,0,0,1,.12.54,5.48,5.48,0,0,1,0,.57c0,1.51-1,3-3,4.16a15.45,15.45,0,0,1-14-.14c-1.84-1.11-2.75-2.53-2.76-4,0-.14,0-.32,0-.45a4.06,4.06,0,0,1,.15-.71,6.68,6.68,0,0,1,.37-.87,5.43,5.43,0,0,1,.32-.51,4.42,4.42,0,0,1,.39-.47c.23-.24.56-.54.82-.76A10.59,10.59,0,0,1,26.65,31Z"/><path class="cls-6" d="M40.3,31.13c.28.17.64.43.9.62l.44.38c.12.13.3.3.42.44l.33.41.31.49.21.43c.05.16.13.37.18.54l.09.44c0,.17,0,.4,0,.57A3.78,3.78,0,0,1,43,36.59h0c.07-.41.05-.49,0-.51s-.3.22-.4.34a10.58,10.58,0,0,1-5.51,3.3,25.43,25.43,0,0,1-6.63.74,2.77,2.77,0,0,0-.49.06c-.05,0-.11.06-.12.11s.09.12.51.34a12.53,12.53,0,0,1-4.25-1.5,7.77,7.77,0,0,1-1.28-1l.08.05c.1,0,.33.18.37.08s-.18-.32-.27-.44c-3-3.85-.06-6.24,1.34-7.09.25-.14.57-.31.82-.43l.65-.29.65-.24.69-.21.69-.17.71-.14.71-.11.72-.07.73,0h.73l.73,0,.72.06.72.09.71.12.69.15.69.19.65.22c.2.08.46.17.66.26l.6.28.61.34c-.43-.26-1.5.31-1.57.35a11.65,11.65,0,0,0-10.6-.11c-3,1.66-3.08,4.41-.22,6.14a11.68,11.68,0,0,0,10.6.1c3-1.66,3.09-4.41.22-6.13.07,0,1.14-.61,1.57-.35Z"/><path class="cls-7" d="M40.36,12.62a4.48,4.48,0,0,0-.22-.83,7,7,0,0,0-.31-.72,4.24,4.24,0,0,0-1.64-1.66,6.25,6.25,0,0,0-.63-.33,10.79,10.79,0,0,0-9,.23,4.4,4.4,0,0,0-1.85,1.8,6.5,6.5,0,0,0-.34.84,4.18,4.18,0,0,0-.2.84,3.28,3.28,0,0,0,0,.93,3.16,3.16,0,0,0,.24.82,4.4,4.4,0,0,0,.44.73,3.44,3.44,0,0,0,.3.35,6.64,6.64,0,0,0,.63.56,5.61,5.61,0,0,0,1,.61,7.5,7.5,0,0,0,.91.4,9.71,9.71,0,0,0,1.95.48c.46.06.72.09,1,.1a9.61,9.61,0,0,0,1.52,0,10.35,10.35,0,0,0,2-.34,8,8,0,0,0,.95-.32,5.62,5.62,0,0,0,.9-.43,5.26,5.26,0,0,0,.8-.52,4.74,4.74,0,0,0,.65-.6,3.61,3.61,0,0,0,.8-1.33,3.15,3.15,0,0,0,.1-.38,2.28,2.28,0,0,0,.06-.39A3.41,3.41,0,0,0,40.36,12.62Z"/><path class="cls-6" d="M37.74,12.16a2.27,2.27,0,0,0-.52-2.62c-1.23-1.36,1.49.55,1.49.55A2.22,2.22,0,0,1,39.6,12c-.11,1.19-.29,1.31-.29,1.31Z"/><path class="cls-8" d="M40.39,13.44a2.28,2.28,0,0,1-.06.39l-.78-.14-.27-1a2.49,2.49,0,0,0-1.17-2.81,1.32,1.32,0,0,1-.55-.75,6.25,6.25,0,0,1,.63.33,4.24,4.24,0,0,1,1.64,1.66,7,7,0,0,1,.31.72,4.48,4.48,0,0,1,.22.83A3.41,3.41,0,0,1,40.39,13.44Z"/><path class="cls-8" d="M39.32,31.24l0,0Zm0-.07,0,0Zm.05-.07,0,0Zm0-.07,0,0Zm.05-.07,0,0Zm0-.07,0-.05Zm0-.08,0,0Zm0-.07,0,0Zm0-.07,0-.05Zm0-.08,0-.05Zm0-.07,0-.07Zm0-.08a.64.64,0,0,0,0-.07A.64.64,0,0,1,39.76,30.44Zm0-.09v0Zm0-.08v0Zm0-.08v0Zm0-.07v0Zm0-.08v0Zm0-.07v0Zm0-.08v0Zm0-.07v0Zm1.57.44L40.16,29A3.15,3.15,0,0,1,40,30a3.89,3.89,0,0,1-.7,1.27h0l0,0-.05.07h0v0a5,5,0,0,1-1.34,1.06,10.24,10.24,0,0,1-9.29-.09c-1.56-.94-2.12-2.22-1.7-3.41,0-.1-.05-.2-.07-.3l-.05.05-.12.12-.25.25-.24.24-.12.13-.24.24-.24.25-.12.12-.25.25c-2,2-1.56,4.67,1.38,6.45a14.65,14.65,0,0,0,13.26.13C43,35.11,43.55,32.36,41.45,30.26Zm-2.18,1h0l0,0Zm.48-2.39v0Zm0,.08v0Zm0,.07,0,0Zm0,.07v0Zm0,.08v0Zm0,.07v0Zm0,.08v0Zm0,.07a.22.22,0,0,0,0,.08A.22.22,0,0,1,39.87,29.44Zm0,.1v0Zm0,.08v0Zm0,.08v0Z"/><path class="cls-9" d="M36.89,32.9a5.05,5.05,0,0,1-.55.18,8.86,8.86,0,0,1-1.58.34l.63,4.85a14.85,14.85,0,0,0,2.26-.49c.26-.08.52-.16.77-.26Z"/><path class="cls-10" d="M23.43,36.85V35.51c0,1.43.92,2.85,2.76,4a15.45,15.45,0,0,0,14,.14c2-1.14,3-2.65,3-4.16v1.34c0,1.51-1,3-3,4.15-3.94,2.2-10.21,2.14-14-.14C24.35,39.7,23.43,38.27,23.43,36.85Z"/><path class="cls-10" d="M26.72,37.53c-.25-.15-.56-.37-.79-.54a6.65,6.65,0,0,1-.67-.6L25,36.12a4,4,0,0,1-.35-.46,3.93,3.93,0,0,1-.49-.91,4,4,0,0,1-.21-.68c0-.15-.05-.35-.07-.5s0-.23,0-.33a4.44,4.44,0,0,1,.1-.83,2,2,0,0,1,.1-.35,5.38,5.38,0,0,1,.2-.51c-.85,1.78-.1,3.77,2.27,5.2a14.65,14.65,0,0,0,13.26.13c2.58-1.44,3.43-3.52,2.54-5.38.07.15.15.36.21.51a2.54,2.54,0,0,1,.1.37,3.82,3.82,0,0,1,.09,1.09,4.17,4.17,0,0,1-.58,1.86,5.72,5.72,0,0,1-1.57,1.72,8.15,8.15,0,0,1-1,.61,5,5,0,0,1-.51.27c-.23.11-.55.25-.79.34a14.77,14.77,0,0,1-10,0c-.32-.13-.74-.31-1-.46S26.88,37.63,26.72,37.53Z"/><path class="cls-8" d="M27.44,31.44a4,4,0,0,1-.79-1.36,3.24,3.24,0,0,1-.17-1.47,3.52,3.52,0,0,1,.42-1.31,5.43,5.43,0,0,1,.39-.56l.24-.27c.14-.13.33-.31.48-.43-1.83,1.46-1.65,3.51.58,4.84a10.17,10.17,0,0,0,9.24.1c2.39-1.34,2.66-3.46.76-5a6.64,6.64,0,0,1,.55.51,3.47,3.47,0,0,1,.55.74A3.23,3.23,0,0,1,40,30a4.09,4.09,0,0,1-.8,1.43,4.85,4.85,0,0,1-1.33,1,10.24,10.24,0,0,1-9.29-.09A4.66,4.66,0,0,1,27.44,31.44Z"/><path class="cls-6" d="M38,25.62l-.58.46c2.19,1.32-5.14-1.09-3.51-1l.09-.6a9.77,9.77,0,0,0-5.24,1,4.44,4.44,0,0,0-1.54,1.32c-.93,1.34-.49,2.93,1.35,4a10.17,10.17,0,0,0,9.24.1C40.44,29.52,40.52,27.13,38,25.62Z"/><path class="cls-11" d="M36.82,7.39l-3.57.76,3.57-.76c1.9,1.14,1.83,3-.14,4.05a7.71,7.71,0,0,1-7-.07c-1.89-1.14-1.83-2.95.14-4A7.71,7.71,0,0,1,36.82,7.39Z"/><path class="cls-12" d="M38.23,40.29a8.75,8.75,0,0,1-3.79.64c.05,0,.1-.12.16-.14l.11,0,.7-.12s1.87-.37,2.6-.56c.57-.15.57-.15.75-.07l-.53.27Z"/><path class="cls-4" d="M30.43,41a14.43,14.43,0,0,1-1.51-.34,11.83,11.83,0,0,1-2.74-1.16l-.41-.27a7.82,7.82,0,0,1-.86-.68v1.33a6.83,6.83,0,0,0,.86.69l.42.26A11.08,11.08,0,0,0,28.93,42a14.26,14.26,0,0,0,1.5.35Z"/><path class="cls-6" d="M25.3,35.8l2.38-4.11a4.74,4.74,0,0,0,.58.47l-2.15,4.3a6.82,6.82,0,0,1-.81-.66Z"/><path class="cls-6" d="M26.11,36.46l2.15-4.3.31.2a7.41,7.41,0,0,0,1.48.67L28.67,37.7a10.75,10.75,0,0,1-2.12-1l-.44-.29Z"/><path class="cls-6" d="M28.67,37.7,30.05,33a11.32,11.32,0,0,0,1.18.3l-.87,4.8a13.49,13.49,0,0,1-1.69-.43Z"/><path class="cls-6" d="M28.57,32.36a4.62,4.62,0,0,1-1-.81l0,0a1.92,1.92,0,0,0,1-.17s0,0-.53-.89a3.66,3.66,0,0,0,.54.37,7.26,7.26,0,0,0,1.6.71c-.4.17-.55.23-.38.47a3.84,3.84,0,0,0,1.58,1.14,4.46,4.46,0,0,0,1.07.28l.11,0a9.08,9.08,0,0,1-4-1.14Z"/><path class="cls-8" d="M27.57,28.41a52.83,52.83,0,0,0,1.87-13.8,1.87,1.87,0,0,0,1.06,1.53,6,6,0,0,0,5.42.06,2,2,0,0,0,1.18-1.61A52.84,52.84,0,0,0,39,28.37a2.92,2.92,0,0,1-1.77,2.41,9,9,0,0,1-8.1-.08A2.82,2.82,0,0,1,27.57,28.41Z"/><path class="cls-9" d="M33.49,31.71s.29-6.88.44-9.23,1.08-6,1.49-3.14S36.73,29,37.27,30.78A8,8,0,0,1,33.49,31.71Z"/><path class="cls-6" d="M32.12,17.64c-.19,8.36-.75,13.57-.77,13.79,0,0,0,.07,0,.09a7.1,7.1,0,0,1-2.18-.82,5.41,5.41,0,0,1-.5-.35h0A72.54,72.54,0,0,0,30,15.77a2.73,2.73,0,0,0,.49.37,4.77,4.77,0,0,0,1.64.58c0,.28,0,.64,0,.92Z"/><path class="cls-6" d="M28.33,16.56c-.15-.1-.36-.23-.5-.34L27.49,16a3.55,3.55,0,0,1-.34-.33,4.1,4.1,0,0,1-.52-.67,4.8,4.8,0,0,1-.35-.74,3.55,3.55,0,0,1-.13-1.49,5.82,5.82,0,0,1,.53-1.61,2.41,2.41,0,0,0,0,2.2,4.24,4.24,0,0,0,1.61,1.6A10.64,10.64,0,0,0,38,15a4.37,4.37,0,0,0,1.82-1.73,2.41,2.41,0,0,0,0-2.2,7.06,7.06,0,0,1,.35.83,5,5,0,0,1,.19.77,3.18,3.18,0,0,1-.11,1.44,3.24,3.24,0,0,1-.33.75,3.92,3.92,0,0,1-.45.62,5.27,5.27,0,0,1-.66.63,6,6,0,0,1-.81.53,6.14,6.14,0,0,1-.9.44c-.42.17-.79.27-1,.33a11,11,0,0,1-2,.34l-.5,0h-.51l-.51,0a8.79,8.79,0,0,1-1-.1,9.43,9.43,0,0,1-1.94-.48A8.38,8.38,0,0,1,28.33,16.56Z"/><path class="cls-6" d="M26.72,13.31a2.41,2.41,0,0,1,0-2.2c.44-.9,1.59-.28,2.09-.44l-.09.21a1.56,1.56,0,0,0,.13,1.28c-.48.35-1.65.09-2.09,1.15Z"/><path class="cls-6" d="M26.68,11.11c.09-.16.21-.37.31-.53l.24-.31.31-.34.31-.28.13-.1.36-.26.4-.24.41-.21.44-.2L30,8.48l.47-.14L31,8.22l.48-.09.48-.07L32.41,8l.49,0h.49l.49,0,.49,0,.48.06.48.08.47.1.46.13.45.15.44.17.42.2.41.23c-.43-.26-1.16.51-1.43.35l-.27-.15L36,9.22l-.29-.12L35.4,9l-.32-.09-.34-.07-.34-.06-.34,0-.35,0H33l-.35,0-.35,0-.27,0H32c-.64.12-2.58.49-3.32,1.9-.55.05-1.57-.43-2,.41Z"/><path class="cls-6" d="M39.81,13.27A4.37,4.37,0,0,1,38,15a10.64,10.64,0,0,1-9.66-.09,4.24,4.24,0,0,1-1.61-1.6c.44-1.06,1.61-.8,2.09-1.15l.09.14C29.55,13,30,13,30,13a11.83,11.83,0,0,0-.94-2,3.32,3.32,0,0,0,.59.43,6.38,6.38,0,0,0,2.2.77l-.08.3a1.06,1.06,0,0,1-.54.76c-.07.05-.19.11-.21.19-.13.79,3.62,1.36,5.75-.11a2.15,2.15,0,0,0,.94-1.12l.14.07a7.48,7.48,0,0,1,1.33.37,1.32,1.32,0,0,1,.6.67Z"/><path class="cls-8" d="M26.72,13.31a2.41,2.41,0,0,1,0-2.2.77.77,0,0,1,.49-.44l-.12.27a2.55,2.55,0,0,0,.09,1.81,1.24,1.24,0,0,0-.42.56Z"/><path class="cls-13" d="M28.56,15.61c-.24.43-1,.41-1.45,0l-.25-.3L26.63,15l-.17-.32c-.06-.12-.13-.29-.18-.42l-.09-.34c0-.14-.05-.34-.06-.49v-.33c0-.18.05-.42.08-.6l.07-.27a5.71,5.71,0,0,1,.41-1.07,2.41,2.41,0,0,0,0,2.2,4.24,4.24,0,0,0,1.61,1.6l.28.16,0,.26a.67.67,0,0,1-.08.28Z"/><path class="cls-13" d="M40.27,12.5a2.42,2.42,0,0,1,.11,1.09l-.07.34-.05.18-.12.34c-.06.12-.14.29-.21.41l-.2.32-.3.36-.29.29-.36.31-.37.26h0l0,0c-3.83,2.28-9.11,1.19-8.9-.66a1.42,1.42,0,0,1,.1-.29A10.87,10.87,0,0,0,38,15a4.37,4.37,0,0,0,1.82-1.73,2.38,2.38,0,0,0,.27-1.21l.09.19c0,.08.08.18.1.25Z"/><path class="cls-8" d="M28.33,14.91a4.24,4.24,0,0,1-1.61-1.6,1.24,1.24,0,0,1,.42-.56l.1.21a4.55,4.55,0,0,0,.29.55l.2.3c.17.24.37.44.54.68s.22.42.34.58l-.28-.16Z"/><path class="cls-8" d="M39.81,13.27A4.37,4.37,0,0,1,38,15a10.87,10.87,0,0,1-8.44.49l.29-.16a2.43,2.43,0,0,1,1-.17c2,.06,6.24.2,8.47-2.52a1.35,1.35,0,0,1,.53.63Z"/><path class="cls-14" d="M35.61,13.43a2.79,2.79,0,0,1-1.86.32,5.64,5.64,0,0,1,2.06-.45l-.2.13Z"/><path class="cls-8" d="M30,11.72A6.34,6.34,0,0,1,27.56,9a4.49,4.49,0,0,1-.29-.75c-.06-.22-.14-.51-.19-.74S27,7.13,27,7a6.7,6.7,0,0,1,0-1.65,6,6,0,0,1,.55-1.75,6.09,6.09,0,0,1,1-1.51A6.44,6.44,0,0,1,30.1.86,6.69,6.69,0,0,1,31.91.15a6.09,6.09,0,0,1,2.3-.08l.59.11a5,5,0,0,1,.64.2,6.36,6.36,0,0,1,1.1.52h0a7,7,0,0,1,.69.48,7.14,7.14,0,0,1,.71.66,6,6,0,0,1,1,1.51,5.33,5.33,0,0,1,.3.75,5.23,5.23,0,0,1,.28,1.23,6.21,6.21,0,0,1,0,1.77A6.54,6.54,0,0,1,39,9.05a6.17,6.17,0,0,1-1,1.5,6.44,6.44,0,0,1-1.49,1.21,6.09,6.09,0,0,1-1.81.71,6.4,6.4,0,0,1-2.3.09,5.13,5.13,0,0,1-.59-.12,5.88,5.88,0,0,1-.64-.19A6.84,6.84,0,0,1,30,11.72Z"/><path class="cls-6" d="M38.74,9.51a7.5,7.5,0,0,1-.77,1l-.31.32-.5.43-.34.24-.46.29L36,12c-.12.05-.28.13-.4.17l-.32.12L35,12.4l-.3.07-.31.06-.28.05-.29,0h-.28a2.61,2.61,0,0,1-.28,0h-.29l-.28,0-.29,0-.29-.05-.3-.07-.32-.09-.32-.1-.36-.14L30.44,12,30,11.72l-.35-.23a5.7,5.7,0,0,1-.82-.68l-.31-.33c-.17-.2-.38-.47-.53-.69l-.25-.4-.34-.72-.16-.46c-.06-.22-.14-.51-.19-.74L27,7c0-.2,0-.45,0-.65V5.82a6.87,6.87,0,0,1,.26-1.34L27.4,4a5.74,5.74,0,0,1,.44-.9l.25-.39c.15-.21.36-.47.52-.66l.31-.31.5-.44.34-.24L30.21.8l.34-.18L31,.45l.31-.12.34-.1.31-.08.3-.06.21,0-.16,0c-4.87,1-5.25,7.41-.61,10.45,2.64,1.73,6.56,1.09,7.66-2.33l-.16.46c-.11.26-.27.6-.41.85Z"/><path class="cls-15" d="M36.38,4.85A1.52,1.52,0,0,1,34,6.37,1.7,1.7,0,0,1,33.22,5a1.63,1.63,0,0,1,.91-1.45,1.76,1.76,0,0,1,2.25,1.32Z"/><path class="cls-9" d="M36.29,15.94l-.09-.22a1.21,1.21,0,0,0-.19,0,8.85,8.85,0,0,0-.87.16,1.85,1.85,0,0,0-.29.13c0,.09-.09.21-.06.29s.29.23.42.23a7.53,7.53,0,0,0,.88-.24.54.54,0,0,0,.22-.3A.05.05,0,0,0,36.29,15.94Z"/></g></g></g></svg>