<svg xmlns="http://www.w3.org/2000/svg" xmlns:xlink="http://www.w3.org/1999/xlink" viewBox="0 0 63 62.29"><defs><style>.cls-1{fill:#cdd0d1;}.cls-2{isolation:isolate;}.cls-3{fill:#d7dce0;mix-blend-mode:multiply;}.cls-4{fill:#aeb1b3;}.cls-5{fill:#d2d5d6;}.cls-6{fill:#e6eaeb;}.cls-7{clip-path:url(#clip-path);}.cls-8{fill:#babdbd;}.cls-9{fill:#f5f9fa;}.cls-10{fill:#1f1f1f;}.cls-11{fill:#f7fafb;}.cls-12{fill:#fff;}</style><clipPath id="clip-path"><path class="cls-1" d="M45.57,47.29a3.68,3.68,0,0,1-.35-.6A3,3,0,0,1,45,44.85a3.54,3.54,0,0,1,.52-1.22,4.83,4.83,0,0,1,1.08-1.17c-1.79,1.43-1.62,3.45.57,4.76a10,10,0,0,0,9.09.1c2.35-1.32,2.61-3.41.73-4.89a4.07,4.07,0,0,1,.49.43,4.66,4.66,0,0,1,.52.61,4,4,0,0,1,.35.58,3.68,3.68,0,0,1,.24.67,3.12,3.12,0,0,1,.09.73,2.47,2.47,0,0,1-.09.67,3.1,3.1,0,0,1-.23.65,2.85,2.85,0,0,1-.3.48,4.71,4.71,0,0,1-1.54,1.3,10.62,10.62,0,0,1-9.62-.1A4.72,4.72,0,0,1,45.57,47.29Z"/></clipPath></defs><g class="cls-2"><g id="Capa_2" data-name="Capa 2"><g id="layer"><path class="cls-3" d="M59.71,55.09c-.28-.44-.65-.8-1-1.22-.52-.71-.82-1.56-1.29-2.31A11.79,11.79,0,0,0,55,49c-.35-.3-.75-.7-1.17-1.12a8.85,8.85,0,0,0-2.77-2.13c-1-.36-2.24.55-3.34.27h-.11l-.07,0-.3-.05h0l-.28,0H46.9l-.15,0h-.2l-.42,0H45.05l-.33,0-.26-.09c-.29-.09-.66-.23-.94-.33l-1-.37-1.14-.43-1.19-.46-1.24-.51-1.23-.53-1.26-.57L35.28,42l-1.18-.62-1-.56c-.31-.19-.7-.46-1-.66l-.61-.48a3.11,3.11,0,0,1-.3-.27,5.28,5.28,0,0,0,.64-.95,1.81,1.81,0,0,0-.46-2.5l-.71-.51.13.1a3.19,3.19,0,0,0-.47-.31,2.33,2.33,0,0,0-1.15-3l-.93-.53.05,0a8.66,8.66,0,0,0-5.3-.67,10.41,10.41,0,0,0-1.92,0l0-.09,0-.12a2.83,2.83,0,0,1,0-.29V30.5a11.14,11.14,0,0,0-.17-2.56,3.39,3.39,0,0,0-.3-.82,1.4,1.4,0,0,0-.22-.34l0-.05,0,0,0,0h0c-1-1.27-3.56-1.84-7-1.34A23.42,23.42,0,0,0,7.48,27a4.6,4.6,0,0,0-3.43.29c-.92.53-1.09,1.33-.52,2A10.06,10.06,0,0,0,.42,32.64c-1,2-.15,3.53,2,4.2h0l.08,0h0l0,0h0l.06,0h0l.08,0h.06l.06,0h0l.13,0-.08,0h.05L3,37h0l.12,0h.06l.08,0,.14,0,.28,0,.27,0,.27,0,.27,0,.28,0c.39,0,.81.05,1.24.06h4.05l.26,0h0a2.11,2.11,0,0,0,0,1.11,2.34,2.34,0,0,0,1.19,3.06l-.06,0,.93.54a3.59,3.59,0,0,0,.34.17h0l.07,0,.11,0,.15.06.11,0,.16.05.11,0,.19,0,.11,0,.22,0,.08,0,.32,0h.08l.26,0h.12l.23,0h1.7l.25,0,.17,0,.29,0h0a3.21,3.21,0,0,0,.45.24.2.2,0,0,0-.08,0l.89.41a7.51,7.51,0,0,0,4,.3l.72-.13.24,0,.45-.1.54-.15.14,0,.34.12.43.18.54.24.43.2.47.25.29.15.93.53.95.6.88.59.95.68a58.44,58.44,0,0,1,4.91,4.11l-.06.21h0v0a.13.13,0,0,1,0,.06s0,.06,0,.09,0,.07,0,.1v0h0v.08h0v.22c0,.08,0,.16,0,.25L36,52l0,.12h0l0,.09a1.88,1.88,0,0,0,.22.41v0h0l-.48,1.87a2.61,2.61,0,0,0,.26,2.11l0,0,0,0a2.2,2.2,0,0,0,.17.25l0,0,.18.2,0,0,0,0,.06.05.05.06a6.32,6.32,0,0,0,.5.39h0l-.16-.1.12.08.18.12,0,0,.06,0,.1.06a8.57,8.57,0,0,0,1.85.79h.06l.18,0,.1,0,.15.05a5.93,5.93,0,0,0,.75.71l.26.2.53.34,1.16.66.4.2,0,0,.08,0,.12,0,.17.06.13.05.19.06.13,0,.2.05.13,0,.26,0,.09,0,.37.06h.09l.29,0h.15l.25,0h2l.29,0,.19,0,.33,0,.16,0,.5-.07.52-.08.17,0,.35-.07.19,0,.33-.06.2-.05.12,0C52.77,60.53,61.55,58,59.71,55.09ZM36,51.81h0v0Zm.11.26,0,0h0l0,0Zm-32.8-15H3.25l.12,0Z"/><path class="cls-4" d="M62.81,48.75a.5.5,0,0,0,0,.13S62.82,48.8,62.81,48.75Z"/><path class="cls-4" d="M63,50.47a4.5,4.5,0,0,0-.13-1.59v0a1.21,1.21,0,0,0-.05-.18h0l0,0a4,4,0,0,0-.15-.45c0-.08-.07-.17-.1-.24a.76.76,0,0,0,0,.11,6.16,6.16,0,0,0-2-2.34l-2.16-1.59v0l0-.06s0,0,0-.06l0-.07,0,0-.06-.12-.06-.09,0-.08,0,0L58,43.51l0,0v0a3.15,3.15,0,0,0-.24-.3l-.06-.07L57.64,43l-.13-.13h0l-.05,0-.1-.09h0l0-.05,0,0,0,0L57,42.43a.08.08,0,0,1,0,0l-.21-.17-.07-.25c-.06-.26-.14-.61-.21-.87l-.22-1c-.07-.33-.16-.77-.23-1.09L55.88,38c-.07-.37-.15-.86-.21-1.23l-.18-1.24c-.05-.4-.11-.92-.16-1.31l-.1-1.23c0-.4,0-.92-.06-1.31V30.51c0-.37,0-.86.08-1.24l.13-.84c0-.21.07-.32.1-.45a7.87,7.87,0,0,0,1.32-.58A3.86,3.86,0,0,0,59,24.62c0-.31.07-.61.11-.92a.19.19,0,0,0,0,.07,3.91,3.91,0,0,0,0-.49,4.51,4.51,0,0,0,2.28-3.63v-1A4.57,4.57,0,0,0,59,14.89a5.13,5.13,0,0,0-1.13-1.09.86.86,0,0,1,.07-.1l.11-.15.27-.3.19-.18h0c.67-.66,1.23-1.25,1.69-1.76a5.28,5.28,0,0,0,1.6-2.08,4.47,4.47,0,0,0,.25-1.14,3.57,3.57,0,0,0-.21-1.85.32.32,0,0,0,0-.09.07.07,0,0,1,0,0,6,6,0,0,0-2.62-2.82,13.59,13.59,0,0,0-5.08-1.67,2.35,2.35,0,0,0-4.51,0,14,14,0,0,0-5.16,1.56c-2.58,1.44-3.61,3.46-3.07,5.35v0l0,0v.05a1,1,0,0,1,.05.16l.08.22c0,.07.08.17.12.24l.11.22.12.2.12.2.12.18.13.19a2.2,2.2,0,0,1,.14.18l.15.19.16.19.17.21.13.14,0,0,0,0,.2.22.22.23.23.25.26.26.27.28.3.3.32.31.4.42.09.1.13.17,0,0a4.94,4.94,0,0,0-1.13,1.1C42.75,16,42,17.45,42.06,18.85c0-.08,0-.15,0-.23V19.7c0,.1,0,.21,0,.31v.09s0,0,0,0a3.46,3.46,0,0,0,.23.82l0,.14a4.91,4.91,0,0,0,.46.79l.1.12a7.12,7.12,0,0,0,.71.76l.11.08a7.74,7.74,0,0,0,.62.47,2.5,2.5,0,0,0,0,.47s0,0,0-.05l.11.92a3.73,3.73,0,0,0,2,2.64,9.21,9.21,0,0,0,1.09.54h0L48,28l.11.47c.05.29.1.66.14,1l0,.45,0,.42c0,.29,0,.58,0,.88v.61l0,1.16-.09,1.11-.13,1.23a68.43,68.43,0,0,1-1.29,7l-.32.24.1-.1-.2.18h0l-.07.06,0,0h0l-.09.08-.05.06A1.14,1.14,0,0,0,46,43l-.06.06-.07.08-.15.18-.07.09-.1.14h0l-.06.1c-.07.1-.14.24-.2.34l-.06.12v0h0v0l0,.07v0l-2.15,1.6a6.07,6.07,0,0,0-2,2.35.76.76,0,0,0,0-.11c0,.07-.07.16-.11.27s0,.13-.07.19,0,.17-.08.27v0l0,.09s0,0,0-.06l0,.11a.29.29,0,0,0,0,.09,4.61,4.61,0,0,0-.11.71v-.09l0,.35v.3l0,.27c0,.05,0,.11,0,.16s0,.25,0,.37,0,.15,0,.21l0,.23v0c0,.07,0,.14,0,.22h0L41,52c0,.08.06.19.08.27l.05.12h0a7.37,7.37,0,0,0-.29,1.14,2.2,2.2,0,0,0,0,.36c0,.2,0,.46,0,.65v1.34a2,2,0,0,0,0,.35v.11s0,0,0,.07a1.55,1.55,0,0,0,0,.23,3.38,3.38,0,0,0,.08.34,2.25,2.25,0,0,0,.08.24c0,.11.09.22.14.33a1,1,0,0,0,.12.23,3.3,3.3,0,0,0,.18.32,1.88,1.88,0,0,0,.16.23,3.65,3.65,0,0,0,.24.31,2,2,0,0,0,.19.22c.09.11.2.21.31.32l.2.2.41.32.2.16c.22.16.45.31.69.46a11.56,11.56,0,0,0,1.45.73v0a17.61,17.61,0,0,0,14.28-.55c2.28-1.27,3.42-3,3.42-4.66V54.48h0a6.71,6.71,0,0,0-.37-2.17A7.52,7.52,0,0,0,63,50.47Z"/><path class="cls-5" d="M40.72,54.54c0-.19,0-.45,0-.65a2.2,2.2,0,0,1,0-.36,7.37,7.37,0,0,1,.29-1.14,7.89,7.89,0,0,1,1-2c-1.53,2.16-.83,4.73,2.14,6.52,4,2.41,10.66,2.48,14.85.15,3.21-1.8,4-4.48,2.44-6.73h0a7.9,7.9,0,0,1,1,2A6.47,6.47,0,0,1,63,54.48c0,1.7-1.14,3.39-3.42,4.66-4.43,2.48-11.47,2.4-15.72-.15C41.76,57.74,40.73,56.14,40.72,54.54Z"/><path class="cls-4" d="M60.18,48.92a9.17,9.17,0,0,0-.76-.52,11.22,11.22,0,0,0-1.67-.81,14.07,14.07,0,0,0-2.49-.72,16.71,16.71,0,0,0-3.1-.32,15.38,15.38,0,0,0-7.59,1.7c-2.59,1.44-3.63,3.46-3.1,5.37a4.27,4.27,0,0,0,.41,1,4.86,4.86,0,0,0,.72.95,7.9,7.9,0,0,0,1.66,1.32l.39.22a12.05,12.05,0,0,0,2.14.9,16.81,16.81,0,0,0,5.2.73A15.19,15.19,0,0,0,59.11,57,8.2,8.2,0,0,0,61,55.62,4.45,4.45,0,0,0,62.32,53,4.54,4.54,0,0,0,60.18,48.92Z"/><path class="cls-6" d="M43.06,45.83l3.39-2.53c-2,1.53-1.91,3.72.46,5.15a10.62,10.62,0,0,0,9.62.1c2.54-1.42,2.77-3.71.64-5.28h0l3.41,2.51c3.49,2.57,3.11,6.31-1,8.63-4.43,2.47-11.47,2.4-15.72-.16C39.93,51.92,39.71,48.32,43.06,45.83Z"/><path class="cls-4" d="M40.73,55.88V54.54c0,1.6,1,3.2,3.1,4.45,4.25,2.55,11.29,2.63,15.72.15,2.28-1.27,3.43-3,3.42-4.66v1.34c0,1.69-1.14,3.39-3.42,4.66-4.44,2.47-11.48,2.4-15.73-.16C41.76,59.08,40.73,57.48,40.73,55.88Z"/><g class="cls-2"><path class="cls-1" d="M45.57,47.29a3.68,3.68,0,0,1-.35-.6A3,3,0,0,1,45,44.85a3.54,3.54,0,0,1,.52-1.22,4.83,4.83,0,0,1,1.08-1.17c-1.79,1.43-1.62,3.45.57,4.76a10,10,0,0,0,9.09.1c2.35-1.32,2.61-3.41.73-4.89a4.07,4.07,0,0,1,.49.43,4.66,4.66,0,0,1,.52.61,4,4,0,0,1,.35.58,3.68,3.68,0,0,1,.24.67,3.12,3.12,0,0,1,.09.73,2.47,2.47,0,0,1-.09.67,3.1,3.1,0,0,1-.23.65,2.85,2.85,0,0,1-.3.48,4.71,4.71,0,0,1-1.54,1.3,10.62,10.62,0,0,1-9.62-.1A4.72,4.72,0,0,1,45.57,47.29Z"/><g class="cls-7"><path class="cls-1" d="M45.57,47.29c-1.11-1.57-.72-3.37,1-4.83-1.79,1.43-1.62,3.45.57,4.76a10,10,0,0,0,9.09.1c2.35-1.32,2.61-3.41.73-4.89,2.52,2.1,1.6,4.06,1.09,4.8a4.81,4.81,0,0,1-1.56,1.32,10.62,10.62,0,0,1-9.62-.1,4.72,4.72,0,0,1-1.34-1.16Z"/><path class="cls-1" d="M57.64,43a4.53,4.53,0,0,1,.46.59l.14.22.17.35.09.22.1.33,0,.22c0,.09,0,.21,0,.3v.21c0,.09,0,.2,0,.29l0,.19a2.38,2.38,0,0,1,0,.26l-.06.18a1.57,1.57,0,0,1-.09.23l-.07.17c0,.06-.08.15-.12.21l-.08.13-.1.14a4.71,4.71,0,0,1-1.54,1.3,10.62,10.62,0,0,1-9.62-.1,4.72,4.72,0,0,1-1.34-1.16l-.08-.13-.1-.15-.09-.15-.1-.22-.07-.17a2.25,2.25,0,0,1-.08-.24L45,46c0-.08,0-.19,0-.26l0-.21a2.81,2.81,0,0,1,0-.29l0-.21a2.87,2.87,0,0,1,.05-.31l.07-.23a3,3,0,0,1,.12-.32l.11-.24c.06-.1.13-.24.2-.34l.16-.23.29-.35.22-.23.41-.36c-1.79,1.43-1.62,3.45.57,4.76a9.67,9.67,0,0,0,5.93,1.06l-.38.12c-.55.22-1.31.51-.85.75,1.18.62,4.79-.54,4.73-1.23,0-.24-.53-.19-1.46-.11a7.58,7.58,0,0,0,1.12-.49c2.35-1.32,2.61-3.41.73-4.89h0a5.88,5.88,0,0,1,.64.58Z"/><path class="cls-1" d="M57.64,43a4.53,4.53,0,0,1,.46.59l.14.22.17.35.09.22.1.33,0,.22c0,.09,0,.21,0,.3v.21c0,.09,0,.2,0,.29l0,.19a2.38,2.38,0,0,1,0,.26l-.06.18a1.57,1.57,0,0,1-.09.23l-.07.17c0,.06-.08.15-.12.21l-.08.13-.1.14a4.71,4.71,0,0,1-1.54,1.3,10.62,10.62,0,0,1-9.62-.1,4.72,4.72,0,0,1-1.34-1.16l-.08-.13-.1-.15-.09-.15-.1-.22-.07-.17a2.25,2.25,0,0,1-.08-.24L45,46c0-.08,0-.19,0-.26l0-.21a2.81,2.81,0,0,1,0-.29l0-.21a2.87,2.87,0,0,1,.05-.31l.07-.23a3,3,0,0,1,.12-.32l.11-.24c.06-.1.13-.24.2-.34l.16-.23.29-.35.22-.23.09-.08h0l.06,0c-1.52,1.41-1.26,3.29.82,4.54a9.38,9.38,0,0,0,5.23,1.12l-.28.11c-1.17.48-.69.7-.53.77,1.74.77,5.79-.83,5.75-1.64,0-.28-.52-.22-1.37-.12l.29-.14c2.35-1.32,2.61-3.41.73-4.89l.26.21.38.37Z"/><path class="cls-1" d="M57.64,43a4.53,4.53,0,0,1,.46.59l.14.22.17.35.09.22.1.33,0,.22c0,.09,0,.21,0,.3v.21c0,.09,0,.2,0,.29l0,.19a2.38,2.38,0,0,1,0,.26l-.06.18a1.57,1.57,0,0,1-.09.23l-.07.17c0,.06-.08.15-.12.21l-.08.13-.1.14a4.71,4.71,0,0,1-1.54,1.3,10.62,10.62,0,0,1-9.62-.1,4.72,4.72,0,0,1-1.34-1.16l-.08-.13-.1-.15-.09-.15-.1-.22-.07-.17a2.25,2.25,0,0,1-.08-.24L45,46c0-.08,0-.19,0-.26l0-.21a2.81,2.81,0,0,1,0-.29l0-.21a2.87,2.87,0,0,1,.05-.31l.07-.23a3,3,0,0,1,.12-.32l.11-.24c.06-.1.13-.24.2-.34l.06-.1h.08c-.66,1.25-.17,2.67,1.51,3.67a9.13,9.13,0,0,0,4.56,1.14l-.21.1c-.28.14-1.13.56-.19.87,2.85.93,7.27-1.61,6.58-2.47-.09-.11-.27-.08-1,0,1.71-1.31,1.74-3.13.06-4.45l.26.21.38.37Z"/><path class="cls-1" d="M57.64,43a4.53,4.53,0,0,1,.46.59l.14.22.17.35.09.22.1.33,0,.22c0,.09,0,.21,0,.3v.21c0,.09,0,.2,0,.29l0,.19a2.38,2.38,0,0,1,0,.26l-.06.18a1.57,1.57,0,0,1-.09.23l-.07.17c0,.06-.08.15-.12.21l-.08.13-.1.14a4.71,4.71,0,0,1-1.54,1.3,10.62,10.62,0,0,1-9.62-.1,4.72,4.72,0,0,1-1.34-1.16l-.08-.13-.1-.15-.09-.15-.1-.22-.07-.17a2.25,2.25,0,0,1-.08-.24L45,46c0-.08,0-.19,0-.26l0-.21a2.81,2.81,0,0,1,0-.29l0-.21a2.87,2.87,0,0,1,.05-.31l.07-.23a3,3,0,0,1,.12-.32l0-.1,0,0c0,.08,0,.15.15.37a3.09,3.09,0,0,0,1.79,2.69A8.58,8.58,0,0,0,51,48.33l0,0c-.31.15-1.22.66-.13,1,3,1.08,8-1.68,7.53-3-.07-.23-.31-.22-.64-.21.91-1.2.68-2.62-.7-3.7l.26.21.38.37Z"/><path class="cls-1" d="M46.91,48.45a4.72,4.72,0,0,1-1.34-1.16l-.08-.13-.1-.15-.09-.15-.1-.22-.07-.17a2.25,2.25,0,0,1-.08-.24L45,46c0-.08,0-.19,0-.26l0-.21a2.81,2.81,0,0,1,0-.29l0-.21a2.87,2.87,0,0,1,.05-.31l0-.15,0,.09c0,.23.14.44.44.62a3.58,3.58,0,0,0,1.69,1.9,8.11,8.11,0,0,0,2.79,1l-.14.1c-1.22,1.12,1.19,1.3,1.69,1.32s.68,0,.84,0a10,10,0,0,1-5.45-1.19Z"/><path class="cls-1" d="M46.91,48.45a4.72,4.72,0,0,1-1.34-1.16l-.08-.13-.1-.15-.09-.15-.1-.22-.07-.17a2.25,2.25,0,0,1-.08-.24L45,46c0-.08,0-.19,0-.26l0-.21a2.81,2.81,0,0,1,0-.29v-.16c0,.55.43.74.81.81a4,4,0,0,0,1.4,1.29,7.05,7.05,0,0,0,1.63.71l-.09.11c-.54.8.1,1.33,1.9,1.55a9,9,0,0,1-3.71-1.14Z"/><path class="cls-1" d="M57.64,43a4.53,4.53,0,0,1,.46.59l.14.22.17.35.09.22.1.33,0,.22c0,.09,0,.21,0,.3v.21c0,.09,0,.2,0,.29l0,.19a2.38,2.38,0,0,1,0,.26l-.06.18a1.57,1.57,0,0,1-.09.23l-.07.17c0,.06-.08.15-.12.21l-.08.13-.1.14a3.94,3.94,0,0,1-.52.58l0,0c.74-.71,1.57-2.16.52-2.4a2.58,2.58,0,0,0-1.1-3l.26.21.38.37Z"/><path class="cls-1" d="M46.91,48.45a4.72,4.72,0,0,1-1.34-1.16l-.08-.13-.1-.15-.09-.15-.1-.22-.07-.17a2.25,2.25,0,0,1-.08-.24L45,46c0-.08,0-.19,0-.26v0c.1.49.1.49,1.75,1.16l.17.12a1.41,1.41,0,0,1,.54,1c0,.19.06.78,1.47,1.24l.12,0a8.12,8.12,0,0,1-2.11-.86Z"/><path class="cls-1" d="M57.64,43a4.53,4.53,0,0,1,.46.59l.14.22.17.35.09.22.1.33,0,.22c0,.09,0,.21,0,.3v.21c0,.09,0,.2,0,.29v0c0-.66-.12-.89-.43-1.06A2.82,2.82,0,0,0,57,42.43l.26.21.38.37Z"/><path class="cls-1" d="M57.64,43a4.53,4.53,0,0,1,.46.59l.14.22.17.35.09.22v0a3.42,3.42,0,0,0-.56-.91,3.28,3.28,0,0,0-.55-.72l-.11-.11.23.22.13.13Z"/><path class="cls-1" d="M56.08,48.2c-.27.73-3.9,1.45-4,.79-.06-.44,3.53-1.31,4-1a.16.16,0,0,1,0,.16Z"/><path class="cls-1" d="M55.66,48.38c-.37.58-3.18,1.1-3.26.6s2.92-1.08,3.26-.78a.12.12,0,0,1,0,.08.21.21,0,0,1,0,.1Z"/><path class="cls-1" d="M55.29,48.52c-.4.44-2.5.8-2.58.44s2.3-.89,2.61-.63a.12.12,0,0,1,0,.08s0,.08-.07.11Z"/><path class="cls-1" d="M54.88,48.65c-.43.33-1.75.48-1.81.28s1.69-.59,1.87-.47a.12.12,0,0,1,.05.07s-.07.09-.11.12Z"/><path class="cls-1" d="M54.2,48.82a1.14,1.14,0,0,1-.69,0,1.19,1.19,0,0,1,.48-.23,2.12,2.12,0,0,1,.44,0s.09,0,.13.06l-.36.16Z"/></g></g><path class="cls-8" d="M47.18,42.07l.64.23a2.76,2.76,0,0,0-1.54,2.2l-.89.12a3.16,3.16,0,0,1,1.79-2.55Z"/><path class="cls-8" d="M45.39,44.62l.89-.12a2.53,2.53,0,0,0,1.24,2l-.7.45a2.93,2.93,0,0,1-1.43-2.37Z"/><path class="cls-8" d="M46.82,47l.7-.45.3.2a7.87,7.87,0,0,0,3.82,1l0,.65a9.08,9.08,0,0,1-4.43-1.14,3.17,3.17,0,0,1-.36-.23Z"/><path class="cls-8" d="M51.61,48.36l0-.65a8.08,8.08,0,0,0,4-.89c1.89-1,2.21-2.69,1-3.94l.78-.13c1.47,1.45,1.09,3.34-1.1,4.57a9.5,9.5,0,0,1-4.66,1Z"/><path class="cls-8" d="M57.37,42.75l-.78.13a4.08,4.08,0,0,0-.78-.59l.64-.24a4.93,4.93,0,0,1,.92.7Z"/><path class="cls-1" d="M44.12,55.87a6.63,6.63,0,0,1-3-3.32,5.49,5.49,0,0,1,0-4.48c-1,2.12-.12,4.48,2.7,6.18,4.25,2.56,11.29,2.63,15.72.16,3.06-1.71,4.08-4.19,3-6.4A4.84,4.84,0,0,1,63,50.47a7,7,0,0,1-.91,3c-.43.76-1.57,2.2-4.41,3.31a17.48,17.48,0,0,1-11.62,0,12.64,12.64,0,0,1-1.92-.92Z"/><path class="cls-6" d="M57.27,44l-.06-.21-.11-.41c-.05-.17-.11-.4-.15-.58l-.19-.73c-.06-.26-.14-.61-.21-.87l-.22-1c-.07-.33-.16-.77-.23-1.09L55.88,38c-.07-.37-.15-.86-.21-1.23l-.18-1.24c-.05-.4-.11-.92-.16-1.31l-.1-1.23c0-.4,0-.92-.06-1.31V30.51c0-.37,0-.86.08-1.24l.13-.84a5.7,5.7,0,0,1,.28-1l.16-.36s0,0,0,0-.17.11-.24.15l-.15.1a4,4,0,0,1-.51.25,8.6,8.6,0,0,1-6.31,0l-.31-.14-.25-.14-.35-.2v0A3.57,3.57,0,0,1,48,28l.12.51c.06.34.12.8.16,1.14l.06.93c0,.38,0,.89,0,1.27l0,1.16-.09,1.11-.13,1.23a73.16,73.16,0,0,1-1.79,9.08l0,.18a2.71,2.71,0,0,0,1.53,2.18,7.86,7.86,0,0,0,.71.36,9,9,0,0,0,6.58,0c.19-.08.36-.17.53-.26C57,46.05,57.56,45,57.27,44Z"/><path class="cls-4" d="M43.82,59a5.75,5.75,0,0,1-3.07-4l0,.06c.1.21.29.17.66.09.18,0,.35-.12.54-.15s.12.07.19,0h0a7.06,7.06,0,0,0,2.09,1.83q.35.21.72.39h-.06a1.32,1.32,0,0,1,0,.41,3.12,3.12,0,0,0,.23,1.89l.11.17A11.24,11.24,0,0,1,43.82,59Z"/><path class="cls-8" d="M41.45,52.11l4-5a4.51,4.51,0,0,0,1.44,1.31,7.55,7.55,0,0,0,1.76.76l-2,6.28a12.2,12.2,0,0,1-2.87-1.24,7.31,7.31,0,0,1-2.36-2.14Z"/><path class="cls-9" d="M56,48.8a7.69,7.69,0,0,1-1.11.41,9,9,0,0,1-1.27.29L54.82,56a15.71,15.71,0,0,0,2.08-.47,15.16,15.16,0,0,0,1.82-.68Z"/><path class="cls-4" d="M40.76,56.34V55a5.73,5.73,0,0,0,3.07,4,12.94,12.94,0,0,0,1.44.73v1.33a11.56,11.56,0,0,1-1.45-.73,5.72,5.72,0,0,1-3.06-4Z"/><path class="cls-8" d="M46.91,48.45a4.72,4.72,0,0,1-1.34-1.16l-.08-.13-.1-.15-.09-.15-.1-.22-.07-.17a2.25,2.25,0,0,1-.08-.24L45,46c0-.08,0-.19,0-.26l0-.21a2.81,2.81,0,0,1,0-.29v-.16c0,.55.43.74.81.81a4,4,0,0,0,1.4,1.29,7.05,7.05,0,0,0,1.63.71l-.09.11c-.54.8.1,1.33,1.9,1.55a9,9,0,0,1-3.71-1.14Z"/><path class="cls-9" d="M54.88,48.65c-.43.33-1.75.48-1.81.28s1.69-.59,1.87-.47a.12.12,0,0,1,.05.07s-.07.09-.11.12Z"/><path class="cls-4" d="M59.24,56a10.67,10.67,0,0,1-1.58.73,17.48,17.48,0,0,1-11.62,0l-.69-.29c-.38-.18-.87-.43-1.23-.63l-.55-.36A7.07,7.07,0,0,1,41.94,54l-.24-.33-.31-.54-.12-.27c-.05-.1-.1-.23-.14-.33L41,52.26c0-.08-.06-.19-.08-.27l-.07-.23a2.27,2.27,0,0,0-.06-.25l0-.23a2,2,0,0,1,0-.24l0-.24a2.28,2.28,0,0,1,0-.26l0-.27V50l0-.35v0a3.15,3.15,0,0,0,.08.8,5.81,5.81,0,0,0,3,3.79,12.29,12.29,0,0,0,2.6,1.16h0c2.24,2.17,2.33,2.26,5,2.32a15,15,0,0,0,8.34-2l-.46.27Z"/><path class="cls-8" d="M49.77,32.64c-.12,4.83-1,9.58-1.43,14.37a5.12,5.12,0,0,1-.52-.27,3.17,3.17,0,0,1-1.39-1.5l0-.18c1.47-6.35,2.09-11.23,1.89-14.91l-.09-.91-.12-.78L48,28a3.57,3.57,0,0,0-.33-.87v0l.35.2.25.14.31.14c.84.35,1.14,2.43,1.16,5.1Z"/><path class="cls-9" d="M52,47.71s.06-15.38.77-16.73,1.33-1.12,1.74,4.07a98.82,98.82,0,0,0,1.74,11.33S55.26,47.49,52,47.71Z"/><path class="cls-9" d="M57.54,57.75a14.71,14.71,0,0,1-2.26.69c-.86.15-2.57.34-2.57.34a.58.58,0,0,0-.15.6c.11.37,1,1.1,2.88.73s2.34-1.43,2.4-1.8A.57.57,0,0,0,57.54,57.75Z"/><path class="cls-9" d="M59.33,54.5s-.81,1-3.4,1.61a10.09,10.09,0,0,1-4.25.2S56.31,56.38,59.33,54.5Z"/><path class="cls-8" d="M58.74,14.69l-1.57.4A11.7,11.7,0,0,0,46.53,15c-3,1.67-3.09,4.43-.22,6.16a11.7,11.7,0,0,0,10.64.1c3-1.67,3.09-4.43.22-6.16l1.57-.4c3.71,2.24,3.58,5.79-.28,8s-10,2.09-13.72-.14-3.58-5.79.29-7.94A15.09,15.09,0,0,1,58.74,14.69Z"/><path class="cls-10" d="M44.48,24.66c0-.3-.08-.61-.11-.92a3.81,3.81,0,0,0,2,2.68,11.53,11.53,0,0,0,10.47.1,4,4,0,0,0,2.27-2.82h0c0,.31-.07.61-.11.92a3.86,3.86,0,0,1-2.23,2.78,11.37,11.37,0,0,1-10.32-.1A3.73,3.73,0,0,1,44.48,24.66Z"/><path class="cls-6" d="M57.46,13.5,56,13.38a9.25,9.25,0,0,0-8.4-.09c-2.37,1.32-2.45,3.5-.17,4.87a9.25,9.25,0,0,0,8.4.08c2.37-1.32,2.44-3.5.17-4.86l1.44.12c3,1.83,2.93,4.73-.23,6.5A12.36,12.36,0,0,1,46,19.88c-3-1.82-2.93-4.73.23-6.49A12.33,12.33,0,0,1,57.46,13.5Z"/><path class="cls-4" d="M44.33,18.87c-.14-.46-.28-.92-.41-1.38A4.37,4.37,0,0,0,46,19.88,12.36,12.36,0,0,0,57.23,20a4.58,4.58,0,0,0,2.33-2.56h0l-.4,1.39A4.33,4.33,0,0,1,57,21.25a11.7,11.7,0,0,1-10.64-.1A4.14,4.14,0,0,1,44.33,18.87Z"/><path class="cls-1" d="M45.83,16.15c-.09-.44-.17-.87-.25-1.31a3.24,3.24,0,0,0,1.69,2.09A9.65,9.65,0,0,0,56,17a3.38,3.38,0,0,0,1.87-2.22l-.24,1.32a3.23,3.23,0,0,1-1.79,2.12,9.25,9.25,0,0,1-8.4-.08A3.11,3.11,0,0,1,45.83,16.15Z"/><path class="cls-10" d="M44.66,7.92a5.17,5.17,0,0,0,1.47,1.26,12,12,0,0,0,10.92.11,5.25,5.25,0,0,0,1.71-1.41l-1.49,2a4.41,4.41,0,0,1-1.35,1.11,9.46,9.46,0,0,1-8.59-.09,4,4,0,0,1-1.16-1Z"/><path class="cls-6" d="M59.24,3.38C55.25,1,48.65.91,44.49,3.23s-4.3,6.15-.31,8.55,10.6,2.47,14.75.15S63.23,5.78,59.24,3.38Z"/><path class="cls-1" d="M57.74,8.86h0a4.8,4.8,0,0,1-.67.42,12,12,0,0,1-7.23,1.12c-.29,0-.57-.09-.85-.15a9.21,9.21,0,0,1-2.84-1.08l-.44-.29h0c-2.49-1.78-2.25-4.41.67-6A12,12,0,0,1,57.28,3C60,4.6,60.13,7.13,57.74,8.86Z"/><path class="cls-4" d="M59.25,5.1a3.16,3.16,0,0,0-.49-.87A5.36,5.36,0,0,0,57.28,3L56.1,6a4.3,4.3,0,0,1,1.16,1,3,3,0,0,1,.39.69,2,2,0,0,1,.14.67L59.43,6A2.59,2.59,0,0,0,59.25,5.1Z"/><path class="cls-9" d="M47.47,2.34,47,2.52l-.52.25-.15.08c-.2.12-.39.23-.57.36l1.27,2.94c.14-.1.29-.19.44-.28l.13-.06c.13-.07.26-.14.4-.2l.35-.14.32-.12-.82-3.16Z"/><path class="cls-6" d="M57.74,8.86a7.43,7.43,0,0,1-.69.43,12,12,0,0,1-10.92-.11l-.44-.29a2.14,2.14,0,0,1,.1-1.27,7.45,7.45,0,0,1,1.26-2,6.81,6.81,0,0,1,1.78-1.45c.19-.1.44-.23.64-.31a5.81,5.81,0,0,1,.68-.24A6.43,6.43,0,0,1,51,3.42a7.13,7.13,0,0,1,.79,0,5.71,5.71,0,0,1,1.64.25,6.07,6.07,0,0,1,1.25.54l.12.07.34.22c.14.1.33.24.46.35a6.18,6.18,0,0,1,.78.76,7.08,7.08,0,0,1,.73,1,5.81,5.81,0,0,1,.54,1A2.06,2.06,0,0,1,57.74,8.86Z"/><path class="cls-1" d="M58.93,11.93a11.87,11.87,0,0,1-1.77.79h0c-4.09,1.45-9.51,1.13-13-1A6.18,6.18,0,0,1,41.56,9a6.24,6.24,0,0,0,.87,1.45A28.08,28.08,0,0,0,44.9,13.1h0l.4.42.09.1.13.17.09.12v0c0,.1,0,.2-.06.32v.21a2.51,2.51,0,0,0,.87,1.81,4.5,4.5,0,0,0,.66.53l.19.12.36.2.35.16.17.08h0c.22.09.44.17.67.24h0a9.6,9.6,0,0,0,1.71.35l.29,0-.1,0a10.6,10.6,0,0,0,1.69,0h.13l.45,0,.22,0,.25,0,.39-.07.18,0,.36-.1.11,0,.44-.14.11,0c.15-.06.29-.11.43-.18l.08,0A3.42,3.42,0,0,0,56,17a4.58,4.58,0,0,0,.49-.31l.14-.1a4.32,4.32,0,0,0,.39-.34h0a2.4,2.4,0,0,0,.79-2.37l0,0L58,13.7l.11-.15.27-.3.19-.18h0A27.34,27.34,0,0,0,61,10.39a6.94,6.94,0,0,0,.65-1c.11-.22.19-.41.22-.47a.88.88,0,0,1,0-.15A6.19,6.19,0,0,1,58.93,11.93Z"/><path class="cls-10" d="M41.56,9a3.81,3.81,0,0,1-.15-.44A3.81,3.81,0,0,0,41.56,9Z"/><path class="cls-10" d="M61.93,8.78a1.09,1.09,0,0,0,0-.17A1.09,1.09,0,0,1,61.93,8.78Z"/><path class="cls-10" d="M62,8.61s0-.08,0-.11S62,8.58,62,8.61Z"/><path class="cls-1" d="M44.68,22.19l.54-1c-.7,1.33.74.52,2.51,1.59a8.13,8.13,0,0,0,8.35.24C58,21.9,59,22.49,58.27,21.11h0l.56,1c.8,1.5.14,3.2-1.95,4.37a11.53,11.53,0,0,1-10.47-.1C44.49,25.26,43.92,23.63,44.68,22.19Z"/><path class="cls-4" d="M42.05,19.7V18.62c0,1.4.9,2.8,2.7,3.88,3.71,2.23,9.85,2.29,13.72.14,2-1.11,3-2.59,3-4.07v1.08c0,1.48-1,3-3,4.06-3.87,2.16-10,2.1-13.71-.13C43,22.49,42.05,21.1,42.05,19.7Z"/><path class="cls-4" d="M44.39,22.85l-.16-.39-.17-.39a4.68,4.68,0,0,0,2,2.06,12.34,12.34,0,0,0,11.21.11A4.76,4.76,0,0,0,59.44,22h0l-.33.78A4.61,4.61,0,0,1,57,24.93a11.84,11.84,0,0,1-10.72-.11A4.46,4.46,0,0,1,44.39,22.85Z"/><path class="cls-4" d="M44.48,24.66c0-.3-.08-.61-.11-.92a3.81,3.81,0,0,0,2,2.68,11.53,11.53,0,0,0,10.47.1,4,4,0,0,0,2.27-2.82h0c0,.31-.07.61-.11.92a3.86,3.86,0,0,1-2.23,2.78,11.37,11.37,0,0,1-10.32-.1A3.73,3.73,0,0,1,44.48,24.66Z"/><path class="cls-4" d="M44.76,24.86l.54-1.25A4.35,4.35,0,0,0,46.83,25a4.3,4.3,0,0,0,.52.28L47,26.72c-.2-.09-.39-.2-.57-.3a4.8,4.8,0,0,1-1.65-1.56Z"/><path class="cls-9" d="M55,25.77l-.37.1a9.79,9.79,0,0,1-1.33.27l.13,1.47a13.28,13.28,0,0,0,1.45-.29l.4-.12Z"/><path class="cls-4" d="M44.48,24.66l-.11-.92a3.81,3.81,0,0,0,2,2.68,8.14,8.14,0,0,0,1.11.54l.06.88a9.21,9.21,0,0,1-1.09-.54,3.73,3.73,0,0,1-2-2.64Z"/><path class="cls-4" d="M44.33,18.87l-.41-1.38A4.37,4.37,0,0,0,46,19.88a8,8,0,0,0,1.5.71l.22,1.23a9.26,9.26,0,0,1-1.42-.67,4.14,4.14,0,0,1-2-2.28Z"/><path class="cls-4" d="M45.83,16.15l-.25-1.31a3.24,3.24,0,0,0,1.69,2.09,6.3,6.3,0,0,0,1,.49l.14,1.21a5.81,5.81,0,0,1-1-.47,3.11,3.11,0,0,1-1.62-2Z"/><path class="cls-4" d="M42.07,20.1V19a5,5,0,0,0,2.67,3.47,10.63,10.63,0,0,0,1.26.64v1.07a9.26,9.26,0,0,1-1.26-.63,5,5,0,0,1-2.68-3.48Z"/><path class="cls-4" d="M49.05,15.32s-.71,2.92-2.58.89c.15-.26.42-1.18-1.57-3.11a6,6,0,0,0,1.09.83,9.8,9.8,0,0,0,3.06,1.14v.25Z"/><path class="cls-9" d="M55.36,17.2a5.71,5.71,0,0,1-3.33.61,17.52,17.52,0,0,1,3.5-.78l-.17.17Z"/><path class="cls-4" d="M49.05,15.07A9.8,9.8,0,0,1,46,13.93a6,6,0,0,1-1.09-.83l-.32-.31-.3-.3L44,12.21,43.75,12l-.23-.25-.22-.23-.2-.22L42.91,11l-.17-.21-.16-.19-.15-.19a2.2,2.2,0,0,0-.14-.18l-.13-.19L42,9.9l-.12-.2-.12-.2-.11-.22c0-.07-.08-.17-.12-.24l-.08-.22c0-.08-.06-.18-.08-.26a5.71,5.71,0,0,0,2.77,3.22,11.35,11.35,0,0,0,1.89.9l.13.05a5.16,5.16,0,0,1,2.85,2.34Z"/><path class="cls-1" d="M57.74,8.86v0s0,0,0,0v0c-1.37-3.46-5.51-4-7.4.13a8.69,8.69,0,0,0-.49,1.43c-.29,0-.57-.09-.85-.15a9.21,9.21,0,0,1-2.84-1.08l-.44-.29h0v0s0-.06,0-.09a.13.13,0,0,0,0-.06V8.66a2,2,0,0,1,0-.65h0c.48-.69.83-1.18,3.47-2,2.31-.69,3.27-1,3.58-2a2.48,2.48,0,0,1,2,.2,7.68,7.68,0,0,1,.8.57l.31.28.47.48.25.3.3.4.18.29.19.31.13.24.11.23.07.15s0,.07,0,.11A2.06,2.06,0,0,1,57.74,8.86Z"/><path class="cls-4" d="M49.79,8.06a18,18,0,0,0-.82,2.2,9.21,9.21,0,0,1-2.84-1.08l-.44-.29a0,0,0,0,0,0,0s0-.06,0-.09a.13.13,0,0,0,0-.06V8.66h0a6,6,0,0,1,2.4-1.77c1-.39,2-.38,2.07,0S50.08,7.39,49.79,8.06Z"/><path class="cls-4" d="M49.85,4.47l.49-1c-.16.31,0,.66.39.91a2.5,2.5,0,0,0,2.29,0c.45-.26.6-.62.43-1l.49,1c.22.43,0,.91-.56,1.24a3.32,3.32,0,0,1-3,0C49.81,5.34,49.65,4.88,49.85,4.47Z"/><path class="cls-8" d="M54.26,2.36A2.36,2.36,0,1,1,51.9,0,2.36,2.36,0,0,1,54.26,2.36Z"/><path class="cls-6" d="M54.1,2.11a2,2,0,1,1-2-2A2,2,0,0,1,54.1,2.11Z"/><path class="cls-11" d="M53.26,1.77a.64.64,0,1,1-.64-.63A.64.64,0,0,1,53.26,1.77Z"/><path class="cls-9" d="M54.86,8.76a1.9,1.9,0,0,0-1.7-.51c-.94.25-1.26,1.22-1.45,1.6s3.55-.12,3.63-.56A2.7,2.7,0,0,0,54.86,8.76Z"/><path class="cls-12" d="M61.85,6.15a4.25,4.25,0,0,1,0,3.08,5.61,5.61,0,0,1-2,2.41A10.8,10.8,0,0,1,57,13a20,20,0,0,1-3.06.71,15.05,15.05,0,0,1-6.23-.38,12.42,12.42,0,0,1-5.4-3.05A13.65,13.65,0,0,0,47.77,13a15.67,15.67,0,0,0,6.1.28,14.94,14.94,0,0,0,5.77-1.93,5.25,5.25,0,0,0,2-2.22A4.36,4.36,0,0,0,61.85,6.15Z"/></g></g></g></svg>