<svg xmlns="http://www.w3.org/2000/svg" viewBox="0 0 22.25 51.59"><defs><style>.cls-1{fill:#aeb1b3;}.cls-2{fill:#cdd0d1;}.cls-3{fill:#e6eaeb;}.cls-4{fill:#babdbd;}.cls-5{fill:#f5f9fa;}.cls-6{fill:#1c1c1c;}.cls-7{fill:#9a9fa1;}.cls-8{fill:#1f1f1f;}.cls-9{fill:#7f7f7f;}.cls-10{fill:#fff;}</style></defs><g id="Capa_2" data-name="Capa 2"><g id="layer"><path class="cls-1" d="M22.24,43.78v-.37c0-.14,0-.33-.05-.47l-.07-.33a4,4,0,0,0-.09-.4l-.09-.31-.13-.34-.05-.14.06-.22c0-.11.06-.26.08-.38l0-.28c0-.11,0-.26,0-.37v-.28c0-.11,0-.26,0-.37l0-.29-.1-.38-.1-.29-.06-.13.05.15a4.82,4.82,0,0,0-.31-.7l-1.89-3.32v0l0-.23L19.33,34l-.08-.25-.12-.32L19,33.16c-.06-.11-.14-.26-.21-.36l-.18-.28-.34-.43L18,31.81l-.06,0h0c0-.06,0-.12,0-.17l-.08-.3-.09-.37,0-.09c-.17-.68-.3-1.26-.39-1.64l-.17-.79v0L17,27.61a1.18,1.18,0,0,1,0-.2c-.05-.25-.11-.55-.15-.78l-.17-.95-.1-.59,0-.22c0-.07,0-.15,0-.21l-.15-1c0-.31-.1-.73-.14-1.06v0l-.13-1.07c0-.33-.08-.77-.11-1.11v0l-.1-1.13c0-.13,0-.29,0-.45l.07,0,0,0h0l.21-.12-.08.05c.19-.12.37-.23.49-.32a5.54,5.54,0,0,0,.64-.54,4,4,0,0,0,.6-.76,3.38,3.38,0,0,0,.5-1.5,1.62,1.62,0,0,0,0-.3A6.18,6.18,0,0,0,19.71,14l-.05,0a3.88,3.88,0,0,0,.9-1.86l.91-5.46s0,0,0,.06a3.93,3.93,0,0,0-1-3.28h0l-2.42,1.4L17.93,6l-.06,0a11.92,11.92,0,0,0-1.15-.56h0a9.29,9.29,0,0,0-1.4-.48L15.61.6a17.59,17.59,0,0,0-9.22,0h0l.27,4.24h0a9.42,9.42,0,0,0-2.51,1L4,4.85a3,3,0,0,0-.26.74A3,3,0,0,1,4,4.85L1.56,3.45a4,4,0,0,0-1,3.29v0c.32,1.81.63,3.64.94,5.45A3.91,3.91,0,0,0,2.34,14a6.42,6.42,0,0,0,1.37,1.17,2.11,2.11,0,0,1,0,.21,3.83,3.83,0,0,0,.31,1.28,3.47,3.47,0,0,0,.34.59,3,3,0,0,0,.31.38h0l0,0,.15.17,0,0,0,.05.15.13.17.14.17.13.08.06.38.25.37.2c0,.15,0,.3,0,.42,0,.48-.08,1.2-.2,2.29-.19,1.85-.4,3.17-.57,4.23S5,28.36,4.82,29.22s-.36,1.62-.61,2.59l-.07.08a4.73,4.73,0,0,0-1.39,2.72l0,.2h0c0-.07,0-.13,0-.2L.88,37.94a4.41,4.41,0,0,0-.33.74l0-.06,0,.08a5.15,5.15,0,0,0-.25,1.38c0,.13,0,.31,0,.44s0,.26.05.37l.06.28c0,.1.06.22.09.33A6.93,6.93,0,0,0,0,43.73v1.45a4.68,4.68,0,0,0,1.67,3.37h0l0,0a8.68,8.68,0,0,0,.85.67l.09.07a5.16,5.16,0,0,0,.46.29,11.46,11.46,0,0,0,1.61.79c.18.08.38.14.58.21s.58.22.89.31L6.5,51l.68.16.69.16v0a17.29,17.29,0,0,0,11-1.5c2.28-1.27,3.43-3,3.43-4.66Z"/><path class="cls-2" d="M0,43.85c0,1.6,1,3.2,3.1,4.44,4.25,2.56,11.29,2.63,15.72.16,2.28-1.27,3.43-3,3.42-4.67v1.34c0,1.69-1.15,3.39-3.43,4.66-4.43,2.47-11.47,2.4-15.72-.16C1,48.38,0,46.78,0,45.18Z"/><path class="cls-3" d="M22.23,43.41c0-.14,0-.33-.05-.47l-.07-.33a4,4,0,0,0-.09-.4l-.09-.31-.13-.34-.11-.27L21.56,41l-.12-.24-.14-.25-.12-.2L21,40.09l-.12-.17a1.13,1.13,0,0,0-.12-.18l-.11-.15-.11-.14-.1-.12a.48.48,0,0,0-.09-.11l-.07-.08-.06-.07a4.12,4.12,0,0,1,1.16,2.73c0,1.58-1.06,3.15-3.17,4.33C14.14,48.42,7.62,48.35,3.68,46,1.77,44.83.82,43.35.81,41.86A4.13,4.13,0,0,1,2,39.12l-.05.07a.27.27,0,0,0-.07.08l-.09.1-.1.13-.11.14-.11.15L1.3,40a2,2,0,0,0-.12.19l-.13.2-.13.22L.8,40.8l-.13.26-.08.17A7.41,7.41,0,0,0,0,43.73v.12c0,1.6,1,3.2,3.1,4.44,4.25,2.56,11.29,2.63,15.72.16,2.28-1.27,3.43-3,3.42-4.67Z"/><path class="cls-4" d="M7.7,49.83c-.86-.89-.07-2.25,0-2.34h0A12.62,12.62,0,0,1,3.68,46a7.91,7.91,0,0,1-1.26-.93h0c.07.11.33,2.19-.77,2.16A7.93,7.93,0,0,0,3.1,48.29,14,14,0,0,0,7.86,50c-.05,0-.12-.1-.16-.15Z"/><path class="cls-1" d="M1.66,47.22v1.34a7.82,7.82,0,0,0,1,.77V48a7.64,7.64,0,0,1-1-.77Z"/><path class="cls-1" d="M2.63,48v1.34a5.16,5.16,0,0,0,.46.29,12.53,12.53,0,0,0,3.08,1.31V49.59a12.36,12.36,0,0,1-3.08-1.3L2.63,48Z"/><path class="cls-1" d="M6.18,49.59v1.34a15.39,15.39,0,0,0,1.69.39V50a15.21,15.21,0,0,1-1.68-.39Z"/><path class="cls-5" d="M16.55,47.52a5.21,5.21,0,0,0-2,.45c-.1.06-.73.55-.44,1,.54.75,3.06.13,3.17-.79C17.32,48,17.31,47.65,16.55,47.52Z"/><path class="cls-1" d="M21.26,40.77a5.75,5.75,0,0,0-2.71-3.08c-3.05-1.84-7.66-2.29-11.49-1.34A13.05,13.05,0,0,0,4,37.54a8.2,8.2,0,0,0-1.7,1.24A4.22,4.22,0,0,0,.82,42a4.63,4.63,0,0,0,2,3.36,6.73,6.73,0,0,0,.73.51l.11.07A12.82,12.82,0,0,0,7.87,47.5a17.45,17.45,0,0,0,3.63.3,15,15,0,0,0,6.75-1.67A8.8,8.8,0,0,0,20,44.87a4.72,4.72,0,0,0,1.29-2A3.48,3.48,0,0,0,21.26,40.77Zm-2.13,3.3a7.49,7.49,0,0,1-1.56,1.14,13.37,13.37,0,0,1-6.11,1.51,15.61,15.61,0,0,1-3.29-.26,11.87,11.87,0,0,1-3.79-1.38L4.28,45c-.24-.15-.46-.31-.66-.46a4.24,4.24,0,0,1-1.83-3.05,3.85,3.85,0,0,1,1.32-3,7.53,7.53,0,0,1,1.54-1.11,11.39,11.39,0,0,1,2.79-1.08,14.54,14.54,0,0,1,10.41,1.21,5.2,5.2,0,0,1,2.45,2.79,3.17,3.17,0,0,1,0,1.88A4.26,4.26,0,0,1,19.13,44.07Z"/><path class="cls-2" d="M19.47,35v-.21c0-.07,0-.17,0-.24l0-.23L19.33,34l-.08-.25-.12-.32L19,33.16c-.06-.11-.14-.26-.21-.36l-.18-.28-.34-.43L18,31.81l-.19-.17a3.07,3.07,0,0,1,1,3.14,4.55,4.55,0,0,1-2.31,2.52,12.28,12.28,0,0,1-11.14-.11,4.39,4.39,0,0,1-2.08-2.37,3,3,0,0,1,1-3.11,5,5,0,0,0-1.56,2.9l0,.21v.38a1.55,1.55,0,0,1,0,.21l0,.16,0,.18,0,.13,0,.14,0,.1a.37.37,0,0,0,0,.09,1.83,1.83,0,0,1,0-.19,1.83,1.83,0,0,0,0,.19,4.64,4.64,0,0,0,2.2,2.5,13,13,0,0,0,11.79.12,4.8,4.8,0,0,0,2.45-2.67l0-.09,0-.1,0-.12c0-.05,0-.11,0-.15l0-.16s0-.12,0-.18V35Z"/><path class="cls-4" d="M9.44,40.09c-.87-.19-1.67-1-.95-1.5l.14-.1.19-.1a9.66,9.66,0,0,1-3.41-1.2,5.71,5.71,0,0,1-1.33-1.07c0,.08.08.2.12.29.27.71.32.86.22,1.11s-.51.15-.7.06a.29.29,0,0,1-.1-.07,5.61,5.61,0,0,0,1.46,1.2A11,11,0,0,0,9.51,40.1Z"/><path class="cls-3" d="M2.83,36v0Zm0-.08s0,0,0-.07S2.81,35.9,2.81,35.92Zm0-.07a.17.17,0,0,1,0-.07A.17.17,0,0,0,2.8,35.85Zm0-.09v0Zm0-.07s0-.1,0-.15S2.77,35.64,2.77,35.69Zm0-.17v0Zm18.57,2.36L19,33.82c1,1.71.25,3.68-2.15,5a13,13,0,0,1-11.79-.12,4.61,4.61,0,0,1-2.2-2.51h0v-.05l0-.06h0s0,0,0-.06-.06-.31-.08-.44a4.91,4.91,0,0,1,0-.78c0-.07,0-.13,0-.2L.88,37.94c-1.2,2.12-.39,4.54,2.46,6.25,4.12,2.48,10.93,2.55,15.22.16C21.65,42.62,22.59,40.09,21.33,37.88ZM2.83,36h0v0Zm-.07-.65v0Zm0-.09v0Zm0-.08s0,0,0-.07S2.76,35.18,2.76,35.2Zm0-.07v0Zm0-.09v0Zm0-.07a.22.22,0,0,1,0-.08A.22.22,0,0,0,2.79,35Zm0-.09v0Zm0-.08v0Zm0-.07s0,0,0-.08S2.84,34.7,2.83,34.73Zm0-.09,0-.06Zm0-.08v0Zm0-.07a.64.64,0,0,1,0-.07A.64.64,0,0,0,2.9,34.49Zm0-.09,0,0Zm0-.08,0,0Zm0-.07,0-.07Zm0-.08,0-.06Zm0-.08,0-.05Zm0-.07a.25.25,0,0,1,0-.07A.25.25,0,0,0,3.09,34Zm0-.09,0,0Zm-.37,1.44v0Z"/><path class="cls-2" d="M21.93,39.89c0-.11,0-.26,0-.37l0-.29-.1-.38-.1-.29-.06-.13c.83,2.07-.19,4.33-3,5.92a11.73,11.73,0,0,1-1.68.76,17.57,17.57,0,0,1-11.52,0,11.71,11.71,0,0,1-2-1C.79,42.66-.12,40.56.57,38.62l0,.08a5.15,5.15,0,0,0-.25,1.38c0,.13,0,.31,0,.44s0,.26.05.37l.06.28.1.37.11.3.17.39.17.3c.08.13.19.31.28.43l.25.32.46.5.37.34A10.21,10.21,0,0,0,3.5,45l.56.31.76.36.64.26.06,0a.19.19,0,0,1-.11-.09.19.19,0,0,0,.11.09,17.16,17.16,0,0,0,11.21,0l.63-.25,1-.51.49-.29a8.43,8.43,0,0,0,1.41-1.11l.29-.3.41-.52.2-.3c.08-.13.18-.3.25-.44l.13-.29c.05-.12.11-.28.15-.4l.08-.28c0-.11.06-.26.08-.38l0-.28c0-.11,0-.26,0-.37Z"/><path class="cls-4" d="M4.33,38.2,2.38,43.53a9,9,0,0,0,1,.66l0,0L5.1,38.73l0,0a7,7,0,0,1-.75-.51Z"/><path class="cls-4" d="M5.1,38.73,3.37,44.21a11.64,11.64,0,0,0,2.2,1l1.24-5.71a9.2,9.2,0,0,1-1.71-.78Z"/><path class="cls-4" d="M6.81,39.51,5.57,45.22a15.22,15.22,0,0,0,1.82.5l.83-5.82a12.13,12.13,0,0,1-1.41-.39Z"/><path class="cls-5" d="M15.26,38.39c-.34-.11-2.93.36-3.08.73a.11.11,0,0,0,0,.1c.26.51,3-.06,3.2-.66a.21.21,0,0,0,0-.11.31.31,0,0,0-.13-.06Z"/><path class="cls-5" d="M12.53,40.11,13.06,46a6.56,6.56,0,0,0,3.75-.74l-1.32-5.79A9.66,9.66,0,0,1,12.53,40.11Z"/><path class="cls-4" d="M16.78,30.85a12.22,12.22,0,0,0-11.14-.11c-3.14,1.75-3.25,4.64-.23,6.45a12.28,12.28,0,0,0,11.14.11C19.69,35.55,19.79,32.66,16.78,30.85Z"/><path class="cls-3" d="M7.3,18.79a5.77,5.77,0,0,0,.57.29,5,5,0,0,0,.67.24l.38.11.38.08.39.07a8.52,8.52,0,0,0,1.24.09,9,9,0,0,0,1.26-.07,8.31,8.31,0,0,0,1.16-.23,6.59,6.59,0,0,0,1-.38,5.63,5.63,0,0,0,.55-.31,2.93,2.93,0,0,0,.41-.32,3.35,3.35,0,0,0,.27-.31.89.89,0,0,0,.16-.3,2.28,2.28,0,0,0,0,.27c0,.35.05.81.07,1.16.05.63.1,1.29.21,2.28s.2,1.66.28,2.18c.1.73.15,1,.32,2s.52,2.77.68,3.51.54,2.38,1,3.87c.4,1.34-.33,2.77-2.15,3.79a11.45,11.45,0,0,1-10.37-.1c-1.67-1-2.31-2.37-1.94-3.65.09-.32.22-.79.25-.92.31-1.19.48-1.91.71-3,.18-.86.5-2.48.66-3.52s.38-2.38.57-4.23c.12-1.09.17-1.81.2-2.29s0-.81.06-1.16a1,1,0,0,0,0-.26,1.45,1.45,0,0,0,.38.56A2.83,2.83,0,0,0,7.3,18.79Z"/><path class="cls-4" d="M18.24,32.78l-.18-.63L18,31.7c0-.15-.1-.36-.14-.52l-.14-.59-.16-.67-.17-.73-.17-.8L17,27.54l-.17-.91-.17-.95-.17-1-.15-1c-.05-.32-.11-.75-.15-1.08l-.13-1.1c0-.34-.08-.8-.11-1.14l-.1-1.14c0-.35,0-.83-.07-1.18v-.25l0,.07-.07.12-.07.11a2.09,2.09,0,0,1-.14.17l-.13.14-.21.17-.2.15-.28.17-.27.14-.34.15-.32.12-.38.11-.36.09-.4.08-.4.06-.42,0-.42,0h-.84l-.42,0-.4-.05-.4-.07-.37-.08-.38-.11-.33-.1-.34-.14L7.59,19l-.29-.16-.22-.15-.25-.18-.14-.14-.16-.17L6.45,18v0c1.78,2.83-1.22,18.16-1.29,18.26.2.15.41.3.64.44a9.11,9.11,0,0,0,2.79,1l0-.13c0-.1,1-17,1.06-17.07.15-.41.15-.41,2.78-.92a5.64,5.64,0,0,0,3.08-1.42s.06-.09.1-.09.09,0,.16,1A74.07,74.07,0,0,0,17,28.74c.45,2.35.8,3.67,1.32,5.67a2.48,2.48,0,0,0,0-1.35l0-.09c0-.06,0-.13-.05-.19Z"/><path class="cls-6" d="M17.83,31.64a2.94,2.94,0,0,0-.37-.32Z"/><path class="cls-6" d="M4.31,31.71l0,0Z"/><path class="cls-6" d="M4.4,31.61l-.06.07.19-.18Z"/><path class="cls-2" d="M5.91,18.56a8.77,8.77,0,0,0,1.83.8c.37.1.71.19,1,.25l.52.09c.69.08.69.08,1.07.1a10.81,10.81,0,0,0,1.09,0l.54,0A9.36,9.36,0,0,0,13,19.65s.49-.08,1-.23a10,10,0,0,0,1-.33,7.22,7.22,0,0,0,1.53-.82,5.54,5.54,0,0,0,.64-.54,4,4,0,0,0,.6-.76,3.38,3.38,0,0,0,.5-1.5,5.77,5.77,0,0,0-.08-1.73c0,.06-2,1.21-3.67,2.12-2.81,1.57-4.25,1-6.95-.63.06-2.82-3.61-1.62-3.79-1.45-.38.36-.12,1.1-.09,1.55a3.83,3.83,0,0,0,.31,1.28,3.47,3.47,0,0,0,.34.59,4.67,4.67,0,0,0,.48.57c.18.18.46.38.66.54Z"/><path class="cls-7" d="M15.55,8.26a10,10,0,0,0-9,0c-2.47,1.43-2.46,3.76,0,5.2a10,10,0,0,0,9,0C18.05,12,18,9.7,15.55,8.26Z"/><path class="cls-7" d="M15.45,11.54l4.21-2.43a7.05,7.05,0,0,0-1.84-1.48,11.42,11.42,0,0,0-2.65-1.09L11,9,6.78,6.54A11.16,11.16,0,0,0,4.18,7.6,6.78,6.78,0,0,0,2.34,9.1l4.19,2.43L2.34,14a7,7,0,0,0,1.89,1.53,11.48,11.48,0,0,0,2.56,1.06L11,14.11l4.26,2.46a11.28,11.28,0,0,0,2.59-1.07h0A6.83,6.83,0,0,0,19.71,14Z"/><path class="cls-7" d="M15.56,10l4.32-2.5A7.11,7.11,0,0,0,18,6a11.5,11.5,0,0,0-2.71-1.11L11,7.36,6.67,4.87A11.69,11.69,0,0,0,4,6,7.41,7.41,0,0,0,2.11,7.5L6.42,10l-4.3,2.48A7.09,7.09,0,0,0,4.05,14a11.53,11.53,0,0,0,2.64,1.09L11,12.64l4.36,2.52A11.58,11.58,0,0,0,18,14.07h0a7.18,7.18,0,0,0,1.89-1.54Z"/><path class="cls-1" d="M1.56,8.74,2.34,14a3.91,3.91,0,0,1-.84-1.79C1.19,10.35.88,8.52.56,6.71A4.21,4.21,0,0,0,1.56,8.74Z"/><path class="cls-2" d="M15.45,11.59l.14,0-.32,5c-.27.08-.54.15-.82.21s-.61.12-.92.17-.42.07-.63.09-.63.06-1,.08a15.85,15.85,0,0,1-4.73-.42l-.39-.1h0l-.26-5,.3.08a17.51,17.51,0,0,0,5.18.46c.46,0,.92-.07,1.37-.13l.36-.05.34-.06.34-.06.33-.07h0l.33-.07Z"/><path class="cls-8" d="M15.59,11.55l.11,0-.11,0Z"/><path class="cls-8" d="M17.5,10.85l.3-.14-.14.07Z"/><path class="cls-3" d="M21.47,6.65l-.91,5.46A4.39,4.39,0,0,1,19,14.69l1.49-5.95h0A4.28,4.28,0,0,0,21.47,6.65Z"/><path class="cls-3" d="M15.45,11.59l.14,0-.32,5c-.27.08-.54.15-.82.21s-.61.12-.92.17-.42.07-.63.09-.63.06-1,.08l.07-5c.46,0,.92-.07,1.37-.13l.36-.05.34-.06.34-.06.33-.07h0l.33-.07Z"/><path class="cls-2" d="M7.22,16.8c-.13,0-.27-.18-.39-.21h0s-.37-5-.43-5l.17,0,.3.08Z"/><path class="cls-7" d="M5.91,18.56a8.77,8.77,0,0,0,1.83.8c.37.1.71.19,1,.25l.52.09c.69.08.69.08,1.07.1a10.81,10.81,0,0,0,1.09,0l.54,0A9.36,9.36,0,0,0,13,19.65s.49-.08,1-.23a10,10,0,0,0,1-.33,7.22,7.22,0,0,0,1.53-.82,5.54,5.54,0,0,0,.64-.54,4,4,0,0,0,.6-.76,3.38,3.38,0,0,0,.5-1.5,5.77,5.77,0,0,0-.08-1.73c0,.06.24,1.3-.19,1.55.23,1.21-.49,2.47-2.13,3.38a11,11,0,0,1-10-.1c-1.49-.9-2.13-2.09-1.92-3.24-.43-.25-.21-1.49-.2-1.55a7,7,0,0,0-.09,1.55,3.83,3.83,0,0,0,.31,1.28,3.47,3.47,0,0,0,.34.59,4.67,4.67,0,0,0,.48.57c.18.18.46.38.66.54Z"/><path class="cls-4" d="M3.42,14.07A4.87,4.87,0,0,0,5.31,16a12.37,12.37,0,0,0,11.21.11,5,5,0,0,0,2.13-2L18,15.35a4.63,4.63,0,0,1-1.95,1.86,11.27,11.27,0,0,1-10.24-.1,4.51,4.51,0,0,1-1.73-1.72Z"/><path class="cls-5" d="M4,4.85,1.56,3.45a3.87,3.87,0,0,0,0,5.28h0L4,7.32A2.58,2.58,0,0,1,4,4.85Z"/><path class="cls-5" d="M15.56.64a.1.1,0,0,1,0,0,17.59,17.59,0,0,0-9.22,0h0L8.81,2a12.58,12.58,0,0,1,4.37,0L15.56.64Z"/><path class="cls-5" d="M8.85,10.15h0L6.41,11.56a17.54,17.54,0,0,0,9.18,0l-2.43-1.41A12.48,12.48,0,0,1,8.85,10.15Z"/><path class="cls-1" d="M4,4.85l.53,3.23A2.7,2.7,0,0,1,4,4.85Z"/><path class="cls-2" d="M14,8.11l2.49.81a3.13,3.13,0,0,1-.36.22,9.45,9.45,0,0,1-2.94,1,12.17,12.17,0,0,1-5.67-.32,8.19,8.19,0,0,1-1.14-.45L8.42,7.52h0L8.81,2,9,2l.4-.06.31,0h.09A12.69,12.69,0,0,1,13.18,2l.41,5.48Z"/><path class="cls-7" d="M15.66,8.33a10,10,0,0,0-9.08-.1,5.24,5.24,0,0,0-1,.72L5.71,9a11.49,11.49,0,0,0,10.39.1,3.13,3.13,0,0,0,.36-.22A4.61,4.61,0,0,0,15.66,8.33Z"/><path class="cls-9" d="M8.53,2.08l.13,0-.31.06Z"/><path class="cls-2" d="M9.92,7.25c-.36,0-.71.09-1.06.16l-.16,0-.28.07h0L8.81,2l-.15,0,.15,0L9,2l.4-.06.31,0h.09Z"/><path class="cls-8" d="M.61,38.51c0-.1.08-.2.13-.3A2.71,2.71,0,0,0,.61,38.51Z"/><path class="cls-8" d="M.57,38.62l0-.11S.58,38.58.57,38.62Z"/><path class="cls-8" d="M21.59,38.43l-.07-.18Z"/><path class="cls-8" d="M21.52,38.25l-.05-.1Z"/><path class="cls-1" d="M15.24,19a11,11,0,0,1-5.52.69c-2.74-.4-2.38-1.82-2.37-1.84s.1,0,.15,0a8.39,8.39,0,0,1-1.64-.72l.12.09a.15.15,0,0,1,.06.05s-.37,1-1.09.53a1.72,1.72,0,0,1-.27-.24l.28.28a6.18,6.18,0,0,0,1,.71l.42.23.46.22.46.18.49.17.5.13.52.12.52.09.53.06.54,0,.54,0h.55c.16,0,.38,0,.54,0l.53-.05.53-.08.53-.1.51-.13.49-.15.48-.18.46-.2c.14-.07.32-.15.45-.23l.21-.12-.42.24-.51.24Z"/><path class="cls-7" d="M5.59,16.12l.48,1.14a8.1,8.1,0,0,0,1.27.55L7,16.73a9.14,9.14,0,0,1-1.39-.61Z"/><path class="cls-5" d="M11.83,38s.22-14.39.89-15.64,1.85,10.36,2.2,12.23.46,2.62.46,2.62A8.22,8.22,0,0,1,11.83,38Z"/><path class="cls-5" d="M15,17.6a.17.17,0,0,1,.15.27,2.07,2.07,0,0,1-1.13.61c-1.19.29-1.59.05-1.59-.17S13.07,17.79,15,17.6Z"/><polygon class="cls-7" points="3.98 7.32 4.52 8.07 5.58 12.58 2.34 13.95 1.55 8.72 3.98 7.32"/><polygon class="cls-7" points="6.4 0.63 6.78 6.54 8.42 7.51 8.81 2.03 6.4 0.63"/><polygon class="cls-2" points="13.18 2.01 13.59 7.49 15.17 6.54 15.61 0.6 13.18 2.01"/><path class="cls-2" d="M2.12,12.47S3,14,6.69,15.13l.53,1.67A13.38,13.38,0,0,1,2.34,14,4.33,4.33,0,0,1,2.12,12.47Z"/><path class="cls-5" d="M15.28,4.88l-1.81,1L17.65,8.8,18,7.34a2.31,2.31,0,0,0,.33-1.13A11,11,0,0,0,15.28,4.88Z"/><polygon class="cls-7" points="18.05 4.84 17.65 8.8 18.65 7.52 18.96 5.34 18.05 4.84"/><path class="cls-5" d="M20.49,3.43h0l-2.42,1.4a2.58,2.58,0,0,1,0,2.5l2.43,1.4A3.88,3.88,0,0,0,20.49,3.43Z"/><polygon class="cls-2" points="18.02 7.34 16.54 13.29 18.96 14.69 20.45 8.74 18.02 7.34"/><path class="cls-2" d="M17.26,10.39s0-1.82-3.67-2.9l-.12-1.57S17.73,7.4,17.65,8.8Z"/><path class="cls-1" d="M4.74,9l.2.82A5.64,5.64,0,0,1,8.42,7.51l.11-1.59S4.63,7.15,4.74,9Z"/><path class="cls-5" d="M8.53,5.92l-1.86-1a9.42,9.42,0,0,0-2.51,1c.11.68.58,3.14.58,3.14S4.42,7.34,8.53,5.92Z"/><path class="cls-5" d="M2.12,12.47l3-1.73s-.1.82,1.27,1.27c0,.18.26,3.12.26,3.12S2.88,14.12,2.12,12.47Z"/><path class="cls-3" d="M19.56,12.31a7.66,7.66,0,0,1-4.19,2.85c-2.95.88-.1,1.4-.1,1.4A9,9,0,0,0,19,14.69,3.54,3.54,0,0,0,19.56,12.31Z"/><path class="cls-5" d="M19.56,12.31l-2.43-1.4-1.54.64-.23,3.62S19.58,13.83,19.56,12.31Z"/><path class="cls-10" d="M21.86,40.19a3.51,3.51,0,0,1-.49,1.8,6.3,6.3,0,0,1-1.23,1.44,10.66,10.66,0,0,1-3.26,1.89,13.66,13.66,0,0,1-7.41.59,17,17,0,0,0,7.26-1,11.63,11.63,0,0,0,3.21-1.75A4.57,4.57,0,0,0,21.86,40.19Z"/></g></g></svg>